<?xml version="1.0" encoding="utf-8" standalone="no"?>
<!DOCTYPE svg PUBLIC "-//W3C//DTD SVG 1.1//EN"
  "http://www.w3.org/Graphics/SVG/1.1/DTD/svg11.dtd">
<!-- Created with matplotlib (http://matplotlib.org/) -->
<svg height="432pt" version="1.1" viewBox="0 0 360 432" width="360pt" xmlns="http://www.w3.org/2000/svg" xmlns:xlink="http://www.w3.org/1999/xlink">
 <defs>
  <style type="text/css">
*{stroke-linecap:butt;stroke-linejoin:round;}
  </style>
 </defs>
 <g id="figure_1">
  <g id="patch_1">
   <path d="M 0 432 
L 360 432 
L 360 0 
L 0 0 
z
" style="fill:none;"/>
  </g>
  <g id="axes_1">
   <g id="patch_2">
    <path d="M 45 384.48 
L 324 384.48 
L 324 51.84 
L 45 51.84 
z
" style="fill:none;"/>
   </g>
   <g id="PolyCollection_1">
    <defs>
     <path d="M 185.616189 -62.64 
L 183.383811 -62.64 
L 182.700115 -65.694545 
L 181.708058 -68.749091 
L 180.330851 -71.803636 
L 178.501598 -74.858182 
L 176.176875 -77.912727 
L 173.350156 -80.967273 
L 170.061889 -84.021818 
L 166.403074 -87.076364 
L 162.510243 -90.130909 
L 158.551545 -93.185455 
L 154.705737 -96.24 
L 151.137651 -99.294545 
L 147.974678 -102.349091 
L 145.288743 -105.403636 
L 143.08721 -108.458182 
L 141.314485 -111.512727 
L 139.864103 -114.567273 
L 138.599153 -117.621818 
L 137.377288 -120.676364 
L 136.075579 -123.730909 
L 134.610378 -126.785455 
L 132.948222 -129.84 
L 131.105691 -132.894545 
L 129.1385 -135.949091 
L 127.122566 -139.003636 
L 125.131622 -142.058182 
L 123.216653 -145.112727 
L 121.391993 -148.167273 
L 119.631204 -151.221818 
L 117.873535 -154.276364 
L 116.039242 -157.330909 
L 114.049895 -160.385455 
L 111.848624 -163.44 
L 109.415296 -166.494545 
L 106.772862 -169.549091 
L 103.983386 -172.603636 
L 101.134904 -175.658182 
L 98.322562 -178.712727 
L 95.628871 -181.767273 
L 93.107963 -184.821818 
L 90.777564 -187.876364 
L 88.620329 -190.930909 
L 86.593891 -193.985455 
L 84.646933 -197.04 
L 82.737325 -200.094545 
L 80.84801 -203.149091 
L 78.996916 -206.203636 
L 77.238563 -209.258182 
L 75.656866 -212.312727 
L 74.350583 -215.367273 
L 73.414455 -218.421818 
L 72.920001 -221.476364 
L 72.9 -224.530909 
L 73.340007 -227.585455 
L 74.178876 -230.64 
L 75.318566 -233.694545 
L 76.641581 -236.749091 
L 78.032602 -239.803636 
L 79.399597 -242.858182 
L 80.689443 -245.912727 
L 81.894202 -248.967273 
L 83.046594 -252.021818 
L 84.206226 -255.076364 
L 85.440736 -258.130909 
L 86.807181 -261.185455 
L 88.338386 -264.24 
L 90.036978 -267.294545 
L 91.877349 -270.349091 
L 93.813929 -273.403636 
L 95.793202 -276.458182 
L 97.766901 -279.512727 
L 99.704156 -282.567273 
L 101.600733 -285.621818 
L 103.483759 -288.676364 
L 105.410775 -291.730909 
L 107.462849 -294.785455 
L 109.732764 -297.84 
L 112.310535 -300.894545 
L 115.26928 -303.949091 
L 118.654279 -307.003636 
L 122.477014 -310.058182 
L 126.71453 -313.112727 
L 131.313079 -316.167273 
L 136.194259 -319.221818 
L 141.261862 -322.276364 
L 146.408239 -325.330909 
L 151.51988 -328.385455 
L 156.482598 -331.44 
L 161.186977 -334.494545 
L 165.534506 -337.549091 
L 169.444192 -340.603636 
L 172.858742 -343.658182 
L 175.749041 -346.712727 
L 178.115678 -349.767273 
L 179.986928 -352.821818 
L 181.413389 -355.876364 
L 182.46033 -358.930909 
L 183.199277 -361.985455 
L 183.70036 -365.04 
L 185.29964 -365.04 
L 185.29964 -365.04 
L 185.800723 -361.985455 
L 186.53967 -358.930909 
L 187.586611 -355.876364 
L 189.013072 -352.821818 
L 190.884322 -349.767273 
L 193.250959 -346.712727 
L 196.141258 -343.658182 
L 199.555808 -340.603636 
L 203.465494 -337.549091 
L 207.813023 -334.494545 
L 212.517402 -331.44 
L 217.48012 -328.385455 
L 222.591761 -325.330909 
L 227.738138 -322.276364 
L 232.805741 -319.221818 
L 237.686921 -316.167273 
L 242.28547 -313.112727 
L 246.522986 -310.058182 
L 250.345721 -307.003636 
L 253.73072 -303.949091 
L 256.689465 -300.894545 
L 259.267236 -297.84 
L 261.537151 -294.785455 
L 263.589225 -291.730909 
L 265.516241 -288.676364 
L 267.399267 -285.621818 
L 269.295844 -282.567273 
L 271.233099 -279.512727 
L 273.206798 -276.458182 
L 275.186071 -273.403636 
L 277.122651 -270.349091 
L 278.963022 -267.294545 
L 280.661614 -264.24 
L 282.192819 -261.185455 
L 283.559264 -258.130909 
L 284.793774 -255.076364 
L 285.953406 -252.021818 
L 287.105798 -248.967273 
L 288.310557 -245.912727 
L 289.600403 -242.858182 
L 290.967398 -239.803636 
L 292.358419 -236.749091 
L 293.681434 -233.694545 
L 294.821124 -230.64 
L 295.659993 -227.585455 
L 296.1 -224.530909 
L 296.079999 -221.476364 
L 295.585545 -218.421818 
L 294.649417 -215.367273 
L 293.343134 -212.312727 
L 291.761437 -209.258182 
L 290.003084 -206.203636 
L 288.15199 -203.149091 
L 286.262675 -200.094545 
L 284.353067 -197.04 
L 282.406109 -193.985455 
L 280.379671 -190.930909 
L 278.222436 -187.876364 
L 275.892037 -184.821818 
L 273.371129 -181.767273 
L 270.677438 -178.712727 
L 267.865096 -175.658182 
L 265.016614 -172.603636 
L 262.227138 -169.549091 
L 259.584704 -166.494545 
L 257.151376 -163.44 
L 254.950105 -160.385455 
L 252.960758 -157.330909 
L 251.126465 -154.276364 
L 249.368796 -151.221818 
L 247.608007 -148.167273 
L 245.783347 -145.112727 
L 243.868378 -142.058182 
L 241.877434 -139.003636 
L 239.8615 -135.949091 
L 237.894309 -132.894545 
L 236.051778 -129.84 
L 234.389622 -126.785455 
L 232.924421 -123.730909 
L 231.622712 -120.676364 
L 230.400847 -117.621818 
L 229.135897 -114.567273 
L 227.685515 -111.512727 
L 225.91279 -108.458182 
L 223.711257 -105.403636 
L 221.025322 -102.349091 
L 217.862349 -99.294545 
L 214.294263 -96.24 
L 210.448455 -93.185455 
L 206.489757 -90.130909 
L 202.596926 -87.076364 
L 198.938111 -84.021818 
L 195.649844 -80.967273 
L 192.823125 -77.912727 
L 190.498402 -74.858182 
L 188.669149 -71.803636 
L 187.291942 -68.749091 
L 186.299885 -65.694545 
L 185.616189 -62.64 
z
" id="m4333330519" style="stroke:#7a7a7a;stroke-width:1.5;"/>
    </defs>
    <g clip-path="url(#p1c92f90a0b)">
     <use style="fill:#f2f2a6;stroke:#7a7a7a;stroke-width:1.5;" x="0" xlink:href="#m4333330519" y="432"/>
    </g>
   </g>
   <g id="matplotlib.axis_1"/>
   <g id="matplotlib.axis_2">
    <g id="ytick_1">
     <g id="line2d_1">
      <defs>
       <path d="M 0 0 
L -3.5 0 
" id="me0a131f2fe" style="stroke:#000000;stroke-width:0.8;"/>
      </defs>
      <g>
       <use style="stroke:#000000;stroke-width:0.8;" x="45" xlink:href="#me0a131f2fe" y="354.14548"/>
      </g>
     </g>
     <g id="text_1">
      <!-- −200 -->
      <defs>
       <path d="M 10.59375 35.5 
L 73.1875 35.5 
L 73.1875 27.203125 
L 10.59375 27.203125 
z
" id="DejaVuSans-2212"/>
       <path d="M 19.1875 8.296875 
L 53.609375 8.296875 
L 53.609375 0 
L 7.328125 0 
L 7.328125 8.296875 
Q 12.9375 14.109375 22.625 23.890625 
Q 32.328125 33.6875 34.8125 36.53125 
Q 39.546875 41.84375 41.421875 45.53125 
Q 43.3125 49.21875 43.3125 52.78125 
Q 43.3125 58.59375 39.234375 62.25 
Q 35.15625 65.921875 28.609375 65.921875 
Q 23.96875 65.921875 18.8125 64.3125 
Q 13.671875 62.703125 7.8125 59.421875 
L 7.8125 69.390625 
Q 13.765625 71.78125 18.9375 73 
Q 24.125 74.21875 28.421875 74.21875 
Q 39.75 74.21875 46.484375 68.546875 
Q 53.21875 62.890625 53.21875 53.421875 
Q 53.21875 48.921875 51.53125 44.890625 
Q 49.859375 40.875 45.40625 35.40625 
Q 44.1875 33.984375 37.640625 27.21875 
Q 31.109375 20.453125 19.1875 8.296875 
z
" id="DejaVuSans-32"/>
       <path d="M 31.78125 66.40625 
Q 24.171875 66.40625 20.328125 58.90625 
Q 16.5 51.421875 16.5 36.375 
Q 16.5 21.390625 20.328125 13.890625 
Q 24.171875 6.390625 31.78125 6.390625 
Q 39.453125 6.390625 43.28125 13.890625 
Q 47.125 21.390625 47.125 36.375 
Q 47.125 51.421875 43.28125 58.90625 
Q 39.453125 66.40625 31.78125 66.40625 
z
M 31.78125 74.21875 
Q 44.046875 74.21875 50.515625 64.515625 
Q 56.984375 54.828125 56.984375 36.375 
Q 56.984375 17.96875 50.515625 8.265625 
Q 44.046875 -1.421875 31.78125 -1.421875 
Q 19.53125 -1.421875 13.0625 8.265625 
Q 6.59375 17.96875 6.59375 36.375 
Q 6.59375 54.828125 13.0625 64.515625 
Q 19.53125 74.21875 31.78125 74.21875 
z
" id="DejaVuSans-30"/>
      </defs>
      <g transform="translate(-16.934375 361.743918)scale(0.2 -0.2)">
       <use xlink:href="#DejaVuSans-2212"/>
       <use x="83.789062" xlink:href="#DejaVuSans-32"/>
       <use x="147.412109" xlink:href="#DejaVuSans-30"/>
       <use x="211.035156" xlink:href="#DejaVuSans-30"/>
      </g>
     </g>
    </g>
    <g id="ytick_2">
     <g id="line2d_2">
      <g>
       <use style="stroke:#000000;stroke-width:0.8;" x="45" xlink:href="#me0a131f2fe" y="286.14849"/>
      </g>
     </g>
     <g id="text_2">
      <!-- −100 -->
      <defs>
       <path d="M 12.40625 8.296875 
L 28.515625 8.296875 
L 28.515625 63.921875 
L 10.984375 60.40625 
L 10.984375 69.390625 
L 28.421875 72.90625 
L 38.28125 72.90625 
L 38.28125 8.296875 
L 54.390625 8.296875 
L 54.390625 0 
L 12.40625 0 
z
" id="DejaVuSans-31"/>
      </defs>
      <g transform="translate(-16.934375 293.746928)scale(0.2 -0.2)">
       <use xlink:href="#DejaVuSans-2212"/>
       <use x="83.789062" xlink:href="#DejaVuSans-31"/>
       <use x="147.412109" xlink:href="#DejaVuSans-30"/>
       <use x="211.035156" xlink:href="#DejaVuSans-30"/>
      </g>
     </g>
    </g>
    <g id="ytick_3">
     <g id="line2d_3">
      <g>
       <use style="stroke:#000000;stroke-width:0.8;" x="45" xlink:href="#me0a131f2fe" y="218.1515"/>
      </g>
     </g>
     <g id="text_3">
      <!-- 0 -->
      <g transform="translate(25.275 225.749938)scale(0.2 -0.2)">
       <use xlink:href="#DejaVuSans-30"/>
      </g>
     </g>
    </g>
    <g id="ytick_4">
     <g id="line2d_4">
      <g>
       <use style="stroke:#000000;stroke-width:0.8;" x="45" xlink:href="#me0a131f2fe" y="150.15451"/>
      </g>
     </g>
     <g id="text_4">
      <!-- 100 -->
      <g transform="translate(-0.175 157.752948)scale(0.2 -0.2)">
       <use xlink:href="#DejaVuSans-31"/>
       <use x="63.623047" xlink:href="#DejaVuSans-30"/>
       <use x="127.246094" xlink:href="#DejaVuSans-30"/>
      </g>
     </g>
    </g>
    <g id="ytick_5">
     <g id="line2d_5">
      <g>
       <use style="stroke:#000000;stroke-width:0.8;" x="45" xlink:href="#me0a131f2fe" y="82.157521"/>
      </g>
     </g>
     <g id="text_5">
      <!-- 200 -->
      <g transform="translate(-0.175 89.755958)scale(0.2 -0.2)">
       <use xlink:href="#DejaVuSans-32"/>
       <use x="63.623047" xlink:href="#DejaVuSans-30"/>
       <use x="127.246094" xlink:href="#DejaVuSans-30"/>
      </g>
     </g>
    </g>
   </g>
   <g id="line2d_6">
    <path clip-path="url(#p1c92f90a0b)" d="M 184.5 340.528403 
L 184.5 95.791597 
" style="fill:none;stroke:#7a7a7a;stroke-linecap:square;stroke-width:1.5;"/>
   </g>
   <g id="line2d_7">
    <path clip-path="url(#p1c92f90a0b)" d="M 184.5 255.534886 
L 184.5 165.202244 
" style="fill:none;stroke:#7a7a7a;stroke-linecap:square;stroke-width:4.5;"/>
   </g>
   <g id="patch_3">
    <path d="M 45 384.48 
L 45 51.84 
" style="fill:none;stroke:#000000;stroke-linecap:square;stroke-linejoin:miter;stroke-width:0.8;"/>
   </g>
   <g id="patch_4">
    <path d="M 324 384.48 
L 324 51.84 
" style="fill:none;stroke:#000000;stroke-linecap:square;stroke-linejoin:miter;stroke-width:0.8;"/>
   </g>
   <g id="patch_5">
    <path d="M 45 384.48 
L 324 384.48 
" style="fill:none;stroke:#000000;stroke-linecap:square;stroke-linejoin:miter;stroke-width:0.8;"/>
   </g>
   <g id="patch_6">
    <path d="M 45 51.84 
L 324 51.84 
" style="fill:none;stroke:#000000;stroke-linecap:square;stroke-linejoin:miter;stroke-width:0.8;"/>
   </g>
   <g id="PathCollection_1">
    <defs>
     <path d="M 0 1.5 
C 0.397805 1.5 0.77937 1.341951 1.06066 1.06066 
C 1.341951 0.77937 1.5 0.397805 1.5 0 
C 1.5 -0.397805 1.341951 -0.77937 1.06066 -1.06066 
C 0.77937 -1.341951 0.397805 -1.5 0 -1.5 
C -0.397805 -1.5 -0.77937 -1.341951 -1.06066 -1.06066 
C -1.341951 -0.77937 -1.5 -0.397805 -1.5 0 
C -1.5 0.397805 -1.341951 0.77937 -1.06066 1.06066 
C -0.77937 1.341951 -0.397805 1.5 0 1.5 
z
" id="m590f69ac93" style="stroke:#7a7a7a;"/>
    </defs>
    <g clip-path="url(#p1c92f90a0b)">
     <use style="fill:#ffffff;stroke:#7a7a7a;" x="184.5" xlink:href="#m590f69ac93" y="210.584795"/>
    </g>
   </g>
   <g id="text_6">
    <!-- Phase -->
    <defs>
     <path d="M 19.671875 64.796875 
L 19.671875 37.40625 
L 32.078125 37.40625 
Q 38.96875 37.40625 42.71875 40.96875 
Q 46.484375 44.53125 46.484375 51.125 
Q 46.484375 57.671875 42.71875 61.234375 
Q 38.96875 64.796875 32.078125 64.796875 
z
M 9.8125 72.90625 
L 32.078125 72.90625 
Q 44.34375 72.90625 50.609375 67.359375 
Q 56.890625 61.8125 56.890625 51.125 
Q 56.890625 40.328125 50.609375 34.8125 
Q 44.34375 29.296875 32.078125 29.296875 
L 19.671875 29.296875 
L 19.671875 0 
L 9.8125 0 
z
" id="DejaVuSans-50"/>
     <path d="M 54.890625 33.015625 
L 54.890625 0 
L 45.90625 0 
L 45.90625 32.71875 
Q 45.90625 40.484375 42.875 44.328125 
Q 39.84375 48.1875 33.796875 48.1875 
Q 26.515625 48.1875 22.3125 43.546875 
Q 18.109375 38.921875 18.109375 30.90625 
L 18.109375 0 
L 9.078125 0 
L 9.078125 75.984375 
L 18.109375 75.984375 
L 18.109375 46.1875 
Q 21.34375 51.125 25.703125 53.5625 
Q 30.078125 56 35.796875 56 
Q 45.21875 56 50.046875 50.171875 
Q 54.890625 44.34375 54.890625 33.015625 
z
" id="DejaVuSans-68"/>
     <path d="M 34.28125 27.484375 
Q 23.390625 27.484375 19.1875 25 
Q 14.984375 22.515625 14.984375 16.5 
Q 14.984375 11.71875 18.140625 8.90625 
Q 21.296875 6.109375 26.703125 6.109375 
Q 34.1875 6.109375 38.703125 11.40625 
Q 43.21875 16.703125 43.21875 25.484375 
L 43.21875 27.484375 
z
M 52.203125 31.203125 
L 52.203125 0 
L 43.21875 0 
L 43.21875 8.296875 
Q 40.140625 3.328125 35.546875 0.953125 
Q 30.953125 -1.421875 24.3125 -1.421875 
Q 15.921875 -1.421875 10.953125 3.296875 
Q 6 8.015625 6 15.921875 
Q 6 25.140625 12.171875 29.828125 
Q 18.359375 34.515625 30.609375 34.515625 
L 43.21875 34.515625 
L 43.21875 35.40625 
Q 43.21875 41.609375 39.140625 45 
Q 35.0625 48.390625 27.6875 48.390625 
Q 23 48.390625 18.546875 47.265625 
Q 14.109375 46.140625 10.015625 43.890625 
L 10.015625 52.203125 
Q 14.9375 54.109375 19.578125 55.046875 
Q 24.21875 56 28.609375 56 
Q 40.484375 56 46.34375 49.84375 
Q 52.203125 43.703125 52.203125 31.203125 
z
" id="DejaVuSans-61"/>
     <path d="M 44.28125 53.078125 
L 44.28125 44.578125 
Q 40.484375 46.53125 36.375 47.5 
Q 32.28125 48.484375 27.875 48.484375 
Q 21.1875 48.484375 17.84375 46.4375 
Q 14.5 44.390625 14.5 40.28125 
Q 14.5 37.15625 16.890625 35.375 
Q 19.28125 33.59375 26.515625 31.984375 
L 29.59375 31.296875 
Q 39.15625 29.25 43.1875 25.515625 
Q 47.21875 21.78125 47.21875 15.09375 
Q 47.21875 7.46875 41.1875 3.015625 
Q 35.15625 -1.421875 24.609375 -1.421875 
Q 20.21875 -1.421875 15.453125 -0.5625 
Q 10.6875 0.296875 5.421875 2 
L 5.421875 11.28125 
Q 10.40625 8.6875 15.234375 7.390625 
Q 20.0625 6.109375 24.8125 6.109375 
Q 31.15625 6.109375 34.5625 8.28125 
Q 37.984375 10.453125 37.984375 14.40625 
Q 37.984375 18.0625 35.515625 20.015625 
Q 33.0625 21.96875 24.703125 23.78125 
L 21.578125 24.515625 
Q 13.234375 26.265625 9.515625 29.90625 
Q 5.8125 33.546875 5.8125 39.890625 
Q 5.8125 47.609375 11.28125 51.796875 
Q 16.75 56 26.8125 56 
Q 31.78125 56 36.171875 55.265625 
Q 40.578125 54.546875 44.28125 53.078125 
z
" id="DejaVuSans-73"/>
     <path d="M 56.203125 29.59375 
L 56.203125 25.203125 
L 14.890625 25.203125 
Q 15.484375 15.921875 20.484375 11.0625 
Q 25.484375 6.203125 34.421875 6.203125 
Q 39.59375 6.203125 44.453125 7.46875 
Q 49.3125 8.734375 54.109375 11.28125 
L 54.109375 2.78125 
Q 49.265625 0.734375 44.1875 -0.34375 
Q 39.109375 -1.421875 33.890625 -1.421875 
Q 20.796875 -1.421875 13.15625 6.1875 
Q 5.515625 13.8125 5.515625 26.8125 
Q 5.515625 40.234375 12.765625 48.109375 
Q 20.015625 56 32.328125 56 
Q 43.359375 56 49.78125 48.890625 
Q 56.203125 41.796875 56.203125 29.59375 
z
M 47.21875 32.234375 
Q 47.125 39.59375 43.09375 43.984375 
Q 39.0625 48.390625 32.421875 48.390625 
Q 24.90625 48.390625 20.390625 44.140625 
Q 15.875 39.890625 15.1875 32.171875 
z
" id="DejaVuSans-65"/>
    </defs>
    <g transform="translate(139.713281 45.84)scale(0.3 -0.3)">
     <use xlink:href="#DejaVuSans-50"/>
     <use x="60.302734" xlink:href="#DejaVuSans-68"/>
     <use x="123.681641" xlink:href="#DejaVuSans-61"/>
     <use x="184.960938" xlink:href="#DejaVuSans-73"/>
     <use x="237.060547" xlink:href="#DejaVuSans-65"/>
    </g>
   </g>
  </g>
 </g>
 <defs>
  <clipPath id="p1c92f90a0b">
   <rect height="332.64" width="279" x="45" y="51.84"/>
  </clipPath>
 </defs>
</svg>
