<?xml version="1.0" encoding="utf-8" standalone="no"?>
<!DOCTYPE svg PUBLIC "-//W3C//DTD SVG 1.1//EN"
  "http://www.w3.org/Graphics/SVG/1.1/DTD/svg11.dtd">
<svg xmlns:xlink="http://www.w3.org/1999/xlink" width="498.074375pt" height="233.105pt" viewBox="0 0 498.074375 233.105" xmlns="http://www.w3.org/2000/svg" version="1.1">
 <metadata>
  <rdf:RDF xmlns:dc="http://purl.org/dc/elements/1.1/" xmlns:cc="http://creativecommons.org/ns#" xmlns:rdf="http://www.w3.org/1999/02/22-rdf-syntax-ns#">
   <cc:Work>
    <dc:type rdf:resource="http://purl.org/dc/dcmitype/StillImage"/>
    <dc:date>2024-03-01T12:33:17.318854</dc:date>
    <dc:format>image/svg+xml</dc:format>
    <dc:creator>
     <cc:Agent>
      <dc:title>Matplotlib v3.8.3, https://matplotlib.org/</dc:title>
     </cc:Agent>
    </dc:creator>
   </cc:Work>
  </rdf:RDF>
 </metadata>
 <defs>
  <style type="text/css">*{stroke-linejoin: round; stroke-linecap: butt}</style>
 </defs>
 <g id="figure_1">
  <g id="patch_1">
   <path d="M 0 233.105 
L 498.074375 233.105 
L 498.074375 0 
L 0 0 
L 0 233.105 
z
" style="fill: none"/>
  </g>
  <g id="axes_1">
   <g id="patch_2">
    <path d="M 44.474375 191.6775 
L 490.874375 191.6775 
L 490.874375 25.3575 
L 44.474375 25.3575 
L 44.474375 191.6775 
z
" style="fill: none"/>
   </g>
   <g id="PathCollection_1">
    <defs>
     <path id="md5639820f8" d="M 0 3 
C 0.795609 3 1.55874 2.683901 2.12132 2.12132 
C 2.683901 1.55874 3 0.795609 3 0 
C 3 -0.795609 2.683901 -1.55874 2.12132 -2.12132 
C 1.55874 -2.683901 0.795609 -3 0 -3 
C -0.795609 -3 -1.55874 -2.683901 -2.12132 -2.12132 
C -2.683901 -1.55874 -3 -0.795609 -3 0 
C -3 0.795609 -2.683901 1.55874 -2.12132 2.12132 
C -1.55874 2.683901 -0.795609 3 0 3 
z
" style="stroke: #1f77b4"/>
    </defs>
    <g clip-path="url(#p625c7d89ed)">
     <use xlink:href="#md5639820f8" x="160.674303" y="101.13186" style="fill: #1f77b4; stroke: #1f77b4"/>
     <use xlink:href="#md5639820f8" x="317.34452" y="67.707088" style="fill: #1f77b4; stroke: #1f77b4"/>
     <use xlink:href="#md5639820f8" x="167.935893" y="95.672278" style="fill: #1f77b4; stroke: #1f77b4"/>
     <use xlink:href="#md5639820f8" x="378.267236" y="54.54343" style="fill: #1f77b4; stroke: #1f77b4"/>
     <use xlink:href="#md5639820f8" x="47.472662" y="121.87827" style="fill: #1f77b4; stroke: #1f77b4"/>
     <use xlink:href="#md5639820f8" x="362.923468" y="57.333883" style="fill: #1f77b4; stroke: #1f77b4"/>
     <use xlink:href="#md5639820f8" x="92.439472" y="110.231162" style="fill: #1f77b4; stroke: #1f77b4"/>
     <use xlink:href="#md5639820f8" x="207.69587" y="95.672278" style="fill: #1f77b4; stroke: #1f77b4"/>
     <use xlink:href="#md5639820f8" x="270.481821" y="70.012244" style="fill: #1f77b4; stroke: #1f77b4"/>
     <use xlink:href="#md5639820f8" x="95.563955" y="116.297364" style="fill: #1f77b4; stroke: #1f77b4"/>
     <use xlink:href="#md5639820f8" x="175.537007" y="100.100605" style="fill: #1f77b4; stroke: #1f77b4"/>
     <use xlink:href="#md5639820f8" x="175.470927" y="95.672278" style="fill: #1f77b4; stroke: #1f77b4"/>
     <use xlink:href="#md5639820f8" x="61.277363" y="121.87827" style="fill: #1f77b4; stroke: #1f77b4"/>
     <use xlink:href="#md5639820f8" x="374.22263" y="57.333883" style="fill: #1f77b4; stroke: #1f77b4"/>
     <use xlink:href="#md5639820f8" x="295.215365" y="74.258586" style="fill: #1f77b4; stroke: #1f77b4"/>
     <use xlink:href="#md5639820f8" x="257.543085" y="78.808237" style="fill: #1f77b4; stroke: #1f77b4"/>
     <use xlink:href="#md5639820f8" x="262.883338" y="78.808237" style="fill: #1f77b4; stroke: #1f77b4"/>
     <use xlink:href="#md5639820f8" x="217.695954" y="85.056425" style="fill: #1f77b4; stroke: #1f77b4"/>
     <use xlink:href="#md5639820f8" x="459.272071" y="36.041514" style="fill: #1f77b4; stroke: #1f77b4"/>
     <use xlink:href="#md5639820f8" x="72.383402" y="121.87827" style="fill: #1f77b4; stroke: #1f77b4"/>
     <use xlink:href="#md5639820f8" x="308.987041" y="74.137262" style="fill: #1f77b4; stroke: #1f77b4"/>
     <use xlink:href="#md5639820f8" x="174.256487" y="100.100605" style="fill: #1f77b4; stroke: #1f77b4"/>
     <use xlink:href="#md5639820f8" x="92.982841" y="113.688897" style="fill: #1f77b4; stroke: #1f77b4"/>
     <use xlink:href="#md5639820f8" x="86.241288" y="113.688897" style="fill: #1f77b4; stroke: #1f77b4"/>
     <use xlink:href="#md5639820f8" x="151.640893" y="100.100605" style="fill: #1f77b4; stroke: #1f77b4"/>
     <use xlink:href="#md5639820f8" x="76.334992" y="115.56942" style="fill: #1f77b4; stroke: #1f77b4"/>
     <use xlink:href="#md5639820f8" x="200.520433" y="95.368968" style="fill: #1f77b4; stroke: #1f77b4"/>
     <use xlink:href="#md5639820f8" x="100.923508" y="110.231162" style="fill: #1f77b4; stroke: #1f77b4"/>
     <use xlink:href="#md5639820f8" x="94.430407" y="110.231162" style="fill: #1f77b4; stroke: #1f77b4"/>
     <use xlink:href="#md5639820f8" x="210.006056" y="85.056425" style="fill: #1f77b4; stroke: #1f77b4"/>
     <use xlink:href="#md5639820f8" x="322.52276" y="67.707088" style="fill: #1f77b4; stroke: #1f77b4"/>
     <use xlink:href="#md5639820f8" x="294.440242" y="74.258586" style="fill: #1f77b4; stroke: #1f77b4"/>
     <use xlink:href="#md5639820f8" x="50.934724" y="121.87827" style="fill: #1f77b4; stroke: #1f77b4"/>
     <use xlink:href="#md5639820f8" x="180.832682" y="95.672278" style="fill: #1f77b4; stroke: #1f77b4"/>
     <use xlink:href="#md5639820f8" x="249.381645" y="86.330327" style="fill: #1f77b4; stroke: #1f77b4"/>
     <use xlink:href="#md5639820f8" x="86.214324" y="115.56942" style="fill: #1f77b4; stroke: #1f77b4"/>
     <use xlink:href="#md5639820f8" x="87.281506" y="113.688897" style="fill: #1f77b4; stroke: #1f77b4"/>
     <use xlink:href="#md5639820f8" x="185.552018" y="95.368968" style="fill: #1f77b4; stroke: #1f77b4"/>
     <use xlink:href="#md5639820f8" x="152.126989" y="100.100605" style="fill: #1f77b4; stroke: #1f77b4"/>
     <use xlink:href="#md5639820f8" x="94.979839" y="110.231162" style="fill: #1f77b4; stroke: #1f77b4"/>
     <use xlink:href="#md5639820f8" x="171.946244" y="100.100605" style="fill: #1f77b4; stroke: #1f77b4"/>
     <use xlink:href="#md5639820f8" x="54.25233" y="121.87827" style="fill: #1f77b4; stroke: #1f77b4"/>
     <use xlink:href="#md5639820f8" x="92.432323" y="113.688897" style="fill: #1f77b4; stroke: #1f77b4"/>
     <use xlink:href="#md5639820f8" x="310.365495" y="74.137262" style="fill: #1f77b4; stroke: #1f77b4"/>
     <use xlink:href="#md5639820f8" x="89.695287" y="113.688897" style="fill: #1f77b4; stroke: #1f77b4"/>
     <use xlink:href="#md5639820f8" x="91.132531" y="110.231162" style="fill: #1f77b4; stroke: #1f77b4"/>
     <use xlink:href="#md5639820f8" x="67.651313" y="121.87827" style="fill: #1f77b4; stroke: #1f77b4"/>
     <use xlink:href="#md5639820f8" x="304.123105" y="71.286147" style="fill: #1f77b4; stroke: #1f77b4"/>
     <use xlink:href="#md5639820f8" x="196.807888" y="95.368968" style="fill: #1f77b4; stroke: #1f77b4"/>
     <use xlink:href="#md5639820f8" x="95.521321" y="116.297364" style="fill: #1f77b4; stroke: #1f77b4"/>
     <use xlink:href="#md5639820f8" x="381.888996" y="54.54343" style="fill: #1f77b4; stroke: #1f77b4"/>
     <use xlink:href="#md5639820f8" x="200.764797" y="95.368968" style="fill: #1f77b4; stroke: #1f77b4"/>
     <use xlink:href="#md5639820f8" x="129.836821" y="100.707225" style="fill: #1f77b4; stroke: #1f77b4"/>
     <use xlink:href="#md5639820f8" x="459.673357" y="36.041514" style="fill: #1f77b4; stroke: #1f77b4"/>
     <use xlink:href="#md5639820f8" x="376.877516" y="57.333883" style="fill: #1f77b4; stroke: #1f77b4"/>
     <use xlink:href="#md5639820f8" x="182.700635" y="95.672278" style="fill: #1f77b4; stroke: #1f77b4"/>
     <use xlink:href="#md5639820f8" x="188.496817" y="95.368968" style="fill: #1f77b4; stroke: #1f77b4"/>
     <use xlink:href="#md5639820f8" x="196.994463" y="85.056425" style="fill: #1f77b4; stroke: #1f77b4"/>
     <use xlink:href="#md5639820f8" x="197.984527" y="95.672278" style="fill: #1f77b4; stroke: #1f77b4"/>
     <use xlink:href="#md5639820f8" x="86.343883" y="116.297364" style="fill: #1f77b4; stroke: #1f77b4"/>
     <use xlink:href="#md5639820f8" x="187.897517" y="95.368968" style="fill: #1f77b4; stroke: #1f77b4"/>
     <use xlink:href="#md5639820f8" x="120.908093" y="100.707225" style="fill: #1f77b4; stroke: #1f77b4"/>
     <use xlink:href="#md5639820f8" x="291.050894" y="74.137262" style="fill: #1f77b4; stroke: #1f77b4"/>
     <use xlink:href="#md5639820f8" x="378.822758" y="60.184998" style="fill: #1f77b4; stroke: #1f77b4"/>
     <use xlink:href="#md5639820f8" x="320.119271" y="71.286147" style="fill: #1f77b4; stroke: #1f77b4"/>
     <use xlink:href="#md5639820f8" x="401.387513" y="60.184998" style="fill: #1f77b4; stroke: #1f77b4"/>
     <use xlink:href="#md5639820f8" x="372.641674" y="54.54343" style="fill: #1f77b4; stroke: #1f77b4"/>
     <use xlink:href="#md5639820f8" x="163.588449" y="100.100605" style="fill: #1f77b4; stroke: #1f77b4"/>
     <use xlink:href="#md5639820f8" x="206.824757" y="85.056425" style="fill: #1f77b4; stroke: #1f77b4"/>
     <use xlink:href="#md5639820f8" x="393.312884" y="60.184998" style="fill: #1f77b4; stroke: #1f77b4"/>
     <use xlink:href="#md5639820f8" x="175.439474" y="95.672278" style="fill: #1f77b4; stroke: #1f77b4"/>
     <use xlink:href="#md5639820f8" x="372.865793" y="52.905555" style="fill: #1f77b4; stroke: #1f77b4"/>
     <use xlink:href="#md5639820f8" x="125.686418" y="100.707225" style="fill: #1f77b4; stroke: #1f77b4"/>
     <use xlink:href="#md5639820f8" x="377.680204" y="57.333883" style="fill: #1f77b4; stroke: #1f77b4"/>
     <use xlink:href="#md5639820f8" x="73.141112" y="115.56942" style="fill: #1f77b4; stroke: #1f77b4"/>
     <use xlink:href="#md5639820f8" x="73.023476" y="115.56942" style="fill: #1f77b4; stroke: #1f77b4"/>
     <use xlink:href="#md5639820f8" x="130.375044" y="100.707225" style="fill: #1f77b4; stroke: #1f77b4"/>
     <use xlink:href="#md5639820f8" x="227.109063" y="86.330327" style="fill: #1f77b4; stroke: #1f77b4"/>
     <use xlink:href="#md5639820f8" x="366.172077" y="54.54343" style="fill: #1f77b4; stroke: #1f77b4"/>
     <use xlink:href="#md5639820f8" x="98.284435" y="113.688897" style="fill: #1f77b4; stroke: #1f77b4"/>
     <use xlink:href="#md5639820f8" x="90.248808" y="110.231162" style="fill: #1f77b4; stroke: #1f77b4"/>
     <use xlink:href="#md5639820f8" x="261.86814" y="78.808237" style="fill: #1f77b4; stroke: #1f77b4"/>
     <use xlink:href="#md5639820f8" x="312.186869" y="70.012244" style="fill: #1f77b4; stroke: #1f77b4"/>
     <use xlink:href="#md5639820f8" x="155.602262" y="100.100605" style="fill: #1f77b4; stroke: #1f77b4"/>
     <use xlink:href="#md5639820f8" x="196.77572" y="85.056425" style="fill: #1f77b4; stroke: #1f77b4"/>
     <use xlink:href="#md5639820f8" x="146.482583" y="101.13186" style="fill: #1f77b4; stroke: #1f77b4"/>
     <use xlink:href="#md5639820f8" x="54.177643" y="121.87827" style="fill: #1f77b4; stroke: #1f77b4"/>
     <use xlink:href="#md5639820f8" x="177.993623" y="95.368968" style="fill: #1f77b4; stroke: #1f77b4"/>
     <use xlink:href="#md5639820f8" x="114.410303" y="100.707225" style="fill: #1f77b4; stroke: #1f77b4"/>
     <use xlink:href="#md5639820f8" x="311.500158" y="71.286147" style="fill: #1f77b4; stroke: #1f77b4"/>
     <use xlink:href="#md5639820f8" x="373.402214" y="52.905555" style="fill: #1f77b4; stroke: #1f77b4"/>
     <use xlink:href="#md5639820f8" x="98.561796" y="113.688897" style="fill: #1f77b4; stroke: #1f77b4"/>
     <use xlink:href="#md5639820f8" x="85.763513" y="113.688897" style="fill: #1f77b4; stroke: #1f77b4"/>
     <use xlink:href="#md5639820f8" x="366.491528" y="54.54343" style="fill: #1f77b4; stroke: #1f77b4"/>
     <use xlink:href="#md5639820f8" x="85.732203" y="113.688897" style="fill: #1f77b4; stroke: #1f77b4"/>
     <use xlink:href="#md5639820f8" x="483.234151" y="36.041514" style="fill: #1f77b4; stroke: #1f77b4"/>
     <use xlink:href="#md5639820f8" x="316.923332" y="67.707088" style="fill: #1f77b4; stroke: #1f77b4"/>
     <use xlink:href="#md5639820f8" x="234.021608" y="82.144648" style="fill: #1f77b4; stroke: #1f77b4"/>
     <use xlink:href="#md5639820f8" x="125.302173" y="100.707225" style="fill: #1f77b4; stroke: #1f77b4"/>
     <use xlink:href="#md5639820f8" x="96.69064" y="110.231162" style="fill: #1f77b4; stroke: #1f77b4"/>
     <use xlink:href="#md5639820f8" x="384.077286" y="52.905555" style="fill: #1f77b4; stroke: #1f77b4"/>
     <use xlink:href="#md5639820f8" x="174.179484" y="100.100605" style="fill: #1f77b4; stroke: #1f77b4"/>
     <use xlink:href="#md5639820f8" x="295.334602" y="71.286147" style="fill: #1f77b4; stroke: #1f77b4"/>
     <use xlink:href="#md5639820f8" x="172.815269" y="95.368968" style="fill: #1f77b4; stroke: #1f77b4"/>
     <use xlink:href="#md5639820f8" x="237.273963" y="82.144648" style="fill: #1f77b4; stroke: #1f77b4"/>
     <use xlink:href="#md5639820f8" x="372.424932" y="52.905555" style="fill: #1f77b4; stroke: #1f77b4"/>
     <use xlink:href="#md5639820f8" x="203.252465" y="85.056425" style="fill: #1f77b4; stroke: #1f77b4"/>
     <use xlink:href="#md5639820f8" x="253.20585" y="78.808237" style="fill: #1f77b4; stroke: #1f77b4"/>
     <use xlink:href="#md5639820f8" x="158.190638" y="100.100605" style="fill: #1f77b4; stroke: #1f77b4"/>
     <use xlink:href="#md5639820f8" x="109.197837" y="110.231162" style="fill: #1f77b4; stroke: #1f77b4"/>
     <use xlink:href="#md5639820f8" x="274.196396" y="74.258586" style="fill: #1f77b4; stroke: #1f77b4"/>
     <use xlink:href="#md5639820f8" x="323.490148" y="71.286147" style="fill: #1f77b4; stroke: #1f77b4"/>
     <use xlink:href="#md5639820f8" x="102.820427" y="110.231162" style="fill: #1f77b4; stroke: #1f77b4"/>
     <use xlink:href="#md5639820f8" x="258.123484" y="78.808237" style="fill: #1f77b4; stroke: #1f77b4"/>
     <use xlink:href="#md5639820f8" x="245.199903" y="78.808237" style="fill: #1f77b4; stroke: #1f77b4"/>
     <use xlink:href="#md5639820f8" x="284.248579" y="74.258586" style="fill: #1f77b4; stroke: #1f77b4"/>
     <use xlink:href="#md5639820f8" x="202.793047" y="85.056425" style="fill: #1f77b4; stroke: #1f77b4"/>
     <use xlink:href="#md5639820f8" x="83.337036" y="115.56942" style="fill: #1f77b4; stroke: #1f77b4"/>
     <use xlink:href="#md5639820f8" x="236.363019" y="86.330327" style="fill: #1f77b4; stroke: #1f77b4"/>
     <use xlink:href="#md5639820f8" x="227.390113" y="85.056425" style="fill: #1f77b4; stroke: #1f77b4"/>
     <use xlink:href="#md5639820f8" x="279.624889" y="67.707088" style="fill: #1f77b4; stroke: #1f77b4"/>
     <use xlink:href="#md5639820f8" x="371.018284" y="52.905555" style="fill: #1f77b4; stroke: #1f77b4"/>
     <use xlink:href="#md5639820f8" x="458.342083" y="36.041514" style="fill: #1f77b4; stroke: #1f77b4"/>
     <use xlink:href="#md5639820f8" x="305.494697" y="70.012244" style="fill: #1f77b4; stroke: #1f77b4"/>
     <use xlink:href="#md5639820f8" x="357.148131" y="54.54343" style="fill: #1f77b4; stroke: #1f77b4"/>
     <use xlink:href="#md5639820f8" x="48.23792" y="121.87827" style="fill: #1f77b4; stroke: #1f77b4"/>
     <use xlink:href="#md5639820f8" x="296.39595" y="74.137262" style="fill: #1f77b4; stroke: #1f77b4"/>
     <use xlink:href="#md5639820f8" x="166.242878" y="101.13186" style="fill: #1f77b4; stroke: #1f77b4"/>
     <use xlink:href="#md5639820f8" x="117.155402" y="110.231162" style="fill: #1f77b4; stroke: #1f77b4"/>
     <use xlink:href="#md5639820f8" x="77.96656" y="115.56942" style="fill: #1f77b4; stroke: #1f77b4"/>
     <use xlink:href="#md5639820f8" x="217.474237" y="86.330327" style="fill: #1f77b4; stroke: #1f77b4"/>
     <use xlink:href="#md5639820f8" x="85.932274" y="113.688897" style="fill: #1f77b4; stroke: #1f77b4"/>
     <use xlink:href="#md5639820f8" x="311.656052" y="71.286147" style="fill: #1f77b4; stroke: #1f77b4"/>
     <use xlink:href="#md5639820f8" x="316.236507" y="67.707088" style="fill: #1f77b4; stroke: #1f77b4"/>
     <use xlink:href="#md5639820f8" x="216.137759" y="85.056425" style="fill: #1f77b4; stroke: #1f77b4"/>
     <use xlink:href="#md5639820f8" x="213.042956" y="86.330327" style="fill: #1f77b4; stroke: #1f77b4"/>
     <use xlink:href="#md5639820f8" x="315.087833" y="70.012244" style="fill: #1f77b4; stroke: #1f77b4"/>
     <use xlink:href="#md5639820f8" x="93.560924" y="116.297364" style="fill: #1f77b4; stroke: #1f77b4"/>
     <use xlink:href="#md5639820f8" x="138.580633" y="101.13186" style="fill: #1f77b4; stroke: #1f77b4"/>
     <use xlink:href="#md5639820f8" x="190.173448" y="95.368968" style="fill: #1f77b4; stroke: #1f77b4"/>
     <use xlink:href="#md5639820f8" x="294.449049" y="74.258586" style="fill: #1f77b4; stroke: #1f77b4"/>
     <use xlink:href="#md5639820f8" x="209.258498" y="95.368968" style="fill: #1f77b4; stroke: #1f77b4"/>
     <use xlink:href="#md5639820f8" x="236.947821" y="82.144648" style="fill: #1f77b4; stroke: #1f77b4"/>
     <use xlink:href="#md5639820f8" x="98.18427" y="110.231162" style="fill: #1f77b4; stroke: #1f77b4"/>
     <use xlink:href="#md5639820f8" x="120.791287" y="100.707225" style="fill: #1f77b4; stroke: #1f77b4"/>
     <use xlink:href="#md5639820f8" x="250.24621" y="82.144648" style="fill: #1f77b4; stroke: #1f77b4"/>
     <use xlink:href="#md5639820f8" x="71.050755" y="115.56942" style="fill: #1f77b4; stroke: #1f77b4"/>
     <use xlink:href="#md5639820f8" x="144.336955" y="101.13186" style="fill: #1f77b4; stroke: #1f77b4"/>
     <use xlink:href="#md5639820f8" x="240.096294" y="85.056425" style="fill: #1f77b4; stroke: #1f77b4"/>
     <use xlink:href="#md5639820f8" x="367.598512" y="54.54343" style="fill: #1f77b4; stroke: #1f77b4"/>
     <use xlink:href="#md5639820f8" x="196.243216" y="95.672278" style="fill: #1f77b4; stroke: #1f77b4"/>
     <use xlink:href="#md5639820f8" x="251.944573" y="86.330327" style="fill: #1f77b4; stroke: #1f77b4"/>
     <use xlink:href="#md5639820f8" x="378.677387" y="52.905555" style="fill: #1f77b4; stroke: #1f77b4"/>
     <use xlink:href="#md5639820f8" x="76.271628" y="115.56942" style="fill: #1f77b4; stroke: #1f77b4"/>
     <use xlink:href="#md5639820f8" x="383.311084" y="57.333883" style="fill: #1f77b4; stroke: #1f77b4"/>
     <use xlink:href="#md5639820f8" x="111.714957" y="100.707225" style="fill: #1f77b4; stroke: #1f77b4"/>
     <use xlink:href="#md5639820f8" x="52.073047" y="121.87827" style="fill: #1f77b4; stroke: #1f77b4"/>
     <use xlink:href="#md5639820f8" x="467.863791" y="36.041514" style="fill: #1f77b4; stroke: #1f77b4"/>
     <use xlink:href="#md5639820f8" x="453.86914" y="36.041514" style="fill: #1f77b4; stroke: #1f77b4"/>
     <use xlink:href="#md5639820f8" x="324.615375" y="71.286147" style="fill: #1f77b4; stroke: #1f77b4"/>
     <use xlink:href="#md5639820f8" x="310.468433" y="71.286147" style="fill: #1f77b4; stroke: #1f77b4"/>
     <use xlink:href="#md5639820f8" x="63.261465" y="121.87827" style="fill: #1f77b4; stroke: #1f77b4"/>
    </g>
   </g>
   <g id="matplotlib.axis_1">
    <g id="xtick_1">
     <g id="line2d_1">
      <path d="M 55.822964 191.6775 
L 55.822964 25.3575 
" clip-path="url(#p625c7d89ed)" style="fill: none; stroke: #b0b0b0; stroke-width: 0.8; stroke-linecap: square"/>
     </g>
     <g id="line2d_2">
      <defs>
       <path id="mc96c101d08" d="M 0 0 
L 0 3.5 
" style="stroke: #000000; stroke-width: 0.8"/>
      </defs>
      <g>
       <use xlink:href="#mc96c101d08" x="55.822964" y="191.6775" style="stroke: #000000; stroke-width: 0.8"/>
      </g>
     </g>
     <g id="text_1">
      <!-- 10 -->
      <g transform="translate(49.460464 206.275938) scale(0.1 -0.1)">
       <defs>
        <path id="DejaVuSans-31" d="M 794 531 
L 1825 531 
L 1825 4091 
L 703 3866 
L 703 4441 
L 1819 4666 
L 2450 4666 
L 2450 531 
L 3481 531 
L 3481 0 
L 794 0 
L 794 531 
z
" transform="scale(0.015625)"/>
        <path id="DejaVuSans-30" d="M 2034 4250 
Q 1547 4250 1301 3770 
Q 1056 3291 1056 2328 
Q 1056 1369 1301 889 
Q 1547 409 2034 409 
Q 2525 409 2770 889 
Q 3016 1369 3016 2328 
Q 3016 3291 2770 3770 
Q 2525 4250 2034 4250 
z
M 2034 4750 
Q 2819 4750 3233 4129 
Q 3647 3509 3647 2328 
Q 3647 1150 3233 529 
Q 2819 -91 2034 -91 
Q 1250 -91 836 529 
Q 422 1150 422 2328 
Q 422 3509 836 4129 
Q 1250 4750 2034 4750 
z
" transform="scale(0.015625)"/>
       </defs>
       <use xlink:href="#DejaVuSans-31"/>
       <use xlink:href="#DejaVuSans-30" x="63.623047"/>
      </g>
     </g>
    </g>
    <g id="xtick_2">
     <g id="line2d_3">
      <path d="M 115.7887 191.6775 
L 115.7887 25.3575 
" clip-path="url(#p625c7d89ed)" style="fill: none; stroke: #b0b0b0; stroke-width: 0.8; stroke-linecap: square"/>
     </g>
     <g id="line2d_4">
      <g>
       <use xlink:href="#mc96c101d08" x="115.7887" y="191.6775" style="stroke: #000000; stroke-width: 0.8"/>
      </g>
     </g>
     <g id="text_2">
      <!-- 12 -->
      <g transform="translate(109.4262 206.275938) scale(0.1 -0.1)">
       <defs>
        <path id="DejaVuSans-32" d="M 1228 531 
L 3431 531 
L 3431 0 
L 469 0 
L 469 531 
Q 828 903 1448 1529 
Q 2069 2156 2228 2338 
Q 2531 2678 2651 2914 
Q 2772 3150 2772 3378 
Q 2772 3750 2511 3984 
Q 2250 4219 1831 4219 
Q 1534 4219 1204 4116 
Q 875 4013 500 3803 
L 500 4441 
Q 881 4594 1212 4672 
Q 1544 4750 1819 4750 
Q 2544 4750 2975 4387 
Q 3406 4025 3406 3419 
Q 3406 3131 3298 2873 
Q 3191 2616 2906 2266 
Q 2828 2175 2409 1742 
Q 1991 1309 1228 531 
z
" transform="scale(0.015625)"/>
       </defs>
       <use xlink:href="#DejaVuSans-31"/>
       <use xlink:href="#DejaVuSans-32" x="63.623047"/>
      </g>
     </g>
    </g>
    <g id="xtick_3">
     <g id="line2d_5">
      <path d="M 175.754435 191.6775 
L 175.754435 25.3575 
" clip-path="url(#p625c7d89ed)" style="fill: none; stroke: #b0b0b0; stroke-width: 0.8; stroke-linecap: square"/>
     </g>
     <g id="line2d_6">
      <g>
       <use xlink:href="#mc96c101d08" x="175.754435" y="191.6775" style="stroke: #000000; stroke-width: 0.8"/>
      </g>
     </g>
     <g id="text_3">
      <!-- 14 -->
      <g transform="translate(169.391935 206.275938) scale(0.1 -0.1)">
       <defs>
        <path id="DejaVuSans-34" d="M 2419 4116 
L 825 1625 
L 2419 1625 
L 2419 4116 
z
M 2253 4666 
L 3047 4666 
L 3047 1625 
L 3713 1625 
L 3713 1100 
L 3047 1100 
L 3047 0 
L 2419 0 
L 2419 1100 
L 313 1100 
L 313 1709 
L 2253 4666 
z
" transform="scale(0.015625)"/>
       </defs>
       <use xlink:href="#DejaVuSans-31"/>
       <use xlink:href="#DejaVuSans-34" x="63.623047"/>
      </g>
     </g>
    </g>
    <g id="xtick_4">
     <g id="line2d_7">
      <path d="M 235.720171 191.6775 
L 235.720171 25.3575 
" clip-path="url(#p625c7d89ed)" style="fill: none; stroke: #b0b0b0; stroke-width: 0.8; stroke-linecap: square"/>
     </g>
     <g id="line2d_8">
      <g>
       <use xlink:href="#mc96c101d08" x="235.720171" y="191.6775" style="stroke: #000000; stroke-width: 0.8"/>
      </g>
     </g>
     <g id="text_4">
      <!-- 16 -->
      <g transform="translate(229.357671 206.275938) scale(0.1 -0.1)">
       <defs>
        <path id="DejaVuSans-36" d="M 2113 2584 
Q 1688 2584 1439 2293 
Q 1191 2003 1191 1497 
Q 1191 994 1439 701 
Q 1688 409 2113 409 
Q 2538 409 2786 701 
Q 3034 994 3034 1497 
Q 3034 2003 2786 2293 
Q 2538 2584 2113 2584 
z
M 3366 4563 
L 3366 3988 
Q 3128 4100 2886 4159 
Q 2644 4219 2406 4219 
Q 1781 4219 1451 3797 
Q 1122 3375 1075 2522 
Q 1259 2794 1537 2939 
Q 1816 3084 2150 3084 
Q 2853 3084 3261 2657 
Q 3669 2231 3669 1497 
Q 3669 778 3244 343 
Q 2819 -91 2113 -91 
Q 1303 -91 875 529 
Q 447 1150 447 2328 
Q 447 3434 972 4092 
Q 1497 4750 2381 4750 
Q 2619 4750 2861 4703 
Q 3103 4656 3366 4563 
z
" transform="scale(0.015625)"/>
       </defs>
       <use xlink:href="#DejaVuSans-31"/>
       <use xlink:href="#DejaVuSans-36" x="63.623047"/>
      </g>
     </g>
    </g>
    <g id="xtick_5">
     <g id="line2d_9">
      <path d="M 295.685906 191.6775 
L 295.685906 25.3575 
" clip-path="url(#p625c7d89ed)" style="fill: none; stroke: #b0b0b0; stroke-width: 0.8; stroke-linecap: square"/>
     </g>
     <g id="line2d_10">
      <g>
       <use xlink:href="#mc96c101d08" x="295.685906" y="191.6775" style="stroke: #000000; stroke-width: 0.8"/>
      </g>
     </g>
     <g id="text_5">
      <!-- 18 -->
      <g transform="translate(289.323406 206.275938) scale(0.1 -0.1)">
       <defs>
        <path id="DejaVuSans-38" d="M 2034 2216 
Q 1584 2216 1326 1975 
Q 1069 1734 1069 1313 
Q 1069 891 1326 650 
Q 1584 409 2034 409 
Q 2484 409 2743 651 
Q 3003 894 3003 1313 
Q 3003 1734 2745 1975 
Q 2488 2216 2034 2216 
z
M 1403 2484 
Q 997 2584 770 2862 
Q 544 3141 544 3541 
Q 544 4100 942 4425 
Q 1341 4750 2034 4750 
Q 2731 4750 3128 4425 
Q 3525 4100 3525 3541 
Q 3525 3141 3298 2862 
Q 3072 2584 2669 2484 
Q 3125 2378 3379 2068 
Q 3634 1759 3634 1313 
Q 3634 634 3220 271 
Q 2806 -91 2034 -91 
Q 1263 -91 848 271 
Q 434 634 434 1313 
Q 434 1759 690 2068 
Q 947 2378 1403 2484 
z
M 1172 3481 
Q 1172 3119 1398 2916 
Q 1625 2713 2034 2713 
Q 2441 2713 2670 2916 
Q 2900 3119 2900 3481 
Q 2900 3844 2670 4047 
Q 2441 4250 2034 4250 
Q 1625 4250 1398 4047 
Q 1172 3844 1172 3481 
z
" transform="scale(0.015625)"/>
       </defs>
       <use xlink:href="#DejaVuSans-31"/>
       <use xlink:href="#DejaVuSans-38" x="63.623047"/>
      </g>
     </g>
    </g>
    <g id="xtick_6">
     <g id="line2d_11">
      <path d="M 355.651642 191.6775 
L 355.651642 25.3575 
" clip-path="url(#p625c7d89ed)" style="fill: none; stroke: #b0b0b0; stroke-width: 0.8; stroke-linecap: square"/>
     </g>
     <g id="line2d_12">
      <g>
       <use xlink:href="#mc96c101d08" x="355.651642" y="191.6775" style="stroke: #000000; stroke-width: 0.8"/>
      </g>
     </g>
     <g id="text_6">
      <!-- 20 -->
      <g transform="translate(349.289142 206.275938) scale(0.1 -0.1)">
       <use xlink:href="#DejaVuSans-32"/>
       <use xlink:href="#DejaVuSans-30" x="63.623047"/>
      </g>
     </g>
    </g>
    <g id="xtick_7">
     <g id="line2d_13">
      <path d="M 415.617377 191.6775 
L 415.617377 25.3575 
" clip-path="url(#p625c7d89ed)" style="fill: none; stroke: #b0b0b0; stroke-width: 0.8; stroke-linecap: square"/>
     </g>
     <g id="line2d_14">
      <g>
       <use xlink:href="#mc96c101d08" x="415.617377" y="191.6775" style="stroke: #000000; stroke-width: 0.8"/>
      </g>
     </g>
     <g id="text_7">
      <!-- 22 -->
      <g transform="translate(409.254877 206.275938) scale(0.1 -0.1)">
       <use xlink:href="#DejaVuSans-32"/>
       <use xlink:href="#DejaVuSans-32" x="63.623047"/>
      </g>
     </g>
    </g>
    <g id="xtick_8">
     <g id="line2d_15">
      <path d="M 475.583112 191.6775 
L 475.583112 25.3575 
" clip-path="url(#p625c7d89ed)" style="fill: none; stroke: #b0b0b0; stroke-width: 0.8; stroke-linecap: square"/>
     </g>
     <g id="line2d_16">
      <g>
       <use xlink:href="#mc96c101d08" x="475.583112" y="191.6775" style="stroke: #000000; stroke-width: 0.8"/>
      </g>
     </g>
     <g id="text_8">
      <!-- 24 -->
      <g transform="translate(469.220612 206.275938) scale(0.1 -0.1)">
       <use xlink:href="#DejaVuSans-32"/>
       <use xlink:href="#DejaVuSans-34" x="63.623047"/>
      </g>
     </g>
    </g>
    <g id="text_9">
     <!-- Predictions -->
     <g transform="translate(229.256406 222.993438) scale(0.14 -0.14)">
      <defs>
       <path id="DejaVuSans-50" d="M 1259 4147 
L 1259 2394 
L 2053 2394 
Q 2494 2394 2734 2622 
Q 2975 2850 2975 3272 
Q 2975 3691 2734 3919 
Q 2494 4147 2053 4147 
L 1259 4147 
z
M 628 4666 
L 2053 4666 
Q 2838 4666 3239 4311 
Q 3641 3956 3641 3272 
Q 3641 2581 3239 2228 
Q 2838 1875 2053 1875 
L 1259 1875 
L 1259 0 
L 628 0 
L 628 4666 
z
" transform="scale(0.015625)"/>
       <path id="DejaVuSans-72" d="M 2631 2963 
Q 2534 3019 2420 3045 
Q 2306 3072 2169 3072 
Q 1681 3072 1420 2755 
Q 1159 2438 1159 1844 
L 1159 0 
L 581 0 
L 581 3500 
L 1159 3500 
L 1159 2956 
Q 1341 3275 1631 3429 
Q 1922 3584 2338 3584 
Q 2397 3584 2469 3576 
Q 2541 3569 2628 3553 
L 2631 2963 
z
" transform="scale(0.015625)"/>
       <path id="DejaVuSans-65" d="M 3597 1894 
L 3597 1613 
L 953 1613 
Q 991 1019 1311 708 
Q 1631 397 2203 397 
Q 2534 397 2845 478 
Q 3156 559 3463 722 
L 3463 178 
Q 3153 47 2828 -22 
Q 2503 -91 2169 -91 
Q 1331 -91 842 396 
Q 353 884 353 1716 
Q 353 2575 817 3079 
Q 1281 3584 2069 3584 
Q 2775 3584 3186 3129 
Q 3597 2675 3597 1894 
z
M 3022 2063 
Q 3016 2534 2758 2815 
Q 2500 3097 2075 3097 
Q 1594 3097 1305 2825 
Q 1016 2553 972 2059 
L 3022 2063 
z
" transform="scale(0.015625)"/>
       <path id="DejaVuSans-64" d="M 2906 2969 
L 2906 4863 
L 3481 4863 
L 3481 0 
L 2906 0 
L 2906 525 
Q 2725 213 2448 61 
Q 2172 -91 1784 -91 
Q 1150 -91 751 415 
Q 353 922 353 1747 
Q 353 2572 751 3078 
Q 1150 3584 1784 3584 
Q 2172 3584 2448 3432 
Q 2725 3281 2906 2969 
z
M 947 1747 
Q 947 1113 1208 752 
Q 1469 391 1925 391 
Q 2381 391 2643 752 
Q 2906 1113 2906 1747 
Q 2906 2381 2643 2742 
Q 2381 3103 1925 3103 
Q 1469 3103 1208 2742 
Q 947 2381 947 1747 
z
" transform="scale(0.015625)"/>
       <path id="DejaVuSans-69" d="M 603 3500 
L 1178 3500 
L 1178 0 
L 603 0 
L 603 3500 
z
M 603 4863 
L 1178 4863 
L 1178 4134 
L 603 4134 
L 603 4863 
z
" transform="scale(0.015625)"/>
       <path id="DejaVuSans-63" d="M 3122 3366 
L 3122 2828 
Q 2878 2963 2633 3030 
Q 2388 3097 2138 3097 
Q 1578 3097 1268 2742 
Q 959 2388 959 1747 
Q 959 1106 1268 751 
Q 1578 397 2138 397 
Q 2388 397 2633 464 
Q 2878 531 3122 666 
L 3122 134 
Q 2881 22 2623 -34 
Q 2366 -91 2075 -91 
Q 1284 -91 818 406 
Q 353 903 353 1747 
Q 353 2603 823 3093 
Q 1294 3584 2113 3584 
Q 2378 3584 2631 3529 
Q 2884 3475 3122 3366 
z
" transform="scale(0.015625)"/>
       <path id="DejaVuSans-74" d="M 1172 4494 
L 1172 3500 
L 2356 3500 
L 2356 3053 
L 1172 3053 
L 1172 1153 
Q 1172 725 1289 603 
Q 1406 481 1766 481 
L 2356 481 
L 2356 0 
L 1766 0 
Q 1100 0 847 248 
Q 594 497 594 1153 
L 594 3053 
L 172 3053 
L 172 3500 
L 594 3500 
L 594 4494 
L 1172 4494 
z
" transform="scale(0.015625)"/>
       <path id="DejaVuSans-6f" d="M 1959 3097 
Q 1497 3097 1228 2736 
Q 959 2375 959 1747 
Q 959 1119 1226 758 
Q 1494 397 1959 397 
Q 2419 397 2687 759 
Q 2956 1122 2956 1747 
Q 2956 2369 2687 2733 
Q 2419 3097 1959 3097 
z
M 1959 3584 
Q 2709 3584 3137 3096 
Q 3566 2609 3566 1747 
Q 3566 888 3137 398 
Q 2709 -91 1959 -91 
Q 1206 -91 779 398 
Q 353 888 353 1747 
Q 353 2609 779 3096 
Q 1206 3584 1959 3584 
z
" transform="scale(0.015625)"/>
       <path id="DejaVuSans-6e" d="M 3513 2113 
L 3513 0 
L 2938 0 
L 2938 2094 
Q 2938 2591 2744 2837 
Q 2550 3084 2163 3084 
Q 1697 3084 1428 2787 
Q 1159 2491 1159 1978 
L 1159 0 
L 581 0 
L 581 3500 
L 1159 3500 
L 1159 2956 
Q 1366 3272 1645 3428 
Q 1925 3584 2291 3584 
Q 2894 3584 3203 3211 
Q 3513 2838 3513 2113 
z
" transform="scale(0.015625)"/>
       <path id="DejaVuSans-73" d="M 2834 3397 
L 2834 2853 
Q 2591 2978 2328 3040 
Q 2066 3103 1784 3103 
Q 1356 3103 1142 2972 
Q 928 2841 928 2578 
Q 928 2378 1081 2264 
Q 1234 2150 1697 2047 
L 1894 2003 
Q 2506 1872 2764 1633 
Q 3022 1394 3022 966 
Q 3022 478 2636 193 
Q 2250 -91 1575 -91 
Q 1294 -91 989 -36 
Q 684 19 347 128 
L 347 722 
Q 666 556 975 473 
Q 1284 391 1588 391 
Q 1994 391 2212 530 
Q 2431 669 2431 922 
Q 2431 1156 2273 1281 
Q 2116 1406 1581 1522 
L 1381 1569 
Q 847 1681 609 1914 
Q 372 2147 372 2553 
Q 372 3047 722 3315 
Q 1072 3584 1716 3584 
Q 2034 3584 2315 3537 
Q 2597 3491 2834 3397 
z
" transform="scale(0.015625)"/>
      </defs>
      <use xlink:href="#DejaVuSans-50"/>
      <use xlink:href="#DejaVuSans-72" x="58.552734"/>
      <use xlink:href="#DejaVuSans-65" x="97.416016"/>
      <use xlink:href="#DejaVuSans-64" x="158.939453"/>
      <use xlink:href="#DejaVuSans-69" x="222.416016"/>
      <use xlink:href="#DejaVuSans-63" x="250.199219"/>
      <use xlink:href="#DejaVuSans-74" x="305.179688"/>
      <use xlink:href="#DejaVuSans-69" x="344.388672"/>
      <use xlink:href="#DejaVuSans-6f" x="372.171875"/>
      <use xlink:href="#DejaVuSans-6e" x="433.353516"/>
      <use xlink:href="#DejaVuSans-73" x="496.732422"/>
     </g>
    </g>
   </g>
   <g id="matplotlib.axis_2">
    <g id="ytick_1">
     <g id="line2d_17">
      <path d="M 44.474375 184.1175 
L 490.874375 184.1175 
" clip-path="url(#p625c7d89ed)" style="fill: none; stroke: #b0b0b0; stroke-width: 0.8; stroke-linecap: square"/>
     </g>
     <g id="line2d_18">
      <defs>
       <path id="mdc792d93c1" d="M 0 0 
L -3.5 0 
" style="stroke: #000000; stroke-width: 0.8"/>
      </defs>
      <g>
       <use xlink:href="#mdc792d93c1" x="44.474375" y="184.1175" style="stroke: #000000; stroke-width: 0.8"/>
      </g>
     </g>
     <g id="text_10">
      <!-- 0 -->
      <g transform="translate(31.111875 187.916719) scale(0.1 -0.1)">
       <use xlink:href="#DejaVuSans-30"/>
      </g>
     </g>
    </g>
    <g id="ytick_2">
     <g id="line2d_19">
      <path d="M 44.474375 153.786491 
L 490.874375 153.786491 
" clip-path="url(#p625c7d89ed)" style="fill: none; stroke: #b0b0b0; stroke-width: 0.8; stroke-linecap: square"/>
     </g>
     <g id="line2d_20">
      <g>
       <use xlink:href="#mdc792d93c1" x="44.474375" y="153.786491" style="stroke: #000000; stroke-width: 0.8"/>
      </g>
     </g>
     <g id="text_11">
      <!-- 5 -->
      <g transform="translate(31.111875 157.58571) scale(0.1 -0.1)">
       <defs>
        <path id="DejaVuSans-35" d="M 691 4666 
L 3169 4666 
L 3169 4134 
L 1269 4134 
L 1269 2991 
Q 1406 3038 1543 3061 
Q 1681 3084 1819 3084 
Q 2600 3084 3056 2656 
Q 3513 2228 3513 1497 
Q 3513 744 3044 326 
Q 2575 -91 1722 -91 
Q 1428 -91 1123 -41 
Q 819 9 494 109 
L 494 744 
Q 775 591 1075 516 
Q 1375 441 1709 441 
Q 2250 441 2565 725 
Q 2881 1009 2881 1497 
Q 2881 1984 2565 2268 
Q 2250 2553 1709 2553 
Q 1456 2553 1204 2497 
Q 953 2441 691 2322 
L 691 4666 
z
" transform="scale(0.015625)"/>
       </defs>
       <use xlink:href="#DejaVuSans-35"/>
      </g>
     </g>
    </g>
    <g id="ytick_3">
     <g id="line2d_21">
      <path d="M 44.474375 123.455482 
L 490.874375 123.455482 
" clip-path="url(#p625c7d89ed)" style="fill: none; stroke: #b0b0b0; stroke-width: 0.8; stroke-linecap: square"/>
     </g>
     <g id="line2d_22">
      <g>
       <use xlink:href="#mdc792d93c1" x="44.474375" y="123.455482" style="stroke: #000000; stroke-width: 0.8"/>
      </g>
     </g>
     <g id="text_12">
      <!-- 10 -->
      <g transform="translate(24.749375 127.254701) scale(0.1 -0.1)">
       <use xlink:href="#DejaVuSans-31"/>
       <use xlink:href="#DejaVuSans-30" x="63.623047"/>
      </g>
     </g>
    </g>
    <g id="ytick_4">
     <g id="line2d_23">
      <path d="M 44.474375 93.124473 
L 490.874375 93.124473 
" clip-path="url(#p625c7d89ed)" style="fill: none; stroke: #b0b0b0; stroke-width: 0.8; stroke-linecap: square"/>
     </g>
     <g id="line2d_24">
      <g>
       <use xlink:href="#mdc792d93c1" x="44.474375" y="93.124473" style="stroke: #000000; stroke-width: 0.8"/>
      </g>
     </g>
     <g id="text_13">
      <!-- 15 -->
      <g transform="translate(24.749375 96.923692) scale(0.1 -0.1)">
       <use xlink:href="#DejaVuSans-31"/>
       <use xlink:href="#DejaVuSans-35" x="63.623047"/>
      </g>
     </g>
    </g>
    <g id="ytick_5">
     <g id="line2d_25">
      <path d="M 44.474375 62.793464 
L 490.874375 62.793464 
" clip-path="url(#p625c7d89ed)" style="fill: none; stroke: #b0b0b0; stroke-width: 0.8; stroke-linecap: square"/>
     </g>
     <g id="line2d_26">
      <g>
       <use xlink:href="#mdc792d93c1" x="44.474375" y="62.793464" style="stroke: #000000; stroke-width: 0.8"/>
      </g>
     </g>
     <g id="text_14">
      <!-- 20 -->
      <g transform="translate(24.749375 66.592683) scale(0.1 -0.1)">
       <use xlink:href="#DejaVuSans-32"/>
       <use xlink:href="#DejaVuSans-30" x="63.623047"/>
      </g>
     </g>
    </g>
    <g id="ytick_6">
     <g id="line2d_27">
      <path d="M 44.474375 32.462455 
L 490.874375 32.462455 
" clip-path="url(#p625c7d89ed)" style="fill: none; stroke: #b0b0b0; stroke-width: 0.8; stroke-linecap: square"/>
     </g>
     <g id="line2d_28">
      <g>
       <use xlink:href="#mdc792d93c1" x="44.474375" y="32.462455" style="stroke: #000000; stroke-width: 0.8"/>
      </g>
     </g>
     <g id="text_15">
      <!-- 25 -->
      <g transform="translate(24.749375 36.261674) scale(0.1 -0.1)">
       <use xlink:href="#DejaVuSans-32"/>
       <use xlink:href="#DejaVuSans-35" x="63.623047"/>
      </g>
     </g>
    </g>
    <g id="text_16">
     <!-- Real -->
     <g transform="translate(17.837813 123.607969) rotate(-90) scale(0.14 -0.14)">
      <defs>
       <path id="DejaVuSans-52" d="M 2841 2188 
Q 3044 2119 3236 1894 
Q 3428 1669 3622 1275 
L 4263 0 
L 3584 0 
L 2988 1197 
Q 2756 1666 2539 1819 
Q 2322 1972 1947 1972 
L 1259 1972 
L 1259 0 
L 628 0 
L 628 4666 
L 2053 4666 
Q 2853 4666 3247 4331 
Q 3641 3997 3641 3322 
Q 3641 2881 3436 2590 
Q 3231 2300 2841 2188 
z
M 1259 4147 
L 1259 2491 
L 2053 2491 
Q 2509 2491 2742 2702 
Q 2975 2913 2975 3322 
Q 2975 3731 2742 3939 
Q 2509 4147 2053 4147 
L 1259 4147 
z
" transform="scale(0.015625)"/>
       <path id="DejaVuSans-61" d="M 2194 1759 
Q 1497 1759 1228 1600 
Q 959 1441 959 1056 
Q 959 750 1161 570 
Q 1363 391 1709 391 
Q 2188 391 2477 730 
Q 2766 1069 2766 1631 
L 2766 1759 
L 2194 1759 
z
M 3341 1997 
L 3341 0 
L 2766 0 
L 2766 531 
Q 2569 213 2275 61 
Q 1981 -91 1556 -91 
Q 1019 -91 701 211 
Q 384 513 384 1019 
Q 384 1609 779 1909 
Q 1175 2209 1959 2209 
L 2766 2209 
L 2766 2266 
Q 2766 2663 2505 2880 
Q 2244 3097 1772 3097 
Q 1472 3097 1187 3025 
Q 903 2953 641 2809 
L 641 3341 
Q 956 3463 1253 3523 
Q 1550 3584 1831 3584 
Q 2591 3584 2966 3190 
Q 3341 2797 3341 1997 
z
" transform="scale(0.015625)"/>
       <path id="DejaVuSans-6c" d="M 603 4863 
L 1178 4863 
L 1178 0 
L 603 0 
L 603 4863 
z
" transform="scale(0.015625)"/>
      </defs>
      <use xlink:href="#DejaVuSans-52"/>
      <use xlink:href="#DejaVuSans-65" x="64.982422"/>
      <use xlink:href="#DejaVuSans-61" x="126.505859"/>
      <use xlink:href="#DejaVuSans-6c" x="187.785156"/>
     </g>
    </g>
   </g>
   <g id="line2d_29">
    <path d="M -1 134.952033 
L 487.876088 36.041514 
" clip-path="url(#p625c7d89ed)" style="fill: none; stroke: #1f77b4; stroke-width: 1.5; stroke-linecap: square"/>
   </g>
   <g id="line2d_30">
    <path d="M -1 131.464937 
L 490.574546 32.9175 
L 490.574546 32.9175 
" clip-path="url(#p625c7d89ed)" style="fill: none; stroke: #ff0000; stroke-width: 1.5; stroke-linecap: square"/>
   </g>
   <g id="patch_3">
    <path d="M 44.474375 191.6775 
L 44.474375 25.3575 
" style="fill: none; stroke: #000000; stroke-width: 0.8; stroke-linejoin: miter; stroke-linecap: square"/>
   </g>
   <g id="patch_4">
    <path d="M 490.874375 191.6775 
L 490.874375 25.3575 
" style="fill: none; stroke: #000000; stroke-width: 0.8; stroke-linejoin: miter; stroke-linecap: square"/>
   </g>
   <g id="patch_5">
    <path d="M 44.474375 191.6775 
L 490.874375 191.6775 
" style="fill: none; stroke: #000000; stroke-width: 0.8; stroke-linejoin: miter; stroke-linecap: square"/>
   </g>
   <g id="patch_6">
    <path d="M 44.474375 25.3575 
L 490.874375 25.3575 
" style="fill: none; stroke: #000000; stroke-width: 0.8; stroke-linejoin: miter; stroke-linecap: square"/>
   </g>
   <g id="text_17">
    <!-- Bulk Density -->
    <g transform="translate(217.304375 19.3575) scale(0.16 -0.16)">
     <defs>
      <path id="DejaVuSans-42" d="M 1259 2228 
L 1259 519 
L 2272 519 
Q 2781 519 3026 730 
Q 3272 941 3272 1375 
Q 3272 1813 3026 2020 
Q 2781 2228 2272 2228 
L 1259 2228 
z
M 1259 4147 
L 1259 2741 
L 2194 2741 
Q 2656 2741 2882 2914 
Q 3109 3088 3109 3444 
Q 3109 3797 2882 3972 
Q 2656 4147 2194 4147 
L 1259 4147 
z
M 628 4666 
L 2241 4666 
Q 2963 4666 3353 4366 
Q 3744 4066 3744 3513 
Q 3744 3084 3544 2831 
Q 3344 2578 2956 2516 
Q 3422 2416 3680 2098 
Q 3938 1781 3938 1306 
Q 3938 681 3513 340 
Q 3088 0 2303 0 
L 628 0 
L 628 4666 
z
" transform="scale(0.015625)"/>
      <path id="DejaVuSans-75" d="M 544 1381 
L 544 3500 
L 1119 3500 
L 1119 1403 
Q 1119 906 1312 657 
Q 1506 409 1894 409 
Q 2359 409 2629 706 
Q 2900 1003 2900 1516 
L 2900 3500 
L 3475 3500 
L 3475 0 
L 2900 0 
L 2900 538 
Q 2691 219 2414 64 
Q 2138 -91 1772 -91 
Q 1169 -91 856 284 
Q 544 659 544 1381 
z
M 1991 3584 
L 1991 3584 
z
" transform="scale(0.015625)"/>
      <path id="DejaVuSans-6b" d="M 581 4863 
L 1159 4863 
L 1159 1991 
L 2875 3500 
L 3609 3500 
L 1753 1863 
L 3688 0 
L 2938 0 
L 1159 1709 
L 1159 0 
L 581 0 
L 581 4863 
z
" transform="scale(0.015625)"/>
      <path id="DejaVuSans-20" transform="scale(0.015625)"/>
      <path id="DejaVuSans-44" d="M 1259 4147 
L 1259 519 
L 2022 519 
Q 2988 519 3436 956 
Q 3884 1394 3884 2338 
Q 3884 3275 3436 3711 
Q 2988 4147 2022 4147 
L 1259 4147 
z
M 628 4666 
L 1925 4666 
Q 3281 4666 3915 4102 
Q 4550 3538 4550 2338 
Q 4550 1131 3912 565 
Q 3275 0 1925 0 
L 628 0 
L 628 4666 
z
" transform="scale(0.015625)"/>
      <path id="DejaVuSans-79" d="M 2059 -325 
Q 1816 -950 1584 -1140 
Q 1353 -1331 966 -1331 
L 506 -1331 
L 506 -850 
L 844 -850 
Q 1081 -850 1212 -737 
Q 1344 -625 1503 -206 
L 1606 56 
L 191 3500 
L 800 3500 
L 1894 763 
L 2988 3500 
L 3597 3500 
L 2059 -325 
z
" transform="scale(0.015625)"/>
     </defs>
     <use xlink:href="#DejaVuSans-42"/>
     <use xlink:href="#DejaVuSans-75" x="68.603516"/>
     <use xlink:href="#DejaVuSans-6c" x="131.982422"/>
     <use xlink:href="#DejaVuSans-6b" x="159.765625"/>
     <use xlink:href="#DejaVuSans-20" x="217.675781"/>
     <use xlink:href="#DejaVuSans-44" x="249.462891"/>
     <use xlink:href="#DejaVuSans-65" x="326.464844"/>
     <use xlink:href="#DejaVuSans-6e" x="387.988281"/>
     <use xlink:href="#DejaVuSans-73" x="451.367188"/>
     <use xlink:href="#DejaVuSans-69" x="503.466797"/>
     <use xlink:href="#DejaVuSans-74" x="531.25"/>
     <use xlink:href="#DejaVuSans-79" x="570.458984"/>
    </g>
   </g>
   <g id="legend_1">
    <g id="patch_7">
     <path d="M 51.474375 62.71375 
L 121.229063 62.71375 
Q 123.229063 62.71375 123.229063 60.71375 
L 123.229063 32.3575 
Q 123.229063 30.3575 121.229063 30.3575 
L 51.474375 30.3575 
Q 49.474375 30.3575 49.474375 32.3575 
L 49.474375 60.71375 
Q 49.474375 62.71375 51.474375 62.71375 
z
" style="fill: #ffffff; opacity: 0.8; stroke: #cccccc; stroke-linejoin: miter"/>
    </g>
    <g id="line2d_31">
     <path d="M 53.474375 38.455938 
L 63.474375 38.455938 
L 73.474375 38.455938 
" style="fill: none; stroke: #1f77b4; stroke-width: 1.5; stroke-linecap: square"/>
    </g>
    <g id="text_18">
     <!-- Ideal fit -->
     <g transform="translate(81.474375 41.955938) scale(0.1 -0.1)">
      <defs>
       <path id="DejaVuSans-49" d="M 628 4666 
L 1259 4666 
L 1259 0 
L 628 0 
L 628 4666 
z
" transform="scale(0.015625)"/>
       <path id="DejaVuSans-66" d="M 2375 4863 
L 2375 4384 
L 1825 4384 
Q 1516 4384 1395 4259 
Q 1275 4134 1275 3809 
L 1275 3500 
L 2222 3500 
L 2222 3053 
L 1275 3053 
L 1275 0 
L 697 0 
L 697 3053 
L 147 3053 
L 147 3500 
L 697 3500 
L 697 3744 
Q 697 4328 969 4595 
Q 1241 4863 1831 4863 
L 2375 4863 
z
" transform="scale(0.015625)"/>
      </defs>
      <use xlink:href="#DejaVuSans-49"/>
      <use xlink:href="#DejaVuSans-64" x="29.492188"/>
      <use xlink:href="#DejaVuSans-65" x="92.96875"/>
      <use xlink:href="#DejaVuSans-61" x="154.492188"/>
      <use xlink:href="#DejaVuSans-6c" x="215.771484"/>
      <use xlink:href="#DejaVuSans-20" x="243.554688"/>
      <use xlink:href="#DejaVuSans-66" x="275.341797"/>
      <use xlink:href="#DejaVuSans-69" x="310.546875"/>
      <use xlink:href="#DejaVuSans-74" x="338.330078"/>
     </g>
    </g>
    <g id="line2d_32">
     <path d="M 53.474375 53.134063 
L 63.474375 53.134063 
L 73.474375 53.134063 
" style="fill: none; stroke: #ff0000; stroke-width: 1.5; stroke-linecap: square"/>
    </g>
    <g id="text_19">
     <!-- Best fit -->
     <g transform="translate(81.474375 56.634063) scale(0.1 -0.1)">
      <use xlink:href="#DejaVuSans-42"/>
      <use xlink:href="#DejaVuSans-65" x="68.603516"/>
      <use xlink:href="#DejaVuSans-73" x="130.126953"/>
      <use xlink:href="#DejaVuSans-74" x="182.226562"/>
      <use xlink:href="#DejaVuSans-20" x="221.435547"/>
      <use xlink:href="#DejaVuSans-66" x="253.222656"/>
      <use xlink:href="#DejaVuSans-69" x="288.427734"/>
      <use xlink:href="#DejaVuSans-74" x="316.210938"/>
     </g>
    </g>
   </g>
  </g>
 </g>
 <defs>
  <clipPath id="p625c7d89ed">
   <rect x="44.474375" y="25.3575" width="446.4" height="166.32"/>
  </clipPath>
 </defs>
</svg>
