<?xml version="1.0" encoding="utf-8" standalone="no"?>
<!DOCTYPE svg PUBLIC "-//W3C//DTD SVG 1.1//EN"
  "http://www.w3.org/Graphics/SVG/1.1/DTD/svg11.dtd">
<!-- Created with matplotlib (https://matplotlib.org/) -->
<svg height="233.105pt" version="1.1" viewBox="0 0 498.074375 233.105" width="498.074375pt" xmlns="http://www.w3.org/2000/svg" xmlns:xlink="http://www.w3.org/1999/xlink">
 <defs>
  <style type="text/css">
*{stroke-linecap:butt;stroke-linejoin:round;}
  </style>
 </defs>
 <g id="figure_1">
  <g id="patch_1">
   <path d="M 0 233.105 
L 498.074375 233.105 
L 498.074375 0 
L 0 0 
z
" style="fill:none;"/>
  </g>
  <g id="axes_1">
   <g id="patch_2">
    <path d="M 44.474375 191.6775 
L 490.874375 191.6775 
L 490.874375 25.3575 
L 44.474375 25.3575 
z
" style="fill:none;"/>
   </g>
   <g id="PathCollection_1">
    <defs>
     <path d="M 0 3 
C 0.795609 3 1.55874 2.683901 2.12132 2.12132 
C 2.683901 1.55874 3 0.795609 3 0 
C 3 -0.795609 2.683901 -1.55874 2.12132 -2.12132 
C 1.55874 -2.683901 0.795609 -3 0 -3 
C -0.795609 -3 -1.55874 -2.683901 -2.12132 -2.12132 
C -2.683901 -1.55874 -3 -0.795609 -3 0 
C -3 0.795609 -2.683901 1.55874 -2.12132 2.12132 
C -1.55874 2.683901 -0.795609 3 0 3 
z
" id="mccd87c0ed2" style="stroke:#1f77b4;"/>
    </defs>
    <g clip-path="url(#pd28eec016b)">
     <use style="fill:#1f77b4;stroke:#1f77b4;" x="221.590257" xlink:href="#mccd87c0ed2" y="127.682822"/>
     <use style="fill:#1f77b4;stroke:#1f77b4;" x="215.796885" xlink:href="#mccd87c0ed2" y="127.60168"/>
     <use style="fill:#1f77b4;stroke:#1f77b4;" x="215.572612" xlink:href="#mccd87c0ed2" y="127.682822"/>
     <use style="fill:#1f77b4;stroke:#1f77b4;" x="337.043365" xlink:href="#mccd87c0ed2" y="75.913844"/>
     <use style="fill:#1f77b4;stroke:#1f77b4;" x="294.378201" xlink:href="#mccd87c0ed2" y="89.870371"/>
     <use style="fill:#1f77b4;stroke:#1f77b4;" x="219.206931" xlink:href="#mccd87c0ed2" y="127.317681"/>
     <use style="fill:#1f77b4;stroke:#1f77b4;" x="217.416478" xlink:href="#mccd87c0ed2" y="127.642251"/>
     <use style="fill:#1f77b4;stroke:#1f77b4;" x="201.051438" xlink:href="#mccd87c0ed2" y="131.009669"/>
     <use style="fill:#1f77b4;stroke:#1f77b4;" x="334.827951" xlink:href="#mccd87c0ed2" y="92.548077"/>
     <use style="fill:#1f77b4;stroke:#1f77b4;" x="240.217679" xlink:href="#mccd87c0ed2" y="119.365706"/>
     <use style="fill:#1f77b4;stroke:#1f77b4;" x="198.8868" xlink:href="#mccd87c0ed2" y="135.634797"/>
     <use style="fill:#1f77b4;stroke:#1f77b4;" x="367.119562" xlink:href="#mccd87c0ed2" y="58.91447"/>
     <use style="fill:#1f77b4;stroke:#1f77b4;" x="294.739456" xlink:href="#mccd87c0ed2" y="100.297195"/>
     <use style="fill:#1f77b4;stroke:#1f77b4;" x="367.434031" xlink:href="#mccd87c0ed2" y="75.913844"/>
     <use style="fill:#1f77b4;stroke:#1f77b4;" x="241.507385" xlink:href="#mccd87c0ed2" y="116.728571"/>
     <use style="fill:#1f77b4;stroke:#1f77b4;" x="158.324607" xlink:href="#mccd87c0ed2" y="151.417033"/>
     <use style="fill:#1f77b4;stroke:#1f77b4;" x="401.429254" xlink:href="#mccd87c0ed2" y="62.03846"/>
     <use style="fill:#1f77b4;stroke:#1f77b4;" x="189.305583" xlink:href="#mccd87c0ed2" y="138.515359"/>
     <use style="fill:#1f77b4;stroke:#1f77b4;" x="319.249642" xlink:href="#mccd87c0ed2" y="89.586372"/>
     <use style="fill:#1f77b4;stroke:#1f77b4;" x="222.900988" xlink:href="#mccd87c0ed2" y="127.317681"/>
     <use style="fill:#1f77b4;stroke:#1f77b4;" x="295.09786" xlink:href="#mccd87c0ed2" y="100.297195"/>
     <use style="fill:#1f77b4;stroke:#1f77b4;" x="375.483867" xlink:href="#mccd87c0ed2" y="68.408154"/>
     <use style="fill:#1f77b4;stroke:#1f77b4;" x="348.189496" xlink:href="#mccd87c0ed2" y="71.735"/>
     <use style="fill:#1f77b4;stroke:#1f77b4;" x="154.594431" xlink:href="#mccd87c0ed2" y="150.889606"/>
     <use style="fill:#1f77b4;stroke:#1f77b4;" x="206.999558" xlink:href="#mccd87c0ed2" y="127.317681"/>
     <use style="fill:#1f77b4;stroke:#1f77b4;" x="253.634587" xlink:href="#mccd87c0ed2" y="112.996012"/>
     <use style="fill:#1f77b4;stroke:#1f77b4;" x="181.901978" xlink:href="#mccd87c0ed2" y="139.651356"/>
     <use style="fill:#1f77b4;stroke:#1f77b4;" x="238.115694" xlink:href="#mccd87c0ed2" y="119.365706"/>
     <use style="fill:#1f77b4;stroke:#1f77b4;" x="267.230194" xlink:href="#mccd87c0ed2" y="110.561734"/>
     <use style="fill:#1f77b4;stroke:#1f77b4;" x="263.781477" xlink:href="#mccd87c0ed2" y="110.561734"/>
     <use style="fill:#1f77b4;stroke:#1f77b4;" x="262.673609" xlink:href="#mccd87c0ed2" y="110.561734"/>
     <use style="fill:#1f77b4;stroke:#1f77b4;" x="349.469222" xlink:href="#mccd87c0ed2" y="68.408154"/>
     <use style="fill:#1f77b4;stroke:#1f77b4;" x="379.975632" xlink:href="#mccd87c0ed2" y="48.00079"/>
     <use style="fill:#1f77b4;stroke:#1f77b4;" x="325.619001" xlink:href="#mccd87c0ed2" y="92.548077"/>
     <use style="fill:#1f77b4;stroke:#1f77b4;" x="187.148342" xlink:href="#mccd87c0ed2" y="139.570213"/>
     <use style="fill:#1f77b4;stroke:#1f77b4;" x="361.039563" xlink:href="#mccd87c0ed2" y="71.735"/>
     <use style="fill:#1f77b4;stroke:#1f77b4;" x="289.813855" xlink:href="#mccd87c0ed2" y="100.297195"/>
     <use style="fill:#1f77b4;stroke:#1f77b4;" x="206.496002" xlink:href="#mccd87c0ed2" y="127.682822"/>
     <use style="fill:#1f77b4;stroke:#1f77b4;" x="154.742478" xlink:href="#mccd87c0ed2" y="150.889606"/>
     <use style="fill:#1f77b4;stroke:#1f77b4;" x="383.238575" xlink:href="#mccd87c0ed2" y="63.012171"/>
     <use style="fill:#1f77b4;stroke:#1f77b4;" x="388.153499" xlink:href="#mccd87c0ed2" y="68.408154"/>
     <use style="fill:#1f77b4;stroke:#1f77b4;" x="322.610554" xlink:href="#mccd87c0ed2" y="88.328662"/>
     <use style="fill:#1f77b4;stroke:#1f77b4;" x="302.195584" xlink:href="#mccd87c0ed2" y="96.889206"/>
     <use style="fill:#1f77b4;stroke:#1f77b4;" x="263.57053" xlink:href="#mccd87c0ed2" y="110.561734"/>
     <use style="fill:#1f77b4;stroke:#1f77b4;" x="168.596515" xlink:href="#mccd87c0ed2" y="145.696479"/>
     <use style="fill:#1f77b4;stroke:#1f77b4;" x="358.17139" xlink:href="#mccd87c0ed2" y="68.408154"/>
     <use style="fill:#1f77b4;stroke:#1f77b4;" x="344.859183" xlink:href="#mccd87c0ed2" y="92.548077"/>
     <use style="fill:#1f77b4;stroke:#1f77b4;" x="149.493734" xlink:href="#mccd87c0ed2" y="150.889606"/>
     <use style="fill:#1f77b4;stroke:#1f77b4;" x="373.000085" xlink:href="#mccd87c0ed2" y="63.012171"/>
     <use style="fill:#1f77b4;stroke:#1f77b4;" x="179.224607" xlink:href="#mccd87c0ed2" y="143.140487"/>
     <use style="fill:#1f77b4;stroke:#1f77b4;" x="223.27171" xlink:href="#mccd87c0ed2" y="123.057694"/>
     <use style="fill:#1f77b4;stroke:#1f77b4;" x="180.45612" xlink:href="#mccd87c0ed2" y="139.570213"/>
     <use style="fill:#1f77b4;stroke:#1f77b4;" x="366.205445" xlink:href="#mccd87c0ed2" y="55.993336"/>
     <use style="fill:#1f77b4;stroke:#1f77b4;" x="235.992974" xlink:href="#mccd87c0ed2" y="117.29657"/>
     <use style="fill:#1f77b4;stroke:#1f77b4;" x="461.700309" xlink:href="#mccd87c0ed2" y="48.00079"/>
     <use style="fill:#1f77b4;stroke:#1f77b4;" x="215.325321" xlink:href="#mccd87c0ed2" y="124.761689"/>
     <use style="fill:#1f77b4;stroke:#1f77b4;" x="153.579955" xlink:href="#mccd87c0ed2" y="150.889606"/>
     <use style="fill:#1f77b4;stroke:#1f77b4;" x="361.123594" xlink:href="#mccd87c0ed2" y="73.804137"/>
     <use style="fill:#1f77b4;stroke:#1f77b4;" x="360.072484" xlink:href="#mccd87c0ed2" y="63.012171"/>
     <use style="fill:#1f77b4;stroke:#1f77b4;" x="154.560124" xlink:href="#mccd87c0ed2" y="151.417033"/>
     <use style="fill:#1f77b4;stroke:#1f77b4;" x="372.016517" xlink:href="#mccd87c0ed2" y="71.735"/>
     <use style="fill:#1f77b4;stroke:#1f77b4;" x="154.170227" xlink:href="#mccd87c0ed2" y="150.889606"/>
     <use style="fill:#1f77b4;stroke:#1f77b4;" x="386.594019" xlink:href="#mccd87c0ed2" y="57.37276"/>
     <use style="fill:#1f77b4;stroke:#1f77b4;" x="183.653107" xlink:href="#mccd87c0ed2" y="138.515359"/>
     <use style="fill:#1f77b4;stroke:#1f77b4;" x="416.8942" xlink:href="#mccd87c0ed2" y="51.408779"/>
     <use style="fill:#1f77b4;stroke:#1f77b4;" x="215.581778" xlink:href="#mccd87c0ed2" y="122.408553"/>
     <use style="fill:#1f77b4;stroke:#1f77b4;" x="428.881588" xlink:href="#mccd87c0ed2" y="48.00079"/>
     <use style="fill:#1f77b4;stroke:#1f77b4;" x="417.23873" xlink:href="#mccd87c0ed2" y="58.91447"/>
     <use style="fill:#1f77b4;stroke:#1f77b4;" x="452.519426" xlink:href="#mccd87c0ed2" y="48.00079"/>
     <use style="fill:#1f77b4;stroke:#1f77b4;" x="235.792234" xlink:href="#mccd87c0ed2" y="117.29657"/>
     <use style="fill:#1f77b4;stroke:#1f77b4;" x="263.501101" xlink:href="#mccd87c0ed2" y="106.423461"/>
     <use style="fill:#1f77b4;stroke:#1f77b4;" x="247.021882" xlink:href="#mccd87c0ed2" y="112.996012"/>
     <use style="fill:#1f77b4;stroke:#1f77b4;" x="303.603511" xlink:href="#mccd87c0ed2" y="88.328662"/>
     <use style="fill:#1f77b4;stroke:#1f77b4;" x="290.138251" xlink:href="#mccd87c0ed2" y="89.870371"/>
     <use style="fill:#1f77b4;stroke:#1f77b4;" x="336.714272" xlink:href="#mccd87c0ed2" y="85.569813"/>
     <use style="fill:#1f77b4;stroke:#1f77b4;" x="254.594676" xlink:href="#mccd87c0ed2" y="106.707461"/>
     <use style="fill:#1f77b4;stroke:#1f77b4;" x="291.603965" xlink:href="#mccd87c0ed2" y="98.390344"/>
     <use style="fill:#1f77b4;stroke:#1f77b4;" x="218.360378" xlink:href="#mccd87c0ed2" y="127.642251"/>
     <use style="fill:#1f77b4;stroke:#1f77b4;" x="178.662042" xlink:href="#mccd87c0ed2" y="143.140487"/>
     <use style="fill:#1f77b4;stroke:#1f77b4;" x="354.944105" xlink:href="#mccd87c0ed2" y="92.548077"/>
     <use style="fill:#1f77b4;stroke:#1f77b4;" x="186.612945" xlink:href="#mccd87c0ed2" y="138.515359"/>
     <use style="fill:#1f77b4;stroke:#1f77b4;" x="187.660625" xlink:href="#mccd87c0ed2" y="139.651356"/>
     <use style="fill:#1f77b4;stroke:#1f77b4;" x="282.764933" xlink:href="#mccd87c0ed2" y="110.561734"/>
     <use style="fill:#1f77b4;stroke:#1f77b4;" x="217.45933" xlink:href="#mccd87c0ed2" y="127.642251"/>
     <use style="fill:#1f77b4;stroke:#1f77b4;" x="394.040198" xlink:href="#mccd87c0ed2" y="58.91447"/>
     <use style="fill:#1f77b4;stroke:#1f77b4;" x="358.067267" xlink:href="#mccd87c0ed2" y="76.806413"/>
     <use style="fill:#1f77b4;stroke:#1f77b4;" x="212.468115" xlink:href="#mccd87c0ed2" y="127.682822"/>
     <use style="fill:#1f77b4;stroke:#1f77b4;" x="270.266494" xlink:href="#mccd87c0ed2" y="108.736025"/>
     <use style="fill:#1f77b4;stroke:#1f77b4;" x="188.83641" xlink:href="#mccd87c0ed2" y="138.515359"/>
     <use style="fill:#1f77b4;stroke:#1f77b4;" x="230.379126" xlink:href="#mccd87c0ed2" y="122.408553"/>
     <use style="fill:#1f77b4;stroke:#1f77b4;" x="196.551879" xlink:href="#mccd87c0ed2" y="135.634797"/>
     <use style="fill:#1f77b4;stroke:#1f77b4;" x="399.735097" xlink:href="#mccd87c0ed2" y="68.408154"/>
     <use style="fill:#1f77b4;stroke:#1f77b4;" x="265.044649" xlink:href="#mccd87c0ed2" y="110.561734"/>
     <use style="fill:#1f77b4;stroke:#1f77b4;" x="215.261188" xlink:href="#mccd87c0ed2" y="124.761689"/>
     <use style="fill:#1f77b4;stroke:#1f77b4;" x="148.813651" xlink:href="#mccd87c0ed2" y="150.889606"/>
     <use style="fill:#1f77b4;stroke:#1f77b4;" x="350.080663" xlink:href="#mccd87c0ed2" y="73.804137"/>
     <use style="fill:#1f77b4;stroke:#1f77b4;" x="383.277385" xlink:href="#mccd87c0ed2" y="75.913844"/>
     <use style="fill:#1f77b4;stroke:#1f77b4;" x="373.60891" xlink:href="#mccd87c0ed2" y="73.804137"/>
     <use style="fill:#1f77b4;stroke:#1f77b4;" x="341.227179" xlink:href="#mccd87c0ed2" y="88.328662"/>
     <use style="fill:#1f77b4;stroke:#1f77b4;" x="257.953229" xlink:href="#mccd87c0ed2" y="106.707461"/>
     <use style="fill:#1f77b4;stroke:#1f77b4;" x="254.557946" xlink:href="#mccd87c0ed2" y="104.597753"/>
     <use style="fill:#1f77b4;stroke:#1f77b4;" x="268.628022" xlink:href="#mccd87c0ed2" y="106.423461"/>
     <use style="fill:#1f77b4;stroke:#1f77b4;" x="156.695869" xlink:href="#mccd87c0ed2" y="151.417033"/>
     <use style="fill:#1f77b4;stroke:#1f77b4;" x="382.80491" xlink:href="#mccd87c0ed2" y="76.806413"/>
     <use style="fill:#1f77b4;stroke:#1f77b4;" x="327.502084" xlink:href="#mccd87c0ed2" y="92.548077"/>
     <use style="fill:#1f77b4;stroke:#1f77b4;" x="257.656085" xlink:href="#mccd87c0ed2" y="106.707461"/>
     <use style="fill:#1f77b4;stroke:#1f77b4;" x="385.478668" xlink:href="#mccd87c0ed2" y="44.55223"/>
     <use style="fill:#1f77b4;stroke:#1f77b4;" x="229.109832" xlink:href="#mccd87c0ed2" y="123.057694"/>
     <use style="fill:#1f77b4;stroke:#1f77b4;" x="187.286836" xlink:href="#mccd87c0ed2" y="135.634797"/>
     <use style="fill:#1f77b4;stroke:#1f77b4;" x="176.845312" xlink:href="#mccd87c0ed2" y="139.651356"/>
     <use style="fill:#1f77b4;stroke:#1f77b4;" x="211.741884" xlink:href="#mccd87c0ed2" y="127.60168"/>
     <use style="fill:#1f77b4;stroke:#1f77b4;" x="344.258891" xlink:href="#mccd87c0ed2" y="79.605832"/>
     <use style="fill:#1f77b4;stroke:#1f77b4;" x="358.044238" xlink:href="#mccd87c0ed2" y="76.806413"/>
     <use style="fill:#1f77b4;stroke:#1f77b4;" x="274.792181" xlink:href="#mccd87c0ed2" y="101.798333"/>
     <use style="fill:#1f77b4;stroke:#1f77b4;" x="234.224338" xlink:href="#mccd87c0ed2" y="119.365706"/>
     <use style="fill:#1f77b4;stroke:#1f77b4;" x="176.992618" xlink:href="#mccd87c0ed2" y="143.140487"/>
     <use style="fill:#1f77b4;stroke:#1f77b4;" x="414.719505" xlink:href="#mccd87c0ed2" y="62.03846"/>
     <use style="fill:#1f77b4;stroke:#1f77b4;" x="406.088546" xlink:href="#mccd87c0ed2" y="55.993336"/>
     <use style="fill:#1f77b4;stroke:#1f77b4;" x="208.879242" xlink:href="#mccd87c0ed2" y="127.682822"/>
     <use style="fill:#1f77b4;stroke:#1f77b4;" x="361.554279" xlink:href="#mccd87c0ed2" y="62.03846"/>
     <use style="fill:#1f77b4;stroke:#1f77b4;" x="191.515379" xlink:href="#mccd87c0ed2" y="138.515359"/>
     <use style="fill:#1f77b4;stroke:#1f77b4;" x="176.345187" xlink:href="#mccd87c0ed2" y="135.634797"/>
     <use style="fill:#1f77b4;stroke:#1f77b4;" x="349.622125" xlink:href="#mccd87c0ed2" y="73.520137"/>
     <use style="fill:#1f77b4;stroke:#1f77b4;" x="188.189321" xlink:href="#mccd87c0ed2" y="135.634797"/>
     <use style="fill:#1f77b4;stroke:#1f77b4;" x="271.267666" xlink:href="#mccd87c0ed2" y="106.423461"/>
     <use style="fill:#1f77b4;stroke:#1f77b4;" x="173.141949" xlink:href="#mccd87c0ed2" y="143.140487"/>
     <use style="fill:#1f77b4;stroke:#1f77b4;" x="377.225454" xlink:href="#mccd87c0ed2" y="73.804137"/>
     <use style="fill:#1f77b4;stroke:#1f77b4;" x="156.279797" xlink:href="#mccd87c0ed2" y="151.417033"/>
     <use style="fill:#1f77b4;stroke:#1f77b4;" x="267.920542" xlink:href="#mccd87c0ed2" y="106.707461"/>
     <use style="fill:#1f77b4;stroke:#1f77b4;" x="267.623183" xlink:href="#mccd87c0ed2" y="110.561734"/>
     <use style="fill:#1f77b4;stroke:#1f77b4;" x="342.671365" xlink:href="#mccd87c0ed2" y="68.408154"/>
     <use style="fill:#1f77b4;stroke:#1f77b4;" x="348.650329" xlink:href="#mccd87c0ed2" y="80.944685"/>
     <use style="fill:#1f77b4;stroke:#1f77b4;" x="258.532293" xlink:href="#mccd87c0ed2" y="106.423461"/>
     <use style="fill:#1f77b4;stroke:#1f77b4;" x="210.340378" xlink:href="#mccd87c0ed2" y="127.642251"/>
     <use style="fill:#1f77b4;stroke:#1f77b4;" x="185.494528" xlink:href="#mccd87c0ed2" y="135.634797"/>
     <use style="fill:#1f77b4;stroke:#1f77b4;" x="337.757921" xlink:href="#mccd87c0ed2" y="76.806413"/>
     <use style="fill:#1f77b4;stroke:#1f77b4;" x="360.189793" xlink:href="#mccd87c0ed2" y="79.605832"/>
     <use style="fill:#1f77b4;stroke:#1f77b4;" x="182.133863" xlink:href="#mccd87c0ed2" y="139.570213"/>
     <use style="fill:#1f77b4;stroke:#1f77b4;" x="180.295476" xlink:href="#mccd87c0ed2" y="139.570213"/>
     <use style="fill:#1f77b4;stroke:#1f77b4;" x="386.296232" xlink:href="#mccd87c0ed2" y="51.408779"/>
     <use style="fill:#1f77b4;stroke:#1f77b4;" x="340.430564" xlink:href="#mccd87c0ed2" y="85.569813"/>
     <use style="fill:#1f77b4;stroke:#1f77b4;" x="222.997884" xlink:href="#mccd87c0ed2" y="127.642251"/>
     <use style="fill:#1f77b4;stroke:#1f77b4;" x="226.473168" xlink:href="#mccd87c0ed2" y="127.317681"/>
     <use style="fill:#1f77b4;stroke:#1f77b4;" x="238.265756" xlink:href="#mccd87c0ed2" y="117.29657"/>
     <use style="fill:#1f77b4;stroke:#1f77b4;" x="268.409635" xlink:href="#mccd87c0ed2" y="104.597753"/>
     <use style="fill:#1f77b4;stroke:#1f77b4;" x="328.061336" xlink:href="#mccd87c0ed2" y="89.586372"/>
     <use style="fill:#1f77b4;stroke:#1f77b4;" x="187.316426" xlink:href="#mccd87c0ed2" y="139.570213"/>
     <use style="fill:#1f77b4;stroke:#1f77b4;" x="345.298787" xlink:href="#mccd87c0ed2" y="68.408154"/>
     <use style="fill:#1f77b4;stroke:#1f77b4;" x="264.412152" xlink:href="#mccd87c0ed2" y="106.707461"/>
     <use style="fill:#1f77b4;stroke:#1f77b4;" x="154.609462" xlink:href="#mccd87c0ed2" y="150.889606"/>
     <use style="fill:#1f77b4;stroke:#1f77b4;" x="344.332738" xlink:href="#mccd87c0ed2" y="73.520137"/>
     <use style="fill:#1f77b4;stroke:#1f77b4;" x="201.670867" xlink:href="#mccd87c0ed2" y="131.009669"/>
     <use style="fill:#1f77b4;stroke:#1f77b4;" x="346.44971" xlink:href="#mccd87c0ed2" y="48.00079"/>
     <use style="fill:#1f77b4;stroke:#1f77b4;" x="412.591382" xlink:href="#mccd87c0ed2" y="55.993336"/>
     <use style="fill:#1f77b4;stroke:#1f77b4;" x="172.551918" xlink:href="#mccd87c0ed2" y="145.696479"/>
     <use style="fill:#1f77b4;stroke:#1f77b4;" x="171.657967" xlink:href="#mccd87c0ed2" y="143.140487"/>
     <use style="fill:#1f77b4;stroke:#1f77b4;" x="312.494476" xlink:href="#mccd87c0ed2" y="89.586372"/>
     <use style="fill:#1f77b4;stroke:#1f77b4;" x="235.539711" xlink:href="#mccd87c0ed2" y="119.365706"/>
     <use style="fill:#1f77b4;stroke:#1f77b4;" x="182.498785" xlink:href="#mccd87c0ed2" y="139.651356"/>
     <use style="fill:#1f77b4;stroke:#1f77b4;" x="341.830322" xlink:href="#mccd87c0ed2" y="85.569813"/>
     <use style="fill:#1f77b4;stroke:#1f77b4;" x="191.235571" xlink:href="#mccd87c0ed2" y="135.634797"/>
     <use style="fill:#1f77b4;stroke:#1f77b4;" x="218.590526" xlink:href="#mccd87c0ed2" y="127.60168"/>
     <use style="fill:#1f77b4;stroke:#1f77b4;" x="301.83302" xlink:href="#mccd87c0ed2" y="89.870371"/>
     <use style="fill:#1f77b4;stroke:#1f77b4;" x="163.588822" xlink:href="#mccd87c0ed2" y="145.696479"/>
     <use style="fill:#1f77b4;stroke:#1f77b4;" x="205.669047" xlink:href="#mccd87c0ed2" y="127.682822"/>
     <use style="fill:#1f77b4;stroke:#1f77b4;" x="353.911477" xlink:href="#mccd87c0ed2" y="68.408154"/>
     <use style="fill:#1f77b4;stroke:#1f77b4;" x="152.660959" xlink:href="#mccd87c0ed2" y="150.889606"/>
     <use style="fill:#1f77b4;stroke:#1f77b4;" x="187.552042" xlink:href="#mccd87c0ed2" y="139.570213"/>
     <use style="fill:#1f77b4;stroke:#1f77b4;" x="269.436944" xlink:href="#mccd87c0ed2" y="106.423461"/>
     <use style="fill:#1f77b4;stroke:#1f77b4;" x="188.066512" xlink:href="#mccd87c0ed2" y="139.570213"/>
     <use style="fill:#1f77b4;stroke:#1f77b4;" x="157.684058" xlink:href="#mccd87c0ed2" y="151.417033"/>
     <use style="fill:#1f77b4;stroke:#1f77b4;" x="256.774646" xlink:href="#mccd87c0ed2" y="108.736025"/>
     <use style="fill:#1f77b4;stroke:#1f77b4;" x="187.441927" xlink:href="#mccd87c0ed2" y="135.634797"/>
     <use style="fill:#1f77b4;stroke:#1f77b4;" x="341.872778" xlink:href="#mccd87c0ed2" y="85.934955"/>
     <use style="fill:#1f77b4;stroke:#1f77b4;" x="182.295536" xlink:href="#mccd87c0ed2" y="138.515359"/>
     <use style="fill:#1f77b4;stroke:#1f77b4;" x="284.5092" xlink:href="#mccd87c0ed2" y="96.889206"/>
     <use style="fill:#1f77b4;stroke:#1f77b4;" x="366.654505" xlink:href="#mccd87c0ed2" y="73.804137"/>
     <use style="fill:#1f77b4;stroke:#1f77b4;" x="156.312186" xlink:href="#mccd87c0ed2" y="151.417033"/>
     <use style="fill:#1f77b4;stroke:#1f77b4;" x="287.614244" xlink:href="#mccd87c0ed2" y="98.390344"/>
     <use style="fill:#1f77b4;stroke:#1f77b4;" x="312.605525" xlink:href="#mccd87c0ed2" y="79.605832"/>
     <use style="fill:#1f77b4;stroke:#1f77b4;" x="223.062361" xlink:href="#mccd87c0ed2" y="122.408553"/>
     <use style="fill:#1f77b4;stroke:#1f77b4;" x="380.068648" xlink:href="#mccd87c0ed2" y="73.804137"/>
     <use style="fill:#1f77b4;stroke:#1f77b4;" x="329.021103" xlink:href="#mccd87c0ed2" y="68.408154"/>
     <use style="fill:#1f77b4;stroke:#1f77b4;" x="226.680748" xlink:href="#mccd87c0ed2" y="119.365706"/>
     <use style="fill:#1f77b4;stroke:#1f77b4;" x="268.980465" xlink:href="#mccd87c0ed2" y="106.423461"/>
     <use style="fill:#1f77b4;stroke:#1f77b4;" x="237.51968" xlink:href="#mccd87c0ed2" y="117.29657"/>
     <use style="fill:#1f77b4;stroke:#1f77b4;" x="343.006804" xlink:href="#mccd87c0ed2" y="76.806413"/>
     <use style="fill:#1f77b4;stroke:#1f77b4;" x="406.861725" xlink:href="#mccd87c0ed2" y="58.91447"/>
     <use style="fill:#1f77b4;stroke:#1f77b4;" x="215.54151" xlink:href="#mccd87c0ed2" y="127.60168"/>
     <use style="fill:#1f77b4;stroke:#1f77b4;" x="373.610476" xlink:href="#mccd87c0ed2" y="71.735"/>
     <use style="fill:#1f77b4;stroke:#1f77b4;" x="224.13531" xlink:href="#mccd87c0ed2" y="123.057694"/>
     <use style="fill:#1f77b4;stroke:#1f77b4;" x="173.417769" xlink:href="#mccd87c0ed2" y="143.140487"/>
     <use style="fill:#1f77b4;stroke:#1f77b4;" x="219.70711" xlink:href="#mccd87c0ed2" y="123.057694"/>
     <use style="fill:#1f77b4;stroke:#1f77b4;" x="236.017161" xlink:href="#mccd87c0ed2" y="119.365706"/>
     <use style="fill:#1f77b4;stroke:#1f77b4;" x="354.107758" xlink:href="#mccd87c0ed2" y="80.944685"/>
     <use style="fill:#1f77b4;stroke:#1f77b4;" x="396.875908" xlink:href="#mccd87c0ed2" y="62.03846"/>
     <use style="fill:#1f77b4;stroke:#1f77b4;" x="321.607581" xlink:href="#mccd87c0ed2" y="80.944685"/>
     <use style="fill:#1f77b4;stroke:#1f77b4;" x="299.621703" xlink:href="#mccd87c0ed2" y="100.297195"/>
     <use style="fill:#1f77b4;stroke:#1f77b4;" x="152.326764" xlink:href="#mccd87c0ed2" y="150.889606"/>
     <use style="fill:#1f77b4;stroke:#1f77b4;" x="160.323284" xlink:href="#mccd87c0ed2" y="151.417033"/>
     <use style="fill:#1f77b4;stroke:#1f77b4;" x="376.482101" xlink:href="#mccd87c0ed2" y="68.408154"/>
     <use style="fill:#1f77b4;stroke:#1f77b4;" x="167.755054" xlink:href="#mccd87c0ed2" y="145.696479"/>
     <use style="fill:#1f77b4;stroke:#1f77b4;" x="168.711122" xlink:href="#mccd87c0ed2" y="144.560483"/>
     <use style="fill:#1f77b4;stroke:#1f77b4;" x="304.806239" xlink:href="#mccd87c0ed2" y="98.390344"/>
     <use style="fill:#1f77b4;stroke:#1f77b4;" x="261.32484" xlink:href="#mccd87c0ed2" y="101.798333"/>
     <use style="fill:#1f77b4;stroke:#1f77b4;" x="228.027459" xlink:href="#mccd87c0ed2" y="123.057694"/>
     <use style="fill:#1f77b4;stroke:#1f77b4;" x="154.114253" xlink:href="#mccd87c0ed2" y="151.417033"/>
     <use style="fill:#1f77b4;stroke:#1f77b4;" x="220.575512" xlink:href="#mccd87c0ed2" y="124.761689"/>
     <use style="fill:#1f77b4;stroke:#1f77b4;" x="341.416963" xlink:href="#mccd87c0ed2" y="85.569813"/>
     <use style="fill:#1f77b4;stroke:#1f77b4;" x="182.008652" xlink:href="#mccd87c0ed2" y="139.651356"/>
     <use style="fill:#1f77b4;stroke:#1f77b4;" x="156.66911" xlink:href="#mccd87c0ed2" y="151.417033"/>
     <use style="fill:#1f77b4;stroke:#1f77b4;" x="170.667677" xlink:href="#mccd87c0ed2" y="143.140487"/>
     <use style="fill:#1f77b4;stroke:#1f77b4;" x="414.012325" xlink:href="#mccd87c0ed2" y="48.00079"/>
     <use style="fill:#1f77b4;stroke:#1f77b4;" x="191.46395" xlink:href="#mccd87c0ed2" y="139.570213"/>
     <use style="fill:#1f77b4;stroke:#1f77b4;" x="184.140881" xlink:href="#mccd87c0ed2" y="138.515359"/>
     <use style="fill:#1f77b4;stroke:#1f77b4;" x="344.289167" xlink:href="#mccd87c0ed2" y="85.569813"/>
     <use style="fill:#1f77b4;stroke:#1f77b4;" x="361.671246" xlink:href="#mccd87c0ed2" y="73.520137"/>
     <use style="fill:#1f77b4;stroke:#1f77b4;" x="242.158784" xlink:href="#mccd87c0ed2" y="116.728571"/>
     <use style="fill:#1f77b4;stroke:#1f77b4;" x="271.195792" xlink:href="#mccd87c0ed2" y="104.597753"/>
     <use style="fill:#1f77b4;stroke:#1f77b4;" x="154.544889" xlink:href="#mccd87c0ed2" y="151.417033"/>
     <use style="fill:#1f77b4;stroke:#1f77b4;" x="187.042397" xlink:href="#mccd87c0ed2" y="135.634797"/>
     <use style="fill:#1f77b4;stroke:#1f77b4;" x="195.294485" xlink:href="#mccd87c0ed2" y="131.009669"/>
     <use style="fill:#1f77b4;stroke:#1f77b4;" x="337.57041" xlink:href="#mccd87c0ed2" y="85.934955"/>
     <use style="fill:#1f77b4;stroke:#1f77b4;" x="200.572316" xlink:href="#mccd87c0ed2" y="131.009669"/>
     <use style="fill:#1f77b4;stroke:#1f77b4;" x="470.52907" xlink:href="#mccd87c0ed2" y="48.00079"/>
     <use style="fill:#1f77b4;stroke:#1f77b4;" x="154.446117" xlink:href="#mccd87c0ed2" y="151.417033"/>
     <use style="fill:#1f77b4;stroke:#1f77b4;" x="416.27802" xlink:href="#mccd87c0ed2" y="44.55223"/>
     <use style="fill:#1f77b4;stroke:#1f77b4;" x="373.146899" xlink:href="#mccd87c0ed2" y="63.012171"/>
     <use style="fill:#1f77b4;stroke:#1f77b4;" x="345.971767" xlink:href="#mccd87c0ed2" y="73.520137"/>
     <use style="fill:#1f77b4;stroke:#1f77b4;" x="267.769482" xlink:href="#mccd87c0ed2" y="106.707461"/>
     <use style="fill:#1f77b4;stroke:#1f77b4;" x="338.703987" xlink:href="#mccd87c0ed2" y="85.934955"/>
     <use style="fill:#1f77b4;stroke:#1f77b4;" x="322.004108" xlink:href="#mccd87c0ed2" y="89.586372"/>
     <use style="fill:#1f77b4;stroke:#1f77b4;" x="176.310965" xlink:href="#mccd87c0ed2" y="143.140487"/>
     <use style="fill:#1f77b4;stroke:#1f77b4;" x="309.549197" xlink:href="#mccd87c0ed2" y="98.390344"/>
     <use style="fill:#1f77b4;stroke:#1f77b4;" x="169.406531" xlink:href="#mccd87c0ed2" y="144.560483"/>
     <use style="fill:#1f77b4;stroke:#1f77b4;" x="388.686312" xlink:href="#mccd87c0ed2" y="63.012171"/>
     <use style="fill:#1f77b4;stroke:#1f77b4;" x="283.000602" xlink:href="#mccd87c0ed2" y="98.390344"/>
     <use style="fill:#1f77b4;stroke:#1f77b4;" x="347.195443" xlink:href="#mccd87c0ed2" y="79.605832"/>
     <use style="fill:#1f77b4;stroke:#1f77b4;" x="212.58075" xlink:href="#mccd87c0ed2" y="127.60168"/>
     <use style="fill:#1f77b4;stroke:#1f77b4;" x="217.547971" xlink:href="#mccd87c0ed2" y="127.317681"/>
     <use style="fill:#1f77b4;stroke:#1f77b4;" x="254.290971" xlink:href="#mccd87c0ed2" y="106.423461"/>
     <use style="fill:#1f77b4;stroke:#1f77b4;" x="148.72873" xlink:href="#mccd87c0ed2" y="150.889606"/>
     <use style="fill:#1f77b4;stroke:#1f77b4;" x="259.706352" xlink:href="#mccd87c0ed2" y="104.597753"/>
     <use style="fill:#1f77b4;stroke:#1f77b4;" x="173.710035" xlink:href="#mccd87c0ed2" y="144.560483"/>
     <use style="fill:#1f77b4;stroke:#1f77b4;" x="301.892265" xlink:href="#mccd87c0ed2" y="88.328662"/>
     <use style="fill:#1f77b4;stroke:#1f77b4;" x="191.219039" xlink:href="#mccd87c0ed2" y="138.515359"/>
     <use style="fill:#1f77b4;stroke:#1f77b4;" x="364.592681" xlink:href="#mccd87c0ed2" y="76.806413"/>
     <use style="fill:#1f77b4;stroke:#1f77b4;" x="231.923532" xlink:href="#mccd87c0ed2" y="119.365706"/>
     <use style="fill:#1f77b4;stroke:#1f77b4;" x="377.077268" xlink:href="#mccd87c0ed2" y="68.408154"/>
     <use style="fill:#1f77b4;stroke:#1f77b4;" x="208.151446" xlink:href="#mccd87c0ed2" y="127.642251"/>
     <use style="fill:#1f77b4;stroke:#1f77b4;" x="258.326342" xlink:href="#mccd87c0ed2" y="106.423461"/>
     <use style="fill:#1f77b4;stroke:#1f77b4;" x="339.362064" xlink:href="#mccd87c0ed2" y="80.944685"/>
     <use style="fill:#1f77b4;stroke:#1f77b4;" x="392.597555" xlink:href="#mccd87c0ed2" y="68.408154"/>
     <use style="fill:#1f77b4;stroke:#1f77b4;" x="179.374368" xlink:href="#mccd87c0ed2" y="139.651356"/>
     <use style="fill:#1f77b4;stroke:#1f77b4;" x="284.534888" xlink:href="#mccd87c0ed2" y="98.390344"/>
     <use style="fill:#1f77b4;stroke:#1f77b4;" x="172.971335" xlink:href="#mccd87c0ed2" y="144.560483"/>
     <use style="fill:#1f77b4;stroke:#1f77b4;" x="242.407758" xlink:href="#mccd87c0ed2" y="116.728571"/>
     <use style="fill:#1f77b4;stroke:#1f77b4;" x="282.500295" xlink:href="#mccd87c0ed2" y="100.297195"/>
     <use style="fill:#1f77b4;stroke:#1f77b4;" x="279.310898" xlink:href="#mccd87c0ed2" y="110.561734"/>
     <use style="fill:#1f77b4;stroke:#1f77b4;" x="263.229945" xlink:href="#mccd87c0ed2" y="110.561734"/>
     <use style="fill:#1f77b4;stroke:#1f77b4;" x="234.56071" xlink:href="#mccd87c0ed2" y="123.057694"/>
     <use style="fill:#1f77b4;stroke:#1f77b4;" x="218.72693" xlink:href="#mccd87c0ed2" y="127.682822"/>
     <use style="fill:#1f77b4;stroke:#1f77b4;" x="291.319601" xlink:href="#mccd87c0ed2" y="88.328662"/>
     <use style="fill:#1f77b4;stroke:#1f77b4;" x="213.319439" xlink:href="#mccd87c0ed2" y="124.761689"/>
     <use style="fill:#1f77b4;stroke:#1f77b4;" x="373.178869" xlink:href="#mccd87c0ed2" y="76.806413"/>
    </g>
   </g>
   <g id="matplotlib.axis_1">
    <g id="xtick_1">
     <g id="line2d_1">
      <path clip-path="url(#pd28eec016b)" d="M 64.765284 191.6775 
L 64.765284 25.3575 
" style="fill:none;stroke:#b0b0b0;stroke-linecap:square;stroke-width:0.8;"/>
     </g>
     <g id="line2d_2">
      <defs>
       <path d="M 0 0 
L 0 3.5 
" id="m9df1928491" style="stroke:#000000;stroke-width:0.8;"/>
      </defs>
      <g>
       <use style="stroke:#000000;stroke-width:0.8;" x="64.765284" xlink:href="#m9df1928491" y="191.6775"/>
      </g>
     </g>
     <g id="text_1">
      <!-- 0 -->
      <defs>
       <path d="M 31.78125 66.40625 
Q 24.171875 66.40625 20.328125 58.90625 
Q 16.5 51.421875 16.5 36.375 
Q 16.5 21.390625 20.328125 13.890625 
Q 24.171875 6.390625 31.78125 6.390625 
Q 39.453125 6.390625 43.28125 13.890625 
Q 47.125 21.390625 47.125 36.375 
Q 47.125 51.421875 43.28125 58.90625 
Q 39.453125 66.40625 31.78125 66.40625 
z
M 31.78125 74.21875 
Q 44.046875 74.21875 50.515625 64.515625 
Q 56.984375 54.828125 56.984375 36.375 
Q 56.984375 17.96875 50.515625 8.265625 
Q 44.046875 -1.421875 31.78125 -1.421875 
Q 19.53125 -1.421875 13.0625 8.265625 
Q 6.59375 17.96875 6.59375 36.375 
Q 6.59375 54.828125 13.0625 64.515625 
Q 19.53125 74.21875 31.78125 74.21875 
z
" id="DejaVuSans-48"/>
      </defs>
      <g transform="translate(61.584034 206.275938)scale(0.1 -0.1)">
       <use xlink:href="#DejaVuSans-48"/>
      </g>
     </g>
    </g>
    <g id="xtick_2">
     <g id="line2d_3">
      <path clip-path="url(#pd28eec016b)" d="M 120.974315 191.6775 
L 120.974315 25.3575 
" style="fill:none;stroke:#b0b0b0;stroke-linecap:square;stroke-width:0.8;"/>
     </g>
     <g id="line2d_4">
      <g>
       <use style="stroke:#000000;stroke-width:0.8;" x="120.974315" xlink:href="#m9df1928491" y="191.6775"/>
      </g>
     </g>
     <g id="text_2">
      <!-- 5 -->
      <defs>
       <path d="M 10.796875 72.90625 
L 49.515625 72.90625 
L 49.515625 64.59375 
L 19.828125 64.59375 
L 19.828125 46.734375 
Q 21.96875 47.46875 24.109375 47.828125 
Q 26.265625 48.1875 28.421875 48.1875 
Q 40.625 48.1875 47.75 41.5 
Q 54.890625 34.8125 54.890625 23.390625 
Q 54.890625 11.625 47.5625 5.09375 
Q 40.234375 -1.421875 26.90625 -1.421875 
Q 22.3125 -1.421875 17.546875 -0.640625 
Q 12.796875 0.140625 7.71875 1.703125 
L 7.71875 11.625 
Q 12.109375 9.234375 16.796875 8.0625 
Q 21.484375 6.890625 26.703125 6.890625 
Q 35.15625 6.890625 40.078125 11.328125 
Q 45.015625 15.765625 45.015625 23.390625 
Q 45.015625 31 40.078125 35.4375 
Q 35.15625 39.890625 26.703125 39.890625 
Q 22.75 39.890625 18.8125 39.015625 
Q 14.890625 38.140625 10.796875 36.28125 
z
" id="DejaVuSans-53"/>
      </defs>
      <g transform="translate(117.793065 206.275938)scale(0.1 -0.1)">
       <use xlink:href="#DejaVuSans-53"/>
      </g>
     </g>
    </g>
    <g id="xtick_3">
     <g id="line2d_5">
      <path clip-path="url(#pd28eec016b)" d="M 177.183345 191.6775 
L 177.183345 25.3575 
" style="fill:none;stroke:#b0b0b0;stroke-linecap:square;stroke-width:0.8;"/>
     </g>
     <g id="line2d_6">
      <g>
       <use style="stroke:#000000;stroke-width:0.8;" x="177.183345" xlink:href="#m9df1928491" y="191.6775"/>
      </g>
     </g>
     <g id="text_3">
      <!-- 10 -->
      <defs>
       <path d="M 12.40625 8.296875 
L 28.515625 8.296875 
L 28.515625 63.921875 
L 10.984375 60.40625 
L 10.984375 69.390625 
L 28.421875 72.90625 
L 38.28125 72.90625 
L 38.28125 8.296875 
L 54.390625 8.296875 
L 54.390625 0 
L 12.40625 0 
z
" id="DejaVuSans-49"/>
      </defs>
      <g transform="translate(170.820845 206.275938)scale(0.1 -0.1)">
       <use xlink:href="#DejaVuSans-49"/>
       <use x="63.623047" xlink:href="#DejaVuSans-48"/>
      </g>
     </g>
    </g>
    <g id="xtick_4">
     <g id="line2d_7">
      <path clip-path="url(#pd28eec016b)" d="M 233.392376 191.6775 
L 233.392376 25.3575 
" style="fill:none;stroke:#b0b0b0;stroke-linecap:square;stroke-width:0.8;"/>
     </g>
     <g id="line2d_8">
      <g>
       <use style="stroke:#000000;stroke-width:0.8;" x="233.392376" xlink:href="#m9df1928491" y="191.6775"/>
      </g>
     </g>
     <g id="text_4">
      <!-- 15 -->
      <g transform="translate(227.029876 206.275938)scale(0.1 -0.1)">
       <use xlink:href="#DejaVuSans-49"/>
       <use x="63.623047" xlink:href="#DejaVuSans-53"/>
      </g>
     </g>
    </g>
    <g id="xtick_5">
     <g id="line2d_9">
      <path clip-path="url(#pd28eec016b)" d="M 289.601407 191.6775 
L 289.601407 25.3575 
" style="fill:none;stroke:#b0b0b0;stroke-linecap:square;stroke-width:0.8;"/>
     </g>
     <g id="line2d_10">
      <g>
       <use style="stroke:#000000;stroke-width:0.8;" x="289.601407" xlink:href="#m9df1928491" y="191.6775"/>
      </g>
     </g>
     <g id="text_5">
      <!-- 20 -->
      <defs>
       <path d="M 19.1875 8.296875 
L 53.609375 8.296875 
L 53.609375 0 
L 7.328125 0 
L 7.328125 8.296875 
Q 12.9375 14.109375 22.625 23.890625 
Q 32.328125 33.6875 34.8125 36.53125 
Q 39.546875 41.84375 41.421875 45.53125 
Q 43.3125 49.21875 43.3125 52.78125 
Q 43.3125 58.59375 39.234375 62.25 
Q 35.15625 65.921875 28.609375 65.921875 
Q 23.96875 65.921875 18.8125 64.3125 
Q 13.671875 62.703125 7.8125 59.421875 
L 7.8125 69.390625 
Q 13.765625 71.78125 18.9375 73 
Q 24.125 74.21875 28.421875 74.21875 
Q 39.75 74.21875 46.484375 68.546875 
Q 53.21875 62.890625 53.21875 53.421875 
Q 53.21875 48.921875 51.53125 44.890625 
Q 49.859375 40.875 45.40625 35.40625 
Q 44.1875 33.984375 37.640625 27.21875 
Q 31.109375 20.453125 19.1875 8.296875 
z
" id="DejaVuSans-50"/>
      </defs>
      <g transform="translate(283.238907 206.275938)scale(0.1 -0.1)">
       <use xlink:href="#DejaVuSans-50"/>
       <use x="63.623047" xlink:href="#DejaVuSans-48"/>
      </g>
     </g>
    </g>
    <g id="xtick_6">
     <g id="line2d_11">
      <path clip-path="url(#pd28eec016b)" d="M 345.810437 191.6775 
L 345.810437 25.3575 
" style="fill:none;stroke:#b0b0b0;stroke-linecap:square;stroke-width:0.8;"/>
     </g>
     <g id="line2d_12">
      <g>
       <use style="stroke:#000000;stroke-width:0.8;" x="345.810437" xlink:href="#m9df1928491" y="191.6775"/>
      </g>
     </g>
     <g id="text_6">
      <!-- 25 -->
      <g transform="translate(339.447937 206.275938)scale(0.1 -0.1)">
       <use xlink:href="#DejaVuSans-50"/>
       <use x="63.623047" xlink:href="#DejaVuSans-53"/>
      </g>
     </g>
    </g>
    <g id="xtick_7">
     <g id="line2d_13">
      <path clip-path="url(#pd28eec016b)" d="M 402.019468 191.6775 
L 402.019468 25.3575 
" style="fill:none;stroke:#b0b0b0;stroke-linecap:square;stroke-width:0.8;"/>
     </g>
     <g id="line2d_14">
      <g>
       <use style="stroke:#000000;stroke-width:0.8;" x="402.019468" xlink:href="#m9df1928491" y="191.6775"/>
      </g>
     </g>
     <g id="text_7">
      <!-- 30 -->
      <defs>
       <path d="M 40.578125 39.3125 
Q 47.65625 37.796875 51.625 33 
Q 55.609375 28.21875 55.609375 21.1875 
Q 55.609375 10.40625 48.1875 4.484375 
Q 40.765625 -1.421875 27.09375 -1.421875 
Q 22.515625 -1.421875 17.65625 -0.515625 
Q 12.796875 0.390625 7.625 2.203125 
L 7.625 11.71875 
Q 11.71875 9.328125 16.59375 8.109375 
Q 21.484375 6.890625 26.8125 6.890625 
Q 36.078125 6.890625 40.9375 10.546875 
Q 45.796875 14.203125 45.796875 21.1875 
Q 45.796875 27.640625 41.28125 31.265625 
Q 36.765625 34.90625 28.71875 34.90625 
L 20.21875 34.90625 
L 20.21875 43.015625 
L 29.109375 43.015625 
Q 36.375 43.015625 40.234375 45.921875 
Q 44.09375 48.828125 44.09375 54.296875 
Q 44.09375 59.90625 40.109375 62.90625 
Q 36.140625 65.921875 28.71875 65.921875 
Q 24.65625 65.921875 20.015625 65.03125 
Q 15.375 64.15625 9.8125 62.3125 
L 9.8125 71.09375 
Q 15.4375 72.65625 20.34375 73.4375 
Q 25.25 74.21875 29.59375 74.21875 
Q 40.828125 74.21875 47.359375 69.109375 
Q 53.90625 64.015625 53.90625 55.328125 
Q 53.90625 49.265625 50.4375 45.09375 
Q 46.96875 40.921875 40.578125 39.3125 
z
" id="DejaVuSans-51"/>
      </defs>
      <g transform="translate(395.656968 206.275938)scale(0.1 -0.1)">
       <use xlink:href="#DejaVuSans-51"/>
       <use x="63.623047" xlink:href="#DejaVuSans-48"/>
      </g>
     </g>
    </g>
    <g id="xtick_8">
     <g id="line2d_15">
      <path clip-path="url(#pd28eec016b)" d="M 458.228499 191.6775 
L 458.228499 25.3575 
" style="fill:none;stroke:#b0b0b0;stroke-linecap:square;stroke-width:0.8;"/>
     </g>
     <g id="line2d_16">
      <g>
       <use style="stroke:#000000;stroke-width:0.8;" x="458.228499" xlink:href="#m9df1928491" y="191.6775"/>
      </g>
     </g>
     <g id="text_8">
      <!-- 35 -->
      <g transform="translate(451.865999 206.275938)scale(0.1 -0.1)">
       <use xlink:href="#DejaVuSans-51"/>
       <use x="63.623047" xlink:href="#DejaVuSans-53"/>
      </g>
     </g>
    </g>
    <g id="text_9">
     <!-- Predictions -->
     <defs>
      <path d="M 19.671875 64.796875 
L 19.671875 37.40625 
L 32.078125 37.40625 
Q 38.96875 37.40625 42.71875 40.96875 
Q 46.484375 44.53125 46.484375 51.125 
Q 46.484375 57.671875 42.71875 61.234375 
Q 38.96875 64.796875 32.078125 64.796875 
z
M 9.8125 72.90625 
L 32.078125 72.90625 
Q 44.34375 72.90625 50.609375 67.359375 
Q 56.890625 61.8125 56.890625 51.125 
Q 56.890625 40.328125 50.609375 34.8125 
Q 44.34375 29.296875 32.078125 29.296875 
L 19.671875 29.296875 
L 19.671875 0 
L 9.8125 0 
z
" id="DejaVuSans-80"/>
      <path d="M 41.109375 46.296875 
Q 39.59375 47.171875 37.8125 47.578125 
Q 36.03125 48 33.890625 48 
Q 26.265625 48 22.1875 43.046875 
Q 18.109375 38.09375 18.109375 28.8125 
L 18.109375 0 
L 9.078125 0 
L 9.078125 54.6875 
L 18.109375 54.6875 
L 18.109375 46.1875 
Q 20.953125 51.171875 25.484375 53.578125 
Q 30.03125 56 36.53125 56 
Q 37.453125 56 38.578125 55.875 
Q 39.703125 55.765625 41.0625 55.515625 
z
" id="DejaVuSans-114"/>
      <path d="M 56.203125 29.59375 
L 56.203125 25.203125 
L 14.890625 25.203125 
Q 15.484375 15.921875 20.484375 11.0625 
Q 25.484375 6.203125 34.421875 6.203125 
Q 39.59375 6.203125 44.453125 7.46875 
Q 49.3125 8.734375 54.109375 11.28125 
L 54.109375 2.78125 
Q 49.265625 0.734375 44.1875 -0.34375 
Q 39.109375 -1.421875 33.890625 -1.421875 
Q 20.796875 -1.421875 13.15625 6.1875 
Q 5.515625 13.8125 5.515625 26.8125 
Q 5.515625 40.234375 12.765625 48.109375 
Q 20.015625 56 32.328125 56 
Q 43.359375 56 49.78125 48.890625 
Q 56.203125 41.796875 56.203125 29.59375 
z
M 47.21875 32.234375 
Q 47.125 39.59375 43.09375 43.984375 
Q 39.0625 48.390625 32.421875 48.390625 
Q 24.90625 48.390625 20.390625 44.140625 
Q 15.875 39.890625 15.1875 32.171875 
z
" id="DejaVuSans-101"/>
      <path d="M 45.40625 46.390625 
L 45.40625 75.984375 
L 54.390625 75.984375 
L 54.390625 0 
L 45.40625 0 
L 45.40625 8.203125 
Q 42.578125 3.328125 38.25 0.953125 
Q 33.9375 -1.421875 27.875 -1.421875 
Q 17.96875 -1.421875 11.734375 6.484375 
Q 5.515625 14.40625 5.515625 27.296875 
Q 5.515625 40.1875 11.734375 48.09375 
Q 17.96875 56 27.875 56 
Q 33.9375 56 38.25 53.625 
Q 42.578125 51.265625 45.40625 46.390625 
z
M 14.796875 27.296875 
Q 14.796875 17.390625 18.875 11.75 
Q 22.953125 6.109375 30.078125 6.109375 
Q 37.203125 6.109375 41.296875 11.75 
Q 45.40625 17.390625 45.40625 27.296875 
Q 45.40625 37.203125 41.296875 42.84375 
Q 37.203125 48.484375 30.078125 48.484375 
Q 22.953125 48.484375 18.875 42.84375 
Q 14.796875 37.203125 14.796875 27.296875 
z
" id="DejaVuSans-100"/>
      <path d="M 9.421875 54.6875 
L 18.40625 54.6875 
L 18.40625 0 
L 9.421875 0 
z
M 9.421875 75.984375 
L 18.40625 75.984375 
L 18.40625 64.59375 
L 9.421875 64.59375 
z
" id="DejaVuSans-105"/>
      <path d="M 48.78125 52.59375 
L 48.78125 44.1875 
Q 44.96875 46.296875 41.140625 47.34375 
Q 37.3125 48.390625 33.40625 48.390625 
Q 24.65625 48.390625 19.8125 42.84375 
Q 14.984375 37.3125 14.984375 27.296875 
Q 14.984375 17.28125 19.8125 11.734375 
Q 24.65625 6.203125 33.40625 6.203125 
Q 37.3125 6.203125 41.140625 7.25 
Q 44.96875 8.296875 48.78125 10.40625 
L 48.78125 2.09375 
Q 45.015625 0.34375 40.984375 -0.53125 
Q 36.96875 -1.421875 32.421875 -1.421875 
Q 20.0625 -1.421875 12.78125 6.34375 
Q 5.515625 14.109375 5.515625 27.296875 
Q 5.515625 40.671875 12.859375 48.328125 
Q 20.21875 56 33.015625 56 
Q 37.15625 56 41.109375 55.140625 
Q 45.0625 54.296875 48.78125 52.59375 
z
" id="DejaVuSans-99"/>
      <path d="M 18.3125 70.21875 
L 18.3125 54.6875 
L 36.8125 54.6875 
L 36.8125 47.703125 
L 18.3125 47.703125 
L 18.3125 18.015625 
Q 18.3125 11.328125 20.140625 9.421875 
Q 21.96875 7.515625 27.59375 7.515625 
L 36.8125 7.515625 
L 36.8125 0 
L 27.59375 0 
Q 17.1875 0 13.234375 3.875 
Q 9.28125 7.765625 9.28125 18.015625 
L 9.28125 47.703125 
L 2.6875 47.703125 
L 2.6875 54.6875 
L 9.28125 54.6875 
L 9.28125 70.21875 
z
" id="DejaVuSans-116"/>
      <path d="M 30.609375 48.390625 
Q 23.390625 48.390625 19.1875 42.75 
Q 14.984375 37.109375 14.984375 27.296875 
Q 14.984375 17.484375 19.15625 11.84375 
Q 23.34375 6.203125 30.609375 6.203125 
Q 37.796875 6.203125 41.984375 11.859375 
Q 46.1875 17.53125 46.1875 27.296875 
Q 46.1875 37.015625 41.984375 42.703125 
Q 37.796875 48.390625 30.609375 48.390625 
z
M 30.609375 56 
Q 42.328125 56 49.015625 48.375 
Q 55.71875 40.765625 55.71875 27.296875 
Q 55.71875 13.875 49.015625 6.21875 
Q 42.328125 -1.421875 30.609375 -1.421875 
Q 18.84375 -1.421875 12.171875 6.21875 
Q 5.515625 13.875 5.515625 27.296875 
Q 5.515625 40.765625 12.171875 48.375 
Q 18.84375 56 30.609375 56 
z
" id="DejaVuSans-111"/>
      <path d="M 54.890625 33.015625 
L 54.890625 0 
L 45.90625 0 
L 45.90625 32.71875 
Q 45.90625 40.484375 42.875 44.328125 
Q 39.84375 48.1875 33.796875 48.1875 
Q 26.515625 48.1875 22.3125 43.546875 
Q 18.109375 38.921875 18.109375 30.90625 
L 18.109375 0 
L 9.078125 0 
L 9.078125 54.6875 
L 18.109375 54.6875 
L 18.109375 46.1875 
Q 21.34375 51.125 25.703125 53.5625 
Q 30.078125 56 35.796875 56 
Q 45.21875 56 50.046875 50.171875 
Q 54.890625 44.34375 54.890625 33.015625 
z
" id="DejaVuSans-110"/>
      <path d="M 44.28125 53.078125 
L 44.28125 44.578125 
Q 40.484375 46.53125 36.375 47.5 
Q 32.28125 48.484375 27.875 48.484375 
Q 21.1875 48.484375 17.84375 46.4375 
Q 14.5 44.390625 14.5 40.28125 
Q 14.5 37.15625 16.890625 35.375 
Q 19.28125 33.59375 26.515625 31.984375 
L 29.59375 31.296875 
Q 39.15625 29.25 43.1875 25.515625 
Q 47.21875 21.78125 47.21875 15.09375 
Q 47.21875 7.46875 41.1875 3.015625 
Q 35.15625 -1.421875 24.609375 -1.421875 
Q 20.21875 -1.421875 15.453125 -0.5625 
Q 10.6875 0.296875 5.421875 2 
L 5.421875 11.28125 
Q 10.40625 8.6875 15.234375 7.390625 
Q 20.0625 6.109375 24.8125 6.109375 
Q 31.15625 6.109375 34.5625 8.28125 
Q 37.984375 10.453125 37.984375 14.40625 
Q 37.984375 18.0625 35.515625 20.015625 
Q 33.0625 21.96875 24.703125 23.78125 
L 21.578125 24.515625 
Q 13.234375 26.265625 9.515625 29.90625 
Q 5.8125 33.546875 5.8125 39.890625 
Q 5.8125 47.609375 11.28125 51.796875 
Q 16.75 56 26.8125 56 
Q 31.78125 56 36.171875 55.265625 
Q 40.578125 54.546875 44.28125 53.078125 
z
" id="DejaVuSans-115"/>
     </defs>
     <g transform="translate(228.979688 222.993438)scale(0.14 -0.14)">
      <use xlink:href="#DejaVuSans-80"/>
      <use x="60.287109" xlink:href="#DejaVuSans-114"/>
      <use x="101.369141" xlink:href="#DejaVuSans-101"/>
      <use x="162.892578" xlink:href="#DejaVuSans-100"/>
      <use x="226.369141" xlink:href="#DejaVuSans-105"/>
      <use x="254.152344" xlink:href="#DejaVuSans-99"/>
      <use x="309.132812" xlink:href="#DejaVuSans-116"/>
      <use x="348.341797" xlink:href="#DejaVuSans-105"/>
      <use x="376.125" xlink:href="#DejaVuSans-111"/>
      <use x="437.306641" xlink:href="#DejaVuSans-110"/>
      <use x="500.685547" xlink:href="#DejaVuSans-115"/>
     </g>
    </g>
   </g>
   <g id="matplotlib.axis_2">
    <g id="ytick_1">
     <g id="line2d_17">
      <path clip-path="url(#pd28eec016b)" d="M 44.474375 184.1175 
L 490.874375 184.1175 
" style="fill:none;stroke:#b0b0b0;stroke-linecap:square;stroke-width:0.8;"/>
     </g>
     <g id="line2d_18">
      <defs>
       <path d="M 0 0 
L -3.5 0 
" id="mc64f327e9d" style="stroke:#000000;stroke-width:0.8;"/>
      </defs>
      <g>
       <use style="stroke:#000000;stroke-width:0.8;" x="44.474375" xlink:href="#mc64f327e9d" y="184.1175"/>
      </g>
     </g>
     <g id="text_10">
      <!-- 0 -->
      <g transform="translate(31.111875 187.916719)scale(0.1 -0.1)">
       <use xlink:href="#DejaVuSans-48"/>
      </g>
     </g>
    </g>
    <g id="ytick_2">
     <g id="line2d_19">
      <path clip-path="url(#pd28eec016b)" d="M 44.474375 143.5462 
L 490.874375 143.5462 
" style="fill:none;stroke:#b0b0b0;stroke-linecap:square;stroke-width:0.8;"/>
     </g>
     <g id="line2d_20">
      <g>
       <use style="stroke:#000000;stroke-width:0.8;" x="44.474375" xlink:href="#mc64f327e9d" y="143.5462"/>
      </g>
     </g>
     <g id="text_11">
      <!-- 10 -->
      <g transform="translate(24.749375 147.345419)scale(0.1 -0.1)">
       <use xlink:href="#DejaVuSans-49"/>
       <use x="63.623047" xlink:href="#DejaVuSans-48"/>
      </g>
     </g>
    </g>
    <g id="ytick_3">
     <g id="line2d_21">
      <path clip-path="url(#pd28eec016b)" d="M 44.474375 102.974901 
L 490.874375 102.974901 
" style="fill:none;stroke:#b0b0b0;stroke-linecap:square;stroke-width:0.8;"/>
     </g>
     <g id="line2d_22">
      <g>
       <use style="stroke:#000000;stroke-width:0.8;" x="44.474375" xlink:href="#mc64f327e9d" y="102.974901"/>
      </g>
     </g>
     <g id="text_12">
      <!-- 20 -->
      <g transform="translate(24.749375 106.77412)scale(0.1 -0.1)">
       <use xlink:href="#DejaVuSans-50"/>
       <use x="63.623047" xlink:href="#DejaVuSans-48"/>
      </g>
     </g>
    </g>
    <g id="ytick_4">
     <g id="line2d_23">
      <path clip-path="url(#pd28eec016b)" d="M 44.474375 62.403601 
L 490.874375 62.403601 
" style="fill:none;stroke:#b0b0b0;stroke-linecap:square;stroke-width:0.8;"/>
     </g>
     <g id="line2d_24">
      <g>
       <use style="stroke:#000000;stroke-width:0.8;" x="44.474375" xlink:href="#mc64f327e9d" y="62.403601"/>
      </g>
     </g>
     <g id="text_13">
      <!-- 30 -->
      <g transform="translate(24.749375 66.20282)scale(0.1 -0.1)">
       <use xlink:href="#DejaVuSans-51"/>
       <use x="63.623047" xlink:href="#DejaVuSans-48"/>
      </g>
     </g>
    </g>
    <g id="text_14">
     <!-- Real -->
     <defs>
      <path d="M 44.390625 34.1875 
Q 47.5625 33.109375 50.5625 29.59375 
Q 53.5625 26.078125 56.59375 19.921875 
L 66.609375 0 
L 56 0 
L 46.6875 18.703125 
Q 43.0625 26.03125 39.671875 28.421875 
Q 36.28125 30.8125 30.421875 30.8125 
L 19.671875 30.8125 
L 19.671875 0 
L 9.8125 0 
L 9.8125 72.90625 
L 32.078125 72.90625 
Q 44.578125 72.90625 50.734375 67.671875 
Q 56.890625 62.453125 56.890625 51.90625 
Q 56.890625 45.015625 53.6875 40.46875 
Q 50.484375 35.9375 44.390625 34.1875 
z
M 19.671875 64.796875 
L 19.671875 38.921875 
L 32.078125 38.921875 
Q 39.203125 38.921875 42.84375 42.21875 
Q 46.484375 45.515625 46.484375 51.90625 
Q 46.484375 58.296875 42.84375 61.546875 
Q 39.203125 64.796875 32.078125 64.796875 
z
" id="DejaVuSans-82"/>
      <path d="M 34.28125 27.484375 
Q 23.390625 27.484375 19.1875 25 
Q 14.984375 22.515625 14.984375 16.5 
Q 14.984375 11.71875 18.140625 8.90625 
Q 21.296875 6.109375 26.703125 6.109375 
Q 34.1875 6.109375 38.703125 11.40625 
Q 43.21875 16.703125 43.21875 25.484375 
L 43.21875 27.484375 
z
M 52.203125 31.203125 
L 52.203125 0 
L 43.21875 0 
L 43.21875 8.296875 
Q 40.140625 3.328125 35.546875 0.953125 
Q 30.953125 -1.421875 24.3125 -1.421875 
Q 15.921875 -1.421875 10.953125 3.296875 
Q 6 8.015625 6 15.921875 
Q 6 25.140625 12.171875 29.828125 
Q 18.359375 34.515625 30.609375 34.515625 
L 43.21875 34.515625 
L 43.21875 35.40625 
Q 43.21875 41.609375 39.140625 45 
Q 35.0625 48.390625 27.6875 48.390625 
Q 23 48.390625 18.546875 47.265625 
Q 14.109375 46.140625 10.015625 43.890625 
L 10.015625 52.203125 
Q 14.9375 54.109375 19.578125 55.046875 
Q 24.21875 56 28.609375 56 
Q 40.484375 56 46.34375 49.84375 
Q 52.203125 43.703125 52.203125 31.203125 
z
" id="DejaVuSans-97"/>
      <path d="M 9.421875 75.984375 
L 18.40625 75.984375 
L 18.40625 0 
L 9.421875 0 
z
" id="DejaVuSans-108"/>
     </defs>
     <g transform="translate(17.837813 123.918594)rotate(-90)scale(0.14 -0.14)">
      <use xlink:href="#DejaVuSans-82"/>
      <use x="69.419922" xlink:href="#DejaVuSans-101"/>
      <use x="130.943359" xlink:href="#DejaVuSans-97"/>
      <use x="192.222656" xlink:href="#DejaVuSans-108"/>
     </g>
    </g>
   </g>
   <g id="line2d_25">
    <path clip-path="url(#pd28eec016b)" d="M 64.765284 184.1175 
L 76.00709 180.06037 
L 470.52907 37.678717 
" style="fill:none;stroke:#1f77b4;stroke-linecap:square;stroke-width:1.5;"/>
   </g>
   <g id="line2d_26">
    <path clip-path="url(#pd28eec016b)" d="M 64.765284 182.559561 
L 76.00709 178.402837 
L 87.248896 174.246113 
L 98.490702 170.08939 
L 109.732509 165.932666 
L 120.974315 161.775942 
L 132.216121 157.619218 
L 143.457927 153.462494 
L 154.699733 149.30577 
L 165.941539 145.149046 
L 177.183345 140.992322 
L 188.425152 136.835598 
L 199.666958 132.678874 
L 210.908764 128.52215 
L 222.15057 124.365426 
L 233.392376 120.208702 
L 244.634182 116.051978 
L 255.875988 111.895255 
L 267.117794 107.738531 
L 278.359601 103.581807 
L 289.601407 99.425083 
L 300.843213 95.268359 
L 312.085019 91.111635 
L 323.326825 86.954911 
L 334.568631 82.798187 
L 345.810437 78.641463 
L 357.052244 74.484739 
L 368.29405 70.328015 
L 379.535856 66.171291 
L 390.777662 62.014567 
L 402.019468 57.857844 
L 413.261274 53.70112 
L 424.50308 49.544396 
L 435.744886 45.387672 
L 446.986693 41.230948 
L 458.228499 37.074224 
L 469.470305 32.9175 
" style="fill:none;stroke:#ff0000;stroke-linecap:square;stroke-width:1.5;"/>
   </g>
   <g id="patch_3">
    <path d="M 44.474375 191.6775 
L 44.474375 25.3575 
" style="fill:none;stroke:#000000;stroke-linecap:square;stroke-linejoin:miter;stroke-width:0.8;"/>
   </g>
   <g id="patch_4">
    <path d="M 490.874375 191.6775 
L 490.874375 25.3575 
" style="fill:none;stroke:#000000;stroke-linecap:square;stroke-linejoin:miter;stroke-width:0.8;"/>
   </g>
   <g id="patch_5">
    <path d="M 44.474375 191.6775 
L 490.874375 191.6775 
" style="fill:none;stroke:#000000;stroke-linecap:square;stroke-linejoin:miter;stroke-width:0.8;"/>
   </g>
   <g id="patch_6">
    <path d="M 44.474375 25.3575 
L 490.874375 25.3575 
" style="fill:none;stroke:#000000;stroke-linecap:square;stroke-linejoin:miter;stroke-width:0.8;"/>
   </g>
   <g id="text_15">
    <!-- Moisture Content -->
    <defs>
     <path d="M 9.8125 72.90625 
L 24.515625 72.90625 
L 43.109375 23.296875 
L 61.8125 72.90625 
L 76.515625 72.90625 
L 76.515625 0 
L 66.890625 0 
L 66.890625 64.015625 
L 48.09375 14.015625 
L 38.1875 14.015625 
L 19.390625 64.015625 
L 19.390625 0 
L 9.8125 0 
z
" id="DejaVuSans-77"/>
     <path d="M 8.5 21.578125 
L 8.5 54.6875 
L 17.484375 54.6875 
L 17.484375 21.921875 
Q 17.484375 14.15625 20.5 10.265625 
Q 23.53125 6.390625 29.59375 6.390625 
Q 36.859375 6.390625 41.078125 11.03125 
Q 45.3125 15.671875 45.3125 23.6875 
L 45.3125 54.6875 
L 54.296875 54.6875 
L 54.296875 0 
L 45.3125 0 
L 45.3125 8.40625 
Q 42.046875 3.421875 37.71875 1 
Q 33.40625 -1.421875 27.6875 -1.421875 
Q 18.265625 -1.421875 13.375 4.4375 
Q 8.5 10.296875 8.5 21.578125 
z
M 31.109375 56 
z
" id="DejaVuSans-117"/>
     <path id="DejaVuSans-32"/>
     <path d="M 64.40625 67.28125 
L 64.40625 56.890625 
Q 59.421875 61.53125 53.78125 63.8125 
Q 48.140625 66.109375 41.796875 66.109375 
Q 29.296875 66.109375 22.65625 58.46875 
Q 16.015625 50.828125 16.015625 36.375 
Q 16.015625 21.96875 22.65625 14.328125 
Q 29.296875 6.6875 41.796875 6.6875 
Q 48.140625 6.6875 53.78125 8.984375 
Q 59.421875 11.28125 64.40625 15.921875 
L 64.40625 5.609375 
Q 59.234375 2.09375 53.4375 0.328125 
Q 47.65625 -1.421875 41.21875 -1.421875 
Q 24.65625 -1.421875 15.125 8.703125 
Q 5.609375 18.84375 5.609375 36.375 
Q 5.609375 53.953125 15.125 64.078125 
Q 24.65625 74.21875 41.21875 74.21875 
Q 47.75 74.21875 53.53125 72.484375 
Q 59.328125 70.75 64.40625 67.28125 
z
" id="DejaVuSans-67"/>
    </defs>
    <g transform="translate(198.713125 19.3575)scale(0.16 -0.16)">
     <use xlink:href="#DejaVuSans-77"/>
     <use x="86.279297" xlink:href="#DejaVuSans-111"/>
     <use x="147.460938" xlink:href="#DejaVuSans-105"/>
     <use x="175.244141" xlink:href="#DejaVuSans-115"/>
     <use x="227.34375" xlink:href="#DejaVuSans-116"/>
     <use x="266.552734" xlink:href="#DejaVuSans-117"/>
     <use x="329.931641" xlink:href="#DejaVuSans-114"/>
     <use x="371.013672" xlink:href="#DejaVuSans-101"/>
     <use x="432.537109" xlink:href="#DejaVuSans-32"/>
     <use x="464.324219" xlink:href="#DejaVuSans-67"/>
     <use x="534.148438" xlink:href="#DejaVuSans-111"/>
     <use x="595.330078" xlink:href="#DejaVuSans-110"/>
     <use x="658.708984" xlink:href="#DejaVuSans-116"/>
     <use x="697.917969" xlink:href="#DejaVuSans-101"/>
     <use x="759.441406" xlink:href="#DejaVuSans-110"/>
     <use x="822.820312" xlink:href="#DejaVuSans-116"/>
    </g>
   </g>
   <g id="legend_1">
    <g id="patch_7">
     <path d="M 51.474375 62.71375 
L 121.229063 62.71375 
Q 123.229063 62.71375 123.229063 60.71375 
L 123.229063 32.3575 
Q 123.229063 30.3575 121.229063 30.3575 
L 51.474375 30.3575 
Q 49.474375 30.3575 49.474375 32.3575 
L 49.474375 60.71375 
Q 49.474375 62.71375 51.474375 62.71375 
z
" style="fill:#ffffff;opacity:0.8;stroke:#cccccc;stroke-linejoin:miter;"/>
    </g>
    <g id="line2d_27">
     <path d="M 53.474375 38.455938 
L 73.474375 38.455938 
" style="fill:none;stroke:#1f77b4;stroke-linecap:square;stroke-width:1.5;"/>
    </g>
    <g id="line2d_28"/>
    <g id="text_16">
     <!-- Ideal fit -->
     <defs>
      <path d="M 9.8125 72.90625 
L 19.671875 72.90625 
L 19.671875 0 
L 9.8125 0 
z
" id="DejaVuSans-73"/>
      <path d="M 37.109375 75.984375 
L 37.109375 68.5 
L 28.515625 68.5 
Q 23.6875 68.5 21.796875 66.546875 
Q 19.921875 64.59375 19.921875 59.515625 
L 19.921875 54.6875 
L 34.71875 54.6875 
L 34.71875 47.703125 
L 19.921875 47.703125 
L 19.921875 0 
L 10.890625 0 
L 10.890625 47.703125 
L 2.296875 47.703125 
L 2.296875 54.6875 
L 10.890625 54.6875 
L 10.890625 58.5 
Q 10.890625 67.625 15.140625 71.796875 
Q 19.390625 75.984375 28.609375 75.984375 
z
" id="DejaVuSans-102"/>
     </defs>
     <g transform="translate(81.474375 41.955938)scale(0.1 -0.1)">
      <use xlink:href="#DejaVuSans-73"/>
      <use x="29.492188" xlink:href="#DejaVuSans-100"/>
      <use x="92.96875" xlink:href="#DejaVuSans-101"/>
      <use x="154.492188" xlink:href="#DejaVuSans-97"/>
      <use x="215.771484" xlink:href="#DejaVuSans-108"/>
      <use x="243.554688" xlink:href="#DejaVuSans-32"/>
      <use x="275.341797" xlink:href="#DejaVuSans-102"/>
      <use x="310.546875" xlink:href="#DejaVuSans-105"/>
      <use x="338.330078" xlink:href="#DejaVuSans-116"/>
     </g>
    </g>
    <g id="line2d_29">
     <path d="M 53.474375 53.134063 
L 73.474375 53.134063 
" style="fill:none;stroke:#ff0000;stroke-linecap:square;stroke-width:1.5;"/>
    </g>
    <g id="line2d_30"/>
    <g id="text_17">
     <!-- Best fit -->
     <defs>
      <path d="M 19.671875 34.8125 
L 19.671875 8.109375 
L 35.5 8.109375 
Q 43.453125 8.109375 47.28125 11.40625 
Q 51.125 14.703125 51.125 21.484375 
Q 51.125 28.328125 47.28125 31.5625 
Q 43.453125 34.8125 35.5 34.8125 
z
M 19.671875 64.796875 
L 19.671875 42.828125 
L 34.28125 42.828125 
Q 41.5 42.828125 45.03125 45.53125 
Q 48.578125 48.25 48.578125 53.8125 
Q 48.578125 59.328125 45.03125 62.0625 
Q 41.5 64.796875 34.28125 64.796875 
z
M 9.8125 72.90625 
L 35.015625 72.90625 
Q 46.296875 72.90625 52.390625 68.21875 
Q 58.5 63.53125 58.5 54.890625 
Q 58.5 48.1875 55.375 44.234375 
Q 52.25 40.28125 46.1875 39.3125 
Q 53.46875 37.75 57.5 32.78125 
Q 61.53125 27.828125 61.53125 20.40625 
Q 61.53125 10.640625 54.890625 5.3125 
Q 48.25 0 35.984375 0 
L 9.8125 0 
z
" id="DejaVuSans-66"/>
     </defs>
     <g transform="translate(81.474375 56.634063)scale(0.1 -0.1)">
      <use xlink:href="#DejaVuSans-66"/>
      <use x="68.603516" xlink:href="#DejaVuSans-101"/>
      <use x="130.126953" xlink:href="#DejaVuSans-115"/>
      <use x="182.226562" xlink:href="#DejaVuSans-116"/>
      <use x="221.435547" xlink:href="#DejaVuSans-32"/>
      <use x="253.222656" xlink:href="#DejaVuSans-102"/>
      <use x="288.427734" xlink:href="#DejaVuSans-105"/>
      <use x="316.210938" xlink:href="#DejaVuSans-116"/>
     </g>
    </g>
   </g>
  </g>
 </g>
 <defs>
  <clipPath id="pd28eec016b">
   <rect height="166.32" width="446.4" x="44.474375" y="25.3575"/>
  </clipPath>
 </defs>
</svg>
