<?xml version="1.0" encoding="utf-8" standalone="no"?>
<!DOCTYPE svg PUBLIC "-//W3C//DTD SVG 1.1//EN"
  "http://www.w3.org/Graphics/SVG/1.1/DTD/svg11.dtd">
<svg xmlns:xlink="http://www.w3.org/1999/xlink" width="498.074375pt" height="233.105pt" viewBox="0 0 498.074375 233.105" xmlns="http://www.w3.org/2000/svg" version="1.1">
 <metadata>
  <rdf:RDF xmlns:dc="http://purl.org/dc/elements/1.1/" xmlns:cc="http://creativecommons.org/ns#" xmlns:rdf="http://www.w3.org/1999/02/22-rdf-syntax-ns#">
   <cc:Work>
    <dc:type rdf:resource="http://purl.org/dc/dcmitype/StillImage"/>
    <dc:date>2024-02-24T20:49:52.771651</dc:date>
    <dc:format>image/svg+xml</dc:format>
    <dc:creator>
     <cc:Agent>
      <dc:title>Matplotlib v3.5.3, https://matplotlib.org/</dc:title>
     </cc:Agent>
    </dc:creator>
   </cc:Work>
  </rdf:RDF>
 </metadata>
 <defs>
  <style type="text/css">*{stroke-linejoin: round; stroke-linecap: butt}</style>
 </defs>
 <g id="figure_1">
  <g id="patch_1">
   <path d="M 0 233.105 
L 498.074375 233.105 
L 498.074375 0 
L 0 0 
L 0 233.105 
z
" style="fill: none"/>
  </g>
  <g id="axes_1">
   <g id="patch_2">
    <path d="M 44.474375 191.6775 
L 490.874375 191.6775 
L 490.874375 25.3575 
L 44.474375 25.3575 
L 44.474375 191.6775 
z
" style="fill: none"/>
   </g>
   <g id="PathCollection_1">
    <defs>
     <path id="m0fe116f375" d="M 0 3 
C 0.795609 3 1.55874 2.683901 2.12132 2.12132 
C 2.683901 1.55874 3 0.795609 3 0 
C 3 -0.795609 2.683901 -1.55874 2.12132 -2.12132 
C 1.55874 -2.683901 0.795609 -3 0 -3 
C -0.795609 -3 -1.55874 -2.683901 -2.12132 -2.12132 
C -2.683901 -1.55874 -3 -0.795609 -3 0 
C -3 0.795609 -2.683901 1.55874 -2.12132 2.12132 
C -1.55874 2.683901 -0.795609 3 0 3 
z
" style="stroke: #1f77b4"/>
    </defs>
    <g clip-path="url(#pcf61de7779)">
     <use xlink:href="#m0fe116f375" x="287.489848" y="100.736097" style="fill: #1f77b4; stroke: #1f77b4"/>
     <use xlink:href="#m0fe116f375" x="375.02635" y="67.405801" style="fill: #1f77b4; stroke: #1f77b4"/>
     <use xlink:href="#m0fe116f375" x="298.159931" y="95.291947" style="fill: #1f77b4; stroke: #1f77b4"/>
     <use xlink:href="#m0fe116f375" x="413.914152" y="54.27935" style="fill: #1f77b4; stroke: #1f77b4"/>
     <use xlink:href="#m0fe116f375" x="232.71683" y="121.423868" style="fill: #1f77b4; stroke: #1f77b4"/>
     <use xlink:href="#m0fe116f375" x="405.850703" y="57.061916" style="fill: #1f77b4; stroke: #1f77b4"/>
     <use xlink:href="#m0fe116f375" x="262.474292" y="109.809681" style="fill: #1f77b4; stroke: #1f77b4"/>
     <use xlink:href="#m0fe116f375" x="301.898136" y="95.291947" style="fill: #1f77b4; stroke: #1f77b4"/>
     <use xlink:href="#m0fe116f375" x="374.601043" y="69.704442" style="fill: #1f77b4; stroke: #1f77b4"/>
     <use xlink:href="#m0fe116f375" x="254.412569" y="115.858736" style="fill: #1f77b4; stroke: #1f77b4"/>
     <use xlink:href="#m0fe116f375" x="295.103517" y="99.707758" style="fill: #1f77b4; stroke: #1f77b4"/>
     <use xlink:href="#m0fe116f375" x="297.902903" y="95.291947" style="fill: #1f77b4; stroke: #1f77b4"/>
     <use xlink:href="#m0fe116f375" x="230.776688" y="121.423868" style="fill: #1f77b4; stroke: #1f77b4"/>
     <use xlink:href="#m0fe116f375" x="405.797403" y="57.061916" style="fill: #1f77b4; stroke: #1f77b4"/>
     <use xlink:href="#m0fe116f375" x="357.034812" y="73.938781" style="fill: #1f77b4; stroke: #1f77b4"/>
     <use xlink:href="#m0fe116f375" x="348.69905" y="78.475573" style="fill: #1f77b4; stroke: #1f77b4"/>
     <use xlink:href="#m0fe116f375" x="349.934857" y="78.475573" style="fill: #1f77b4; stroke: #1f77b4"/>
     <use xlink:href="#m0fe116f375" x="327.083525" y="84.7061" style="fill: #1f77b4; stroke: #1f77b4"/>
     <use xlink:href="#m0fe116f375" x="449.983957" y="35.829731" style="fill: #1f77b4; stroke: #1f77b4"/>
     <use xlink:href="#m0fe116f375" x="231.641046" y="121.423868" style="fill: #1f77b4; stroke: #1f77b4"/>
     <use xlink:href="#m0fe116f375" x="361.135415" y="73.8178" style="fill: #1f77b4; stroke: #1f77b4"/>
     <use xlink:href="#m0fe116f375" x="295.882905" y="99.707758" style="fill: #1f77b4; stroke: #1f77b4"/>
     <use xlink:href="#m0fe116f375" x="255.004553" y="113.257642" style="fill: #1f77b4; stroke: #1f77b4"/>
     <use xlink:href="#m0fe116f375" x="254.13693" y="113.257642" style="fill: #1f77b4; stroke: #1f77b4"/>
     <use xlink:href="#m0fe116f375" x="288.492399" y="99.707758" style="fill: #1f77b4; stroke: #1f77b4"/>
     <use xlink:href="#m0fe116f375" x="249.723806" y="115.13285" style="fill: #1f77b4; stroke: #1f77b4"/>
     <use xlink:href="#m0fe116f375" x="308.251028" y="94.989495" style="fill: #1f77b4; stroke: #1f77b4"/>
     <use xlink:href="#m0fe116f375" x="264.039706" y="109.809681" style="fill: #1f77b4; stroke: #1f77b4"/>
     <use xlink:href="#m0fe116f375" x="263.358257" y="109.809681" style="fill: #1f77b4; stroke: #1f77b4"/>
     <use xlink:href="#m0fe116f375" x="332.979516" y="84.7061" style="fill: #1f77b4; stroke: #1f77b4"/>
     <use xlink:href="#m0fe116f375" x="377.424699" y="67.405801" style="fill: #1f77b4; stroke: #1f77b4"/>
     <use xlink:href="#m0fe116f375" x="354.572932" y="73.938781" style="fill: #1f77b4; stroke: #1f77b4"/>
     <use xlink:href="#m0fe116f375" x="232.128966" y="121.423868" style="fill: #1f77b4; stroke: #1f77b4"/>
     <use xlink:href="#m0fe116f375" x="301.739046" y="95.291947" style="fill: #1f77b4; stroke: #1f77b4"/>
     <use xlink:href="#m0fe116f375" x="327.570216" y="85.976402" style="fill: #1f77b4; stroke: #1f77b4"/>
     <use xlink:href="#m0fe116f375" x="249.628418" y="115.13285" style="fill: #1f77b4; stroke: #1f77b4"/>
     <use xlink:href="#m0fe116f375" x="255.33713" y="113.257642" style="fill: #1f77b4; stroke: #1f77b4"/>
     <use xlink:href="#m0fe116f375" x="311.169451" y="94.989495" style="fill: #1f77b4; stroke: #1f77b4"/>
     <use xlink:href="#m0fe116f375" x="285.723722" y="99.707758" style="fill: #1f77b4; stroke: #1f77b4"/>
     <use xlink:href="#m0fe116f375" x="262.054474" y="109.809681" style="fill: #1f77b4; stroke: #1f77b4"/>
     <use xlink:href="#m0fe116f375" x="293.846892" y="99.707758" style="fill: #1f77b4; stroke: #1f77b4"/>
     <use xlink:href="#m0fe116f375" x="235.644846" y="121.423868" style="fill: #1f77b4; stroke: #1f77b4"/>
     <use xlink:href="#m0fe116f375" x="256.189066" y="113.257642" style="fill: #1f77b4; stroke: #1f77b4"/>
     <use xlink:href="#m0fe116f375" x="362.073006" y="73.8178" style="fill: #1f77b4; stroke: #1f77b4"/>
     <use xlink:href="#m0fe116f375" x="254.001971" y="113.257642" style="fill: #1f77b4; stroke: #1f77b4"/>
     <use xlink:href="#m0fe116f375" x="263.45049" y="109.809681" style="fill: #1f77b4; stroke: #1f77b4"/>
     <use xlink:href="#m0fe116f375" x="231.6308" y="121.423868" style="fill: #1f77b4; stroke: #1f77b4"/>
     <use xlink:href="#m0fe116f375" x="366.722587" y="70.974744" style="fill: #1f77b4; stroke: #1f77b4"/>
     <use xlink:href="#m0fe116f375" x="308.885086" y="94.989495" style="fill: #1f77b4; stroke: #1f77b4"/>
     <use xlink:href="#m0fe116f375" x="250.188357" y="115.858736" style="fill: #1f77b4; stroke: #1f77b4"/>
     <use xlink:href="#m0fe116f375" x="414.471837" y="54.27935" style="fill: #1f77b4; stroke: #1f77b4"/>
     <use xlink:href="#m0fe116f375" x="314.255453" y="94.989495" style="fill: #1f77b4; stroke: #1f77b4"/>
     <use xlink:href="#m0fe116f375" x="283.469132" y="100.312663" style="fill: #1f77b4; stroke: #1f77b4"/>
     <use xlink:href="#m0fe116f375" x="460.581958" y="35.829731" style="fill: #1f77b4; stroke: #1f77b4"/>
     <use xlink:href="#m0fe116f375" x="408.719729" y="57.061916" style="fill: #1f77b4; stroke: #1f77b4"/>
     <use xlink:href="#m0fe116f375" x="305.140009" y="95.291947" style="fill: #1f77b4; stroke: #1f77b4"/>
     <use xlink:href="#m0fe116f375" x="300.538192" y="94.989495" style="fill: #1f77b4; stroke: #1f77b4"/>
     <use xlink:href="#m0fe116f375" x="320.643982" y="84.7061" style="fill: #1f77b4; stroke: #1f77b4"/>
     <use xlink:href="#m0fe116f375" x="300.557907" y="95.291947" style="fill: #1f77b4; stroke: #1f77b4"/>
     <use xlink:href="#m0fe116f375" x="252.202804" y="115.858736" style="fill: #1f77b4; stroke: #1f77b4"/>
     <use xlink:href="#m0fe116f375" x="310.523763" y="94.989495" style="fill: #1f77b4; stroke: #1f77b4"/>
     <use xlink:href="#m0fe116f375" x="282.19559" y="100.312663" style="fill: #1f77b4; stroke: #1f77b4"/>
     <use xlink:href="#m0fe116f375" x="360.330482" y="73.8178" style="fill: #1f77b4; stroke: #1f77b4"/>
     <use xlink:href="#m0fe116f375" x="398.782777" y="59.904972" style="fill: #1f77b4; stroke: #1f77b4"/>
     <use xlink:href="#m0fe116f375" x="365.540609" y="70.974744" style="fill: #1f77b4; stroke: #1f77b4"/>
     <use xlink:href="#m0fe116f375" x="400.30293" y="59.904972" style="fill: #1f77b4; stroke: #1f77b4"/>
     <use xlink:href="#m0fe116f375" x="418.084411" y="54.27935" style="fill: #1f77b4; stroke: #1f77b4"/>
     <use xlink:href="#m0fe116f375" x="288.749723" y="99.707758" style="fill: #1f77b4; stroke: #1f77b4"/>
     <use xlink:href="#m0fe116f375" x="329.361126" y="84.7061" style="fill: #1f77b4; stroke: #1f77b4"/>
     <use xlink:href="#m0fe116f375" x="402.459939" y="59.904972" style="fill: #1f77b4; stroke: #1f77b4"/>
     <use xlink:href="#m0fe116f375" x="302.8544" y="95.291947" style="fill: #1f77b4; stroke: #1f77b4"/>
     <use xlink:href="#m0fe116f375" x="418.123624" y="52.646105" style="fill: #1f77b4; stroke: #1f77b4"/>
     <use xlink:href="#m0fe116f375" x="287.669088" y="100.312663" style="fill: #1f77b4; stroke: #1f77b4"/>
     <use xlink:href="#m0fe116f375" x="406.697398" y="57.061916" style="fill: #1f77b4; stroke: #1f77b4"/>
     <use xlink:href="#m0fe116f375" x="249.870489" y="115.13285" style="fill: #1f77b4; stroke: #1f77b4"/>
     <use xlink:href="#m0fe116f375" x="249.892598" y="115.13285" style="fill: #1f77b4; stroke: #1f77b4"/>
     <use xlink:href="#m0fe116f375" x="293.707191" y="100.312663" style="fill: #1f77b4; stroke: #1f77b4"/>
     <use xlink:href="#m0fe116f375" x="325.643383" y="85.976402" style="fill: #1f77b4; stroke: #1f77b4"/>
     <use xlink:href="#m0fe116f375" x="415.395123" y="54.27935" style="fill: #1f77b4; stroke: #1f77b4"/>
     <use xlink:href="#m0fe116f375" x="260.371127" y="113.257642" style="fill: #1f77b4; stroke: #1f77b4"/>
     <use xlink:href="#m0fe116f375" x="263.274888" y="109.809681" style="fill: #1f77b4; stroke: #1f77b4"/>
     <use xlink:href="#m0fe116f375" x="352.418068" y="78.475573" style="fill: #1f77b4; stroke: #1f77b4"/>
     <use xlink:href="#m0fe116f375" x="371.913216" y="69.704442" style="fill: #1f77b4; stroke: #1f77b4"/>
     <use xlink:href="#m0fe116f375" x="287.6497" y="99.707758" style="fill: #1f77b4; stroke: #1f77b4"/>
     <use xlink:href="#m0fe116f375" x="327.798465" y="84.7061" style="fill: #1f77b4; stroke: #1f77b4"/>
     <use xlink:href="#m0fe116f375" x="285.948176" y="100.736097" style="fill: #1f77b4; stroke: #1f77b4"/>
     <use xlink:href="#m0fe116f375" x="235.500792" y="121.423868" style="fill: #1f77b4; stroke: #1f77b4"/>
     <use xlink:href="#m0fe116f375" x="299.864797" y="94.989495" style="fill: #1f77b4; stroke: #1f77b4"/>
     <use xlink:href="#m0fe116f375" x="286.945986" y="100.312663" style="fill: #1f77b4; stroke: #1f77b4"/>
     <use xlink:href="#m0fe116f375" x="366.65262" y="70.974744" style="fill: #1f77b4; stroke: #1f77b4"/>
     <use xlink:href="#m0fe116f375" x="415.664014" y="52.646105" style="fill: #1f77b4; stroke: #1f77b4"/>
     <use xlink:href="#m0fe116f375" x="255.122984" y="113.257642" style="fill: #1f77b4; stroke: #1f77b4"/>
     <use xlink:href="#m0fe116f375" x="256.761708" y="113.257642" style="fill: #1f77b4; stroke: #1f77b4"/>
     <use xlink:href="#m0fe116f375" x="414.342817" y="54.27935" style="fill: #1f77b4; stroke: #1f77b4"/>
     <use xlink:href="#m0fe116f375" x="254.091809" y="113.257642" style="fill: #1f77b4; stroke: #1f77b4"/>
     <use xlink:href="#m0fe116f375" x="470.583466" y="35.829731" style="fill: #1f77b4; stroke: #1f77b4"/>
     <use xlink:href="#m0fe116f375" x="373.297509" y="67.405801" style="fill: #1f77b4; stroke: #1f77b4"/>
     <use xlink:href="#m0fe116f375" x="342.711822" y="81.802553" style="fill: #1f77b4; stroke: #1f77b4"/>
     <use xlink:href="#m0fe116f375" x="290.119633" y="100.312663" style="fill: #1f77b4; stroke: #1f77b4"/>
     <use xlink:href="#m0fe116f375" x="263.767923" y="109.809681" style="fill: #1f77b4; stroke: #1f77b4"/>
     <use xlink:href="#m0fe116f375" x="413.938189" y="52.646105" style="fill: #1f77b4; stroke: #1f77b4"/>
     <use xlink:href="#m0fe116f375" x="297.779014" y="99.707758" style="fill: #1f77b4; stroke: #1f77b4"/>
     <use xlink:href="#m0fe116f375" x="365.636417" y="70.974744" style="fill: #1f77b4; stroke: #1f77b4"/>
     <use xlink:href="#m0fe116f375" x="296.355432" y="94.989495" style="fill: #1f77b4; stroke: #1f77b4"/>
     <use xlink:href="#m0fe116f375" x="343.504285" y="81.802553" style="fill: #1f77b4; stroke: #1f77b4"/>
     <use xlink:href="#m0fe116f375" x="417.30591" y="52.646105" style="fill: #1f77b4; stroke: #1f77b4"/>
     <use xlink:href="#m0fe116f375" x="329.489182" y="84.7061" style="fill: #1f77b4; stroke: #1f77b4"/>
     <use xlink:href="#m0fe116f375" x="347.930158" y="78.475573" style="fill: #1f77b4; stroke: #1f77b4"/>
     <use xlink:href="#m0fe116f375" x="289.546835" y="99.707758" style="fill: #1f77b4; stroke: #1f77b4"/>
     <use xlink:href="#m0fe116f375" x="269.699986" y="109.809681" style="fill: #1f77b4; stroke: #1f77b4"/>
     <use xlink:href="#m0fe116f375" x="355.766043" y="73.938781" style="fill: #1f77b4; stroke: #1f77b4"/>
     <use xlink:href="#m0fe116f375" x="366.686453" y="70.974744" style="fill: #1f77b4; stroke: #1f77b4"/>
     <use xlink:href="#m0fe116f375" x="263.356283" y="109.809681" style="fill: #1f77b4; stroke: #1f77b4"/>
     <use xlink:href="#m0fe116f375" x="350.974848" y="78.475573" style="fill: #1f77b4; stroke: #1f77b4"/>
     <use xlink:href="#m0fe116f375" x="344.143163" y="78.475573" style="fill: #1f77b4; stroke: #1f77b4"/>
     <use xlink:href="#m0fe116f375" x="358.904178" y="73.938781" style="fill: #1f77b4; stroke: #1f77b4"/>
     <use xlink:href="#m0fe116f375" x="322.96061" y="84.7061" style="fill: #1f77b4; stroke: #1f77b4"/>
     <use xlink:href="#m0fe116f375" x="251.132292" y="115.13285" style="fill: #1f77b4; stroke: #1f77b4"/>
     <use xlink:href="#m0fe116f375" x="324.836942" y="85.976402" style="fill: #1f77b4; stroke: #1f77b4"/>
     <use xlink:href="#m0fe116f375" x="325.936157" y="84.7061" style="fill: #1f77b4; stroke: #1f77b4"/>
     <use xlink:href="#m0fe116f375" x="372.252821" y="67.405801" style="fill: #1f77b4; stroke: #1f77b4"/>
    </g>
   </g>
   <g id="matplotlib.axis_1">
    <g id="xtick_1">
     <g id="line2d_1">
      <path d="M 64.765284 191.6775 
L 64.765284 25.3575 
" clip-path="url(#pcf61de7779)" style="fill: none; stroke: #b0b0b0; stroke-width: 0.8; stroke-linecap: square"/>
     </g>
     <g id="line2d_2">
      <defs>
       <path id="md1a4fee210" d="M 0 0 
L 0 3.5 
" style="stroke: #000000; stroke-width: 0.8"/>
      </defs>
      <g>
       <use xlink:href="#md1a4fee210" x="64.765284" y="191.6775" style="stroke: #000000; stroke-width: 0.8"/>
      </g>
     </g>
     <g id="text_1">
      <!-- 0 -->
      <g transform="translate(61.584034 206.275938)scale(0.1 -0.1)">
       <defs>
        <path id="DejaVuSans-30" d="M 2034 4250 
Q 1547 4250 1301 3770 
Q 1056 3291 1056 2328 
Q 1056 1369 1301 889 
Q 1547 409 2034 409 
Q 2525 409 2770 889 
Q 3016 1369 3016 2328 
Q 3016 3291 2770 3770 
Q 2525 4250 2034 4250 
z
M 2034 4750 
Q 2819 4750 3233 4129 
Q 3647 3509 3647 2328 
Q 3647 1150 3233 529 
Q 2819 -91 2034 -91 
Q 1250 -91 836 529 
Q 422 1150 422 2328 
Q 422 3509 836 4129 
Q 1250 4750 2034 4750 
z
" transform="scale(0.015625)"/>
       </defs>
       <use xlink:href="#DejaVuSans-30"/>
      </g>
     </g>
    </g>
    <g id="xtick_2">
     <g id="line2d_3">
      <path d="M 146.282917 191.6775 
L 146.282917 25.3575 
" clip-path="url(#pcf61de7779)" style="fill: none; stroke: #b0b0b0; stroke-width: 0.8; stroke-linecap: square"/>
     </g>
     <g id="line2d_4">
      <g>
       <use xlink:href="#md1a4fee210" x="146.282917" y="191.6775" style="stroke: #000000; stroke-width: 0.8"/>
      </g>
     </g>
     <g id="text_2">
      <!-- 5 -->
      <g transform="translate(143.101667 206.275938)scale(0.1 -0.1)">
       <defs>
        <path id="DejaVuSans-35" d="M 691 4666 
L 3169 4666 
L 3169 4134 
L 1269 4134 
L 1269 2991 
Q 1406 3038 1543 3061 
Q 1681 3084 1819 3084 
Q 2600 3084 3056 2656 
Q 3513 2228 3513 1497 
Q 3513 744 3044 326 
Q 2575 -91 1722 -91 
Q 1428 -91 1123 -41 
Q 819 9 494 109 
L 494 744 
Q 775 591 1075 516 
Q 1375 441 1709 441 
Q 2250 441 2565 725 
Q 2881 1009 2881 1497 
Q 2881 1984 2565 2268 
Q 2250 2553 1709 2553 
Q 1456 2553 1204 2497 
Q 953 2441 691 2322 
L 691 4666 
z
" transform="scale(0.015625)"/>
       </defs>
       <use xlink:href="#DejaVuSans-35"/>
      </g>
     </g>
    </g>
    <g id="xtick_3">
     <g id="line2d_5">
      <path d="M 227.80055 191.6775 
L 227.80055 25.3575 
" clip-path="url(#pcf61de7779)" style="fill: none; stroke: #b0b0b0; stroke-width: 0.8; stroke-linecap: square"/>
     </g>
     <g id="line2d_6">
      <g>
       <use xlink:href="#md1a4fee210" x="227.80055" y="191.6775" style="stroke: #000000; stroke-width: 0.8"/>
      </g>
     </g>
     <g id="text_3">
      <!-- 10 -->
      <g transform="translate(221.43805 206.275938)scale(0.1 -0.1)">
       <defs>
        <path id="DejaVuSans-31" d="M 794 531 
L 1825 531 
L 1825 4091 
L 703 3866 
L 703 4441 
L 1819 4666 
L 2450 4666 
L 2450 531 
L 3481 531 
L 3481 0 
L 794 0 
L 794 531 
z
" transform="scale(0.015625)"/>
       </defs>
       <use xlink:href="#DejaVuSans-31"/>
       <use xlink:href="#DejaVuSans-30" x="63.623047"/>
      </g>
     </g>
    </g>
    <g id="xtick_4">
     <g id="line2d_7">
      <path d="M 309.318183 191.6775 
L 309.318183 25.3575 
" clip-path="url(#pcf61de7779)" style="fill: none; stroke: #b0b0b0; stroke-width: 0.8; stroke-linecap: square"/>
     </g>
     <g id="line2d_8">
      <g>
       <use xlink:href="#md1a4fee210" x="309.318183" y="191.6775" style="stroke: #000000; stroke-width: 0.8"/>
      </g>
     </g>
     <g id="text_4">
      <!-- 15 -->
      <g transform="translate(302.955683 206.275938)scale(0.1 -0.1)">
       <use xlink:href="#DejaVuSans-31"/>
       <use xlink:href="#DejaVuSans-35" x="63.623047"/>
      </g>
     </g>
    </g>
    <g id="xtick_5">
     <g id="line2d_9">
      <path d="M 390.835815 191.6775 
L 390.835815 25.3575 
" clip-path="url(#pcf61de7779)" style="fill: none; stroke: #b0b0b0; stroke-width: 0.8; stroke-linecap: square"/>
     </g>
     <g id="line2d_10">
      <g>
       <use xlink:href="#md1a4fee210" x="390.835815" y="191.6775" style="stroke: #000000; stroke-width: 0.8"/>
      </g>
     </g>
     <g id="text_5">
      <!-- 20 -->
      <g transform="translate(384.473315 206.275938)scale(0.1 -0.1)">
       <defs>
        <path id="DejaVuSans-32" d="M 1228 531 
L 3431 531 
L 3431 0 
L 469 0 
L 469 531 
Q 828 903 1448 1529 
Q 2069 2156 2228 2338 
Q 2531 2678 2651 2914 
Q 2772 3150 2772 3378 
Q 2772 3750 2511 3984 
Q 2250 4219 1831 4219 
Q 1534 4219 1204 4116 
Q 875 4013 500 3803 
L 500 4441 
Q 881 4594 1212 4672 
Q 1544 4750 1819 4750 
Q 2544 4750 2975 4387 
Q 3406 4025 3406 3419 
Q 3406 3131 3298 2873 
Q 3191 2616 2906 2266 
Q 2828 2175 2409 1742 
Q 1991 1309 1228 531 
z
" transform="scale(0.015625)"/>
       </defs>
       <use xlink:href="#DejaVuSans-32"/>
       <use xlink:href="#DejaVuSans-30" x="63.623047"/>
      </g>
     </g>
    </g>
    <g id="xtick_6">
     <g id="line2d_11">
      <path d="M 472.353448 191.6775 
L 472.353448 25.3575 
" clip-path="url(#pcf61de7779)" style="fill: none; stroke: #b0b0b0; stroke-width: 0.8; stroke-linecap: square"/>
     </g>
     <g id="line2d_12">
      <g>
       <use xlink:href="#md1a4fee210" x="472.353448" y="191.6775" style="stroke: #000000; stroke-width: 0.8"/>
      </g>
     </g>
     <g id="text_6">
      <!-- 25 -->
      <g transform="translate(465.990948 206.275938)scale(0.1 -0.1)">
       <use xlink:href="#DejaVuSans-32"/>
       <use xlink:href="#DejaVuSans-35" x="63.623047"/>
      </g>
     </g>
    </g>
    <g id="text_7">
     <!-- Predictions -->
     <g transform="translate(229.256406 222.993438)scale(0.14 -0.14)">
      <defs>
       <path id="DejaVuSans-50" d="M 1259 4147 
L 1259 2394 
L 2053 2394 
Q 2494 2394 2734 2622 
Q 2975 2850 2975 3272 
Q 2975 3691 2734 3919 
Q 2494 4147 2053 4147 
L 1259 4147 
z
M 628 4666 
L 2053 4666 
Q 2838 4666 3239 4311 
Q 3641 3956 3641 3272 
Q 3641 2581 3239 2228 
Q 2838 1875 2053 1875 
L 1259 1875 
L 1259 0 
L 628 0 
L 628 4666 
z
" transform="scale(0.015625)"/>
       <path id="DejaVuSans-72" d="M 2631 2963 
Q 2534 3019 2420 3045 
Q 2306 3072 2169 3072 
Q 1681 3072 1420 2755 
Q 1159 2438 1159 1844 
L 1159 0 
L 581 0 
L 581 3500 
L 1159 3500 
L 1159 2956 
Q 1341 3275 1631 3429 
Q 1922 3584 2338 3584 
Q 2397 3584 2469 3576 
Q 2541 3569 2628 3553 
L 2631 2963 
z
" transform="scale(0.015625)"/>
       <path id="DejaVuSans-65" d="M 3597 1894 
L 3597 1613 
L 953 1613 
Q 991 1019 1311 708 
Q 1631 397 2203 397 
Q 2534 397 2845 478 
Q 3156 559 3463 722 
L 3463 178 
Q 3153 47 2828 -22 
Q 2503 -91 2169 -91 
Q 1331 -91 842 396 
Q 353 884 353 1716 
Q 353 2575 817 3079 
Q 1281 3584 2069 3584 
Q 2775 3584 3186 3129 
Q 3597 2675 3597 1894 
z
M 3022 2063 
Q 3016 2534 2758 2815 
Q 2500 3097 2075 3097 
Q 1594 3097 1305 2825 
Q 1016 2553 972 2059 
L 3022 2063 
z
" transform="scale(0.015625)"/>
       <path id="DejaVuSans-64" d="M 2906 2969 
L 2906 4863 
L 3481 4863 
L 3481 0 
L 2906 0 
L 2906 525 
Q 2725 213 2448 61 
Q 2172 -91 1784 -91 
Q 1150 -91 751 415 
Q 353 922 353 1747 
Q 353 2572 751 3078 
Q 1150 3584 1784 3584 
Q 2172 3584 2448 3432 
Q 2725 3281 2906 2969 
z
M 947 1747 
Q 947 1113 1208 752 
Q 1469 391 1925 391 
Q 2381 391 2643 752 
Q 2906 1113 2906 1747 
Q 2906 2381 2643 2742 
Q 2381 3103 1925 3103 
Q 1469 3103 1208 2742 
Q 947 2381 947 1747 
z
" transform="scale(0.015625)"/>
       <path id="DejaVuSans-69" d="M 603 3500 
L 1178 3500 
L 1178 0 
L 603 0 
L 603 3500 
z
M 603 4863 
L 1178 4863 
L 1178 4134 
L 603 4134 
L 603 4863 
z
" transform="scale(0.015625)"/>
       <path id="DejaVuSans-63" d="M 3122 3366 
L 3122 2828 
Q 2878 2963 2633 3030 
Q 2388 3097 2138 3097 
Q 1578 3097 1268 2742 
Q 959 2388 959 1747 
Q 959 1106 1268 751 
Q 1578 397 2138 397 
Q 2388 397 2633 464 
Q 2878 531 3122 666 
L 3122 134 
Q 2881 22 2623 -34 
Q 2366 -91 2075 -91 
Q 1284 -91 818 406 
Q 353 903 353 1747 
Q 353 2603 823 3093 
Q 1294 3584 2113 3584 
Q 2378 3584 2631 3529 
Q 2884 3475 3122 3366 
z
" transform="scale(0.015625)"/>
       <path id="DejaVuSans-74" d="M 1172 4494 
L 1172 3500 
L 2356 3500 
L 2356 3053 
L 1172 3053 
L 1172 1153 
Q 1172 725 1289 603 
Q 1406 481 1766 481 
L 2356 481 
L 2356 0 
L 1766 0 
Q 1100 0 847 248 
Q 594 497 594 1153 
L 594 3053 
L 172 3053 
L 172 3500 
L 594 3500 
L 594 4494 
L 1172 4494 
z
" transform="scale(0.015625)"/>
       <path id="DejaVuSans-6f" d="M 1959 3097 
Q 1497 3097 1228 2736 
Q 959 2375 959 1747 
Q 959 1119 1226 758 
Q 1494 397 1959 397 
Q 2419 397 2687 759 
Q 2956 1122 2956 1747 
Q 2956 2369 2687 2733 
Q 2419 3097 1959 3097 
z
M 1959 3584 
Q 2709 3584 3137 3096 
Q 3566 2609 3566 1747 
Q 3566 888 3137 398 
Q 2709 -91 1959 -91 
Q 1206 -91 779 398 
Q 353 888 353 1747 
Q 353 2609 779 3096 
Q 1206 3584 1959 3584 
z
" transform="scale(0.015625)"/>
       <path id="DejaVuSans-6e" d="M 3513 2113 
L 3513 0 
L 2938 0 
L 2938 2094 
Q 2938 2591 2744 2837 
Q 2550 3084 2163 3084 
Q 1697 3084 1428 2787 
Q 1159 2491 1159 1978 
L 1159 0 
L 581 0 
L 581 3500 
L 1159 3500 
L 1159 2956 
Q 1366 3272 1645 3428 
Q 1925 3584 2291 3584 
Q 2894 3584 3203 3211 
Q 3513 2838 3513 2113 
z
" transform="scale(0.015625)"/>
       <path id="DejaVuSans-73" d="M 2834 3397 
L 2834 2853 
Q 2591 2978 2328 3040 
Q 2066 3103 1784 3103 
Q 1356 3103 1142 2972 
Q 928 2841 928 2578 
Q 928 2378 1081 2264 
Q 1234 2150 1697 2047 
L 1894 2003 
Q 2506 1872 2764 1633 
Q 3022 1394 3022 966 
Q 3022 478 2636 193 
Q 2250 -91 1575 -91 
Q 1294 -91 989 -36 
Q 684 19 347 128 
L 347 722 
Q 666 556 975 473 
Q 1284 391 1588 391 
Q 1994 391 2212 530 
Q 2431 669 2431 922 
Q 2431 1156 2273 1281 
Q 2116 1406 1581 1522 
L 1381 1569 
Q 847 1681 609 1914 
Q 372 2147 372 2553 
Q 372 3047 722 3315 
Q 1072 3584 1716 3584 
Q 2034 3584 2315 3537 
Q 2597 3491 2834 3397 
z
" transform="scale(0.015625)"/>
      </defs>
      <use xlink:href="#DejaVuSans-50"/>
      <use xlink:href="#DejaVuSans-72" x="58.552734"/>
      <use xlink:href="#DejaVuSans-65" x="97.416016"/>
      <use xlink:href="#DejaVuSans-64" x="158.939453"/>
      <use xlink:href="#DejaVuSans-69" x="222.416016"/>
      <use xlink:href="#DejaVuSans-63" x="250.199219"/>
      <use xlink:href="#DejaVuSans-74" x="305.179688"/>
      <use xlink:href="#DejaVuSans-69" x="344.388672"/>
      <use xlink:href="#DejaVuSans-6f" x="372.171875"/>
      <use xlink:href="#DejaVuSans-6e" x="433.353516"/>
      <use xlink:href="#DejaVuSans-73" x="496.732422"/>
     </g>
    </g>
   </g>
   <g id="matplotlib.axis_2">
    <g id="ytick_1">
     <g id="line2d_13">
      <path d="M 44.474375 183.487178 
L 490.874375 183.487178 
" clip-path="url(#pcf61de7779)" style="fill: none; stroke: #b0b0b0; stroke-width: 0.8; stroke-linecap: square"/>
     </g>
     <g id="line2d_14">
      <defs>
       <path id="mcff268d271" d="M 0 0 
L -3.5 0 
" style="stroke: #000000; stroke-width: 0.8"/>
      </defs>
      <g>
       <use xlink:href="#mcff268d271" x="44.474375" y="183.487178" style="stroke: #000000; stroke-width: 0.8"/>
      </g>
     </g>
     <g id="text_8">
      <!-- 0 -->
      <g transform="translate(31.111875 187.286397)scale(0.1 -0.1)">
       <use xlink:href="#DejaVuSans-30"/>
      </g>
     </g>
    </g>
    <g id="ytick_2">
     <g id="line2d_15">
      <path d="M 44.474375 153.2419 
L 490.874375 153.2419 
" clip-path="url(#pcf61de7779)" style="fill: none; stroke: #b0b0b0; stroke-width: 0.8; stroke-linecap: square"/>
     </g>
     <g id="line2d_16">
      <g>
       <use xlink:href="#mcff268d271" x="44.474375" y="153.2419" style="stroke: #000000; stroke-width: 0.8"/>
      </g>
     </g>
     <g id="text_9">
      <!-- 5 -->
      <g transform="translate(31.111875 157.041119)scale(0.1 -0.1)">
       <use xlink:href="#DejaVuSans-35"/>
      </g>
     </g>
    </g>
    <g id="ytick_3">
     <g id="line2d_17">
      <path d="M 44.474375 122.996622 
L 490.874375 122.996622 
" clip-path="url(#pcf61de7779)" style="fill: none; stroke: #b0b0b0; stroke-width: 0.8; stroke-linecap: square"/>
     </g>
     <g id="line2d_18">
      <g>
       <use xlink:href="#mcff268d271" x="44.474375" y="122.996622" style="stroke: #000000; stroke-width: 0.8"/>
      </g>
     </g>
     <g id="text_10">
      <!-- 10 -->
      <g transform="translate(24.749375 126.795841)scale(0.1 -0.1)">
       <use xlink:href="#DejaVuSans-31"/>
       <use xlink:href="#DejaVuSans-30" x="63.623047"/>
      </g>
     </g>
    </g>
    <g id="ytick_4">
     <g id="line2d_19">
      <path d="M 44.474375 92.751344 
L 490.874375 92.751344 
" clip-path="url(#pcf61de7779)" style="fill: none; stroke: #b0b0b0; stroke-width: 0.8; stroke-linecap: square"/>
     </g>
     <g id="line2d_20">
      <g>
       <use xlink:href="#mcff268d271" x="44.474375" y="92.751344" style="stroke: #000000; stroke-width: 0.8"/>
      </g>
     </g>
     <g id="text_11">
      <!-- 15 -->
      <g transform="translate(24.749375 96.550563)scale(0.1 -0.1)">
       <use xlink:href="#DejaVuSans-31"/>
       <use xlink:href="#DejaVuSans-35" x="63.623047"/>
      </g>
     </g>
    </g>
    <g id="ytick_5">
     <g id="line2d_21">
      <path d="M 44.474375 62.506066 
L 490.874375 62.506066 
" clip-path="url(#pcf61de7779)" style="fill: none; stroke: #b0b0b0; stroke-width: 0.8; stroke-linecap: square"/>
     </g>
     <g id="line2d_22">
      <g>
       <use xlink:href="#mcff268d271" x="44.474375" y="62.506066" style="stroke: #000000; stroke-width: 0.8"/>
      </g>
     </g>
     <g id="text_12">
      <!-- 20 -->
      <g transform="translate(24.749375 66.305285)scale(0.1 -0.1)">
       <use xlink:href="#DejaVuSans-32"/>
       <use xlink:href="#DejaVuSans-30" x="63.623047"/>
      </g>
     </g>
    </g>
    <g id="ytick_6">
     <g id="line2d_23">
      <path d="M 44.474375 32.260788 
L 490.874375 32.260788 
" clip-path="url(#pcf61de7779)" style="fill: none; stroke: #b0b0b0; stroke-width: 0.8; stroke-linecap: square"/>
     </g>
     <g id="line2d_24">
      <g>
       <use xlink:href="#mcff268d271" x="44.474375" y="32.260788" style="stroke: #000000; stroke-width: 0.8"/>
      </g>
     </g>
     <g id="text_13">
      <!-- 25 -->
      <g transform="translate(24.749375 36.060007)scale(0.1 -0.1)">
       <use xlink:href="#DejaVuSans-32"/>
       <use xlink:href="#DejaVuSans-35" x="63.623047"/>
      </g>
     </g>
    </g>
    <g id="text_14">
     <!-- Real -->
     <g transform="translate(17.837813 123.607969)rotate(-90)scale(0.14 -0.14)">
      <defs>
       <path id="DejaVuSans-52" d="M 2841 2188 
Q 3044 2119 3236 1894 
Q 3428 1669 3622 1275 
L 4263 0 
L 3584 0 
L 2988 1197 
Q 2756 1666 2539 1819 
Q 2322 1972 1947 1972 
L 1259 1972 
L 1259 0 
L 628 0 
L 628 4666 
L 2053 4666 
Q 2853 4666 3247 4331 
Q 3641 3997 3641 3322 
Q 3641 2881 3436 2590 
Q 3231 2300 2841 2188 
z
M 1259 4147 
L 1259 2491 
L 2053 2491 
Q 2509 2491 2742 2702 
Q 2975 2913 2975 3322 
Q 2975 3731 2742 3939 
Q 2509 4147 2053 4147 
L 1259 4147 
z
" transform="scale(0.015625)"/>
       <path id="DejaVuSans-61" d="M 2194 1759 
Q 1497 1759 1228 1600 
Q 959 1441 959 1056 
Q 959 750 1161 570 
Q 1363 391 1709 391 
Q 2188 391 2477 730 
Q 2766 1069 2766 1631 
L 2766 1759 
L 2194 1759 
z
M 3341 1997 
L 3341 0 
L 2766 0 
L 2766 531 
Q 2569 213 2275 61 
Q 1981 -91 1556 -91 
Q 1019 -91 701 211 
Q 384 513 384 1019 
Q 384 1609 779 1909 
Q 1175 2209 1959 2209 
L 2766 2209 
L 2766 2266 
Q 2766 2663 2505 2880 
Q 2244 3097 1772 3097 
Q 1472 3097 1187 3025 
Q 903 2953 641 2809 
L 641 3341 
Q 956 3463 1253 3523 
Q 1550 3584 1831 3584 
Q 2591 3584 2966 3190 
Q 3341 2797 3341 1997 
z
" transform="scale(0.015625)"/>
       <path id="DejaVuSans-6c" d="M 603 4863 
L 1178 4863 
L 1178 0 
L 603 0 
L 603 4863 
z
" transform="scale(0.015625)"/>
      </defs>
      <use xlink:href="#DejaVuSans-52"/>
      <use xlink:href="#DejaVuSans-65" x="64.982422"/>
      <use xlink:href="#DejaVuSans-61" x="126.505859"/>
      <use xlink:href="#DejaVuSans-6c" x="187.785156"/>
     </g>
    </g>
   </g>
   <g id="line2d_25">
    <path d="M 64.765284 183.487178 
L 81.068811 177.438122 
L 470.583466 32.9175 
" clip-path="url(#pcf61de7779)" style="fill: none; stroke: #1f77b4; stroke-width: 1.5; stroke-linecap: square"/>
   </g>
   <g id="line2d_26">
    <path d="M 64.765284 184.1175 
L 81.068811 178.03211 
L 97.372337 171.946719 
L 113.675864 165.861329 
L 129.97939 159.775939 
L 146.282917 153.690548 
L 162.586443 147.605158 
L 178.88997 141.519768 
L 195.193497 135.434378 
L 211.497023 129.348987 
L 227.80055 123.263597 
L 244.104076 117.178207 
L 260.407603 111.092816 
L 276.711129 105.007426 
L 293.014656 98.922036 
L 309.318183 92.836645 
L 325.621709 86.751255 
L 341.925236 80.665865 
L 358.228762 74.580475 
L 374.532289 68.495084 
L 390.835815 62.409694 
L 407.139342 56.324304 
L 423.442868 50.238913 
L 439.746395 44.153523 
L 456.049922 38.068133 
" clip-path="url(#pcf61de7779)" style="fill: none; stroke: #ff0000; stroke-width: 1.5; stroke-linecap: square"/>
   </g>
   <g id="patch_3">
    <path d="M 44.474375 191.6775 
L 44.474375 25.3575 
" style="fill: none; stroke: #000000; stroke-width: 0.8; stroke-linejoin: miter; stroke-linecap: square"/>
   </g>
   <g id="patch_4">
    <path d="M 490.874375 191.6775 
L 490.874375 25.3575 
" style="fill: none; stroke: #000000; stroke-width: 0.8; stroke-linejoin: miter; stroke-linecap: square"/>
   </g>
   <g id="patch_5">
    <path d="M 44.474375 191.6775 
L 490.874375 191.6775 
" style="fill: none; stroke: #000000; stroke-width: 0.8; stroke-linejoin: miter; stroke-linecap: square"/>
   </g>
   <g id="patch_6">
    <path d="M 44.474375 25.3575 
L 490.874375 25.3575 
" style="fill: none; stroke: #000000; stroke-width: 0.8; stroke-linejoin: miter; stroke-linecap: square"/>
   </g>
   <g id="text_15">
    <!-- Moisture Content -->
    <g transform="translate(198.890625 19.3575)scale(0.16 -0.16)">
     <defs>
      <path id="DejaVuSans-4d" d="M 628 4666 
L 1569 4666 
L 2759 1491 
L 3956 4666 
L 4897 4666 
L 4897 0 
L 4281 0 
L 4281 4097 
L 3078 897 
L 2444 897 
L 1241 4097 
L 1241 0 
L 628 0 
L 628 4666 
z
" transform="scale(0.015625)"/>
      <path id="DejaVuSans-75" d="M 544 1381 
L 544 3500 
L 1119 3500 
L 1119 1403 
Q 1119 906 1312 657 
Q 1506 409 1894 409 
Q 2359 409 2629 706 
Q 2900 1003 2900 1516 
L 2900 3500 
L 3475 3500 
L 3475 0 
L 2900 0 
L 2900 538 
Q 2691 219 2414 64 
Q 2138 -91 1772 -91 
Q 1169 -91 856 284 
Q 544 659 544 1381 
z
M 1991 3584 
L 1991 3584 
z
" transform="scale(0.015625)"/>
      <path id="DejaVuSans-20" transform="scale(0.015625)"/>
      <path id="DejaVuSans-43" d="M 4122 4306 
L 4122 3641 
Q 3803 3938 3442 4084 
Q 3081 4231 2675 4231 
Q 1875 4231 1450 3742 
Q 1025 3253 1025 2328 
Q 1025 1406 1450 917 
Q 1875 428 2675 428 
Q 3081 428 3442 575 
Q 3803 722 4122 1019 
L 4122 359 
Q 3791 134 3420 21 
Q 3050 -91 2638 -91 
Q 1578 -91 968 557 
Q 359 1206 359 2328 
Q 359 3453 968 4101 
Q 1578 4750 2638 4750 
Q 3056 4750 3426 4639 
Q 3797 4528 4122 4306 
z
" transform="scale(0.015625)"/>
     </defs>
     <use xlink:href="#DejaVuSans-4d"/>
     <use xlink:href="#DejaVuSans-6f" x="86.279297"/>
     <use xlink:href="#DejaVuSans-69" x="147.460938"/>
     <use xlink:href="#DejaVuSans-73" x="175.244141"/>
     <use xlink:href="#DejaVuSans-74" x="227.34375"/>
     <use xlink:href="#DejaVuSans-75" x="266.552734"/>
     <use xlink:href="#DejaVuSans-72" x="329.931641"/>
     <use xlink:href="#DejaVuSans-65" x="368.794922"/>
     <use xlink:href="#DejaVuSans-20" x="430.318359"/>
     <use xlink:href="#DejaVuSans-43" x="462.105469"/>
     <use xlink:href="#DejaVuSans-6f" x="531.929688"/>
     <use xlink:href="#DejaVuSans-6e" x="593.111328"/>
     <use xlink:href="#DejaVuSans-74" x="656.490234"/>
     <use xlink:href="#DejaVuSans-65" x="695.699219"/>
     <use xlink:href="#DejaVuSans-6e" x="757.222656"/>
     <use xlink:href="#DejaVuSans-74" x="820.601562"/>
    </g>
   </g>
   <g id="legend_1">
    <g id="patch_7">
     <path d="M 51.474375 62.71375 
L 121.229063 62.71375 
Q 123.229063 62.71375 123.229063 60.71375 
L 123.229063 32.3575 
Q 123.229063 30.3575 121.229063 30.3575 
L 51.474375 30.3575 
Q 49.474375 30.3575 49.474375 32.3575 
L 49.474375 60.71375 
Q 49.474375 62.71375 51.474375 62.71375 
z
" style="fill: #ffffff; opacity: 0.8; stroke: #cccccc; stroke-linejoin: miter"/>
    </g>
    <g id="line2d_27">
     <path d="M 53.474375 38.455938 
L 63.474375 38.455938 
L 73.474375 38.455938 
" style="fill: none; stroke: #1f77b4; stroke-width: 1.5; stroke-linecap: square"/>
    </g>
    <g id="text_16">
     <!-- Ideal fit -->
     <g transform="translate(81.474375 41.955938)scale(0.1 -0.1)">
      <defs>
       <path id="DejaVuSans-49" d="M 628 4666 
L 1259 4666 
L 1259 0 
L 628 0 
L 628 4666 
z
" transform="scale(0.015625)"/>
       <path id="DejaVuSans-66" d="M 2375 4863 
L 2375 4384 
L 1825 4384 
Q 1516 4384 1395 4259 
Q 1275 4134 1275 3809 
L 1275 3500 
L 2222 3500 
L 2222 3053 
L 1275 3053 
L 1275 0 
L 697 0 
L 697 3053 
L 147 3053 
L 147 3500 
L 697 3500 
L 697 3744 
Q 697 4328 969 4595 
Q 1241 4863 1831 4863 
L 2375 4863 
z
" transform="scale(0.015625)"/>
      </defs>
      <use xlink:href="#DejaVuSans-49"/>
      <use xlink:href="#DejaVuSans-64" x="29.492188"/>
      <use xlink:href="#DejaVuSans-65" x="92.96875"/>
      <use xlink:href="#DejaVuSans-61" x="154.492188"/>
      <use xlink:href="#DejaVuSans-6c" x="215.771484"/>
      <use xlink:href="#DejaVuSans-20" x="243.554688"/>
      <use xlink:href="#DejaVuSans-66" x="275.341797"/>
      <use xlink:href="#DejaVuSans-69" x="310.546875"/>
      <use xlink:href="#DejaVuSans-74" x="338.330078"/>
     </g>
    </g>
    <g id="line2d_28">
     <path d="M 53.474375 53.134063 
L 63.474375 53.134063 
L 73.474375 53.134063 
" style="fill: none; stroke: #ff0000; stroke-width: 1.5; stroke-linecap: square"/>
    </g>
    <g id="text_17">
     <!-- Best fit -->
     <g transform="translate(81.474375 56.634063)scale(0.1 -0.1)">
      <defs>
       <path id="DejaVuSans-42" d="M 1259 2228 
L 1259 519 
L 2272 519 
Q 2781 519 3026 730 
Q 3272 941 3272 1375 
Q 3272 1813 3026 2020 
Q 2781 2228 2272 2228 
L 1259 2228 
z
M 1259 4147 
L 1259 2741 
L 2194 2741 
Q 2656 2741 2882 2914 
Q 3109 3088 3109 3444 
Q 3109 3797 2882 3972 
Q 2656 4147 2194 4147 
L 1259 4147 
z
M 628 4666 
L 2241 4666 
Q 2963 4666 3353 4366 
Q 3744 4066 3744 3513 
Q 3744 3084 3544 2831 
Q 3344 2578 2956 2516 
Q 3422 2416 3680 2098 
Q 3938 1781 3938 1306 
Q 3938 681 3513 340 
Q 3088 0 2303 0 
L 628 0 
L 628 4666 
z
" transform="scale(0.015625)"/>
      </defs>
      <use xlink:href="#DejaVuSans-42"/>
      <use xlink:href="#DejaVuSans-65" x="68.603516"/>
      <use xlink:href="#DejaVuSans-73" x="130.126953"/>
      <use xlink:href="#DejaVuSans-74" x="182.226562"/>
      <use xlink:href="#DejaVuSans-20" x="221.435547"/>
      <use xlink:href="#DejaVuSans-66" x="253.222656"/>
      <use xlink:href="#DejaVuSans-69" x="288.427734"/>
      <use xlink:href="#DejaVuSans-74" x="316.210938"/>
     </g>
    </g>
   </g>
  </g>
 </g>
 <defs>
  <clipPath id="pcf61de7779">
   <rect x="44.474375" y="25.3575" width="446.4" height="166.32"/>
  </clipPath>
 </defs>
</svg>
