<?xml version="1.0" encoding="utf-8" standalone="no"?>
<!DOCTYPE svg PUBLIC "-//W3C//DTD SVG 1.1//EN"
  "http://www.w3.org/Graphics/SVG/1.1/DTD/svg11.dtd">
<!-- Created with matplotlib (https://matplotlib.org/) -->
<svg height="233.105pt" version="1.1" viewBox="0 0 501.2525 233.105" width="501.2525pt" xmlns="http://www.w3.org/2000/svg" xmlns:xlink="http://www.w3.org/1999/xlink">
 <defs>
  <style type="text/css">
*{stroke-linecap:butt;stroke-linejoin:round;}
  </style>
 </defs>
 <g id="figure_1">
  <g id="patch_1">
   <path d="M 0 233.105 
L 501.2525 233.105 
L 501.2525 0 
L 0 0 
z
" style="fill:none;"/>
  </g>
  <g id="axes_1">
   <g id="patch_2">
    <path d="M 47.6525 191.6775 
L 494.0525 191.6775 
L 494.0525 25.3575 
L 47.6525 25.3575 
z
" style="fill:none;"/>
   </g>
   <g id="PathCollection_1">
    <defs>
     <path d="M 0 3 
C 0.795609 3 1.55874 2.683901 2.12132 2.12132 
C 2.683901 1.55874 3 0.795609 3 0 
C 3 -0.795609 2.683901 -1.55874 2.12132 -2.12132 
C 1.55874 -2.683901 0.795609 -3 0 -3 
C -0.795609 -3 -1.55874 -2.683901 -2.12132 -2.12132 
C -2.683901 -1.55874 -3 -0.795609 -3 0 
C -3 0.795609 -2.683901 1.55874 -2.12132 2.12132 
C -1.55874 2.683901 -0.795609 3 0 3 
z
" id="m9d2f913460" style="stroke:#1f77b4;"/>
    </defs>
    <g clip-path="url(#p5a414036e4)">
     <use style="fill:#1f77b4;stroke:#1f77b4;" x="293.720855" xlink:href="#m9d2f913460" y="72.463669"/>
     <use style="fill:#1f77b4;stroke:#1f77b4;" x="393.54232" xlink:href="#m9d2f913460" y="54.515354"/>
     <use style="fill:#1f77b4;stroke:#1f77b4;" x="294.439293" xlink:href="#m9d2f913460" y="72.463669"/>
     <use style="fill:#1f77b4;stroke:#1f77b4;" x="248.8693" xlink:href="#m9d2f913460" y="97.041028"/>
     <use style="fill:#1f77b4;stroke:#1f77b4;" x="302.044009" xlink:href="#m9d2f913460" y="85.636221"/>
     <use style="fill:#1f77b4;stroke:#1f77b4;" x="348.988558" xlink:href="#m9d2f913460" y="63.582175"/>
     <use style="fill:#1f77b4;stroke:#1f77b4;" x="382.822763" xlink:href="#m9d2f913460" y="53.873833"/>
     <use style="fill:#1f77b4;stroke:#1f77b4;" x="314.385698" xlink:href="#m9d2f913460" y="68.571778"/>
     <use style="fill:#1f77b4;stroke:#1f77b4;" x="239.962904" xlink:href="#m9d2f913460" y="81.430699"/>
     <use style="fill:#1f77b4;stroke:#1f77b4;" x="329.776442" xlink:href="#m9d2f913460" y="68.329426"/>
     <use style="fill:#1f77b4;stroke:#1f77b4;" x="280.159281" xlink:href="#m9d2f913460" y="68.429218"/>
     <use style="fill:#1f77b4;stroke:#1f77b4;" x="244.051964" xlink:href="#m9d2f913460" y="102.344264"/>
     <use style="fill:#1f77b4;stroke:#1f77b4;" x="368.710722" xlink:href="#m9d2f913460" y="61.586334"/>
     <use style="fill:#1f77b4;stroke:#1f77b4;" x="253.178101" xlink:href="#m9d2f913460" y="85.051725"/>
     <use style="fill:#1f77b4;stroke:#1f77b4;" x="377.282449" xlink:href="#m9d2f913460" y="57.223995"/>
     <use style="fill:#1f77b4;stroke:#1f77b4;" x="359.38818" xlink:href="#m9d2f913460" y="53.602969"/>
     <use style="fill:#1f77b4;stroke:#1f77b4;" x="296.112677" xlink:href="#m9d2f913460" y="72.235573"/>
     <use style="fill:#1f77b4;stroke:#1f77b4;" x="336.173618" xlink:href="#m9d2f913460" y="63.240031"/>
     <use style="fill:#1f77b4;stroke:#1f77b4;" x="288.584501" xlink:href="#m9d2f913460" y="79.705721"/>
     <use style="fill:#1f77b4;stroke:#1f77b4;" x="379.335143" xlink:href="#m9d2f913460" y="53.360617"/>
     <use style="fill:#1f77b4;stroke:#1f77b4;" x="341.512191" xlink:href="#m9d2f913460" y="68.129842"/>
     <use style="fill:#1f77b4;stroke:#1f77b4;" x="258.638053" xlink:href="#m9d2f913460" y="88.672751"/>
     <use style="fill:#1f77b4;stroke:#1f77b4;" x="271.316761" xlink:href="#m9d2f913460" y="91.053505"/>
     <use style="fill:#1f77b4;stroke:#1f77b4;" x="354.015918" xlink:href="#m9d2f913460" y="55.441994"/>
     <use style="fill:#1f77b4;stroke:#1f77b4;" x="405.785926" xlink:href="#m9d2f913460" y="54.444074"/>
     <use style="fill:#1f77b4;stroke:#1f77b4;" x="379.244307" xlink:href="#m9d2f913460" y="63.710479"/>
     <use style="fill:#1f77b4;stroke:#1f77b4;" x="326.038377" xlink:href="#m9d2f913460" y="63.026191"/>
     <use style="fill:#1f77b4;stroke:#1f77b4;" x="379.987157" xlink:href="#m9d2f913460" y="57.56614"/>
     <use style="fill:#1f77b4;stroke:#1f77b4;" x="284.902825" xlink:href="#m9d2f913460" y="73.803734"/>
     <use style="fill:#1f77b4;stroke:#1f77b4;" x="293.791181" xlink:href="#m9d2f913460" y="73.803734"/>
     <use style="fill:#1f77b4;stroke:#1f77b4;" x="207.617307" xlink:href="#m9d2f913460" y="89.399808"/>
     <use style="fill:#1f77b4;stroke:#1f77b4;" x="218.288957" xlink:href="#m9d2f913460" y="102.002119"/>
     <use style="fill:#1f77b4;stroke:#1f77b4;" x="313.68052" xlink:href="#m9d2f913460" y="88.858079"/>
     <use style="fill:#1f77b4;stroke:#1f77b4;" x="292.80163" xlink:href="#m9d2f913460" y="74.003318"/>
     <use style="fill:#1f77b4;stroke:#1f77b4;" x="355.262881" xlink:href="#m9d2f913460" y="59.1343"/>
     <use style="fill:#1f77b4;stroke:#1f77b4;" x="283.451372" xlink:href="#m9d2f913460" y="80.703642"/>
     <use style="fill:#1f77b4;stroke:#1f77b4;" x="343.877969" xlink:href="#m9d2f913460" y="68.129842"/>
     <use style="fill:#1f77b4;stroke:#1f77b4;" x="358.781484" xlink:href="#m9d2f913460" y="64.13816"/>
     <use style="fill:#1f77b4;stroke:#1f77b4;" x="334.750877" xlink:href="#m9d2f913460" y="60.003917"/>
     <use style="fill:#1f77b4;stroke:#1f77b4;" x="246.337103" xlink:href="#m9d2f913460" y="102.187448"/>
     <use style="fill:#1f77b4;stroke:#1f77b4;" x="131.842716" xlink:href="#m9d2f913460" y="111.496621"/>
     <use style="fill:#1f77b4;stroke:#1f77b4;" x="180.492088" xlink:href="#m9d2f913460" y="107.576219"/>
     <use style="fill:#1f77b4;stroke:#1f77b4;" x="360.324688" xlink:href="#m9d2f913460" y="68.799875"/>
     <use style="fill:#1f77b4;stroke:#1f77b4;" x="280.889388" xlink:href="#m9d2f913460" y="73.803734"/>
     <use style="fill:#1f77b4;stroke:#1f77b4;" x="365.987018" xlink:href="#m9d2f913460" y="57.794236"/>
     <use style="fill:#1f77b4;stroke:#1f77b4;" x="263.962489" xlink:href="#m9d2f913460" y="89.699184"/>
     <use style="fill:#1f77b4;stroke:#1f77b4;" x="263.093561" xlink:href="#m9d2f913460" y="74.003318"/>
     <use style="fill:#1f77b4;stroke:#1f77b4;" x="369.090948" xlink:href="#m9d2f913460" y="51.906504"/>
     <use style="fill:#1f77b4;stroke:#1f77b4;" x="307.736087" xlink:href="#m9d2f913460" y="81.986683"/>
     <use style="fill:#1f77b4;stroke:#1f77b4;" x="359.696965" xlink:href="#m9d2f913460" y="52.647816"/>
     <use style="fill:#1f77b4;stroke:#1f77b4;" x="376.581572" xlink:href="#m9d2f913460" y="61.215678"/>
     <use style="fill:#1f77b4;stroke:#1f77b4;" x="388.618977" xlink:href="#m9d2f913460" y="54.372793"/>
     <use style="fill:#1f77b4;stroke:#1f77b4;" x="267.962705" xlink:href="#m9d2f913460" y="95.829268"/>
     <use style="fill:#1f77b4;stroke:#1f77b4;" x="372.632966" xlink:href="#m9d2f913460" y="63.197263"/>
     <use style="fill:#1f77b4;stroke:#1f77b4;" x="291.044619" xlink:href="#m9d2f913460" y="77.196664"/>
     <use style="fill:#1f77b4;stroke:#1f77b4;" x="331.655589" xlink:href="#m9d2f913460" y="72.677509"/>
     <use style="fill:#1f77b4;stroke:#1f77b4;" x="325.232408" xlink:href="#m9d2f913460" y="60.003917"/>
     <use style="fill:#1f77b4;stroke:#1f77b4;" x="301.952099" xlink:href="#m9d2f913460" y="73.96055"/>
     <use style="fill:#1f77b4;stroke:#1f77b4;" x="255.115509" xlink:href="#m9d2f913460" y="102.187448"/>
     <use style="fill:#1f77b4;stroke:#1f77b4;" x="367.931753" xlink:href="#m9d2f913460" y="53.602969"/>
     <use style="fill:#1f77b4;stroke:#1f77b4;" x="300.492084" xlink:href="#m9d2f913460" y="73.319029"/>
     <use style="fill:#1f77b4;stroke:#1f77b4;" x="335.5717" xlink:href="#m9d2f913460" y="60.003917"/>
     <use style="fill:#1f77b4;stroke:#1f77b4;" x="246.786102" xlink:href="#m9d2f913460" y="92.692946"/>
     <use style="fill:#1f77b4;stroke:#1f77b4;" x="385.672545" xlink:href="#m9d2f913460" y="54.81473"/>
     <use style="fill:#1f77b4;stroke:#1f77b4;" x="362.49223" xlink:href="#m9d2f913460" y="70.667412"/>
     <use style="fill:#1f77b4;stroke:#1f77b4;" x="373.650432" xlink:href="#m9d2f913460" y="59.718797"/>
     <use style="fill:#1f77b4;stroke:#1f77b4;" x="169.481946" xlink:href="#m9d2f913460" y="100.476726"/>
     <use style="fill:#1f77b4;stroke:#1f77b4;" x="308.787562" xlink:href="#m9d2f913460" y="73.504358"/>
     <use style="fill:#1f77b4;stroke:#1f77b4;" x="313.017475" xlink:href="#m9d2f913460" y="77.196664"/>
     <use style="fill:#1f77b4;stroke:#1f77b4;" x="323.730182" xlink:href="#m9d2f913460" y="75.813831"/>
     <use style="fill:#1f77b4;stroke:#1f77b4;" x="335.135682" xlink:href="#m9d2f913460" y="69.027971"/>
     <use style="fill:#1f77b4;stroke:#1f77b4;" x="336.230922" xlink:href="#m9d2f913460" y="72.620485"/>
     <use style="fill:#1f77b4;stroke:#1f77b4;" x="301.254328" xlink:href="#m9d2f913460" y="88.843823"/>
     <use style="fill:#1f77b4;stroke:#1f77b4;" x="370.243731" xlink:href="#m9d2f913460" y="76.056183"/>
     <use style="fill:#1f77b4;stroke:#1f77b4;" x="200.342879" xlink:href="#m9d2f913460" y="94.517715"/>
     <use style="fill:#1f77b4;stroke:#1f77b4;" x="377.861748" xlink:href="#m9d2f913460" y="71.13786"/>
     <use style="fill:#1f77b4;stroke:#1f77b4;" x="169.605675" xlink:href="#m9d2f913460" y="96.21418"/>
     <use style="fill:#1f77b4;stroke:#1f77b4;" x="375.095951" xlink:href="#m9d2f913460" y="58.792156"/>
     <use style="fill:#1f77b4;stroke:#1f77b4;" x="312.157466" xlink:href="#m9d2f913460" y="62.256366"/>
     <use style="fill:#1f77b4;stroke:#1f77b4;" x="255.530022" xlink:href="#m9d2f913460" y="74.003318"/>
     <use style="fill:#1f77b4;stroke:#1f77b4;" x="343.320055" xlink:href="#m9d2f913460" y="63.240031"/>
     <use style="fill:#1f77b4;stroke:#1f77b4;" x="314.829202" xlink:href="#m9d2f913460" y="63.026191"/>
     <use style="fill:#1f77b4;stroke:#1f77b4;" x="299.961608" xlink:href="#m9d2f913460" y="64.095392"/>
     <use style="fill:#1f77b4;stroke:#1f77b4;" x="324.144018" xlink:href="#m9d2f913460" y="67.402786"/>
     <use style="fill:#1f77b4;stroke:#1f77b4;" x="214.844703" xlink:href="#m9d2f913460" y="102.344264"/>
     <use style="fill:#1f77b4;stroke:#1f77b4;" x="313.664113" xlink:href="#m9d2f913460" y="73.490102"/>
     <use style="fill:#1f77b4;stroke:#1f77b4;" x="302.758505" xlink:href="#m9d2f913460" y="72.463669"/>
     <use style="fill:#1f77b4;stroke:#1f77b4;" x="377.750762" xlink:href="#m9d2f913460" y="55.798394"/>
     <use style="fill:#1f77b4;stroke:#1f77b4;" x="334.27432" xlink:href="#m9d2f913460" y="63.240031"/>
     <use style="fill:#1f77b4;stroke:#1f77b4;" x="373.731869" xlink:href="#m9d2f913460" y="59.718797"/>
     <use style="fill:#1f77b4;stroke:#1f77b4;" x="280.457313" xlink:href="#m9d2f913460" y="68.429218"/>
     <use style="fill:#1f77b4;stroke:#1f77b4;" x="281.276821" xlink:href="#m9d2f913460" y="78.436937"/>
     <use style="fill:#1f77b4;stroke:#1f77b4;" x="351.162591" xlink:href="#m9d2f913460" y="64.095392"/>
     <use style="fill:#1f77b4;stroke:#1f77b4;" x="391.340012" xlink:href="#m9d2f913460" y="60.474365"/>
     <use style="fill:#1f77b4;stroke:#1f77b4;" x="368.427663" xlink:href="#m9d2f913460" y="55.441994"/>
     <use style="fill:#1f77b4;stroke:#1f77b4;" x="244.371501" xlink:href="#m9d2f913460" y="95.244771"/>
     <use style="fill:#1f77b4;stroke:#1f77b4;" x="277.930094" xlink:href="#m9d2f913460" y="77.809672"/>
     <use style="fill:#1f77b4;stroke:#1f77b4;" x="291.683293" xlink:href="#m9d2f913460" y="73.96055"/>
     <use style="fill:#1f77b4;stroke:#1f77b4;" x="286.891365" xlink:href="#m9d2f913460" y="81.273882"/>
     <use style="fill:#1f77b4;stroke:#1f77b4;" x="386.848067" xlink:href="#m9d2f913460" y="71.13786"/>
     <use style="fill:#1f77b4;stroke:#1f77b4;" x="328.345258" xlink:href="#m9d2f913460" y="81.060042"/>
     <use style="fill:#1f77b4;stroke:#1f77b4;" x="273.566656" xlink:href="#m9d2f913460" y="79.035689"/>
     <use style="fill:#1f77b4;stroke:#1f77b4;" x="358.338219" xlink:href="#m9d2f913460" y="57.537627"/>
     <use style="fill:#1f77b4;stroke:#1f77b4;" x="291.134061" xlink:href="#m9d2f913460" y="73.490102"/>
     <use style="fill:#1f77b4;stroke:#1f77b4;" x="257.242073" xlink:href="#m9d2f913460" y="81.430699"/>
     <use style="fill:#1f77b4;stroke:#1f77b4;" x="420.760404" xlink:href="#m9d2f913460" y="61.10163"/>
     <use style="fill:#1f77b4;stroke:#1f77b4;" x="287.976251" xlink:href="#m9d2f913460" y="98.994102"/>
     <use style="fill:#1f77b4;stroke:#1f77b4;" x="328.206357" xlink:href="#m9d2f913460" y="70.054403"/>
     <use style="fill:#1f77b4;stroke:#1f77b4;" x="343.161004" xlink:href="#m9d2f913460" y="60.232013"/>
     <use style="fill:#1f77b4;stroke:#1f77b4;" x="368.518857" xlink:href="#m9d2f913460" y="57.010155"/>
     <use style="fill:#1f77b4;stroke:#1f77b4;" x="422.023058" xlink:href="#m9d2f913460" y="49.967687"/>
     <use style="fill:#1f77b4;stroke:#1f77b4;" x="209.56232" xlink:href="#m9d2f913460" y="98.666213"/>
     <use style="fill:#1f77b4;stroke:#1f77b4;" x="260.358189" xlink:href="#m9d2f913460" y="82.670971"/>
     <use style="fill:#1f77b4;stroke:#1f77b4;" x="363.702716" xlink:href="#m9d2f913460" y="61.81443"/>
     <use style="fill:#1f77b4;stroke:#1f77b4;" x="331.153028" xlink:href="#m9d2f913460" y="68.329426"/>
     <use style="fill:#1f77b4;stroke:#1f77b4;" x="362.037575" xlink:href="#m9d2f913460" y="52.647816"/>
     <use style="fill:#1f77b4;stroke:#1f77b4;" x="310.251718" xlink:href="#m9d2f913460" y="72.235573"/>
     <use style="fill:#1f77b4;stroke:#1f77b4;" x="230.016024" xlink:href="#m9d2f913460" y="95.829268"/>
     <use style="fill:#1f77b4;stroke:#1f77b4;" x="381.305364" xlink:href="#m9d2f913460" y="60.160733"/>
     <use style="fill:#1f77b4;stroke:#1f77b4;" x="259.533862" xlink:href="#m9d2f913460" y="91.980145"/>
     <use style="fill:#1f77b4;stroke:#1f77b4;" x="338.365013" xlink:href="#m9d2f913460" y="63.240031"/>
     <use style="fill:#1f77b4;stroke:#1f77b4;" x="369.8917" xlink:href="#m9d2f913460" y="60.232013"/>
     <use style="fill:#1f77b4;stroke:#1f77b4;" x="173.345571" xlink:href="#m9d2f913460" y="101.161015"/>
     <use style="fill:#1f77b4;stroke:#1f77b4;" x="348.369994" xlink:href="#m9d2f913460" y="60.232013"/>
     <use style="fill:#1f77b4;stroke:#1f77b4;" x="360.711643" xlink:href="#m9d2f913460" y="63.525151"/>
     <use style="fill:#1f77b4;stroke:#1f77b4;" x="350.793834" xlink:href="#m9d2f913460" y="57.281019"/>
     <use style="fill:#1f77b4;stroke:#1f77b4;" x="266.814183" xlink:href="#m9d2f913460" y="82.214779"/>
     <use style="fill:#1f77b4;stroke:#1f77b4;" x="372.052233" xlink:href="#m9d2f913460" y="53.602969"/>
     <use style="fill:#1f77b4;stroke:#1f77b4;" x="363.315362" xlink:href="#m9d2f913460" y="71.13786"/>
     <use style="fill:#1f77b4;stroke:#1f77b4;" x="210.254317" xlink:href="#m9d2f913460" y="89.399808"/>
     <use style="fill:#1f77b4;stroke:#1f77b4;" x="232.971018" xlink:href="#m9d2f913460" y="102.002119"/>
     <use style="fill:#1f77b4;stroke:#1f77b4;" x="280.595696" xlink:href="#m9d2f913460" y="78.665033"/>
     <use style="fill:#1f77b4;stroke:#1f77b4;" x="317.722749" xlink:href="#m9d2f913460" y="79.035689"/>
     <use style="fill:#1f77b4;stroke:#1f77b4;" x="388.560637" xlink:href="#m9d2f913460" y="53.873833"/>
     <use style="fill:#1f77b4;stroke:#1f77b4;" x="343.519805" xlink:href="#m9d2f913460" y="60.232013"/>
     <use style="fill:#1f77b4;stroke:#1f77b4;" x="230.931585" xlink:href="#m9d2f913460" y="93.519794"/>
     <use style="fill:#1f77b4;stroke:#1f77b4;" x="287.279953" xlink:href="#m9d2f913460" y="75.286359"/>
     <use style="fill:#1f77b4;stroke:#1f77b4;" x="366.067141" xlink:href="#m9d2f913460" y="59.1343"/>
     <use style="fill:#1f77b4;stroke:#1f77b4;" x="383.547295" xlink:href="#m9d2f913460" y="54.372793"/>
     <use style="fill:#1f77b4;stroke:#1f77b4;" x="277.496227" xlink:href="#m9d2f913460" y="95.430099"/>
     <use style="fill:#1f77b4;stroke:#1f77b4;" x="186.130008" xlink:href="#m9d2f913460" y="94.517715"/>
     <use style="fill:#1f77b4;stroke:#1f77b4;" x="313.221406" xlink:href="#m9d2f913460" y="67.402786"/>
     <use style="fill:#1f77b4;stroke:#1f77b4;" x="328.671206" xlink:href="#m9d2f913460" y="63.582175"/>
     <use style="fill:#1f77b4;stroke:#1f77b4;" x="309.209482" xlink:href="#m9d2f913460" y="75.813831"/>
     <use style="fill:#1f77b4;stroke:#1f77b4;" x="315.226671" xlink:href="#m9d2f913460" y="81.060042"/>
     <use style="fill:#1f77b4;stroke:#1f77b4;" x="239.074303" xlink:href="#m9d2f913460" y="86.477326"/>
     <use style="fill:#1f77b4;stroke:#1f77b4;" x="361.103577" xlink:href="#m9d2f913460" y="59.1343"/>
     <use style="fill:#1f77b4;stroke:#1f77b4;" x="287.296838" xlink:href="#m9d2f913460" y="89.699184"/>
     <use style="fill:#1f77b4;stroke:#1f77b4;" x="416.645857" xlink:href="#m9d2f913460" y="61.10163"/>
     <use style="fill:#1f77b4;stroke:#1f77b4;" x="325.638479" xlink:href="#m9d2f913460" y="60.003917"/>
     <use style="fill:#1f77b4;stroke:#1f77b4;" x="320.422878" xlink:href="#m9d2f913460" y="80.190426"/>
     <use style="fill:#1f77b4;stroke:#1f77b4;" x="271.475294" xlink:href="#m9d2f913460" y="77.752648"/>
     <use style="fill:#1f77b4;stroke:#1f77b4;" x="304.233454" xlink:href="#m9d2f913460" y="100.476726"/>
     <use style="fill:#1f77b4;stroke:#1f77b4;" x="280.744473" xlink:href="#m9d2f913460" y="81.231114"/>
     <use style="fill:#1f77b4;stroke:#1f77b4;" x="348.550749" xlink:href="#m9d2f913460" y="57.794236"/>
     <use style="fill:#1f77b4;stroke:#1f77b4;" x="352.372122" xlink:href="#m9d2f913460" y="57.281019"/>
     <use style="fill:#1f77b4;stroke:#1f77b4;" x="193.58061" xlink:href="#m9d2f913460" y="97.753829"/>
     <use style="fill:#1f77b4;stroke:#1f77b4;" x="398.117096" xlink:href="#m9d2f913460" y="57.56614"/>
     <use style="fill:#1f77b4;stroke:#1f77b4;" x="364.011938" xlink:href="#m9d2f913460" y="57.010155"/>
     <use style="fill:#1f77b4;stroke:#1f77b4;" x="188.987316" xlink:href="#m9d2f913460" y="94.517715"/>
     <use style="fill:#1f77b4;stroke:#1f77b4;" x="336.335735" xlink:href="#m9d2f913460" y="60.232013"/>
     <use style="fill:#1f77b4;stroke:#1f77b4;" x="350.142576" xlink:href="#m9d2f913460" y="62.370415"/>
     <use style="fill:#1f77b4;stroke:#1f77b4;" x="380.487249" xlink:href="#m9d2f913460" y="69.840563"/>
     <use style="fill:#1f77b4;stroke:#1f77b4;" x="401.349453" xlink:href="#m9d2f913460" y="49.397446"/>
     <use style="fill:#1f77b4;stroke:#1f77b4;" x="372.412826" xlink:href="#m9d2f913460" y="60.160733"/>
     <use style="fill:#1f77b4;stroke:#1f77b4;" x="267.943989" xlink:href="#m9d2f913460" y="89.699184"/>
     <use style="fill:#1f77b4;stroke:#1f77b4;" x="375.230034" xlink:href="#m9d2f913460" y="51.906504"/>
     <use style="fill:#1f77b4;stroke:#1f77b4;" x="353.714501" xlink:href="#m9d2f913460" y="59.1343"/>
     <use style="fill:#1f77b4;stroke:#1f77b4;" x="361.403043" xlink:href="#m9d2f913460" y="63.525151"/>
     <use style="fill:#1f77b4;stroke:#1f77b4;" x="374.82683" xlink:href="#m9d2f913460" y="54.372793"/>
     <use style="fill:#1f77b4;stroke:#1f77b4;" x="318.976005" xlink:href="#m9d2f913460" y="63.981344"/>
     <use style="fill:#1f77b4;stroke:#1f77b4;" x="381.959171" xlink:href="#m9d2f913460" y="61.016094"/>
     <use style="fill:#1f77b4;stroke:#1f77b4;" x="360.760506" xlink:href="#m9d2f913460" y="56.069259"/>
     <use style="fill:#1f77b4;stroke:#1f77b4;" x="357.143621" xlink:href="#m9d2f913460" y="67.203202"/>
     <use style="fill:#1f77b4;stroke:#1f77b4;" x="381.045004" xlink:href="#m9d2f913460" y="54.81473"/>
     <use style="fill:#1f77b4;stroke:#1f77b4;" x="337.761502" xlink:href="#m9d2f913460" y="78.921641"/>
     <use style="fill:#1f77b4;stroke:#1f77b4;" x="214.04873" xlink:href="#m9d2f913460" y="95.244771"/>
     <use style="fill:#1f77b4;stroke:#1f77b4;" x="346.801463" xlink:href="#m9d2f913460" y="57.537627"/>
     <use style="fill:#1f77b4;stroke:#1f77b4;" x="188.204325" xlink:href="#m9d2f913460" y="96.21418"/>
     <use style="fill:#1f77b4;stroke:#1f77b4;" x="258.037449" xlink:href="#m9d2f913460" y="98.666213"/>
     <use style="fill:#1f77b4;stroke:#1f77b4;" x="355.735058" xlink:href="#m9d2f913460" y="64.836704"/>
     <use style="fill:#1f77b4;stroke:#1f77b4;" x="267.576148" xlink:href="#m9d2f913460" y="82.214779"/>
     <use style="fill:#1f77b4;stroke:#1f77b4;" x="249.364573" xlink:href="#m9d2f913460" y="102.002119"/>
     <use style="fill:#1f77b4;stroke:#1f77b4;" x="389.788446" xlink:href="#m9d2f913460" y="57.56614"/>
     <use style="fill:#1f77b4;stroke:#1f77b4;" x="280.340115" xlink:href="#m9d2f913460" y="79.035689"/>
     <use style="fill:#1f77b4;stroke:#1f77b4;" x="319.086314" xlink:href="#m9d2f913460" y="75.813831"/>
     <use style="fill:#1f77b4;stroke:#1f77b4;" x="225.695515" xlink:href="#m9d2f913460" y="93.519794"/>
     <use style="fill:#1f77b4;stroke:#1f77b4;" x="271.316362" xlink:href="#m9d2f913460" y="82.499899"/>
     <use style="fill:#1f77b4;stroke:#1f77b4;" x="399.095855" xlink:href="#m9d2f913460" y="54.515354"/>
     <use style="fill:#1f77b4;stroke:#1f77b4;" x="329.452286" xlink:href="#m9d2f913460" y="73.319029"/>
     <use style="fill:#1f77b4;stroke:#1f77b4;" x="398.768195" xlink:href="#m9d2f913460" y="55.841162"/>
     <use style="fill:#1f77b4;stroke:#1f77b4;" x="358.628525" xlink:href="#m9d2f913460" y="52.647816"/>
     <use style="fill:#1f77b4;stroke:#1f77b4;" x="401.486762" xlink:href="#m9d2f913460" y="55.841162"/>
     <use style="fill:#1f77b4;stroke:#1f77b4;" x="393.309836" xlink:href="#m9d2f913460" y="57.56614"/>
     <use style="fill:#1f77b4;stroke:#1f77b4;" x="278.85099" xlink:href="#m9d2f913460" y="78.665033"/>
     <use style="fill:#1f77b4;stroke:#1f77b4;" x="277.072196" xlink:href="#m9d2f913460" y="80.147658"/>
     <use style="fill:#1f77b4;stroke:#1f77b4;" x="197.741032" xlink:href="#m9d2f913460" y="100.861639"/>
     <use style="fill:#1f77b4;stroke:#1f77b4;" x="276.453752" xlink:href="#m9d2f913460" y="77.724136"/>
     <use style="fill:#1f77b4;stroke:#1f77b4;" x="372.368145" xlink:href="#m9d2f913460" y="51.906504"/>
     <use style="fill:#1f77b4;stroke:#1f77b4;" x="329.558851" xlink:href="#m9d2f913460" y="63.981344"/>
     <use style="fill:#1f77b4;stroke:#1f77b4;" x="161.462519" xlink:href="#m9d2f913460" y="111.496621"/>
     <use style="fill:#1f77b4;stroke:#1f77b4;" x="361.841051" xlink:href="#m9d2f913460" y="57.794236"/>
     <use style="fill:#1f77b4;stroke:#1f77b4;" x="403.333891" xlink:href="#m9d2f913460" y="50.409623"/>
     <use style="fill:#1f77b4;stroke:#1f77b4;" x="245.106187" xlink:href="#m9d2f913460" y="80.945994"/>
     <use style="fill:#1f77b4;stroke:#1f77b4;" x="334.416128" xlink:href="#m9d2f913460" y="78.308633"/>
     <use style="fill:#1f77b4;stroke:#1f77b4;" x="390.415293" xlink:href="#m9d2f913460" y="55.841162"/>
     <use style="fill:#1f77b4;stroke:#1f77b4;" x="364.86888" xlink:href="#m9d2f913460" y="53.602969"/>
     <use style="fill:#1f77b4;stroke:#1f77b4;" x="315.517854" xlink:href="#m9d2f913460" y="72.677509"/>
     <use style="fill:#1f77b4;stroke:#1f77b4;" x="192.953245" xlink:href="#m9d2f913460" y="94.517715"/>
     <use style="fill:#1f77b4;stroke:#1f77b4;" x="370.090136" xlink:href="#m9d2f913460" y="53.531689"/>
     <use style="fill:#1f77b4;stroke:#1f77b4;" x="364.492437" xlink:href="#m9d2f913460" y="53.602969"/>
     <use style="fill:#1f77b4;stroke:#1f77b4;" x="326.911567" xlink:href="#m9d2f913460" y="62.256366"/>
     <use style="fill:#1f77b4;stroke:#1f77b4;" x="285.268078" xlink:href="#m9d2f913460" y="88.858079"/>
     <use style="fill:#1f77b4;stroke:#1f77b4;" x="314.604523" xlink:href="#m9d2f913460" y="67.38853"/>
     <use style="fill:#1f77b4;stroke:#1f77b4;" x="381.430924" xlink:href="#m9d2f913460" y="54.81473"/>
     <use style="fill:#1f77b4;stroke:#1f77b4;" x="308.49849" xlink:href="#m9d2f913460" y="77.111128"/>
     <use style="fill:#1f77b4;stroke:#1f77b4;" x="237.420751" xlink:href="#m9d2f913460" y="88.487423"/>
     <use style="fill:#1f77b4;stroke:#1f77b4;" x="395.745981" xlink:href="#m9d2f913460" y="52.56228"/>
     <use style="fill:#1f77b4;stroke:#1f77b4;" x="310.083627" xlink:href="#m9d2f913460" y="81.060042"/>
     <use style="fill:#1f77b4;stroke:#1f77b4;" x="356.465443" xlink:href="#m9d2f913460" y="57.537627"/>
     <use style="fill:#1f77b4;stroke:#1f77b4;" x="363.111112" xlink:href="#m9d2f913460" y="56.069259"/>
     <use style="fill:#1f77b4;stroke:#1f77b4;" x="327.630443" xlink:href="#m9d2f913460" y="68.571778"/>
     <use style="fill:#1f77b4;stroke:#1f77b4;" x="397.840608" xlink:href="#m9d2f913460" y="61.971246"/>
     <use style="fill:#1f77b4;stroke:#1f77b4;" x="312.844804" xlink:href="#m9d2f913460" y="64.20944"/>
     <use style="fill:#1f77b4;stroke:#1f77b4;" x="289.220308" xlink:href="#m9d2f913460" y="77.196664"/>
     <use style="fill:#1f77b4;stroke:#1f77b4;" x="358.110792" xlink:href="#m9d2f913460" y="57.537627"/>
     <use style="fill:#1f77b4;stroke:#1f77b4;" x="323.202891" xlink:href="#m9d2f913460" y="86.46307"/>
     <use style="fill:#1f77b4;stroke:#1f77b4;" x="275.960908" xlink:href="#m9d2f913460" y="81.986683"/>
     <use style="fill:#1f77b4;stroke:#1f77b4;" x="179.214143" xlink:href="#m9d2f913460" y="101.161015"/>
     <use style="fill:#1f77b4;stroke:#1f77b4;" x="427.241327" xlink:href="#m9d2f913460" y="56.382891"/>
     <use style="fill:#1f77b4;stroke:#1f77b4;" x="386.298715" xlink:href="#m9d2f913460" y="61.971246"/>
     <use style="fill:#1f77b4;stroke:#1f77b4;" x="185.876457" xlink:href="#m9d2f913460" y="97.753829"/>
     <use style="fill:#1f77b4;stroke:#1f77b4;" x="348.588421" xlink:href="#m9d2f913460" y="52.647816"/>
     <use style="fill:#1f77b4;stroke:#1f77b4;" x="244.50415" xlink:href="#m9d2f913460" y="80.945994"/>
     <use style="fill:#1f77b4;stroke:#1f77b4;" x="408.00468" xlink:href="#m9d2f913460" y="47.700981"/>
     <use style="fill:#1f77b4;stroke:#1f77b4;" x="297.693633" xlink:href="#m9d2f913460" y="81.986683"/>
     <use style="fill:#1f77b4;stroke:#1f77b4;" x="210.158026" xlink:href="#m9d2f913460" y="96.21418"/>
     <use style="fill:#1f77b4;stroke:#1f77b4;" x="261.846955" xlink:href="#m9d2f913460" y="84.338924"/>
     <use style="fill:#1f77b4;stroke:#1f77b4;" x="407.785656" xlink:href="#m9d2f913460" y="54.515354"/>
     <use style="fill:#1f77b4;stroke:#1f77b4;" x="401.157469" xlink:href="#m9d2f913460" y="53.360617"/>
     <use style="fill:#1f77b4;stroke:#1f77b4;" x="339.275755" xlink:href="#m9d2f913460" y="69.027971"/>
     <use style="fill:#1f77b4;stroke:#1f77b4;" x="359.658456" xlink:href="#m9d2f913460" y="55.441994"/>
     <use style="fill:#1f77b4;stroke:#1f77b4;" x="384.564044" xlink:href="#m9d2f913460" y="65.34992"/>
     <use style="fill:#1f77b4;stroke:#1f77b4;" x="383.255992" xlink:href="#m9d2f913460" y="47.700981"/>
     <use style="fill:#1f77b4;stroke:#1f77b4;" x="331.120851" xlink:href="#m9d2f913460" y="88.843823"/>
     <use style="fill:#1f77b4;stroke:#1f77b4;" x="337.082448" xlink:href="#m9d2f913460" y="63.240031"/>
     <use style="fill:#1f77b4;stroke:#1f77b4;" x="315.03835" xlink:href="#m9d2f913460" y="73.490102"/>
     <use style="fill:#1f77b4;stroke:#1f77b4;" x="341.155619" xlink:href="#m9d2f913460" y="68.329426"/>
     <use style="fill:#1f77b4;stroke:#1f77b4;" x="243.314212" xlink:href="#m9d2f913460" y="88.672751"/>
     <use style="fill:#1f77b4;stroke:#1f77b4;" x="347.770665" xlink:href="#m9d2f913460" y="67.402786"/>
     <use style="fill:#1f77b4;stroke:#1f77b4;" x="327.263359" xlink:href="#m9d2f913460" y="79.035689"/>
     <use style="fill:#1f77b4;stroke:#1f77b4;" x="245.46009" xlink:href="#m9d2f913460" y="88.045487"/>
     <use style="fill:#1f77b4;stroke:#1f77b4;" x="282.357526" xlink:href="#m9d2f913460" y="78.436937"/>
     <use style="fill:#1f77b4;stroke:#1f77b4;" x="371.567035" xlink:href="#m9d2f913460" y="57.010155"/>
     <use style="fill:#1f77b4;stroke:#1f77b4;" x="323.683629" xlink:href="#m9d2f913460" y="74.587814"/>
     <use style="fill:#1f77b4;stroke:#1f77b4;" x="377.851911" xlink:href="#m9d2f913460" y="50.409623"/>
     <use style="fill:#1f77b4;stroke:#1f77b4;" x="396.922817" xlink:href="#m9d2f913460" y="52.56228"/>
     <use style="fill:#1f77b4;stroke:#1f77b4;" x="315.489978" xlink:href="#m9d2f913460" y="77.724136"/>
     <use style="fill:#1f77b4;stroke:#1f77b4;" x="259.853836" xlink:href="#m9d2f913460" y="73.803734"/>
     <use style="fill:#1f77b4;stroke:#1f77b4;" x="282.566157" xlink:href="#m9d2f913460" y="73.803734"/>
     <use style="fill:#1f77b4;stroke:#1f77b4;" x="316.240753" xlink:href="#m9d2f913460" y="70.054403"/>
     <use style="fill:#1f77b4;stroke:#1f77b4;" x="290.965412" xlink:href="#m9d2f913460" y="72.463669"/>
     <use style="fill:#1f77b4;stroke:#1f77b4;" x="378.984863" xlink:href="#m9d2f913460" y="81.273882"/>
     <use style="fill:#1f77b4;stroke:#1f77b4;" x="385.146569" xlink:href="#m9d2f913460" y="60.474365"/>
     <use style="fill:#1f77b4;stroke:#1f77b4;" x="301.075763" xlink:href="#m9d2f913460" y="73.490102"/>
    </g>
   </g>
   <g id="matplotlib.axis_1">
    <g id="xtick_1">
     <g id="line2d_1">
      <path clip-path="url(#p5a414036e4)" d="M 81.859821 191.6775 
L 81.859821 25.3575 
" style="fill:none;stroke:#b0b0b0;stroke-linecap:square;stroke-width:0.8;"/>
     </g>
     <g id="line2d_2">
      <defs>
       <path d="M 0 0 
L 0 3.5 
" id="m9ea319a3c6" style="stroke:#000000;stroke-width:0.8;"/>
      </defs>
      <g>
       <use style="stroke:#000000;stroke-width:0.8;" x="81.859821" xlink:href="#m9ea319a3c6" y="191.6775"/>
      </g>
     </g>
     <g id="text_1">
      <!-- 0.4 -->
      <defs>
       <path d="M 31.78125 66.40625 
Q 24.171875 66.40625 20.328125 58.90625 
Q 16.5 51.421875 16.5 36.375 
Q 16.5 21.390625 20.328125 13.890625 
Q 24.171875 6.390625 31.78125 6.390625 
Q 39.453125 6.390625 43.28125 13.890625 
Q 47.125 21.390625 47.125 36.375 
Q 47.125 51.421875 43.28125 58.90625 
Q 39.453125 66.40625 31.78125 66.40625 
z
M 31.78125 74.21875 
Q 44.046875 74.21875 50.515625 64.515625 
Q 56.984375 54.828125 56.984375 36.375 
Q 56.984375 17.96875 50.515625 8.265625 
Q 44.046875 -1.421875 31.78125 -1.421875 
Q 19.53125 -1.421875 13.0625 8.265625 
Q 6.59375 17.96875 6.59375 36.375 
Q 6.59375 54.828125 13.0625 64.515625 
Q 19.53125 74.21875 31.78125 74.21875 
z
" id="DejaVuSans-48"/>
       <path d="M 10.6875 12.40625 
L 21 12.40625 
L 21 0 
L 10.6875 0 
z
" id="DejaVuSans-46"/>
       <path d="M 37.796875 64.3125 
L 12.890625 25.390625 
L 37.796875 25.390625 
z
M 35.203125 72.90625 
L 47.609375 72.90625 
L 47.609375 25.390625 
L 58.015625 25.390625 
L 58.015625 17.1875 
L 47.609375 17.1875 
L 47.609375 0 
L 37.796875 0 
L 37.796875 17.1875 
L 4.890625 17.1875 
L 4.890625 26.703125 
z
" id="DejaVuSans-52"/>
      </defs>
      <g transform="translate(73.908258 206.275938)scale(0.1 -0.1)">
       <use xlink:href="#DejaVuSans-48"/>
       <use x="63.623047" xlink:href="#DejaVuSans-46"/>
       <use x="95.410156" xlink:href="#DejaVuSans-52"/>
      </g>
     </g>
    </g>
    <g id="xtick_2">
     <g id="line2d_3">
      <path clip-path="url(#p5a414036e4)" d="M 148.670994 191.6775 
L 148.670994 25.3575 
" style="fill:none;stroke:#b0b0b0;stroke-linecap:square;stroke-width:0.8;"/>
     </g>
     <g id="line2d_4">
      <g>
       <use style="stroke:#000000;stroke-width:0.8;" x="148.670994" xlink:href="#m9ea319a3c6" y="191.6775"/>
      </g>
     </g>
     <g id="text_2">
      <!-- 0.5 -->
      <defs>
       <path d="M 10.796875 72.90625 
L 49.515625 72.90625 
L 49.515625 64.59375 
L 19.828125 64.59375 
L 19.828125 46.734375 
Q 21.96875 47.46875 24.109375 47.828125 
Q 26.265625 48.1875 28.421875 48.1875 
Q 40.625 48.1875 47.75 41.5 
Q 54.890625 34.8125 54.890625 23.390625 
Q 54.890625 11.625 47.5625 5.09375 
Q 40.234375 -1.421875 26.90625 -1.421875 
Q 22.3125 -1.421875 17.546875 -0.640625 
Q 12.796875 0.140625 7.71875 1.703125 
L 7.71875 11.625 
Q 12.109375 9.234375 16.796875 8.0625 
Q 21.484375 6.890625 26.703125 6.890625 
Q 35.15625 6.890625 40.078125 11.328125 
Q 45.015625 15.765625 45.015625 23.390625 
Q 45.015625 31 40.078125 35.4375 
Q 35.15625 39.890625 26.703125 39.890625 
Q 22.75 39.890625 18.8125 39.015625 
Q 14.890625 38.140625 10.796875 36.28125 
z
" id="DejaVuSans-53"/>
      </defs>
      <g transform="translate(140.719431 206.275938)scale(0.1 -0.1)">
       <use xlink:href="#DejaVuSans-48"/>
       <use x="63.623047" xlink:href="#DejaVuSans-46"/>
       <use x="95.410156" xlink:href="#DejaVuSans-53"/>
      </g>
     </g>
    </g>
    <g id="xtick_3">
     <g id="line2d_5">
      <path clip-path="url(#p5a414036e4)" d="M 215.482167 191.6775 
L 215.482167 25.3575 
" style="fill:none;stroke:#b0b0b0;stroke-linecap:square;stroke-width:0.8;"/>
     </g>
     <g id="line2d_6">
      <g>
       <use style="stroke:#000000;stroke-width:0.8;" x="215.482167" xlink:href="#m9ea319a3c6" y="191.6775"/>
      </g>
     </g>
     <g id="text_3">
      <!-- 0.6 -->
      <defs>
       <path d="M 33.015625 40.375 
Q 26.375 40.375 22.484375 35.828125 
Q 18.609375 31.296875 18.609375 23.390625 
Q 18.609375 15.53125 22.484375 10.953125 
Q 26.375 6.390625 33.015625 6.390625 
Q 39.65625 6.390625 43.53125 10.953125 
Q 47.40625 15.53125 47.40625 23.390625 
Q 47.40625 31.296875 43.53125 35.828125 
Q 39.65625 40.375 33.015625 40.375 
z
M 52.59375 71.296875 
L 52.59375 62.3125 
Q 48.875 64.0625 45.09375 64.984375 
Q 41.3125 65.921875 37.59375 65.921875 
Q 27.828125 65.921875 22.671875 59.328125 
Q 17.53125 52.734375 16.796875 39.40625 
Q 19.671875 43.65625 24.015625 45.921875 
Q 28.375 48.1875 33.59375 48.1875 
Q 44.578125 48.1875 50.953125 41.515625 
Q 57.328125 34.859375 57.328125 23.390625 
Q 57.328125 12.15625 50.6875 5.359375 
Q 44.046875 -1.421875 33.015625 -1.421875 
Q 20.359375 -1.421875 13.671875 8.265625 
Q 6.984375 17.96875 6.984375 36.375 
Q 6.984375 53.65625 15.1875 63.9375 
Q 23.390625 74.21875 37.203125 74.21875 
Q 40.921875 74.21875 44.703125 73.484375 
Q 48.484375 72.75 52.59375 71.296875 
z
" id="DejaVuSans-54"/>
      </defs>
      <g transform="translate(207.530605 206.275938)scale(0.1 -0.1)">
       <use xlink:href="#DejaVuSans-48"/>
       <use x="63.623047" xlink:href="#DejaVuSans-46"/>
       <use x="95.410156" xlink:href="#DejaVuSans-54"/>
      </g>
     </g>
    </g>
    <g id="xtick_4">
     <g id="line2d_7">
      <path clip-path="url(#p5a414036e4)" d="M 282.29334 191.6775 
L 282.29334 25.3575 
" style="fill:none;stroke:#b0b0b0;stroke-linecap:square;stroke-width:0.8;"/>
     </g>
     <g id="line2d_8">
      <g>
       <use style="stroke:#000000;stroke-width:0.8;" x="282.29334" xlink:href="#m9ea319a3c6" y="191.6775"/>
      </g>
     </g>
     <g id="text_4">
      <!-- 0.7 -->
      <defs>
       <path d="M 8.203125 72.90625 
L 55.078125 72.90625 
L 55.078125 68.703125 
L 28.609375 0 
L 18.3125 0 
L 43.21875 64.59375 
L 8.203125 64.59375 
z
" id="DejaVuSans-55"/>
      </defs>
      <g transform="translate(274.341778 206.275938)scale(0.1 -0.1)">
       <use xlink:href="#DejaVuSans-48"/>
       <use x="63.623047" xlink:href="#DejaVuSans-46"/>
       <use x="95.410156" xlink:href="#DejaVuSans-55"/>
      </g>
     </g>
    </g>
    <g id="xtick_5">
     <g id="line2d_9">
      <path clip-path="url(#p5a414036e4)" d="M 349.104513 191.6775 
L 349.104513 25.3575 
" style="fill:none;stroke:#b0b0b0;stroke-linecap:square;stroke-width:0.8;"/>
     </g>
     <g id="line2d_10">
      <g>
       <use style="stroke:#000000;stroke-width:0.8;" x="349.104513" xlink:href="#m9ea319a3c6" y="191.6775"/>
      </g>
     </g>
     <g id="text_5">
      <!-- 0.8 -->
      <defs>
       <path d="M 31.78125 34.625 
Q 24.75 34.625 20.71875 30.859375 
Q 16.703125 27.09375 16.703125 20.515625 
Q 16.703125 13.921875 20.71875 10.15625 
Q 24.75 6.390625 31.78125 6.390625 
Q 38.8125 6.390625 42.859375 10.171875 
Q 46.921875 13.96875 46.921875 20.515625 
Q 46.921875 27.09375 42.890625 30.859375 
Q 38.875 34.625 31.78125 34.625 
z
M 21.921875 38.8125 
Q 15.578125 40.375 12.03125 44.71875 
Q 8.5 49.078125 8.5 55.328125 
Q 8.5 64.0625 14.71875 69.140625 
Q 20.953125 74.21875 31.78125 74.21875 
Q 42.671875 74.21875 48.875 69.140625 
Q 55.078125 64.0625 55.078125 55.328125 
Q 55.078125 49.078125 51.53125 44.71875 
Q 48 40.375 41.703125 38.8125 
Q 48.828125 37.15625 52.796875 32.3125 
Q 56.78125 27.484375 56.78125 20.515625 
Q 56.78125 9.90625 50.3125 4.234375 
Q 43.84375 -1.421875 31.78125 -1.421875 
Q 19.734375 -1.421875 13.25 4.234375 
Q 6.78125 9.90625 6.78125 20.515625 
Q 6.78125 27.484375 10.78125 32.3125 
Q 14.796875 37.15625 21.921875 38.8125 
z
M 18.3125 54.390625 
Q 18.3125 48.734375 21.84375 45.5625 
Q 25.390625 42.390625 31.78125 42.390625 
Q 38.140625 42.390625 41.71875 45.5625 
Q 45.3125 48.734375 45.3125 54.390625 
Q 45.3125 60.0625 41.71875 63.234375 
Q 38.140625 66.40625 31.78125 66.40625 
Q 25.390625 66.40625 21.84375 63.234375 
Q 18.3125 60.0625 18.3125 54.390625 
z
" id="DejaVuSans-56"/>
      </defs>
      <g transform="translate(341.152951 206.275938)scale(0.1 -0.1)">
       <use xlink:href="#DejaVuSans-48"/>
       <use x="63.623047" xlink:href="#DejaVuSans-46"/>
       <use x="95.410156" xlink:href="#DejaVuSans-56"/>
      </g>
     </g>
    </g>
    <g id="xtick_6">
     <g id="line2d_11">
      <path clip-path="url(#p5a414036e4)" d="M 415.915687 191.6775 
L 415.915687 25.3575 
" style="fill:none;stroke:#b0b0b0;stroke-linecap:square;stroke-width:0.8;"/>
     </g>
     <g id="line2d_12">
      <g>
       <use style="stroke:#000000;stroke-width:0.8;" x="415.915687" xlink:href="#m9ea319a3c6" y="191.6775"/>
      </g>
     </g>
     <g id="text_6">
      <!-- 0.9 -->
      <defs>
       <path d="M 10.984375 1.515625 
L 10.984375 10.5 
Q 14.703125 8.734375 18.5 7.8125 
Q 22.3125 6.890625 25.984375 6.890625 
Q 35.75 6.890625 40.890625 13.453125 
Q 46.046875 20.015625 46.78125 33.40625 
Q 43.953125 29.203125 39.59375 26.953125 
Q 35.25 24.703125 29.984375 24.703125 
Q 19.046875 24.703125 12.671875 31.3125 
Q 6.296875 37.9375 6.296875 49.421875 
Q 6.296875 60.640625 12.9375 67.421875 
Q 19.578125 74.21875 30.609375 74.21875 
Q 43.265625 74.21875 49.921875 64.515625 
Q 56.59375 54.828125 56.59375 36.375 
Q 56.59375 19.140625 48.40625 8.859375 
Q 40.234375 -1.421875 26.421875 -1.421875 
Q 22.703125 -1.421875 18.890625 -0.6875 
Q 15.09375 0.046875 10.984375 1.515625 
z
M 30.609375 32.421875 
Q 37.25 32.421875 41.125 36.953125 
Q 45.015625 41.5 45.015625 49.421875 
Q 45.015625 57.28125 41.125 61.84375 
Q 37.25 66.40625 30.609375 66.40625 
Q 23.96875 66.40625 20.09375 61.84375 
Q 16.21875 57.28125 16.21875 49.421875 
Q 16.21875 41.5 20.09375 36.953125 
Q 23.96875 32.421875 30.609375 32.421875 
z
" id="DejaVuSans-57"/>
      </defs>
      <g transform="translate(407.964124 206.275938)scale(0.1 -0.1)">
       <use xlink:href="#DejaVuSans-48"/>
       <use x="63.623047" xlink:href="#DejaVuSans-46"/>
       <use x="95.410156" xlink:href="#DejaVuSans-57"/>
      </g>
     </g>
    </g>
    <g id="xtick_7">
     <g id="line2d_13">
      <path clip-path="url(#p5a414036e4)" d="M 482.72686 191.6775 
L 482.72686 25.3575 
" style="fill:none;stroke:#b0b0b0;stroke-linecap:square;stroke-width:0.8;"/>
     </g>
     <g id="line2d_14">
      <g>
       <use style="stroke:#000000;stroke-width:0.8;" x="482.72686" xlink:href="#m9ea319a3c6" y="191.6775"/>
      </g>
     </g>
     <g id="text_7">
      <!-- 1.0 -->
      <defs>
       <path d="M 12.40625 8.296875 
L 28.515625 8.296875 
L 28.515625 63.921875 
L 10.984375 60.40625 
L 10.984375 69.390625 
L 28.421875 72.90625 
L 38.28125 72.90625 
L 38.28125 8.296875 
L 54.390625 8.296875 
L 54.390625 0 
L 12.40625 0 
z
" id="DejaVuSans-49"/>
      </defs>
      <g transform="translate(474.775297 206.275938)scale(0.1 -0.1)">
       <use xlink:href="#DejaVuSans-49"/>
       <use x="63.623047" xlink:href="#DejaVuSans-46"/>
       <use x="95.410156" xlink:href="#DejaVuSans-48"/>
      </g>
     </g>
    </g>
    <g id="text_8">
     <!-- Predictions -->
     <defs>
      <path d="M 19.671875 64.796875 
L 19.671875 37.40625 
L 32.078125 37.40625 
Q 38.96875 37.40625 42.71875 40.96875 
Q 46.484375 44.53125 46.484375 51.125 
Q 46.484375 57.671875 42.71875 61.234375 
Q 38.96875 64.796875 32.078125 64.796875 
z
M 9.8125 72.90625 
L 32.078125 72.90625 
Q 44.34375 72.90625 50.609375 67.359375 
Q 56.890625 61.8125 56.890625 51.125 
Q 56.890625 40.328125 50.609375 34.8125 
Q 44.34375 29.296875 32.078125 29.296875 
L 19.671875 29.296875 
L 19.671875 0 
L 9.8125 0 
z
" id="DejaVuSans-80"/>
      <path d="M 41.109375 46.296875 
Q 39.59375 47.171875 37.8125 47.578125 
Q 36.03125 48 33.890625 48 
Q 26.265625 48 22.1875 43.046875 
Q 18.109375 38.09375 18.109375 28.8125 
L 18.109375 0 
L 9.078125 0 
L 9.078125 54.6875 
L 18.109375 54.6875 
L 18.109375 46.1875 
Q 20.953125 51.171875 25.484375 53.578125 
Q 30.03125 56 36.53125 56 
Q 37.453125 56 38.578125 55.875 
Q 39.703125 55.765625 41.0625 55.515625 
z
" id="DejaVuSans-114"/>
      <path d="M 56.203125 29.59375 
L 56.203125 25.203125 
L 14.890625 25.203125 
Q 15.484375 15.921875 20.484375 11.0625 
Q 25.484375 6.203125 34.421875 6.203125 
Q 39.59375 6.203125 44.453125 7.46875 
Q 49.3125 8.734375 54.109375 11.28125 
L 54.109375 2.78125 
Q 49.265625 0.734375 44.1875 -0.34375 
Q 39.109375 -1.421875 33.890625 -1.421875 
Q 20.796875 -1.421875 13.15625 6.1875 
Q 5.515625 13.8125 5.515625 26.8125 
Q 5.515625 40.234375 12.765625 48.109375 
Q 20.015625 56 32.328125 56 
Q 43.359375 56 49.78125 48.890625 
Q 56.203125 41.796875 56.203125 29.59375 
z
M 47.21875 32.234375 
Q 47.125 39.59375 43.09375 43.984375 
Q 39.0625 48.390625 32.421875 48.390625 
Q 24.90625 48.390625 20.390625 44.140625 
Q 15.875 39.890625 15.1875 32.171875 
z
" id="DejaVuSans-101"/>
      <path d="M 45.40625 46.390625 
L 45.40625 75.984375 
L 54.390625 75.984375 
L 54.390625 0 
L 45.40625 0 
L 45.40625 8.203125 
Q 42.578125 3.328125 38.25 0.953125 
Q 33.9375 -1.421875 27.875 -1.421875 
Q 17.96875 -1.421875 11.734375 6.484375 
Q 5.515625 14.40625 5.515625 27.296875 
Q 5.515625 40.1875 11.734375 48.09375 
Q 17.96875 56 27.875 56 
Q 33.9375 56 38.25 53.625 
Q 42.578125 51.265625 45.40625 46.390625 
z
M 14.796875 27.296875 
Q 14.796875 17.390625 18.875 11.75 
Q 22.953125 6.109375 30.078125 6.109375 
Q 37.203125 6.109375 41.296875 11.75 
Q 45.40625 17.390625 45.40625 27.296875 
Q 45.40625 37.203125 41.296875 42.84375 
Q 37.203125 48.484375 30.078125 48.484375 
Q 22.953125 48.484375 18.875 42.84375 
Q 14.796875 37.203125 14.796875 27.296875 
z
" id="DejaVuSans-100"/>
      <path d="M 9.421875 54.6875 
L 18.40625 54.6875 
L 18.40625 0 
L 9.421875 0 
z
M 9.421875 75.984375 
L 18.40625 75.984375 
L 18.40625 64.59375 
L 9.421875 64.59375 
z
" id="DejaVuSans-105"/>
      <path d="M 48.78125 52.59375 
L 48.78125 44.1875 
Q 44.96875 46.296875 41.140625 47.34375 
Q 37.3125 48.390625 33.40625 48.390625 
Q 24.65625 48.390625 19.8125 42.84375 
Q 14.984375 37.3125 14.984375 27.296875 
Q 14.984375 17.28125 19.8125 11.734375 
Q 24.65625 6.203125 33.40625 6.203125 
Q 37.3125 6.203125 41.140625 7.25 
Q 44.96875 8.296875 48.78125 10.40625 
L 48.78125 2.09375 
Q 45.015625 0.34375 40.984375 -0.53125 
Q 36.96875 -1.421875 32.421875 -1.421875 
Q 20.0625 -1.421875 12.78125 6.34375 
Q 5.515625 14.109375 5.515625 27.296875 
Q 5.515625 40.671875 12.859375 48.328125 
Q 20.21875 56 33.015625 56 
Q 37.15625 56 41.109375 55.140625 
Q 45.0625 54.296875 48.78125 52.59375 
z
" id="DejaVuSans-99"/>
      <path d="M 18.3125 70.21875 
L 18.3125 54.6875 
L 36.8125 54.6875 
L 36.8125 47.703125 
L 18.3125 47.703125 
L 18.3125 18.015625 
Q 18.3125 11.328125 20.140625 9.421875 
Q 21.96875 7.515625 27.59375 7.515625 
L 36.8125 7.515625 
L 36.8125 0 
L 27.59375 0 
Q 17.1875 0 13.234375 3.875 
Q 9.28125 7.765625 9.28125 18.015625 
L 9.28125 47.703125 
L 2.6875 47.703125 
L 2.6875 54.6875 
L 9.28125 54.6875 
L 9.28125 70.21875 
z
" id="DejaVuSans-116"/>
      <path d="M 30.609375 48.390625 
Q 23.390625 48.390625 19.1875 42.75 
Q 14.984375 37.109375 14.984375 27.296875 
Q 14.984375 17.484375 19.15625 11.84375 
Q 23.34375 6.203125 30.609375 6.203125 
Q 37.796875 6.203125 41.984375 11.859375 
Q 46.1875 17.53125 46.1875 27.296875 
Q 46.1875 37.015625 41.984375 42.703125 
Q 37.796875 48.390625 30.609375 48.390625 
z
M 30.609375 56 
Q 42.328125 56 49.015625 48.375 
Q 55.71875 40.765625 55.71875 27.296875 
Q 55.71875 13.875 49.015625 6.21875 
Q 42.328125 -1.421875 30.609375 -1.421875 
Q 18.84375 -1.421875 12.171875 6.21875 
Q 5.515625 13.875 5.515625 27.296875 
Q 5.515625 40.765625 12.171875 48.375 
Q 18.84375 56 30.609375 56 
z
" id="DejaVuSans-111"/>
      <path d="M 54.890625 33.015625 
L 54.890625 0 
L 45.90625 0 
L 45.90625 32.71875 
Q 45.90625 40.484375 42.875 44.328125 
Q 39.84375 48.1875 33.796875 48.1875 
Q 26.515625 48.1875 22.3125 43.546875 
Q 18.109375 38.921875 18.109375 30.90625 
L 18.109375 0 
L 9.078125 0 
L 9.078125 54.6875 
L 18.109375 54.6875 
L 18.109375 46.1875 
Q 21.34375 51.125 25.703125 53.5625 
Q 30.078125 56 35.796875 56 
Q 45.21875 56 50.046875 50.171875 
Q 54.890625 44.34375 54.890625 33.015625 
z
" id="DejaVuSans-110"/>
      <path d="M 44.28125 53.078125 
L 44.28125 44.578125 
Q 40.484375 46.53125 36.375 47.5 
Q 32.28125 48.484375 27.875 48.484375 
Q 21.1875 48.484375 17.84375 46.4375 
Q 14.5 44.390625 14.5 40.28125 
Q 14.5 37.15625 16.890625 35.375 
Q 19.28125 33.59375 26.515625 31.984375 
L 29.59375 31.296875 
Q 39.15625 29.25 43.1875 25.515625 
Q 47.21875 21.78125 47.21875 15.09375 
Q 47.21875 7.46875 41.1875 3.015625 
Q 35.15625 -1.421875 24.609375 -1.421875 
Q 20.21875 -1.421875 15.453125 -0.5625 
Q 10.6875 0.296875 5.421875 2 
L 5.421875 11.28125 
Q 10.40625 8.6875 15.234375 7.390625 
Q 20.0625 6.109375 24.8125 6.109375 
Q 31.15625 6.109375 34.5625 8.28125 
Q 37.984375 10.453125 37.984375 14.40625 
Q 37.984375 18.0625 35.515625 20.015625 
Q 33.0625 21.96875 24.703125 23.78125 
L 21.578125 24.515625 
Q 13.234375 26.265625 9.515625 29.90625 
Q 5.8125 33.546875 5.8125 39.890625 
Q 5.8125 47.609375 11.28125 51.796875 
Q 16.75 56 26.8125 56 
Q 31.78125 56 36.171875 55.265625 
Q 40.578125 54.546875 44.28125 53.078125 
z
" id="DejaVuSans-115"/>
     </defs>
     <g transform="translate(232.157812 222.993438)scale(0.14 -0.14)">
      <use xlink:href="#DejaVuSans-80"/>
      <use x="60.287109" xlink:href="#DejaVuSans-114"/>
      <use x="101.369141" xlink:href="#DejaVuSans-101"/>
      <use x="162.892578" xlink:href="#DejaVuSans-100"/>
      <use x="226.369141" xlink:href="#DejaVuSans-105"/>
      <use x="254.152344" xlink:href="#DejaVuSans-99"/>
      <use x="309.132812" xlink:href="#DejaVuSans-116"/>
      <use x="348.341797" xlink:href="#DejaVuSans-105"/>
      <use x="376.125" xlink:href="#DejaVuSans-111"/>
      <use x="437.306641" xlink:href="#DejaVuSans-110"/>
      <use x="500.685547" xlink:href="#DejaVuSans-115"/>
     </g>
    </g>
   </g>
   <g id="matplotlib.axis_2">
    <g id="ytick_1">
     <g id="line2d_15">
      <path clip-path="url(#p5a414036e4)" d="M 47.6525 175.47759 
L 494.0525 175.47759 
" style="fill:none;stroke:#b0b0b0;stroke-linecap:square;stroke-width:0.8;"/>
     </g>
     <g id="line2d_16">
      <defs>
       <path d="M 0 0 
L -3.5 0 
" id="m869f260080" style="stroke:#000000;stroke-width:0.8;"/>
      </defs>
      <g>
       <use style="stroke:#000000;stroke-width:0.8;" x="47.6525" xlink:href="#m869f260080" y="175.47759"/>
      </g>
     </g>
     <g id="text_9">
      <!-- 0.0 -->
      <g transform="translate(24.749375 179.276808)scale(0.1 -0.1)">
       <use xlink:href="#DejaVuSans-48"/>
       <use x="63.623047" xlink:href="#DejaVuSans-46"/>
       <use x="95.410156" xlink:href="#DejaVuSans-48"/>
      </g>
     </g>
    </g>
    <g id="ytick_2">
     <g id="line2d_17">
      <path clip-path="url(#p5a414036e4)" d="M 47.6525 146.965572 
L 494.0525 146.965572 
" style="fill:none;stroke:#b0b0b0;stroke-linecap:square;stroke-width:0.8;"/>
     </g>
     <g id="line2d_18">
      <g>
       <use style="stroke:#000000;stroke-width:0.8;" x="47.6525" xlink:href="#m869f260080" y="146.965572"/>
      </g>
     </g>
     <g id="text_10">
      <!-- 0.2 -->
      <defs>
       <path d="M 19.1875 8.296875 
L 53.609375 8.296875 
L 53.609375 0 
L 7.328125 0 
L 7.328125 8.296875 
Q 12.9375 14.109375 22.625 23.890625 
Q 32.328125 33.6875 34.8125 36.53125 
Q 39.546875 41.84375 41.421875 45.53125 
Q 43.3125 49.21875 43.3125 52.78125 
Q 43.3125 58.59375 39.234375 62.25 
Q 35.15625 65.921875 28.609375 65.921875 
Q 23.96875 65.921875 18.8125 64.3125 
Q 13.671875 62.703125 7.8125 59.421875 
L 7.8125 69.390625 
Q 13.765625 71.78125 18.9375 73 
Q 24.125 74.21875 28.421875 74.21875 
Q 39.75 74.21875 46.484375 68.546875 
Q 53.21875 62.890625 53.21875 53.421875 
Q 53.21875 48.921875 51.53125 44.890625 
Q 49.859375 40.875 45.40625 35.40625 
Q 44.1875 33.984375 37.640625 27.21875 
Q 31.109375 20.453125 19.1875 8.296875 
z
" id="DejaVuSans-50"/>
      </defs>
      <g transform="translate(24.749375 150.76479)scale(0.1 -0.1)">
       <use xlink:href="#DejaVuSans-48"/>
       <use x="63.623047" xlink:href="#DejaVuSans-46"/>
       <use x="95.410156" xlink:href="#DejaVuSans-50"/>
      </g>
     </g>
    </g>
    <g id="ytick_3">
     <g id="line2d_19">
      <path clip-path="url(#p5a414036e4)" d="M 47.6525 118.453554 
L 494.0525 118.453554 
" style="fill:none;stroke:#b0b0b0;stroke-linecap:square;stroke-width:0.8;"/>
     </g>
     <g id="line2d_20">
      <g>
       <use style="stroke:#000000;stroke-width:0.8;" x="47.6525" xlink:href="#m869f260080" y="118.453554"/>
      </g>
     </g>
     <g id="text_11">
      <!-- 0.4 -->
      <g transform="translate(24.749375 122.252773)scale(0.1 -0.1)">
       <use xlink:href="#DejaVuSans-48"/>
       <use x="63.623047" xlink:href="#DejaVuSans-46"/>
       <use x="95.410156" xlink:href="#DejaVuSans-52"/>
      </g>
     </g>
    </g>
    <g id="ytick_4">
     <g id="line2d_21">
      <path clip-path="url(#p5a414036e4)" d="M 47.6525 89.941536 
L 494.0525 89.941536 
" style="fill:none;stroke:#b0b0b0;stroke-linecap:square;stroke-width:0.8;"/>
     </g>
     <g id="line2d_22">
      <g>
       <use style="stroke:#000000;stroke-width:0.8;" x="47.6525" xlink:href="#m869f260080" y="89.941536"/>
      </g>
     </g>
     <g id="text_12">
      <!-- 0.6 -->
      <g transform="translate(24.749375 93.740755)scale(0.1 -0.1)">
       <use xlink:href="#DejaVuSans-48"/>
       <use x="63.623047" xlink:href="#DejaVuSans-46"/>
       <use x="95.410156" xlink:href="#DejaVuSans-54"/>
      </g>
     </g>
    </g>
    <g id="ytick_5">
     <g id="line2d_23">
      <path clip-path="url(#p5a414036e4)" d="M 47.6525 61.429518 
L 494.0525 61.429518 
" style="fill:none;stroke:#b0b0b0;stroke-linecap:square;stroke-width:0.8;"/>
     </g>
     <g id="line2d_24">
      <g>
       <use style="stroke:#000000;stroke-width:0.8;" x="47.6525" xlink:href="#m869f260080" y="61.429518"/>
      </g>
     </g>
     <g id="text_13">
      <!-- 0.8 -->
      <g transform="translate(24.749375 65.228737)scale(0.1 -0.1)">
       <use xlink:href="#DejaVuSans-48"/>
       <use x="63.623047" xlink:href="#DejaVuSans-46"/>
       <use x="95.410156" xlink:href="#DejaVuSans-56"/>
      </g>
     </g>
    </g>
    <g id="ytick_6">
     <g id="line2d_25">
      <path clip-path="url(#p5a414036e4)" d="M 47.6525 32.9175 
L 494.0525 32.9175 
" style="fill:none;stroke:#b0b0b0;stroke-linecap:square;stroke-width:0.8;"/>
     </g>
     <g id="line2d_26">
      <g>
       <use style="stroke:#000000;stroke-width:0.8;" x="47.6525" xlink:href="#m869f260080" y="32.9175"/>
      </g>
     </g>
     <g id="text_14">
      <!-- 1.0 -->
      <g transform="translate(24.749375 36.716719)scale(0.1 -0.1)">
       <use xlink:href="#DejaVuSans-49"/>
       <use x="63.623047" xlink:href="#DejaVuSans-46"/>
       <use x="95.410156" xlink:href="#DejaVuSans-48"/>
      </g>
     </g>
    </g>
    <g id="text_15">
     <!-- Real -->
     <defs>
      <path d="M 44.390625 34.1875 
Q 47.5625 33.109375 50.5625 29.59375 
Q 53.5625 26.078125 56.59375 19.921875 
L 66.609375 0 
L 56 0 
L 46.6875 18.703125 
Q 43.0625 26.03125 39.671875 28.421875 
Q 36.28125 30.8125 30.421875 30.8125 
L 19.671875 30.8125 
L 19.671875 0 
L 9.8125 0 
L 9.8125 72.90625 
L 32.078125 72.90625 
Q 44.578125 72.90625 50.734375 67.671875 
Q 56.890625 62.453125 56.890625 51.90625 
Q 56.890625 45.015625 53.6875 40.46875 
Q 50.484375 35.9375 44.390625 34.1875 
z
M 19.671875 64.796875 
L 19.671875 38.921875 
L 32.078125 38.921875 
Q 39.203125 38.921875 42.84375 42.21875 
Q 46.484375 45.515625 46.484375 51.90625 
Q 46.484375 58.296875 42.84375 61.546875 
Q 39.203125 64.796875 32.078125 64.796875 
z
" id="DejaVuSans-82"/>
      <path d="M 34.28125 27.484375 
Q 23.390625 27.484375 19.1875 25 
Q 14.984375 22.515625 14.984375 16.5 
Q 14.984375 11.71875 18.140625 8.90625 
Q 21.296875 6.109375 26.703125 6.109375 
Q 34.1875 6.109375 38.703125 11.40625 
Q 43.21875 16.703125 43.21875 25.484375 
L 43.21875 27.484375 
z
M 52.203125 31.203125 
L 52.203125 0 
L 43.21875 0 
L 43.21875 8.296875 
Q 40.140625 3.328125 35.546875 0.953125 
Q 30.953125 -1.421875 24.3125 -1.421875 
Q 15.921875 -1.421875 10.953125 3.296875 
Q 6 8.015625 6 15.921875 
Q 6 25.140625 12.171875 29.828125 
Q 18.359375 34.515625 30.609375 34.515625 
L 43.21875 34.515625 
L 43.21875 35.40625 
Q 43.21875 41.609375 39.140625 45 
Q 35.0625 48.390625 27.6875 48.390625 
Q 23 48.390625 18.546875 47.265625 
Q 14.109375 46.140625 10.015625 43.890625 
L 10.015625 52.203125 
Q 14.9375 54.109375 19.578125 55.046875 
Q 24.21875 56 28.609375 56 
Q 40.484375 56 46.34375 49.84375 
Q 52.203125 43.703125 52.203125 31.203125 
z
" id="DejaVuSans-97"/>
      <path d="M 9.421875 75.984375 
L 18.40625 75.984375 
L 18.40625 0 
L 9.421875 0 
z
" id="DejaVuSans-108"/>
     </defs>
     <g transform="translate(17.837812 123.918594)rotate(-90)scale(0.14 -0.14)">
      <use xlink:href="#DejaVuSans-82"/>
      <use x="69.419922" xlink:href="#DejaVuSans-101"/>
      <use x="130.943359" xlink:href="#DejaVuSans-97"/>
      <use x="192.222656" xlink:href="#DejaVuSans-108"/>
     </g>
    </g>
   </g>
   <g id="line2d_27">
    <path clip-path="url(#p5a414036e4)" d="M -1 136.133985 
L 482.72686 32.9175 
L 427.241327 44.756871 
" style="fill:none;stroke:#1f77b4;stroke-linecap:square;stroke-width:1.5;"/>
   </g>
   <g id="line2d_28">
    <path clip-path="url(#p5a414036e4)" d="M -1 142.983519 
L 15.048647 139.403265 
L 81.859821 124.49852 
L 148.670994 109.593775 
L 215.482167 94.68903 
L 282.29334 79.784285 
L 349.104513 64.87954 
L 415.915687 49.974795 
L 482.72686 35.07005 
" style="fill:none;stroke:#ff0000;stroke-linecap:square;stroke-width:1.5;"/>
   </g>
   <g id="patch_3">
    <path d="M 47.6525 191.6775 
L 47.6525 25.3575 
" style="fill:none;stroke:#000000;stroke-linecap:square;stroke-linejoin:miter;stroke-width:0.8;"/>
   </g>
   <g id="patch_4">
    <path d="M 494.0525 191.6775 
L 494.0525 25.3575 
" style="fill:none;stroke:#000000;stroke-linecap:square;stroke-linejoin:miter;stroke-width:0.8;"/>
   </g>
   <g id="patch_5">
    <path d="M 47.6525 191.6775 
L 494.0525 191.6775 
" style="fill:none;stroke:#000000;stroke-linecap:square;stroke-linejoin:miter;stroke-width:0.8;"/>
   </g>
   <g id="patch_6">
    <path d="M 47.6525 25.3575 
L 494.0525 25.3575 
" style="fill:none;stroke:#000000;stroke-linecap:square;stroke-linejoin:miter;stroke-width:0.8;"/>
   </g>
   <g id="text_16">
    <!-- Bulk Density -->
    <defs>
     <path d="M 19.671875 34.8125 
L 19.671875 8.109375 
L 35.5 8.109375 
Q 43.453125 8.109375 47.28125 11.40625 
Q 51.125 14.703125 51.125 21.484375 
Q 51.125 28.328125 47.28125 31.5625 
Q 43.453125 34.8125 35.5 34.8125 
z
M 19.671875 64.796875 
L 19.671875 42.828125 
L 34.28125 42.828125 
Q 41.5 42.828125 45.03125 45.53125 
Q 48.578125 48.25 48.578125 53.8125 
Q 48.578125 59.328125 45.03125 62.0625 
Q 41.5 64.796875 34.28125 64.796875 
z
M 9.8125 72.90625 
L 35.015625 72.90625 
Q 46.296875 72.90625 52.390625 68.21875 
Q 58.5 63.53125 58.5 54.890625 
Q 58.5 48.1875 55.375 44.234375 
Q 52.25 40.28125 46.1875 39.3125 
Q 53.46875 37.75 57.5 32.78125 
Q 61.53125 27.828125 61.53125 20.40625 
Q 61.53125 10.640625 54.890625 5.3125 
Q 48.25 0 35.984375 0 
L 9.8125 0 
z
" id="DejaVuSans-66"/>
     <path d="M 8.5 21.578125 
L 8.5 54.6875 
L 17.484375 54.6875 
L 17.484375 21.921875 
Q 17.484375 14.15625 20.5 10.265625 
Q 23.53125 6.390625 29.59375 6.390625 
Q 36.859375 6.390625 41.078125 11.03125 
Q 45.3125 15.671875 45.3125 23.6875 
L 45.3125 54.6875 
L 54.296875 54.6875 
L 54.296875 0 
L 45.3125 0 
L 45.3125 8.40625 
Q 42.046875 3.421875 37.71875 1 
Q 33.40625 -1.421875 27.6875 -1.421875 
Q 18.265625 -1.421875 13.375 4.4375 
Q 8.5 10.296875 8.5 21.578125 
z
M 31.109375 56 
z
" id="DejaVuSans-117"/>
     <path d="M 9.078125 75.984375 
L 18.109375 75.984375 
L 18.109375 31.109375 
L 44.921875 54.6875 
L 56.390625 54.6875 
L 27.390625 29.109375 
L 57.625 0 
L 45.90625 0 
L 18.109375 26.703125 
L 18.109375 0 
L 9.078125 0 
z
" id="DejaVuSans-107"/>
     <path id="DejaVuSans-32"/>
     <path d="M 19.671875 64.796875 
L 19.671875 8.109375 
L 31.59375 8.109375 
Q 46.6875 8.109375 53.6875 14.9375 
Q 60.6875 21.78125 60.6875 36.53125 
Q 60.6875 51.171875 53.6875 57.984375 
Q 46.6875 64.796875 31.59375 64.796875 
z
M 9.8125 72.90625 
L 30.078125 72.90625 
Q 51.265625 72.90625 61.171875 64.09375 
Q 71.09375 55.28125 71.09375 36.53125 
Q 71.09375 17.671875 61.125 8.828125 
Q 51.171875 0 30.078125 0 
L 9.8125 0 
z
" id="DejaVuSans-68"/>
     <path d="M 32.171875 -5.078125 
Q 28.375 -14.84375 24.75 -17.8125 
Q 21.140625 -20.796875 15.09375 -20.796875 
L 7.90625 -20.796875 
L 7.90625 -13.28125 
L 13.1875 -13.28125 
Q 16.890625 -13.28125 18.9375 -11.515625 
Q 21 -9.765625 23.484375 -3.21875 
L 25.09375 0.875 
L 2.984375 54.6875 
L 12.5 54.6875 
L 29.59375 11.921875 
L 46.6875 54.6875 
L 56.203125 54.6875 
z
" id="DejaVuSans-121"/>
    </defs>
    <g transform="translate(220.4825 19.3575)scale(0.16 -0.16)">
     <use xlink:href="#DejaVuSans-66"/>
     <use x="68.603516" xlink:href="#DejaVuSans-117"/>
     <use x="131.982422" xlink:href="#DejaVuSans-108"/>
     <use x="159.765625" xlink:href="#DejaVuSans-107"/>
     <use x="217.675781" xlink:href="#DejaVuSans-32"/>
     <use x="249.462891" xlink:href="#DejaVuSans-68"/>
     <use x="326.464844" xlink:href="#DejaVuSans-101"/>
     <use x="387.988281" xlink:href="#DejaVuSans-110"/>
     <use x="451.367188" xlink:href="#DejaVuSans-115"/>
     <use x="503.466797" xlink:href="#DejaVuSans-105"/>
     <use x="531.25" xlink:href="#DejaVuSans-116"/>
     <use x="570.458984" xlink:href="#DejaVuSans-121"/>
    </g>
   </g>
   <g id="legend_1">
    <g id="patch_7">
     <path d="M 54.6525 62.71375 
L 124.407188 62.71375 
Q 126.407188 62.71375 126.407188 60.71375 
L 126.407188 32.3575 
Q 126.407188 30.3575 124.407188 30.3575 
L 54.6525 30.3575 
Q 52.6525 30.3575 52.6525 32.3575 
L 52.6525 60.71375 
Q 52.6525 62.71375 54.6525 62.71375 
z
" style="fill:#ffffff;opacity:0.8;stroke:#cccccc;stroke-linejoin:miter;"/>
    </g>
    <g id="line2d_29">
     <path d="M 56.6525 38.455938 
L 76.6525 38.455938 
" style="fill:none;stroke:#1f77b4;stroke-linecap:square;stroke-width:1.5;"/>
    </g>
    <g id="line2d_30"/>
    <g id="text_17">
     <!-- Ideal fit -->
     <defs>
      <path d="M 9.8125 72.90625 
L 19.671875 72.90625 
L 19.671875 0 
L 9.8125 0 
z
" id="DejaVuSans-73"/>
      <path d="M 37.109375 75.984375 
L 37.109375 68.5 
L 28.515625 68.5 
Q 23.6875 68.5 21.796875 66.546875 
Q 19.921875 64.59375 19.921875 59.515625 
L 19.921875 54.6875 
L 34.71875 54.6875 
L 34.71875 47.703125 
L 19.921875 47.703125 
L 19.921875 0 
L 10.890625 0 
L 10.890625 47.703125 
L 2.296875 47.703125 
L 2.296875 54.6875 
L 10.890625 54.6875 
L 10.890625 58.5 
Q 10.890625 67.625 15.140625 71.796875 
Q 19.390625 75.984375 28.609375 75.984375 
z
" id="DejaVuSans-102"/>
     </defs>
     <g transform="translate(84.6525 41.955938)scale(0.1 -0.1)">
      <use xlink:href="#DejaVuSans-73"/>
      <use x="29.492188" xlink:href="#DejaVuSans-100"/>
      <use x="92.96875" xlink:href="#DejaVuSans-101"/>
      <use x="154.492188" xlink:href="#DejaVuSans-97"/>
      <use x="215.771484" xlink:href="#DejaVuSans-108"/>
      <use x="243.554688" xlink:href="#DejaVuSans-32"/>
      <use x="275.341797" xlink:href="#DejaVuSans-102"/>
      <use x="310.546875" xlink:href="#DejaVuSans-105"/>
      <use x="338.330078" xlink:href="#DejaVuSans-116"/>
     </g>
    </g>
    <g id="line2d_31">
     <path d="M 56.6525 53.134063 
L 76.6525 53.134063 
" style="fill:none;stroke:#ff0000;stroke-linecap:square;stroke-width:1.5;"/>
    </g>
    <g id="line2d_32"/>
    <g id="text_18">
     <!-- Best fit -->
     <g transform="translate(84.6525 56.634063)scale(0.1 -0.1)">
      <use xlink:href="#DejaVuSans-66"/>
      <use x="68.603516" xlink:href="#DejaVuSans-101"/>
      <use x="130.126953" xlink:href="#DejaVuSans-115"/>
      <use x="182.226562" xlink:href="#DejaVuSans-116"/>
      <use x="221.435547" xlink:href="#DejaVuSans-32"/>
      <use x="253.222656" xlink:href="#DejaVuSans-102"/>
      <use x="288.427734" xlink:href="#DejaVuSans-105"/>
      <use x="316.210938" xlink:href="#DejaVuSans-116"/>
     </g>
    </g>
   </g>
  </g>
 </g>
 <defs>
  <clipPath id="p5a414036e4">
   <rect height="166.32" width="446.4" x="47.6525" y="25.3575"/>
  </clipPath>
 </defs>
</svg>
