<?xml version="1.0" encoding="utf-8" standalone="no"?>
<!DOCTYPE svg PUBLIC "-//W3C//DTD SVG 1.1//EN"
  "http://www.w3.org/Graphics/SVG/1.1/DTD/svg11.dtd">
<svg xmlns:xlink="http://www.w3.org/1999/xlink" width="498.074375pt" height="233.105pt" viewBox="0 0 498.074375 233.105" xmlns="http://www.w3.org/2000/svg" version="1.1">
 <metadata>
  <rdf:RDF xmlns:dc="http://purl.org/dc/elements/1.1/" xmlns:cc="http://creativecommons.org/ns#" xmlns:rdf="http://www.w3.org/1999/02/22-rdf-syntax-ns#">
   <cc:Work>
    <dc:type rdf:resource="http://purl.org/dc/dcmitype/StillImage"/>
    <dc:date>2024-02-22T12:04:02.200077</dc:date>
    <dc:format>image/svg+xml</dc:format>
    <dc:creator>
     <cc:Agent>
      <dc:title>Matplotlib v3.5.3, https://matplotlib.org/</dc:title>
     </cc:Agent>
    </dc:creator>
   </cc:Work>
  </rdf:RDF>
 </metadata>
 <defs>
  <style type="text/css">*{stroke-linejoin: round; stroke-linecap: butt}</style>
 </defs>
 <g id="figure_1">
  <g id="patch_1">
   <path d="M 0 233.105 
L 498.074375 233.105 
L 498.074375 0 
L 0 0 
L 0 233.105 
z
" style="fill: none"/>
  </g>
  <g id="axes_1">
   <g id="patch_2">
    <path d="M 44.474375 191.6775 
L 490.874375 191.6775 
L 490.874375 25.3575 
L 44.474375 25.3575 
L 44.474375 191.6775 
z
" style="fill: none"/>
   </g>
   <g id="PathCollection_1">
    <defs>
     <path id="m4899f0d27e" d="M 0 3 
C 0.795609 3 1.55874 2.683901 2.12132 2.12132 
C 2.683901 1.55874 3 0.795609 3 0 
C 3 -0.795609 2.683901 -1.55874 2.12132 -2.12132 
C 1.55874 -2.683901 0.795609 -3 0 -3 
C -0.795609 -3 -1.55874 -2.683901 -2.12132 -2.12132 
C -2.683901 -1.55874 -3 -0.795609 -3 0 
C -3 0.795609 -2.683901 1.55874 -2.12132 2.12132 
C -1.55874 2.683901 -0.795609 3 0 3 
z
" style="stroke: #1f77b4"/>
    </defs>
    <g clip-path="url(#pd7d016ec94)">
     <use xlink:href="#m4899f0d27e" x="286.522047" y="101.4647" style="fill: #1f77b4; stroke: #1f77b4"/>
     <use xlink:href="#m4899f0d27e" x="370.176315" y="69.133708" style="fill: #1f77b4; stroke: #1f77b4"/>
     <use xlink:href="#m4899f0d27e" x="294.401862" y="96.183776" style="fill: #1f77b4; stroke: #1f77b4"/>
     <use xlink:href="#m4899f0d27e" x="407.230905" y="56.400813" style="fill: #1f77b4; stroke: #1f77b4"/>
     <use xlink:href="#m4899f0d27e" x="229.518829" y="121.532213" style="fill: #1f77b4; stroke: #1f77b4"/>
     <use xlink:href="#m4899f0d27e" x="396.809695" y="59.099952" style="fill: #1f77b4; stroke: #1f77b4"/>
     <use xlink:href="#m4899f0d27e" x="257.889739" y="110.266241" style="fill: #1f77b4; stroke: #1f77b4"/>
     <use xlink:href="#m4899f0d27e" x="297.966281" y="96.183776" style="fill: #1f77b4; stroke: #1f77b4"/>
     <use xlink:href="#m4899f0d27e" x="366.782377" y="71.363432" style="fill: #1f77b4; stroke: #1f77b4"/>
     <use xlink:href="#m4899f0d27e" x="254.243451" y="116.133935" style="fill: #1f77b4; stroke: #1f77b4"/>
     <use xlink:href="#m4899f0d27e" x="295.04904" y="100.467193" style="fill: #1f77b4; stroke: #1f77b4"/>
     <use xlink:href="#m4899f0d27e" x="295.304365" y="96.183776" style="fill: #1f77b4; stroke: #1f77b4"/>
     <use xlink:href="#m4899f0d27e" x="228.944302" y="121.532213" style="fill: #1f77b4; stroke: #1f77b4"/>
     <use xlink:href="#m4899f0d27e" x="397.775359" y="59.099952" style="fill: #1f77b4; stroke: #1f77b4"/>
     <use xlink:href="#m4899f0d27e" x="353.146896" y="75.470817" style="fill: #1f77b4; stroke: #1f77b4"/>
     <use xlink:href="#m4899f0d27e" x="337.484929" y="79.871588" style="fill: #1f77b4; stroke: #1f77b4"/>
     <use xlink:href="#m4899f0d27e" x="339.006229" y="79.871588" style="fill: #1f77b4; stroke: #1f77b4"/>
     <use xlink:href="#m4899f0d27e" x="324.953884" y="85.915312" style="fill: #1f77b4; stroke: #1f77b4"/>
     <use xlink:href="#m4899f0d27e" x="445.045793" y="38.504347" style="fill: #1f77b4; stroke: #1f77b4"/>
     <use xlink:href="#m4899f0d27e" x="234.649565" y="121.532213" style="fill: #1f77b4; stroke: #1f77b4"/>
     <use xlink:href="#m4899f0d27e" x="356.188672" y="75.353464" style="fill: #1f77b4; stroke: #1f77b4"/>
     <use xlink:href="#m4899f0d27e" x="294.136755" y="100.467193" style="fill: #1f77b4; stroke: #1f77b4"/>
     <use xlink:href="#m4899f0d27e" x="250.540275" y="113.610826" style="fill: #1f77b4; stroke: #1f77b4"/>
     <use xlink:href="#m4899f0d27e" x="253.741941" y="113.610826" style="fill: #1f77b4; stroke: #1f77b4"/>
     <use xlink:href="#m4899f0d27e" x="287.055617" y="100.467193" style="fill: #1f77b4; stroke: #1f77b4"/>
     <use xlink:href="#m4899f0d27e" x="247.169928" y="115.429811" style="fill: #1f77b4; stroke: #1f77b4"/>
     <use xlink:href="#m4899f0d27e" x="302.188287" y="95.890391" style="fill: #1f77b4; stroke: #1f77b4"/>
     <use xlink:href="#m4899f0d27e" x="262.275512" y="110.266241" style="fill: #1f77b4; stroke: #1f77b4"/>
     <use xlink:href="#m4899f0d27e" x="260.469207" y="110.266241" style="fill: #1f77b4; stroke: #1f77b4"/>
     <use xlink:href="#m4899f0d27e" x="326.398275" y="85.915312" style="fill: #1f77b4; stroke: #1f77b4"/>
     <use xlink:href="#m4899f0d27e" x="370.772939" y="69.133708" style="fill: #1f77b4; stroke: #1f77b4"/>
     <use xlink:href="#m4899f0d27e" x="352.497871" y="75.470817" style="fill: #1f77b4; stroke: #1f77b4"/>
     <use xlink:href="#m4899f0d27e" x="230.485348" y="121.532213" style="fill: #1f77b4; stroke: #1f77b4"/>
     <use xlink:href="#m4899f0d27e" x="295.938024" y="96.183776" style="fill: #1f77b4; stroke: #1f77b4"/>
     <use xlink:href="#m4899f0d27e" x="322.332788" y="87.147528" style="fill: #1f77b4; stroke: #1f77b4"/>
     <use xlink:href="#m4899f0d27e" x="249.716755" y="115.429811" style="fill: #1f77b4; stroke: #1f77b4"/>
     <use xlink:href="#m4899f0d27e" x="251.68231" y="113.610826" style="fill: #1f77b4; stroke: #1f77b4"/>
     <use xlink:href="#m4899f0d27e" x="309.424387" y="95.890391" style="fill: #1f77b4; stroke: #1f77b4"/>
     <use xlink:href="#m4899f0d27e" x="289.27578" y="100.467193" style="fill: #1f77b4; stroke: #1f77b4"/>
     <use xlink:href="#m4899f0d27e" x="258.993686" y="110.266241" style="fill: #1f77b4; stroke: #1f77b4"/>
     <use xlink:href="#m4899f0d27e" x="296.114228" y="100.467193" style="fill: #1f77b4; stroke: #1f77b4"/>
     <use xlink:href="#m4899f0d27e" x="233.898376" y="121.532213" style="fill: #1f77b4; stroke: #1f77b4"/>
     <use xlink:href="#m4899f0d27e" x="256.760949" y="113.610826" style="fill: #1f77b4; stroke: #1f77b4"/>
     <use xlink:href="#m4899f0d27e" x="355.546483" y="75.353464" style="fill: #1f77b4; stroke: #1f77b4"/>
     <use xlink:href="#m4899f0d27e" x="252.709837" y="113.610826" style="fill: #1f77b4; stroke: #1f77b4"/>
     <use xlink:href="#m4899f0d27e" x="258.814354" y="110.266241" style="fill: #1f77b4; stroke: #1f77b4"/>
     <use xlink:href="#m4899f0d27e" x="230.526991" y="121.532213" style="fill: #1f77b4; stroke: #1f77b4"/>
     <use xlink:href="#m4899f0d27e" x="359.016689" y="72.595648" style="fill: #1f77b4; stroke: #1f77b4"/>
     <use xlink:href="#m4899f0d27e" x="311.007839" y="95.890391" style="fill: #1f77b4; stroke: #1f77b4"/>
     <use xlink:href="#m4899f0d27e" x="250.824685" y="116.133935" style="fill: #1f77b4; stroke: #1f77b4"/>
     <use xlink:href="#m4899f0d27e" x="408.639984" y="56.400813" style="fill: #1f77b4; stroke: #1f77b4"/>
     <use xlink:href="#m4899f0d27e" x="316.772386" y="95.890391" style="fill: #1f77b4; stroke: #1f77b4"/>
     <use xlink:href="#m4899f0d27e" x="290.506062" y="101.053962" style="fill: #1f77b4; stroke: #1f77b4"/>
     <use xlink:href="#m4899f0d27e" x="456.83012" y="38.504347" style="fill: #1f77b4; stroke: #1f77b4"/>
     <use xlink:href="#m4899f0d27e" x="401.623029" y="59.099952" style="fill: #1f77b4; stroke: #1f77b4"/>
     <use xlink:href="#m4899f0d27e" x="301.365072" y="96.183776" style="fill: #1f77b4; stroke: #1f77b4"/>
     <use xlink:href="#m4899f0d27e" x="296.003122" y="95.890391" style="fill: #1f77b4; stroke: #1f77b4"/>
     <use xlink:href="#m4899f0d27e" x="323.864831" y="85.915312" style="fill: #1f77b4; stroke: #1f77b4"/>
     <use xlink:href="#m4899f0d27e" x="295.767589" y="96.183776" style="fill: #1f77b4; stroke: #1f77b4"/>
     <use xlink:href="#m4899f0d27e" x="251.722825" y="116.133935" style="fill: #1f77b4; stroke: #1f77b4"/>
     <use xlink:href="#m4899f0d27e" x="302.292556" y="95.890391" style="fill: #1f77b4; stroke: #1f77b4"/>
     <use xlink:href="#m4899f0d27e" x="288.136385" y="101.053962" style="fill: #1f77b4; stroke: #1f77b4"/>
     <use xlink:href="#m4899f0d27e" x="350.112141" y="75.353464" style="fill: #1f77b4; stroke: #1f77b4"/>
     <use xlink:href="#m4899f0d27e" x="394.068322" y="61.857768" style="fill: #1f77b4; stroke: #1f77b4"/>
     <use xlink:href="#m4899f0d27e" x="361.637969" y="72.595648" style="fill: #1f77b4; stroke: #1f77b4"/>
     <use xlink:href="#m4899f0d27e" x="392.459096" y="61.857768" style="fill: #1f77b4; stroke: #1f77b4"/>
     <use xlink:href="#m4899f0d27e" x="410.095332" y="56.400813" style="fill: #1f77b4; stroke: #1f77b4"/>
     <use xlink:href="#m4899f0d27e" x="297.435656" y="100.467193" style="fill: #1f77b4; stroke: #1f77b4"/>
     <use xlink:href="#m4899f0d27e" x="323.584114" y="85.915312" style="fill: #1f77b4; stroke: #1f77b4"/>
     <use xlink:href="#m4899f0d27e" x="393.309824" y="61.857768" style="fill: #1f77b4; stroke: #1f77b4"/>
     <use xlink:href="#m4899f0d27e" x="297.730199" y="96.183776" style="fill: #1f77b4; stroke: #1f77b4"/>
     <use xlink:href="#m4899f0d27e" x="409.85725" y="54.816536" style="fill: #1f77b4; stroke: #1f77b4"/>
     <use xlink:href="#m4899f0d27e" x="286.477519" y="101.053962" style="fill: #1f77b4; stroke: #1f77b4"/>
     <use xlink:href="#m4899f0d27e" x="398.350924" y="59.099952" style="fill: #1f77b4; stroke: #1f77b4"/>
     <use xlink:href="#m4899f0d27e" x="243.556692" y="115.429811" style="fill: #1f77b4; stroke: #1f77b4"/>
     <use xlink:href="#m4899f0d27e" x="246.801879" y="115.429811" style="fill: #1f77b4; stroke: #1f77b4"/>
     <use xlink:href="#m4899f0d27e" x="291.659756" y="101.053962" style="fill: #1f77b4; stroke: #1f77b4"/>
     <use xlink:href="#m4899f0d27e" x="319.795453" y="87.147528" style="fill: #1f77b4; stroke: #1f77b4"/>
     <use xlink:href="#m4899f0d27e" x="407.410084" y="56.400813" style="fill: #1f77b4; stroke: #1f77b4"/>
     <use xlink:href="#m4899f0d27e" x="256.010752" y="113.610826" style="fill: #1f77b4; stroke: #1f77b4"/>
     <use xlink:href="#m4899f0d27e" x="259.489763" y="110.266241" style="fill: #1f77b4; stroke: #1f77b4"/>
     <use xlink:href="#m4899f0d27e" x="345.552423" y="79.871588" style="fill: #1f77b4; stroke: #1f77b4"/>
     <use xlink:href="#m4899f0d27e" x="365.641471" y="71.363432" style="fill: #1f77b4; stroke: #1f77b4"/>
     <use xlink:href="#m4899f0d27e" x="289.520546" y="100.467193" style="fill: #1f77b4; stroke: #1f77b4"/>
     <use xlink:href="#m4899f0d27e" x="322.401152" y="85.915312" style="fill: #1f77b4; stroke: #1f77b4"/>
     <use xlink:href="#m4899f0d27e" x="283.763232" y="101.4647" style="fill: #1f77b4; stroke: #1f77b4"/>
     <use xlink:href="#m4899f0d27e" x="235.196625" y="121.532213" style="fill: #1f77b4; stroke: #1f77b4"/>
     <use xlink:href="#m4899f0d27e" x="296.503594" y="95.890391" style="fill: #1f77b4; stroke: #1f77b4"/>
     <use xlink:href="#m4899f0d27e" x="284.626793" y="101.053962" style="fill: #1f77b4; stroke: #1f77b4"/>
     <use xlink:href="#m4899f0d27e" x="360.753761" y="72.595648" style="fill: #1f77b4; stroke: #1f77b4"/>
     <use xlink:href="#m4899f0d27e" x="404.316426" y="54.816536" style="fill: #1f77b4; stroke: #1f77b4"/>
     <use xlink:href="#m4899f0d27e" x="251.050879" y="113.610826" style="fill: #1f77b4; stroke: #1f77b4"/>
     <use xlink:href="#m4899f0d27e" x="252.052785" y="113.610826" style="fill: #1f77b4; stroke: #1f77b4"/>
     <use xlink:href="#m4899f0d27e" x="405.429773" y="56.400813" style="fill: #1f77b4; stroke: #1f77b4"/>
     <use xlink:href="#m4899f0d27e" x="249.746038" y="113.610826" style="fill: #1f77b4; stroke: #1f77b4"/>
     <use xlink:href="#m4899f0d27e" x="470.583466" y="38.504347" style="fill: #1f77b4; stroke: #1f77b4"/>
     <use xlink:href="#m4899f0d27e" x="367.084183" y="69.133708" style="fill: #1f77b4; stroke: #1f77b4"/>
     <use xlink:href="#m4899f0d27e" x="331.571433" y="83.098819" style="fill: #1f77b4; stroke: #1f77b4"/>
     <use xlink:href="#m4899f0d27e" x="289.507285" y="101.053962" style="fill: #1f77b4; stroke: #1f77b4"/>
     <use xlink:href="#m4899f0d27e" x="259.868875" y="110.266241" style="fill: #1f77b4; stroke: #1f77b4"/>
     <use xlink:href="#m4899f0d27e" x="400.357726" y="54.816536" style="fill: #1f77b4; stroke: #1f77b4"/>
     <use xlink:href="#m4899f0d27e" x="293.613897" y="100.467193" style="fill: #1f77b4; stroke: #1f77b4"/>
     <use xlink:href="#m4899f0d27e" x="364.23056" y="72.595648" style="fill: #1f77b4; stroke: #1f77b4"/>
     <use xlink:href="#m4899f0d27e" x="295.411015" y="95.890391" style="fill: #1f77b4; stroke: #1f77b4"/>
     <use xlink:href="#m4899f0d27e" x="330.606379" y="83.098819" style="fill: #1f77b4; stroke: #1f77b4"/>
     <use xlink:href="#m4899f0d27e" x="407.496973" y="54.816536" style="fill: #1f77b4; stroke: #1f77b4"/>
     <use xlink:href="#m4899f0d27e" x="324.047245" y="85.915312" style="fill: #1f77b4; stroke: #1f77b4"/>
     <use xlink:href="#m4899f0d27e" x="337.873563" y="79.871588" style="fill: #1f77b4; stroke: #1f77b4"/>
     <use xlink:href="#m4899f0d27e" x="290.205706" y="100.467193" style="fill: #1f77b4; stroke: #1f77b4"/>
     <use xlink:href="#m4899f0d27e" x="258.901441" y="110.266241" style="fill: #1f77b4; stroke: #1f77b4"/>
     <use xlink:href="#m4899f0d27e" x="349.988293" y="75.470817" style="fill: #1f77b4; stroke: #1f77b4"/>
     <use xlink:href="#m4899f0d27e" x="361.155274" y="72.595648" style="fill: #1f77b4; stroke: #1f77b4"/>
     <use xlink:href="#m4899f0d27e" x="261.276246" y="110.266241" style="fill: #1f77b4; stroke: #1f77b4"/>
     <use xlink:href="#m4899f0d27e" x="339.023045" y="79.871588" style="fill: #1f77b4; stroke: #1f77b4"/>
     <use xlink:href="#m4899f0d27e" x="337.652969" y="79.871588" style="fill: #1f77b4; stroke: #1f77b4"/>
     <use xlink:href="#m4899f0d27e" x="354.475436" y="75.470817" style="fill: #1f77b4; stroke: #1f77b4"/>
     <use xlink:href="#m4899f0d27e" x="320.248147" y="85.915312" style="fill: #1f77b4; stroke: #1f77b4"/>
     <use xlink:href="#m4899f0d27e" x="251.194977" y="115.429811" style="fill: #1f77b4; stroke: #1f77b4"/>
     <use xlink:href="#m4899f0d27e" x="324.688" y="87.147528" style="fill: #1f77b4; stroke: #1f77b4"/>
     <use xlink:href="#m4899f0d27e" x="323.61329" y="85.915312" style="fill: #1f77b4; stroke: #1f77b4"/>
     <use xlink:href="#m4899f0d27e" x="366.533979" y="69.133708" style="fill: #1f77b4; stroke: #1f77b4"/>
    </g>
   </g>
   <g id="matplotlib.axis_1">
    <g id="xtick_1">
     <g id="line2d_1">
      <path d="M 64.765284 191.6775 
L 64.765284 25.3575 
" clip-path="url(#pd7d016ec94)" style="fill: none; stroke: #b0b0b0; stroke-width: 0.8; stroke-linecap: square"/>
     </g>
     <g id="line2d_2">
      <defs>
       <path id="mc281ab87ef" d="M 0 0 
L 0 3.5 
" style="stroke: #000000; stroke-width: 0.8"/>
      </defs>
      <g>
       <use xlink:href="#mc281ab87ef" x="64.765284" y="191.6775" style="stroke: #000000; stroke-width: 0.8"/>
      </g>
     </g>
     <g id="text_1">
      <!-- 0 -->
      <g transform="translate(61.584034 206.275938)scale(0.1 -0.1)">
       <defs>
        <path id="DejaVuSans-30" d="M 2034 4250 
Q 1547 4250 1301 3770 
Q 1056 3291 1056 2328 
Q 1056 1369 1301 889 
Q 1547 409 2034 409 
Q 2525 409 2770 889 
Q 3016 1369 3016 2328 
Q 3016 3291 2770 3770 
Q 2525 4250 2034 4250 
z
M 2034 4750 
Q 2819 4750 3233 4129 
Q 3647 3509 3647 2328 
Q 3647 1150 3233 529 
Q 2819 -91 2034 -91 
Q 1250 -91 836 529 
Q 422 1150 422 2328 
Q 422 3509 836 4129 
Q 1250 4750 2034 4750 
z
" transform="scale(0.015625)"/>
       </defs>
       <use xlink:href="#DejaVuSans-30"/>
      </g>
     </g>
    </g>
    <g id="xtick_2">
     <g id="line2d_3">
      <path d="M 144.770014 191.6775 
L 144.770014 25.3575 
" clip-path="url(#pd7d016ec94)" style="fill: none; stroke: #b0b0b0; stroke-width: 0.8; stroke-linecap: square"/>
     </g>
     <g id="line2d_4">
      <g>
       <use xlink:href="#mc281ab87ef" x="144.770014" y="191.6775" style="stroke: #000000; stroke-width: 0.8"/>
      </g>
     </g>
     <g id="text_2">
      <!-- 5 -->
      <g transform="translate(141.588764 206.275938)scale(0.1 -0.1)">
       <defs>
        <path id="DejaVuSans-35" d="M 691 4666 
L 3169 4666 
L 3169 4134 
L 1269 4134 
L 1269 2991 
Q 1406 3038 1543 3061 
Q 1681 3084 1819 3084 
Q 2600 3084 3056 2656 
Q 3513 2228 3513 1497 
Q 3513 744 3044 326 
Q 2575 -91 1722 -91 
Q 1428 -91 1123 -41 
Q 819 9 494 109 
L 494 744 
Q 775 591 1075 516 
Q 1375 441 1709 441 
Q 2250 441 2565 725 
Q 2881 1009 2881 1497 
Q 2881 1984 2565 2268 
Q 2250 2553 1709 2553 
Q 1456 2553 1204 2497 
Q 953 2441 691 2322 
L 691 4666 
z
" transform="scale(0.015625)"/>
       </defs>
       <use xlink:href="#DejaVuSans-35"/>
      </g>
     </g>
    </g>
    <g id="xtick_3">
     <g id="line2d_5">
      <path d="M 224.774744 191.6775 
L 224.774744 25.3575 
" clip-path="url(#pd7d016ec94)" style="fill: none; stroke: #b0b0b0; stroke-width: 0.8; stroke-linecap: square"/>
     </g>
     <g id="line2d_6">
      <g>
       <use xlink:href="#mc281ab87ef" x="224.774744" y="191.6775" style="stroke: #000000; stroke-width: 0.8"/>
      </g>
     </g>
     <g id="text_3">
      <!-- 10 -->
      <g transform="translate(218.412244 206.275938)scale(0.1 -0.1)">
       <defs>
        <path id="DejaVuSans-31" d="M 794 531 
L 1825 531 
L 1825 4091 
L 703 3866 
L 703 4441 
L 1819 4666 
L 2450 4666 
L 2450 531 
L 3481 531 
L 3481 0 
L 794 0 
L 794 531 
z
" transform="scale(0.015625)"/>
       </defs>
       <use xlink:href="#DejaVuSans-31"/>
       <use xlink:href="#DejaVuSans-30" x="63.623047"/>
      </g>
     </g>
    </g>
    <g id="xtick_4">
     <g id="line2d_7">
      <path d="M 304.779474 191.6775 
L 304.779474 25.3575 
" clip-path="url(#pd7d016ec94)" style="fill: none; stroke: #b0b0b0; stroke-width: 0.8; stroke-linecap: square"/>
     </g>
     <g id="line2d_8">
      <g>
       <use xlink:href="#mc281ab87ef" x="304.779474" y="191.6775" style="stroke: #000000; stroke-width: 0.8"/>
      </g>
     </g>
     <g id="text_4">
      <!-- 15 -->
      <g transform="translate(298.416974 206.275938)scale(0.1 -0.1)">
       <use xlink:href="#DejaVuSans-31"/>
       <use xlink:href="#DejaVuSans-35" x="63.623047"/>
      </g>
     </g>
    </g>
    <g id="xtick_5">
     <g id="line2d_9">
      <path d="M 384.784204 191.6775 
L 384.784204 25.3575 
" clip-path="url(#pd7d016ec94)" style="fill: none; stroke: #b0b0b0; stroke-width: 0.8; stroke-linecap: square"/>
     </g>
     <g id="line2d_10">
      <g>
       <use xlink:href="#mc281ab87ef" x="384.784204" y="191.6775" style="stroke: #000000; stroke-width: 0.8"/>
      </g>
     </g>
     <g id="text_5">
      <!-- 20 -->
      <g transform="translate(378.421704 206.275938)scale(0.1 -0.1)">
       <defs>
        <path id="DejaVuSans-32" d="M 1228 531 
L 3431 531 
L 3431 0 
L 469 0 
L 469 531 
Q 828 903 1448 1529 
Q 2069 2156 2228 2338 
Q 2531 2678 2651 2914 
Q 2772 3150 2772 3378 
Q 2772 3750 2511 3984 
Q 2250 4219 1831 4219 
Q 1534 4219 1204 4116 
Q 875 4013 500 3803 
L 500 4441 
Q 881 4594 1212 4672 
Q 1544 4750 1819 4750 
Q 2544 4750 2975 4387 
Q 3406 4025 3406 3419 
Q 3406 3131 3298 2873 
Q 3191 2616 2906 2266 
Q 2828 2175 2409 1742 
Q 1991 1309 1228 531 
z
" transform="scale(0.015625)"/>
       </defs>
       <use xlink:href="#DejaVuSans-32"/>
       <use xlink:href="#DejaVuSans-30" x="63.623047"/>
      </g>
     </g>
    </g>
    <g id="xtick_6">
     <g id="line2d_11">
      <path d="M 464.788934 191.6775 
L 464.788934 25.3575 
" clip-path="url(#pd7d016ec94)" style="fill: none; stroke: #b0b0b0; stroke-width: 0.8; stroke-linecap: square"/>
     </g>
     <g id="line2d_12">
      <g>
       <use xlink:href="#mc281ab87ef" x="464.788934" y="191.6775" style="stroke: #000000; stroke-width: 0.8"/>
      </g>
     </g>
     <g id="text_6">
      <!-- 25 -->
      <g transform="translate(458.426434 206.275938)scale(0.1 -0.1)">
       <use xlink:href="#DejaVuSans-32"/>
       <use xlink:href="#DejaVuSans-35" x="63.623047"/>
      </g>
     </g>
    </g>
    <g id="text_7">
     <!-- Predictions -->
     <g transform="translate(229.256406 222.993438)scale(0.14 -0.14)">
      <defs>
       <path id="DejaVuSans-50" d="M 1259 4147 
L 1259 2394 
L 2053 2394 
Q 2494 2394 2734 2622 
Q 2975 2850 2975 3272 
Q 2975 3691 2734 3919 
Q 2494 4147 2053 4147 
L 1259 4147 
z
M 628 4666 
L 2053 4666 
Q 2838 4666 3239 4311 
Q 3641 3956 3641 3272 
Q 3641 2581 3239 2228 
Q 2838 1875 2053 1875 
L 1259 1875 
L 1259 0 
L 628 0 
L 628 4666 
z
" transform="scale(0.015625)"/>
       <path id="DejaVuSans-72" d="M 2631 2963 
Q 2534 3019 2420 3045 
Q 2306 3072 2169 3072 
Q 1681 3072 1420 2755 
Q 1159 2438 1159 1844 
L 1159 0 
L 581 0 
L 581 3500 
L 1159 3500 
L 1159 2956 
Q 1341 3275 1631 3429 
Q 1922 3584 2338 3584 
Q 2397 3584 2469 3576 
Q 2541 3569 2628 3553 
L 2631 2963 
z
" transform="scale(0.015625)"/>
       <path id="DejaVuSans-65" d="M 3597 1894 
L 3597 1613 
L 953 1613 
Q 991 1019 1311 708 
Q 1631 397 2203 397 
Q 2534 397 2845 478 
Q 3156 559 3463 722 
L 3463 178 
Q 3153 47 2828 -22 
Q 2503 -91 2169 -91 
Q 1331 -91 842 396 
Q 353 884 353 1716 
Q 353 2575 817 3079 
Q 1281 3584 2069 3584 
Q 2775 3584 3186 3129 
Q 3597 2675 3597 1894 
z
M 3022 2063 
Q 3016 2534 2758 2815 
Q 2500 3097 2075 3097 
Q 1594 3097 1305 2825 
Q 1016 2553 972 2059 
L 3022 2063 
z
" transform="scale(0.015625)"/>
       <path id="DejaVuSans-64" d="M 2906 2969 
L 2906 4863 
L 3481 4863 
L 3481 0 
L 2906 0 
L 2906 525 
Q 2725 213 2448 61 
Q 2172 -91 1784 -91 
Q 1150 -91 751 415 
Q 353 922 353 1747 
Q 353 2572 751 3078 
Q 1150 3584 1784 3584 
Q 2172 3584 2448 3432 
Q 2725 3281 2906 2969 
z
M 947 1747 
Q 947 1113 1208 752 
Q 1469 391 1925 391 
Q 2381 391 2643 752 
Q 2906 1113 2906 1747 
Q 2906 2381 2643 2742 
Q 2381 3103 1925 3103 
Q 1469 3103 1208 2742 
Q 947 2381 947 1747 
z
" transform="scale(0.015625)"/>
       <path id="DejaVuSans-69" d="M 603 3500 
L 1178 3500 
L 1178 0 
L 603 0 
L 603 3500 
z
M 603 4863 
L 1178 4863 
L 1178 4134 
L 603 4134 
L 603 4863 
z
" transform="scale(0.015625)"/>
       <path id="DejaVuSans-63" d="M 3122 3366 
L 3122 2828 
Q 2878 2963 2633 3030 
Q 2388 3097 2138 3097 
Q 1578 3097 1268 2742 
Q 959 2388 959 1747 
Q 959 1106 1268 751 
Q 1578 397 2138 397 
Q 2388 397 2633 464 
Q 2878 531 3122 666 
L 3122 134 
Q 2881 22 2623 -34 
Q 2366 -91 2075 -91 
Q 1284 -91 818 406 
Q 353 903 353 1747 
Q 353 2603 823 3093 
Q 1294 3584 2113 3584 
Q 2378 3584 2631 3529 
Q 2884 3475 3122 3366 
z
" transform="scale(0.015625)"/>
       <path id="DejaVuSans-74" d="M 1172 4494 
L 1172 3500 
L 2356 3500 
L 2356 3053 
L 1172 3053 
L 1172 1153 
Q 1172 725 1289 603 
Q 1406 481 1766 481 
L 2356 481 
L 2356 0 
L 1766 0 
Q 1100 0 847 248 
Q 594 497 594 1153 
L 594 3053 
L 172 3053 
L 172 3500 
L 594 3500 
L 594 4494 
L 1172 4494 
z
" transform="scale(0.015625)"/>
       <path id="DejaVuSans-6f" d="M 1959 3097 
Q 1497 3097 1228 2736 
Q 959 2375 959 1747 
Q 959 1119 1226 758 
Q 1494 397 1959 397 
Q 2419 397 2687 759 
Q 2956 1122 2956 1747 
Q 2956 2369 2687 2733 
Q 2419 3097 1959 3097 
z
M 1959 3584 
Q 2709 3584 3137 3096 
Q 3566 2609 3566 1747 
Q 3566 888 3137 398 
Q 2709 -91 1959 -91 
Q 1206 -91 779 398 
Q 353 888 353 1747 
Q 353 2609 779 3096 
Q 1206 3584 1959 3584 
z
" transform="scale(0.015625)"/>
       <path id="DejaVuSans-6e" d="M 3513 2113 
L 3513 0 
L 2938 0 
L 2938 2094 
Q 2938 2591 2744 2837 
Q 2550 3084 2163 3084 
Q 1697 3084 1428 2787 
Q 1159 2491 1159 1978 
L 1159 0 
L 581 0 
L 581 3500 
L 1159 3500 
L 1159 2956 
Q 1366 3272 1645 3428 
Q 1925 3584 2291 3584 
Q 2894 3584 3203 3211 
Q 3513 2838 3513 2113 
z
" transform="scale(0.015625)"/>
       <path id="DejaVuSans-73" d="M 2834 3397 
L 2834 2853 
Q 2591 2978 2328 3040 
Q 2066 3103 1784 3103 
Q 1356 3103 1142 2972 
Q 928 2841 928 2578 
Q 928 2378 1081 2264 
Q 1234 2150 1697 2047 
L 1894 2003 
Q 2506 1872 2764 1633 
Q 3022 1394 3022 966 
Q 3022 478 2636 193 
Q 2250 -91 1575 -91 
Q 1294 -91 989 -36 
Q 684 19 347 128 
L 347 722 
Q 666 556 975 473 
Q 1284 391 1588 391 
Q 1994 391 2212 530 
Q 2431 669 2431 922 
Q 2431 1156 2273 1281 
Q 2116 1406 1581 1522 
L 1381 1569 
Q 847 1681 609 1914 
Q 372 2147 372 2553 
Q 372 3047 722 3315 
Q 1072 3584 1716 3584 
Q 2034 3584 2315 3537 
Q 2597 3491 2834 3397 
z
" transform="scale(0.015625)"/>
      </defs>
      <use xlink:href="#DejaVuSans-50"/>
      <use xlink:href="#DejaVuSans-72" x="58.552734"/>
      <use xlink:href="#DejaVuSans-65" x="97.416016"/>
      <use xlink:href="#DejaVuSans-64" x="158.939453"/>
      <use xlink:href="#DejaVuSans-69" x="222.416016"/>
      <use xlink:href="#DejaVuSans-63" x="250.199219"/>
      <use xlink:href="#DejaVuSans-74" x="305.179688"/>
      <use xlink:href="#DejaVuSans-69" x="344.388672"/>
      <use xlink:href="#DejaVuSans-6f" x="372.171875"/>
      <use xlink:href="#DejaVuSans-6e" x="433.353516"/>
      <use xlink:href="#DejaVuSans-73" x="496.732422"/>
     </g>
    </g>
   </g>
   <g id="matplotlib.axis_2">
    <g id="ytick_1">
     <g id="line2d_13">
      <path d="M 44.474375 181.73475 
L 490.874375 181.73475 
" clip-path="url(#pd7d016ec94)" style="fill: none; stroke: #b0b0b0; stroke-width: 0.8; stroke-linecap: square"/>
     </g>
     <g id="line2d_14">
      <defs>
       <path id="m31cce9178b" d="M 0 0 
L -3.5 0 
" style="stroke: #000000; stroke-width: 0.8"/>
      </defs>
      <g>
       <use xlink:href="#m31cce9178b" x="44.474375" y="181.73475" style="stroke: #000000; stroke-width: 0.8"/>
      </g>
     </g>
     <g id="text_8">
      <!-- 0 -->
      <g transform="translate(31.111875 185.533969)scale(0.1 -0.1)">
       <use xlink:href="#DejaVuSans-30"/>
      </g>
     </g>
    </g>
    <g id="ytick_2">
     <g id="line2d_15">
      <path d="M 44.474375 152.396282 
L 490.874375 152.396282 
" clip-path="url(#pd7d016ec94)" style="fill: none; stroke: #b0b0b0; stroke-width: 0.8; stroke-linecap: square"/>
     </g>
     <g id="line2d_16">
      <g>
       <use xlink:href="#m31cce9178b" x="44.474375" y="152.396282" style="stroke: #000000; stroke-width: 0.8"/>
      </g>
     </g>
     <g id="text_9">
      <!-- 5 -->
      <g transform="translate(31.111875 156.1955)scale(0.1 -0.1)">
       <use xlink:href="#DejaVuSans-35"/>
      </g>
     </g>
    </g>
    <g id="ytick_3">
     <g id="line2d_17">
      <path d="M 44.474375 123.057813 
L 490.874375 123.057813 
" clip-path="url(#pd7d016ec94)" style="fill: none; stroke: #b0b0b0; stroke-width: 0.8; stroke-linecap: square"/>
     </g>
     <g id="line2d_18">
      <g>
       <use xlink:href="#m31cce9178b" x="44.474375" y="123.057813" style="stroke: #000000; stroke-width: 0.8"/>
      </g>
     </g>
     <g id="text_10">
      <!-- 10 -->
      <g transform="translate(24.749375 126.857032)scale(0.1 -0.1)">
       <use xlink:href="#DejaVuSans-31"/>
       <use xlink:href="#DejaVuSans-30" x="63.623047"/>
      </g>
     </g>
    </g>
    <g id="ytick_4">
     <g id="line2d_19">
      <path d="M 44.474375 93.719345 
L 490.874375 93.719345 
" clip-path="url(#pd7d016ec94)" style="fill: none; stroke: #b0b0b0; stroke-width: 0.8; stroke-linecap: square"/>
     </g>
     <g id="line2d_20">
      <g>
       <use xlink:href="#m31cce9178b" x="44.474375" y="93.719345" style="stroke: #000000; stroke-width: 0.8"/>
      </g>
     </g>
     <g id="text_11">
      <!-- 15 -->
      <g transform="translate(24.749375 97.518564)scale(0.1 -0.1)">
       <use xlink:href="#DejaVuSans-31"/>
       <use xlink:href="#DejaVuSans-35" x="63.623047"/>
      </g>
     </g>
    </g>
    <g id="ytick_5">
     <g id="line2d_21">
      <path d="M 44.474375 64.380876 
L 490.874375 64.380876 
" clip-path="url(#pd7d016ec94)" style="fill: none; stroke: #b0b0b0; stroke-width: 0.8; stroke-linecap: square"/>
     </g>
     <g id="line2d_22">
      <g>
       <use xlink:href="#m31cce9178b" x="44.474375" y="64.380876" style="stroke: #000000; stroke-width: 0.8"/>
      </g>
     </g>
     <g id="text_12">
      <!-- 20 -->
      <g transform="translate(24.749375 68.180095)scale(0.1 -0.1)">
       <use xlink:href="#DejaVuSans-32"/>
       <use xlink:href="#DejaVuSans-30" x="63.623047"/>
      </g>
     </g>
    </g>
    <g id="ytick_6">
     <g id="line2d_23">
      <path d="M 44.474375 35.042408 
L 490.874375 35.042408 
" clip-path="url(#pd7d016ec94)" style="fill: none; stroke: #b0b0b0; stroke-width: 0.8; stroke-linecap: square"/>
     </g>
     <g id="line2d_24">
      <g>
       <use xlink:href="#m31cce9178b" x="44.474375" y="35.042408" style="stroke: #000000; stroke-width: 0.8"/>
      </g>
     </g>
     <g id="text_13">
      <!-- 25 -->
      <g transform="translate(24.749375 38.841627)scale(0.1 -0.1)">
       <use xlink:href="#DejaVuSans-32"/>
       <use xlink:href="#DejaVuSans-35" x="63.623047"/>
      </g>
     </g>
    </g>
    <g id="text_14">
     <!-- Real -->
     <g transform="translate(17.837813 123.607969)rotate(-90)scale(0.14 -0.14)">
      <defs>
       <path id="DejaVuSans-52" d="M 2841 2188 
Q 3044 2119 3236 1894 
Q 3428 1669 3622 1275 
L 4263 0 
L 3584 0 
L 2988 1197 
Q 2756 1666 2539 1819 
Q 2322 1972 1947 1972 
L 1259 1972 
L 1259 0 
L 628 0 
L 628 4666 
L 2053 4666 
Q 2853 4666 3247 4331 
Q 3641 3997 3641 3322 
Q 3641 2881 3436 2590 
Q 3231 2300 2841 2188 
z
M 1259 4147 
L 1259 2491 
L 2053 2491 
Q 2509 2491 2742 2702 
Q 2975 2913 2975 3322 
Q 2975 3731 2742 3939 
Q 2509 4147 2053 4147 
L 1259 4147 
z
" transform="scale(0.015625)"/>
       <path id="DejaVuSans-61" d="M 2194 1759 
Q 1497 1759 1228 1600 
Q 959 1441 959 1056 
Q 959 750 1161 570 
Q 1363 391 1709 391 
Q 2188 391 2477 730 
Q 2766 1069 2766 1631 
L 2766 1759 
L 2194 1759 
z
M 3341 1997 
L 3341 0 
L 2766 0 
L 2766 531 
Q 2569 213 2275 61 
Q 1981 -91 1556 -91 
Q 1019 -91 701 211 
Q 384 513 384 1019 
Q 384 1609 779 1909 
Q 1175 2209 1959 2209 
L 2766 2209 
L 2766 2266 
Q 2766 2663 2505 2880 
Q 2244 3097 1772 3097 
Q 1472 3097 1187 3025 
Q 903 2953 641 2809 
L 641 3341 
Q 956 3463 1253 3523 
Q 1550 3584 1831 3584 
Q 2591 3584 2966 3190 
Q 3341 2797 3341 1997 
z
" transform="scale(0.015625)"/>
       <path id="DejaVuSans-6c" d="M 603 4863 
L 1178 4863 
L 1178 0 
L 603 0 
L 603 4863 
z
" transform="scale(0.015625)"/>
      </defs>
      <use xlink:href="#DejaVuSans-52"/>
      <use xlink:href="#DejaVuSans-65" x="64.982422"/>
      <use xlink:href="#DejaVuSans-61" x="126.505859"/>
      <use xlink:href="#DejaVuSans-6c" x="187.785156"/>
     </g>
    </g>
   </g>
   <g id="line2d_25">
    <path d="M 64.765284 181.73475 
L 80.76623 175.867056 
L 470.583466 32.9175 
" clip-path="url(#pd7d016ec94)" style="fill: none; stroke: #1f77b4; stroke-width: 1.5; stroke-linecap: square"/>
   </g>
   <g id="line2d_26">
    <path d="M 64.765284 184.1175 
L 80.76623 178.119214 
L 96.767176 172.120929 
L 112.768122 166.122643 
L 128.769068 160.124358 
L 144.770014 154.126072 
L 160.77096 148.127787 
L 176.771906 142.129501 
L 192.772852 136.131216 
L 208.773798 130.13293 
L 224.774744 124.134645 
L 240.77569 118.136359 
L 256.776636 112.138074 
L 272.777582 106.139788 
L 288.778528 100.141503 
L 304.779474 94.143217 
L 320.78042 88.144932 
L 336.781366 82.146646 
L 352.782312 76.14836 
L 368.783258 70.150075 
L 384.784204 64.151789 
L 400.78515 58.153504 
L 416.786096 52.155218 
L 432.787042 46.156933 
L 448.787988 40.158647 
L 464.788934 34.160362 
" clip-path="url(#pd7d016ec94)" style="fill: none; stroke: #ff0000; stroke-width: 1.5; stroke-linecap: square"/>
   </g>
   <g id="patch_3">
    <path d="M 44.474375 191.6775 
L 44.474375 25.3575 
" style="fill: none; stroke: #000000; stroke-width: 0.8; stroke-linejoin: miter; stroke-linecap: square"/>
   </g>
   <g id="patch_4">
    <path d="M 490.874375 191.6775 
L 490.874375 25.3575 
" style="fill: none; stroke: #000000; stroke-width: 0.8; stroke-linejoin: miter; stroke-linecap: square"/>
   </g>
   <g id="patch_5">
    <path d="M 44.474375 191.6775 
L 490.874375 191.6775 
" style="fill: none; stroke: #000000; stroke-width: 0.8; stroke-linejoin: miter; stroke-linecap: square"/>
   </g>
   <g id="patch_6">
    <path d="M 44.474375 25.3575 
L 490.874375 25.3575 
" style="fill: none; stroke: #000000; stroke-width: 0.8; stroke-linejoin: miter; stroke-linecap: square"/>
   </g>
   <g id="text_15">
    <!-- Moisture Content -->
    <g transform="translate(198.890625 19.3575)scale(0.16 -0.16)">
     <defs>
      <path id="DejaVuSans-4d" d="M 628 4666 
L 1569 4666 
L 2759 1491 
L 3956 4666 
L 4897 4666 
L 4897 0 
L 4281 0 
L 4281 4097 
L 3078 897 
L 2444 897 
L 1241 4097 
L 1241 0 
L 628 0 
L 628 4666 
z
" transform="scale(0.015625)"/>
      <path id="DejaVuSans-75" d="M 544 1381 
L 544 3500 
L 1119 3500 
L 1119 1403 
Q 1119 906 1312 657 
Q 1506 409 1894 409 
Q 2359 409 2629 706 
Q 2900 1003 2900 1516 
L 2900 3500 
L 3475 3500 
L 3475 0 
L 2900 0 
L 2900 538 
Q 2691 219 2414 64 
Q 2138 -91 1772 -91 
Q 1169 -91 856 284 
Q 544 659 544 1381 
z
M 1991 3584 
L 1991 3584 
z
" transform="scale(0.015625)"/>
      <path id="DejaVuSans-20" transform="scale(0.015625)"/>
      <path id="DejaVuSans-43" d="M 4122 4306 
L 4122 3641 
Q 3803 3938 3442 4084 
Q 3081 4231 2675 4231 
Q 1875 4231 1450 3742 
Q 1025 3253 1025 2328 
Q 1025 1406 1450 917 
Q 1875 428 2675 428 
Q 3081 428 3442 575 
Q 3803 722 4122 1019 
L 4122 359 
Q 3791 134 3420 21 
Q 3050 -91 2638 -91 
Q 1578 -91 968 557 
Q 359 1206 359 2328 
Q 359 3453 968 4101 
Q 1578 4750 2638 4750 
Q 3056 4750 3426 4639 
Q 3797 4528 4122 4306 
z
" transform="scale(0.015625)"/>
     </defs>
     <use xlink:href="#DejaVuSans-4d"/>
     <use xlink:href="#DejaVuSans-6f" x="86.279297"/>
     <use xlink:href="#DejaVuSans-69" x="147.460938"/>
     <use xlink:href="#DejaVuSans-73" x="175.244141"/>
     <use xlink:href="#DejaVuSans-74" x="227.34375"/>
     <use xlink:href="#DejaVuSans-75" x="266.552734"/>
     <use xlink:href="#DejaVuSans-72" x="329.931641"/>
     <use xlink:href="#DejaVuSans-65" x="368.794922"/>
     <use xlink:href="#DejaVuSans-20" x="430.318359"/>
     <use xlink:href="#DejaVuSans-43" x="462.105469"/>
     <use xlink:href="#DejaVuSans-6f" x="531.929688"/>
     <use xlink:href="#DejaVuSans-6e" x="593.111328"/>
     <use xlink:href="#DejaVuSans-74" x="656.490234"/>
     <use xlink:href="#DejaVuSans-65" x="695.699219"/>
     <use xlink:href="#DejaVuSans-6e" x="757.222656"/>
     <use xlink:href="#DejaVuSans-74" x="820.601562"/>
    </g>
   </g>
   <g id="legend_1">
    <g id="patch_7">
     <path d="M 51.474375 62.71375 
L 121.229063 62.71375 
Q 123.229063 62.71375 123.229063 60.71375 
L 123.229063 32.3575 
Q 123.229063 30.3575 121.229063 30.3575 
L 51.474375 30.3575 
Q 49.474375 30.3575 49.474375 32.3575 
L 49.474375 60.71375 
Q 49.474375 62.71375 51.474375 62.71375 
z
" style="fill: #ffffff; opacity: 0.8; stroke: #cccccc; stroke-linejoin: miter"/>
    </g>
    <g id="line2d_27">
     <path d="M 53.474375 38.455938 
L 63.474375 38.455938 
L 73.474375 38.455938 
" style="fill: none; stroke: #1f77b4; stroke-width: 1.5; stroke-linecap: square"/>
    </g>
    <g id="text_16">
     <!-- Ideal fit -->
     <g transform="translate(81.474375 41.955938)scale(0.1 -0.1)">
      <defs>
       <path id="DejaVuSans-49" d="M 628 4666 
L 1259 4666 
L 1259 0 
L 628 0 
L 628 4666 
z
" transform="scale(0.015625)"/>
       <path id="DejaVuSans-66" d="M 2375 4863 
L 2375 4384 
L 1825 4384 
Q 1516 4384 1395 4259 
Q 1275 4134 1275 3809 
L 1275 3500 
L 2222 3500 
L 2222 3053 
L 1275 3053 
L 1275 0 
L 697 0 
L 697 3053 
L 147 3053 
L 147 3500 
L 697 3500 
L 697 3744 
Q 697 4328 969 4595 
Q 1241 4863 1831 4863 
L 2375 4863 
z
" transform="scale(0.015625)"/>
      </defs>
      <use xlink:href="#DejaVuSans-49"/>
      <use xlink:href="#DejaVuSans-64" x="29.492188"/>
      <use xlink:href="#DejaVuSans-65" x="92.96875"/>
      <use xlink:href="#DejaVuSans-61" x="154.492188"/>
      <use xlink:href="#DejaVuSans-6c" x="215.771484"/>
      <use xlink:href="#DejaVuSans-20" x="243.554688"/>
      <use xlink:href="#DejaVuSans-66" x="275.341797"/>
      <use xlink:href="#DejaVuSans-69" x="310.546875"/>
      <use xlink:href="#DejaVuSans-74" x="338.330078"/>
     </g>
    </g>
    <g id="line2d_28">
     <path d="M 53.474375 53.134063 
L 63.474375 53.134063 
L 73.474375 53.134063 
" style="fill: none; stroke: #ff0000; stroke-width: 1.5; stroke-linecap: square"/>
    </g>
    <g id="text_17">
     <!-- Best fit -->
     <g transform="translate(81.474375 56.634063)scale(0.1 -0.1)">
      <defs>
       <path id="DejaVuSans-42" d="M 1259 2228 
L 1259 519 
L 2272 519 
Q 2781 519 3026 730 
Q 3272 941 3272 1375 
Q 3272 1813 3026 2020 
Q 2781 2228 2272 2228 
L 1259 2228 
z
M 1259 4147 
L 1259 2741 
L 2194 2741 
Q 2656 2741 2882 2914 
Q 3109 3088 3109 3444 
Q 3109 3797 2882 3972 
Q 2656 4147 2194 4147 
L 1259 4147 
z
M 628 4666 
L 2241 4666 
Q 2963 4666 3353 4366 
Q 3744 4066 3744 3513 
Q 3744 3084 3544 2831 
Q 3344 2578 2956 2516 
Q 3422 2416 3680 2098 
Q 3938 1781 3938 1306 
Q 3938 681 3513 340 
Q 3088 0 2303 0 
L 628 0 
L 628 4666 
z
" transform="scale(0.015625)"/>
      </defs>
      <use xlink:href="#DejaVuSans-42"/>
      <use xlink:href="#DejaVuSans-65" x="68.603516"/>
      <use xlink:href="#DejaVuSans-73" x="130.126953"/>
      <use xlink:href="#DejaVuSans-74" x="182.226562"/>
      <use xlink:href="#DejaVuSans-20" x="221.435547"/>
      <use xlink:href="#DejaVuSans-66" x="253.222656"/>
      <use xlink:href="#DejaVuSans-69" x="288.427734"/>
      <use xlink:href="#DejaVuSans-74" x="316.210938"/>
     </g>
    </g>
   </g>
  </g>
 </g>
 <defs>
  <clipPath id="pd7d016ec94">
   <rect x="44.474375" y="25.3575" width="446.4" height="166.32"/>
  </clipPath>
 </defs>
</svg>
