<?xml version="1.0" encoding="utf-8" standalone="no"?>
<!DOCTYPE svg PUBLIC "-//W3C//DTD SVG 1.1//EN"
  "http://www.w3.org/Graphics/SVG/1.1/DTD/svg11.dtd">
<!-- Created with matplotlib (https://matplotlib.org/) -->
<svg height="233.105pt" version="1.1" viewBox="0 0 501.2525 233.105" width="501.2525pt" xmlns="http://www.w3.org/2000/svg" xmlns:xlink="http://www.w3.org/1999/xlink">
 <defs>
  <style type="text/css">
*{stroke-linecap:butt;stroke-linejoin:round;}
  </style>
 </defs>
 <g id="figure_1">
  <g id="patch_1">
   <path d="M 0 233.105 
L 501.2525 233.105 
L 501.2525 0 
L 0 0 
z
" style="fill:none;"/>
  </g>
  <g id="axes_1">
   <g id="patch_2">
    <path d="M 47.6525 191.6775 
L 494.0525 191.6775 
L 494.0525 25.3575 
L 47.6525 25.3575 
z
" style="fill:none;"/>
   </g>
   <g id="PathCollection_1">
    <defs>
     <path d="M 0 3 
C 0.795609 3 1.55874 2.683901 2.12132 2.12132 
C 2.683901 1.55874 3 0.795609 3 0 
C 3 -0.795609 2.683901 -1.55874 2.12132 -2.12132 
C 1.55874 -2.683901 0.795609 -3 0 -3 
C -0.795609 -3 -1.55874 -2.683901 -2.12132 -2.12132 
C -2.683901 -1.55874 -3 -0.795609 -3 0 
C -3 0.795609 -2.683901 1.55874 -2.12132 2.12132 
C -1.55874 2.683901 -0.795609 3 0 3 
z
" id="m4676205a08" style="stroke:#1f77b4;"/>
    </defs>
    <g clip-path="url(#pf34290668a)">
     <use style="fill:#1f77b4;stroke:#1f77b4;" x="305.809746" xlink:href="#m4676205a08" y="74.067532"/>
     <use style="fill:#1f77b4;stroke:#1f77b4;" x="391.907863" xlink:href="#m4676205a08" y="55.391292"/>
     <use style="fill:#1f77b4;stroke:#1f77b4;" x="296.867559" xlink:href="#m4676205a08" y="74.067532"/>
     <use style="fill:#1f77b4;stroke:#1f77b4;" x="241.662558" xlink:href="#m4676205a08" y="99.641668"/>
     <use style="fill:#1f77b4;stroke:#1f77b4;" x="249.050145" xlink:href="#m4676205a08" y="87.77432"/>
     <use style="fill:#1f77b4;stroke:#1f77b4;" x="336.766826" xlink:href="#m4676205a08" y="64.825834"/>
     <use style="fill:#1f77b4;stroke:#1f77b4;" x="390.499061" xlink:href="#m4676205a08" y="54.723753"/>
     <use style="fill:#1f77b4;stroke:#1f77b4;" x="331.301177" xlink:href="#m4676205a08" y="70.017799"/>
     <use style="fill:#1f77b4;stroke:#1f77b4;" x="250.470359" xlink:href="#m4676205a08" y="83.398235"/>
     <use style="fill:#1f77b4;stroke:#1f77b4;" x="347.070176" xlink:href="#m4676205a08" y="69.765618"/>
     <use style="fill:#1f77b4;stroke:#1f77b4;" x="303.652256" xlink:href="#m4676205a08" y="69.869457"/>
     <use style="fill:#1f77b4;stroke:#1f77b4;" x="223.550673" xlink:href="#m4676205a08" y="105.159986"/>
     <use style="fill:#1f77b4;stroke:#1f77b4;" x="371.150328" xlink:href="#m4676205a08" y="62.749048"/>
     <use style="fill:#1f77b4;stroke:#1f77b4;" x="229.254676" xlink:href="#m4676205a08" y="87.166118"/>
     <use style="fill:#1f77b4;stroke:#1f77b4;" x="377.930395" xlink:href="#m4676205a08" y="58.209787"/>
     <use style="fill:#1f77b4;stroke:#1f77b4;" x="381.927624" xlink:href="#m4676205a08" y="54.441904"/>
     <use style="fill:#1f77b4;stroke:#1f77b4;" x="278.382407" xlink:href="#m4676205a08" y="73.830185"/>
     <use style="fill:#1f77b4;stroke:#1f77b4;" x="358.173427" xlink:href="#m4676205a08" y="64.469814"/>
     <use style="fill:#1f77b4;stroke:#1f77b4;" x="269.392256" xlink:href="#m4676205a08" y="81.603298"/>
     <use style="fill:#1f77b4;stroke:#1f77b4;" x="366.366479" xlink:href="#m4676205a08" y="54.189723"/>
     <use style="fill:#1f77b4;stroke:#1f77b4;" x="359.499907" xlink:href="#m4676205a08" y="69.557939"/>
     <use style="fill:#1f77b4;stroke:#1f77b4;" x="244.989521" xlink:href="#m4676205a08" y="90.934001"/>
     <use style="fill:#1f77b4;stroke:#1f77b4;" x="260.689723" xlink:href="#m4676205a08" y="93.41131"/>
     <use style="fill:#1f77b4;stroke:#1f77b4;" x="369.613232" xlink:href="#m4676205a08" y="56.355514"/>
     <use style="fill:#1f77b4;stroke:#1f77b4;" x="401.326432" xlink:href="#m4676205a08" y="55.317121"/>
     <use style="fill:#1f77b4;stroke:#1f77b4;" x="369.274322" xlink:href="#m4676205a08" y="64.959342"/>
     <use style="fill:#1f77b4;stroke:#1f77b4;" x="344.584132" xlink:href="#m4676205a08" y="64.247301"/>
     <use style="fill:#1f77b4;stroke:#1f77b4;" x="381.423788" xlink:href="#m4676205a08" y="58.565807"/>
     <use style="fill:#1f77b4;stroke:#1f77b4;" x="282.577296" xlink:href="#m4676205a08" y="75.461945"/>
     <use style="fill:#1f77b4;stroke:#1f77b4;" x="277.970516" xlink:href="#m4676205a08" y="75.461945"/>
     <use style="fill:#1f77b4;stroke:#1f77b4;" x="221.826923" xlink:href="#m4676205a08" y="91.690545"/>
     <use style="fill:#1f77b4;stroke:#1f77b4;" x="184.529852" xlink:href="#m4676205a08" y="104.803965"/>
     <use style="fill:#1f77b4;stroke:#1f77b4;" x="303.020125" xlink:href="#m4676205a08" y="91.126846"/>
     <use style="fill:#1f77b4;stroke:#1f77b4;" x="288.641002" xlink:href="#m4676205a08" y="75.669624"/>
     <use style="fill:#1f77b4;stroke:#1f77b4;" x="373.227365" xlink:href="#m4676205a08" y="60.197568"/>
     <use style="fill:#1f77b4;stroke:#1f77b4;" x="264.158341" xlink:href="#m4676205a08" y="82.641691"/>
     <use style="fill:#1f77b4;stroke:#1f77b4;" x="348.838397" xlink:href="#m4676205a08" y="69.557939"/>
     <use style="fill:#1f77b4;stroke:#1f77b4;" x="357.680028" xlink:href="#m4676205a08" y="65.404367"/>
     <use style="fill:#1f77b4;stroke:#1f77b4;" x="352.641255" xlink:href="#m4676205a08" y="61.102453"/>
     <use style="fill:#1f77b4;stroke:#1f77b4;" x="216.512433" xlink:href="#m4676205a08" y="104.99681"/>
     <use style="fill:#1f77b4;stroke:#1f77b4;" x="115.788697" xlink:href="#m4676205a08" y="114.683533"/>
     <use style="fill:#1f77b4;stroke:#1f77b4;" x="170.043796" xlink:href="#m4676205a08" y="110.604132"/>
     <use style="fill:#1f77b4;stroke:#1f77b4;" x="321.531392" xlink:href="#m4676205a08" y="70.255146"/>
     <use style="fill:#1f77b4;stroke:#1f77b4;" x="290.192962" xlink:href="#m4676205a08" y="75.461945"/>
     <use style="fill:#1f77b4;stroke:#1f77b4;" x="386.181685" xlink:href="#m4676205a08" y="58.803154"/>
     <use style="fill:#1f77b4;stroke:#1f77b4;" x="239.958464" xlink:href="#m4676205a08" y="92.002063"/>
     <use style="fill:#1f77b4;stroke:#1f77b4;" x="273.690869" xlink:href="#m4676205a08" y="75.669624"/>
     <use style="fill:#1f77b4;stroke:#1f77b4;" x="390.612207" xlink:href="#m4676205a08" y="52.676636"/>
     <use style="fill:#1f77b4;stroke:#1f77b4;" x="284.076053" xlink:href="#m4676205a08" y="83.976768"/>
     <use style="fill:#1f77b4;stroke:#1f77b4;" x="374.266513" xlink:href="#m4676205a08" y="53.448013"/>
     <use style="fill:#1f77b4;stroke:#1f77b4;" x="346.471835" xlink:href="#m4676205a08" y="62.363359"/>
     <use style="fill:#1f77b4;stroke:#1f77b4;" x="381.841729" xlink:href="#m4676205a08" y="55.24295"/>
     <use style="fill:#1f77b4;stroke:#1f77b4;" x="249.456878" xlink:href="#m4676205a08" y="98.380763"/>
     <use style="fill:#1f77b4;stroke:#1f77b4;" x="347.995975" xlink:href="#m4676205a08" y="64.425311"/>
     <use style="fill:#1f77b4;stroke:#1f77b4;" x="274.237065" xlink:href="#m4676205a08" y="78.992482"/>
     <use style="fill:#1f77b4;stroke:#1f77b4;" x="315.939804" xlink:href="#m4676205a08" y="74.290045"/>
     <use style="fill:#1f77b4;stroke:#1f77b4;" x="348.283104" xlink:href="#m4676205a08" y="61.102453"/>
     <use style="fill:#1f77b4;stroke:#1f77b4;" x="293.242705" xlink:href="#m4676205a08" y="75.625121"/>
     <use style="fill:#1f77b4;stroke:#1f77b4;" x="239.4435" xlink:href="#m4676205a08" y="104.99681"/>
     <use style="fill:#1f77b4;stroke:#1f77b4;" x="381.366402" xlink:href="#m4676205a08" y="54.441904"/>
     <use style="fill:#1f77b4;stroke:#1f77b4;" x="286.737177" xlink:href="#m4676205a08" y="74.957583"/>
     <use style="fill:#1f77b4;stroke:#1f77b4;" x="364.695078" xlink:href="#m4676205a08" y="61.102453"/>
     <use style="fill:#1f77b4;stroke:#1f77b4;" x="211.574542" xlink:href="#m4676205a08" y="95.117242"/>
     <use style="fill:#1f77b4;stroke:#1f77b4;" x="395.337737" xlink:href="#m4676205a08" y="55.70281"/>
     <use style="fill:#1f77b4;stroke:#1f77b4;" x="307.787811" xlink:href="#m4676205a08" y="72.198424"/>
     <use style="fill:#1f77b4;stroke:#1f77b4;" x="381.288183" xlink:href="#m4676205a08" y="60.80577"/>
     <use style="fill:#1f77b4;stroke:#1f77b4;" x="134.878669" xlink:href="#m4676205a08" y="103.216707"/>
     <use style="fill:#1f77b4;stroke:#1f77b4;" x="296.137187" xlink:href="#m4676205a08" y="75.150427"/>
     <use style="fill:#1f77b4;stroke:#1f77b4;" x="279.8782" xlink:href="#m4676205a08" y="78.992482"/>
     <use style="fill:#1f77b4;stroke:#1f77b4;" x="291.66585" xlink:href="#m4676205a08" y="77.553566"/>
     <use style="fill:#1f77b4;stroke:#1f77b4;" x="318.774017" xlink:href="#m4676205a08" y="70.492493"/>
     <use style="fill:#1f77b4;stroke:#1f77b4;" x="307.729532" xlink:href="#m4676205a08" y="74.230708"/>
     <use style="fill:#1f77b4;stroke:#1f77b4;" x="287.854219" xlink:href="#m4676205a08" y="91.112011"/>
     <use style="fill:#1f77b4;stroke:#1f77b4;" x="316.885259" xlink:href="#m4676205a08" y="77.805747"/>
     <use style="fill:#1f77b4;stroke:#1f77b4;" x="199.015988" xlink:href="#m4676205a08" y="97.016017"/>
     <use style="fill:#1f77b4;stroke:#1f77b4;" x="357.642949" xlink:href="#m4676205a08" y="72.687953"/>
     <use style="fill:#1f77b4;stroke:#1f77b4;" x="176.53048" xlink:href="#m4676205a08" y="98.781286"/>
     <use style="fill:#1f77b4;stroke:#1f77b4;" x="372.568227" xlink:href="#m4676205a08" y="59.841547"/>
     <use style="fill:#1f77b4;stroke:#1f77b4;" x="337.064352" xlink:href="#m4676205a08" y="63.446255"/>
     <use style="fill:#1f77b4;stroke:#1f77b4;" x="278.723266" xlink:href="#m4676205a08" y="75.669624"/>
     <use style="fill:#1f77b4;stroke:#1f77b4;" x="353.19805" xlink:href="#m4676205a08" y="64.469814"/>
     <use style="fill:#1f77b4;stroke:#1f77b4;" x="346.58096" xlink:href="#m4676205a08" y="64.247301"/>
     <use style="fill:#1f77b4;stroke:#1f77b4;" x="312.368842" xlink:href="#m4676205a08" y="65.359865"/>
     <use style="fill:#1f77b4;stroke:#1f77b4;" x="339.373894" xlink:href="#m4676205a08" y="68.801396"/>
     <use style="fill:#1f77b4;stroke:#1f77b4;" x="185.796632" xlink:href="#m4676205a08" y="105.159986"/>
     <use style="fill:#1f77b4;stroke:#1f77b4;" x="276.450884" xlink:href="#m4676205a08" y="75.135593"/>
     <use style="fill:#1f77b4;stroke:#1f77b4;" x="306.945227" xlink:href="#m4676205a08" y="74.067532"/>
     <use style="fill:#1f77b4;stroke:#1f77b4;" x="385.083447" xlink:href="#m4676205a08" y="56.726368"/>
     <use style="fill:#1f77b4;stroke:#1f77b4;" x="352.498827" xlink:href="#m4676205a08" y="64.469814"/>
     <use style="fill:#1f77b4;stroke:#1f77b4;" x="348.308203" xlink:href="#m4676205a08" y="60.80577"/>
     <use style="fill:#1f77b4;stroke:#1f77b4;" x="295.663647" xlink:href="#m4676205a08" y="69.869457"/>
     <use style="fill:#1f77b4;stroke:#1f77b4;" x="273.636733" xlink:href="#m4676205a08" y="80.283056"/>
     <use style="fill:#1f77b4;stroke:#1f77b4;" x="328.325267" xlink:href="#m4676205a08" y="65.359865"/>
     <use style="fill:#1f77b4;stroke:#1f77b4;" x="370.812839" xlink:href="#m4676205a08" y="61.591981"/>
     <use style="fill:#1f77b4;stroke:#1f77b4;" x="394.4346" xlink:href="#m4676205a08" y="56.355514"/>
     <use style="fill:#1f77b4;stroke:#1f77b4;" x="210.473419" xlink:href="#m4676205a08" y="97.772561"/>
     <use style="fill:#1f77b4;stroke:#1f77b4;" x="250.160568" xlink:href="#m4676205a08" y="79.630352"/>
     <use style="fill:#1f77b4;stroke:#1f77b4;" x="283.647471" xlink:href="#m4676205a08" y="75.625121"/>
     <use style="fill:#1f77b4;stroke:#1f77b4;" x="291.656793" xlink:href="#m4676205a08" y="83.235059"/>
     <use style="fill:#1f77b4;stroke:#1f77b4;" x="364.114037" xlink:href="#m4676205a08" y="72.687953"/>
     <use style="fill:#1f77b4;stroke:#1f77b4;" x="274.755725" xlink:href="#m4676205a08" y="83.012546"/>
     <use style="fill:#1f77b4;stroke:#1f77b4;" x="275.954642" xlink:href="#m4676205a08" y="80.906092"/>
     <use style="fill:#1f77b4;stroke:#1f77b4;" x="375.663009" xlink:href="#m4676205a08" y="58.536139"/>
     <use style="fill:#1f77b4;stroke:#1f77b4;" x="272.400656" xlink:href="#m4676205a08" y="75.135593"/>
     <use style="fill:#1f77b4;stroke:#1f77b4;" x="256.29165" xlink:href="#m4676205a08" y="83.398235"/>
     <use style="fill:#1f77b4;stroke:#1f77b4;" x="381.423381" xlink:href="#m4676205a08" y="62.244686"/>
     <use style="fill:#1f77b4;stroke:#1f77b4;" x="263.34313" xlink:href="#m4676205a08" y="101.673952"/>
     <use style="fill:#1f77b4;stroke:#1f77b4;" x="297.05531" xlink:href="#m4676205a08" y="71.560554"/>
     <use style="fill:#1f77b4;stroke:#1f77b4;" x="352.001204" xlink:href="#m4676205a08" y="61.3398"/>
     <use style="fill:#1f77b4;stroke:#1f77b4;" x="375.058656" xlink:href="#m4676205a08" y="57.987274"/>
     <use style="fill:#1f77b4;stroke:#1f77b4;" x="416.032485" xlink:href="#m4676205a08" y="50.659186"/>
     <use style="fill:#1f77b4;stroke:#1f77b4;" x="190.567728" xlink:href="#m4676205a08" y="101.332766"/>
     <use style="fill:#1f77b4;stroke:#1f77b4;" x="238.441309" xlink:href="#m4676205a08" y="84.688809"/>
     <use style="fill:#1f77b4;stroke:#1f77b4;" x="323.012808" xlink:href="#m4676205a08" y="62.986395"/>
     <use style="fill:#1f77b4;stroke:#1f77b4;" x="334.763744" xlink:href="#m4676205a08" y="69.765618"/>
     <use style="fill:#1f77b4;stroke:#1f77b4;" x="371.7812" xlink:href="#m4676205a08" y="53.448013"/>
     <use style="fill:#1f77b4;stroke:#1f77b4;" x="276.435857" xlink:href="#m4676205a08" y="73.830185"/>
     <use style="fill:#1f77b4;stroke:#1f77b4;" x="213.332081" xlink:href="#m4676205a08" y="98.380763"/>
     <use style="fill:#1f77b4;stroke:#1f77b4;" x="359.587914" xlink:href="#m4676205a08" y="61.265629"/>
     <use style="fill:#1f77b4;stroke:#1f77b4;" x="236.17445" xlink:href="#m4676205a08" y="94.375532"/>
     <use style="fill:#1f77b4;stroke:#1f77b4;" x="360.455475" xlink:href="#m4676205a08" y="64.469814"/>
     <use style="fill:#1f77b4;stroke:#1f77b4;" x="385.068339" xlink:href="#m4676205a08" y="61.3398"/>
     <use style="fill:#1f77b4;stroke:#1f77b4;" x="171.26046" xlink:href="#m4676205a08" y="103.928748"/>
     <use style="fill:#1f77b4;stroke:#1f77b4;" x="336.89707" xlink:href="#m4676205a08" y="61.3398"/>
     <use style="fill:#1f77b4;stroke:#1f77b4;" x="336.896136" xlink:href="#m4676205a08" y="64.766497"/>
     <use style="fill:#1f77b4;stroke:#1f77b4;" x="363.345936" xlink:href="#m4676205a08" y="58.269124"/>
     <use style="fill:#1f77b4;stroke:#1f77b4;" x="253.323172" xlink:href="#m4676205a08" y="84.214115"/>
     <use style="fill:#1f77b4;stroke:#1f77b4;" x="385.307383" xlink:href="#m4676205a08" y="54.441904"/>
     <use style="fill:#1f77b4;stroke:#1f77b4;" x="350.768904" xlink:href="#m4676205a08" y="72.687953"/>
     <use style="fill:#1f77b4;stroke:#1f77b4;" x="226.055358" xlink:href="#m4676205a08" y="91.690545"/>
     <use style="fill:#1f77b4;stroke:#1f77b4;" x="205.956921" xlink:href="#m4676205a08" y="104.803965"/>
     <use style="fill:#1f77b4;stroke:#1f77b4;" x="253.743754" xlink:href="#m4676205a08" y="80.520403"/>
     <use style="fill:#1f77b4;stroke:#1f77b4;" x="282.750426" xlink:href="#m4676205a08" y="80.906092"/>
     <use style="fill:#1f77b4;stroke:#1f77b4;" x="395.134716" xlink:href="#m4676205a08" y="54.723753"/>
     <use style="fill:#1f77b4;stroke:#1f77b4;" x="339.413329" xlink:href="#m4676205a08" y="61.3398"/>
     <use style="fill:#1f77b4;stroke:#1f77b4;" x="219.245644" xlink:href="#m4676205a08" y="95.977624"/>
     <use style="fill:#1f77b4;stroke:#1f77b4;" x="271.574398" xlink:href="#m4676205a08" y="77.004701"/>
     <use style="fill:#1f77b4;stroke:#1f77b4;" x="363.845671" xlink:href="#m4676205a08" y="60.197568"/>
     <use style="fill:#1f77b4;stroke:#1f77b4;" x="381.787674" xlink:href="#m4676205a08" y="55.24295"/>
     <use style="fill:#1f77b4;stroke:#1f77b4;" x="259.262402" xlink:href="#m4676205a08" y="97.965405"/>
     <use style="fill:#1f77b4;stroke:#1f77b4;" x="184.356802" xlink:href="#m4676205a08" y="97.016017"/>
     <use style="fill:#1f77b4;stroke:#1f77b4;" x="337.235046" xlink:href="#m4676205a08" y="68.801396"/>
     <use style="fill:#1f77b4;stroke:#1f77b4;" x="321.733844" xlink:href="#m4676205a08" y="64.825834"/>
     <use style="fill:#1f77b4;stroke:#1f77b4;" x="288.396516" xlink:href="#m4676205a08" y="77.553566"/>
     <use style="fill:#1f77b4;stroke:#1f77b4;" x="285.427673" xlink:href="#m4676205a08" y="83.012546"/>
     <use style="fill:#1f77b4;stroke:#1f77b4;" x="226.507617" xlink:href="#m4676205a08" y="88.649537"/>
     <use style="fill:#1f77b4;stroke:#1f77b4;" x="365.52954" xlink:href="#m4676205a08" y="60.197568"/>
     <use style="fill:#1f77b4;stroke:#1f77b4;" x="259.685014" xlink:href="#m4676205a08" y="92.002063"/>
     <use style="fill:#1f77b4;stroke:#1f77b4;" x="390.900108" xlink:href="#m4676205a08" y="62.244686"/>
     <use style="fill:#1f77b4;stroke:#1f77b4;" x="347.128008" xlink:href="#m4676205a08" y="61.102453"/>
     <use style="fill:#1f77b4;stroke:#1f77b4;" x="274.71962" xlink:href="#m4676205a08" y="82.107661"/>
     <use style="fill:#1f77b4;stroke:#1f77b4;" x="295.99679" xlink:href="#m4676205a08" y="79.571015"/>
     <use style="fill:#1f77b4;stroke:#1f77b4;" x="188.906481" xlink:href="#m4676205a08" y="103.216707"/>
     <use style="fill:#1f77b4;stroke:#1f77b4;" x="275.638881" xlink:href="#m4676205a08" y="83.190556"/>
     <use style="fill:#1f77b4;stroke:#1f77b4;" x="379.21005" xlink:href="#m4676205a08" y="58.803154"/>
     <use style="fill:#1f77b4;stroke:#1f77b4;" x="372.653716" xlink:href="#m4676205a08" y="58.269124"/>
     <use style="fill:#1f77b4;stroke:#1f77b4;" x="181.066269" xlink:href="#m4676205a08" y="100.383378"/>
     <use style="fill:#1f77b4;stroke:#1f77b4;" x="391.518106" xlink:href="#m4676205a08" y="58.565807"/>
     <use style="fill:#1f77b4;stroke:#1f77b4;" x="375.203358" xlink:href="#m4676205a08" y="57.987274"/>
     <use style="fill:#1f77b4;stroke:#1f77b4;" x="191.708164" xlink:href="#m4676205a08" y="97.016017"/>
     <use style="fill:#1f77b4;stroke:#1f77b4;" x="356.116615" xlink:href="#m4676205a08" y="61.3398"/>
     <use style="fill:#1f77b4;stroke:#1f77b4;" x="351.866615" xlink:href="#m4676205a08" y="63.564928"/>
     <use style="fill:#1f77b4;stroke:#1f77b4;" x="324.38782" xlink:href="#m4676205a08" y="71.338042"/>
     <use style="fill:#1f77b4;stroke:#1f77b4;" x="414.807658" xlink:href="#m4676205a08" y="50.065819"/>
     <use style="fill:#1f77b4;stroke:#1f77b4;" x="379.464851" xlink:href="#m4676205a08" y="61.265629"/>
     <use style="fill:#1f77b4;stroke:#1f77b4;" x="230.606011" xlink:href="#m4676205a08" y="92.002063"/>
     <use style="fill:#1f77b4;stroke:#1f77b4;" x="393.581335" xlink:href="#m4676205a08" y="52.676636"/>
     <use style="fill:#1f77b4;stroke:#1f77b4;" x="367.691781" xlink:href="#m4676205a08" y="60.197568"/>
     <use style="fill:#1f77b4;stroke:#1f77b4;" x="335.622979" xlink:href="#m4676205a08" y="64.766497"/>
     <use style="fill:#1f77b4;stroke:#1f77b4;" x="377.823585" xlink:href="#m4676205a08" y="55.24295"/>
     <use style="fill:#1f77b4;stroke:#1f77b4;" x="343.673929" xlink:href="#m4676205a08" y="65.241191"/>
     <use style="fill:#1f77b4;stroke:#1f77b4;" x="382.280342" xlink:href="#m4676205a08" y="62.15568"/>
     <use style="fill:#1f77b4;stroke:#1f77b4;" x="374.205147" xlink:href="#m4676205a08" y="57.008218"/>
     <use style="fill:#1f77b4;stroke:#1f77b4;" x="343.295259" xlink:href="#m4676205a08" y="68.593717"/>
     <use style="fill:#1f77b4;stroke:#1f77b4;" x="386.494279" xlink:href="#m4676205a08" y="55.70281"/>
     <use style="fill:#1f77b4;stroke:#1f77b4;" x="282.831163" xlink:href="#m4676205a08" y="80.787418"/>
     <use style="fill:#1f77b4;stroke:#1f77b4;" x="207.106129" xlink:href="#m4676205a08" y="97.772561"/>
     <use style="fill:#1f77b4;stroke:#1f77b4;" x="370.410331" xlink:href="#m4676205a08" y="58.536139"/>
     <use style="fill:#1f77b4;stroke:#1f77b4;" x="182.76354" xlink:href="#m4676205a08" y="98.781286"/>
     <use style="fill:#1f77b4;stroke:#1f77b4;" x="181.908366" xlink:href="#m4676205a08" y="101.332766"/>
     <use style="fill:#1f77b4;stroke:#1f77b4;" x="345.231574" xlink:href="#m4676205a08" y="66.131242"/>
     <use style="fill:#1f77b4;stroke:#1f77b4;" x="258.667269" xlink:href="#m4676205a08" y="84.214115"/>
     <use style="fill:#1f77b4;stroke:#1f77b4;" x="217.687145" xlink:href="#m4676205a08" y="104.803965"/>
     <use style="fill:#1f77b4;stroke:#1f77b4;" x="387.023173" xlink:href="#m4676205a08" y="58.565807"/>
     <use style="fill:#1f77b4;stroke:#1f77b4;" x="274.499664" xlink:href="#m4676205a08" y="80.906092"/>
     <use style="fill:#1f77b4;stroke:#1f77b4;" x="280.808953" xlink:href="#m4676205a08" y="77.553566"/>
     <use style="fill:#1f77b4;stroke:#1f77b4;" x="211.918772" xlink:href="#m4676205a08" y="95.977624"/>
     <use style="fill:#1f77b4;stroke:#1f77b4;" x="264.711359" xlink:href="#m4676205a08" y="84.510799"/>
     <use style="fill:#1f77b4;stroke:#1f77b4;" x="393.171069" xlink:href="#m4676205a08" y="55.391292"/>
     <use style="fill:#1f77b4;stroke:#1f77b4;" x="301.85776" xlink:href="#m4676205a08" y="74.957583"/>
     <use style="fill:#1f77b4;stroke:#1f77b4;" x="394.874838" xlink:href="#m4676205a08" y="56.770871"/>
     <use style="fill:#1f77b4;stroke:#1f77b4;" x="370.740956" xlink:href="#m4676205a08" y="53.448013"/>
     <use style="fill:#1f77b4;stroke:#1f77b4;" x="375.494792" xlink:href="#m4676205a08" y="56.770871"/>
     <use style="fill:#1f77b4;stroke:#1f77b4;" x="387.216041" xlink:href="#m4676205a08" y="58.565807"/>
     <use style="fill:#1f77b4;stroke:#1f77b4;" x="259.526991" xlink:href="#m4676205a08" y="80.520403"/>
     <use style="fill:#1f77b4;stroke:#1f77b4;" x="262.480361" xlink:href="#m4676205a08" y="82.063158"/>
     <use style="fill:#1f77b4;stroke:#1f77b4;" x="177.950653" xlink:href="#m4676205a08" y="103.61723"/>
     <use style="fill:#1f77b4;stroke:#1f77b4;" x="290.5112" xlink:href="#m4676205a08" y="79.541346"/>
     <use style="fill:#1f77b4;stroke:#1f77b4;" x="386.44794" xlink:href="#m4676205a08" y="52.676636"/>
    </g>
   </g>
   <g id="matplotlib.axis_1">
    <g id="xtick_1">
     <g id="line2d_1">
      <path clip-path="url(#pf34290668a)" d="M 95.864564 191.6775 
L 95.864564 25.3575 
" style="fill:none;stroke:#b0b0b0;stroke-linecap:square;stroke-width:0.8;"/>
     </g>
     <g id="line2d_2">
      <defs>
       <path d="M 0 0 
L 0 3.5 
" id="mb84cdedbe9" style="stroke:#000000;stroke-width:0.8;"/>
      </defs>
      <g>
       <use style="stroke:#000000;stroke-width:0.8;" x="95.864564" xlink:href="#mb84cdedbe9" y="191.6775"/>
      </g>
     </g>
     <g id="text_1">
      <!-- 0.4 -->
      <defs>
       <path d="M 31.78125 66.40625 
Q 24.171875 66.40625 20.328125 58.90625 
Q 16.5 51.421875 16.5 36.375 
Q 16.5 21.390625 20.328125 13.890625 
Q 24.171875 6.390625 31.78125 6.390625 
Q 39.453125 6.390625 43.28125 13.890625 
Q 47.125 21.390625 47.125 36.375 
Q 47.125 51.421875 43.28125 58.90625 
Q 39.453125 66.40625 31.78125 66.40625 
z
M 31.78125 74.21875 
Q 44.046875 74.21875 50.515625 64.515625 
Q 56.984375 54.828125 56.984375 36.375 
Q 56.984375 17.96875 50.515625 8.265625 
Q 44.046875 -1.421875 31.78125 -1.421875 
Q 19.53125 -1.421875 13.0625 8.265625 
Q 6.59375 17.96875 6.59375 36.375 
Q 6.59375 54.828125 13.0625 64.515625 
Q 19.53125 74.21875 31.78125 74.21875 
z
" id="DejaVuSans-48"/>
       <path d="M 10.6875 12.40625 
L 21 12.40625 
L 21 0 
L 10.6875 0 
z
" id="DejaVuSans-46"/>
       <path d="M 37.796875 64.3125 
L 12.890625 25.390625 
L 37.796875 25.390625 
z
M 35.203125 72.90625 
L 47.609375 72.90625 
L 47.609375 25.390625 
L 58.015625 25.390625 
L 58.015625 17.1875 
L 47.609375 17.1875 
L 47.609375 0 
L 37.796875 0 
L 37.796875 17.1875 
L 4.890625 17.1875 
L 4.890625 26.703125 
z
" id="DejaVuSans-52"/>
      </defs>
      <g transform="translate(87.913002 206.275938)scale(0.1 -0.1)">
       <use xlink:href="#DejaVuSans-48"/>
       <use x="63.623047" xlink:href="#DejaVuSans-46"/>
       <use x="95.410156" xlink:href="#DejaVuSans-52"/>
      </g>
     </g>
    </g>
    <g id="xtick_2">
     <g id="line2d_3">
      <path clip-path="url(#pf34290668a)" d="M 164.000761 191.6775 
L 164.000761 25.3575 
" style="fill:none;stroke:#b0b0b0;stroke-linecap:square;stroke-width:0.8;"/>
     </g>
     <g id="line2d_4">
      <g>
       <use style="stroke:#000000;stroke-width:0.8;" x="164.000761" xlink:href="#mb84cdedbe9" y="191.6775"/>
      </g>
     </g>
     <g id="text_2">
      <!-- 0.5 -->
      <defs>
       <path d="M 10.796875 72.90625 
L 49.515625 72.90625 
L 49.515625 64.59375 
L 19.828125 64.59375 
L 19.828125 46.734375 
Q 21.96875 47.46875 24.109375 47.828125 
Q 26.265625 48.1875 28.421875 48.1875 
Q 40.625 48.1875 47.75 41.5 
Q 54.890625 34.8125 54.890625 23.390625 
Q 54.890625 11.625 47.5625 5.09375 
Q 40.234375 -1.421875 26.90625 -1.421875 
Q 22.3125 -1.421875 17.546875 -0.640625 
Q 12.796875 0.140625 7.71875 1.703125 
L 7.71875 11.625 
Q 12.109375 9.234375 16.796875 8.0625 
Q 21.484375 6.890625 26.703125 6.890625 
Q 35.15625 6.890625 40.078125 11.328125 
Q 45.015625 15.765625 45.015625 23.390625 
Q 45.015625 31 40.078125 35.4375 
Q 35.15625 39.890625 26.703125 39.890625 
Q 22.75 39.890625 18.8125 39.015625 
Q 14.890625 38.140625 10.796875 36.28125 
z
" id="DejaVuSans-53"/>
      </defs>
      <g transform="translate(156.049199 206.275938)scale(0.1 -0.1)">
       <use xlink:href="#DejaVuSans-48"/>
       <use x="63.623047" xlink:href="#DejaVuSans-46"/>
       <use x="95.410156" xlink:href="#DejaVuSans-53"/>
      </g>
     </g>
    </g>
    <g id="xtick_3">
     <g id="line2d_5">
      <path clip-path="url(#pf34290668a)" d="M 232.136958 191.6775 
L 232.136958 25.3575 
" style="fill:none;stroke:#b0b0b0;stroke-linecap:square;stroke-width:0.8;"/>
     </g>
     <g id="line2d_6">
      <g>
       <use style="stroke:#000000;stroke-width:0.8;" x="232.136958" xlink:href="#mb84cdedbe9" y="191.6775"/>
      </g>
     </g>
     <g id="text_3">
      <!-- 0.6 -->
      <defs>
       <path d="M 33.015625 40.375 
Q 26.375 40.375 22.484375 35.828125 
Q 18.609375 31.296875 18.609375 23.390625 
Q 18.609375 15.53125 22.484375 10.953125 
Q 26.375 6.390625 33.015625 6.390625 
Q 39.65625 6.390625 43.53125 10.953125 
Q 47.40625 15.53125 47.40625 23.390625 
Q 47.40625 31.296875 43.53125 35.828125 
Q 39.65625 40.375 33.015625 40.375 
z
M 52.59375 71.296875 
L 52.59375 62.3125 
Q 48.875 64.0625 45.09375 64.984375 
Q 41.3125 65.921875 37.59375 65.921875 
Q 27.828125 65.921875 22.671875 59.328125 
Q 17.53125 52.734375 16.796875 39.40625 
Q 19.671875 43.65625 24.015625 45.921875 
Q 28.375 48.1875 33.59375 48.1875 
Q 44.578125 48.1875 50.953125 41.515625 
Q 57.328125 34.859375 57.328125 23.390625 
Q 57.328125 12.15625 50.6875 5.359375 
Q 44.046875 -1.421875 33.015625 -1.421875 
Q 20.359375 -1.421875 13.671875 8.265625 
Q 6.984375 17.96875 6.984375 36.375 
Q 6.984375 53.65625 15.1875 63.9375 
Q 23.390625 74.21875 37.203125 74.21875 
Q 40.921875 74.21875 44.703125 73.484375 
Q 48.484375 72.75 52.59375 71.296875 
z
" id="DejaVuSans-54"/>
      </defs>
      <g transform="translate(224.185396 206.275938)scale(0.1 -0.1)">
       <use xlink:href="#DejaVuSans-48"/>
       <use x="63.623047" xlink:href="#DejaVuSans-46"/>
       <use x="95.410156" xlink:href="#DejaVuSans-54"/>
      </g>
     </g>
    </g>
    <g id="xtick_4">
     <g id="line2d_7">
      <path clip-path="url(#pf34290668a)" d="M 300.273155 191.6775 
L 300.273155 25.3575 
" style="fill:none;stroke:#b0b0b0;stroke-linecap:square;stroke-width:0.8;"/>
     </g>
     <g id="line2d_8">
      <g>
       <use style="stroke:#000000;stroke-width:0.8;" x="300.273155" xlink:href="#mb84cdedbe9" y="191.6775"/>
      </g>
     </g>
     <g id="text_4">
      <!-- 0.7 -->
      <defs>
       <path d="M 8.203125 72.90625 
L 55.078125 72.90625 
L 55.078125 68.703125 
L 28.609375 0 
L 18.3125 0 
L 43.21875 64.59375 
L 8.203125 64.59375 
z
" id="DejaVuSans-55"/>
      </defs>
      <g transform="translate(292.321593 206.275938)scale(0.1 -0.1)">
       <use xlink:href="#DejaVuSans-48"/>
       <use x="63.623047" xlink:href="#DejaVuSans-46"/>
       <use x="95.410156" xlink:href="#DejaVuSans-55"/>
      </g>
     </g>
    </g>
    <g id="xtick_5">
     <g id="line2d_9">
      <path clip-path="url(#pf34290668a)" d="M 368.409353 191.6775 
L 368.409353 25.3575 
" style="fill:none;stroke:#b0b0b0;stroke-linecap:square;stroke-width:0.8;"/>
     </g>
     <g id="line2d_10">
      <g>
       <use style="stroke:#000000;stroke-width:0.8;" x="368.409353" xlink:href="#mb84cdedbe9" y="191.6775"/>
      </g>
     </g>
     <g id="text_5">
      <!-- 0.8 -->
      <defs>
       <path d="M 31.78125 34.625 
Q 24.75 34.625 20.71875 30.859375 
Q 16.703125 27.09375 16.703125 20.515625 
Q 16.703125 13.921875 20.71875 10.15625 
Q 24.75 6.390625 31.78125 6.390625 
Q 38.8125 6.390625 42.859375 10.171875 
Q 46.921875 13.96875 46.921875 20.515625 
Q 46.921875 27.09375 42.890625 30.859375 
Q 38.875 34.625 31.78125 34.625 
z
M 21.921875 38.8125 
Q 15.578125 40.375 12.03125 44.71875 
Q 8.5 49.078125 8.5 55.328125 
Q 8.5 64.0625 14.71875 69.140625 
Q 20.953125 74.21875 31.78125 74.21875 
Q 42.671875 74.21875 48.875 69.140625 
Q 55.078125 64.0625 55.078125 55.328125 
Q 55.078125 49.078125 51.53125 44.71875 
Q 48 40.375 41.703125 38.8125 
Q 48.828125 37.15625 52.796875 32.3125 
Q 56.78125 27.484375 56.78125 20.515625 
Q 56.78125 9.90625 50.3125 4.234375 
Q 43.84375 -1.421875 31.78125 -1.421875 
Q 19.734375 -1.421875 13.25 4.234375 
Q 6.78125 9.90625 6.78125 20.515625 
Q 6.78125 27.484375 10.78125 32.3125 
Q 14.796875 37.15625 21.921875 38.8125 
z
M 18.3125 54.390625 
Q 18.3125 48.734375 21.84375 45.5625 
Q 25.390625 42.390625 31.78125 42.390625 
Q 38.140625 42.390625 41.71875 45.5625 
Q 45.3125 48.734375 45.3125 54.390625 
Q 45.3125 60.0625 41.71875 63.234375 
Q 38.140625 66.40625 31.78125 66.40625 
Q 25.390625 66.40625 21.84375 63.234375 
Q 18.3125 60.0625 18.3125 54.390625 
z
" id="DejaVuSans-56"/>
      </defs>
      <g transform="translate(360.45779 206.275938)scale(0.1 -0.1)">
       <use xlink:href="#DejaVuSans-48"/>
       <use x="63.623047" xlink:href="#DejaVuSans-46"/>
       <use x="95.410156" xlink:href="#DejaVuSans-56"/>
      </g>
     </g>
    </g>
    <g id="xtick_6">
     <g id="line2d_11">
      <path clip-path="url(#pf34290668a)" d="M 436.54555 191.6775 
L 436.54555 25.3575 
" style="fill:none;stroke:#b0b0b0;stroke-linecap:square;stroke-width:0.8;"/>
     </g>
     <g id="line2d_12">
      <g>
       <use style="stroke:#000000;stroke-width:0.8;" x="436.54555" xlink:href="#mb84cdedbe9" y="191.6775"/>
      </g>
     </g>
     <g id="text_6">
      <!-- 0.9 -->
      <defs>
       <path d="M 10.984375 1.515625 
L 10.984375 10.5 
Q 14.703125 8.734375 18.5 7.8125 
Q 22.3125 6.890625 25.984375 6.890625 
Q 35.75 6.890625 40.890625 13.453125 
Q 46.046875 20.015625 46.78125 33.40625 
Q 43.953125 29.203125 39.59375 26.953125 
Q 35.25 24.703125 29.984375 24.703125 
Q 19.046875 24.703125 12.671875 31.3125 
Q 6.296875 37.9375 6.296875 49.421875 
Q 6.296875 60.640625 12.9375 67.421875 
Q 19.578125 74.21875 30.609375 74.21875 
Q 43.265625 74.21875 49.921875 64.515625 
Q 56.59375 54.828125 56.59375 36.375 
Q 56.59375 19.140625 48.40625 8.859375 
Q 40.234375 -1.421875 26.421875 -1.421875 
Q 22.703125 -1.421875 18.890625 -0.6875 
Q 15.09375 0.046875 10.984375 1.515625 
z
M 30.609375 32.421875 
Q 37.25 32.421875 41.125 36.953125 
Q 45.015625 41.5 45.015625 49.421875 
Q 45.015625 57.28125 41.125 61.84375 
Q 37.25 66.40625 30.609375 66.40625 
Q 23.96875 66.40625 20.09375 61.84375 
Q 16.21875 57.28125 16.21875 49.421875 
Q 16.21875 41.5 20.09375 36.953125 
Q 23.96875 32.421875 30.609375 32.421875 
z
" id="DejaVuSans-57"/>
      </defs>
      <g transform="translate(428.593987 206.275938)scale(0.1 -0.1)">
       <use xlink:href="#DejaVuSans-48"/>
       <use x="63.623047" xlink:href="#DejaVuSans-46"/>
       <use x="95.410156" xlink:href="#DejaVuSans-57"/>
      </g>
     </g>
    </g>
    <g id="text_7">
     <!-- Predictions -->
     <defs>
      <path d="M 19.671875 64.796875 
L 19.671875 37.40625 
L 32.078125 37.40625 
Q 38.96875 37.40625 42.71875 40.96875 
Q 46.484375 44.53125 46.484375 51.125 
Q 46.484375 57.671875 42.71875 61.234375 
Q 38.96875 64.796875 32.078125 64.796875 
z
M 9.8125 72.90625 
L 32.078125 72.90625 
Q 44.34375 72.90625 50.609375 67.359375 
Q 56.890625 61.8125 56.890625 51.125 
Q 56.890625 40.328125 50.609375 34.8125 
Q 44.34375 29.296875 32.078125 29.296875 
L 19.671875 29.296875 
L 19.671875 0 
L 9.8125 0 
z
" id="DejaVuSans-80"/>
      <path d="M 41.109375 46.296875 
Q 39.59375 47.171875 37.8125 47.578125 
Q 36.03125 48 33.890625 48 
Q 26.265625 48 22.1875 43.046875 
Q 18.109375 38.09375 18.109375 28.8125 
L 18.109375 0 
L 9.078125 0 
L 9.078125 54.6875 
L 18.109375 54.6875 
L 18.109375 46.1875 
Q 20.953125 51.171875 25.484375 53.578125 
Q 30.03125 56 36.53125 56 
Q 37.453125 56 38.578125 55.875 
Q 39.703125 55.765625 41.0625 55.515625 
z
" id="DejaVuSans-114"/>
      <path d="M 56.203125 29.59375 
L 56.203125 25.203125 
L 14.890625 25.203125 
Q 15.484375 15.921875 20.484375 11.0625 
Q 25.484375 6.203125 34.421875 6.203125 
Q 39.59375 6.203125 44.453125 7.46875 
Q 49.3125 8.734375 54.109375 11.28125 
L 54.109375 2.78125 
Q 49.265625 0.734375 44.1875 -0.34375 
Q 39.109375 -1.421875 33.890625 -1.421875 
Q 20.796875 -1.421875 13.15625 6.1875 
Q 5.515625 13.8125 5.515625 26.8125 
Q 5.515625 40.234375 12.765625 48.109375 
Q 20.015625 56 32.328125 56 
Q 43.359375 56 49.78125 48.890625 
Q 56.203125 41.796875 56.203125 29.59375 
z
M 47.21875 32.234375 
Q 47.125 39.59375 43.09375 43.984375 
Q 39.0625 48.390625 32.421875 48.390625 
Q 24.90625 48.390625 20.390625 44.140625 
Q 15.875 39.890625 15.1875 32.171875 
z
" id="DejaVuSans-101"/>
      <path d="M 45.40625 46.390625 
L 45.40625 75.984375 
L 54.390625 75.984375 
L 54.390625 0 
L 45.40625 0 
L 45.40625 8.203125 
Q 42.578125 3.328125 38.25 0.953125 
Q 33.9375 -1.421875 27.875 -1.421875 
Q 17.96875 -1.421875 11.734375 6.484375 
Q 5.515625 14.40625 5.515625 27.296875 
Q 5.515625 40.1875 11.734375 48.09375 
Q 17.96875 56 27.875 56 
Q 33.9375 56 38.25 53.625 
Q 42.578125 51.265625 45.40625 46.390625 
z
M 14.796875 27.296875 
Q 14.796875 17.390625 18.875 11.75 
Q 22.953125 6.109375 30.078125 6.109375 
Q 37.203125 6.109375 41.296875 11.75 
Q 45.40625 17.390625 45.40625 27.296875 
Q 45.40625 37.203125 41.296875 42.84375 
Q 37.203125 48.484375 30.078125 48.484375 
Q 22.953125 48.484375 18.875 42.84375 
Q 14.796875 37.203125 14.796875 27.296875 
z
" id="DejaVuSans-100"/>
      <path d="M 9.421875 54.6875 
L 18.40625 54.6875 
L 18.40625 0 
L 9.421875 0 
z
M 9.421875 75.984375 
L 18.40625 75.984375 
L 18.40625 64.59375 
L 9.421875 64.59375 
z
" id="DejaVuSans-105"/>
      <path d="M 48.78125 52.59375 
L 48.78125 44.1875 
Q 44.96875 46.296875 41.140625 47.34375 
Q 37.3125 48.390625 33.40625 48.390625 
Q 24.65625 48.390625 19.8125 42.84375 
Q 14.984375 37.3125 14.984375 27.296875 
Q 14.984375 17.28125 19.8125 11.734375 
Q 24.65625 6.203125 33.40625 6.203125 
Q 37.3125 6.203125 41.140625 7.25 
Q 44.96875 8.296875 48.78125 10.40625 
L 48.78125 2.09375 
Q 45.015625 0.34375 40.984375 -0.53125 
Q 36.96875 -1.421875 32.421875 -1.421875 
Q 20.0625 -1.421875 12.78125 6.34375 
Q 5.515625 14.109375 5.515625 27.296875 
Q 5.515625 40.671875 12.859375 48.328125 
Q 20.21875 56 33.015625 56 
Q 37.15625 56 41.109375 55.140625 
Q 45.0625 54.296875 48.78125 52.59375 
z
" id="DejaVuSans-99"/>
      <path d="M 18.3125 70.21875 
L 18.3125 54.6875 
L 36.8125 54.6875 
L 36.8125 47.703125 
L 18.3125 47.703125 
L 18.3125 18.015625 
Q 18.3125 11.328125 20.140625 9.421875 
Q 21.96875 7.515625 27.59375 7.515625 
L 36.8125 7.515625 
L 36.8125 0 
L 27.59375 0 
Q 17.1875 0 13.234375 3.875 
Q 9.28125 7.765625 9.28125 18.015625 
L 9.28125 47.703125 
L 2.6875 47.703125 
L 2.6875 54.6875 
L 9.28125 54.6875 
L 9.28125 70.21875 
z
" id="DejaVuSans-116"/>
      <path d="M 30.609375 48.390625 
Q 23.390625 48.390625 19.1875 42.75 
Q 14.984375 37.109375 14.984375 27.296875 
Q 14.984375 17.484375 19.15625 11.84375 
Q 23.34375 6.203125 30.609375 6.203125 
Q 37.796875 6.203125 41.984375 11.859375 
Q 46.1875 17.53125 46.1875 27.296875 
Q 46.1875 37.015625 41.984375 42.703125 
Q 37.796875 48.390625 30.609375 48.390625 
z
M 30.609375 56 
Q 42.328125 56 49.015625 48.375 
Q 55.71875 40.765625 55.71875 27.296875 
Q 55.71875 13.875 49.015625 6.21875 
Q 42.328125 -1.421875 30.609375 -1.421875 
Q 18.84375 -1.421875 12.171875 6.21875 
Q 5.515625 13.875 5.515625 27.296875 
Q 5.515625 40.765625 12.171875 48.375 
Q 18.84375 56 30.609375 56 
z
" id="DejaVuSans-111"/>
      <path d="M 54.890625 33.015625 
L 54.890625 0 
L 45.90625 0 
L 45.90625 32.71875 
Q 45.90625 40.484375 42.875 44.328125 
Q 39.84375 48.1875 33.796875 48.1875 
Q 26.515625 48.1875 22.3125 43.546875 
Q 18.109375 38.921875 18.109375 30.90625 
L 18.109375 0 
L 9.078125 0 
L 9.078125 54.6875 
L 18.109375 54.6875 
L 18.109375 46.1875 
Q 21.34375 51.125 25.703125 53.5625 
Q 30.078125 56 35.796875 56 
Q 45.21875 56 50.046875 50.171875 
Q 54.890625 44.34375 54.890625 33.015625 
z
" id="DejaVuSans-110"/>
      <path d="M 44.28125 53.078125 
L 44.28125 44.578125 
Q 40.484375 46.53125 36.375 47.5 
Q 32.28125 48.484375 27.875 48.484375 
Q 21.1875 48.484375 17.84375 46.4375 
Q 14.5 44.390625 14.5 40.28125 
Q 14.5 37.15625 16.890625 35.375 
Q 19.28125 33.59375 26.515625 31.984375 
L 29.59375 31.296875 
Q 39.15625 29.25 43.1875 25.515625 
Q 47.21875 21.78125 47.21875 15.09375 
Q 47.21875 7.46875 41.1875 3.015625 
Q 35.15625 -1.421875 24.609375 -1.421875 
Q 20.21875 -1.421875 15.453125 -0.5625 
Q 10.6875 0.296875 5.421875 2 
L 5.421875 11.28125 
Q 10.40625 8.6875 15.234375 7.390625 
Q 20.0625 6.109375 24.8125 6.109375 
Q 31.15625 6.109375 34.5625 8.28125 
Q 37.984375 10.453125 37.984375 14.40625 
Q 37.984375 18.0625 35.515625 20.015625 
Q 33.0625 21.96875 24.703125 23.78125 
L 21.578125 24.515625 
Q 13.234375 26.265625 9.515625 29.90625 
Q 5.8125 33.546875 5.8125 39.890625 
Q 5.8125 47.609375 11.28125 51.796875 
Q 16.75 56 26.8125 56 
Q 31.78125 56 36.171875 55.265625 
Q 40.578125 54.546875 44.28125 53.078125 
z
" id="DejaVuSans-115"/>
     </defs>
     <g transform="translate(232.157812 222.993438)scale(0.14 -0.14)">
      <use xlink:href="#DejaVuSans-80"/>
      <use x="60.287109" xlink:href="#DejaVuSans-114"/>
      <use x="101.369141" xlink:href="#DejaVuSans-101"/>
      <use x="162.892578" xlink:href="#DejaVuSans-100"/>
      <use x="226.369141" xlink:href="#DejaVuSans-105"/>
      <use x="254.152344" xlink:href="#DejaVuSans-99"/>
      <use x="309.132812" xlink:href="#DejaVuSans-116"/>
      <use x="348.341797" xlink:href="#DejaVuSans-105"/>
      <use x="376.125" xlink:href="#DejaVuSans-111"/>
      <use x="437.306641" xlink:href="#DejaVuSans-110"/>
      <use x="500.685547" xlink:href="#DejaVuSans-115"/>
     </g>
    </g>
   </g>
   <g id="matplotlib.axis_2">
    <g id="ytick_1">
     <g id="line2d_13">
      <path clip-path="url(#pf34290668a)" d="M 47.6525 181.259359 
L 494.0525 181.259359 
" style="fill:none;stroke:#b0b0b0;stroke-linecap:square;stroke-width:0.8;"/>
     </g>
     <g id="line2d_14">
      <defs>
       <path d="M 0 0 
L -3.5 0 
" id="ma45bbde153" style="stroke:#000000;stroke-width:0.8;"/>
      </defs>
      <g>
       <use style="stroke:#000000;stroke-width:0.8;" x="47.6525" xlink:href="#ma45bbde153" y="181.259359"/>
      </g>
     </g>
     <g id="text_8">
      <!-- 0.0 -->
      <g transform="translate(24.749375 185.058578)scale(0.1 -0.1)">
       <use xlink:href="#DejaVuSans-48"/>
       <use x="63.623047" xlink:href="#DejaVuSans-46"/>
       <use x="95.410156" xlink:href="#DejaVuSans-48"/>
      </g>
     </g>
    </g>
    <g id="ytick_2">
     <g id="line2d_15">
      <path clip-path="url(#pf34290668a)" d="M 47.6525 151.590988 
L 494.0525 151.590988 
" style="fill:none;stroke:#b0b0b0;stroke-linecap:square;stroke-width:0.8;"/>
     </g>
     <g id="line2d_16">
      <g>
       <use style="stroke:#000000;stroke-width:0.8;" x="47.6525" xlink:href="#ma45bbde153" y="151.590988"/>
      </g>
     </g>
     <g id="text_9">
      <!-- 0.2 -->
      <defs>
       <path d="M 19.1875 8.296875 
L 53.609375 8.296875 
L 53.609375 0 
L 7.328125 0 
L 7.328125 8.296875 
Q 12.9375 14.109375 22.625 23.890625 
Q 32.328125 33.6875 34.8125 36.53125 
Q 39.546875 41.84375 41.421875 45.53125 
Q 43.3125 49.21875 43.3125 52.78125 
Q 43.3125 58.59375 39.234375 62.25 
Q 35.15625 65.921875 28.609375 65.921875 
Q 23.96875 65.921875 18.8125 64.3125 
Q 13.671875 62.703125 7.8125 59.421875 
L 7.8125 69.390625 
Q 13.765625 71.78125 18.9375 73 
Q 24.125 74.21875 28.421875 74.21875 
Q 39.75 74.21875 46.484375 68.546875 
Q 53.21875 62.890625 53.21875 53.421875 
Q 53.21875 48.921875 51.53125 44.890625 
Q 49.859375 40.875 45.40625 35.40625 
Q 44.1875 33.984375 37.640625 27.21875 
Q 31.109375 20.453125 19.1875 8.296875 
z
" id="DejaVuSans-50"/>
      </defs>
      <g transform="translate(24.749375 155.390206)scale(0.1 -0.1)">
       <use xlink:href="#DejaVuSans-48"/>
       <use x="63.623047" xlink:href="#DejaVuSans-46"/>
       <use x="95.410156" xlink:href="#DejaVuSans-50"/>
      </g>
     </g>
    </g>
    <g id="ytick_3">
     <g id="line2d_17">
      <path clip-path="url(#pf34290668a)" d="M 47.6525 121.922616 
L 494.0525 121.922616 
" style="fill:none;stroke:#b0b0b0;stroke-linecap:square;stroke-width:0.8;"/>
     </g>
     <g id="line2d_18">
      <g>
       <use style="stroke:#000000;stroke-width:0.8;" x="47.6525" xlink:href="#ma45bbde153" y="121.922616"/>
      </g>
     </g>
     <g id="text_10">
      <!-- 0.4 -->
      <g transform="translate(24.749375 125.721834)scale(0.1 -0.1)">
       <use xlink:href="#DejaVuSans-48"/>
       <use x="63.623047" xlink:href="#DejaVuSans-46"/>
       <use x="95.410156" xlink:href="#DejaVuSans-52"/>
      </g>
     </g>
    </g>
    <g id="ytick_4">
     <g id="line2d_19">
      <path clip-path="url(#pf34290668a)" d="M 47.6525 92.254244 
L 494.0525 92.254244 
" style="fill:none;stroke:#b0b0b0;stroke-linecap:square;stroke-width:0.8;"/>
     </g>
     <g id="line2d_20">
      <g>
       <use style="stroke:#000000;stroke-width:0.8;" x="47.6525" xlink:href="#ma45bbde153" y="92.254244"/>
      </g>
     </g>
     <g id="text_11">
      <!-- 0.6 -->
      <g transform="translate(24.749375 96.053463)scale(0.1 -0.1)">
       <use xlink:href="#DejaVuSans-48"/>
       <use x="63.623047" xlink:href="#DejaVuSans-46"/>
       <use x="95.410156" xlink:href="#DejaVuSans-54"/>
      </g>
     </g>
    </g>
    <g id="ytick_5">
     <g id="line2d_21">
      <path clip-path="url(#pf34290668a)" d="M 47.6525 62.585872 
L 494.0525 62.585872 
" style="fill:none;stroke:#b0b0b0;stroke-linecap:square;stroke-width:0.8;"/>
     </g>
     <g id="line2d_22">
      <g>
       <use style="stroke:#000000;stroke-width:0.8;" x="47.6525" xlink:href="#ma45bbde153" y="62.585872"/>
      </g>
     </g>
     <g id="text_12">
      <!-- 0.8 -->
      <g transform="translate(24.749375 66.385091)scale(0.1 -0.1)">
       <use xlink:href="#DejaVuSans-48"/>
       <use x="63.623047" xlink:href="#DejaVuSans-46"/>
       <use x="95.410156" xlink:href="#DejaVuSans-56"/>
      </g>
     </g>
    </g>
    <g id="ytick_6">
     <g id="line2d_23">
      <path clip-path="url(#pf34290668a)" d="M 47.6525 32.9175 
L 494.0525 32.9175 
" style="fill:none;stroke:#b0b0b0;stroke-linecap:square;stroke-width:0.8;"/>
     </g>
     <g id="line2d_24">
      <g>
       <use style="stroke:#000000;stroke-width:0.8;" x="47.6525" xlink:href="#ma45bbde153" y="32.9175"/>
      </g>
     </g>
     <g id="text_13">
      <!-- 1.0 -->
      <defs>
       <path d="M 12.40625 8.296875 
L 28.515625 8.296875 
L 28.515625 63.921875 
L 10.984375 60.40625 
L 10.984375 69.390625 
L 28.421875 72.90625 
L 38.28125 72.90625 
L 38.28125 8.296875 
L 54.390625 8.296875 
L 54.390625 0 
L 12.40625 0 
z
" id="DejaVuSans-49"/>
      </defs>
      <g transform="translate(24.749375 36.716719)scale(0.1 -0.1)">
       <use xlink:href="#DejaVuSans-49"/>
       <use x="63.623047" xlink:href="#DejaVuSans-46"/>
       <use x="95.410156" xlink:href="#DejaVuSans-48"/>
      </g>
     </g>
    </g>
    <g id="text_14">
     <!-- Real -->
     <defs>
      <path d="M 44.390625 34.1875 
Q 47.5625 33.109375 50.5625 29.59375 
Q 53.5625 26.078125 56.59375 19.921875 
L 66.609375 0 
L 56 0 
L 46.6875 18.703125 
Q 43.0625 26.03125 39.671875 28.421875 
Q 36.28125 30.8125 30.421875 30.8125 
L 19.671875 30.8125 
L 19.671875 0 
L 9.8125 0 
L 9.8125 72.90625 
L 32.078125 72.90625 
Q 44.578125 72.90625 50.734375 67.671875 
Q 56.890625 62.453125 56.890625 51.90625 
Q 56.890625 45.015625 53.6875 40.46875 
Q 50.484375 35.9375 44.390625 34.1875 
z
M 19.671875 64.796875 
L 19.671875 38.921875 
L 32.078125 38.921875 
Q 39.203125 38.921875 42.84375 42.21875 
Q 46.484375 45.515625 46.484375 51.90625 
Q 46.484375 58.296875 42.84375 61.546875 
Q 39.203125 64.796875 32.078125 64.796875 
z
" id="DejaVuSans-82"/>
      <path d="M 34.28125 27.484375 
Q 23.390625 27.484375 19.1875 25 
Q 14.984375 22.515625 14.984375 16.5 
Q 14.984375 11.71875 18.140625 8.90625 
Q 21.296875 6.109375 26.703125 6.109375 
Q 34.1875 6.109375 38.703125 11.40625 
Q 43.21875 16.703125 43.21875 25.484375 
L 43.21875 27.484375 
z
M 52.203125 31.203125 
L 52.203125 0 
L 43.21875 0 
L 43.21875 8.296875 
Q 40.140625 3.328125 35.546875 0.953125 
Q 30.953125 -1.421875 24.3125 -1.421875 
Q 15.921875 -1.421875 10.953125 3.296875 
Q 6 8.015625 6 15.921875 
Q 6 25.140625 12.171875 29.828125 
Q 18.359375 34.515625 30.609375 34.515625 
L 43.21875 34.515625 
L 43.21875 35.40625 
Q 43.21875 41.609375 39.140625 45 
Q 35.0625 48.390625 27.6875 48.390625 
Q 23 48.390625 18.546875 47.265625 
Q 14.109375 46.140625 10.015625 43.890625 
L 10.015625 52.203125 
Q 14.9375 54.109375 19.578125 55.046875 
Q 24.21875 56 28.609375 56 
Q 40.484375 56 46.34375 49.84375 
Q 52.203125 43.703125 52.203125 31.203125 
z
" id="DejaVuSans-97"/>
      <path d="M 9.421875 75.984375 
L 18.40625 75.984375 
L 18.40625 0 
L 9.421875 0 
z
" id="DejaVuSans-108"/>
     </defs>
     <g transform="translate(17.837812 123.918594)rotate(-90)scale(0.14 -0.14)">
      <use xlink:href="#DejaVuSans-82"/>
      <use x="69.419922" xlink:href="#DejaVuSans-101"/>
      <use x="130.943359" xlink:href="#DejaVuSans-97"/>
      <use x="192.222656" xlink:href="#DejaVuSans-108"/>
     </g>
    </g>
   </g>
   <g id="line2d_25">
    <path clip-path="url(#pf34290668a)" d="M -1 143.011362 
L 502.2525 33.44638 
M 502.2525 33.44638 
L 425.916303 50.065819 
" style="fill:none;stroke:#1f77b4;stroke-linecap:square;stroke-width:1.5;"/>
   </g>
   <g id="line2d_26">
    <path clip-path="url(#pf34290668a)" d="M -1 144.235063 
L 27.728367 137.713229 
L 95.864564 122.245138 
L 164.000761 106.777048 
L 232.136958 91.308957 
L 300.273155 75.840867 
L 368.409353 60.372777 
L 436.54555 44.904686 
" style="fill:none;stroke:#ff0000;stroke-linecap:square;stroke-width:1.5;"/>
   </g>
   <g id="patch_3">
    <path d="M 47.6525 191.6775 
L 47.6525 25.3575 
" style="fill:none;stroke:#000000;stroke-linecap:square;stroke-linejoin:miter;stroke-width:0.8;"/>
   </g>
   <g id="patch_4">
    <path d="M 494.0525 191.6775 
L 494.0525 25.3575 
" style="fill:none;stroke:#000000;stroke-linecap:square;stroke-linejoin:miter;stroke-width:0.8;"/>
   </g>
   <g id="patch_5">
    <path d="M 47.6525 191.6775 
L 494.0525 191.6775 
" style="fill:none;stroke:#000000;stroke-linecap:square;stroke-linejoin:miter;stroke-width:0.8;"/>
   </g>
   <g id="patch_6">
    <path d="M 47.6525 25.3575 
L 494.0525 25.3575 
" style="fill:none;stroke:#000000;stroke-linecap:square;stroke-linejoin:miter;stroke-width:0.8;"/>
   </g>
   <g id="text_15">
    <!-- Bulk Density -->
    <defs>
     <path d="M 19.671875 34.8125 
L 19.671875 8.109375 
L 35.5 8.109375 
Q 43.453125 8.109375 47.28125 11.40625 
Q 51.125 14.703125 51.125 21.484375 
Q 51.125 28.328125 47.28125 31.5625 
Q 43.453125 34.8125 35.5 34.8125 
z
M 19.671875 64.796875 
L 19.671875 42.828125 
L 34.28125 42.828125 
Q 41.5 42.828125 45.03125 45.53125 
Q 48.578125 48.25 48.578125 53.8125 
Q 48.578125 59.328125 45.03125 62.0625 
Q 41.5 64.796875 34.28125 64.796875 
z
M 9.8125 72.90625 
L 35.015625 72.90625 
Q 46.296875 72.90625 52.390625 68.21875 
Q 58.5 63.53125 58.5 54.890625 
Q 58.5 48.1875 55.375 44.234375 
Q 52.25 40.28125 46.1875 39.3125 
Q 53.46875 37.75 57.5 32.78125 
Q 61.53125 27.828125 61.53125 20.40625 
Q 61.53125 10.640625 54.890625 5.3125 
Q 48.25 0 35.984375 0 
L 9.8125 0 
z
" id="DejaVuSans-66"/>
     <path d="M 8.5 21.578125 
L 8.5 54.6875 
L 17.484375 54.6875 
L 17.484375 21.921875 
Q 17.484375 14.15625 20.5 10.265625 
Q 23.53125 6.390625 29.59375 6.390625 
Q 36.859375 6.390625 41.078125 11.03125 
Q 45.3125 15.671875 45.3125 23.6875 
L 45.3125 54.6875 
L 54.296875 54.6875 
L 54.296875 0 
L 45.3125 0 
L 45.3125 8.40625 
Q 42.046875 3.421875 37.71875 1 
Q 33.40625 -1.421875 27.6875 -1.421875 
Q 18.265625 -1.421875 13.375 4.4375 
Q 8.5 10.296875 8.5 21.578125 
z
M 31.109375 56 
z
" id="DejaVuSans-117"/>
     <path d="M 9.078125 75.984375 
L 18.109375 75.984375 
L 18.109375 31.109375 
L 44.921875 54.6875 
L 56.390625 54.6875 
L 27.390625 29.109375 
L 57.625 0 
L 45.90625 0 
L 18.109375 26.703125 
L 18.109375 0 
L 9.078125 0 
z
" id="DejaVuSans-107"/>
     <path id="DejaVuSans-32"/>
     <path d="M 19.671875 64.796875 
L 19.671875 8.109375 
L 31.59375 8.109375 
Q 46.6875 8.109375 53.6875 14.9375 
Q 60.6875 21.78125 60.6875 36.53125 
Q 60.6875 51.171875 53.6875 57.984375 
Q 46.6875 64.796875 31.59375 64.796875 
z
M 9.8125 72.90625 
L 30.078125 72.90625 
Q 51.265625 72.90625 61.171875 64.09375 
Q 71.09375 55.28125 71.09375 36.53125 
Q 71.09375 17.671875 61.125 8.828125 
Q 51.171875 0 30.078125 0 
L 9.8125 0 
z
" id="DejaVuSans-68"/>
     <path d="M 32.171875 -5.078125 
Q 28.375 -14.84375 24.75 -17.8125 
Q 21.140625 -20.796875 15.09375 -20.796875 
L 7.90625 -20.796875 
L 7.90625 -13.28125 
L 13.1875 -13.28125 
Q 16.890625 -13.28125 18.9375 -11.515625 
Q 21 -9.765625 23.484375 -3.21875 
L 25.09375 0.875 
L 2.984375 54.6875 
L 12.5 54.6875 
L 29.59375 11.921875 
L 46.6875 54.6875 
L 56.203125 54.6875 
z
" id="DejaVuSans-121"/>
    </defs>
    <g transform="translate(220.4825 19.3575)scale(0.16 -0.16)">
     <use xlink:href="#DejaVuSans-66"/>
     <use x="68.603516" xlink:href="#DejaVuSans-117"/>
     <use x="131.982422" xlink:href="#DejaVuSans-108"/>
     <use x="159.765625" xlink:href="#DejaVuSans-107"/>
     <use x="217.675781" xlink:href="#DejaVuSans-32"/>
     <use x="249.462891" xlink:href="#DejaVuSans-68"/>
     <use x="326.464844" xlink:href="#DejaVuSans-101"/>
     <use x="387.988281" xlink:href="#DejaVuSans-110"/>
     <use x="451.367188" xlink:href="#DejaVuSans-115"/>
     <use x="503.466797" xlink:href="#DejaVuSans-105"/>
     <use x="531.25" xlink:href="#DejaVuSans-116"/>
     <use x="570.458984" xlink:href="#DejaVuSans-121"/>
    </g>
   </g>
   <g id="legend_1">
    <g id="patch_7">
     <path d="M 54.6525 62.71375 
L 124.407188 62.71375 
Q 126.407188 62.71375 126.407188 60.71375 
L 126.407188 32.3575 
Q 126.407188 30.3575 124.407188 30.3575 
L 54.6525 30.3575 
Q 52.6525 30.3575 52.6525 32.3575 
L 52.6525 60.71375 
Q 52.6525 62.71375 54.6525 62.71375 
z
" style="fill:#ffffff;opacity:0.8;stroke:#cccccc;stroke-linejoin:miter;"/>
    </g>
    <g id="line2d_27">
     <path d="M 56.6525 38.455938 
L 76.6525 38.455938 
" style="fill:none;stroke:#1f77b4;stroke-linecap:square;stroke-width:1.5;"/>
    </g>
    <g id="line2d_28"/>
    <g id="text_16">
     <!-- Ideal fit -->
     <defs>
      <path d="M 9.8125 72.90625 
L 19.671875 72.90625 
L 19.671875 0 
L 9.8125 0 
z
" id="DejaVuSans-73"/>
      <path d="M 37.109375 75.984375 
L 37.109375 68.5 
L 28.515625 68.5 
Q 23.6875 68.5 21.796875 66.546875 
Q 19.921875 64.59375 19.921875 59.515625 
L 19.921875 54.6875 
L 34.71875 54.6875 
L 34.71875 47.703125 
L 19.921875 47.703125 
L 19.921875 0 
L 10.890625 0 
L 10.890625 47.703125 
L 2.296875 47.703125 
L 2.296875 54.6875 
L 10.890625 54.6875 
L 10.890625 58.5 
Q 10.890625 67.625 15.140625 71.796875 
Q 19.390625 75.984375 28.609375 75.984375 
z
" id="DejaVuSans-102"/>
     </defs>
     <g transform="translate(84.6525 41.955938)scale(0.1 -0.1)">
      <use xlink:href="#DejaVuSans-73"/>
      <use x="29.492188" xlink:href="#DejaVuSans-100"/>
      <use x="92.96875" xlink:href="#DejaVuSans-101"/>
      <use x="154.492188" xlink:href="#DejaVuSans-97"/>
      <use x="215.771484" xlink:href="#DejaVuSans-108"/>
      <use x="243.554688" xlink:href="#DejaVuSans-32"/>
      <use x="275.341797" xlink:href="#DejaVuSans-102"/>
      <use x="310.546875" xlink:href="#DejaVuSans-105"/>
      <use x="338.330078" xlink:href="#DejaVuSans-116"/>
     </g>
    </g>
    <g id="line2d_29">
     <path d="M 56.6525 53.134063 
L 76.6525 53.134063 
" style="fill:none;stroke:#ff0000;stroke-linecap:square;stroke-width:1.5;"/>
    </g>
    <g id="line2d_30"/>
    <g id="text_17">
     <!-- Best fit -->
     <g transform="translate(84.6525 56.634063)scale(0.1 -0.1)">
      <use xlink:href="#DejaVuSans-66"/>
      <use x="68.603516" xlink:href="#DejaVuSans-101"/>
      <use x="130.126953" xlink:href="#DejaVuSans-115"/>
      <use x="182.226562" xlink:href="#DejaVuSans-116"/>
      <use x="221.435547" xlink:href="#DejaVuSans-32"/>
      <use x="253.222656" xlink:href="#DejaVuSans-102"/>
      <use x="288.427734" xlink:href="#DejaVuSans-105"/>
      <use x="316.210938" xlink:href="#DejaVuSans-116"/>
     </g>
    </g>
   </g>
  </g>
 </g>
 <defs>
  <clipPath id="pf34290668a">
   <rect height="166.32" width="446.4" x="47.6525" y="25.3575"/>
  </clipPath>
 </defs>
</svg>
