<?xml version="1.0" encoding="utf-8" standalone="no"?>
<!DOCTYPE svg PUBLIC "-//W3C//DTD SVG 1.1//EN"
  "http://www.w3.org/Graphics/SVG/1.1/DTD/svg11.dtd">
<!-- Created with matplotlib (https://matplotlib.org/) -->
<svg height="233.105pt" version="1.1" viewBox="0 0 501.2525 233.105" width="501.2525pt" xmlns="http://www.w3.org/2000/svg" xmlns:xlink="http://www.w3.org/1999/xlink">
 <defs>
  <style type="text/css">
*{stroke-linecap:butt;stroke-linejoin:round;}
  </style>
 </defs>
 <g id="figure_1">
  <g id="patch_1">
   <path d="M 0 233.105 
L 501.2525 233.105 
L 501.2525 0 
L 0 0 
z
" style="fill:none;"/>
  </g>
  <g id="axes_1">
   <g id="patch_2">
    <path d="M 47.6525 191.6775 
L 494.0525 191.6775 
L 494.0525 25.3575 
L 47.6525 25.3575 
z
" style="fill:none;"/>
   </g>
   <g id="PathCollection_1">
    <defs>
     <path d="M 0 3 
C 0.795609 3 1.55874 2.683901 2.12132 2.12132 
C 2.683901 1.55874 3 0.795609 3 0 
C 3 -0.795609 2.683901 -1.55874 2.12132 -2.12132 
C 1.55874 -2.683901 0.795609 -3 0 -3 
C -0.795609 -3 -1.55874 -2.683901 -2.12132 -2.12132 
C -2.683901 -1.55874 -3 -0.795609 -3 0 
C -3 0.795609 -2.683901 1.55874 -2.12132 2.12132 
C -1.55874 2.683901 -0.795609 3 0 3 
z
" id="m440d528633" style="stroke:#1f77b4;"/>
    </defs>
    <g clip-path="url(#p8d1f89fdf1)">
     <use style="fill:#1f77b4;stroke:#1f77b4;" x="361.527244" xlink:href="#m440d528633" y="53.719161"/>
     <use style="fill:#1f77b4;stroke:#1f77b4;" x="321.917638" xlink:href="#m440d528633" y="61.258678"/>
     <use style="fill:#1f77b4;stroke:#1f77b4;" x="245.177047" xlink:href="#m440d528633" y="70.505256"/>
     <use style="fill:#1f77b4;stroke:#1f77b4;" x="323.001534" xlink:href="#m440d528633" y="60.469809"/>
     <use style="fill:#1f77b4;stroke:#1f77b4;" x="353.41174" xlink:href="#m440d528633" y="50.977518"/>
     <use style="fill:#1f77b4;stroke:#1f77b4;" x="258.141272" xlink:href="#m440d528633" y="70.595782"/>
     <use style="fill:#1f77b4;stroke:#1f77b4;" x="319.852061" xlink:href="#m440d528633" y="58.232525"/>
     <use style="fill:#1f77b4;stroke:#1f77b4;" x="332.290597" xlink:href="#m440d528633" y="55.426221"/>
     <use style="fill:#1f77b4;stroke:#1f77b4;" x="209.358694" xlink:href="#m440d528633" y="78.135299"/>
     <use style="fill:#1f77b4;stroke:#1f77b4;" x="324.463677" xlink:href="#m440d528633" y="53.693296"/>
     <use style="fill:#1f77b4;stroke:#1f77b4;" x="279.628957" xlink:href="#m440d528633" y="64.659867"/>
     <use style="fill:#1f77b4;stroke:#1f77b4;" x="250.070785" xlink:href="#m440d528633" y="70.505256"/>
     <use style="fill:#1f77b4;stroke:#1f77b4;" x="355.949146" xlink:href="#m440d528633" y="50.977518"/>
     <use style="fill:#1f77b4;stroke:#1f77b4;" x="305.770839" xlink:href="#m440d528633" y="62.978671"/>
     <use style="fill:#1f77b4;stroke:#1f77b4;" x="279.036908" xlink:href="#m440d528633" y="66.392792"/>
     <use style="fill:#1f77b4;stroke:#1f77b4;" x="209.890156" xlink:href="#m440d528633" y="79.596647"/>
     <use style="fill:#1f77b4;stroke:#1f77b4;" x="212.695702" xlink:href="#m440d528633" y="79.596647"/>
     <use style="fill:#1f77b4;stroke:#1f77b4;" x="285.257792" xlink:href="#m440d528633" y="65.060768"/>
     <use style="fill:#1f77b4;stroke:#1f77b4;" x="165.640601" xlink:href="#m440d528633" y="89.140667"/>
     <use style="fill:#1f77b4;stroke:#1f77b4;" x="339.145156" xlink:href="#m440d528633" y="53.305328"/>
     <use style="fill:#1f77b4;stroke:#1f77b4;" x="309.471847" xlink:href="#m440d528633" y="61.129355"/>
     <use style="fill:#1f77b4;stroke:#1f77b4;" x="275.333094" xlink:href="#m440d528633" y="64.659867"/>
     <use style="fill:#1f77b4;stroke:#1f77b4;" x="233.60818" xlink:href="#m440d528633" y="73.621935"/>
     <use style="fill:#1f77b4;stroke:#1f77b4;" x="260.464504" xlink:href="#m440d528633" y="64.595206"/>
     <use style="fill:#1f77b4;stroke:#1f77b4;" x="213.76996" xlink:href="#m440d528633" y="77.126582"/>
     <use style="fill:#1f77b4;stroke:#1f77b4;" x="254.212109" xlink:href="#m440d528633" y="65.422871"/>
     <use style="fill:#1f77b4;stroke:#1f77b4;" x="269.47298" xlink:href="#m440d528633" y="65.92723"/>
     <use style="fill:#1f77b4;stroke:#1f77b4;" x="337.985579" xlink:href="#m440d528633" y="53.822619"/>
     <use style="fill:#1f77b4;stroke:#1f77b4;" x="337.789783" xlink:href="#m440d528633" y="53.822619"/>
     <use style="fill:#1f77b4;stroke:#1f77b4;" x="214.597525" xlink:href="#m440d528633" y="78.199961"/>
     <use style="fill:#1f77b4;stroke:#1f77b4;" x="355.933046" xlink:href="#m440d528633" y="55.219305"/>
     <use style="fill:#1f77b4;stroke:#1f77b4;" x="276.162619" xlink:href="#m440d528633" y="66.392792"/>
     <use style="fill:#1f77b4;stroke:#1f77b4;" x="361.520677" xlink:href="#m440d528633" y="50.977518"/>
     <use style="fill:#1f77b4;stroke:#1f77b4;" x="340.648502" xlink:href="#m440d528633" y="55.426221"/>
     <use style="fill:#1f77b4;stroke:#1f77b4;" x="321.220674" xlink:href="#m440d528633" y="59.590415"/>
     <use style="fill:#1f77b4;stroke:#1f77b4;" x="246.191035" xlink:href="#m440d528633" y="68.384363"/>
     <use style="fill:#1f77b4;stroke:#1f77b4;" x="234.003745" xlink:href="#m440d528633" y="73.621935"/>
     <use style="fill:#1f77b4;stroke:#1f77b4;" x="251.11263" xlink:href="#m440d528633" y="65.92723"/>
     <use style="fill:#1f77b4;stroke:#1f77b4;" x="275.044669" xlink:href="#m440d528633" y="67.660155"/>
     <use style="fill:#1f77b4;stroke:#1f77b4;" x="322.801131" xlink:href="#m440d528633" y="58.232525"/>
     <use style="fill:#1f77b4;stroke:#1f77b4;" x="271.634734" xlink:href="#m440d528633" y="64.659867"/>
     <use style="fill:#1f77b4;stroke:#1f77b4;" x="299.016535" xlink:href="#m440d528633" y="61.957021"/>
     <use style="fill:#1f77b4;stroke:#1f77b4;" x="267.577035" xlink:href="#m440d528633" y="61.60785"/>
     <use style="fill:#1f77b4;stroke:#1f77b4;" x="308.784045" xlink:href="#m440d528633" y="61.129355"/>
     <use style="fill:#1f77b4;stroke:#1f77b4;" x="264.815764" xlink:href="#m440d528633" y="64.595206"/>
     <use style="fill:#1f77b4;stroke:#1f77b4;" x="332.41622" xlink:href="#m440d528633" y="53.822619"/>
     <use style="fill:#1f77b4;stroke:#1f77b4;" x="339.149869" xlink:href="#m440d528633" y="53.305328"/>
     <use style="fill:#1f77b4;stroke:#1f77b4;" x="228.236153" xlink:href="#m440d528633" y="74.837569"/>
     <use style="fill:#1f77b4;stroke:#1f77b4;" x="253.874696" xlink:href="#m440d528633" y="65.92723"/>
     <use style="fill:#1f77b4;stroke:#1f77b4;" x="328.276379" xlink:href="#m440d528633" y="53.693296"/>
     <use style="fill:#1f77b4;stroke:#1f77b4;" x="323.151414" xlink:href="#m440d528633" y="60.469809"/>
     <use style="fill:#1f77b4;stroke:#1f77b4;" x="259.694507" xlink:href="#m440d528633" y="62.17687"/>
     <use style="fill:#1f77b4;stroke:#1f77b4;" x="226.134668" xlink:href="#m440d528633" y="72.341639"/>
     <use style="fill:#1f77b4;stroke:#1f77b4;" x="196.066112" xlink:href="#m440d528633" y="77.488685"/>
     <use style="fill:#1f77b4;stroke:#1f77b4;" x="259.10214" xlink:href="#m440d528633" y="70.595782"/>
     <use style="fill:#1f77b4;stroke:#1f77b4;" x="322.972565" xlink:href="#m440d528633" y="55.426221"/>
     <use style="fill:#1f77b4;stroke:#1f77b4;" x="268.343696" xlink:href="#m440d528633" y="65.92723"/>
     <use style="fill:#1f77b4;stroke:#1f77b4;" x="215.149324" xlink:href="#m440d528633" y="78.199961"/>
     <use style="fill:#1f77b4;stroke:#1f77b4;" x="325.150102" xlink:href="#m440d528633" y="55.426221"/>
     <use style="fill:#1f77b4;stroke:#1f77b4;" x="252.536746" xlink:href="#m440d528633" y="67.634291"/>
     <use style="fill:#1f77b4;stroke:#1f77b4;" x="215.785807" xlink:href="#m440d528633" y="72.871863"/>
     <use style="fill:#1f77b4;stroke:#1f77b4;" x="313.72799" xlink:href="#m440d528633" y="61.801834"/>
     <use style="fill:#1f77b4;stroke:#1f77b4;" x="223.953106" xlink:href="#m440d528633" y="75.885083"/>
     <use style="fill:#1f77b4;stroke:#1f77b4;" x="276.74111" xlink:href="#m440d528633" y="67.272187"/>
     <use style="fill:#1f77b4;stroke:#1f77b4;" x="346.009937" xlink:href="#m440d528633" y="57.029824"/>
     <use style="fill:#1f77b4;stroke:#1f77b4;" x="274.784314" xlink:href="#m440d528633" y="67.272187"/>
     <use style="fill:#1f77b4;stroke:#1f77b4;" x="190.840363" xlink:href="#m440d528633" y="82.907309"/>
     <use style="fill:#1f77b4;stroke:#1f77b4;" x="210.667833" xlink:href="#m440d528633" y="77.126582"/>
     <use style="fill:#1f77b4;stroke:#1f77b4;" x="261.601308" xlink:href="#m440d528633" y="70.207814"/>
     <use style="fill:#1f77b4;stroke:#1f77b4;" x="222.723462" xlink:href="#m440d528633" y="74.307345"/>
     <use style="fill:#1f77b4;stroke:#1f77b4;" x="299.961197" xlink:href="#m440d528633" y="60.818981"/>
     <use style="fill:#1f77b4;stroke:#1f77b4;" x="214.078668" xlink:href="#m440d528633" y="75.548844"/>
     <use style="fill:#1f77b4;stroke:#1f77b4;" x="282.277422" xlink:href="#m440d528633" y="61.801834"/>
     <use style="fill:#1f77b4;stroke:#1f77b4;" x="309.839554" xlink:href="#m440d528633" y="62.978671"/>
     <use style="fill:#1f77b4;stroke:#1f77b4;" x="264.801783" xlink:href="#m440d528633" y="65.422871"/>
     <use style="fill:#1f77b4;stroke:#1f77b4;" x="257.377365" xlink:href="#m440d528633" y="65.422871"/>
     <use style="fill:#1f77b4;stroke:#1f77b4;" x="280.364265" xlink:href="#m440d528633" y="61.801834"/>
     <use style="fill:#1f77b4;stroke:#1f77b4;" x="327.834474" xlink:href="#m440d528633" y="59.590415"/>
     <use style="fill:#1f77b4;stroke:#1f77b4;" x="278.314417" xlink:href="#m440d528633" y="68.979247"/>
     <use style="fill:#1f77b4;stroke:#1f77b4;" x="263.989682" xlink:href="#m440d528633" y="61.60785"/>
     <use style="fill:#1f77b4;stroke:#1f77b4;" x="338.817699" xlink:href="#m440d528633" y="53.822619"/>
     <use style="fill:#1f77b4;stroke:#1f77b4;" x="249.625808" xlink:href="#m440d528633" y="70.505256"/>
     <use style="fill:#1f77b4;stroke:#1f77b4;" x="263.272751" xlink:href="#m440d528633" y="69.483606"/>
     <use style="fill:#1f77b4;stroke:#1f77b4;" x="290.677907" xlink:href="#m440d528633" y="64.659867"/>
     <use style="fill:#1f77b4;stroke:#1f77b4;" x="218.180007" xlink:href="#m440d528633" y="78.199961"/>
     <use style="fill:#1f77b4;stroke:#1f77b4;" x="374.998992" xlink:href="#m440d528633" y="50.033462"/>
     <use style="fill:#1f77b4;stroke:#1f77b4;" x="297.203474" xlink:href="#m440d528633" y="61.957021"/>
     <use style="fill:#1f77b4;stroke:#1f77b4;" x="273.346057" xlink:href="#m440d528633" y="65.92723"/>
     <use style="fill:#1f77b4;stroke:#1f77b4;" x="293.309689" xlink:href="#m440d528633" y="61.801834"/>
     <use style="fill:#1f77b4;stroke:#1f77b4;" x="310.352215" xlink:href="#m440d528633" y="63.76754"/>
     <use style="fill:#1f77b4;stroke:#1f77b4;" x="181.274051" xlink:href="#m440d528633" y="85.558426"/>
     <use style="fill:#1f77b4;stroke:#1f77b4;" x="234.965778" xlink:href="#m440d528633" y="73.621935"/>
     <use style="fill:#1f77b4;stroke:#1f77b4;" x="233.093931" xlink:href="#m440d528633" y="73.621935"/>
     <use style="fill:#1f77b4;stroke:#1f77b4;" x="273.637765" xlink:href="#m440d528633" y="68.979247"/>
     <use style="fill:#1f77b4;stroke:#1f77b4;" x="254.985972" xlink:href="#m440d528633" y="64.595206"/>
     <use style="fill:#1f77b4;stroke:#1f77b4;" x="186.853314" xlink:href="#m440d528633" y="77.488685"/>
     <use style="fill:#1f77b4;stroke:#1f77b4;" x="359.237324" xlink:href="#m440d528633" y="55.219305"/>
     <use style="fill:#1f77b4;stroke:#1f77b4;" x="231.35814" xlink:href="#m440d528633" y="72.768404"/>
     <use style="fill:#1f77b4;stroke:#1f77b4;" x="325.65646" xlink:href="#m440d528633" y="57.715234"/>
     <use style="fill:#1f77b4;stroke:#1f77b4;" x="331.19828" xlink:href="#m440d528633" y="53.822619"/>
     <use style="fill:#1f77b4;stroke:#1f77b4;" x="263.694584" xlink:href="#m440d528633" y="69.005112"/>
     <use style="fill:#1f77b4;stroke:#1f77b4;" x="246.400442" xlink:href="#m440d528633" y="67.660155"/>
     <use style="fill:#1f77b4;stroke:#1f77b4;" x="313.415839" xlink:href="#m440d528633" y="63.76754"/>
     <use style="fill:#1f77b4;stroke:#1f77b4;" x="237.857491" xlink:href="#m440d528633" y="72.871863"/>
     <use style="fill:#1f77b4;stroke:#1f77b4;" x="229.12044" xlink:href="#m440d528633" y="72.768404"/>
     <use style="fill:#1f77b4;stroke:#1f77b4;" x="214.373448" xlink:href="#m440d528633" y="75.548844"/>
     <use style="fill:#1f77b4;stroke:#1f77b4;" x="263.083151" xlink:href="#m440d528633" y="70.207814"/>
     <use style="fill:#1f77b4;stroke:#1f77b4;" x="209.621274" xlink:href="#m440d528633" y="79.596647"/>
     <use style="fill:#1f77b4;stroke:#1f77b4;" x="305.125565" xlink:href="#m440d528633" y="64.659867"/>
     <use style="fill:#1f77b4;stroke:#1f77b4;" x="312.391365" xlink:href="#m440d528633" y="58.232525"/>
     <use style="fill:#1f77b4;stroke:#1f77b4;" x="205.856184" xlink:href="#m440d528633" y="77.643873"/>
     <use style="fill:#1f77b4;stroke:#1f77b4;" x="341.110267" xlink:href="#m440d528633" y="57.029824"/>
     <use style="fill:#1f77b4;stroke:#1f77b4;" x="329.684819" xlink:href="#m440d528633" y="53.822619"/>
     <use style="fill:#1f77b4;stroke:#1f77b4;" x="248.953312" xlink:href="#m440d528633" y="70.505256"/>
     <use style="fill:#1f77b4;stroke:#1f77b4;" x="206.391618" xlink:href="#m440d528633" y="79.596647"/>
     <use style="fill:#1f77b4;stroke:#1f77b4;" x="272.599998" xlink:href="#m440d528633" y="66.392792"/>
     <use style="fill:#1f77b4;stroke:#1f77b4;" x="212.174356" xlink:href="#m440d528633" y="78.199961"/>
     <use style="fill:#1f77b4;stroke:#1f77b4;" x="226.884487" xlink:href="#m440d528633" y="74.889298"/>
     <use style="fill:#1f77b4;stroke:#1f77b4;" x="326.640525" xlink:href="#m440d528633" y="59.590415"/>
     <use style="fill:#1f77b4;stroke:#1f77b4;" x="280.046394" xlink:href="#m440d528633" y="65.060768"/>
     <use style="fill:#1f77b4;stroke:#1f77b4;" x="243.338989" xlink:href="#m440d528633" y="74.384939"/>
    </g>
   </g>
   <g id="matplotlib.axis_1">
    <g id="xtick_1">
     <g id="line2d_1">
      <path clip-path="url(#p8d1f89fdf1)" d="M 113.937213 191.6775 
L 113.937213 25.3575 
" style="fill:none;stroke:#b0b0b0;stroke-linecap:square;stroke-width:0.8;"/>
     </g>
     <g id="line2d_2">
      <defs>
       <path d="M 0 0 
L 0 3.5 
" id="m5c06c4dbbd" style="stroke:#000000;stroke-width:0.8;"/>
      </defs>
      <g>
       <use style="stroke:#000000;stroke-width:0.8;" x="113.937213" xlink:href="#m5c06c4dbbd" y="191.6775"/>
      </g>
     </g>
     <g id="text_1">
      <!-- 0.6 -->
      <defs>
       <path d="M 31.78125 66.40625 
Q 24.171875 66.40625 20.328125 58.90625 
Q 16.5 51.421875 16.5 36.375 
Q 16.5 21.390625 20.328125 13.890625 
Q 24.171875 6.390625 31.78125 6.390625 
Q 39.453125 6.390625 43.28125 13.890625 
Q 47.125 21.390625 47.125 36.375 
Q 47.125 51.421875 43.28125 58.90625 
Q 39.453125 66.40625 31.78125 66.40625 
z
M 31.78125 74.21875 
Q 44.046875 74.21875 50.515625 64.515625 
Q 56.984375 54.828125 56.984375 36.375 
Q 56.984375 17.96875 50.515625 8.265625 
Q 44.046875 -1.421875 31.78125 -1.421875 
Q 19.53125 -1.421875 13.0625 8.265625 
Q 6.59375 17.96875 6.59375 36.375 
Q 6.59375 54.828125 13.0625 64.515625 
Q 19.53125 74.21875 31.78125 74.21875 
z
" id="DejaVuSans-48"/>
       <path d="M 10.6875 12.40625 
L 21 12.40625 
L 21 0 
L 10.6875 0 
z
" id="DejaVuSans-46"/>
       <path d="M 33.015625 40.375 
Q 26.375 40.375 22.484375 35.828125 
Q 18.609375 31.296875 18.609375 23.390625 
Q 18.609375 15.53125 22.484375 10.953125 
Q 26.375 6.390625 33.015625 6.390625 
Q 39.65625 6.390625 43.53125 10.953125 
Q 47.40625 15.53125 47.40625 23.390625 
Q 47.40625 31.296875 43.53125 35.828125 
Q 39.65625 40.375 33.015625 40.375 
z
M 52.59375 71.296875 
L 52.59375 62.3125 
Q 48.875 64.0625 45.09375 64.984375 
Q 41.3125 65.921875 37.59375 65.921875 
Q 27.828125 65.921875 22.671875 59.328125 
Q 17.53125 52.734375 16.796875 39.40625 
Q 19.671875 43.65625 24.015625 45.921875 
Q 28.375 48.1875 33.59375 48.1875 
Q 44.578125 48.1875 50.953125 41.515625 
Q 57.328125 34.859375 57.328125 23.390625 
Q 57.328125 12.15625 50.6875 5.359375 
Q 44.046875 -1.421875 33.015625 -1.421875 
Q 20.359375 -1.421875 13.671875 8.265625 
Q 6.984375 17.96875 6.984375 36.375 
Q 6.984375 53.65625 15.1875 63.9375 
Q 23.390625 74.21875 37.203125 74.21875 
Q 40.921875 74.21875 44.703125 73.484375 
Q 48.484375 72.75 52.59375 71.296875 
z
" id="DejaVuSans-54"/>
      </defs>
      <g transform="translate(105.985651 206.275938)scale(0.1 -0.1)">
       <use xlink:href="#DejaVuSans-48"/>
       <use x="63.623047" xlink:href="#DejaVuSans-46"/>
       <use x="95.410156" xlink:href="#DejaVuSans-54"/>
      </g>
     </g>
    </g>
    <g id="xtick_2">
     <g id="line2d_3">
      <path clip-path="url(#p8d1f89fdf1)" d="M 202.790717 191.6775 
L 202.790717 25.3575 
" style="fill:none;stroke:#b0b0b0;stroke-linecap:square;stroke-width:0.8;"/>
     </g>
     <g id="line2d_4">
      <g>
       <use style="stroke:#000000;stroke-width:0.8;" x="202.790717" xlink:href="#m5c06c4dbbd" y="191.6775"/>
      </g>
     </g>
     <g id="text_2">
      <!-- 0.7 -->
      <defs>
       <path d="M 8.203125 72.90625 
L 55.078125 72.90625 
L 55.078125 68.703125 
L 28.609375 0 
L 18.3125 0 
L 43.21875 64.59375 
L 8.203125 64.59375 
z
" id="DejaVuSans-55"/>
      </defs>
      <g transform="translate(194.839154 206.275938)scale(0.1 -0.1)">
       <use xlink:href="#DejaVuSans-48"/>
       <use x="63.623047" xlink:href="#DejaVuSans-46"/>
       <use x="95.410156" xlink:href="#DejaVuSans-55"/>
      </g>
     </g>
    </g>
    <g id="xtick_3">
     <g id="line2d_5">
      <path clip-path="url(#p8d1f89fdf1)" d="M 291.64422 191.6775 
L 291.64422 25.3575 
" style="fill:none;stroke:#b0b0b0;stroke-linecap:square;stroke-width:0.8;"/>
     </g>
     <g id="line2d_6">
      <g>
       <use style="stroke:#000000;stroke-width:0.8;" x="291.64422" xlink:href="#m5c06c4dbbd" y="191.6775"/>
      </g>
     </g>
     <g id="text_3">
      <!-- 0.8 -->
      <defs>
       <path d="M 31.78125 34.625 
Q 24.75 34.625 20.71875 30.859375 
Q 16.703125 27.09375 16.703125 20.515625 
Q 16.703125 13.921875 20.71875 10.15625 
Q 24.75 6.390625 31.78125 6.390625 
Q 38.8125 6.390625 42.859375 10.171875 
Q 46.921875 13.96875 46.921875 20.515625 
Q 46.921875 27.09375 42.890625 30.859375 
Q 38.875 34.625 31.78125 34.625 
z
M 21.921875 38.8125 
Q 15.578125 40.375 12.03125 44.71875 
Q 8.5 49.078125 8.5 55.328125 
Q 8.5 64.0625 14.71875 69.140625 
Q 20.953125 74.21875 31.78125 74.21875 
Q 42.671875 74.21875 48.875 69.140625 
Q 55.078125 64.0625 55.078125 55.328125 
Q 55.078125 49.078125 51.53125 44.71875 
Q 48 40.375 41.703125 38.8125 
Q 48.828125 37.15625 52.796875 32.3125 
Q 56.78125 27.484375 56.78125 20.515625 
Q 56.78125 9.90625 50.3125 4.234375 
Q 43.84375 -1.421875 31.78125 -1.421875 
Q 19.734375 -1.421875 13.25 4.234375 
Q 6.78125 9.90625 6.78125 20.515625 
Q 6.78125 27.484375 10.78125 32.3125 
Q 14.796875 37.15625 21.921875 38.8125 
z
M 18.3125 54.390625 
Q 18.3125 48.734375 21.84375 45.5625 
Q 25.390625 42.390625 31.78125 42.390625 
Q 38.140625 42.390625 41.71875 45.5625 
Q 45.3125 48.734375 45.3125 54.390625 
Q 45.3125 60.0625 41.71875 63.234375 
Q 38.140625 66.40625 31.78125 66.40625 
Q 25.390625 66.40625 21.84375 63.234375 
Q 18.3125 60.0625 18.3125 54.390625 
z
" id="DejaVuSans-56"/>
      </defs>
      <g transform="translate(283.692657 206.275938)scale(0.1 -0.1)">
       <use xlink:href="#DejaVuSans-48"/>
       <use x="63.623047" xlink:href="#DejaVuSans-46"/>
       <use x="95.410156" xlink:href="#DejaVuSans-56"/>
      </g>
     </g>
    </g>
    <g id="xtick_4">
     <g id="line2d_7">
      <path clip-path="url(#p8d1f89fdf1)" d="M 380.497723 191.6775 
L 380.497723 25.3575 
" style="fill:none;stroke:#b0b0b0;stroke-linecap:square;stroke-width:0.8;"/>
     </g>
     <g id="line2d_8">
      <g>
       <use style="stroke:#000000;stroke-width:0.8;" x="380.497723" xlink:href="#m5c06c4dbbd" y="191.6775"/>
      </g>
     </g>
     <g id="text_4">
      <!-- 0.9 -->
      <defs>
       <path d="M 10.984375 1.515625 
L 10.984375 10.5 
Q 14.703125 8.734375 18.5 7.8125 
Q 22.3125 6.890625 25.984375 6.890625 
Q 35.75 6.890625 40.890625 13.453125 
Q 46.046875 20.015625 46.78125 33.40625 
Q 43.953125 29.203125 39.59375 26.953125 
Q 35.25 24.703125 29.984375 24.703125 
Q 19.046875 24.703125 12.671875 31.3125 
Q 6.296875 37.9375 6.296875 49.421875 
Q 6.296875 60.640625 12.9375 67.421875 
Q 19.578125 74.21875 30.609375 74.21875 
Q 43.265625 74.21875 49.921875 64.515625 
Q 56.59375 54.828125 56.59375 36.375 
Q 56.59375 19.140625 48.40625 8.859375 
Q 40.234375 -1.421875 26.421875 -1.421875 
Q 22.703125 -1.421875 18.890625 -0.6875 
Q 15.09375 0.046875 10.984375 1.515625 
z
M 30.609375 32.421875 
Q 37.25 32.421875 41.125 36.953125 
Q 45.015625 41.5 45.015625 49.421875 
Q 45.015625 57.28125 41.125 61.84375 
Q 37.25 66.40625 30.609375 66.40625 
Q 23.96875 66.40625 20.09375 61.84375 
Q 16.21875 57.28125 16.21875 49.421875 
Q 16.21875 41.5 20.09375 36.953125 
Q 23.96875 32.421875 30.609375 32.421875 
z
" id="DejaVuSans-57"/>
      </defs>
      <g transform="translate(372.54616 206.275938)scale(0.1 -0.1)">
       <use xlink:href="#DejaVuSans-48"/>
       <use x="63.623047" xlink:href="#DejaVuSans-46"/>
       <use x="95.410156" xlink:href="#DejaVuSans-57"/>
      </g>
     </g>
    </g>
    <g id="xtick_5">
     <g id="line2d_9">
      <path clip-path="url(#p8d1f89fdf1)" d="M 469.351226 191.6775 
L 469.351226 25.3575 
" style="fill:none;stroke:#b0b0b0;stroke-linecap:square;stroke-width:0.8;"/>
     </g>
     <g id="line2d_10">
      <g>
       <use style="stroke:#000000;stroke-width:0.8;" x="469.351226" xlink:href="#m5c06c4dbbd" y="191.6775"/>
      </g>
     </g>
     <g id="text_5">
      <!-- 1.0 -->
      <defs>
       <path d="M 12.40625 8.296875 
L 28.515625 8.296875 
L 28.515625 63.921875 
L 10.984375 60.40625 
L 10.984375 69.390625 
L 28.421875 72.90625 
L 38.28125 72.90625 
L 38.28125 8.296875 
L 54.390625 8.296875 
L 54.390625 0 
L 12.40625 0 
z
" id="DejaVuSans-49"/>
      </defs>
      <g transform="translate(461.399664 206.275938)scale(0.1 -0.1)">
       <use xlink:href="#DejaVuSans-49"/>
       <use x="63.623047" xlink:href="#DejaVuSans-46"/>
       <use x="95.410156" xlink:href="#DejaVuSans-48"/>
      </g>
     </g>
    </g>
    <g id="text_6">
     <!-- Predictions -->
     <defs>
      <path d="M 19.671875 64.796875 
L 19.671875 37.40625 
L 32.078125 37.40625 
Q 38.96875 37.40625 42.71875 40.96875 
Q 46.484375 44.53125 46.484375 51.125 
Q 46.484375 57.671875 42.71875 61.234375 
Q 38.96875 64.796875 32.078125 64.796875 
z
M 9.8125 72.90625 
L 32.078125 72.90625 
Q 44.34375 72.90625 50.609375 67.359375 
Q 56.890625 61.8125 56.890625 51.125 
Q 56.890625 40.328125 50.609375 34.8125 
Q 44.34375 29.296875 32.078125 29.296875 
L 19.671875 29.296875 
L 19.671875 0 
L 9.8125 0 
z
" id="DejaVuSans-80"/>
      <path d="M 41.109375 46.296875 
Q 39.59375 47.171875 37.8125 47.578125 
Q 36.03125 48 33.890625 48 
Q 26.265625 48 22.1875 43.046875 
Q 18.109375 38.09375 18.109375 28.8125 
L 18.109375 0 
L 9.078125 0 
L 9.078125 54.6875 
L 18.109375 54.6875 
L 18.109375 46.1875 
Q 20.953125 51.171875 25.484375 53.578125 
Q 30.03125 56 36.53125 56 
Q 37.453125 56 38.578125 55.875 
Q 39.703125 55.765625 41.0625 55.515625 
z
" id="DejaVuSans-114"/>
      <path d="M 56.203125 29.59375 
L 56.203125 25.203125 
L 14.890625 25.203125 
Q 15.484375 15.921875 20.484375 11.0625 
Q 25.484375 6.203125 34.421875 6.203125 
Q 39.59375 6.203125 44.453125 7.46875 
Q 49.3125 8.734375 54.109375 11.28125 
L 54.109375 2.78125 
Q 49.265625 0.734375 44.1875 -0.34375 
Q 39.109375 -1.421875 33.890625 -1.421875 
Q 20.796875 -1.421875 13.15625 6.1875 
Q 5.515625 13.8125 5.515625 26.8125 
Q 5.515625 40.234375 12.765625 48.109375 
Q 20.015625 56 32.328125 56 
Q 43.359375 56 49.78125 48.890625 
Q 56.203125 41.796875 56.203125 29.59375 
z
M 47.21875 32.234375 
Q 47.125 39.59375 43.09375 43.984375 
Q 39.0625 48.390625 32.421875 48.390625 
Q 24.90625 48.390625 20.390625 44.140625 
Q 15.875 39.890625 15.1875 32.171875 
z
" id="DejaVuSans-101"/>
      <path d="M 45.40625 46.390625 
L 45.40625 75.984375 
L 54.390625 75.984375 
L 54.390625 0 
L 45.40625 0 
L 45.40625 8.203125 
Q 42.578125 3.328125 38.25 0.953125 
Q 33.9375 -1.421875 27.875 -1.421875 
Q 17.96875 -1.421875 11.734375 6.484375 
Q 5.515625 14.40625 5.515625 27.296875 
Q 5.515625 40.1875 11.734375 48.09375 
Q 17.96875 56 27.875 56 
Q 33.9375 56 38.25 53.625 
Q 42.578125 51.265625 45.40625 46.390625 
z
M 14.796875 27.296875 
Q 14.796875 17.390625 18.875 11.75 
Q 22.953125 6.109375 30.078125 6.109375 
Q 37.203125 6.109375 41.296875 11.75 
Q 45.40625 17.390625 45.40625 27.296875 
Q 45.40625 37.203125 41.296875 42.84375 
Q 37.203125 48.484375 30.078125 48.484375 
Q 22.953125 48.484375 18.875 42.84375 
Q 14.796875 37.203125 14.796875 27.296875 
z
" id="DejaVuSans-100"/>
      <path d="M 9.421875 54.6875 
L 18.40625 54.6875 
L 18.40625 0 
L 9.421875 0 
z
M 9.421875 75.984375 
L 18.40625 75.984375 
L 18.40625 64.59375 
L 9.421875 64.59375 
z
" id="DejaVuSans-105"/>
      <path d="M 48.78125 52.59375 
L 48.78125 44.1875 
Q 44.96875 46.296875 41.140625 47.34375 
Q 37.3125 48.390625 33.40625 48.390625 
Q 24.65625 48.390625 19.8125 42.84375 
Q 14.984375 37.3125 14.984375 27.296875 
Q 14.984375 17.28125 19.8125 11.734375 
Q 24.65625 6.203125 33.40625 6.203125 
Q 37.3125 6.203125 41.140625 7.25 
Q 44.96875 8.296875 48.78125 10.40625 
L 48.78125 2.09375 
Q 45.015625 0.34375 40.984375 -0.53125 
Q 36.96875 -1.421875 32.421875 -1.421875 
Q 20.0625 -1.421875 12.78125 6.34375 
Q 5.515625 14.109375 5.515625 27.296875 
Q 5.515625 40.671875 12.859375 48.328125 
Q 20.21875 56 33.015625 56 
Q 37.15625 56 41.109375 55.140625 
Q 45.0625 54.296875 48.78125 52.59375 
z
" id="DejaVuSans-99"/>
      <path d="M 18.3125 70.21875 
L 18.3125 54.6875 
L 36.8125 54.6875 
L 36.8125 47.703125 
L 18.3125 47.703125 
L 18.3125 18.015625 
Q 18.3125 11.328125 20.140625 9.421875 
Q 21.96875 7.515625 27.59375 7.515625 
L 36.8125 7.515625 
L 36.8125 0 
L 27.59375 0 
Q 17.1875 0 13.234375 3.875 
Q 9.28125 7.765625 9.28125 18.015625 
L 9.28125 47.703125 
L 2.6875 47.703125 
L 2.6875 54.6875 
L 9.28125 54.6875 
L 9.28125 70.21875 
z
" id="DejaVuSans-116"/>
      <path d="M 30.609375 48.390625 
Q 23.390625 48.390625 19.1875 42.75 
Q 14.984375 37.109375 14.984375 27.296875 
Q 14.984375 17.484375 19.15625 11.84375 
Q 23.34375 6.203125 30.609375 6.203125 
Q 37.796875 6.203125 41.984375 11.859375 
Q 46.1875 17.53125 46.1875 27.296875 
Q 46.1875 37.015625 41.984375 42.703125 
Q 37.796875 48.390625 30.609375 48.390625 
z
M 30.609375 56 
Q 42.328125 56 49.015625 48.375 
Q 55.71875 40.765625 55.71875 27.296875 
Q 55.71875 13.875 49.015625 6.21875 
Q 42.328125 -1.421875 30.609375 -1.421875 
Q 18.84375 -1.421875 12.171875 6.21875 
Q 5.515625 13.875 5.515625 27.296875 
Q 5.515625 40.765625 12.171875 48.375 
Q 18.84375 56 30.609375 56 
z
" id="DejaVuSans-111"/>
      <path d="M 54.890625 33.015625 
L 54.890625 0 
L 45.90625 0 
L 45.90625 32.71875 
Q 45.90625 40.484375 42.875 44.328125 
Q 39.84375 48.1875 33.796875 48.1875 
Q 26.515625 48.1875 22.3125 43.546875 
Q 18.109375 38.921875 18.109375 30.90625 
L 18.109375 0 
L 9.078125 0 
L 9.078125 54.6875 
L 18.109375 54.6875 
L 18.109375 46.1875 
Q 21.34375 51.125 25.703125 53.5625 
Q 30.078125 56 35.796875 56 
Q 45.21875 56 50.046875 50.171875 
Q 54.890625 44.34375 54.890625 33.015625 
z
" id="DejaVuSans-110"/>
      <path d="M 44.28125 53.078125 
L 44.28125 44.578125 
Q 40.484375 46.53125 36.375 47.5 
Q 32.28125 48.484375 27.875 48.484375 
Q 21.1875 48.484375 17.84375 46.4375 
Q 14.5 44.390625 14.5 40.28125 
Q 14.5 37.15625 16.890625 35.375 
Q 19.28125 33.59375 26.515625 31.984375 
L 29.59375 31.296875 
Q 39.15625 29.25 43.1875 25.515625 
Q 47.21875 21.78125 47.21875 15.09375 
Q 47.21875 7.46875 41.1875 3.015625 
Q 35.15625 -1.421875 24.609375 -1.421875 
Q 20.21875 -1.421875 15.453125 -0.5625 
Q 10.6875 0.296875 5.421875 2 
L 5.421875 11.28125 
Q 10.40625 8.6875 15.234375 7.390625 
Q 20.0625 6.109375 24.8125 6.109375 
Q 31.15625 6.109375 34.5625 8.28125 
Q 37.984375 10.453125 37.984375 14.40625 
Q 37.984375 18.0625 35.515625 20.015625 
Q 33.0625 21.96875 24.703125 23.78125 
L 21.578125 24.515625 
Q 13.234375 26.265625 9.515625 29.90625 
Q 5.8125 33.546875 5.8125 39.890625 
Q 5.8125 47.609375 11.28125 51.796875 
Q 16.75 56 26.8125 56 
Q 31.78125 56 36.171875 55.265625 
Q 40.578125 54.546875 44.28125 53.078125 
z
" id="DejaVuSans-115"/>
     </defs>
     <g transform="translate(232.157812 222.993438)scale(0.14 -0.14)">
      <use xlink:href="#DejaVuSans-80"/>
      <use x="60.287109" xlink:href="#DejaVuSans-114"/>
      <use x="101.369141" xlink:href="#DejaVuSans-101"/>
      <use x="162.892578" xlink:href="#DejaVuSans-100"/>
      <use x="226.369141" xlink:href="#DejaVuSans-105"/>
      <use x="254.152344" xlink:href="#DejaVuSans-99"/>
      <use x="309.132812" xlink:href="#DejaVuSans-116"/>
      <use x="348.341797" xlink:href="#DejaVuSans-105"/>
      <use x="376.125" xlink:href="#DejaVuSans-111"/>
      <use x="437.306641" xlink:href="#DejaVuSans-110"/>
      <use x="500.685547" xlink:href="#DejaVuSans-115"/>
     </g>
    </g>
   </g>
   <g id="matplotlib.axis_2">
    <g id="ytick_1">
     <g id="line2d_11">
      <path clip-path="url(#p8d1f89fdf1)" d="M 47.6525 170.019125 
L 494.0525 170.019125 
" style="fill:none;stroke:#b0b0b0;stroke-linecap:square;stroke-width:0.8;"/>
     </g>
     <g id="line2d_12">
      <defs>
       <path d="M 0 0 
L -3.5 0 
" id="m9d3edd63f0" style="stroke:#000000;stroke-width:0.8;"/>
      </defs>
      <g>
       <use style="stroke:#000000;stroke-width:0.8;" x="47.6525" xlink:href="#m9d3edd63f0" y="170.019125"/>
      </g>
     </g>
     <g id="text_7">
      <!-- 0.0 -->
      <g transform="translate(24.749375 173.818344)scale(0.1 -0.1)">
       <use xlink:href="#DejaVuSans-48"/>
       <use x="63.623047" xlink:href="#DejaVuSans-46"/>
       <use x="95.410156" xlink:href="#DejaVuSans-48"/>
      </g>
     </g>
    </g>
    <g id="ytick_2">
     <g id="line2d_13">
      <path clip-path="url(#p8d1f89fdf1)" d="M 47.6525 144.154572 
L 494.0525 144.154572 
" style="fill:none;stroke:#b0b0b0;stroke-linecap:square;stroke-width:0.8;"/>
     </g>
     <g id="line2d_14">
      <g>
       <use style="stroke:#000000;stroke-width:0.8;" x="47.6525" xlink:href="#m9d3edd63f0" y="144.154572"/>
      </g>
     </g>
     <g id="text_8">
      <!-- 0.2 -->
      <defs>
       <path d="M 19.1875 8.296875 
L 53.609375 8.296875 
L 53.609375 0 
L 7.328125 0 
L 7.328125 8.296875 
Q 12.9375 14.109375 22.625 23.890625 
Q 32.328125 33.6875 34.8125 36.53125 
Q 39.546875 41.84375 41.421875 45.53125 
Q 43.3125 49.21875 43.3125 52.78125 
Q 43.3125 58.59375 39.234375 62.25 
Q 35.15625 65.921875 28.609375 65.921875 
Q 23.96875 65.921875 18.8125 64.3125 
Q 13.671875 62.703125 7.8125 59.421875 
L 7.8125 69.390625 
Q 13.765625 71.78125 18.9375 73 
Q 24.125 74.21875 28.421875 74.21875 
Q 39.75 74.21875 46.484375 68.546875 
Q 53.21875 62.890625 53.21875 53.421875 
Q 53.21875 48.921875 51.53125 44.890625 
Q 49.859375 40.875 45.40625 35.40625 
Q 44.1875 33.984375 37.640625 27.21875 
Q 31.109375 20.453125 19.1875 8.296875 
z
" id="DejaVuSans-50"/>
      </defs>
      <g transform="translate(24.749375 147.953791)scale(0.1 -0.1)">
       <use xlink:href="#DejaVuSans-48"/>
       <use x="63.623047" xlink:href="#DejaVuSans-46"/>
       <use x="95.410156" xlink:href="#DejaVuSans-50"/>
      </g>
     </g>
    </g>
    <g id="ytick_3">
     <g id="line2d_15">
      <path clip-path="url(#p8d1f89fdf1)" d="M 47.6525 118.290018 
L 494.0525 118.290018 
" style="fill:none;stroke:#b0b0b0;stroke-linecap:square;stroke-width:0.8;"/>
     </g>
     <g id="line2d_16">
      <g>
       <use style="stroke:#000000;stroke-width:0.8;" x="47.6525" xlink:href="#m9d3edd63f0" y="118.290018"/>
      </g>
     </g>
     <g id="text_9">
      <!-- 0.4 -->
      <defs>
       <path d="M 37.796875 64.3125 
L 12.890625 25.390625 
L 37.796875 25.390625 
z
M 35.203125 72.90625 
L 47.609375 72.90625 
L 47.609375 25.390625 
L 58.015625 25.390625 
L 58.015625 17.1875 
L 47.609375 17.1875 
L 47.609375 0 
L 37.796875 0 
L 37.796875 17.1875 
L 4.890625 17.1875 
L 4.890625 26.703125 
z
" id="DejaVuSans-52"/>
      </defs>
      <g transform="translate(24.749375 122.089237)scale(0.1 -0.1)">
       <use xlink:href="#DejaVuSans-48"/>
       <use x="63.623047" xlink:href="#DejaVuSans-46"/>
       <use x="95.410156" xlink:href="#DejaVuSans-52"/>
      </g>
     </g>
    </g>
    <g id="ytick_4">
     <g id="line2d_17">
      <path clip-path="url(#p8d1f89fdf1)" d="M 47.6525 92.425465 
L 494.0525 92.425465 
" style="fill:none;stroke:#b0b0b0;stroke-linecap:square;stroke-width:0.8;"/>
     </g>
     <g id="line2d_18">
      <g>
       <use style="stroke:#000000;stroke-width:0.8;" x="47.6525" xlink:href="#m9d3edd63f0" y="92.425465"/>
      </g>
     </g>
     <g id="text_10">
      <!-- 0.6 -->
      <g transform="translate(24.749375 96.224684)scale(0.1 -0.1)">
       <use xlink:href="#DejaVuSans-48"/>
       <use x="63.623047" xlink:href="#DejaVuSans-46"/>
       <use x="95.410156" xlink:href="#DejaVuSans-54"/>
      </g>
     </g>
    </g>
    <g id="ytick_5">
     <g id="line2d_19">
      <path clip-path="url(#p8d1f89fdf1)" d="M 47.6525 66.560912 
L 494.0525 66.560912 
" style="fill:none;stroke:#b0b0b0;stroke-linecap:square;stroke-width:0.8;"/>
     </g>
     <g id="line2d_20">
      <g>
       <use style="stroke:#000000;stroke-width:0.8;" x="47.6525" xlink:href="#m9d3edd63f0" y="66.560912"/>
      </g>
     </g>
     <g id="text_11">
      <!-- 0.8 -->
      <g transform="translate(24.749375 70.36013)scale(0.1 -0.1)">
       <use xlink:href="#DejaVuSans-48"/>
       <use x="63.623047" xlink:href="#DejaVuSans-46"/>
       <use x="95.410156" xlink:href="#DejaVuSans-56"/>
      </g>
     </g>
    </g>
    <g id="ytick_6">
     <g id="line2d_21">
      <path clip-path="url(#p8d1f89fdf1)" d="M 47.6525 40.696358 
L 494.0525 40.696358 
" style="fill:none;stroke:#b0b0b0;stroke-linecap:square;stroke-width:0.8;"/>
     </g>
     <g id="line2d_22">
      <g>
       <use style="stroke:#000000;stroke-width:0.8;" x="47.6525" xlink:href="#m9d3edd63f0" y="40.696358"/>
      </g>
     </g>
     <g id="text_12">
      <!-- 1.0 -->
      <g transform="translate(24.749375 44.495577)scale(0.1 -0.1)">
       <use xlink:href="#DejaVuSans-49"/>
       <use x="63.623047" xlink:href="#DejaVuSans-46"/>
       <use x="95.410156" xlink:href="#DejaVuSans-48"/>
      </g>
     </g>
    </g>
    <g id="text_13">
     <!-- Real -->
     <defs>
      <path d="M 44.390625 34.1875 
Q 47.5625 33.109375 50.5625 29.59375 
Q 53.5625 26.078125 56.59375 19.921875 
L 66.609375 0 
L 56 0 
L 46.6875 18.703125 
Q 43.0625 26.03125 39.671875 28.421875 
Q 36.28125 30.8125 30.421875 30.8125 
L 19.671875 30.8125 
L 19.671875 0 
L 9.8125 0 
L 9.8125 72.90625 
L 32.078125 72.90625 
Q 44.578125 72.90625 50.734375 67.671875 
Q 56.890625 62.453125 56.890625 51.90625 
Q 56.890625 45.015625 53.6875 40.46875 
Q 50.484375 35.9375 44.390625 34.1875 
z
M 19.671875 64.796875 
L 19.671875 38.921875 
L 32.078125 38.921875 
Q 39.203125 38.921875 42.84375 42.21875 
Q 46.484375 45.515625 46.484375 51.90625 
Q 46.484375 58.296875 42.84375 61.546875 
Q 39.203125 64.796875 32.078125 64.796875 
z
" id="DejaVuSans-82"/>
      <path d="M 34.28125 27.484375 
Q 23.390625 27.484375 19.1875 25 
Q 14.984375 22.515625 14.984375 16.5 
Q 14.984375 11.71875 18.140625 8.90625 
Q 21.296875 6.109375 26.703125 6.109375 
Q 34.1875 6.109375 38.703125 11.40625 
Q 43.21875 16.703125 43.21875 25.484375 
L 43.21875 27.484375 
z
M 52.203125 31.203125 
L 52.203125 0 
L 43.21875 0 
L 43.21875 8.296875 
Q 40.140625 3.328125 35.546875 0.953125 
Q 30.953125 -1.421875 24.3125 -1.421875 
Q 15.921875 -1.421875 10.953125 3.296875 
Q 6 8.015625 6 15.921875 
Q 6 25.140625 12.171875 29.828125 
Q 18.359375 34.515625 30.609375 34.515625 
L 43.21875 34.515625 
L 43.21875 35.40625 
Q 43.21875 41.609375 39.140625 45 
Q 35.0625 48.390625 27.6875 48.390625 
Q 23 48.390625 18.546875 47.265625 
Q 14.109375 46.140625 10.015625 43.890625 
L 10.015625 52.203125 
Q 14.9375 54.109375 19.578125 55.046875 
Q 24.21875 56 28.609375 56 
Q 40.484375 56 46.34375 49.84375 
Q 52.203125 43.703125 52.203125 31.203125 
z
" id="DejaVuSans-97"/>
      <path d="M 9.421875 75.984375 
L 18.40625 75.984375 
L 18.40625 0 
L 9.421875 0 
z
" id="DejaVuSans-108"/>
     </defs>
     <g transform="translate(17.837812 123.918594)rotate(-90)scale(0.14 -0.14)">
      <use xlink:href="#DejaVuSans-82"/>
      <use x="69.419922" xlink:href="#DejaVuSans-101"/>
      <use x="130.943359" xlink:href="#DejaVuSans-97"/>
      <use x="192.222656" xlink:href="#DejaVuSans-108"/>
     </g>
    </g>
   </g>
   <g id="line2d_23">
    <path clip-path="url(#p8d1f89fdf1)" d="M -1 109.154123 
L 469.351226 40.696358 
L 405.198997 50.033462 
" style="fill:none;stroke:#1f77b4;stroke-linecap:square;stroke-width:1.5;"/>
   </g>
   <g id="line2d_24">
    <path clip-path="url(#p8d1f89fdf1)" d="M -1 112.956106 
L 25.08371 108.5175 
L 113.937213 93.3975 
L 202.790717 78.2775 
L 291.64422 63.1575 
L 380.497723 48.0375 
L 469.351226 32.9175 
" style="fill:none;stroke:#ff0000;stroke-linecap:square;stroke-width:1.5;"/>
   </g>
   <g id="patch_3">
    <path d="M 47.6525 191.6775 
L 47.6525 25.3575 
" style="fill:none;stroke:#000000;stroke-linecap:square;stroke-linejoin:miter;stroke-width:0.8;"/>
   </g>
   <g id="patch_4">
    <path d="M 494.0525 191.6775 
L 494.0525 25.3575 
" style="fill:none;stroke:#000000;stroke-linecap:square;stroke-linejoin:miter;stroke-width:0.8;"/>
   </g>
   <g id="patch_5">
    <path d="M 47.6525 191.6775 
L 494.0525 191.6775 
" style="fill:none;stroke:#000000;stroke-linecap:square;stroke-linejoin:miter;stroke-width:0.8;"/>
   </g>
   <g id="patch_6">
    <path d="M 47.6525 25.3575 
L 494.0525 25.3575 
" style="fill:none;stroke:#000000;stroke-linecap:square;stroke-linejoin:miter;stroke-width:0.8;"/>
   </g>
   <g id="text_14">
    <!-- Bulk Density -->
    <defs>
     <path d="M 19.671875 34.8125 
L 19.671875 8.109375 
L 35.5 8.109375 
Q 43.453125 8.109375 47.28125 11.40625 
Q 51.125 14.703125 51.125 21.484375 
Q 51.125 28.328125 47.28125 31.5625 
Q 43.453125 34.8125 35.5 34.8125 
z
M 19.671875 64.796875 
L 19.671875 42.828125 
L 34.28125 42.828125 
Q 41.5 42.828125 45.03125 45.53125 
Q 48.578125 48.25 48.578125 53.8125 
Q 48.578125 59.328125 45.03125 62.0625 
Q 41.5 64.796875 34.28125 64.796875 
z
M 9.8125 72.90625 
L 35.015625 72.90625 
Q 46.296875 72.90625 52.390625 68.21875 
Q 58.5 63.53125 58.5 54.890625 
Q 58.5 48.1875 55.375 44.234375 
Q 52.25 40.28125 46.1875 39.3125 
Q 53.46875 37.75 57.5 32.78125 
Q 61.53125 27.828125 61.53125 20.40625 
Q 61.53125 10.640625 54.890625 5.3125 
Q 48.25 0 35.984375 0 
L 9.8125 0 
z
" id="DejaVuSans-66"/>
     <path d="M 8.5 21.578125 
L 8.5 54.6875 
L 17.484375 54.6875 
L 17.484375 21.921875 
Q 17.484375 14.15625 20.5 10.265625 
Q 23.53125 6.390625 29.59375 6.390625 
Q 36.859375 6.390625 41.078125 11.03125 
Q 45.3125 15.671875 45.3125 23.6875 
L 45.3125 54.6875 
L 54.296875 54.6875 
L 54.296875 0 
L 45.3125 0 
L 45.3125 8.40625 
Q 42.046875 3.421875 37.71875 1 
Q 33.40625 -1.421875 27.6875 -1.421875 
Q 18.265625 -1.421875 13.375 4.4375 
Q 8.5 10.296875 8.5 21.578125 
z
M 31.109375 56 
z
" id="DejaVuSans-117"/>
     <path d="M 9.078125 75.984375 
L 18.109375 75.984375 
L 18.109375 31.109375 
L 44.921875 54.6875 
L 56.390625 54.6875 
L 27.390625 29.109375 
L 57.625 0 
L 45.90625 0 
L 18.109375 26.703125 
L 18.109375 0 
L 9.078125 0 
z
" id="DejaVuSans-107"/>
     <path id="DejaVuSans-32"/>
     <path d="M 19.671875 64.796875 
L 19.671875 8.109375 
L 31.59375 8.109375 
Q 46.6875 8.109375 53.6875 14.9375 
Q 60.6875 21.78125 60.6875 36.53125 
Q 60.6875 51.171875 53.6875 57.984375 
Q 46.6875 64.796875 31.59375 64.796875 
z
M 9.8125 72.90625 
L 30.078125 72.90625 
Q 51.265625 72.90625 61.171875 64.09375 
Q 71.09375 55.28125 71.09375 36.53125 
Q 71.09375 17.671875 61.125 8.828125 
Q 51.171875 0 30.078125 0 
L 9.8125 0 
z
" id="DejaVuSans-68"/>
     <path d="M 32.171875 -5.078125 
Q 28.375 -14.84375 24.75 -17.8125 
Q 21.140625 -20.796875 15.09375 -20.796875 
L 7.90625 -20.796875 
L 7.90625 -13.28125 
L 13.1875 -13.28125 
Q 16.890625 -13.28125 18.9375 -11.515625 
Q 21 -9.765625 23.484375 -3.21875 
L 25.09375 0.875 
L 2.984375 54.6875 
L 12.5 54.6875 
L 29.59375 11.921875 
L 46.6875 54.6875 
L 56.203125 54.6875 
z
" id="DejaVuSans-121"/>
    </defs>
    <g transform="translate(220.4825 19.3575)scale(0.16 -0.16)">
     <use xlink:href="#DejaVuSans-66"/>
     <use x="68.603516" xlink:href="#DejaVuSans-117"/>
     <use x="131.982422" xlink:href="#DejaVuSans-108"/>
     <use x="159.765625" xlink:href="#DejaVuSans-107"/>
     <use x="217.675781" xlink:href="#DejaVuSans-32"/>
     <use x="249.462891" xlink:href="#DejaVuSans-68"/>
     <use x="326.464844" xlink:href="#DejaVuSans-101"/>
     <use x="387.988281" xlink:href="#DejaVuSans-110"/>
     <use x="451.367188" xlink:href="#DejaVuSans-115"/>
     <use x="503.466797" xlink:href="#DejaVuSans-105"/>
     <use x="531.25" xlink:href="#DejaVuSans-116"/>
     <use x="570.458984" xlink:href="#DejaVuSans-121"/>
    </g>
   </g>
   <g id="legend_1">
    <g id="patch_7">
     <path d="M 54.6525 62.71375 
L 124.407188 62.71375 
Q 126.407188 62.71375 126.407188 60.71375 
L 126.407188 32.3575 
Q 126.407188 30.3575 124.407188 30.3575 
L 54.6525 30.3575 
Q 52.6525 30.3575 52.6525 32.3575 
L 52.6525 60.71375 
Q 52.6525 62.71375 54.6525 62.71375 
z
" style="fill:#ffffff;opacity:0.8;stroke:#cccccc;stroke-linejoin:miter;"/>
    </g>
    <g id="line2d_25">
     <path d="M 56.6525 38.455938 
L 76.6525 38.455938 
" style="fill:none;stroke:#1f77b4;stroke-linecap:square;stroke-width:1.5;"/>
    </g>
    <g id="line2d_26"/>
    <g id="text_15">
     <!-- Ideal fit -->
     <defs>
      <path d="M 9.8125 72.90625 
L 19.671875 72.90625 
L 19.671875 0 
L 9.8125 0 
z
" id="DejaVuSans-73"/>
      <path d="M 37.109375 75.984375 
L 37.109375 68.5 
L 28.515625 68.5 
Q 23.6875 68.5 21.796875 66.546875 
Q 19.921875 64.59375 19.921875 59.515625 
L 19.921875 54.6875 
L 34.71875 54.6875 
L 34.71875 47.703125 
L 19.921875 47.703125 
L 19.921875 0 
L 10.890625 0 
L 10.890625 47.703125 
L 2.296875 47.703125 
L 2.296875 54.6875 
L 10.890625 54.6875 
L 10.890625 58.5 
Q 10.890625 67.625 15.140625 71.796875 
Q 19.390625 75.984375 28.609375 75.984375 
z
" id="DejaVuSans-102"/>
     </defs>
     <g transform="translate(84.6525 41.955938)scale(0.1 -0.1)">
      <use xlink:href="#DejaVuSans-73"/>
      <use x="29.492188" xlink:href="#DejaVuSans-100"/>
      <use x="92.96875" xlink:href="#DejaVuSans-101"/>
      <use x="154.492188" xlink:href="#DejaVuSans-97"/>
      <use x="215.771484" xlink:href="#DejaVuSans-108"/>
      <use x="243.554688" xlink:href="#DejaVuSans-32"/>
      <use x="275.341797" xlink:href="#DejaVuSans-102"/>
      <use x="310.546875" xlink:href="#DejaVuSans-105"/>
      <use x="338.330078" xlink:href="#DejaVuSans-116"/>
     </g>
    </g>
    <g id="line2d_27">
     <path d="M 56.6525 53.134063 
L 76.6525 53.134063 
" style="fill:none;stroke:#ff0000;stroke-linecap:square;stroke-width:1.5;"/>
    </g>
    <g id="line2d_28"/>
    <g id="text_16">
     <!-- Best fit -->
     <g transform="translate(84.6525 56.634063)scale(0.1 -0.1)">
      <use xlink:href="#DejaVuSans-66"/>
      <use x="68.603516" xlink:href="#DejaVuSans-101"/>
      <use x="130.126953" xlink:href="#DejaVuSans-115"/>
      <use x="182.226562" xlink:href="#DejaVuSans-116"/>
      <use x="221.435547" xlink:href="#DejaVuSans-32"/>
      <use x="253.222656" xlink:href="#DejaVuSans-102"/>
      <use x="288.427734" xlink:href="#DejaVuSans-105"/>
      <use x="316.210938" xlink:href="#DejaVuSans-116"/>
     </g>
    </g>
   </g>
  </g>
 </g>
 <defs>
  <clipPath id="p8d1f89fdf1">
   <rect height="166.32" width="446.4" x="47.6525" y="25.3575"/>
  </clipPath>
 </defs>
</svg>
