<?xml version="1.0" encoding="utf-8" standalone="no"?>
<!DOCTYPE svg PUBLIC "-//W3C//DTD SVG 1.1//EN"
  "http://www.w3.org/Graphics/SVG/1.1/DTD/svg11.dtd">
<svg xmlns:xlink="http://www.w3.org/1999/xlink" width="501.2525pt" height="233.105pt" viewBox="0 0 501.2525 233.105" xmlns="http://www.w3.org/2000/svg" version="1.1">
 <metadata>
  <rdf:RDF xmlns:dc="http://purl.org/dc/elements/1.1/" xmlns:cc="http://creativecommons.org/ns#" xmlns:rdf="http://www.w3.org/1999/02/22-rdf-syntax-ns#">
   <cc:Work>
    <dc:type rdf:resource="http://purl.org/dc/dcmitype/StillImage"/>
    <dc:date>2024-03-01T12:33:17.251106</dc:date>
    <dc:format>image/svg+xml</dc:format>
    <dc:creator>
     <cc:Agent>
      <dc:title>Matplotlib v3.8.3, https://matplotlib.org/</dc:title>
     </cc:Agent>
    </dc:creator>
   </cc:Work>
  </rdf:RDF>
 </metadata>
 <defs>
  <style type="text/css">*{stroke-linejoin: round; stroke-linecap: butt}</style>
 </defs>
 <g id="figure_1">
  <g id="patch_1">
   <path d="M 0 233.105 
L 501.2525 233.105 
L 501.2525 0 
L 0 0 
L 0 233.105 
z
" style="fill: none"/>
  </g>
  <g id="axes_1">
   <g id="patch_2">
    <path d="M 47.6525 191.6775 
L 494.0525 191.6775 
L 494.0525 25.3575 
L 47.6525 25.3575 
L 47.6525 191.6775 
z
" style="fill: none"/>
   </g>
   <g id="PathCollection_1">
    <defs>
     <path id="m137b3c0197" d="M 0 3 
C 0.795609 3 1.55874 2.683901 2.12132 2.12132 
C 2.683901 1.55874 3 0.795609 3 0 
C 3 -0.795609 2.683901 -1.55874 2.12132 -2.12132 
C 1.55874 -2.683901 0.795609 -3 0 -3 
C -0.795609 -3 -1.55874 -2.683901 -2.12132 -2.12132 
C -2.683901 -1.55874 -3 -0.795609 -3 0 
C -3 0.795609 -2.683901 1.55874 -2.12132 2.12132 
C -1.55874 2.683901 -0.795609 3 0 3 
z
" style="stroke: #1f77b4"/>
    </defs>
    <g clip-path="url(#pfddf8e202c)">
     <use xlink:href="#m137b3c0197" x="440.358543" y="47.218194" style="fill: #1f77b4; stroke: #1f77b4"/>
     <use xlink:href="#m137b3c0197" x="423.810338" y="55.497543" style="fill: #1f77b4; stroke: #1f77b4"/>
     <use xlink:href="#m137b3c0197" x="391.334683" y="65.651462" style="fill: #1f77b4; stroke: #1f77b4"/>
     <use xlink:href="#m137b3c0197" x="423.87947" y="54.631265" style="fill: #1f77b4; stroke: #1f77b4"/>
     <use xlink:href="#m137b3c0197" x="441.593518" y="44.207521" style="fill: #1f77b4; stroke: #1f77b4"/>
     <use xlink:href="#m137b3c0197" x="387.136937" y="65.750871" style="fill: #1f77b4; stroke: #1f77b4"/>
     <use xlink:href="#m137b3c0197" x="427.363288" y="52.174442" style="fill: #1f77b4; stroke: #1f77b4"/>
     <use xlink:href="#m137b3c0197" x="423.575709" y="49.092763" style="fill: #1f77b4; stroke: #1f77b4"/>
     <use xlink:href="#m137b3c0197" x="388.71856" y="74.03022" style="fill: #1f77b4; stroke: #1f77b4"/>
     <use xlink:href="#m137b3c0197" x="429.908273" y="47.189791" style="fill: #1f77b4; stroke: #1f77b4"/>
     <use xlink:href="#m137b3c0197" x="403.22084" y="59.232481" style="fill: #1f77b4; stroke: #1f77b4"/>
     <use xlink:href="#m137b3c0197" x="385.411633" y="65.651462" style="fill: #1f77b4; stroke: #1f77b4"/>
     <use xlink:href="#m137b3c0197" x="439.754746" y="44.207521" style="fill: #1f77b4; stroke: #1f77b4"/>
     <use xlink:href="#m137b3c0197" x="404.212453" y="57.386314" style="fill: #1f77b4; stroke: #1f77b4"/>
     <use xlink:href="#m137b3c0197" x="398.544666" y="61.135453" style="fill: #1f77b4; stroke: #1f77b4"/>
     <use xlink:href="#m137b3c0197" x="365.512599" y="75.634965" style="fill: #1f77b4; stroke: #1f77b4"/>
     <use xlink:href="#m137b3c0197" x="364.080849" y="75.634965" style="fill: #1f77b4; stroke: #1f77b4"/>
     <use xlink:href="#m137b3c0197" x="405.630078" y="59.672721" style="fill: #1f77b4; stroke: #1f77b4"/>
     <use xlink:href="#m137b3c0197" x="328.180952" y="86.115513" style="fill: #1f77b4; stroke: #1f77b4"/>
     <use xlink:href="#m137b3c0197" x="430.566639" y="46.763753" style="fill: #1f77b4; stroke: #1f77b4"/>
     <use xlink:href="#m137b3c0197" x="407.967717" y="55.35553" style="fill: #1f77b4; stroke: #1f77b4"/>
     <use xlink:href="#m137b3c0197" x="402.022631" y="59.232481" style="fill: #1f77b4; stroke: #1f77b4"/>
     <use xlink:href="#m137b3c0197" x="382.562839" y="69.073971" style="fill: #1f77b4; stroke: #1f77b4"/>
     <use xlink:href="#m137b3c0197" x="401.080241" y="59.161474" style="fill: #1f77b4; stroke: #1f77b4"/>
     <use xlink:href="#m137b3c0197" x="368.202159" y="72.922519" style="fill: #1f77b4; stroke: #1f77b4"/>
     <use xlink:href="#m137b3c0197" x="395.411075" y="60.070357" style="fill: #1f77b4; stroke: #1f77b4"/>
     <use xlink:href="#m137b3c0197" x="399.111793" y="60.624207" style="fill: #1f77b4; stroke: #1f77b4"/>
     <use xlink:href="#m137b3c0197" x="438.077843" y="47.331804" style="fill: #1f77b4; stroke: #1f77b4"/>
     <use xlink:href="#m137b3c0197" x="436.921868" y="47.331804" style="fill: #1f77b4; stroke: #1f77b4"/>
     <use xlink:href="#m137b3c0197" x="370.283641" y="74.101226" style="fill: #1f77b4; stroke: #1f77b4"/>
     <use xlink:href="#m137b3c0197" x="438.60264" y="48.865543" style="fill: #1f77b4; stroke: #1f77b4"/>
     <use xlink:href="#m137b3c0197" x="393.766029" y="61.135453" style="fill: #1f77b4; stroke: #1f77b4"/>
     <use xlink:href="#m137b3c0197" x="442.299633" y="44.207521" style="fill: #1f77b4; stroke: #1f77b4"/>
     <use xlink:href="#m137b3c0197" x="431.193125" y="49.092763" style="fill: #1f77b4; stroke: #1f77b4"/>
     <use xlink:href="#m137b3c0197" x="417.026487" y="53.665577" style="fill: #1f77b4; stroke: #1f77b4"/>
     <use xlink:href="#m137b3c0197" x="386.246794" y="63.322451" style="fill: #1f77b4; stroke: #1f77b4"/>
     <use xlink:href="#m137b3c0197" x="383.390236" y="69.073971" style="fill: #1f77b4; stroke: #1f77b4"/>
     <use xlink:href="#m137b3c0197" x="407.717147" y="60.624207" style="fill: #1f77b4; stroke: #1f77b4"/>
     <use xlink:href="#m137b3c0197" x="393.852939" y="62.527179" style="fill: #1f77b4; stroke: #1f77b4"/>
     <use xlink:href="#m137b3c0197" x="434.102173" y="52.174442" style="fill: #1f77b4; stroke: #1f77b4"/>
     <use xlink:href="#m137b3c0197" x="403.270306" y="59.232481" style="fill: #1f77b4; stroke: #1f77b4"/>
     <use xlink:href="#m137b3c0197" x="419.029718" y="56.264412" style="fill: #1f77b4; stroke: #1f77b4"/>
     <use xlink:href="#m137b3c0197" x="406.140821" y="55.880978" style="fill: #1f77b4; stroke: #1f77b4"/>
     <use xlink:href="#m137b3c0197" x="409.668566" y="55.35553" style="fill: #1f77b4; stroke: #1f77b4"/>
     <use xlink:href="#m137b3c0197" x="398.591471" y="59.161474" style="fill: #1f77b4; stroke: #1f77b4"/>
     <use xlink:href="#m137b3c0197" x="434.735335" y="47.331804" style="fill: #1f77b4; stroke: #1f77b4"/>
     <use xlink:href="#m137b3c0197" x="433.109181" y="46.763753" style="fill: #1f77b4; stroke: #1f77b4"/>
     <use xlink:href="#m137b3c0197" x="370.06096" y="70.408892" style="fill: #1f77b4; stroke: #1f77b4"/>
     <use xlink:href="#m137b3c0197" x="402.443247" y="60.624207" style="fill: #1f77b4; stroke: #1f77b4"/>
     <use xlink:href="#m137b3c0197" x="431.604695" y="47.189791" style="fill: #1f77b4; stroke: #1f77b4"/>
     <use xlink:href="#m137b3c0197" x="423.033012" y="54.631265" style="fill: #1f77b4; stroke: #1f77b4"/>
     <use xlink:href="#m137b3c0197" x="412.527834" y="56.505834" style="fill: #1f77b4; stroke: #1f77b4"/>
     <use xlink:href="#m137b3c0197" x="383.189228" y="67.668044" style="fill: #1f77b4; stroke: #1f77b4"/>
     <use xlink:href="#m137b3c0197" x="367.113356" y="73.320155" style="fill: #1f77b4; stroke: #1f77b4"/>
     <use xlink:href="#m137b3c0197" x="387.467305" y="65.750871" style="fill: #1f77b4; stroke: #1f77b4"/>
     <use xlink:href="#m137b3c0197" x="433.759226" y="49.092763" style="fill: #1f77b4; stroke: #1f77b4"/>
     <use xlink:href="#m137b3c0197" x="396.453049" y="60.624207" style="fill: #1f77b4; stroke: #1f77b4"/>
     <use xlink:href="#m137b3c0197" x="370.774791" y="74.101226" style="fill: #1f77b4; stroke: #1f77b4"/>
     <use xlink:href="#m137b3c0197" x="419.252471" y="49.092763" style="fill: #1f77b4; stroke: #1f77b4"/>
     <use xlink:href="#m137b3c0197" x="397.971105" y="62.498776" style="fill: #1f77b4; stroke: #1f77b4"/>
     <use xlink:href="#m137b3c0197" x="379.295509" y="68.250297" style="fill: #1f77b4; stroke: #1f77b4"/>
     <use xlink:href="#m137b3c0197" x="417.867454" y="56.093997" style="fill: #1f77b4; stroke: #1f77b4"/>
     <use xlink:href="#m137b3c0197" x="361.860404" y="71.559196" style="fill: #1f77b4; stroke: #1f77b4"/>
     <use xlink:href="#m137b3c0197" x="394.994861" y="62.10114" style="fill: #1f77b4; stroke: #1f77b4"/>
     <use xlink:href="#m137b3c0197" x="424.71376" y="50.853723" style="fill: #1f77b4; stroke: #1f77b4"/>
     <use xlink:href="#m137b3c0197" x="387.917649" y="62.10114" style="fill: #1f77b4; stroke: #1f77b4"/>
     <use xlink:href="#m137b3c0197" x="362.602003" y="79.270494" style="fill: #1f77b4; stroke: #1f77b4"/>
     <use xlink:href="#m137b3c0197" x="364.593068" y="72.922519" style="fill: #1f77b4; stroke: #1f77b4"/>
     <use xlink:href="#m137b3c0197" x="398.311367" y="65.324832" style="fill: #1f77b4; stroke: #1f77b4"/>
     <use xlink:href="#m137b3c0197" x="366.007451" y="69.826639" style="fill: #1f77b4; stroke: #1f77b4"/>
     <use xlink:href="#m137b3c0197" x="417.78884" y="55.014699" style="fill: #1f77b4; stroke: #1f77b4"/>
     <use xlink:href="#m137b3c0197" x="375.05698" y="71.189963" style="fill: #1f77b4; stroke: #1f77b4"/>
     <use xlink:href="#m137b3c0197" x="419.170036" y="56.093997" style="fill: #1f77b4; stroke: #1f77b4"/>
     <use xlink:href="#m137b3c0197" x="404.980806" y="57.386314" style="fill: #1f77b4; stroke: #1f77b4"/>
     <use xlink:href="#m137b3c0197" x="398.024078" y="60.070357" style="fill: #1f77b4; stroke: #1f77b4"/>
     <use xlink:href="#m137b3c0197" x="396.98416" y="60.070357" style="fill: #1f77b4; stroke: #1f77b4"/>
     <use xlink:href="#m137b3c0197" x="416.887015" y="56.093997" style="fill: #1f77b4; stroke: #1f77b4"/>
     <use xlink:href="#m137b3c0197" x="419.185953" y="53.665577" style="fill: #1f77b4; stroke: #1f77b4"/>
     <use xlink:href="#m137b3c0197" x="405.767687" y="63.97571" style="fill: #1f77b4; stroke: #1f77b4"/>
     <use xlink:href="#m137b3c0197" x="399.362629" y="55.880978" style="fill: #1f77b4; stroke: #1f77b4"/>
     <use xlink:href="#m137b3c0197" x="437.445528" y="47.331804" style="fill: #1f77b4; stroke: #1f77b4"/>
     <use xlink:href="#m137b3c0197" x="403.470926" y="65.651462" style="fill: #1f77b4; stroke: #1f77b4"/>
     <use xlink:href="#m137b3c0197" x="396.699217" y="64.52956" style="fill: #1f77b4; stroke: #1f77b4"/>
     <use xlink:href="#m137b3c0197" x="409.255327" y="59.232481" style="fill: #1f77b4; stroke: #1f77b4"/>
     <use xlink:href="#m137b3c0197" x="375.798121" y="74.101226" style="fill: #1f77b4; stroke: #1f77b4"/>
     <use xlink:href="#m137b3c0197" x="441.090225" y="43.170828" style="fill: #1f77b4; stroke: #1f77b4"/>
     <use xlink:href="#m137b3c0197" x="418.507775" y="56.264412" style="fill: #1f77b4; stroke: #1f77b4"/>
     <use xlink:href="#m137b3c0197" x="401.730045" y="60.624207" style="fill: #1f77b4; stroke: #1f77b4"/>
     <use xlink:href="#m137b3c0197" x="422.107191" y="56.093997" style="fill: #1f77b4; stroke: #1f77b4"/>
     <use xlink:href="#m137b3c0197" x="415.557728" y="58.252592" style="fill: #1f77b4; stroke: #1f77b4"/>
     <use xlink:href="#m137b3c0197" x="342.712186" y="82.181757" style="fill: #1f77b4; stroke: #1f77b4"/>
     <use xlink:href="#m137b3c0197" x="382.080614" y="69.073971" style="fill: #1f77b4; stroke: #1f77b4"/>
     <use xlink:href="#m137b3c0197" x="383.452086" y="69.073971" style="fill: #1f77b4; stroke: #1f77b4"/>
     <use xlink:href="#m137b3c0197" x="403.807221" y="63.97571" style="fill: #1f77b4; stroke: #1f77b4"/>
     <use xlink:href="#m137b3c0197" x="397.260007" y="59.161474" style="fill: #1f77b4; stroke: #1f77b4"/>
     <use xlink:href="#m137b3c0197" x="367.296367" y="73.320155" style="fill: #1f77b4; stroke: #1f77b4"/>
     <use xlink:href="#m137b3c0197" x="434.00774" y="48.865543" style="fill: #1f77b4; stroke: #1f77b4"/>
     <use xlink:href="#m137b3c0197" x="383.090079" y="68.136686" style="fill: #1f77b4; stroke: #1f77b4"/>
     <use xlink:href="#m137b3c0197" x="431.400301" y="51.606391" style="fill: #1f77b4; stroke: #1f77b4"/>
     <use xlink:href="#m137b3c0197" x="433.500843" y="47.331804" style="fill: #1f77b4; stroke: #1f77b4"/>
     <use xlink:href="#m137b3c0197" x="392.559669" y="64.004113" style="fill: #1f77b4; stroke: #1f77b4"/>
     <use xlink:href="#m137b3c0197" x="387.423379" y="62.527179" style="fill: #1f77b4; stroke: #1f77b4"/>
     <use xlink:href="#m137b3c0197" x="422.448324" y="58.252592" style="fill: #1f77b4; stroke: #1f77b4"/>
     <use xlink:href="#m137b3c0197" x="380.629924" y="68.250297" style="fill: #1f77b4; stroke: #1f77b4"/>
     <use xlink:href="#m137b3c0197" x="380.594197" y="68.136686" style="fill: #1f77b4; stroke: #1f77b4"/>
     <use xlink:href="#m137b3c0197" x="373.583819" y="71.189963" style="fill: #1f77b4; stroke: #1f77b4"/>
     <use xlink:href="#m137b3c0197" x="397.075593" y="65.324832" style="fill: #1f77b4; stroke: #1f77b4"/>
     <use xlink:href="#m137b3c0197" x="367.590452" y="75.634965" style="fill: #1f77b4; stroke: #1f77b4"/>
     <use xlink:href="#m137b3c0197" x="404.916004" y="59.232481" style="fill: #1f77b4; stroke: #1f77b4"/>
     <use xlink:href="#m137b3c0197" x="424.822537" y="52.174442" style="fill: #1f77b4; stroke: #1f77b4"/>
     <use xlink:href="#m137b3c0197" x="361.468765" y="73.490571" style="fill: #1f77b4; stroke: #1f77b4"/>
     <use xlink:href="#m137b3c0197" x="423.641066" y="50.853723" style="fill: #1f77b4; stroke: #1f77b4"/>
     <use xlink:href="#m137b3c0197" x="430.714746" y="47.331804" style="fill: #1f77b4; stroke: #1f77b4"/>
     <use xlink:href="#m137b3c0197" x="386.931236" y="65.651462" style="fill: #1f77b4; stroke: #1f77b4"/>
     <use xlink:href="#m137b3c0197" x="365.466592" y="75.634965" style="fill: #1f77b4; stroke: #1f77b4"/>
     <use xlink:href="#m137b3c0197" x="403.329181" y="61.135453" style="fill: #1f77b4; stroke: #1f77b4"/>
     <use xlink:href="#m137b3c0197" x="369.857485" y="74.101226" style="fill: #1f77b4; stroke: #1f77b4"/>
     <use xlink:href="#m137b3c0197" x="372.854168" y="70.465697" style="fill: #1f77b4; stroke: #1f77b4"/>
     <use xlink:href="#m137b3c0197" x="427.365755" y="53.665577" style="fill: #1f77b4; stroke: #1f77b4"/>
     <use xlink:href="#m137b3c0197" x="399.715566" y="59.672721" style="fill: #1f77b4; stroke: #1f77b4"/>
     <use xlink:href="#m137b3c0197" x="403.967326" y="69.911847" style="fill: #1f77b4; stroke: #1f77b4"/>
     <use xlink:href="#m137b3c0197" x="345.214501" y="82.181757" style="fill: #1f77b4; stroke: #1f77b4"/>
     <use xlink:href="#m137b3c0197" x="327.734695" y="86.115513" style="fill: #1f77b4; stroke: #1f77b4"/>
     <use xlink:href="#m137b3c0197" x="393.050602" y="64.52956" style="fill: #1f77b4; stroke: #1f77b4"/>
     <use xlink:href="#m137b3c0197" x="362.861499" y="79.270494" style="fill: #1f77b4; stroke: #1f77b4"/>
     <use xlink:href="#m137b3c0197" x="441.956977" y="44.207521" style="fill: #1f77b4; stroke: #1f77b4"/>
     <use xlink:href="#m137b3c0197" x="358.287256" y="71.559196" style="fill: #1f77b4; stroke: #1f77b4"/>
     <use xlink:href="#m137b3c0197" x="445.705831" y="43.170828" style="fill: #1f77b4; stroke: #1f77b4"/>
     <use xlink:href="#m137b3c0197" x="429.332873" y="47.331804" style="fill: #1f77b4; stroke: #1f77b4"/>
     <use xlink:href="#m137b3c0197" x="396.523922" y="60.070357" style="fill: #1f77b4; stroke: #1f77b4"/>
     <use xlink:href="#m137b3c0197" x="387.659508" y="67.256207" style="fill: #1f77b4; stroke: #1f77b4"/>
     <use xlink:href="#m137b3c0197" x="397.826239" y="59.161474" style="fill: #1f77b4; stroke: #1f77b4"/>
     <use xlink:href="#m137b3c0197" x="416.134264" y="58.252592" style="fill: #1f77b4; stroke: #1f77b4"/>
     <use xlink:href="#m137b3c0197" x="426.361588" y="55.497543" style="fill: #1f77b4; stroke: #1f77b4"/>
     <use xlink:href="#m137b3c0197" x="368.26996" y="74.101226" style="fill: #1f77b4; stroke: #1f77b4"/>
     <use xlink:href="#m137b3c0197" x="382.579771" y="67.256207" style="fill: #1f77b4; stroke: #1f77b4"/>
     <use xlink:href="#m137b3c0197" x="366.390962" y="74.03022" style="fill: #1f77b4; stroke: #1f77b4"/>
     <use xlink:href="#m137b3c0197" x="394.140203" y="62.498776" style="fill: #1f77b4; stroke: #1f77b4"/>
     <use xlink:href="#m137b3c0197" x="409.865365" y="57.144892" style="fill: #1f77b4; stroke: #1f77b4"/>
     <use xlink:href="#m137b3c0197" x="376.151493" y="68.250297" style="fill: #1f77b4; stroke: #1f77b4"/>
     <use xlink:href="#m137b3c0197" x="414.307997" y="54.489252" style="fill: #1f77b4; stroke: #1f77b4"/>
     <use xlink:href="#m137b3c0197" x="406.832399" y="56.505834" style="fill: #1f77b4; stroke: #1f77b4"/>
     <use xlink:href="#m137b3c0197" x="405.774532" y="57.2301" style="fill: #1f77b4; stroke: #1f77b4"/>
     <use xlink:href="#m137b3c0197" x="424.734562" y="52.174442" style="fill: #1f77b4; stroke: #1f77b4"/>
     <use xlink:href="#m137b3c0197" x="420.791789" y="56.093997" style="fill: #1f77b4; stroke: #1f77b4"/>
     <use xlink:href="#m137b3c0197" x="425.741463" y="51.37917" style="fill: #1f77b4; stroke: #1f77b4"/>
     <use xlink:href="#m137b3c0197" x="375.434347" y="70.465697" style="fill: #1f77b4; stroke: #1f77b4"/>
     <use xlink:href="#m137b3c0197" x="445.203602" y="43.170828" style="fill: #1f77b4; stroke: #1f77b4"/>
     <use xlink:href="#m137b3c0197" x="407.091169" y="59.672721" style="fill: #1f77b4; stroke: #1f77b4"/>
     <use xlink:href="#m137b3c0197" x="405.277214" y="63.97571" style="fill: #1f77b4; stroke: #1f77b4"/>
     <use xlink:href="#m137b3c0197" x="412.735687" y="55.014699" style="fill: #1f77b4; stroke: #1f77b4"/>
     <use xlink:href="#m137b3c0197" x="415.452483" y="53.665577" style="fill: #1f77b4; stroke: #1f77b4"/>
     <use xlink:href="#m137b3c0197" x="347.260667" y="82.181757" style="fill: #1f77b4; stroke: #1f77b4"/>
     <use xlink:href="#m137b3c0197" x="372.804146" y="70.465697" style="fill: #1f77b4; stroke: #1f77b4"/>
     <use xlink:href="#m137b3c0197" x="407.693248" y="57.386314" style="fill: #1f77b4; stroke: #1f77b4"/>
     <use xlink:href="#m137b3c0197" x="389.931233" y="67.668044" style="fill: #1f77b4; stroke: #1f77b4"/>
     <use xlink:href="#m137b3c0197" x="436.924625" y="46.763753" style="fill: #1f77b4; stroke: #1f77b4"/>
     <use xlink:href="#m137b3c0197" x="368.101534" y="73.320155" style="fill: #1f77b4; stroke: #1f77b4"/>
     <use xlink:href="#m137b3c0197" x="367.890392" y="73.320155" style="fill: #1f77b4; stroke: #1f77b4"/>
     <use xlink:href="#m137b3c0197" x="363.208558" y="70.408892" style="fill: #1f77b4; stroke: #1f77b4"/>
     <use xlink:href="#m137b3c0197" x="369.66475" y="70.408892" style="fill: #1f77b4; stroke: #1f77b4"/>
     <use xlink:href="#m137b3c0197" x="417.604644" y="56.264412" style="fill: #1f77b4; stroke: #1f77b4"/>
    </g>
   </g>
   <g id="matplotlib.axis_1">
    <g id="xtick_1">
     <g id="line2d_1">
      <path d="M 67.943409 191.6775 
L 67.943409 25.3575 
" clip-path="url(#pfddf8e202c)" style="fill: none; stroke: #b0b0b0; stroke-width: 0.8; stroke-linecap: square"/>
     </g>
     <g id="line2d_2">
      <defs>
       <path id="m7dfda030d9" d="M 0 0 
L 0 3.5 
" style="stroke: #000000; stroke-width: 0.8"/>
      </defs>
      <g>
       <use xlink:href="#m7dfda030d9" x="67.943409" y="191.6775" style="stroke: #000000; stroke-width: 0.8"/>
      </g>
     </g>
     <g id="text_1">
      <!-- 0.0 -->
      <g transform="translate(59.991847 206.275938) scale(0.1 -0.1)">
       <defs>
        <path id="DejaVuSans-30" d="M 2034 4250 
Q 1547 4250 1301 3770 
Q 1056 3291 1056 2328 
Q 1056 1369 1301 889 
Q 1547 409 2034 409 
Q 2525 409 2770 889 
Q 3016 1369 3016 2328 
Q 3016 3291 2770 3770 
Q 2525 4250 2034 4250 
z
M 2034 4750 
Q 2819 4750 3233 4129 
Q 3647 3509 3647 2328 
Q 3647 1150 3233 529 
Q 2819 -91 2034 -91 
Q 1250 -91 836 529 
Q 422 1150 422 2328 
Q 422 3509 836 4129 
Q 1250 4750 2034 4750 
z
" transform="scale(0.015625)"/>
        <path id="DejaVuSans-2e" d="M 684 794 
L 1344 794 
L 1344 0 
L 684 0 
L 684 794 
z
" transform="scale(0.015625)"/>
       </defs>
       <use xlink:href="#DejaVuSans-30"/>
       <use xlink:href="#DejaVuSans-2e" x="63.623047"/>
       <use xlink:href="#DejaVuSans-30" x="95.410156"/>
      </g>
     </g>
    </g>
    <g id="xtick_2">
     <g id="line2d_3">
      <path d="M 149.107045 191.6775 
L 149.107045 25.3575 
" clip-path="url(#pfddf8e202c)" style="fill: none; stroke: #b0b0b0; stroke-width: 0.8; stroke-linecap: square"/>
     </g>
     <g id="line2d_4">
      <g>
       <use xlink:href="#m7dfda030d9" x="149.107045" y="191.6775" style="stroke: #000000; stroke-width: 0.8"/>
      </g>
     </g>
     <g id="text_2">
      <!-- 0.2 -->
      <g transform="translate(141.155483 206.275938) scale(0.1 -0.1)">
       <defs>
        <path id="DejaVuSans-32" d="M 1228 531 
L 3431 531 
L 3431 0 
L 469 0 
L 469 531 
Q 828 903 1448 1529 
Q 2069 2156 2228 2338 
Q 2531 2678 2651 2914 
Q 2772 3150 2772 3378 
Q 2772 3750 2511 3984 
Q 2250 4219 1831 4219 
Q 1534 4219 1204 4116 
Q 875 4013 500 3803 
L 500 4441 
Q 881 4594 1212 4672 
Q 1544 4750 1819 4750 
Q 2544 4750 2975 4387 
Q 3406 4025 3406 3419 
Q 3406 3131 3298 2873 
Q 3191 2616 2906 2266 
Q 2828 2175 2409 1742 
Q 1991 1309 1228 531 
z
" transform="scale(0.015625)"/>
       </defs>
       <use xlink:href="#DejaVuSans-30"/>
       <use xlink:href="#DejaVuSans-2e" x="63.623047"/>
       <use xlink:href="#DejaVuSans-32" x="95.410156"/>
      </g>
     </g>
    </g>
    <g id="xtick_3">
     <g id="line2d_5">
      <path d="M 230.270682 191.6775 
L 230.270682 25.3575 
" clip-path="url(#pfddf8e202c)" style="fill: none; stroke: #b0b0b0; stroke-width: 0.8; stroke-linecap: square"/>
     </g>
     <g id="line2d_6">
      <g>
       <use xlink:href="#m7dfda030d9" x="230.270682" y="191.6775" style="stroke: #000000; stroke-width: 0.8"/>
      </g>
     </g>
     <g id="text_3">
      <!-- 0.4 -->
      <g transform="translate(222.319119 206.275938) scale(0.1 -0.1)">
       <defs>
        <path id="DejaVuSans-34" d="M 2419 4116 
L 825 1625 
L 2419 1625 
L 2419 4116 
z
M 2253 4666 
L 3047 4666 
L 3047 1625 
L 3713 1625 
L 3713 1100 
L 3047 1100 
L 3047 0 
L 2419 0 
L 2419 1100 
L 313 1100 
L 313 1709 
L 2253 4666 
z
" transform="scale(0.015625)"/>
       </defs>
       <use xlink:href="#DejaVuSans-30"/>
       <use xlink:href="#DejaVuSans-2e" x="63.623047"/>
       <use xlink:href="#DejaVuSans-34" x="95.410156"/>
      </g>
     </g>
    </g>
    <g id="xtick_4">
     <g id="line2d_7">
      <path d="M 311.434318 191.6775 
L 311.434318 25.3575 
" clip-path="url(#pfddf8e202c)" style="fill: none; stroke: #b0b0b0; stroke-width: 0.8; stroke-linecap: square"/>
     </g>
     <g id="line2d_8">
      <g>
       <use xlink:href="#m7dfda030d9" x="311.434318" y="191.6775" style="stroke: #000000; stroke-width: 0.8"/>
      </g>
     </g>
     <g id="text_4">
      <!-- 0.6 -->
      <g transform="translate(303.482756 206.275938) scale(0.1 -0.1)">
       <defs>
        <path id="DejaVuSans-36" d="M 2113 2584 
Q 1688 2584 1439 2293 
Q 1191 2003 1191 1497 
Q 1191 994 1439 701 
Q 1688 409 2113 409 
Q 2538 409 2786 701 
Q 3034 994 3034 1497 
Q 3034 2003 2786 2293 
Q 2538 2584 2113 2584 
z
M 3366 4563 
L 3366 3988 
Q 3128 4100 2886 4159 
Q 2644 4219 2406 4219 
Q 1781 4219 1451 3797 
Q 1122 3375 1075 2522 
Q 1259 2794 1537 2939 
Q 1816 3084 2150 3084 
Q 2853 3084 3261 2657 
Q 3669 2231 3669 1497 
Q 3669 778 3244 343 
Q 2819 -91 2113 -91 
Q 1303 -91 875 529 
Q 447 1150 447 2328 
Q 447 3434 972 4092 
Q 1497 4750 2381 4750 
Q 2619 4750 2861 4703 
Q 3103 4656 3366 4563 
z
" transform="scale(0.015625)"/>
       </defs>
       <use xlink:href="#DejaVuSans-30"/>
       <use xlink:href="#DejaVuSans-2e" x="63.623047"/>
       <use xlink:href="#DejaVuSans-36" x="95.410156"/>
      </g>
     </g>
    </g>
    <g id="xtick_5">
     <g id="line2d_9">
      <path d="M 392.597955 191.6775 
L 392.597955 25.3575 
" clip-path="url(#pfddf8e202c)" style="fill: none; stroke: #b0b0b0; stroke-width: 0.8; stroke-linecap: square"/>
     </g>
     <g id="line2d_10">
      <g>
       <use xlink:href="#m7dfda030d9" x="392.597955" y="191.6775" style="stroke: #000000; stroke-width: 0.8"/>
      </g>
     </g>
     <g id="text_5">
      <!-- 0.8 -->
      <g transform="translate(384.646392 206.275938) scale(0.1 -0.1)">
       <defs>
        <path id="DejaVuSans-38" d="M 2034 2216 
Q 1584 2216 1326 1975 
Q 1069 1734 1069 1313 
Q 1069 891 1326 650 
Q 1584 409 2034 409 
Q 2484 409 2743 651 
Q 3003 894 3003 1313 
Q 3003 1734 2745 1975 
Q 2488 2216 2034 2216 
z
M 1403 2484 
Q 997 2584 770 2862 
Q 544 3141 544 3541 
Q 544 4100 942 4425 
Q 1341 4750 2034 4750 
Q 2731 4750 3128 4425 
Q 3525 4100 3525 3541 
Q 3525 3141 3298 2862 
Q 3072 2584 2669 2484 
Q 3125 2378 3379 2068 
Q 3634 1759 3634 1313 
Q 3634 634 3220 271 
Q 2806 -91 2034 -91 
Q 1263 -91 848 271 
Q 434 634 434 1313 
Q 434 1759 690 2068 
Q 947 2378 1403 2484 
z
M 1172 3481 
Q 1172 3119 1398 2916 
Q 1625 2713 2034 2713 
Q 2441 2713 2670 2916 
Q 2900 3119 2900 3481 
Q 2900 3844 2670 4047 
Q 2441 4250 2034 4250 
Q 1625 4250 1398 4047 
Q 1172 3844 1172 3481 
z
" transform="scale(0.015625)"/>
       </defs>
       <use xlink:href="#DejaVuSans-30"/>
       <use xlink:href="#DejaVuSans-2e" x="63.623047"/>
       <use xlink:href="#DejaVuSans-38" x="95.410156"/>
      </g>
     </g>
    </g>
    <g id="xtick_6">
     <g id="line2d_11">
      <path d="M 473.761591 191.6775 
L 473.761591 25.3575 
" clip-path="url(#pfddf8e202c)" style="fill: none; stroke: #b0b0b0; stroke-width: 0.8; stroke-linecap: square"/>
     </g>
     <g id="line2d_12">
      <g>
       <use xlink:href="#m7dfda030d9" x="473.761591" y="191.6775" style="stroke: #000000; stroke-width: 0.8"/>
      </g>
     </g>
     <g id="text_6">
      <!-- 1.0 -->
      <g transform="translate(465.810028 206.275938) scale(0.1 -0.1)">
       <defs>
        <path id="DejaVuSans-31" d="M 794 531 
L 1825 531 
L 1825 4091 
L 703 3866 
L 703 4441 
L 1819 4666 
L 2450 4666 
L 2450 531 
L 3481 531 
L 3481 0 
L 794 0 
L 794 531 
z
" transform="scale(0.015625)"/>
       </defs>
       <use xlink:href="#DejaVuSans-31"/>
       <use xlink:href="#DejaVuSans-2e" x="63.623047"/>
       <use xlink:href="#DejaVuSans-30" x="95.410156"/>
      </g>
     </g>
    </g>
    <g id="text_7">
     <!-- Predictions -->
     <g transform="translate(232.434531 222.993438) scale(0.14 -0.14)">
      <defs>
       <path id="DejaVuSans-50" d="M 1259 4147 
L 1259 2394 
L 2053 2394 
Q 2494 2394 2734 2622 
Q 2975 2850 2975 3272 
Q 2975 3691 2734 3919 
Q 2494 4147 2053 4147 
L 1259 4147 
z
M 628 4666 
L 2053 4666 
Q 2838 4666 3239 4311 
Q 3641 3956 3641 3272 
Q 3641 2581 3239 2228 
Q 2838 1875 2053 1875 
L 1259 1875 
L 1259 0 
L 628 0 
L 628 4666 
z
" transform="scale(0.015625)"/>
       <path id="DejaVuSans-72" d="M 2631 2963 
Q 2534 3019 2420 3045 
Q 2306 3072 2169 3072 
Q 1681 3072 1420 2755 
Q 1159 2438 1159 1844 
L 1159 0 
L 581 0 
L 581 3500 
L 1159 3500 
L 1159 2956 
Q 1341 3275 1631 3429 
Q 1922 3584 2338 3584 
Q 2397 3584 2469 3576 
Q 2541 3569 2628 3553 
L 2631 2963 
z
" transform="scale(0.015625)"/>
       <path id="DejaVuSans-65" d="M 3597 1894 
L 3597 1613 
L 953 1613 
Q 991 1019 1311 708 
Q 1631 397 2203 397 
Q 2534 397 2845 478 
Q 3156 559 3463 722 
L 3463 178 
Q 3153 47 2828 -22 
Q 2503 -91 2169 -91 
Q 1331 -91 842 396 
Q 353 884 353 1716 
Q 353 2575 817 3079 
Q 1281 3584 2069 3584 
Q 2775 3584 3186 3129 
Q 3597 2675 3597 1894 
z
M 3022 2063 
Q 3016 2534 2758 2815 
Q 2500 3097 2075 3097 
Q 1594 3097 1305 2825 
Q 1016 2553 972 2059 
L 3022 2063 
z
" transform="scale(0.015625)"/>
       <path id="DejaVuSans-64" d="M 2906 2969 
L 2906 4863 
L 3481 4863 
L 3481 0 
L 2906 0 
L 2906 525 
Q 2725 213 2448 61 
Q 2172 -91 1784 -91 
Q 1150 -91 751 415 
Q 353 922 353 1747 
Q 353 2572 751 3078 
Q 1150 3584 1784 3584 
Q 2172 3584 2448 3432 
Q 2725 3281 2906 2969 
z
M 947 1747 
Q 947 1113 1208 752 
Q 1469 391 1925 391 
Q 2381 391 2643 752 
Q 2906 1113 2906 1747 
Q 2906 2381 2643 2742 
Q 2381 3103 1925 3103 
Q 1469 3103 1208 2742 
Q 947 2381 947 1747 
z
" transform="scale(0.015625)"/>
       <path id="DejaVuSans-69" d="M 603 3500 
L 1178 3500 
L 1178 0 
L 603 0 
L 603 3500 
z
M 603 4863 
L 1178 4863 
L 1178 4134 
L 603 4134 
L 603 4863 
z
" transform="scale(0.015625)"/>
       <path id="DejaVuSans-63" d="M 3122 3366 
L 3122 2828 
Q 2878 2963 2633 3030 
Q 2388 3097 2138 3097 
Q 1578 3097 1268 2742 
Q 959 2388 959 1747 
Q 959 1106 1268 751 
Q 1578 397 2138 397 
Q 2388 397 2633 464 
Q 2878 531 3122 666 
L 3122 134 
Q 2881 22 2623 -34 
Q 2366 -91 2075 -91 
Q 1284 -91 818 406 
Q 353 903 353 1747 
Q 353 2603 823 3093 
Q 1294 3584 2113 3584 
Q 2378 3584 2631 3529 
Q 2884 3475 3122 3366 
z
" transform="scale(0.015625)"/>
       <path id="DejaVuSans-74" d="M 1172 4494 
L 1172 3500 
L 2356 3500 
L 2356 3053 
L 1172 3053 
L 1172 1153 
Q 1172 725 1289 603 
Q 1406 481 1766 481 
L 2356 481 
L 2356 0 
L 1766 0 
Q 1100 0 847 248 
Q 594 497 594 1153 
L 594 3053 
L 172 3053 
L 172 3500 
L 594 3500 
L 594 4494 
L 1172 4494 
z
" transform="scale(0.015625)"/>
       <path id="DejaVuSans-6f" d="M 1959 3097 
Q 1497 3097 1228 2736 
Q 959 2375 959 1747 
Q 959 1119 1226 758 
Q 1494 397 1959 397 
Q 2419 397 2687 759 
Q 2956 1122 2956 1747 
Q 2956 2369 2687 2733 
Q 2419 3097 1959 3097 
z
M 1959 3584 
Q 2709 3584 3137 3096 
Q 3566 2609 3566 1747 
Q 3566 888 3137 398 
Q 2709 -91 1959 -91 
Q 1206 -91 779 398 
Q 353 888 353 1747 
Q 353 2609 779 3096 
Q 1206 3584 1959 3584 
z
" transform="scale(0.015625)"/>
       <path id="DejaVuSans-6e" d="M 3513 2113 
L 3513 0 
L 2938 0 
L 2938 2094 
Q 2938 2591 2744 2837 
Q 2550 3084 2163 3084 
Q 1697 3084 1428 2787 
Q 1159 2491 1159 1978 
L 1159 0 
L 581 0 
L 581 3500 
L 1159 3500 
L 1159 2956 
Q 1366 3272 1645 3428 
Q 1925 3584 2291 3584 
Q 2894 3584 3203 3211 
Q 3513 2838 3513 2113 
z
" transform="scale(0.015625)"/>
       <path id="DejaVuSans-73" d="M 2834 3397 
L 2834 2853 
Q 2591 2978 2328 3040 
Q 2066 3103 1784 3103 
Q 1356 3103 1142 2972 
Q 928 2841 928 2578 
Q 928 2378 1081 2264 
Q 1234 2150 1697 2047 
L 1894 2003 
Q 2506 1872 2764 1633 
Q 3022 1394 3022 966 
Q 3022 478 2636 193 
Q 2250 -91 1575 -91 
Q 1294 -91 989 -36 
Q 684 19 347 128 
L 347 722 
Q 666 556 975 473 
Q 1284 391 1588 391 
Q 1994 391 2212 530 
Q 2431 669 2431 922 
Q 2431 1156 2273 1281 
Q 2116 1406 1581 1522 
L 1381 1569 
Q 847 1681 609 1914 
Q 372 2147 372 2553 
Q 372 3047 722 3315 
Q 1072 3584 1716 3584 
Q 2034 3584 2315 3537 
Q 2597 3491 2834 3397 
z
" transform="scale(0.015625)"/>
      </defs>
      <use xlink:href="#DejaVuSans-50"/>
      <use xlink:href="#DejaVuSans-72" x="58.552734"/>
      <use xlink:href="#DejaVuSans-65" x="97.416016"/>
      <use xlink:href="#DejaVuSans-64" x="158.939453"/>
      <use xlink:href="#DejaVuSans-69" x="222.416016"/>
      <use xlink:href="#DejaVuSans-63" x="250.199219"/>
      <use xlink:href="#DejaVuSans-74" x="305.179688"/>
      <use xlink:href="#DejaVuSans-69" x="344.388672"/>
      <use xlink:href="#DejaVuSans-6f" x="372.171875"/>
      <use xlink:href="#DejaVuSans-6e" x="433.353516"/>
      <use xlink:href="#DejaVuSans-73" x="496.732422"/>
     </g>
    </g>
   </g>
   <g id="matplotlib.axis_2">
    <g id="ytick_1">
     <g id="line2d_13">
      <path d="M 47.6525 174.930349 
L 494.0525 174.930349 
" clip-path="url(#pfddf8e202c)" style="fill: none; stroke: #b0b0b0; stroke-width: 0.8; stroke-linecap: square"/>
     </g>
     <g id="line2d_14">
      <defs>
       <path id="m66bb8a9ec2" d="M 0 0 
L -3.5 0 
" style="stroke: #000000; stroke-width: 0.8"/>
      </defs>
      <g>
       <use xlink:href="#m66bb8a9ec2" x="47.6525" y="174.930349" style="stroke: #000000; stroke-width: 0.8"/>
      </g>
     </g>
     <g id="text_8">
      <!-- 0.0 -->
      <g transform="translate(24.749375 178.729567) scale(0.1 -0.1)">
       <use xlink:href="#DejaVuSans-30"/>
       <use xlink:href="#DejaVuSans-2e" x="63.623047"/>
       <use xlink:href="#DejaVuSans-30" x="95.410156"/>
      </g>
     </g>
    </g>
    <g id="ytick_2">
     <g id="line2d_15">
      <path d="M 47.6525 146.527779 
L 494.0525 146.527779 
" clip-path="url(#pfddf8e202c)" style="fill: none; stroke: #b0b0b0; stroke-width: 0.8; stroke-linecap: square"/>
     </g>
     <g id="line2d_16">
      <g>
       <use xlink:href="#m66bb8a9ec2" x="47.6525" y="146.527779" style="stroke: #000000; stroke-width: 0.8"/>
      </g>
     </g>
     <g id="text_9">
      <!-- 0.2 -->
      <g transform="translate(24.749375 150.326998) scale(0.1 -0.1)">
       <use xlink:href="#DejaVuSans-30"/>
       <use xlink:href="#DejaVuSans-2e" x="63.623047"/>
       <use xlink:href="#DejaVuSans-32" x="95.410156"/>
      </g>
     </g>
    </g>
    <g id="ytick_3">
     <g id="line2d_17">
      <path d="M 47.6525 118.125209 
L 494.0525 118.125209 
" clip-path="url(#pfddf8e202c)" style="fill: none; stroke: #b0b0b0; stroke-width: 0.8; stroke-linecap: square"/>
     </g>
     <g id="line2d_18">
      <g>
       <use xlink:href="#m66bb8a9ec2" x="47.6525" y="118.125209" style="stroke: #000000; stroke-width: 0.8"/>
      </g>
     </g>
     <g id="text_10">
      <!-- 0.4 -->
      <g transform="translate(24.749375 121.924428) scale(0.1 -0.1)">
       <use xlink:href="#DejaVuSans-30"/>
       <use xlink:href="#DejaVuSans-2e" x="63.623047"/>
       <use xlink:href="#DejaVuSans-34" x="95.410156"/>
      </g>
     </g>
    </g>
    <g id="ytick_4">
     <g id="line2d_19">
      <path d="M 47.6525 89.722639 
L 494.0525 89.722639 
" clip-path="url(#pfddf8e202c)" style="fill: none; stroke: #b0b0b0; stroke-width: 0.8; stroke-linecap: square"/>
     </g>
     <g id="line2d_20">
      <g>
       <use xlink:href="#m66bb8a9ec2" x="47.6525" y="89.722639" style="stroke: #000000; stroke-width: 0.8"/>
      </g>
     </g>
     <g id="text_11">
      <!-- 0.6 -->
      <g transform="translate(24.749375 93.521858) scale(0.1 -0.1)">
       <use xlink:href="#DejaVuSans-30"/>
       <use xlink:href="#DejaVuSans-2e" x="63.623047"/>
       <use xlink:href="#DejaVuSans-36" x="95.410156"/>
      </g>
     </g>
    </g>
    <g id="ytick_5">
     <g id="line2d_21">
      <path d="M 47.6525 61.32007 
L 494.0525 61.32007 
" clip-path="url(#pfddf8e202c)" style="fill: none; stroke: #b0b0b0; stroke-width: 0.8; stroke-linecap: square"/>
     </g>
     <g id="line2d_22">
      <g>
       <use xlink:href="#m66bb8a9ec2" x="47.6525" y="61.32007" style="stroke: #000000; stroke-width: 0.8"/>
      </g>
     </g>
     <g id="text_12">
      <!-- 0.8 -->
      <g transform="translate(24.749375 65.119288) scale(0.1 -0.1)">
       <use xlink:href="#DejaVuSans-30"/>
       <use xlink:href="#DejaVuSans-2e" x="63.623047"/>
       <use xlink:href="#DejaVuSans-38" x="95.410156"/>
      </g>
     </g>
    </g>
    <g id="ytick_6">
     <g id="line2d_23">
      <path d="M 47.6525 32.9175 
L 494.0525 32.9175 
" clip-path="url(#pfddf8e202c)" style="fill: none; stroke: #b0b0b0; stroke-width: 0.8; stroke-linecap: square"/>
     </g>
     <g id="line2d_24">
      <g>
       <use xlink:href="#m66bb8a9ec2" x="47.6525" y="32.9175" style="stroke: #000000; stroke-width: 0.8"/>
      </g>
     </g>
     <g id="text_13">
      <!-- 1.0 -->
      <g transform="translate(24.749375 36.716719) scale(0.1 -0.1)">
       <use xlink:href="#DejaVuSans-31"/>
       <use xlink:href="#DejaVuSans-2e" x="63.623047"/>
       <use xlink:href="#DejaVuSans-30" x="95.410156"/>
      </g>
     </g>
    </g>
    <g id="text_14">
     <!-- Real -->
     <g transform="translate(17.837812 123.607969) rotate(-90) scale(0.14 -0.14)">
      <defs>
       <path id="DejaVuSans-52" d="M 2841 2188 
Q 3044 2119 3236 1894 
Q 3428 1669 3622 1275 
L 4263 0 
L 3584 0 
L 2988 1197 
Q 2756 1666 2539 1819 
Q 2322 1972 1947 1972 
L 1259 1972 
L 1259 0 
L 628 0 
L 628 4666 
L 2053 4666 
Q 2853 4666 3247 4331 
Q 3641 3997 3641 3322 
Q 3641 2881 3436 2590 
Q 3231 2300 2841 2188 
z
M 1259 4147 
L 1259 2491 
L 2053 2491 
Q 2509 2491 2742 2702 
Q 2975 2913 2975 3322 
Q 2975 3731 2742 3939 
Q 2509 4147 2053 4147 
L 1259 4147 
z
" transform="scale(0.015625)"/>
       <path id="DejaVuSans-61" d="M 2194 1759 
Q 1497 1759 1228 1600 
Q 959 1441 959 1056 
Q 959 750 1161 570 
Q 1363 391 1709 391 
Q 2188 391 2477 730 
Q 2766 1069 2766 1631 
L 2766 1759 
L 2194 1759 
z
M 3341 1997 
L 3341 0 
L 2766 0 
L 2766 531 
Q 2569 213 2275 61 
Q 1981 -91 1556 -91 
Q 1019 -91 701 211 
Q 384 513 384 1019 
Q 384 1609 779 1909 
Q 1175 2209 1959 2209 
L 2766 2209 
L 2766 2266 
Q 2766 2663 2505 2880 
Q 2244 3097 1772 3097 
Q 1472 3097 1187 3025 
Q 903 2953 641 2809 
L 641 3341 
Q 956 3463 1253 3523 
Q 1550 3584 1831 3584 
Q 2591 3584 2966 3190 
Q 3341 2797 3341 1997 
z
" transform="scale(0.015625)"/>
       <path id="DejaVuSans-6c" d="M 603 4863 
L 1178 4863 
L 1178 0 
L 603 0 
L 603 4863 
z
" transform="scale(0.015625)"/>
      </defs>
      <use xlink:href="#DejaVuSans-52"/>
      <use xlink:href="#DejaVuSans-65" x="64.982422"/>
      <use xlink:href="#DejaVuSans-61" x="126.505859"/>
      <use xlink:href="#DejaVuSans-6c" x="187.785156"/>
     </g>
    </g>
   </g>
   <g id="line2d_25">
    <path d="M 67.943409 174.930349 
L 473.761591 32.9175 
L 445.705831 42.73539 
" clip-path="url(#pfddf8e202c)" style="fill: none; stroke: #1f77b4; stroke-width: 1.5; stroke-linecap: square"/>
   </g>
   <g id="line2d_26">
    <path d="M 67.943409 184.1175 
" clip-path="url(#pfddf8e202c)" style="fill: none; stroke: #ff0000; stroke-width: 1.5; stroke-linecap: square"/>
   </g>
   <g id="patch_3">
    <path d="M 47.6525 191.6775 
L 47.6525 25.3575 
" style="fill: none; stroke: #000000; stroke-width: 0.8; stroke-linejoin: miter; stroke-linecap: square"/>
   </g>
   <g id="patch_4">
    <path d="M 494.0525 191.6775 
L 494.0525 25.3575 
" style="fill: none; stroke: #000000; stroke-width: 0.8; stroke-linejoin: miter; stroke-linecap: square"/>
   </g>
   <g id="patch_5">
    <path d="M 47.6525 191.6775 
L 494.0525 191.6775 
" style="fill: none; stroke: #000000; stroke-width: 0.8; stroke-linejoin: miter; stroke-linecap: square"/>
   </g>
   <g id="patch_6">
    <path d="M 47.6525 25.3575 
L 494.0525 25.3575 
" style="fill: none; stroke: #000000; stroke-width: 0.8; stroke-linejoin: miter; stroke-linecap: square"/>
   </g>
   <g id="text_15">
    <!-- Moisture Content -->
    <g transform="translate(202.06875 19.3575) scale(0.16 -0.16)">
     <defs>
      <path id="DejaVuSans-4d" d="M 628 4666 
L 1569 4666 
L 2759 1491 
L 3956 4666 
L 4897 4666 
L 4897 0 
L 4281 0 
L 4281 4097 
L 3078 897 
L 2444 897 
L 1241 4097 
L 1241 0 
L 628 0 
L 628 4666 
z
" transform="scale(0.015625)"/>
      <path id="DejaVuSans-75" d="M 544 1381 
L 544 3500 
L 1119 3500 
L 1119 1403 
Q 1119 906 1312 657 
Q 1506 409 1894 409 
Q 2359 409 2629 706 
Q 2900 1003 2900 1516 
L 2900 3500 
L 3475 3500 
L 3475 0 
L 2900 0 
L 2900 538 
Q 2691 219 2414 64 
Q 2138 -91 1772 -91 
Q 1169 -91 856 284 
Q 544 659 544 1381 
z
M 1991 3584 
L 1991 3584 
z
" transform="scale(0.015625)"/>
      <path id="DejaVuSans-20" transform="scale(0.015625)"/>
      <path id="DejaVuSans-43" d="M 4122 4306 
L 4122 3641 
Q 3803 3938 3442 4084 
Q 3081 4231 2675 4231 
Q 1875 4231 1450 3742 
Q 1025 3253 1025 2328 
Q 1025 1406 1450 917 
Q 1875 428 2675 428 
Q 3081 428 3442 575 
Q 3803 722 4122 1019 
L 4122 359 
Q 3791 134 3420 21 
Q 3050 -91 2638 -91 
Q 1578 -91 968 557 
Q 359 1206 359 2328 
Q 359 3453 968 4101 
Q 1578 4750 2638 4750 
Q 3056 4750 3426 4639 
Q 3797 4528 4122 4306 
z
" transform="scale(0.015625)"/>
     </defs>
     <use xlink:href="#DejaVuSans-4d"/>
     <use xlink:href="#DejaVuSans-6f" x="86.279297"/>
     <use xlink:href="#DejaVuSans-69" x="147.460938"/>
     <use xlink:href="#DejaVuSans-73" x="175.244141"/>
     <use xlink:href="#DejaVuSans-74" x="227.34375"/>
     <use xlink:href="#DejaVuSans-75" x="266.552734"/>
     <use xlink:href="#DejaVuSans-72" x="329.931641"/>
     <use xlink:href="#DejaVuSans-65" x="368.794922"/>
     <use xlink:href="#DejaVuSans-20" x="430.318359"/>
     <use xlink:href="#DejaVuSans-43" x="462.105469"/>
     <use xlink:href="#DejaVuSans-6f" x="531.929688"/>
     <use xlink:href="#DejaVuSans-6e" x="593.111328"/>
     <use xlink:href="#DejaVuSans-74" x="656.490234"/>
     <use xlink:href="#DejaVuSans-65" x="695.699219"/>
     <use xlink:href="#DejaVuSans-6e" x="757.222656"/>
     <use xlink:href="#DejaVuSans-74" x="820.601562"/>
    </g>
   </g>
   <g id="legend_1">
    <g id="patch_7">
     <path d="M 54.6525 62.71375 
L 124.407188 62.71375 
Q 126.407188 62.71375 126.407188 60.71375 
L 126.407188 32.3575 
Q 126.407188 30.3575 124.407188 30.3575 
L 54.6525 30.3575 
Q 52.6525 30.3575 52.6525 32.3575 
L 52.6525 60.71375 
Q 52.6525 62.71375 54.6525 62.71375 
z
" style="fill: #ffffff; opacity: 0.8; stroke: #cccccc; stroke-linejoin: miter"/>
    </g>
    <g id="line2d_27">
     <path d="M 56.6525 38.455938 
L 66.6525 38.455938 
L 76.6525 38.455938 
" style="fill: none; stroke: #1f77b4; stroke-width: 1.5; stroke-linecap: square"/>
    </g>
    <g id="text_16">
     <!-- Ideal fit -->
     <g transform="translate(84.6525 41.955938) scale(0.1 -0.1)">
      <defs>
       <path id="DejaVuSans-49" d="M 628 4666 
L 1259 4666 
L 1259 0 
L 628 0 
L 628 4666 
z
" transform="scale(0.015625)"/>
       <path id="DejaVuSans-66" d="M 2375 4863 
L 2375 4384 
L 1825 4384 
Q 1516 4384 1395 4259 
Q 1275 4134 1275 3809 
L 1275 3500 
L 2222 3500 
L 2222 3053 
L 1275 3053 
L 1275 0 
L 697 0 
L 697 3053 
L 147 3053 
L 147 3500 
L 697 3500 
L 697 3744 
Q 697 4328 969 4595 
Q 1241 4863 1831 4863 
L 2375 4863 
z
" transform="scale(0.015625)"/>
      </defs>
      <use xlink:href="#DejaVuSans-49"/>
      <use xlink:href="#DejaVuSans-64" x="29.492188"/>
      <use xlink:href="#DejaVuSans-65" x="92.96875"/>
      <use xlink:href="#DejaVuSans-61" x="154.492188"/>
      <use xlink:href="#DejaVuSans-6c" x="215.771484"/>
      <use xlink:href="#DejaVuSans-20" x="243.554688"/>
      <use xlink:href="#DejaVuSans-66" x="275.341797"/>
      <use xlink:href="#DejaVuSans-69" x="310.546875"/>
      <use xlink:href="#DejaVuSans-74" x="338.330078"/>
     </g>
    </g>
    <g id="line2d_28">
     <path d="M 56.6525 53.134063 
L 66.6525 53.134063 
L 76.6525 53.134063 
" style="fill: none; stroke: #ff0000; stroke-width: 1.5; stroke-linecap: square"/>
    </g>
    <g id="text_17">
     <!-- Best fit -->
     <g transform="translate(84.6525 56.634063) scale(0.1 -0.1)">
      <defs>
       <path id="DejaVuSans-42" d="M 1259 2228 
L 1259 519 
L 2272 519 
Q 2781 519 3026 730 
Q 3272 941 3272 1375 
Q 3272 1813 3026 2020 
Q 2781 2228 2272 2228 
L 1259 2228 
z
M 1259 4147 
L 1259 2741 
L 2194 2741 
Q 2656 2741 2882 2914 
Q 3109 3088 3109 3444 
Q 3109 3797 2882 3972 
Q 2656 4147 2194 4147 
L 1259 4147 
z
M 628 4666 
L 2241 4666 
Q 2963 4666 3353 4366 
Q 3744 4066 3744 3513 
Q 3744 3084 3544 2831 
Q 3344 2578 2956 2516 
Q 3422 2416 3680 2098 
Q 3938 1781 3938 1306 
Q 3938 681 3513 340 
Q 3088 0 2303 0 
L 628 0 
L 628 4666 
z
" transform="scale(0.015625)"/>
      </defs>
      <use xlink:href="#DejaVuSans-42"/>
      <use xlink:href="#DejaVuSans-65" x="68.603516"/>
      <use xlink:href="#DejaVuSans-73" x="130.126953"/>
      <use xlink:href="#DejaVuSans-74" x="182.226562"/>
      <use xlink:href="#DejaVuSans-20" x="221.435547"/>
      <use xlink:href="#DejaVuSans-66" x="253.222656"/>
      <use xlink:href="#DejaVuSans-69" x="288.427734"/>
      <use xlink:href="#DejaVuSans-74" x="316.210938"/>
     </g>
    </g>
   </g>
  </g>
 </g>
 <defs>
  <clipPath id="pfddf8e202c">
   <rect x="47.6525" y="25.3575" width="446.4" height="166.32"/>
  </clipPath>
 </defs>
</svg>
