<?xml version="1.0" encoding="utf-8" standalone="no"?>
<!DOCTYPE svg PUBLIC "-//W3C//DTD SVG 1.1//EN"
  "http://www.w3.org/Graphics/SVG/1.1/DTD/svg11.dtd">
<!-- Created with matplotlib (https://matplotlib.org/) -->
<svg height="233.105pt" version="1.1" viewBox="0 0 498.074375 233.105" width="498.074375pt" xmlns="http://www.w3.org/2000/svg" xmlns:xlink="http://www.w3.org/1999/xlink">
 <defs>
  <style type="text/css">
*{stroke-linecap:butt;stroke-linejoin:round;}
  </style>
 </defs>
 <g id="figure_1">
  <g id="patch_1">
   <path d="M 0 233.105 
L 498.074375 233.105 
L 498.074375 0 
L 0 0 
z
" style="fill:none;"/>
  </g>
  <g id="axes_1">
   <g id="patch_2">
    <path d="M 44.474375 191.6775 
L 490.874375 191.6775 
L 490.874375 25.3575 
L 44.474375 25.3575 
z
" style="fill:none;"/>
   </g>
   <g id="PathCollection_1">
    <defs>
     <path d="M 0 3 
C 0.795609 3 1.55874 2.683901 2.12132 2.12132 
C 2.683901 1.55874 3 0.795609 3 0 
C 3 -0.795609 2.683901 -1.55874 2.12132 -2.12132 
C 1.55874 -2.683901 0.795609 -3 0 -3 
C -0.795609 -3 -1.55874 -2.683901 -2.12132 -2.12132 
C -2.683901 -1.55874 -3 -0.795609 -3 0 
C -3 0.795609 -2.683901 1.55874 -2.12132 2.12132 
C -1.55874 2.683901 -0.795609 3 0 3 
z
" id="mffd439fc6c" style="stroke:#1f77b4;"/>
    </defs>
    <g clip-path="url(#paf061dd3b6)">
     <use style="fill:#1f77b4;stroke:#1f77b4;" x="218.36157" xlink:href="#mffd439fc6c" y="125.309106"/>
     <use style="fill:#1f77b4;stroke:#1f77b4;" x="220.924365" xlink:href="#mffd439fc6c" y="125.22455"/>
     <use style="fill:#1f77b4;stroke:#1f77b4;" x="217.368399" xlink:href="#mffd439fc6c" y="125.309106"/>
     <use style="fill:#1f77b4;stroke:#1f77b4;" x="351.832985" xlink:href="#mffd439fc6c" y="71.362656"/>
     <use style="fill:#1f77b4;stroke:#1f77b4;" x="331.138477" xlink:href="#mffd439fc6c" y="85.906213"/>
     <use style="fill:#1f77b4;stroke:#1f77b4;" x="228.256737" xlink:href="#mffd439fc6c" y="124.928606"/>
     <use style="fill:#1f77b4;stroke:#1f77b4;" x="214.942338" xlink:href="#mffd439fc6c" y="125.266828"/>
     <use style="fill:#1f77b4;stroke:#1f77b4;" x="205.692766" xlink:href="#mffd439fc6c" y="128.775884"/>
     <use style="fill:#1f77b4;stroke:#1f77b4;" x="333.249076" xlink:href="#mffd439fc6c" y="88.696547"/>
     <use style="fill:#1f77b4;stroke:#1f77b4;" x="242.995381" xlink:href="#mffd439fc6c" y="116.642161"/>
     <use style="fill:#1f77b4;stroke:#1f77b4;" x="205.340311" xlink:href="#mffd439fc6c" y="133.595551"/>
     <use style="fill:#1f77b4;stroke:#1f77b4;" x="389.809673" xlink:href="#mffd439fc6c" y="53.648266"/>
     <use style="fill:#1f77b4;stroke:#1f77b4;" x="301.967507" xlink:href="#mffd439fc6c" y="96.771603"/>
     <use style="fill:#1f77b4;stroke:#1f77b4;" x="391.922394" xlink:href="#mffd439fc6c" y="71.362656"/>
     <use style="fill:#1f77b4;stroke:#1f77b4;" x="248.950466" xlink:href="#mffd439fc6c" y="113.894105"/>
     <use style="fill:#1f77b4;stroke:#1f77b4;" x="154.63065" xlink:href="#mffd439fc6c" y="150.041608"/>
     <use style="fill:#1f77b4;stroke:#1f77b4;" x="427.422198" xlink:href="#mffd439fc6c" y="56.903655"/>
     <use style="fill:#1f77b4;stroke:#1f77b4;" x="180.416899" xlink:href="#mffd439fc6c" y="136.597273"/>
     <use style="fill:#1f77b4;stroke:#1f77b4;" x="344.896599" xlink:href="#mffd439fc6c" y="85.610269"/>
     <use style="fill:#1f77b4;stroke:#1f77b4;" x="233.330726" xlink:href="#mffd439fc6c" y="124.928606"/>
     <use style="fill:#1f77b4;stroke:#1f77b4;" x="295.965657" xlink:href="#mffd439fc6c" y="96.771603"/>
     <use style="fill:#1f77b4;stroke:#1f77b4;" x="393.962598" xlink:href="#mffd439fc6c" y="63.541267"/>
     <use style="fill:#1f77b4;stroke:#1f77b4;" x="374.760382" xlink:href="#mffd439fc6c" y="67.008045"/>
     <use style="fill:#1f77b4;stroke:#1f77b4;" x="153.252125" xlink:href="#mffd439fc6c" y="149.491997"/>
     <use style="fill:#1f77b4;stroke:#1f77b4;" x="212.998347" xlink:href="#mffd439fc6c" y="124.928606"/>
     <use style="fill:#1f77b4;stroke:#1f77b4;" x="256.229808" xlink:href="#mffd439fc6c" y="110.004549"/>
     <use style="fill:#1f77b4;stroke:#1f77b4;" x="187.384285" xlink:href="#mffd439fc6c" y="137.781051"/>
     <use style="fill:#1f77b4;stroke:#1f77b4;" x="243.935251" xlink:href="#mffd439fc6c" y="116.642161"/>
     <use style="fill:#1f77b4;stroke:#1f77b4;" x="277.02635" xlink:href="#mffd439fc6c" y="107.467882"/>
     <use style="fill:#1f77b4;stroke:#1f77b4;" x="278.424573" xlink:href="#mffd439fc6c" y="107.467882"/>
     <use style="fill:#1f77b4;stroke:#1f77b4;" x="269.561032" xlink:href="#mffd439fc6c" y="107.467882"/>
     <use style="fill:#1f77b4;stroke:#1f77b4;" x="379.626074" xlink:href="#mffd439fc6c" y="63.541267"/>
     <use style="fill:#1f77b4;stroke:#1f77b4;" x="389.45936" xlink:href="#mffd439fc6c" y="42.275543"/>
     <use style="fill:#1f77b4;stroke:#1f77b4;" x="333.083507" xlink:href="#mffd439fc6c" y="88.696547"/>
     <use style="fill:#1f77b4;stroke:#1f77b4;" x="179.485511" xlink:href="#mffd439fc6c" y="137.696496"/>
     <use style="fill:#1f77b4;stroke:#1f77b4;" x="387.941877" xlink:href="#mffd439fc6c" y="67.008045"/>
     <use style="fill:#1f77b4;stroke:#1f77b4;" x="296.385306" xlink:href="#mffd439fc6c" y="96.771603"/>
     <use style="fill:#1f77b4;stroke:#1f77b4;" x="211.690818" xlink:href="#mffd439fc6c" y="125.309106"/>
     <use style="fill:#1f77b4;stroke:#1f77b4;" x="152.406044" xlink:href="#mffd439fc6c" y="149.491997"/>
     <use style="fill:#1f77b4;stroke:#1f77b4;" x="417.529747" xlink:href="#mffd439fc6c" y="57.918322"/>
     <use style="fill:#1f77b4;stroke:#1f77b4;" x="434.694095" xlink:href="#mffd439fc6c" y="63.541267"/>
     <use style="fill:#1f77b4;stroke:#1f77b4;" x="343.472256" xlink:href="#mffd439fc6c" y="84.299658"/>
     <use style="fill:#1f77b4;stroke:#1f77b4;" x="327.945018" xlink:href="#mffd439fc6c" y="93.22027"/>
     <use style="fill:#1f77b4;stroke:#1f77b4;" x="265.790123" xlink:href="#mffd439fc6c" y="107.467882"/>
     <use style="fill:#1f77b4;stroke:#1f77b4;" x="164.158965" xlink:href="#mffd439fc6c" y="144.080441"/>
     <use style="fill:#1f77b4;stroke:#1f77b4;" x="389.680827" xlink:href="#mffd439fc6c" y="63.541267"/>
     <use style="fill:#1f77b4;stroke:#1f77b4;" x="344.158405" xlink:href="#mffd439fc6c" y="88.696547"/>
     <use style="fill:#1f77b4;stroke:#1f77b4;" x="147.474409" xlink:href="#mffd439fc6c" y="149.491997"/>
     <use style="fill:#1f77b4;stroke:#1f77b4;" x="397.395549" xlink:href="#mffd439fc6c" y="57.918322"/>
     <use style="fill:#1f77b4;stroke:#1f77b4;" x="181.466875" xlink:href="#mffd439fc6c" y="141.416941"/>
     <use style="fill:#1f77b4;stroke:#1f77b4;" x="237.985273" xlink:href="#mffd439fc6c" y="120.489439"/>
     <use style="fill:#1f77b4;stroke:#1f77b4;" x="187.235908" xlink:href="#mffd439fc6c" y="137.696496"/>
     <use style="fill:#1f77b4;stroke:#1f77b4;" x="388.939279" xlink:href="#mffd439fc6c" y="50.604266"/>
     <use style="fill:#1f77b4;stroke:#1f77b4;" x="251.444554" xlink:href="#mffd439fc6c" y="114.485994"/>
     <use style="fill:#1f77b4;stroke:#1f77b4;" x="470.528567" xlink:href="#mffd439fc6c" y="42.275543"/>
     <use style="fill:#1f77b4;stroke:#1f77b4;" x="225.920948" xlink:href="#mffd439fc6c" y="122.265106"/>
     <use style="fill:#1f77b4;stroke:#1f77b4;" x="149.886929" xlink:href="#mffd439fc6c" y="149.491997"/>
     <use style="fill:#1f77b4;stroke:#1f77b4;" x="383.586681" xlink:href="#mffd439fc6c" y="69.164212"/>
     <use style="fill:#1f77b4;stroke:#1f77b4;" x="386.050494" xlink:href="#mffd439fc6c" y="57.918322"/>
     <use style="fill:#1f77b4;stroke:#1f77b4;" x="156.354413" xlink:href="#mffd439fc6c" y="150.041608"/>
     <use style="fill:#1f77b4;stroke:#1f77b4;" x="398.445645" xlink:href="#mffd439fc6c" y="67.008045"/>
     <use style="fill:#1f77b4;stroke:#1f77b4;" x="152.582006" xlink:href="#mffd439fc6c" y="149.491997"/>
     <use style="fill:#1f77b4;stroke:#1f77b4;" x="422.239671" xlink:href="#mffd439fc6c" y="52.04171"/>
     <use style="fill:#1f77b4;stroke:#1f77b4;" x="185.563373" xlink:href="#mffd439fc6c" y="136.597273"/>
     <use style="fill:#1f77b4;stroke:#1f77b4;" x="454.179798" xlink:href="#mffd439fc6c" y="45.826876"/>
     <use style="fill:#1f77b4;stroke:#1f77b4;" x="229.172803" xlink:href="#mffd439fc6c" y="119.812994"/>
     <use style="fill:#1f77b4;stroke:#1f77b4;" x="442.831799" xlink:href="#mffd439fc6c" y="42.275543"/>
     <use style="fill:#1f77b4;stroke:#1f77b4;" x="432.562829" xlink:href="#mffd439fc6c" y="53.648266"/>
     <use style="fill:#1f77b4;stroke:#1f77b4;" x="466.101611" xlink:href="#mffd439fc6c" y="42.275543"/>
     <use style="fill:#1f77b4;stroke:#1f77b4;" x="256.322125" xlink:href="#mffd439fc6c" y="114.485994"/>
     <use style="fill:#1f77b4;stroke:#1f77b4;" x="278.180124" xlink:href="#mffd439fc6c" y="103.155548"/>
     <use style="fill:#1f77b4;stroke:#1f77b4;" x="264.149442" xlink:href="#mffd439fc6c" y="110.004549"/>
     <use style="fill:#1f77b4;stroke:#1f77b4;" x="323.026892" xlink:href="#mffd439fc6c" y="84.299658"/>
     <use style="fill:#1f77b4;stroke:#1f77b4;" x="325.164759" xlink:href="#mffd439fc6c" y="85.906213"/>
     <use style="fill:#1f77b4;stroke:#1f77b4;" x="345.91629" xlink:href="#mffd439fc6c" y="81.424768"/>
     <use style="fill:#1f77b4;stroke:#1f77b4;" x="272.943994" xlink:href="#mffd439fc6c" y="103.451493"/>
     <use style="fill:#1f77b4;stroke:#1f77b4;" x="308.171694" xlink:href="#mffd439fc6c" y="94.784547"/>
     <use style="fill:#1f77b4;stroke:#1f77b4;" x="210.607624" xlink:href="#mffd439fc6c" y="125.266828"/>
     <use style="fill:#1f77b4;stroke:#1f77b4;" x="182.257222" xlink:href="#mffd439fc6c" y="141.416941"/>
     <use style="fill:#1f77b4;stroke:#1f77b4;" x="349.328597" xlink:href="#mffd439fc6c" y="88.696547"/>
     <use style="fill:#1f77b4;stroke:#1f77b4;" x="186.754303" xlink:href="#mffd439fc6c" y="136.597273"/>
     <use style="fill:#1f77b4;stroke:#1f77b4;" x="181.329048" xlink:href="#mffd439fc6c" y="137.781051"/>
     <use style="fill:#1f77b4;stroke:#1f77b4;" x="288.088481" xlink:href="#mffd439fc6c" y="107.467882"/>
     <use style="fill:#1f77b4;stroke:#1f77b4;" x="214.75502" xlink:href="#mffd439fc6c" y="125.266828"/>
     <use style="fill:#1f77b4;stroke:#1f77b4;" x="420.053698" xlink:href="#mffd439fc6c" y="53.648266"/>
     <use style="fill:#1f77b4;stroke:#1f77b4;" x="392.989304" xlink:href="#mffd439fc6c" y="72.292768"/>
     <use style="fill:#1f77b4;stroke:#1f77b4;" x="211.832" xlink:href="#mffd439fc6c" y="125.309106"/>
     <use style="fill:#1f77b4;stroke:#1f77b4;" x="277.352686" xlink:href="#mffd439fc6c" y="105.565382"/>
     <use style="fill:#1f77b4;stroke:#1f77b4;" x="185.295574" xlink:href="#mffd439fc6c" y="136.597273"/>
     <use style="fill:#1f77b4;stroke:#1f77b4;" x="235.10601" xlink:href="#mffd439fc6c" y="119.812994"/>
     <use style="fill:#1f77b4;stroke:#1f77b4;" x="200.631512" xlink:href="#mffd439fc6c" y="133.595551"/>
     <use style="fill:#1f77b4;stroke:#1f77b4;" x="407.384516" xlink:href="#mffd439fc6c" y="63.541267"/>
     <use style="fill:#1f77b4;stroke:#1f77b4;" x="276.234661" xlink:href="#mffd439fc6c" y="107.467882"/>
     <use style="fill:#1f77b4;stroke:#1f77b4;" x="232.366424" xlink:href="#mffd439fc6c" y="122.265106"/>
     <use style="fill:#1f77b4;stroke:#1f77b4;" x="147.935694" xlink:href="#mffd439fc6c" y="149.491997"/>
     <use style="fill:#1f77b4;stroke:#1f77b4;" x="380.576039" xlink:href="#mffd439fc6c" y="69.164212"/>
     <use style="fill:#1f77b4;stroke:#1f77b4;" x="404.239142" xlink:href="#mffd439fc6c" y="71.362656"/>
     <use style="fill:#1f77b4;stroke:#1f77b4;" x="394.627085" xlink:href="#mffd439fc6c" y="69.164212"/>
     <use style="fill:#1f77b4;stroke:#1f77b4;" x="348.107045" xlink:href="#mffd439fc6c" y="84.299658"/>
     <use style="fill:#1f77b4;stroke:#1f77b4;" x="266.921132" xlink:href="#mffd439fc6c" y="103.451493"/>
     <use style="fill:#1f77b4;stroke:#1f77b4;" x="281.835776" xlink:href="#mffd439fc6c" y="101.253048"/>
     <use style="fill:#1f77b4;stroke:#1f77b4;" x="277.509426" xlink:href="#mffd439fc6c" y="103.155548"/>
     <use style="fill:#1f77b4;stroke:#1f77b4;" x="152.793373" xlink:href="#mffd439fc6c" y="150.041608"/>
     <use style="fill:#1f77b4;stroke:#1f77b4;" x="404.619622" xlink:href="#mffd439fc6c" y="72.292768"/>
     <use style="fill:#1f77b4;stroke:#1f77b4;" x="331.90134" xlink:href="#mffd439fc6c" y="88.696547"/>
     <use style="fill:#1f77b4;stroke:#1f77b4;" x="278.046495" xlink:href="#mffd439fc6c" y="103.451493"/>
     <use style="fill:#1f77b4;stroke:#1f77b4;" x="409.265209" xlink:href="#mffd439fc6c" y="38.681931"/>
     <use style="fill:#1f77b4;stroke:#1f77b4;" x="241.498943" xlink:href="#mffd439fc6c" y="120.489439"/>
     <use style="fill:#1f77b4;stroke:#1f77b4;" x="192.079007" xlink:href="#mffd439fc6c" y="133.595551"/>
     <use style="fill:#1f77b4;stroke:#1f77b4;" x="181.394705" xlink:href="#mffd439fc6c" y="137.781051"/>
     <use style="fill:#1f77b4;stroke:#1f77b4;" x="220.42652" xlink:href="#mffd439fc6c" y="125.22455"/>
     <use style="fill:#1f77b4;stroke:#1f77b4;" x="376.343976" xlink:href="#mffd439fc6c" y="75.209935"/>
     <use style="fill:#1f77b4;stroke:#1f77b4;" x="385.40135" xlink:href="#mffd439fc6c" y="72.292768"/>
     <use style="fill:#1f77b4;stroke:#1f77b4;" x="304.369061" xlink:href="#mffd439fc6c" y="98.335881"/>
     <use style="fill:#1f77b4;stroke:#1f77b4;" x="237.049817" xlink:href="#mffd439fc6c" y="116.642161"/>
     <use style="fill:#1f77b4;stroke:#1f77b4;" x="182.402353" xlink:href="#mffd439fc6c" y="141.416941"/>
     <use style="fill:#1f77b4;stroke:#1f77b4;" x="438.829946" xlink:href="#mffd439fc6c" y="56.903655"/>
     <use style="fill:#1f77b4;stroke:#1f77b4;" x="429.108518" xlink:href="#mffd439fc6c" y="50.604266"/>
     <use style="fill:#1f77b4;stroke:#1f77b4;" x="221.816584" xlink:href="#mffd439fc6c" y="125.309106"/>
     <use style="fill:#1f77b4;stroke:#1f77b4;" x="386.441664" xlink:href="#mffd439fc6c" y="56.903655"/>
     <use style="fill:#1f77b4;stroke:#1f77b4;" x="184.72401" xlink:href="#mffd439fc6c" y="136.597273"/>
     <use style="fill:#1f77b4;stroke:#1f77b4;" x="183.317737" xlink:href="#mffd439fc6c" y="133.595551"/>
     <use style="fill:#1f77b4;stroke:#1f77b4;" x="349.870751" xlink:href="#mffd439fc6c" y="68.868267"/>
     <use style="fill:#1f77b4;stroke:#1f77b4;" x="204.96193" xlink:href="#mffd439fc6c" y="133.595551"/>
     <use style="fill:#1f77b4;stroke:#1f77b4;" x="292.652787" xlink:href="#mffd439fc6c" y="103.155548"/>
     <use style="fill:#1f77b4;stroke:#1f77b4;" x="183.870593" xlink:href="#mffd439fc6c" y="141.416941"/>
     <use style="fill:#1f77b4;stroke:#1f77b4;" x="393.863117" xlink:href="#mffd439fc6c" y="69.164212"/>
     <use style="fill:#1f77b4;stroke:#1f77b4;" x="153.059029" xlink:href="#mffd439fc6c" y="150.041608"/>
     <use style="fill:#1f77b4;stroke:#1f77b4;" x="274.018587" xlink:href="#mffd439fc6c" y="103.451493"/>
     <use style="fill:#1f77b4;stroke:#1f77b4;" x="275.933017" xlink:href="#mffd439fc6c" y="107.467882"/>
     <use style="fill:#1f77b4;stroke:#1f77b4;" x="372.770817" xlink:href="#mffd439fc6c" y="63.541267"/>
     <use style="fill:#1f77b4;stroke:#1f77b4;" x="383.738293" xlink:href="#mffd439fc6c" y="76.605101"/>
     <use style="fill:#1f77b4;stroke:#1f77b4;" x="282.526448" xlink:href="#mffd439fc6c" y="103.155548"/>
     <use style="fill:#1f77b4;stroke:#1f77b4;" x="211.171365" xlink:href="#mffd439fc6c" y="125.266828"/>
     <use style="fill:#1f77b4;stroke:#1f77b4;" x="199.648436" xlink:href="#mffd439fc6c" y="133.595551"/>
     <use style="fill:#1f77b4;stroke:#1f77b4;" x="360.797262" xlink:href="#mffd439fc6c" y="72.292768"/>
     <use style="fill:#1f77b4;stroke:#1f77b4;" x="383.399817" xlink:href="#mffd439fc6c" y="75.209935"/>
     <use style="fill:#1f77b4;stroke:#1f77b4;" x="185.985001" xlink:href="#mffd439fc6c" y="137.696496"/>
     <use style="fill:#1f77b4;stroke:#1f77b4;" x="186.626344" xlink:href="#mffd439fc6c" y="137.696496"/>
     <use style="fill:#1f77b4;stroke:#1f77b4;" x="408.470794" xlink:href="#mffd439fc6c" y="45.826876"/>
     <use style="fill:#1f77b4;stroke:#1f77b4;" x="349.583498" xlink:href="#mffd439fc6c" y="81.424768"/>
     <use style="fill:#1f77b4;stroke:#1f77b4;" x="217.297365" xlink:href="#mffd439fc6c" y="125.266828"/>
     <use style="fill:#1f77b4;stroke:#1f77b4;" x="236.468256" xlink:href="#mffd439fc6c" y="124.928606"/>
     <use style="fill:#1f77b4;stroke:#1f77b4;" x="253.049095" xlink:href="#mffd439fc6c" y="114.485994"/>
     <use style="fill:#1f77b4;stroke:#1f77b4;" x="290.093043" xlink:href="#mffd439fc6c" y="101.253048"/>
     <use style="fill:#1f77b4;stroke:#1f77b4;" x="346.200859" xlink:href="#mffd439fc6c" y="85.610269"/>
     <use style="fill:#1f77b4;stroke:#1f77b4;" x="185.231627" xlink:href="#mffd439fc6c" y="137.696496"/>
     <use style="fill:#1f77b4;stroke:#1f77b4;" x="380.865933" xlink:href="#mffd439fc6c" y="63.541267"/>
     <use style="fill:#1f77b4;stroke:#1f77b4;" x="268.54595" xlink:href="#mffd439fc6c" y="103.451493"/>
     <use style="fill:#1f77b4;stroke:#1f77b4;" x="151.191861" xlink:href="#mffd439fc6c" y="149.491997"/>
     <use style="fill:#1f77b4;stroke:#1f77b4;" x="356.657256" xlink:href="#mffd439fc6c" y="68.868267"/>
     <use style="fill:#1f77b4;stroke:#1f77b4;" x="208.165993" xlink:href="#mffd439fc6c" y="128.775884"/>
     <use style="fill:#1f77b4;stroke:#1f77b4;" x="455.125263" xlink:href="#mffd439fc6c" y="42.275543"/>
     <use style="fill:#1f77b4;stroke:#1f77b4;" x="433.385896" xlink:href="#mffd439fc6c" y="50.604266"/>
     <use style="fill:#1f77b4;stroke:#1f77b4;" x="170.13951" xlink:href="#mffd439fc6c" y="144.080441"/>
     <use style="fill:#1f77b4;stroke:#1f77b4;" x="176.566127" xlink:href="#mffd439fc6c" y="141.416941"/>
     <use style="fill:#1f77b4;stroke:#1f77b4;" x="332.607745" xlink:href="#mffd439fc6c" y="85.610269"/>
     <use style="fill:#1f77b4;stroke:#1f77b4;" x="239.614723" xlink:href="#mffd439fc6c" y="116.642161"/>
     <use style="fill:#1f77b4;stroke:#1f77b4;" x="183.800359" xlink:href="#mffd439fc6c" y="137.781051"/>
     <use style="fill:#1f77b4;stroke:#1f77b4;" x="343.982383" xlink:href="#mffd439fc6c" y="81.424768"/>
     <use style="fill:#1f77b4;stroke:#1f77b4;" x="196.176922" xlink:href="#mffd439fc6c" y="133.595551"/>
     <use style="fill:#1f77b4;stroke:#1f77b4;" x="224.688793" xlink:href="#mffd439fc6c" y="125.22455"/>
     <use style="fill:#1f77b4;stroke:#1f77b4;" x="338.482977" xlink:href="#mffd439fc6c" y="85.906213"/>
     <use style="fill:#1f77b4;stroke:#1f77b4;" x="165.740341" xlink:href="#mffd439fc6c" y="144.080441"/>
     <use style="fill:#1f77b4;stroke:#1f77b4;" x="205.457515" xlink:href="#mffd439fc6c" y="125.309106"/>
     <use style="fill:#1f77b4;stroke:#1f77b4;" x="393.520486" xlink:href="#mffd439fc6c" y="63.541267"/>
     <use style="fill:#1f77b4;stroke:#1f77b4;" x="148.196243" xlink:href="#mffd439fc6c" y="149.491997"/>
     <use style="fill:#1f77b4;stroke:#1f77b4;" x="183.038361" xlink:href="#mffd439fc6c" y="137.696496"/>
     <use style="fill:#1f77b4;stroke:#1f77b4;" x="290.193735" xlink:href="#mffd439fc6c" y="103.155548"/>
     <use style="fill:#1f77b4;stroke:#1f77b4;" x="186.846383" xlink:href="#mffd439fc6c" y="137.696496"/>
     <use style="fill:#1f77b4;stroke:#1f77b4;" x="152.588958" xlink:href="#mffd439fc6c" y="150.041608"/>
     <use style="fill:#1f77b4;stroke:#1f77b4;" x="265.702026" xlink:href="#mffd439fc6c" y="105.565382"/>
     <use style="fill:#1f77b4;stroke:#1f77b4;" x="193.321711" xlink:href="#mffd439fc6c" y="133.595551"/>
     <use style="fill:#1f77b4;stroke:#1f77b4;" x="358.828363" xlink:href="#mffd439fc6c" y="81.805269"/>
     <use style="fill:#1f77b4;stroke:#1f77b4;" x="184.609869" xlink:href="#mffd439fc6c" y="136.597273"/>
     <use style="fill:#1f77b4;stroke:#1f77b4;" x="316.645666" xlink:href="#mffd439fc6c" y="93.22027"/>
     <use style="fill:#1f77b4;stroke:#1f77b4;" x="394.086575" xlink:href="#mffd439fc6c" y="69.164212"/>
     <use style="fill:#1f77b4;stroke:#1f77b4;" x="150.969729" xlink:href="#mffd439fc6c" y="150.041608"/>
     <use style="fill:#1f77b4;stroke:#1f77b4;" x="311.010793" xlink:href="#mffd439fc6c" y="94.784547"/>
     <use style="fill:#1f77b4;stroke:#1f77b4;" x="364.621102" xlink:href="#mffd439fc6c" y="75.209935"/>
     <use style="fill:#1f77b4;stroke:#1f77b4;" x="238.265342" xlink:href="#mffd439fc6c" y="119.812994"/>
     <use style="fill:#1f77b4;stroke:#1f77b4;" x="395.137579" xlink:href="#mffd439fc6c" y="69.164212"/>
     <use style="fill:#1f77b4;stroke:#1f77b4;" x="361.511045" xlink:href="#mffd439fc6c" y="63.541267"/>
     <use style="fill:#1f77b4;stroke:#1f77b4;" x="239.352604" xlink:href="#mffd439fc6c" y="116.642161"/>
     <use style="fill:#1f77b4;stroke:#1f77b4;" x="278.78655" xlink:href="#mffd439fc6c" y="103.155548"/>
     <use style="fill:#1f77b4;stroke:#1f77b4;" x="259.641595" xlink:href="#mffd439fc6c" y="114.485994"/>
     <use style="fill:#1f77b4;stroke:#1f77b4;" x="367.677968" xlink:href="#mffd439fc6c" y="72.292768"/>
     <use style="fill:#1f77b4;stroke:#1f77b4;" x="421.701542" xlink:href="#mffd439fc6c" y="53.648266"/>
     <use style="fill:#1f77b4;stroke:#1f77b4;" x="220.923338" xlink:href="#mffd439fc6c" y="125.22455"/>
     <use style="fill:#1f77b4;stroke:#1f77b4;" x="393.198003" xlink:href="#mffd439fc6c" y="67.008045"/>
     <use style="fill:#1f77b4;stroke:#1f77b4;" x="231.485004" xlink:href="#mffd439fc6c" y="120.489439"/>
     <use style="fill:#1f77b4;stroke:#1f77b4;" x="176.728234" xlink:href="#mffd439fc6c" y="141.416941"/>
     <use style="fill:#1f77b4;stroke:#1f77b4;" x="238.202639" xlink:href="#mffd439fc6c" y="120.489439"/>
     <use style="fill:#1f77b4;stroke:#1f77b4;" x="239.384827" xlink:href="#mffd439fc6c" y="116.642161"/>
     <use style="fill:#1f77b4;stroke:#1f77b4;" x="382.935091" xlink:href="#mffd439fc6c" y="76.605101"/>
     <use style="fill:#1f77b4;stroke:#1f77b4;" x="415.068012" xlink:href="#mffd439fc6c" y="56.903655"/>
     <use style="fill:#1f77b4;stroke:#1f77b4;" x="352.644756" xlink:href="#mffd439fc6c" y="76.605101"/>
     <use style="fill:#1f77b4;stroke:#1f77b4;" x="301.387374" xlink:href="#mffd439fc6c" y="96.771603"/>
     <use style="fill:#1f77b4;stroke:#1f77b4;" x="149.540187" xlink:href="#mffd439fc6c" y="149.491997"/>
    </g>
   </g>
   <g id="matplotlib.axis_1">
    <g id="xtick_1">
     <g id="line2d_1">
      <path clip-path="url(#paf061dd3b6)" d="M 64.765284 191.6775 
L 64.765284 25.3575 
" style="fill:none;stroke:#b0b0b0;stroke-linecap:square;stroke-width:0.8;"/>
     </g>
     <g id="line2d_2">
      <defs>
       <path d="M 0 0 
L 0 3.5 
" id="mf013ce7f70" style="stroke:#000000;stroke-width:0.8;"/>
      </defs>
      <g>
       <use style="stroke:#000000;stroke-width:0.8;" x="64.765284" xlink:href="#mf013ce7f70" y="191.6775"/>
      </g>
     </g>
     <g id="text_1">
      <!-- 0 -->
      <defs>
       <path d="M 31.78125 66.40625 
Q 24.171875 66.40625 20.328125 58.90625 
Q 16.5 51.421875 16.5 36.375 
Q 16.5 21.390625 20.328125 13.890625 
Q 24.171875 6.390625 31.78125 6.390625 
Q 39.453125 6.390625 43.28125 13.890625 
Q 47.125 21.390625 47.125 36.375 
Q 47.125 51.421875 43.28125 58.90625 
Q 39.453125 66.40625 31.78125 66.40625 
z
M 31.78125 74.21875 
Q 44.046875 74.21875 50.515625 64.515625 
Q 56.984375 54.828125 56.984375 36.375 
Q 56.984375 17.96875 50.515625 8.265625 
Q 44.046875 -1.421875 31.78125 -1.421875 
Q 19.53125 -1.421875 13.0625 8.265625 
Q 6.59375 17.96875 6.59375 36.375 
Q 6.59375 54.828125 13.0625 64.515625 
Q 19.53125 74.21875 31.78125 74.21875 
z
" id="DejaVuSans-48"/>
      </defs>
      <g transform="translate(61.584034 206.275938)scale(0.1 -0.1)">
       <use xlink:href="#DejaVuSans-48"/>
      </g>
     </g>
    </g>
    <g id="xtick_2">
     <g id="line2d_3">
      <path clip-path="url(#paf061dd3b6)" d="M 121.494026 191.6775 
L 121.494026 25.3575 
" style="fill:none;stroke:#b0b0b0;stroke-linecap:square;stroke-width:0.8;"/>
     </g>
     <g id="line2d_4">
      <g>
       <use style="stroke:#000000;stroke-width:0.8;" x="121.494026" xlink:href="#mf013ce7f70" y="191.6775"/>
      </g>
     </g>
     <g id="text_2">
      <!-- 5 -->
      <defs>
       <path d="M 10.796875 72.90625 
L 49.515625 72.90625 
L 49.515625 64.59375 
L 19.828125 64.59375 
L 19.828125 46.734375 
Q 21.96875 47.46875 24.109375 47.828125 
Q 26.265625 48.1875 28.421875 48.1875 
Q 40.625 48.1875 47.75 41.5 
Q 54.890625 34.8125 54.890625 23.390625 
Q 54.890625 11.625 47.5625 5.09375 
Q 40.234375 -1.421875 26.90625 -1.421875 
Q 22.3125 -1.421875 17.546875 -0.640625 
Q 12.796875 0.140625 7.71875 1.703125 
L 7.71875 11.625 
Q 12.109375 9.234375 16.796875 8.0625 
Q 21.484375 6.890625 26.703125 6.890625 
Q 35.15625 6.890625 40.078125 11.328125 
Q 45.015625 15.765625 45.015625 23.390625 
Q 45.015625 31 40.078125 35.4375 
Q 35.15625 39.890625 26.703125 39.890625 
Q 22.75 39.890625 18.8125 39.015625 
Q 14.890625 38.140625 10.796875 36.28125 
z
" id="DejaVuSans-53"/>
      </defs>
      <g transform="translate(118.312776 206.275938)scale(0.1 -0.1)">
       <use xlink:href="#DejaVuSans-53"/>
      </g>
     </g>
    </g>
    <g id="xtick_3">
     <g id="line2d_5">
      <path clip-path="url(#paf061dd3b6)" d="M 178.222767 191.6775 
L 178.222767 25.3575 
" style="fill:none;stroke:#b0b0b0;stroke-linecap:square;stroke-width:0.8;"/>
     </g>
     <g id="line2d_6">
      <g>
       <use style="stroke:#000000;stroke-width:0.8;" x="178.222767" xlink:href="#mf013ce7f70" y="191.6775"/>
      </g>
     </g>
     <g id="text_3">
      <!-- 10 -->
      <defs>
       <path d="M 12.40625 8.296875 
L 28.515625 8.296875 
L 28.515625 63.921875 
L 10.984375 60.40625 
L 10.984375 69.390625 
L 28.421875 72.90625 
L 38.28125 72.90625 
L 38.28125 8.296875 
L 54.390625 8.296875 
L 54.390625 0 
L 12.40625 0 
z
" id="DejaVuSans-49"/>
      </defs>
      <g transform="translate(171.860267 206.275938)scale(0.1 -0.1)">
       <use xlink:href="#DejaVuSans-49"/>
       <use x="63.623047" xlink:href="#DejaVuSans-48"/>
      </g>
     </g>
    </g>
    <g id="xtick_4">
     <g id="line2d_7">
      <path clip-path="url(#paf061dd3b6)" d="M 234.951509 191.6775 
L 234.951509 25.3575 
" style="fill:none;stroke:#b0b0b0;stroke-linecap:square;stroke-width:0.8;"/>
     </g>
     <g id="line2d_8">
      <g>
       <use style="stroke:#000000;stroke-width:0.8;" x="234.951509" xlink:href="#mf013ce7f70" y="191.6775"/>
      </g>
     </g>
     <g id="text_4">
      <!-- 15 -->
      <g transform="translate(228.589009 206.275938)scale(0.1 -0.1)">
       <use xlink:href="#DejaVuSans-49"/>
       <use x="63.623047" xlink:href="#DejaVuSans-53"/>
      </g>
     </g>
    </g>
    <g id="xtick_5">
     <g id="line2d_9">
      <path clip-path="url(#paf061dd3b6)" d="M 291.680251 191.6775 
L 291.680251 25.3575 
" style="fill:none;stroke:#b0b0b0;stroke-linecap:square;stroke-width:0.8;"/>
     </g>
     <g id="line2d_10">
      <g>
       <use style="stroke:#000000;stroke-width:0.8;" x="291.680251" xlink:href="#mf013ce7f70" y="191.6775"/>
      </g>
     </g>
     <g id="text_5">
      <!-- 20 -->
      <defs>
       <path d="M 19.1875 8.296875 
L 53.609375 8.296875 
L 53.609375 0 
L 7.328125 0 
L 7.328125 8.296875 
Q 12.9375 14.109375 22.625 23.890625 
Q 32.328125 33.6875 34.8125 36.53125 
Q 39.546875 41.84375 41.421875 45.53125 
Q 43.3125 49.21875 43.3125 52.78125 
Q 43.3125 58.59375 39.234375 62.25 
Q 35.15625 65.921875 28.609375 65.921875 
Q 23.96875 65.921875 18.8125 64.3125 
Q 13.671875 62.703125 7.8125 59.421875 
L 7.8125 69.390625 
Q 13.765625 71.78125 18.9375 73 
Q 24.125 74.21875 28.421875 74.21875 
Q 39.75 74.21875 46.484375 68.546875 
Q 53.21875 62.890625 53.21875 53.421875 
Q 53.21875 48.921875 51.53125 44.890625 
Q 49.859375 40.875 45.40625 35.40625 
Q 44.1875 33.984375 37.640625 27.21875 
Q 31.109375 20.453125 19.1875 8.296875 
z
" id="DejaVuSans-50"/>
      </defs>
      <g transform="translate(285.317751 206.275938)scale(0.1 -0.1)">
       <use xlink:href="#DejaVuSans-50"/>
       <use x="63.623047" xlink:href="#DejaVuSans-48"/>
      </g>
     </g>
    </g>
    <g id="xtick_6">
     <g id="line2d_11">
      <path clip-path="url(#paf061dd3b6)" d="M 348.408992 191.6775 
L 348.408992 25.3575 
" style="fill:none;stroke:#b0b0b0;stroke-linecap:square;stroke-width:0.8;"/>
     </g>
     <g id="line2d_12">
      <g>
       <use style="stroke:#000000;stroke-width:0.8;" x="348.408992" xlink:href="#mf013ce7f70" y="191.6775"/>
      </g>
     </g>
     <g id="text_6">
      <!-- 25 -->
      <g transform="translate(342.046492 206.275938)scale(0.1 -0.1)">
       <use xlink:href="#DejaVuSans-50"/>
       <use x="63.623047" xlink:href="#DejaVuSans-53"/>
      </g>
     </g>
    </g>
    <g id="xtick_7">
     <g id="line2d_13">
      <path clip-path="url(#paf061dd3b6)" d="M 405.137734 191.6775 
L 405.137734 25.3575 
" style="fill:none;stroke:#b0b0b0;stroke-linecap:square;stroke-width:0.8;"/>
     </g>
     <g id="line2d_14">
      <g>
       <use style="stroke:#000000;stroke-width:0.8;" x="405.137734" xlink:href="#mf013ce7f70" y="191.6775"/>
      </g>
     </g>
     <g id="text_7">
      <!-- 30 -->
      <defs>
       <path d="M 40.578125 39.3125 
Q 47.65625 37.796875 51.625 33 
Q 55.609375 28.21875 55.609375 21.1875 
Q 55.609375 10.40625 48.1875 4.484375 
Q 40.765625 -1.421875 27.09375 -1.421875 
Q 22.515625 -1.421875 17.65625 -0.515625 
Q 12.796875 0.390625 7.625 2.203125 
L 7.625 11.71875 
Q 11.71875 9.328125 16.59375 8.109375 
Q 21.484375 6.890625 26.8125 6.890625 
Q 36.078125 6.890625 40.9375 10.546875 
Q 45.796875 14.203125 45.796875 21.1875 
Q 45.796875 27.640625 41.28125 31.265625 
Q 36.765625 34.90625 28.71875 34.90625 
L 20.21875 34.90625 
L 20.21875 43.015625 
L 29.109375 43.015625 
Q 36.375 43.015625 40.234375 45.921875 
Q 44.09375 48.828125 44.09375 54.296875 
Q 44.09375 59.90625 40.109375 62.90625 
Q 36.140625 65.921875 28.71875 65.921875 
Q 24.65625 65.921875 20.015625 65.03125 
Q 15.375 64.15625 9.8125 62.3125 
L 9.8125 71.09375 
Q 15.4375 72.65625 20.34375 73.4375 
Q 25.25 74.21875 29.59375 74.21875 
Q 40.828125 74.21875 47.359375 69.109375 
Q 53.90625 64.015625 53.90625 55.328125 
Q 53.90625 49.265625 50.4375 45.09375 
Q 46.96875 40.921875 40.578125 39.3125 
z
" id="DejaVuSans-51"/>
      </defs>
      <g transform="translate(398.775234 206.275938)scale(0.1 -0.1)">
       <use xlink:href="#DejaVuSans-51"/>
       <use x="63.623047" xlink:href="#DejaVuSans-48"/>
      </g>
     </g>
    </g>
    <g id="xtick_8">
     <g id="line2d_15">
      <path clip-path="url(#paf061dd3b6)" d="M 461.866475 191.6775 
L 461.866475 25.3575 
" style="fill:none;stroke:#b0b0b0;stroke-linecap:square;stroke-width:0.8;"/>
     </g>
     <g id="line2d_16">
      <g>
       <use style="stroke:#000000;stroke-width:0.8;" x="461.866475" xlink:href="#mf013ce7f70" y="191.6775"/>
      </g>
     </g>
     <g id="text_8">
      <!-- 35 -->
      <g transform="translate(455.503975 206.275938)scale(0.1 -0.1)">
       <use xlink:href="#DejaVuSans-51"/>
       <use x="63.623047" xlink:href="#DejaVuSans-53"/>
      </g>
     </g>
    </g>
    <g id="text_9">
     <!-- Predictions -->
     <defs>
      <path d="M 19.671875 64.796875 
L 19.671875 37.40625 
L 32.078125 37.40625 
Q 38.96875 37.40625 42.71875 40.96875 
Q 46.484375 44.53125 46.484375 51.125 
Q 46.484375 57.671875 42.71875 61.234375 
Q 38.96875 64.796875 32.078125 64.796875 
z
M 9.8125 72.90625 
L 32.078125 72.90625 
Q 44.34375 72.90625 50.609375 67.359375 
Q 56.890625 61.8125 56.890625 51.125 
Q 56.890625 40.328125 50.609375 34.8125 
Q 44.34375 29.296875 32.078125 29.296875 
L 19.671875 29.296875 
L 19.671875 0 
L 9.8125 0 
z
" id="DejaVuSans-80"/>
      <path d="M 41.109375 46.296875 
Q 39.59375 47.171875 37.8125 47.578125 
Q 36.03125 48 33.890625 48 
Q 26.265625 48 22.1875 43.046875 
Q 18.109375 38.09375 18.109375 28.8125 
L 18.109375 0 
L 9.078125 0 
L 9.078125 54.6875 
L 18.109375 54.6875 
L 18.109375 46.1875 
Q 20.953125 51.171875 25.484375 53.578125 
Q 30.03125 56 36.53125 56 
Q 37.453125 56 38.578125 55.875 
Q 39.703125 55.765625 41.0625 55.515625 
z
" id="DejaVuSans-114"/>
      <path d="M 56.203125 29.59375 
L 56.203125 25.203125 
L 14.890625 25.203125 
Q 15.484375 15.921875 20.484375 11.0625 
Q 25.484375 6.203125 34.421875 6.203125 
Q 39.59375 6.203125 44.453125 7.46875 
Q 49.3125 8.734375 54.109375 11.28125 
L 54.109375 2.78125 
Q 49.265625 0.734375 44.1875 -0.34375 
Q 39.109375 -1.421875 33.890625 -1.421875 
Q 20.796875 -1.421875 13.15625 6.1875 
Q 5.515625 13.8125 5.515625 26.8125 
Q 5.515625 40.234375 12.765625 48.109375 
Q 20.015625 56 32.328125 56 
Q 43.359375 56 49.78125 48.890625 
Q 56.203125 41.796875 56.203125 29.59375 
z
M 47.21875 32.234375 
Q 47.125 39.59375 43.09375 43.984375 
Q 39.0625 48.390625 32.421875 48.390625 
Q 24.90625 48.390625 20.390625 44.140625 
Q 15.875 39.890625 15.1875 32.171875 
z
" id="DejaVuSans-101"/>
      <path d="M 45.40625 46.390625 
L 45.40625 75.984375 
L 54.390625 75.984375 
L 54.390625 0 
L 45.40625 0 
L 45.40625 8.203125 
Q 42.578125 3.328125 38.25 0.953125 
Q 33.9375 -1.421875 27.875 -1.421875 
Q 17.96875 -1.421875 11.734375 6.484375 
Q 5.515625 14.40625 5.515625 27.296875 
Q 5.515625 40.1875 11.734375 48.09375 
Q 17.96875 56 27.875 56 
Q 33.9375 56 38.25 53.625 
Q 42.578125 51.265625 45.40625 46.390625 
z
M 14.796875 27.296875 
Q 14.796875 17.390625 18.875 11.75 
Q 22.953125 6.109375 30.078125 6.109375 
Q 37.203125 6.109375 41.296875 11.75 
Q 45.40625 17.390625 45.40625 27.296875 
Q 45.40625 37.203125 41.296875 42.84375 
Q 37.203125 48.484375 30.078125 48.484375 
Q 22.953125 48.484375 18.875 42.84375 
Q 14.796875 37.203125 14.796875 27.296875 
z
" id="DejaVuSans-100"/>
      <path d="M 9.421875 54.6875 
L 18.40625 54.6875 
L 18.40625 0 
L 9.421875 0 
z
M 9.421875 75.984375 
L 18.40625 75.984375 
L 18.40625 64.59375 
L 9.421875 64.59375 
z
" id="DejaVuSans-105"/>
      <path d="M 48.78125 52.59375 
L 48.78125 44.1875 
Q 44.96875 46.296875 41.140625 47.34375 
Q 37.3125 48.390625 33.40625 48.390625 
Q 24.65625 48.390625 19.8125 42.84375 
Q 14.984375 37.3125 14.984375 27.296875 
Q 14.984375 17.28125 19.8125 11.734375 
Q 24.65625 6.203125 33.40625 6.203125 
Q 37.3125 6.203125 41.140625 7.25 
Q 44.96875 8.296875 48.78125 10.40625 
L 48.78125 2.09375 
Q 45.015625 0.34375 40.984375 -0.53125 
Q 36.96875 -1.421875 32.421875 -1.421875 
Q 20.0625 -1.421875 12.78125 6.34375 
Q 5.515625 14.109375 5.515625 27.296875 
Q 5.515625 40.671875 12.859375 48.328125 
Q 20.21875 56 33.015625 56 
Q 37.15625 56 41.109375 55.140625 
Q 45.0625 54.296875 48.78125 52.59375 
z
" id="DejaVuSans-99"/>
      <path d="M 18.3125 70.21875 
L 18.3125 54.6875 
L 36.8125 54.6875 
L 36.8125 47.703125 
L 18.3125 47.703125 
L 18.3125 18.015625 
Q 18.3125 11.328125 20.140625 9.421875 
Q 21.96875 7.515625 27.59375 7.515625 
L 36.8125 7.515625 
L 36.8125 0 
L 27.59375 0 
Q 17.1875 0 13.234375 3.875 
Q 9.28125 7.765625 9.28125 18.015625 
L 9.28125 47.703125 
L 2.6875 47.703125 
L 2.6875 54.6875 
L 9.28125 54.6875 
L 9.28125 70.21875 
z
" id="DejaVuSans-116"/>
      <path d="M 30.609375 48.390625 
Q 23.390625 48.390625 19.1875 42.75 
Q 14.984375 37.109375 14.984375 27.296875 
Q 14.984375 17.484375 19.15625 11.84375 
Q 23.34375 6.203125 30.609375 6.203125 
Q 37.796875 6.203125 41.984375 11.859375 
Q 46.1875 17.53125 46.1875 27.296875 
Q 46.1875 37.015625 41.984375 42.703125 
Q 37.796875 48.390625 30.609375 48.390625 
z
M 30.609375 56 
Q 42.328125 56 49.015625 48.375 
Q 55.71875 40.765625 55.71875 27.296875 
Q 55.71875 13.875 49.015625 6.21875 
Q 42.328125 -1.421875 30.609375 -1.421875 
Q 18.84375 -1.421875 12.171875 6.21875 
Q 5.515625 13.875 5.515625 27.296875 
Q 5.515625 40.765625 12.171875 48.375 
Q 18.84375 56 30.609375 56 
z
" id="DejaVuSans-111"/>
      <path d="M 54.890625 33.015625 
L 54.890625 0 
L 45.90625 0 
L 45.90625 32.71875 
Q 45.90625 40.484375 42.875 44.328125 
Q 39.84375 48.1875 33.796875 48.1875 
Q 26.515625 48.1875 22.3125 43.546875 
Q 18.109375 38.921875 18.109375 30.90625 
L 18.109375 0 
L 9.078125 0 
L 9.078125 54.6875 
L 18.109375 54.6875 
L 18.109375 46.1875 
Q 21.34375 51.125 25.703125 53.5625 
Q 30.078125 56 35.796875 56 
Q 45.21875 56 50.046875 50.171875 
Q 54.890625 44.34375 54.890625 33.015625 
z
" id="DejaVuSans-110"/>
      <path d="M 44.28125 53.078125 
L 44.28125 44.578125 
Q 40.484375 46.53125 36.375 47.5 
Q 32.28125 48.484375 27.875 48.484375 
Q 21.1875 48.484375 17.84375 46.4375 
Q 14.5 44.390625 14.5 40.28125 
Q 14.5 37.15625 16.890625 35.375 
Q 19.28125 33.59375 26.515625 31.984375 
L 29.59375 31.296875 
Q 39.15625 29.25 43.1875 25.515625 
Q 47.21875 21.78125 47.21875 15.09375 
Q 47.21875 7.46875 41.1875 3.015625 
Q 35.15625 -1.421875 24.609375 -1.421875 
Q 20.21875 -1.421875 15.453125 -0.5625 
Q 10.6875 0.296875 5.421875 2 
L 5.421875 11.28125 
Q 10.40625 8.6875 15.234375 7.390625 
Q 20.0625 6.109375 24.8125 6.109375 
Q 31.15625 6.109375 34.5625 8.28125 
Q 37.984375 10.453125 37.984375 14.40625 
Q 37.984375 18.0625 35.515625 20.015625 
Q 33.0625 21.96875 24.703125 23.78125 
L 21.578125 24.515625 
Q 13.234375 26.265625 9.515625 29.90625 
Q 5.8125 33.546875 5.8125 39.890625 
Q 5.8125 47.609375 11.28125 51.796875 
Q 16.75 56 26.8125 56 
Q 31.78125 56 36.171875 55.265625 
Q 40.578125 54.546875 44.28125 53.078125 
z
" id="DejaVuSans-115"/>
     </defs>
     <g transform="translate(228.979688 222.993438)scale(0.14 -0.14)">
      <use xlink:href="#DejaVuSans-80"/>
      <use x="60.287109" xlink:href="#DejaVuSans-114"/>
      <use x="101.369141" xlink:href="#DejaVuSans-101"/>
      <use x="162.892578" xlink:href="#DejaVuSans-100"/>
      <use x="226.369141" xlink:href="#DejaVuSans-105"/>
      <use x="254.152344" xlink:href="#DejaVuSans-99"/>
      <use x="309.132812" xlink:href="#DejaVuSans-116"/>
      <use x="348.341797" xlink:href="#DejaVuSans-105"/>
      <use x="376.125" xlink:href="#DejaVuSans-111"/>
      <use x="437.306641" xlink:href="#DejaVuSans-110"/>
      <use x="500.685547" xlink:href="#DejaVuSans-115"/>
     </g>
    </g>
   </g>
   <g id="matplotlib.axis_2">
    <g id="ytick_1">
     <g id="line2d_17">
      <path clip-path="url(#paf061dd3b6)" d="M 44.474375 184.1175 
L 490.874375 184.1175 
" style="fill:none;stroke:#b0b0b0;stroke-linecap:square;stroke-width:0.8;"/>
     </g>
     <g id="line2d_18">
      <defs>
       <path d="M 0 0 
L -3.5 0 
" id="m4d07fb5be7" style="stroke:#000000;stroke-width:0.8;"/>
      </defs>
      <g>
       <use style="stroke:#000000;stroke-width:0.8;" x="44.474375" xlink:href="#m4d07fb5be7" y="184.1175"/>
      </g>
     </g>
     <g id="text_10">
      <!-- 0 -->
      <g transform="translate(31.111875 187.916719)scale(0.1 -0.1)">
       <use xlink:href="#DejaVuSans-48"/>
      </g>
     </g>
    </g>
    <g id="ytick_2">
     <g id="line2d_19">
      <path clip-path="url(#paf061dd3b6)" d="M 44.474375 162.978609 
L 490.874375 162.978609 
" style="fill:none;stroke:#b0b0b0;stroke-linecap:square;stroke-width:0.8;"/>
     </g>
     <g id="line2d_20">
      <g>
       <use style="stroke:#000000;stroke-width:0.8;" x="44.474375" xlink:href="#m4d07fb5be7" y="162.978609"/>
      </g>
     </g>
     <g id="text_11">
      <!-- 5 -->
      <g transform="translate(31.111875 166.777828)scale(0.1 -0.1)">
       <use xlink:href="#DejaVuSans-53"/>
      </g>
     </g>
    </g>
    <g id="ytick_3">
     <g id="line2d_21">
      <path clip-path="url(#paf061dd3b6)" d="M 44.474375 141.839718 
L 490.874375 141.839718 
" style="fill:none;stroke:#b0b0b0;stroke-linecap:square;stroke-width:0.8;"/>
     </g>
     <g id="line2d_22">
      <g>
       <use style="stroke:#000000;stroke-width:0.8;" x="44.474375" xlink:href="#m4d07fb5be7" y="141.839718"/>
      </g>
     </g>
     <g id="text_12">
      <!-- 10 -->
      <g transform="translate(24.749375 145.638937)scale(0.1 -0.1)">
       <use xlink:href="#DejaVuSans-49"/>
       <use x="63.623047" xlink:href="#DejaVuSans-48"/>
      </g>
     </g>
    </g>
    <g id="ytick_4">
     <g id="line2d_23">
      <path clip-path="url(#paf061dd3b6)" d="M 44.474375 120.700828 
L 490.874375 120.700828 
" style="fill:none;stroke:#b0b0b0;stroke-linecap:square;stroke-width:0.8;"/>
     </g>
     <g id="line2d_24">
      <g>
       <use style="stroke:#000000;stroke-width:0.8;" x="44.474375" xlink:href="#m4d07fb5be7" y="120.700828"/>
      </g>
     </g>
     <g id="text_13">
      <!-- 15 -->
      <g transform="translate(24.749375 124.500046)scale(0.1 -0.1)">
       <use xlink:href="#DejaVuSans-49"/>
       <use x="63.623047" xlink:href="#DejaVuSans-53"/>
      </g>
     </g>
    </g>
    <g id="ytick_5">
     <g id="line2d_25">
      <path clip-path="url(#paf061dd3b6)" d="M 44.474375 99.561937 
L 490.874375 99.561937 
" style="fill:none;stroke:#b0b0b0;stroke-linecap:square;stroke-width:0.8;"/>
     </g>
     <g id="line2d_26">
      <g>
       <use style="stroke:#000000;stroke-width:0.8;" x="44.474375" xlink:href="#m4d07fb5be7" y="99.561937"/>
      </g>
     </g>
     <g id="text_14">
      <!-- 20 -->
      <g transform="translate(24.749375 103.361156)scale(0.1 -0.1)">
       <use xlink:href="#DejaVuSans-50"/>
       <use x="63.623047" xlink:href="#DejaVuSans-48"/>
      </g>
     </g>
    </g>
    <g id="ytick_6">
     <g id="line2d_27">
      <path clip-path="url(#paf061dd3b6)" d="M 44.474375 78.423046 
L 490.874375 78.423046 
" style="fill:none;stroke:#b0b0b0;stroke-linecap:square;stroke-width:0.8;"/>
     </g>
     <g id="line2d_28">
      <g>
       <use style="stroke:#000000;stroke-width:0.8;" x="44.474375" xlink:href="#m4d07fb5be7" y="78.423046"/>
      </g>
     </g>
     <g id="text_15">
      <!-- 25 -->
      <g transform="translate(24.749375 82.222265)scale(0.1 -0.1)">
       <use xlink:href="#DejaVuSans-50"/>
       <use x="63.623047" xlink:href="#DejaVuSans-53"/>
      </g>
     </g>
    </g>
    <g id="ytick_7">
     <g id="line2d_29">
      <path clip-path="url(#paf061dd3b6)" d="M 44.474375 57.284155 
L 490.874375 57.284155 
" style="fill:none;stroke:#b0b0b0;stroke-linecap:square;stroke-width:0.8;"/>
     </g>
     <g id="line2d_30">
      <g>
       <use style="stroke:#000000;stroke-width:0.8;" x="44.474375" xlink:href="#m4d07fb5be7" y="57.284155"/>
      </g>
     </g>
     <g id="text_16">
      <!-- 30 -->
      <g transform="translate(24.749375 61.083374)scale(0.1 -0.1)">
       <use xlink:href="#DejaVuSans-51"/>
       <use x="63.623047" xlink:href="#DejaVuSans-48"/>
      </g>
     </g>
    </g>
    <g id="ytick_8">
     <g id="line2d_31">
      <path clip-path="url(#paf061dd3b6)" d="M 44.474375 36.145264 
L 490.874375 36.145264 
" style="fill:none;stroke:#b0b0b0;stroke-linecap:square;stroke-width:0.8;"/>
     </g>
     <g id="line2d_32">
      <g>
       <use style="stroke:#000000;stroke-width:0.8;" x="44.474375" xlink:href="#m4d07fb5be7" y="36.145264"/>
      </g>
     </g>
     <g id="text_17">
      <!-- 35 -->
      <g transform="translate(24.749375 39.944483)scale(0.1 -0.1)">
       <use xlink:href="#DejaVuSans-51"/>
       <use x="63.623047" xlink:href="#DejaVuSans-53"/>
      </g>
     </g>
    </g>
    <g id="text_18">
     <!-- Real -->
     <defs>
      <path d="M 44.390625 34.1875 
Q 47.5625 33.109375 50.5625 29.59375 
Q 53.5625 26.078125 56.59375 19.921875 
L 66.609375 0 
L 56 0 
L 46.6875 18.703125 
Q 43.0625 26.03125 39.671875 28.421875 
Q 36.28125 30.8125 30.421875 30.8125 
L 19.671875 30.8125 
L 19.671875 0 
L 9.8125 0 
L 9.8125 72.90625 
L 32.078125 72.90625 
Q 44.578125 72.90625 50.734375 67.671875 
Q 56.890625 62.453125 56.890625 51.90625 
Q 56.890625 45.015625 53.6875 40.46875 
Q 50.484375 35.9375 44.390625 34.1875 
z
M 19.671875 64.796875 
L 19.671875 38.921875 
L 32.078125 38.921875 
Q 39.203125 38.921875 42.84375 42.21875 
Q 46.484375 45.515625 46.484375 51.90625 
Q 46.484375 58.296875 42.84375 61.546875 
Q 39.203125 64.796875 32.078125 64.796875 
z
" id="DejaVuSans-82"/>
      <path d="M 34.28125 27.484375 
Q 23.390625 27.484375 19.1875 25 
Q 14.984375 22.515625 14.984375 16.5 
Q 14.984375 11.71875 18.140625 8.90625 
Q 21.296875 6.109375 26.703125 6.109375 
Q 34.1875 6.109375 38.703125 11.40625 
Q 43.21875 16.703125 43.21875 25.484375 
L 43.21875 27.484375 
z
M 52.203125 31.203125 
L 52.203125 0 
L 43.21875 0 
L 43.21875 8.296875 
Q 40.140625 3.328125 35.546875 0.953125 
Q 30.953125 -1.421875 24.3125 -1.421875 
Q 15.921875 -1.421875 10.953125 3.296875 
Q 6 8.015625 6 15.921875 
Q 6 25.140625 12.171875 29.828125 
Q 18.359375 34.515625 30.609375 34.515625 
L 43.21875 34.515625 
L 43.21875 35.40625 
Q 43.21875 41.609375 39.140625 45 
Q 35.0625 48.390625 27.6875 48.390625 
Q 23 48.390625 18.546875 47.265625 
Q 14.109375 46.140625 10.015625 43.890625 
L 10.015625 52.203125 
Q 14.9375 54.109375 19.578125 55.046875 
Q 24.21875 56 28.609375 56 
Q 40.484375 56 46.34375 49.84375 
Q 52.203125 43.703125 52.203125 31.203125 
z
" id="DejaVuSans-97"/>
      <path d="M 9.421875 75.984375 
L 18.40625 75.984375 
L 18.40625 0 
L 9.421875 0 
z
" id="DejaVuSans-108"/>
     </defs>
     <g transform="translate(17.837813 123.918594)rotate(-90)scale(0.14 -0.14)">
      <use xlink:href="#DejaVuSans-82"/>
      <use x="69.419922" xlink:href="#DejaVuSans-101"/>
      <use x="130.943359" xlink:href="#DejaVuSans-97"/>
      <use x="192.222656" xlink:href="#DejaVuSans-108"/>
     </g>
    </g>
   </g>
   <g id="line2d_33">
    <path clip-path="url(#paf061dd3b6)" d="M 64.765284 184.1175 
L 76.111032 179.889722 
L 470.528567 32.9175 
" style="fill:none;stroke:#1f77b4;stroke-linecap:square;stroke-width:1.5;"/>
   </g>
   <g id="line2d_34">
    <path clip-path="url(#paf061dd3b6)" d="M 64.765284 179.45372 
L 76.111032 175.486503 
L 87.456781 171.519286 
L 98.802529 167.552069 
L 110.148277 163.584852 
L 121.494026 159.617634 
L 132.839774 155.650417 
L 144.185522 151.6832 
L 155.531271 147.715983 
L 166.877019 143.748766 
L 178.222767 139.781549 
L 189.568516 135.814332 
L 200.914264 131.847115 
L 212.260012 127.879898 
L 223.605761 123.912681 
L 234.951509 119.945463 
L 246.297257 115.978246 
L 257.643006 112.011029 
L 268.988754 108.043812 
L 280.334502 104.076595 
L 291.680251 100.109378 
L 303.025999 96.142161 
L 314.371747 92.174944 
L 325.717496 88.207727 
L 337.063244 84.24051 
L 348.408992 80.273292 
L 359.75474 76.306075 
L 371.100489 72.338858 
L 382.446237 68.371641 
L 393.791985 64.404424 
L 405.137734 60.437207 
L 416.483482 56.46999 
L 427.82923 52.502773 
L 439.174979 48.535556 
L 450.520727 44.568338 
L 461.866475 40.601121 
" style="fill:none;stroke:#ff0000;stroke-linecap:square;stroke-width:1.5;"/>
   </g>
   <g id="patch_3">
    <path d="M 44.474375 191.6775 
L 44.474375 25.3575 
" style="fill:none;stroke:#000000;stroke-linecap:square;stroke-linejoin:miter;stroke-width:0.8;"/>
   </g>
   <g id="patch_4">
    <path d="M 490.874375 191.6775 
L 490.874375 25.3575 
" style="fill:none;stroke:#000000;stroke-linecap:square;stroke-linejoin:miter;stroke-width:0.8;"/>
   </g>
   <g id="patch_5">
    <path d="M 44.474375 191.6775 
L 490.874375 191.6775 
" style="fill:none;stroke:#000000;stroke-linecap:square;stroke-linejoin:miter;stroke-width:0.8;"/>
   </g>
   <g id="patch_6">
    <path d="M 44.474375 25.3575 
L 490.874375 25.3575 
" style="fill:none;stroke:#000000;stroke-linecap:square;stroke-linejoin:miter;stroke-width:0.8;"/>
   </g>
   <g id="text_19">
    <!-- Moisture Content -->
    <defs>
     <path d="M 9.8125 72.90625 
L 24.515625 72.90625 
L 43.109375 23.296875 
L 61.8125 72.90625 
L 76.515625 72.90625 
L 76.515625 0 
L 66.890625 0 
L 66.890625 64.015625 
L 48.09375 14.015625 
L 38.1875 14.015625 
L 19.390625 64.015625 
L 19.390625 0 
L 9.8125 0 
z
" id="DejaVuSans-77"/>
     <path d="M 8.5 21.578125 
L 8.5 54.6875 
L 17.484375 54.6875 
L 17.484375 21.921875 
Q 17.484375 14.15625 20.5 10.265625 
Q 23.53125 6.390625 29.59375 6.390625 
Q 36.859375 6.390625 41.078125 11.03125 
Q 45.3125 15.671875 45.3125 23.6875 
L 45.3125 54.6875 
L 54.296875 54.6875 
L 54.296875 0 
L 45.3125 0 
L 45.3125 8.40625 
Q 42.046875 3.421875 37.71875 1 
Q 33.40625 -1.421875 27.6875 -1.421875 
Q 18.265625 -1.421875 13.375 4.4375 
Q 8.5 10.296875 8.5 21.578125 
z
M 31.109375 56 
z
" id="DejaVuSans-117"/>
     <path id="DejaVuSans-32"/>
     <path d="M 64.40625 67.28125 
L 64.40625 56.890625 
Q 59.421875 61.53125 53.78125 63.8125 
Q 48.140625 66.109375 41.796875 66.109375 
Q 29.296875 66.109375 22.65625 58.46875 
Q 16.015625 50.828125 16.015625 36.375 
Q 16.015625 21.96875 22.65625 14.328125 
Q 29.296875 6.6875 41.796875 6.6875 
Q 48.140625 6.6875 53.78125 8.984375 
Q 59.421875 11.28125 64.40625 15.921875 
L 64.40625 5.609375 
Q 59.234375 2.09375 53.4375 0.328125 
Q 47.65625 -1.421875 41.21875 -1.421875 
Q 24.65625 -1.421875 15.125 8.703125 
Q 5.609375 18.84375 5.609375 36.375 
Q 5.609375 53.953125 15.125 64.078125 
Q 24.65625 74.21875 41.21875 74.21875 
Q 47.75 74.21875 53.53125 72.484375 
Q 59.328125 70.75 64.40625 67.28125 
z
" id="DejaVuSans-67"/>
    </defs>
    <g transform="translate(198.713125 19.3575)scale(0.16 -0.16)">
     <use xlink:href="#DejaVuSans-77"/>
     <use x="86.279297" xlink:href="#DejaVuSans-111"/>
     <use x="147.460938" xlink:href="#DejaVuSans-105"/>
     <use x="175.244141" xlink:href="#DejaVuSans-115"/>
     <use x="227.34375" xlink:href="#DejaVuSans-116"/>
     <use x="266.552734" xlink:href="#DejaVuSans-117"/>
     <use x="329.931641" xlink:href="#DejaVuSans-114"/>
     <use x="371.013672" xlink:href="#DejaVuSans-101"/>
     <use x="432.537109" xlink:href="#DejaVuSans-32"/>
     <use x="464.324219" xlink:href="#DejaVuSans-67"/>
     <use x="534.148438" xlink:href="#DejaVuSans-111"/>
     <use x="595.330078" xlink:href="#DejaVuSans-110"/>
     <use x="658.708984" xlink:href="#DejaVuSans-116"/>
     <use x="697.917969" xlink:href="#DejaVuSans-101"/>
     <use x="759.441406" xlink:href="#DejaVuSans-110"/>
     <use x="822.820312" xlink:href="#DejaVuSans-116"/>
    </g>
   </g>
   <g id="legend_1">
    <g id="patch_7">
     <path d="M 51.474375 62.71375 
L 121.229063 62.71375 
Q 123.229063 62.71375 123.229063 60.71375 
L 123.229063 32.3575 
Q 123.229063 30.3575 121.229063 30.3575 
L 51.474375 30.3575 
Q 49.474375 30.3575 49.474375 32.3575 
L 49.474375 60.71375 
Q 49.474375 62.71375 51.474375 62.71375 
z
" style="fill:#ffffff;opacity:0.8;stroke:#cccccc;stroke-linejoin:miter;"/>
    </g>
    <g id="line2d_35">
     <path d="M 53.474375 38.455938 
L 73.474375 38.455938 
" style="fill:none;stroke:#1f77b4;stroke-linecap:square;stroke-width:1.5;"/>
    </g>
    <g id="line2d_36"/>
    <g id="text_20">
     <!-- Ideal fit -->
     <defs>
      <path d="M 9.8125 72.90625 
L 19.671875 72.90625 
L 19.671875 0 
L 9.8125 0 
z
" id="DejaVuSans-73"/>
      <path d="M 37.109375 75.984375 
L 37.109375 68.5 
L 28.515625 68.5 
Q 23.6875 68.5 21.796875 66.546875 
Q 19.921875 64.59375 19.921875 59.515625 
L 19.921875 54.6875 
L 34.71875 54.6875 
L 34.71875 47.703125 
L 19.921875 47.703125 
L 19.921875 0 
L 10.890625 0 
L 10.890625 47.703125 
L 2.296875 47.703125 
L 2.296875 54.6875 
L 10.890625 54.6875 
L 10.890625 58.5 
Q 10.890625 67.625 15.140625 71.796875 
Q 19.390625 75.984375 28.609375 75.984375 
z
" id="DejaVuSans-102"/>
     </defs>
     <g transform="translate(81.474375 41.955938)scale(0.1 -0.1)">
      <use xlink:href="#DejaVuSans-73"/>
      <use x="29.492188" xlink:href="#DejaVuSans-100"/>
      <use x="92.96875" xlink:href="#DejaVuSans-101"/>
      <use x="154.492188" xlink:href="#DejaVuSans-97"/>
      <use x="215.771484" xlink:href="#DejaVuSans-108"/>
      <use x="243.554688" xlink:href="#DejaVuSans-32"/>
      <use x="275.341797" xlink:href="#DejaVuSans-102"/>
      <use x="310.546875" xlink:href="#DejaVuSans-105"/>
      <use x="338.330078" xlink:href="#DejaVuSans-116"/>
     </g>
    </g>
    <g id="line2d_37">
     <path d="M 53.474375 53.134063 
L 73.474375 53.134063 
" style="fill:none;stroke:#ff0000;stroke-linecap:square;stroke-width:1.5;"/>
    </g>
    <g id="line2d_38"/>
    <g id="text_21">
     <!-- Best fit -->
     <defs>
      <path d="M 19.671875 34.8125 
L 19.671875 8.109375 
L 35.5 8.109375 
Q 43.453125 8.109375 47.28125 11.40625 
Q 51.125 14.703125 51.125 21.484375 
Q 51.125 28.328125 47.28125 31.5625 
Q 43.453125 34.8125 35.5 34.8125 
z
M 19.671875 64.796875 
L 19.671875 42.828125 
L 34.28125 42.828125 
Q 41.5 42.828125 45.03125 45.53125 
Q 48.578125 48.25 48.578125 53.8125 
Q 48.578125 59.328125 45.03125 62.0625 
Q 41.5 64.796875 34.28125 64.796875 
z
M 9.8125 72.90625 
L 35.015625 72.90625 
Q 46.296875 72.90625 52.390625 68.21875 
Q 58.5 63.53125 58.5 54.890625 
Q 58.5 48.1875 55.375 44.234375 
Q 52.25 40.28125 46.1875 39.3125 
Q 53.46875 37.75 57.5 32.78125 
Q 61.53125 27.828125 61.53125 20.40625 
Q 61.53125 10.640625 54.890625 5.3125 
Q 48.25 0 35.984375 0 
L 9.8125 0 
z
" id="DejaVuSans-66"/>
     </defs>
     <g transform="translate(81.474375 56.634063)scale(0.1 -0.1)">
      <use xlink:href="#DejaVuSans-66"/>
      <use x="68.603516" xlink:href="#DejaVuSans-101"/>
      <use x="130.126953" xlink:href="#DejaVuSans-115"/>
      <use x="182.226562" xlink:href="#DejaVuSans-116"/>
      <use x="221.435547" xlink:href="#DejaVuSans-32"/>
      <use x="253.222656" xlink:href="#DejaVuSans-102"/>
      <use x="288.427734" xlink:href="#DejaVuSans-105"/>
      <use x="316.210938" xlink:href="#DejaVuSans-116"/>
     </g>
    </g>
   </g>
  </g>
 </g>
 <defs>
  <clipPath id="paf061dd3b6">
   <rect height="166.32" width="446.4" x="44.474375" y="25.3575"/>
  </clipPath>
 </defs>
</svg>
