<?xml version="1.0" encoding="utf-8" standalone="no"?>
<!DOCTYPE svg PUBLIC "-//W3C//DTD SVG 1.1//EN"
  "http://www.w3.org/Graphics/SVG/1.1/DTD/svg11.dtd">
<!-- Created with matplotlib (https://matplotlib.org/) -->
<svg height="233.105pt" version="1.1" viewBox="0 0 498.074375 233.105" width="498.074375pt" xmlns="http://www.w3.org/2000/svg" xmlns:xlink="http://www.w3.org/1999/xlink">
 <defs>
  <style type="text/css">
*{stroke-linecap:butt;stroke-linejoin:round;}
  </style>
 </defs>
 <g id="figure_1">
  <g id="patch_1">
   <path d="M 0 233.105 
L 498.074375 233.105 
L 498.074375 0 
L 0 0 
z
" style="fill:none;"/>
  </g>
  <g id="axes_1">
   <g id="patch_2">
    <path d="M 44.474375 191.6775 
L 490.874375 191.6775 
L 490.874375 25.3575 
L 44.474375 25.3575 
z
" style="fill:none;"/>
   </g>
   <g id="PathCollection_1">
    <defs>
     <path d="M 0 3 
C 0.795609 3 1.55874 2.683901 2.12132 2.12132 
C 2.683901 1.55874 3 0.795609 3 0 
C 3 -0.795609 2.683901 -1.55874 2.12132 -2.12132 
C 1.55874 -2.683901 0.795609 -3 0 -3 
C -0.795609 -3 -1.55874 -2.683901 -2.12132 -2.12132 
C -2.683901 -1.55874 -3 -0.795609 -3 0 
C -3 0.795609 -2.683901 1.55874 -2.12132 2.12132 
C -1.55874 2.683901 -0.795609 3 0 3 
z
" id="ma8f45a6548" style="stroke:#1f77b4;"/>
    </defs>
    <g clip-path="url(#p92763e0891)">
     <use style="fill:#1f77b4;stroke:#1f77b4;" x="151.921432" xlink:href="#ma8f45a6548" y="134.359798"/>
     <use style="fill:#1f77b4;stroke:#1f77b4;" x="152.211128" xlink:href="#ma8f45a6548" y="127.150578"/>
     <use style="fill:#1f77b4;stroke:#1f77b4;" x="151.921432" xlink:href="#ma8f45a6548" y="138.717598"/>
     <use style="fill:#1f77b4;stroke:#1f77b4;" x="336.747682" xlink:href="#ma8f45a6548" y="83.916355"/>
     <use style="fill:#1f77b4;stroke:#1f77b4;" x="286.919915" xlink:href="#ma8f45a6548" y="96.571905"/>
     <use style="fill:#1f77b4;stroke:#1f77b4;" x="153.225065" xlink:href="#ma8f45a6548" y="121.009244"/>
     <use style="fill:#1f77b4;stroke:#1f77b4;" x="152.06628" xlink:href="#ma8f45a6548" y="128.337529"/>
     <use style="fill:#1f77b4;stroke:#1f77b4;" x="140.043883" xlink:href="#ma8f45a6548" y="139.960395"/>
     <use style="fill:#1f77b4;stroke:#1f77b4;" x="277.359937" xlink:href="#ma8f45a6548" y="84.515459"/>
     <use style="fill:#1f77b4;stroke:#1f77b4;" x="181.615304" xlink:href="#ma8f45a6548" y="119.804565"/>
     <use style="fill:#1f77b4;stroke:#1f77b4;" x="123.531193" xlink:href="#ma8f45a6548" y="141.270959"/>
     <use style="fill:#1f77b4;stroke:#1f77b4;" x="397.43906" xlink:href="#ma8f45a6548" y="75.758303"/>
     <use style="fill:#1f77b4;stroke:#1f77b4;" x="249.693939" xlink:href="#ma8f45a6548" y="89.760912"/>
     <use style="fill:#1f77b4;stroke:#1f77b4;" x="336.747682" xlink:href="#ma8f45a6548" y="72.137084"/>
     <use style="fill:#1f77b4;stroke:#1f77b4;" x="191.030435" xlink:href="#ma8f45a6548" y="116.561801"/>
     <use style="fill:#1f77b4;stroke:#1f77b4;" x="67.185259" xlink:href="#ma8f45a6548" y="150.34044"/>
     <use style="fill:#1f77b4;stroke:#1f77b4;" x="386.285752" xlink:href="#ma8f45a6548" y="59.959601"/>
     <use style="fill:#1f77b4;stroke:#1f77b4;" x="113.246974" xlink:href="#ma8f45a6548" y="142.335365"/>
     <use style="fill:#1f77b4;stroke:#1f77b4;" x="287.933852" xlink:href="#ma8f45a6548" y="81.930936"/>
     <use style="fill:#1f77b4;stroke:#1f77b4;" x="153.225065" xlink:href="#ma8f45a6548" y="114.814059"/>
     <use style="fill:#1f77b4;stroke:#1f77b4;" x="249.693939" xlink:href="#ma8f45a6548" y="92.508245"/>
     <use style="fill:#1f77b4;stroke:#1f77b4;" x="363.544591" xlink:href="#ma8f45a6548" y="71.111328"/>
     <use style="fill:#1f77b4;stroke:#1f77b4;" x="351.667042" xlink:href="#ma8f45a6548" y="80.610198"/>
     <use style="fill:#1f77b4;stroke:#1f77b4;" x="69.068285" xlink:href="#ma8f45a6548" y="149.907454"/>
     <use style="fill:#1f77b4;stroke:#1f77b4;" x="153.225065" xlink:href="#ma8f45a6548" y="124.396571"/>
     <use style="fill:#1f77b4;stroke:#1f77b4;" x="204.356465" xlink:href="#ma8f45a6548" y="112.298969"/>
     <use style="fill:#1f77b4;stroke:#1f77b4;" x="109.191225" xlink:href="#ma8f45a6548" y="144.903294"/>
     <use style="fill:#1f77b4;stroke:#1f77b4;" x="181.615304" xlink:href="#ma8f45a6548" y="109.025171"/>
     <use style="fill:#1f77b4;stroke:#1f77b4;" x="213.047355" xlink:href="#ma8f45a6548" y="103.69649"/>
     <use style="fill:#1f77b4;stroke:#1f77b4;" x="213.047355" xlink:href="#ma8f45a6548" y="105.586796"/>
     <use style="fill:#1f77b4;stroke:#1f77b4;" x="213.047355" xlink:href="#ma8f45a6548" y="117.990499"/>
     <use style="fill:#1f77b4;stroke:#1f77b4;" x="363.544591" xlink:href="#ma8f45a6548" y="82.91509"/>
     <use style="fill:#1f77b4;stroke:#1f77b4;" x="436.403215" xlink:href="#ma8f45a6548" y="68.410226"/>
     <use style="fill:#1f77b4;stroke:#1f77b4;" x="277.359937" xlink:href="#ma8f45a6548" y="79.555164"/>
     <use style="fill:#1f77b4;stroke:#1f77b4;" x="109.480922" xlink:href="#ma8f45a6548" y="141.978606"/>
     <use style="fill:#1f77b4;stroke:#1f77b4;" x="351.667042" xlink:href="#ma8f45a6548" y="71.739451"/>
     <use style="fill:#1f77b4;stroke:#1f77b4;" x="249.693939" xlink:href="#ma8f45a6548" y="94.070539"/>
     <use style="fill:#1f77b4;stroke:#1f77b4;" x="151.921432" xlink:href="#ma8f45a6548" y="133.940441"/>
     <use style="fill:#1f77b4;stroke:#1f77b4;" x="69.068285" xlink:href="#ma8f45a6548" y="150.889919"/>
     <use style="fill:#1f77b4;stroke:#1f77b4;" x="382.809396" xlink:href="#ma8f45a6548" y="68.009551"/>
     <use style="fill:#1f77b4;stroke:#1f77b4;" x="363.544591" xlink:href="#ma8f45a6548" y="75.513205"/>
     <use style="fill:#1f77b4;stroke:#1f77b4;" x="292.424145" xlink:href="#ma8f45a6548" y="96.312801"/>
     <use style="fill:#1f77b4;stroke:#1f77b4;" x="261.861184" xlink:href="#ma8f45a6548" y="89.043509"/>
     <use style="fill:#1f77b4;stroke:#1f77b4;" x="213.047355" xlink:href="#ma8f45a6548" y="111.644046"/>
     <use style="fill:#1f77b4;stroke:#1f77b4;" x="87.60885" xlink:href="#ma8f45a6548" y="145.684734"/>
     <use style="fill:#1f77b4;stroke:#1f77b4;" x="363.544591" xlink:href="#ma8f45a6548" y="76.34886"/>
     <use style="fill:#1f77b4;stroke:#1f77b4;" x="277.359937" xlink:href="#ma8f45a6548" y="78.423324"/>
     <use style="fill:#1f77b4;stroke:#1f77b4;" x="69.068285" xlink:href="#ma8f45a6548" y="151.452745"/>
     <use style="fill:#1f77b4;stroke:#1f77b4;" x="382.809396" xlink:href="#ma8f45a6548" y="70.728341"/>
     <use style="fill:#1f77b4;stroke:#1f77b4;" x="96.734284" xlink:href="#ma8f45a6548" y="144.29967"/>
     <use style="fill:#1f77b4;stroke:#1f77b4;" x="168.434122" xlink:href="#ma8f45a6548" y="123.364797"/>
     <use style="fill:#1f77b4;stroke:#1f77b4;" x="109.480922" xlink:href="#ma8f45a6548" y="140.202748"/>
     <use style="fill:#1f77b4;stroke:#1f77b4;" x="407.868127" xlink:href="#ma8f45a6548" y="75.932741"/>
     <use style="fill:#1f77b4;stroke:#1f77b4;" x="189.00256" xlink:href="#ma8f45a6548" y="118.514439"/>
     <use style="fill:#1f77b4;stroke:#1f77b4;" x="436.403215" xlink:href="#ma8f45a6548" y="38.980288"/>
     <use style="fill:#1f77b4;stroke:#1f77b4;" x="162.350499" xlink:href="#ma8f45a6548" y="134.051131"/>
     <use style="fill:#1f77b4;stroke:#1f77b4;" x="69.068285" xlink:href="#ma8f45a6548" y="152.108797"/>
     <use style="fill:#1f77b4;stroke:#1f77b4;" x="344.279786" xlink:href="#ma8f45a6548" y="71.684923"/>
     <use style="fill:#1f77b4;stroke:#1f77b4;" x="382.809396" xlink:href="#ma8f45a6548" y="75.3177"/>
     <use style="fill:#1f77b4;stroke:#1f77b4;" x="67.185259" xlink:href="#ma8f45a6548" y="149.228102"/>
     <use style="fill:#1f77b4;stroke:#1f77b4;" x="351.667042" xlink:href="#ma8f45a6548" y="67.236291"/>
     <use style="fill:#1f77b4;stroke:#1f77b4;" x="69.068285" xlink:href="#ma8f45a6548" y="153.400935"/>
     <use style="fill:#1f77b4;stroke:#1f77b4;" x="402.94329" xlink:href="#ma8f45a6548" y="68.249707"/>
     <use style="fill:#1f77b4;stroke:#1f77b4;" x="113.246974" xlink:href="#ma8f45a6548" y="140.79594"/>
     <use style="fill:#1f77b4;stroke:#1f77b4;" x="424.235969" xlink:href="#ma8f45a6548" y="50.888798"/>
     <use style="fill:#1f77b4;stroke:#1f77b4;" x="170.751692" xlink:href="#ma8f45a6548" y="129.365377"/>
     <use style="fill:#1f77b4;stroke:#1f77b4;" x="436.403215" xlink:href="#ma8f45a6548" y="56.329084"/>
     <use style="fill:#1f77b4;stroke:#1f77b4;" x="397.43906" xlink:href="#ma8f45a6548" y="56.787642"/>
     <use style="fill:#1f77b4;stroke:#1f77b4;" x="436.403215" xlink:href="#ma8f45a6548" y="41.253541"/>
     <use style="fill:#1f77b4;stroke:#1f77b4;" x="189.00256" xlink:href="#ma8f45a6548" y="117.56014"/>
     <use style="fill:#1f77b4;stroke:#1f77b4;" x="227.821867" xlink:href="#ma8f45a6548" y="110.96568"/>
     <use style="fill:#1f77b4;stroke:#1f77b4;" x="204.356465" xlink:href="#ma8f45a6548" y="120.507783"/>
     <use style="fill:#1f77b4;stroke:#1f77b4;" x="292.424145" xlink:href="#ma8f45a6548" y="84.861011"/>
     <use style="fill:#1f77b4;stroke:#1f77b4;" x="286.919915" xlink:href="#ma8f45a6548" y="88.570188"/>
     <use style="fill:#1f77b4;stroke:#1f77b4;" x="302.27382" xlink:href="#ma8f45a6548" y="90.430677"/>
     <use style="fill:#1f77b4;stroke:#1f77b4;" x="226.80793" xlink:href="#ma8f45a6548" y="114.440699"/>
     <use style="fill:#1f77b4;stroke:#1f77b4;" x="256.501802" xlink:href="#ma8f45a6548" y="110.138611"/>
     <use style="fill:#1f77b4;stroke:#1f77b4;" x="152.06628" xlink:href="#ma8f45a6548" y="129.116432"/>
     <use style="fill:#1f77b4;stroke:#1f77b4;" x="96.734284" xlink:href="#ma8f45a6548" y="146.772611"/>
     <use style="fill:#1f77b4;stroke:#1f77b4;" x="277.359937" xlink:href="#ma8f45a6548" y="79.654"/>
     <use style="fill:#1f77b4;stroke:#1f77b4;" x="113.246974" xlink:href="#ma8f45a6548" y="142.614741"/>
     <use style="fill:#1f77b4;stroke:#1f77b4;" x="109.191225" xlink:href="#ma8f45a6548" y="139.941842"/>
     <use style="fill:#1f77b4;stroke:#1f77b4;" x="213.047355" xlink:href="#ma8f45a6548" y="93.513623"/>
     <use style="fill:#1f77b4;stroke:#1f77b4;" x="152.06628" xlink:href="#ma8f45a6548" y="133.320939"/>
     <use style="fill:#1f77b4;stroke:#1f77b4;" x="397.43906" xlink:href="#ma8f45a6548" y="68.728808"/>
     <use style="fill:#1f77b4;stroke:#1f77b4;" x="333.561022" xlink:href="#ma8f45a6548" y="69.570179"/>
     <use style="fill:#1f77b4;stroke:#1f77b4;" x="151.921432" xlink:href="#ma8f45a6548" y="136.722533"/>
     <use style="fill:#1f77b4;stroke:#1f77b4;" x="219.565522" xlink:href="#ma8f45a6548" y="96.528739"/>
     <use style="fill:#1f77b4;stroke:#1f77b4;" x="113.246974" xlink:href="#ma8f45a6548" y="140.939607"/>
     <use style="fill:#1f77b4;stroke:#1f77b4;" x="170.751692" xlink:href="#ma8f45a6548" y="124.100968"/>
     <use style="fill:#1f77b4;stroke:#1f77b4;" x="123.531193" xlink:href="#ma8f45a6548" y="142.851078"/>
     <use style="fill:#1f77b4;stroke:#1f77b4;" x="363.544591" xlink:href="#ma8f45a6548" y="63.613695"/>
     <use style="fill:#1f77b4;stroke:#1f77b4;" x="213.047355" xlink:href="#ma8f45a6548" y="101.549927"/>
     <use style="fill:#1f77b4;stroke:#1f77b4;" x="162.350499" xlink:href="#ma8f45a6548" y="129.720091"/>
     <use style="fill:#1f77b4;stroke:#1f77b4;" x="69.068285" xlink:href="#ma8f45a6548" y="152.59682"/>
     <use style="fill:#1f77b4;stroke:#1f77b4;" x="344.279786" xlink:href="#ma8f45a6548" y="80.863195"/>
     <use style="fill:#1f77b4;stroke:#1f77b4;" x="336.747682" xlink:href="#ma8f45a6548" y="66.606893"/>
     <use style="fill:#1f77b4;stroke:#1f77b4;" x="344.279786" xlink:href="#ma8f45a6548" y="67.444495"/>
     <use style="fill:#1f77b4;stroke:#1f77b4;" x="292.424145" xlink:href="#ma8f45a6548" y="78.110114"/>
     <use style="fill:#1f77b4;stroke:#1f77b4;" x="226.80793" xlink:href="#ma8f45a6548" y="108.021584"/>
     <use style="fill:#1f77b4;stroke:#1f77b4;" x="234.340034" xlink:href="#ma8f45a6548" y="119.300133"/>
     <use style="fill:#1f77b4;stroke:#1f77b4;" x="227.821867" xlink:href="#ma8f45a6548" y="114.259872"/>
     <use style="fill:#1f77b4;stroke:#1f77b4;" x="67.185259" xlink:href="#ma8f45a6548" y="149.234663"/>
     <use style="fill:#1f77b4;stroke:#1f77b4;" x="333.561022" xlink:href="#ma8f45a6548" y="68.295751"/>
     <use style="fill:#1f77b4;stroke:#1f77b4;" x="277.359937" xlink:href="#ma8f45a6548" y="87.428823"/>
     <use style="fill:#1f77b4;stroke:#1f77b4;" x="226.80793" xlink:href="#ma8f45a6548" y="104.391036"/>
     <use style="fill:#1f77b4;stroke:#1f77b4;" x="448.715308" xlink:href="#ma8f45a6548" y="67.942019"/>
     <use style="fill:#1f77b4;stroke:#1f77b4;" x="168.434122" xlink:href="#ma8f45a6548" y="127.97979"/>
     <use style="fill:#1f77b4;stroke:#1f77b4;" x="123.531193" xlink:href="#ma8f45a6548" y="142.484826"/>
     <use style="fill:#1f77b4;stroke:#1f77b4;" x="109.191225" xlink:href="#ma8f45a6548" y="143.610344"/>
     <use style="fill:#1f77b4;stroke:#1f77b4;" x="152.211128" xlink:href="#ma8f45a6548" y="125.101697"/>
     <use style="fill:#1f77b4;stroke:#1f77b4;" x="323.566499" xlink:href="#ma8f45a6548" y="87.608711"/>
     <use style="fill:#1f77b4;stroke:#1f77b4;" x="333.561022" xlink:href="#ma8f45a6548" y="76.856604"/>
     <use style="fill:#1f77b4;stroke:#1f77b4;" x="244.334557" xlink:href="#ma8f45a6548" y="100.955343"/>
     <use style="fill:#1f77b4;stroke:#1f77b4;" x="181.615304" xlink:href="#ma8f45a6548" y="122.605933"/>
     <use style="fill:#1f77b4;stroke:#1f77b4;" x="96.734284" xlink:href="#ma8f45a6548" y="144.939195"/>
     <use style="fill:#1f77b4;stroke:#1f77b4;" x="386.285752" xlink:href="#ma8f45a6548" y="57.599094"/>
     <use style="fill:#1f77b4;stroke:#1f77b4;" x="407.868127" xlink:href="#ma8f45a6548" y="62.774185"/>
     <use style="fill:#1f77b4;stroke:#1f77b4;" x="151.921432" xlink:href="#ma8f45a6548" y="132.635371"/>
     <use style="fill:#1f77b4;stroke:#1f77b4;" x="386.285752" xlink:href="#ma8f45a6548" y="78.415551"/>
     <use style="fill:#1f77b4;stroke:#1f77b4;" x="113.246974" xlink:href="#ma8f45a6548" y="139.455552"/>
     <use style="fill:#1f77b4;stroke:#1f77b4;" x="123.531193" xlink:href="#ma8f45a6548" y="145.16176"/>
     <use style="fill:#1f77b4;stroke:#1f77b4;" x="345.293723" xlink:href="#ma8f45a6548" y="88.196813"/>
     <use style="fill:#1f77b4;stroke:#1f77b4;" x="123.531193" xlink:href="#ma8f45a6548" y="140.305603"/>
     <use style="fill:#1f77b4;stroke:#1f77b4;" x="227.821867" xlink:href="#ma8f45a6548" y="99.750191"/>
     <use style="fill:#1f77b4;stroke:#1f77b4;" x="96.734284" xlink:href="#ma8f45a6548" y="143.760498"/>
     <use style="fill:#1f77b4;stroke:#1f77b4;" x="344.279786" xlink:href="#ma8f45a6548" y="70.068016"/>
     <use style="fill:#1f77b4;stroke:#1f77b4;" x="67.185259" xlink:href="#ma8f45a6548" y="148.846375"/>
     <use style="fill:#1f77b4;stroke:#1f77b4;" x="226.80793" xlink:href="#ma8f45a6548" y="107.231644"/>
     <use style="fill:#1f77b4;stroke:#1f77b4;" x="213.047355" xlink:href="#ma8f45a6548" y="108.863346"/>
     <use style="fill:#1f77b4;stroke:#1f77b4;" x="363.544591" xlink:href="#ma8f45a6548" y="83.093813"/>
     <use style="fill:#1f77b4;stroke:#1f77b4;" x="318.78651" xlink:href="#ma8f45a6548" y="75.706238"/>
     <use style="fill:#1f77b4;stroke:#1f77b4;" x="227.821867" xlink:href="#ma8f45a6548" y="109.21682"/>
     <use style="fill:#1f77b4;stroke:#1f77b4;" x="152.06628" xlink:href="#ma8f45a6548" y="129.912299"/>
     <use style="fill:#1f77b4;stroke:#1f77b4;" x="123.531193" xlink:href="#ma8f45a6548" y="142.870025"/>
     <use style="fill:#1f77b4;stroke:#1f77b4;" x="333.561022" xlink:href="#ma8f45a6548" y="88.595814"/>
     <use style="fill:#1f77b4;stroke:#1f77b4;" x="323.566499" xlink:href="#ma8f45a6548" y="72.586015"/>
     <use style="fill:#1f77b4;stroke:#1f77b4;" x="109.480922" xlink:href="#ma8f45a6548" y="141.129947"/>
     <use style="fill:#1f77b4;stroke:#1f77b4;" x="109.480922" xlink:href="#ma8f45a6548" y="141.776295"/>
     <use style="fill:#1f77b4;stroke:#1f77b4;" x="424.235969" xlink:href="#ma8f45a6548" y="68.737949"/>
     <use style="fill:#1f77b4;stroke:#1f77b4;" x="302.27382" xlink:href="#ma8f45a6548" y="89.892826"/>
     <use style="fill:#1f77b4;stroke:#1f77b4;" x="152.06628" xlink:href="#ma8f45a6548" y="131.526176"/>
     <use style="fill:#1f77b4;stroke:#1f77b4;" x="153.225065" xlink:href="#ma8f45a6548" y="118.691864"/>
     <use style="fill:#1f77b4;stroke:#1f77b4;" x="189.00256" xlink:href="#ma8f45a6548" y="123.013701"/>
     <use style="fill:#1f77b4;stroke:#1f77b4;" x="234.340034" xlink:href="#ma8f45a6548" y="110.295462"/>
     <use style="fill:#1f77b4;stroke:#1f77b4;" x="287.933852" xlink:href="#ma8f45a6548" y="87.098965"/>
     <use style="fill:#1f77b4;stroke:#1f77b4;" x="109.480922" xlink:href="#ma8f45a6548" y="140.562822"/>
     <use style="fill:#1f77b4;stroke:#1f77b4;" x="363.544591" xlink:href="#ma8f45a6548" y="77.404496"/>
     <use style="fill:#1f77b4;stroke:#1f77b4;" x="226.80793" xlink:href="#ma8f45a6548" y="100.390146"/>
     <use style="fill:#1f77b4;stroke:#1f77b4;" x="69.068285" xlink:href="#ma8f45a6548" y="151.435785"/>
     <use style="fill:#1f77b4;stroke:#1f77b4;" x="345.293723" xlink:href="#ma8f45a6548" y="76.928719"/>
     <use style="fill:#1f77b4;stroke:#1f77b4;" x="140.043883" xlink:href="#ma8f45a6548" y="141.502912"/>
     <use style="fill:#1f77b4;stroke:#1f77b4;" x="436.403215" xlink:href="#ma8f45a6548" y="69.721947"/>
     <use style="fill:#1f77b4;stroke:#1f77b4;" x="407.868127" xlink:href="#ma8f45a6548" y="58.002905"/>
     <use style="fill:#1f77b4;stroke:#1f77b4;" x="87.60885" xlink:href="#ma8f45a6548" y="146.42293"/>
     <use style="fill:#1f77b4;stroke:#1f77b4;" x="96.734284" xlink:href="#ma8f45a6548" y="142.170815"/>
     <use style="fill:#1f77b4;stroke:#1f77b4;" x="287.933852" xlink:href="#ma8f45a6548" y="98.642459"/>
     <use style="fill:#1f77b4;stroke:#1f77b4;" x="181.615304" xlink:href="#ma8f45a6548" y="116.989008"/>
     <use style="fill:#1f77b4;stroke:#1f77b4;" x="109.191225" xlink:href="#ma8f45a6548" y="141.212493"/>
     <use style="fill:#1f77b4;stroke:#1f77b4;" x="302.27382" xlink:href="#ma8f45a6548" y="89.871509"/>
     <use style="fill:#1f77b4;stroke:#1f77b4;" x="123.531193" xlink:href="#ma8f45a6548" y="140.445016"/>
     <use style="fill:#1f77b4;stroke:#1f77b4;" x="152.211128" xlink:href="#ma8f45a6548" y="129.049611"/>
     <use style="fill:#1f77b4;stroke:#1f77b4;" x="286.919915" xlink:href="#ma8f45a6548" y="83.085603"/>
     <use style="fill:#1f77b4;stroke:#1f77b4;" x="87.60885" xlink:href="#ma8f45a6548" y="145.236847"/>
     <use style="fill:#1f77b4;stroke:#1f77b4;" x="151.921432" xlink:href="#ma8f45a6548" y="133.884224"/>
     <use style="fill:#1f77b4;stroke:#1f77b4;" x="363.544591" xlink:href="#ma8f45a6548" y="74.727589"/>
     <use style="fill:#1f77b4;stroke:#1f77b4;" x="69.068285" xlink:href="#ma8f45a6548" y="152.65204"/>
     <use style="fill:#1f77b4;stroke:#1f77b4;" x="109.480922" xlink:href="#ma8f45a6548" y="141.011182"/>
     <use style="fill:#1f77b4;stroke:#1f77b4;" x="227.821867" xlink:href="#ma8f45a6548" y="103.47848"/>
     <use style="fill:#1f77b4;stroke:#1f77b4;" x="109.480922" xlink:href="#ma8f45a6548" y="139.457819"/>
     <use style="fill:#1f77b4;stroke:#1f77b4;" x="67.185259" xlink:href="#ma8f45a6548" y="151.004031"/>
     <use style="fill:#1f77b4;stroke:#1f77b4;" x="219.565522" xlink:href="#ma8f45a6548" y="100.718323"/>
     <use style="fill:#1f77b4;stroke:#1f77b4;" x="123.531193" xlink:href="#ma8f45a6548" y="140.373585"/>
     <use style="fill:#1f77b4;stroke:#1f77b4;" x="300.970187" xlink:href="#ma8f45a6548" y="74.591914"/>
     <use style="fill:#1f77b4;stroke:#1f77b4;" x="113.246974" xlink:href="#ma8f45a6548" y="140.107604"/>
     <use style="fill:#1f77b4;stroke:#1f77b4;" x="261.861184" xlink:href="#ma8f45a6548" y="96.313489"/>
     <use style="fill:#1f77b4;stroke:#1f77b4;" x="344.279786" xlink:href="#ma8f45a6548" y="80.470363"/>
     <use style="fill:#1f77b4;stroke:#1f77b4;" x="67.185259" xlink:href="#ma8f45a6548" y="150.549708"/>
     <use style="fill:#1f77b4;stroke:#1f77b4;" x="256.501802" xlink:href="#ma8f45a6548" y="107.571409"/>
     <use style="fill:#1f77b4;stroke:#1f77b4;" x="323.566499" xlink:href="#ma8f45a6548" y="89.999731"/>
     <use style="fill:#1f77b4;stroke:#1f77b4;" x="170.751692" xlink:href="#ma8f45a6548" y="128.853766"/>
     <use style="fill:#1f77b4;stroke:#1f77b4;" x="344.279786" xlink:href="#ma8f45a6548" y="70.839947"/>
     <use style="fill:#1f77b4;stroke:#1f77b4;" x="363.544591" xlink:href="#ma8f45a6548" y="86.310065"/>
     <use style="fill:#1f77b4;stroke:#1f77b4;" x="181.615304" xlink:href="#ma8f45a6548" y="120.597512"/>
     <use style="fill:#1f77b4;stroke:#1f77b4;" x="227.821867" xlink:href="#ma8f45a6548" y="113.408452"/>
     <use style="fill:#1f77b4;stroke:#1f77b4;" x="189.00256" xlink:href="#ma8f45a6548" y="115.946885"/>
     <use style="fill:#1f77b4;stroke:#1f77b4;" x="333.561022" xlink:href="#ma8f45a6548" y="86.164443"/>
     <use style="fill:#1f77b4;stroke:#1f77b4;" x="397.43906" xlink:href="#ma8f45a6548" y="61.236806"/>
     <use style="fill:#1f77b4;stroke:#1f77b4;" x="152.211128" xlink:href="#ma8f45a6548" y="127.364178"/>
     <use style="fill:#1f77b4;stroke:#1f77b4;" x="351.667042" xlink:href="#ma8f45a6548" y="65.627712"/>
     <use style="fill:#1f77b4;stroke:#1f77b4;" x="168.434122" xlink:href="#ma8f45a6548" y="122.78502"/>
     <use style="fill:#1f77b4;stroke:#1f77b4;" x="96.734284" xlink:href="#ma8f45a6548" y="145.507039"/>
     <use style="fill:#1f77b4;stroke:#1f77b4;" x="168.434122" xlink:href="#ma8f45a6548" y="122.055301"/>
     <use style="fill:#1f77b4;stroke:#1f77b4;" x="181.615304" xlink:href="#ma8f45a6548" y="118.099665"/>
     <use style="fill:#1f77b4;stroke:#1f77b4;" x="318.78651" xlink:href="#ma8f45a6548" y="75.881091"/>
     <use style="fill:#1f77b4;stroke:#1f77b4;" x="386.285752" xlink:href="#ma8f45a6548" y="67.965572"/>
     <use style="fill:#1f77b4;stroke:#1f77b4;" x="318.78651" xlink:href="#ma8f45a6548" y="95.594296"/>
     <use style="fill:#1f77b4;stroke:#1f77b4;" x="249.693939" xlink:href="#ma8f45a6548" y="99.741284"/>
     <use style="fill:#1f77b4;stroke:#1f77b4;" x="69.068285" xlink:href="#ma8f45a6548" y="150.1055"/>
     <use style="fill:#1f77b4;stroke:#1f77b4;" x="67.185259" xlink:href="#ma8f45a6548" y="150.828103"/>
     <use style="fill:#1f77b4;stroke:#1f77b4;" x="363.544591" xlink:href="#ma8f45a6548" y="78.604236"/>
     <use style="fill:#1f77b4;stroke:#1f77b4;" x="87.60885" xlink:href="#ma8f45a6548" y="145.200961"/>
     <use style="fill:#1f77b4;stroke:#1f77b4;" x="91.664598" xlink:href="#ma8f45a6548" y="143.634191"/>
     <use style="fill:#1f77b4;stroke:#1f77b4;" x="256.501802" xlink:href="#ma8f45a6548" y="94.73486"/>
     <use style="fill:#1f77b4;stroke:#1f77b4;" x="244.334557" xlink:href="#ma8f45a6548" y="104.540294"/>
     <use style="fill:#1f77b4;stroke:#1f77b4;" x="168.434122" xlink:href="#ma8f45a6548" y="121.354097"/>
     <use style="fill:#1f77b4;stroke:#1f77b4;" x="67.185259" xlink:href="#ma8f45a6548" y="150.18988"/>
     <use style="fill:#1f77b4;stroke:#1f77b4;" x="162.350499" xlink:href="#ma8f45a6548" y="133.504378"/>
     <use style="fill:#1f77b4;stroke:#1f77b4;" x="302.27382" xlink:href="#ma8f45a6548" y="89.889714"/>
     <use style="fill:#1f77b4;stroke:#1f77b4;" x="109.191225" xlink:href="#ma8f45a6548" y="138.608002"/>
     <use style="fill:#1f77b4;stroke:#1f77b4;" x="67.185259" xlink:href="#ma8f45a6548" y="149.392824"/>
     <use style="fill:#1f77b4;stroke:#1f77b4;" x="96.734284" xlink:href="#ma8f45a6548" y="147.106539"/>
     <use style="fill:#1f77b4;stroke:#1f77b4;" x="436.403215" xlink:href="#ma8f45a6548" y="59.762752"/>
     <use style="fill:#1f77b4;stroke:#1f77b4;" x="109.480922" xlink:href="#ma8f45a6548" y="142.751515"/>
     <use style="fill:#1f77b4;stroke:#1f77b4;" x="113.246974" xlink:href="#ma8f45a6548" y="140.297267"/>
     <use style="fill:#1f77b4;stroke:#1f77b4;" x="302.27382" xlink:href="#ma8f45a6548" y="73.666698"/>
     <use style="fill:#1f77b4;stroke:#1f77b4;" x="345.293723" xlink:href="#ma8f45a6548" y="77.140747"/>
     <use style="fill:#1f77b4;stroke:#1f77b4;" x="191.030435" xlink:href="#ma8f45a6548" y="115.551856"/>
     <use style="fill:#1f77b4;stroke:#1f77b4;" x="234.340034" xlink:href="#ma8f45a6548" y="112.92416"/>
     <use style="fill:#1f77b4;stroke:#1f77b4;" x="67.185259" xlink:href="#ma8f45a6548" y="150.011837"/>
     <use style="fill:#1f77b4;stroke:#1f77b4;" x="123.531193" xlink:href="#ma8f45a6548" y="141.530317"/>
     <use style="fill:#1f77b4;stroke:#1f77b4;" x="140.043883" xlink:href="#ma8f45a6548" y="141.589149"/>
     <use style="fill:#1f77b4;stroke:#1f77b4;" x="300.970187" xlink:href="#ma8f45a6548" y="69.791513"/>
     <use style="fill:#1f77b4;stroke:#1f77b4;" x="140.043883" xlink:href="#ma8f45a6548" y="138.343139"/>
     <use style="fill:#1f77b4;stroke:#1f77b4;" x="436.403215" xlink:href="#ma8f45a6548" y="35.249036"/>
     <use style="fill:#1f77b4;stroke:#1f77b4;" x="67.185259" xlink:href="#ma8f45a6548" y="149.981172"/>
     <use style="fill:#1f77b4;stroke:#1f77b4;" x="448.715308" xlink:href="#ma8f45a6548" y="55.540607"/>
     <use style="fill:#1f77b4;stroke:#1f77b4;" x="382.809396" xlink:href="#ma8f45a6548" y="71.342647"/>
     <use style="fill:#1f77b4;stroke:#1f77b4;" x="345.293723" xlink:href="#ma8f45a6548" y="88.461515"/>
     <use style="fill:#1f77b4;stroke:#1f77b4;" x="226.80793" xlink:href="#ma8f45a6548" y="97.683836"/>
     <use style="fill:#1f77b4;stroke:#1f77b4;" x="300.970187" xlink:href="#ma8f45a6548" y="74.486619"/>
     <use style="fill:#1f77b4;stroke:#1f77b4;" x="287.933852" xlink:href="#ma8f45a6548" y="97.315864"/>
     <use style="fill:#1f77b4;stroke:#1f77b4;" x="96.734284" xlink:href="#ma8f45a6548" y="142.149615"/>
     <use style="fill:#1f77b4;stroke:#1f77b4;" x="256.501802" xlink:href="#ma8f45a6548" y="93.435885"/>
     <use style="fill:#1f77b4;stroke:#1f77b4;" x="91.664598" xlink:href="#ma8f45a6548" y="143.514645"/>
     <use style="fill:#1f77b4;stroke:#1f77b4;" x="382.809396" xlink:href="#ma8f45a6548" y="64.237158"/>
     <use style="fill:#1f77b4;stroke:#1f77b4;" x="256.501802" xlink:href="#ma8f45a6548" y="105.229795"/>
     <use style="fill:#1f77b4;stroke:#1f77b4;" x="323.566499" xlink:href="#ma8f45a6548" y="79.520851"/>
     <use style="fill:#1f77b4;stroke:#1f77b4;" x="152.211128" xlink:href="#ma8f45a6548" y="127.013531"/>
     <use style="fill:#1f77b4;stroke:#1f77b4;" x="153.225065" xlink:href="#ma8f45a6548" y="125.862148"/>
     <use style="fill:#1f77b4;stroke:#1f77b4;" x="227.821867" xlink:href="#ma8f45a6548" y="111.484396"/>
     <use style="fill:#1f77b4;stroke:#1f77b4;" x="69.068285" xlink:href="#ma8f45a6548" y="152.000842"/>
     <use style="fill:#1f77b4;stroke:#1f77b4;" x="234.340034" xlink:href="#ma8f45a6548" y="108.503257"/>
     <use style="fill:#1f77b4;stroke:#1f77b4;" x="91.664598" xlink:href="#ma8f45a6548" y="144.841169"/>
     <use style="fill:#1f77b4;stroke:#1f77b4;" x="292.424145" xlink:href="#ma8f45a6548" y="92.677413"/>
     <use style="fill:#1f77b4;stroke:#1f77b4;" x="113.246974" xlink:href="#ma8f45a6548" y="141.508229"/>
     <use style="fill:#1f77b4;stroke:#1f77b4;" x="333.561022" xlink:href="#ma8f45a6548" y="68.455401"/>
     <use style="fill:#1f77b4;stroke:#1f77b4;" x="181.615304" xlink:href="#ma8f45a6548" y="118.263131"/>
     <use style="fill:#1f77b4;stroke:#1f77b4;" x="363.544591" xlink:href="#ma8f45a6548" y="71.277914"/>
     <use style="fill:#1f77b4;stroke:#1f77b4;" x="152.06628" xlink:href="#ma8f45a6548" y="135.920527"/>
     <use style="fill:#1f77b4;stroke:#1f77b4;" x="227.821867" xlink:href="#ma8f45a6548" y="106.651886"/>
     <use style="fill:#1f77b4;stroke:#1f77b4;" x="318.78651" xlink:href="#ma8f45a6548" y="81.949868"/>
     <use style="fill:#1f77b4;stroke:#1f77b4;" x="363.544591" xlink:href="#ma8f45a6548" y="68.808734"/>
     <use style="fill:#1f77b4;stroke:#1f77b4;" x="109.191225" xlink:href="#ma8f45a6548" y="142.951254"/>
     <use style="fill:#1f77b4;stroke:#1f77b4;" x="256.501802" xlink:href="#ma8f45a6548" y="96.325626"/>
     <use style="fill:#1f77b4;stroke:#1f77b4;" x="91.664598" xlink:href="#ma8f45a6548" y="145.756114"/>
     <use style="fill:#1f77b4;stroke:#1f77b4;" x="191.030435" xlink:href="#ma8f45a6548" y="112.581125"/>
     <use style="fill:#1f77b4;stroke:#1f77b4;" x="249.693939" xlink:href="#ma8f45a6548" y="99.803765"/>
     <use style="fill:#1f77b4;stroke:#1f77b4;" x="213.047355" xlink:href="#ma8f45a6548" y="101.568108"/>
     <use style="fill:#1f77b4;stroke:#1f77b4;" x="213.047355" xlink:href="#ma8f45a6548" y="110.938201"/>
     <use style="fill:#1f77b4;stroke:#1f77b4;" x="168.434122" xlink:href="#ma8f45a6548" y="123.885855"/>
     <use style="fill:#1f77b4;stroke:#1f77b4;" x="151.921432" xlink:href="#ma8f45a6548" y="135.693919"/>
     <use style="fill:#1f77b4;stroke:#1f77b4;" x="292.424145" xlink:href="#ma8f45a6548" y="90.403902"/>
     <use style="fill:#1f77b4;stroke:#1f77b4;" x="162.350499" xlink:href="#ma8f45a6548" y="129.706785"/>
     <use style="fill:#1f77b4;stroke:#1f77b4;" x="333.561022" xlink:href="#ma8f45a6548" y="71.347605"/>
    </g>
   </g>
   <g id="matplotlib.axis_1">
    <g id="xtick_1">
     <g id="line2d_1">
      <path clip-path="url(#p92763e0891)" d="M 95.285802 191.6775 
L 95.285802 25.3575 
" style="fill:none;stroke:#b0b0b0;stroke-linecap:square;stroke-width:0.8;"/>
     </g>
     <g id="line2d_2">
      <defs>
       <path d="M 0 0 
L 0 3.5 
" id="m2042c86422" style="stroke:#000000;stroke-width:0.8;"/>
      </defs>
      <g>
       <use style="stroke:#000000;stroke-width:0.8;" x="95.285802" xlink:href="#m2042c86422" y="191.6775"/>
      </g>
     </g>
     <g id="text_1">
      <!-- 10 -->
      <defs>
       <path d="M 12.40625 8.296875 
L 28.515625 8.296875 
L 28.515625 63.921875 
L 10.984375 60.40625 
L 10.984375 69.390625 
L 28.421875 72.90625 
L 38.28125 72.90625 
L 38.28125 8.296875 
L 54.390625 8.296875 
L 54.390625 0 
L 12.40625 0 
z
" id="DejaVuSans-49"/>
       <path d="M 31.78125 66.40625 
Q 24.171875 66.40625 20.328125 58.90625 
Q 16.5 51.421875 16.5 36.375 
Q 16.5 21.390625 20.328125 13.890625 
Q 24.171875 6.390625 31.78125 6.390625 
Q 39.453125 6.390625 43.28125 13.890625 
Q 47.125 21.390625 47.125 36.375 
Q 47.125 51.421875 43.28125 58.90625 
Q 39.453125 66.40625 31.78125 66.40625 
z
M 31.78125 74.21875 
Q 44.046875 74.21875 50.515625 64.515625 
Q 56.984375 54.828125 56.984375 36.375 
Q 56.984375 17.96875 50.515625 8.265625 
Q 44.046875 -1.421875 31.78125 -1.421875 
Q 19.53125 -1.421875 13.0625 8.265625 
Q 6.59375 17.96875 6.59375 36.375 
Q 6.59375 54.828125 13.0625 64.515625 
Q 19.53125 74.21875 31.78125 74.21875 
z
" id="DejaVuSans-48"/>
      </defs>
      <g transform="translate(88.923302 206.275938)scale(0.1 -0.1)">
       <use xlink:href="#DejaVuSans-49"/>
       <use x="63.623047" xlink:href="#DejaVuSans-48"/>
      </g>
     </g>
    </g>
    <g id="xtick_2">
     <g id="line2d_3">
      <path clip-path="url(#p92763e0891)" d="M 167.709881 191.6775 
L 167.709881 25.3575 
" style="fill:none;stroke:#b0b0b0;stroke-linecap:square;stroke-width:0.8;"/>
     </g>
     <g id="line2d_4">
      <g>
       <use style="stroke:#000000;stroke-width:0.8;" x="167.709881" xlink:href="#m2042c86422" y="191.6775"/>
      </g>
     </g>
     <g id="text_2">
      <!-- 15 -->
      <defs>
       <path d="M 10.796875 72.90625 
L 49.515625 72.90625 
L 49.515625 64.59375 
L 19.828125 64.59375 
L 19.828125 46.734375 
Q 21.96875 47.46875 24.109375 47.828125 
Q 26.265625 48.1875 28.421875 48.1875 
Q 40.625 48.1875 47.75 41.5 
Q 54.890625 34.8125 54.890625 23.390625 
Q 54.890625 11.625 47.5625 5.09375 
Q 40.234375 -1.421875 26.90625 -1.421875 
Q 22.3125 -1.421875 17.546875 -0.640625 
Q 12.796875 0.140625 7.71875 1.703125 
L 7.71875 11.625 
Q 12.109375 9.234375 16.796875 8.0625 
Q 21.484375 6.890625 26.703125 6.890625 
Q 35.15625 6.890625 40.078125 11.328125 
Q 45.015625 15.765625 45.015625 23.390625 
Q 45.015625 31 40.078125 35.4375 
Q 35.15625 39.890625 26.703125 39.890625 
Q 22.75 39.890625 18.8125 39.015625 
Q 14.890625 38.140625 10.796875 36.28125 
z
" id="DejaVuSans-53"/>
      </defs>
      <g transform="translate(161.347381 206.275938)scale(0.1 -0.1)">
       <use xlink:href="#DejaVuSans-49"/>
       <use x="63.623047" xlink:href="#DejaVuSans-53"/>
      </g>
     </g>
    </g>
    <g id="xtick_3">
     <g id="line2d_5">
      <path clip-path="url(#p92763e0891)" d="M 240.13396 191.6775 
L 240.13396 25.3575 
" style="fill:none;stroke:#b0b0b0;stroke-linecap:square;stroke-width:0.8;"/>
     </g>
     <g id="line2d_6">
      <g>
       <use style="stroke:#000000;stroke-width:0.8;" x="240.13396" xlink:href="#m2042c86422" y="191.6775"/>
      </g>
     </g>
     <g id="text_3">
      <!-- 20 -->
      <defs>
       <path d="M 19.1875 8.296875 
L 53.609375 8.296875 
L 53.609375 0 
L 7.328125 0 
L 7.328125 8.296875 
Q 12.9375 14.109375 22.625 23.890625 
Q 32.328125 33.6875 34.8125 36.53125 
Q 39.546875 41.84375 41.421875 45.53125 
Q 43.3125 49.21875 43.3125 52.78125 
Q 43.3125 58.59375 39.234375 62.25 
Q 35.15625 65.921875 28.609375 65.921875 
Q 23.96875 65.921875 18.8125 64.3125 
Q 13.671875 62.703125 7.8125 59.421875 
L 7.8125 69.390625 
Q 13.765625 71.78125 18.9375 73 
Q 24.125 74.21875 28.421875 74.21875 
Q 39.75 74.21875 46.484375 68.546875 
Q 53.21875 62.890625 53.21875 53.421875 
Q 53.21875 48.921875 51.53125 44.890625 
Q 49.859375 40.875 45.40625 35.40625 
Q 44.1875 33.984375 37.640625 27.21875 
Q 31.109375 20.453125 19.1875 8.296875 
z
" id="DejaVuSans-50"/>
      </defs>
      <g transform="translate(233.77146 206.275938)scale(0.1 -0.1)">
       <use xlink:href="#DejaVuSans-50"/>
       <use x="63.623047" xlink:href="#DejaVuSans-48"/>
      </g>
     </g>
    </g>
    <g id="xtick_4">
     <g id="line2d_7">
      <path clip-path="url(#p92763e0891)" d="M 312.558039 191.6775 
L 312.558039 25.3575 
" style="fill:none;stroke:#b0b0b0;stroke-linecap:square;stroke-width:0.8;"/>
     </g>
     <g id="line2d_8">
      <g>
       <use style="stroke:#000000;stroke-width:0.8;" x="312.558039" xlink:href="#m2042c86422" y="191.6775"/>
      </g>
     </g>
     <g id="text_4">
      <!-- 25 -->
      <g transform="translate(306.195539 206.275938)scale(0.1 -0.1)">
       <use xlink:href="#DejaVuSans-50"/>
       <use x="63.623047" xlink:href="#DejaVuSans-53"/>
      </g>
     </g>
    </g>
    <g id="xtick_5">
     <g id="line2d_9">
      <path clip-path="url(#p92763e0891)" d="M 384.982118 191.6775 
L 384.982118 25.3575 
" style="fill:none;stroke:#b0b0b0;stroke-linecap:square;stroke-width:0.8;"/>
     </g>
     <g id="line2d_10">
      <g>
       <use style="stroke:#000000;stroke-width:0.8;" x="384.982118" xlink:href="#m2042c86422" y="191.6775"/>
      </g>
     </g>
     <g id="text_5">
      <!-- 30 -->
      <defs>
       <path d="M 40.578125 39.3125 
Q 47.65625 37.796875 51.625 33 
Q 55.609375 28.21875 55.609375 21.1875 
Q 55.609375 10.40625 48.1875 4.484375 
Q 40.765625 -1.421875 27.09375 -1.421875 
Q 22.515625 -1.421875 17.65625 -0.515625 
Q 12.796875 0.390625 7.625 2.203125 
L 7.625 11.71875 
Q 11.71875 9.328125 16.59375 8.109375 
Q 21.484375 6.890625 26.8125 6.890625 
Q 36.078125 6.890625 40.9375 10.546875 
Q 45.796875 14.203125 45.796875 21.1875 
Q 45.796875 27.640625 41.28125 31.265625 
Q 36.765625 34.90625 28.71875 34.90625 
L 20.21875 34.90625 
L 20.21875 43.015625 
L 29.109375 43.015625 
Q 36.375 43.015625 40.234375 45.921875 
Q 44.09375 48.828125 44.09375 54.296875 
Q 44.09375 59.90625 40.109375 62.90625 
Q 36.140625 65.921875 28.71875 65.921875 
Q 24.65625 65.921875 20.015625 65.03125 
Q 15.375 64.15625 9.8125 62.3125 
L 9.8125 71.09375 
Q 15.4375 72.65625 20.34375 73.4375 
Q 25.25 74.21875 29.59375 74.21875 
Q 40.828125 74.21875 47.359375 69.109375 
Q 53.90625 64.015625 53.90625 55.328125 
Q 53.90625 49.265625 50.4375 45.09375 
Q 46.96875 40.921875 40.578125 39.3125 
z
" id="DejaVuSans-51"/>
      </defs>
      <g transform="translate(378.619618 206.275938)scale(0.1 -0.1)">
       <use xlink:href="#DejaVuSans-51"/>
       <use x="63.623047" xlink:href="#DejaVuSans-48"/>
      </g>
     </g>
    </g>
    <g id="xtick_6">
     <g id="line2d_11">
      <path clip-path="url(#p92763e0891)" d="M 457.406198 191.6775 
L 457.406198 25.3575 
" style="fill:none;stroke:#b0b0b0;stroke-linecap:square;stroke-width:0.8;"/>
     </g>
     <g id="line2d_12">
      <g>
       <use style="stroke:#000000;stroke-width:0.8;" x="457.406198" xlink:href="#m2042c86422" y="191.6775"/>
      </g>
     </g>
     <g id="text_6">
      <!-- 35 -->
      <g transform="translate(451.043698 206.275938)scale(0.1 -0.1)">
       <use xlink:href="#DejaVuSans-51"/>
       <use x="63.623047" xlink:href="#DejaVuSans-53"/>
      </g>
     </g>
    </g>
    <g id="text_7">
     <!-- Predictions -->
     <defs>
      <path d="M 19.671875 64.796875 
L 19.671875 37.40625 
L 32.078125 37.40625 
Q 38.96875 37.40625 42.71875 40.96875 
Q 46.484375 44.53125 46.484375 51.125 
Q 46.484375 57.671875 42.71875 61.234375 
Q 38.96875 64.796875 32.078125 64.796875 
z
M 9.8125 72.90625 
L 32.078125 72.90625 
Q 44.34375 72.90625 50.609375 67.359375 
Q 56.890625 61.8125 56.890625 51.125 
Q 56.890625 40.328125 50.609375 34.8125 
Q 44.34375 29.296875 32.078125 29.296875 
L 19.671875 29.296875 
L 19.671875 0 
L 9.8125 0 
z
" id="DejaVuSans-80"/>
      <path d="M 41.109375 46.296875 
Q 39.59375 47.171875 37.8125 47.578125 
Q 36.03125 48 33.890625 48 
Q 26.265625 48 22.1875 43.046875 
Q 18.109375 38.09375 18.109375 28.8125 
L 18.109375 0 
L 9.078125 0 
L 9.078125 54.6875 
L 18.109375 54.6875 
L 18.109375 46.1875 
Q 20.953125 51.171875 25.484375 53.578125 
Q 30.03125 56 36.53125 56 
Q 37.453125 56 38.578125 55.875 
Q 39.703125 55.765625 41.0625 55.515625 
z
" id="DejaVuSans-114"/>
      <path d="M 56.203125 29.59375 
L 56.203125 25.203125 
L 14.890625 25.203125 
Q 15.484375 15.921875 20.484375 11.0625 
Q 25.484375 6.203125 34.421875 6.203125 
Q 39.59375 6.203125 44.453125 7.46875 
Q 49.3125 8.734375 54.109375 11.28125 
L 54.109375 2.78125 
Q 49.265625 0.734375 44.1875 -0.34375 
Q 39.109375 -1.421875 33.890625 -1.421875 
Q 20.796875 -1.421875 13.15625 6.1875 
Q 5.515625 13.8125 5.515625 26.8125 
Q 5.515625 40.234375 12.765625 48.109375 
Q 20.015625 56 32.328125 56 
Q 43.359375 56 49.78125 48.890625 
Q 56.203125 41.796875 56.203125 29.59375 
z
M 47.21875 32.234375 
Q 47.125 39.59375 43.09375 43.984375 
Q 39.0625 48.390625 32.421875 48.390625 
Q 24.90625 48.390625 20.390625 44.140625 
Q 15.875 39.890625 15.1875 32.171875 
z
" id="DejaVuSans-101"/>
      <path d="M 45.40625 46.390625 
L 45.40625 75.984375 
L 54.390625 75.984375 
L 54.390625 0 
L 45.40625 0 
L 45.40625 8.203125 
Q 42.578125 3.328125 38.25 0.953125 
Q 33.9375 -1.421875 27.875 -1.421875 
Q 17.96875 -1.421875 11.734375 6.484375 
Q 5.515625 14.40625 5.515625 27.296875 
Q 5.515625 40.1875 11.734375 48.09375 
Q 17.96875 56 27.875 56 
Q 33.9375 56 38.25 53.625 
Q 42.578125 51.265625 45.40625 46.390625 
z
M 14.796875 27.296875 
Q 14.796875 17.390625 18.875 11.75 
Q 22.953125 6.109375 30.078125 6.109375 
Q 37.203125 6.109375 41.296875 11.75 
Q 45.40625 17.390625 45.40625 27.296875 
Q 45.40625 37.203125 41.296875 42.84375 
Q 37.203125 48.484375 30.078125 48.484375 
Q 22.953125 48.484375 18.875 42.84375 
Q 14.796875 37.203125 14.796875 27.296875 
z
" id="DejaVuSans-100"/>
      <path d="M 9.421875 54.6875 
L 18.40625 54.6875 
L 18.40625 0 
L 9.421875 0 
z
M 9.421875 75.984375 
L 18.40625 75.984375 
L 18.40625 64.59375 
L 9.421875 64.59375 
z
" id="DejaVuSans-105"/>
      <path d="M 48.78125 52.59375 
L 48.78125 44.1875 
Q 44.96875 46.296875 41.140625 47.34375 
Q 37.3125 48.390625 33.40625 48.390625 
Q 24.65625 48.390625 19.8125 42.84375 
Q 14.984375 37.3125 14.984375 27.296875 
Q 14.984375 17.28125 19.8125 11.734375 
Q 24.65625 6.203125 33.40625 6.203125 
Q 37.3125 6.203125 41.140625 7.25 
Q 44.96875 8.296875 48.78125 10.40625 
L 48.78125 2.09375 
Q 45.015625 0.34375 40.984375 -0.53125 
Q 36.96875 -1.421875 32.421875 -1.421875 
Q 20.0625 -1.421875 12.78125 6.34375 
Q 5.515625 14.109375 5.515625 27.296875 
Q 5.515625 40.671875 12.859375 48.328125 
Q 20.21875 56 33.015625 56 
Q 37.15625 56 41.109375 55.140625 
Q 45.0625 54.296875 48.78125 52.59375 
z
" id="DejaVuSans-99"/>
      <path d="M 18.3125 70.21875 
L 18.3125 54.6875 
L 36.8125 54.6875 
L 36.8125 47.703125 
L 18.3125 47.703125 
L 18.3125 18.015625 
Q 18.3125 11.328125 20.140625 9.421875 
Q 21.96875 7.515625 27.59375 7.515625 
L 36.8125 7.515625 
L 36.8125 0 
L 27.59375 0 
Q 17.1875 0 13.234375 3.875 
Q 9.28125 7.765625 9.28125 18.015625 
L 9.28125 47.703125 
L 2.6875 47.703125 
L 2.6875 54.6875 
L 9.28125 54.6875 
L 9.28125 70.21875 
z
" id="DejaVuSans-116"/>
      <path d="M 30.609375 48.390625 
Q 23.390625 48.390625 19.1875 42.75 
Q 14.984375 37.109375 14.984375 27.296875 
Q 14.984375 17.484375 19.15625 11.84375 
Q 23.34375 6.203125 30.609375 6.203125 
Q 37.796875 6.203125 41.984375 11.859375 
Q 46.1875 17.53125 46.1875 27.296875 
Q 46.1875 37.015625 41.984375 42.703125 
Q 37.796875 48.390625 30.609375 48.390625 
z
M 30.609375 56 
Q 42.328125 56 49.015625 48.375 
Q 55.71875 40.765625 55.71875 27.296875 
Q 55.71875 13.875 49.015625 6.21875 
Q 42.328125 -1.421875 30.609375 -1.421875 
Q 18.84375 -1.421875 12.171875 6.21875 
Q 5.515625 13.875 5.515625 27.296875 
Q 5.515625 40.765625 12.171875 48.375 
Q 18.84375 56 30.609375 56 
z
" id="DejaVuSans-111"/>
      <path d="M 54.890625 33.015625 
L 54.890625 0 
L 45.90625 0 
L 45.90625 32.71875 
Q 45.90625 40.484375 42.875 44.328125 
Q 39.84375 48.1875 33.796875 48.1875 
Q 26.515625 48.1875 22.3125 43.546875 
Q 18.109375 38.921875 18.109375 30.90625 
L 18.109375 0 
L 9.078125 0 
L 9.078125 54.6875 
L 18.109375 54.6875 
L 18.109375 46.1875 
Q 21.34375 51.125 25.703125 53.5625 
Q 30.078125 56 35.796875 56 
Q 45.21875 56 50.046875 50.171875 
Q 54.890625 44.34375 54.890625 33.015625 
z
" id="DejaVuSans-110"/>
      <path d="M 44.28125 53.078125 
L 44.28125 44.578125 
Q 40.484375 46.53125 36.375 47.5 
Q 32.28125 48.484375 27.875 48.484375 
Q 21.1875 48.484375 17.84375 46.4375 
Q 14.5 44.390625 14.5 40.28125 
Q 14.5 37.15625 16.890625 35.375 
Q 19.28125 33.59375 26.515625 31.984375 
L 29.59375 31.296875 
Q 39.15625 29.25 43.1875 25.515625 
Q 47.21875 21.78125 47.21875 15.09375 
Q 47.21875 7.46875 41.1875 3.015625 
Q 35.15625 -1.421875 24.609375 -1.421875 
Q 20.21875 -1.421875 15.453125 -0.5625 
Q 10.6875 0.296875 5.421875 2 
L 5.421875 11.28125 
Q 10.40625 8.6875 15.234375 7.390625 
Q 20.0625 6.109375 24.8125 6.109375 
Q 31.15625 6.109375 34.5625 8.28125 
Q 37.984375 10.453125 37.984375 14.40625 
Q 37.984375 18.0625 35.515625 20.015625 
Q 33.0625 21.96875 24.703125 23.78125 
L 21.578125 24.515625 
Q 13.234375 26.265625 9.515625 29.90625 
Q 5.8125 33.546875 5.8125 39.890625 
Q 5.8125 47.609375 11.28125 51.796875 
Q 16.75 56 26.8125 56 
Q 31.78125 56 36.171875 55.265625 
Q 40.578125 54.546875 44.28125 53.078125 
z
" id="DejaVuSans-115"/>
     </defs>
     <g transform="translate(228.979688 222.993438)scale(0.14 -0.14)">
      <use xlink:href="#DejaVuSans-80"/>
      <use x="60.287109" xlink:href="#DejaVuSans-114"/>
      <use x="101.369141" xlink:href="#DejaVuSans-101"/>
      <use x="162.892578" xlink:href="#DejaVuSans-100"/>
      <use x="226.369141" xlink:href="#DejaVuSans-105"/>
      <use x="254.152344" xlink:href="#DejaVuSans-99"/>
      <use x="309.132812" xlink:href="#DejaVuSans-116"/>
      <use x="348.341797" xlink:href="#DejaVuSans-105"/>
      <use x="376.125" xlink:href="#DejaVuSans-111"/>
      <use x="437.306641" xlink:href="#DejaVuSans-110"/>
      <use x="500.685547" xlink:href="#DejaVuSans-115"/>
     </g>
    </g>
   </g>
   <g id="matplotlib.axis_2">
    <g id="ytick_1">
     <g id="line2d_13">
      <path clip-path="url(#p92763e0891)" d="M 44.474375 184.1175 
L 490.874375 184.1175 
" style="fill:none;stroke:#b0b0b0;stroke-linecap:square;stroke-width:0.8;"/>
     </g>
     <g id="line2d_14">
      <defs>
       <path d="M 0 0 
L -3.5 0 
" id="mcce637e5b1" style="stroke:#000000;stroke-width:0.8;"/>
      </defs>
      <g>
       <use style="stroke:#000000;stroke-width:0.8;" x="44.474375" xlink:href="#mcce637e5b1" y="184.1175"/>
      </g>
     </g>
     <g id="text_8">
      <!-- 0 -->
      <g transform="translate(31.111875 187.916719)scale(0.1 -0.1)">
       <use xlink:href="#DejaVuSans-48"/>
      </g>
     </g>
    </g>
    <g id="ytick_2">
     <g id="line2d_15">
      <path clip-path="url(#p92763e0891)" d="M 44.474375 143.118842 
L 490.874375 143.118842 
" style="fill:none;stroke:#b0b0b0;stroke-linecap:square;stroke-width:0.8;"/>
     </g>
     <g id="line2d_16">
      <g>
       <use style="stroke:#000000;stroke-width:0.8;" x="44.474375" xlink:href="#mcce637e5b1" y="143.118842"/>
      </g>
     </g>
     <g id="text_9">
      <!-- 10 -->
      <g transform="translate(24.749375 146.91806)scale(0.1 -0.1)">
       <use xlink:href="#DejaVuSans-49"/>
       <use x="63.623047" xlink:href="#DejaVuSans-48"/>
      </g>
     </g>
    </g>
    <g id="ytick_3">
     <g id="line2d_17">
      <path clip-path="url(#p92763e0891)" d="M 44.474375 102.120183 
L 490.874375 102.120183 
" style="fill:none;stroke:#b0b0b0;stroke-linecap:square;stroke-width:0.8;"/>
     </g>
     <g id="line2d_18">
      <g>
       <use style="stroke:#000000;stroke-width:0.8;" x="44.474375" xlink:href="#mcce637e5b1" y="102.120183"/>
      </g>
     </g>
     <g id="text_10">
      <!-- 20 -->
      <g transform="translate(24.749375 105.919402)scale(0.1 -0.1)">
       <use xlink:href="#DejaVuSans-50"/>
       <use x="63.623047" xlink:href="#DejaVuSans-48"/>
      </g>
     </g>
    </g>
    <g id="ytick_4">
     <g id="line2d_19">
      <path clip-path="url(#p92763e0891)" d="M 44.474375 61.121525 
L 490.874375 61.121525 
" style="fill:none;stroke:#b0b0b0;stroke-linecap:square;stroke-width:0.8;"/>
     </g>
     <g id="line2d_20">
      <g>
       <use style="stroke:#000000;stroke-width:0.8;" x="44.474375" xlink:href="#mcce637e5b1" y="61.121525"/>
      </g>
     </g>
     <g id="text_11">
      <!-- 30 -->
      <g transform="translate(24.749375 64.920744)scale(0.1 -0.1)">
       <use xlink:href="#DejaVuSans-51"/>
       <use x="63.623047" xlink:href="#DejaVuSans-48"/>
      </g>
     </g>
    </g>
    <g id="text_12">
     <!-- Real -->
     <defs>
      <path d="M 44.390625 34.1875 
Q 47.5625 33.109375 50.5625 29.59375 
Q 53.5625 26.078125 56.59375 19.921875 
L 66.609375 0 
L 56 0 
L 46.6875 18.703125 
Q 43.0625 26.03125 39.671875 28.421875 
Q 36.28125 30.8125 30.421875 30.8125 
L 19.671875 30.8125 
L 19.671875 0 
L 9.8125 0 
L 9.8125 72.90625 
L 32.078125 72.90625 
Q 44.578125 72.90625 50.734375 67.671875 
Q 56.890625 62.453125 56.890625 51.90625 
Q 56.890625 45.015625 53.6875 40.46875 
Q 50.484375 35.9375 44.390625 34.1875 
z
M 19.671875 64.796875 
L 19.671875 38.921875 
L 32.078125 38.921875 
Q 39.203125 38.921875 42.84375 42.21875 
Q 46.484375 45.515625 46.484375 51.90625 
Q 46.484375 58.296875 42.84375 61.546875 
Q 39.203125 64.796875 32.078125 64.796875 
z
" id="DejaVuSans-82"/>
      <path d="M 34.28125 27.484375 
Q 23.390625 27.484375 19.1875 25 
Q 14.984375 22.515625 14.984375 16.5 
Q 14.984375 11.71875 18.140625 8.90625 
Q 21.296875 6.109375 26.703125 6.109375 
Q 34.1875 6.109375 38.703125 11.40625 
Q 43.21875 16.703125 43.21875 25.484375 
L 43.21875 27.484375 
z
M 52.203125 31.203125 
L 52.203125 0 
L 43.21875 0 
L 43.21875 8.296875 
Q 40.140625 3.328125 35.546875 0.953125 
Q 30.953125 -1.421875 24.3125 -1.421875 
Q 15.921875 -1.421875 10.953125 3.296875 
Q 6 8.015625 6 15.921875 
Q 6 25.140625 12.171875 29.828125 
Q 18.359375 34.515625 30.609375 34.515625 
L 43.21875 34.515625 
L 43.21875 35.40625 
Q 43.21875 41.609375 39.140625 45 
Q 35.0625 48.390625 27.6875 48.390625 
Q 23 48.390625 18.546875 47.265625 
Q 14.109375 46.140625 10.015625 43.890625 
L 10.015625 52.203125 
Q 14.9375 54.109375 19.578125 55.046875 
Q 24.21875 56 28.609375 56 
Q 40.484375 56 46.34375 49.84375 
Q 52.203125 43.703125 52.203125 31.203125 
z
" id="DejaVuSans-97"/>
      <path d="M 9.421875 75.984375 
L 18.40625 75.984375 
L 18.40625 0 
L 9.421875 0 
z
" id="DejaVuSans-108"/>
     </defs>
     <g transform="translate(17.837813 123.918594)rotate(-90)scale(0.14 -0.14)">
      <use xlink:href="#DejaVuSans-82"/>
      <use x="69.419922" xlink:href="#DejaVuSans-101"/>
      <use x="130.943359" xlink:href="#DejaVuSans-97"/>
      <use x="192.222656" xlink:href="#DejaVuSans-108"/>
     </g>
    </g>
   </g>
   <g id="line2d_21">
    <path clip-path="url(#p92763e0891)" d="M -1 170.372131 
L 476.389559 35.249036 
" style="fill:none;stroke:#1f77b4;stroke-linecap:square;stroke-width:1.5;"/>
   </g>
   <g id="line2d_22">
    <path clip-path="url(#p92763e0891)" d="M -1 167.474152 
L 477.68494 32.9175 
L 477.68494 32.9175 
" style="fill:none;stroke:#ff0000;stroke-linecap:square;stroke-width:1.5;"/>
   </g>
   <g id="patch_3">
    <path d="M 44.474375 191.6775 
L 44.474375 25.3575 
" style="fill:none;stroke:#000000;stroke-linecap:square;stroke-linejoin:miter;stroke-width:0.8;"/>
   </g>
   <g id="patch_4">
    <path d="M 490.874375 191.6775 
L 490.874375 25.3575 
" style="fill:none;stroke:#000000;stroke-linecap:square;stroke-linejoin:miter;stroke-width:0.8;"/>
   </g>
   <g id="patch_5">
    <path d="M 44.474375 191.6775 
L 490.874375 191.6775 
" style="fill:none;stroke:#000000;stroke-linecap:square;stroke-linejoin:miter;stroke-width:0.8;"/>
   </g>
   <g id="patch_6">
    <path d="M 44.474375 25.3575 
L 490.874375 25.3575 
" style="fill:none;stroke:#000000;stroke-linecap:square;stroke-linejoin:miter;stroke-width:0.8;"/>
   </g>
   <g id="text_13">
    <!-- Moisture Content -->
    <defs>
     <path d="M 9.8125 72.90625 
L 24.515625 72.90625 
L 43.109375 23.296875 
L 61.8125 72.90625 
L 76.515625 72.90625 
L 76.515625 0 
L 66.890625 0 
L 66.890625 64.015625 
L 48.09375 14.015625 
L 38.1875 14.015625 
L 19.390625 64.015625 
L 19.390625 0 
L 9.8125 0 
z
" id="DejaVuSans-77"/>
     <path d="M 8.5 21.578125 
L 8.5 54.6875 
L 17.484375 54.6875 
L 17.484375 21.921875 
Q 17.484375 14.15625 20.5 10.265625 
Q 23.53125 6.390625 29.59375 6.390625 
Q 36.859375 6.390625 41.078125 11.03125 
Q 45.3125 15.671875 45.3125 23.6875 
L 45.3125 54.6875 
L 54.296875 54.6875 
L 54.296875 0 
L 45.3125 0 
L 45.3125 8.40625 
Q 42.046875 3.421875 37.71875 1 
Q 33.40625 -1.421875 27.6875 -1.421875 
Q 18.265625 -1.421875 13.375 4.4375 
Q 8.5 10.296875 8.5 21.578125 
z
M 31.109375 56 
z
" id="DejaVuSans-117"/>
     <path id="DejaVuSans-32"/>
     <path d="M 64.40625 67.28125 
L 64.40625 56.890625 
Q 59.421875 61.53125 53.78125 63.8125 
Q 48.140625 66.109375 41.796875 66.109375 
Q 29.296875 66.109375 22.65625 58.46875 
Q 16.015625 50.828125 16.015625 36.375 
Q 16.015625 21.96875 22.65625 14.328125 
Q 29.296875 6.6875 41.796875 6.6875 
Q 48.140625 6.6875 53.78125 8.984375 
Q 59.421875 11.28125 64.40625 15.921875 
L 64.40625 5.609375 
Q 59.234375 2.09375 53.4375 0.328125 
Q 47.65625 -1.421875 41.21875 -1.421875 
Q 24.65625 -1.421875 15.125 8.703125 
Q 5.609375 18.84375 5.609375 36.375 
Q 5.609375 53.953125 15.125 64.078125 
Q 24.65625 74.21875 41.21875 74.21875 
Q 47.75 74.21875 53.53125 72.484375 
Q 59.328125 70.75 64.40625 67.28125 
z
" id="DejaVuSans-67"/>
    </defs>
    <g transform="translate(198.713125 19.3575)scale(0.16 -0.16)">
     <use xlink:href="#DejaVuSans-77"/>
     <use x="86.279297" xlink:href="#DejaVuSans-111"/>
     <use x="147.460938" xlink:href="#DejaVuSans-105"/>
     <use x="175.244141" xlink:href="#DejaVuSans-115"/>
     <use x="227.34375" xlink:href="#DejaVuSans-116"/>
     <use x="266.552734" xlink:href="#DejaVuSans-117"/>
     <use x="329.931641" xlink:href="#DejaVuSans-114"/>
     <use x="371.013672" xlink:href="#DejaVuSans-101"/>
     <use x="432.537109" xlink:href="#DejaVuSans-32"/>
     <use x="464.324219" xlink:href="#DejaVuSans-67"/>
     <use x="534.148438" xlink:href="#DejaVuSans-111"/>
     <use x="595.330078" xlink:href="#DejaVuSans-110"/>
     <use x="658.708984" xlink:href="#DejaVuSans-116"/>
     <use x="697.917969" xlink:href="#DejaVuSans-101"/>
     <use x="759.441406" xlink:href="#DejaVuSans-110"/>
     <use x="822.820312" xlink:href="#DejaVuSans-116"/>
    </g>
   </g>
   <g id="legend_1">
    <g id="patch_7">
     <path d="M 51.474375 62.71375 
L 121.229063 62.71375 
Q 123.229063 62.71375 123.229063 60.71375 
L 123.229063 32.3575 
Q 123.229063 30.3575 121.229063 30.3575 
L 51.474375 30.3575 
Q 49.474375 30.3575 49.474375 32.3575 
L 49.474375 60.71375 
Q 49.474375 62.71375 51.474375 62.71375 
z
" style="fill:#ffffff;opacity:0.8;stroke:#cccccc;stroke-linejoin:miter;"/>
    </g>
    <g id="line2d_23">
     <path d="M 53.474375 38.455938 
L 73.474375 38.455938 
" style="fill:none;stroke:#1f77b4;stroke-linecap:square;stroke-width:1.5;"/>
    </g>
    <g id="line2d_24"/>
    <g id="text_14">
     <!-- Ideal fit -->
     <defs>
      <path d="M 9.8125 72.90625 
L 19.671875 72.90625 
L 19.671875 0 
L 9.8125 0 
z
" id="DejaVuSans-73"/>
      <path d="M 37.109375 75.984375 
L 37.109375 68.5 
L 28.515625 68.5 
Q 23.6875 68.5 21.796875 66.546875 
Q 19.921875 64.59375 19.921875 59.515625 
L 19.921875 54.6875 
L 34.71875 54.6875 
L 34.71875 47.703125 
L 19.921875 47.703125 
L 19.921875 0 
L 10.890625 0 
L 10.890625 47.703125 
L 2.296875 47.703125 
L 2.296875 54.6875 
L 10.890625 54.6875 
L 10.890625 58.5 
Q 10.890625 67.625 15.140625 71.796875 
Q 19.390625 75.984375 28.609375 75.984375 
z
" id="DejaVuSans-102"/>
     </defs>
     <g transform="translate(81.474375 41.955938)scale(0.1 -0.1)">
      <use xlink:href="#DejaVuSans-73"/>
      <use x="29.492188" xlink:href="#DejaVuSans-100"/>
      <use x="92.96875" xlink:href="#DejaVuSans-101"/>
      <use x="154.492188" xlink:href="#DejaVuSans-97"/>
      <use x="215.771484" xlink:href="#DejaVuSans-108"/>
      <use x="243.554688" xlink:href="#DejaVuSans-32"/>
      <use x="275.341797" xlink:href="#DejaVuSans-102"/>
      <use x="310.546875" xlink:href="#DejaVuSans-105"/>
      <use x="338.330078" xlink:href="#DejaVuSans-116"/>
     </g>
    </g>
    <g id="line2d_25">
     <path d="M 53.474375 53.134063 
L 73.474375 53.134063 
" style="fill:none;stroke:#ff0000;stroke-linecap:square;stroke-width:1.5;"/>
    </g>
    <g id="line2d_26"/>
    <g id="text_15">
     <!-- Best fit -->
     <defs>
      <path d="M 19.671875 34.8125 
L 19.671875 8.109375 
L 35.5 8.109375 
Q 43.453125 8.109375 47.28125 11.40625 
Q 51.125 14.703125 51.125 21.484375 
Q 51.125 28.328125 47.28125 31.5625 
Q 43.453125 34.8125 35.5 34.8125 
z
M 19.671875 64.796875 
L 19.671875 42.828125 
L 34.28125 42.828125 
Q 41.5 42.828125 45.03125 45.53125 
Q 48.578125 48.25 48.578125 53.8125 
Q 48.578125 59.328125 45.03125 62.0625 
Q 41.5 64.796875 34.28125 64.796875 
z
M 9.8125 72.90625 
L 35.015625 72.90625 
Q 46.296875 72.90625 52.390625 68.21875 
Q 58.5 63.53125 58.5 54.890625 
Q 58.5 48.1875 55.375 44.234375 
Q 52.25 40.28125 46.1875 39.3125 
Q 53.46875 37.75 57.5 32.78125 
Q 61.53125 27.828125 61.53125 20.40625 
Q 61.53125 10.640625 54.890625 5.3125 
Q 48.25 0 35.984375 0 
L 9.8125 0 
z
" id="DejaVuSans-66"/>
     </defs>
     <g transform="translate(81.474375 56.634063)scale(0.1 -0.1)">
      <use xlink:href="#DejaVuSans-66"/>
      <use x="68.603516" xlink:href="#DejaVuSans-101"/>
      <use x="130.126953" xlink:href="#DejaVuSans-115"/>
      <use x="182.226562" xlink:href="#DejaVuSans-116"/>
      <use x="221.435547" xlink:href="#DejaVuSans-32"/>
      <use x="253.222656" xlink:href="#DejaVuSans-102"/>
      <use x="288.427734" xlink:href="#DejaVuSans-105"/>
      <use x="316.210938" xlink:href="#DejaVuSans-116"/>
     </g>
    </g>
   </g>
  </g>
 </g>
 <defs>
  <clipPath id="p92763e0891">
   <rect height="166.32" width="446.4" x="44.474375" y="25.3575"/>
  </clipPath>
 </defs>
</svg>
