<?xml version="1.0" encoding="utf-8" standalone="no"?>
<!DOCTYPE svg PUBLIC "-//W3C//DTD SVG 1.1//EN"
  "http://www.w3.org/Graphics/SVG/1.1/DTD/svg11.dtd">
<!-- Created with matplotlib (http://matplotlib.org/) -->
<svg height="452.39103pt" version="1.1" viewBox="0 0 360.115 452.39103" width="360.115pt" xmlns="http://www.w3.org/2000/svg" xmlns:xlink="http://www.w3.org/1999/xlink">
 <defs>
  <style type="text/css">
*{stroke-linecap:butt;stroke-linejoin:round;}
  </style>
 </defs>
 <g id="figure_1">
  <g id="patch_1">
   <path d="M 0 452.39103 
L 360.115 452.39103 
L 360.115 0 
L 0 0 
z
" style="fill:#ffffff;"/>
  </g>
  <g id="axes_1">
   <g id="patch_2">
    <path d="M 26.925 441.355313 
L 349.415 441.355313 
L 349.415 35.995313 
L 26.925 35.995313 
z
" style="fill:#ffffff;"/>
   </g>
   <g id="PolyCollection_1">
    <defs>
     <path d="M 188.781703 -29.461172 
L 187.558297 -29.461172 
L 186.825411 -33.183486 
L 185.41605 -36.9058 
L 182.908774 -40.628114 
L 178.782375 -44.350428 
L 172.499585 -48.072742 
L 163.648963 -51.795056 
L 152.113663 -55.517371 
L 138.207692 -59.239685 
L 122.715268 -62.961999 
L 106.797496 -66.684313 
L 91.782163 -70.406627 
L 78.899436 -74.128941 
L 69.043227 -77.851255 
L 62.620529 -81.573569 
L 59.516643 -85.295883 
L 59.174 -89.018197 
L 60.76232 -92.740511 
L 63.400268 -96.462825 
L 66.369177 -100.185139 
L 69.250587 -103.907453 
L 71.940767 -107.629767 
L 74.548687 -111.352081 
L 77.241105 -115.074395 
L 80.120422 -118.796709 
L 83.190417 -122.519023 
L 86.403621 -126.241337 
L 89.735623 -129.963651 
L 93.226883 -133.685966 
L 96.967376 -137.40828 
L 101.04258 -141.130594 
L 105.480493 -144.852908 
L 110.230336 -148.575222 
L 115.178548 -152.297536 
L 120.186526 -156.01985 
L 125.128037 -159.742164 
L 129.910615 -163.464478 
L 134.476666 -167.186792 
L 138.790209 -170.909106 
L 142.820741 -174.63142 
L 146.535387 -178.353734 
L 149.904267 -182.076048 
L 152.914737 -185.798362 
L 155.583395 -189.520676 
L 157.955354 -193.24299 
L 160.088561 -196.965304 
L 162.031103 -200.687618 
L 163.804538 -204.409932 
L 165.402737 -208.132247 
L 166.806406 -211.854561 
L 168.004522 -215.576875 
L 169.010873 -219.299189 
L 169.867559 -223.021503 
L 170.634855 -226.743817 
L 171.37359 -230.466131 
L 172.12889 -234.188445 
L 172.922048 -237.910759 
L 173.752078 -241.633073 
L 174.603554 -245.355387 
L 175.45533 -249.077701 
L 176.286494 -252.800015 
L 177.079271 -256.522329 
L 177.820545 -260.244643 
L 178.502892 -263.966957 
L 179.124443 -267.689271 
L 179.686878 -271.411585 
L 180.19286 -275.133899 
L 180.645545 -278.856213 
L 181.051374 -282.578528 
L 181.423886 -286.300842 
L 181.784296 -290.023156 
L 182.156366 -293.74547 
L 182.557543 -297.467784 
L 182.991757 -301.190098 
L 183.448574 -304.912412 
L 183.909137 -308.634726 
L 184.354714 -312.35704 
L 184.772385 -316.079354 
L 185.155202 -319.801668 
L 185.49874 -323.523982 
L 185.798459 -327.246296 
L 186.050903 -330.96861 
L 186.257801 -334.690924 
L 186.4291 -338.413238 
L 186.581422 -342.135552 
L 186.731844 -345.857866 
L 186.890532 -349.58018 
L 187.056777 -353.302494 
L 187.22083 -357.024809 
L 187.370276 -360.747123 
L 187.496996 -364.469437 
L 187.600768 -368.191751 
L 187.687987 -371.914065 
L 187.767029 -375.636379 
L 187.843494 -379.358693 
L 187.91801 -383.081007 
L 187.9872 -386.803321 
L 188.04648 -390.525635 
L 188.092702 -394.247949 
L 188.125358 -397.970263 
L 188.214642 -397.970263 
L 188.214642 -397.970263 
L 188.247298 -394.247949 
L 188.29352 -390.525635 
L 188.3528 -386.803321 
L 188.42199 -383.081007 
L 188.496506 -379.358693 
L 188.572971 -375.636379 
L 188.652013 -371.914065 
L 188.739232 -368.191751 
L 188.843004 -364.469437 
L 188.969724 -360.747123 
L 189.11917 -357.024809 
L 189.283223 -353.302494 
L 189.449468 -349.58018 
L 189.608156 -345.857866 
L 189.758578 -342.135552 
L 189.9109 -338.413238 
L 190.082199 -334.690924 
L 190.289097 -330.96861 
L 190.541541 -327.246296 
L 190.84126 -323.523982 
L 191.184798 -319.801668 
L 191.567615 -316.079354 
L 191.985286 -312.35704 
L 192.430863 -308.634726 
L 192.891426 -304.912412 
L 193.348243 -301.190098 
L 193.782457 -297.467784 
L 194.183634 -293.74547 
L 194.555704 -290.023156 
L 194.916114 -286.300842 
L 195.288626 -282.578528 
L 195.694455 -278.856213 
L 196.14714 -275.133899 
L 196.653122 -271.411585 
L 197.215557 -267.689271 
L 197.837108 -263.966957 
L 198.519455 -260.244643 
L 199.260729 -256.522329 
L 200.053506 -252.800015 
L 200.88467 -249.077701 
L 201.736446 -245.355387 
L 202.587922 -241.633073 
L 203.417952 -237.910759 
L 204.21111 -234.188445 
L 204.96641 -230.466131 
L 205.705145 -226.743817 
L 206.472441 -223.021503 
L 207.329127 -219.299189 
L 208.335478 -215.576875 
L 209.533594 -211.854561 
L 210.937263 -208.132247 
L 212.535462 -204.409932 
L 214.308897 -200.687618 
L 216.251439 -196.965304 
L 218.384646 -193.24299 
L 220.756605 -189.520676 
L 223.425263 -185.798362 
L 226.435733 -182.076048 
L 229.804613 -178.353734 
L 233.519259 -174.63142 
L 237.549791 -170.909106 
L 241.863334 -167.186792 
L 246.429385 -163.464478 
L 251.211963 -159.742164 
L 256.153474 -156.01985 
L 261.161452 -152.297536 
L 266.109664 -148.575222 
L 270.859507 -144.852908 
L 275.29742 -141.130594 
L 279.372624 -137.40828 
L 283.113117 -133.685966 
L 286.604377 -129.963651 
L 289.936379 -126.241337 
L 293.149583 -122.519023 
L 296.219578 -118.796709 
L 299.098895 -115.074395 
L 301.791313 -111.352081 
L 304.399233 -107.629767 
L 307.089413 -103.907453 
L 309.970823 -100.185139 
L 312.939732 -96.462825 
L 315.57768 -92.740511 
L 317.166 -89.018197 
L 316.823357 -85.295883 
L 313.719471 -81.573569 
L 307.296773 -77.851255 
L 297.440564 -74.128941 
L 284.557837 -70.406627 
L 269.542504 -66.684313 
L 253.624732 -62.961999 
L 238.132308 -59.239685 
L 224.226337 -55.517371 
L 212.691037 -51.795056 
L 203.840415 -48.072742 
L 197.557625 -44.350428 
L 193.431226 -40.628114 
L 190.92395 -36.9058 
L 189.514589 -33.183486 
L 188.781703 -29.461172 
z
" id="m4d8de86d7b" style="stroke:#4c4c4c;stroke-width:1.5;"/>
    </defs>
    <g clip-path="url(#p156829e5a5)">
     <use style="fill:#dfc120;stroke:#4c4c4c;stroke-width:1.5;" x="0" xlink:href="#m4d8de86d7b" y="452.39103"/>
    </g>
   </g>
   <g id="matplotlib.axis_1"/>
   <g id="matplotlib.axis_2">
    <g id="ytick_1">
     <g id="line2d_1">
      <defs>
       <path d="M 0 0 
L -3.5 0 
" id="mf4cbcb32c6" style="stroke:#000000;stroke-width:0.8;"/>
      </defs>
      <g>
       <use style="stroke:#000000;stroke-width:0.8;" x="26.925" xlink:href="#mf4cbcb32c6" y="433.433218"/>
      </g>
     </g>
     <g id="text_1">
      <!-- 2 -->
      <defs>
       <path d="M 19.1875 8.296875 
L 53.609375 8.296875 
L 53.609375 0 
L 7.328125 0 
L 7.328125 8.296875 
Q 12.9375 14.109375 22.625 23.890625 
Q 32.328125 33.6875 34.8125 36.53125 
Q 39.546875 41.84375 41.421875 45.53125 
Q 43.3125 49.21875 43.3125 52.78125 
Q 43.3125 58.59375 39.234375 62.25 
Q 35.15625 65.921875 28.609375 65.921875 
Q 23.96875 65.921875 18.8125 64.3125 
Q 13.671875 62.703125 7.8125 59.421875 
L 7.8125 69.390625 
Q 13.765625 71.78125 18.9375 73 
Q 24.125 74.21875 28.421875 74.21875 
Q 39.75 74.21875 46.484375 68.546875 
Q 53.21875 62.890625 53.21875 53.421875 
Q 53.21875 48.921875 51.53125 44.890625 
Q 49.859375 40.875 45.40625 35.40625 
Q 44.1875 33.984375 37.640625 27.21875 
Q 31.109375 20.453125 19.1875 8.296875 
z
" id="DejaVuSans-32"/>
      </defs>
      <g transform="translate(7.2 441.031655)scale(0.2 -0.2)">
       <use xlink:href="#DejaVuSans-32"/>
      </g>
     </g>
    </g>
    <g id="ytick_2">
     <g id="line2d_2">
      <g>
       <use style="stroke:#000000;stroke-width:0.8;" x="26.925" xlink:href="#mf4cbcb32c6" y="344.583808"/>
      </g>
     </g>
     <g id="text_2">
      <!-- 3 -->
      <defs>
       <path d="M 40.578125 39.3125 
Q 47.65625 37.796875 51.625 33 
Q 55.609375 28.21875 55.609375 21.1875 
Q 55.609375 10.40625 48.1875 4.484375 
Q 40.765625 -1.421875 27.09375 -1.421875 
Q 22.515625 -1.421875 17.65625 -0.515625 
Q 12.796875 0.390625 7.625 2.203125 
L 7.625 11.71875 
Q 11.71875 9.328125 16.59375 8.109375 
Q 21.484375 6.890625 26.8125 6.890625 
Q 36.078125 6.890625 40.9375 10.546875 
Q 45.796875 14.203125 45.796875 21.1875 
Q 45.796875 27.640625 41.28125 31.265625 
Q 36.765625 34.90625 28.71875 34.90625 
L 20.21875 34.90625 
L 20.21875 43.015625 
L 29.109375 43.015625 
Q 36.375 43.015625 40.234375 45.921875 
Q 44.09375 48.828125 44.09375 54.296875 
Q 44.09375 59.90625 40.109375 62.90625 
Q 36.140625 65.921875 28.71875 65.921875 
Q 24.65625 65.921875 20.015625 65.03125 
Q 15.375 64.15625 9.8125 62.3125 
L 9.8125 71.09375 
Q 15.4375 72.65625 20.34375 73.4375 
Q 25.25 74.21875 29.59375 74.21875 
Q 40.828125 74.21875 47.359375 69.109375 
Q 53.90625 64.015625 53.90625 55.328125 
Q 53.90625 49.265625 50.4375 45.09375 
Q 46.96875 40.921875 40.578125 39.3125 
z
" id="DejaVuSans-33"/>
      </defs>
      <g transform="translate(7.2 352.182246)scale(0.2 -0.2)">
       <use xlink:href="#DejaVuSans-33"/>
      </g>
     </g>
    </g>
    <g id="ytick_3">
     <g id="line2d_3">
      <g>
       <use style="stroke:#000000;stroke-width:0.8;" x="26.925" xlink:href="#mf4cbcb32c6" y="255.734399"/>
      </g>
     </g>
     <g id="text_3">
      <!-- 4 -->
      <defs>
       <path d="M 37.796875 64.3125 
L 12.890625 25.390625 
L 37.796875 25.390625 
z
M 35.203125 72.90625 
L 47.609375 72.90625 
L 47.609375 25.390625 
L 58.015625 25.390625 
L 58.015625 17.1875 
L 47.609375 17.1875 
L 47.609375 0 
L 37.796875 0 
L 37.796875 17.1875 
L 4.890625 17.1875 
L 4.890625 26.703125 
z
" id="DejaVuSans-34"/>
      </defs>
      <g transform="translate(7.2 263.332837)scale(0.2 -0.2)">
       <use xlink:href="#DejaVuSans-34"/>
      </g>
     </g>
    </g>
    <g id="ytick_4">
     <g id="line2d_4">
      <g>
       <use style="stroke:#000000;stroke-width:0.8;" x="26.925" xlink:href="#mf4cbcb32c6" y="166.88499"/>
      </g>
     </g>
     <g id="text_4">
      <!-- 5 -->
      <defs>
       <path d="M 10.796875 72.90625 
L 49.515625 72.90625 
L 49.515625 64.59375 
L 19.828125 64.59375 
L 19.828125 46.734375 
Q 21.96875 47.46875 24.109375 47.828125 
Q 26.265625 48.1875 28.421875 48.1875 
Q 40.625 48.1875 47.75 41.5 
Q 54.890625 34.8125 54.890625 23.390625 
Q 54.890625 11.625 47.5625 5.09375 
Q 40.234375 -1.421875 26.90625 -1.421875 
Q 22.3125 -1.421875 17.546875 -0.640625 
Q 12.796875 0.140625 7.71875 1.703125 
L 7.71875 11.625 
Q 12.109375 9.234375 16.796875 8.0625 
Q 21.484375 6.890625 26.703125 6.890625 
Q 35.15625 6.890625 40.078125 11.328125 
Q 45.015625 15.765625 45.015625 23.390625 
Q 45.015625 31 40.078125 35.4375 
Q 35.15625 39.890625 26.703125 39.890625 
Q 22.75 39.890625 18.8125 39.015625 
Q 14.890625 38.140625 10.796875 36.28125 
z
" id="DejaVuSans-35"/>
      </defs>
      <g transform="translate(7.2 174.483427)scale(0.2 -0.2)">
       <use xlink:href="#DejaVuSans-35"/>
      </g>
     </g>
    </g>
    <g id="ytick_5">
     <g id="line2d_5">
      <g>
       <use style="stroke:#000000;stroke-width:0.8;" x="26.925" xlink:href="#mf4cbcb32c6" y="78.035581"/>
      </g>
     </g>
     <g id="text_5">
      <!-- 6 -->
      <defs>
       <path d="M 33.015625 40.375 
Q 26.375 40.375 22.484375 35.828125 
Q 18.609375 31.296875 18.609375 23.390625 
Q 18.609375 15.53125 22.484375 10.953125 
Q 26.375 6.390625 33.015625 6.390625 
Q 39.65625 6.390625 43.53125 10.953125 
Q 47.40625 15.53125 47.40625 23.390625 
Q 47.40625 31.296875 43.53125 35.828125 
Q 39.65625 40.375 33.015625 40.375 
z
M 52.59375 71.296875 
L 52.59375 62.3125 
Q 48.875 64.0625 45.09375 64.984375 
Q 41.3125 65.921875 37.59375 65.921875 
Q 27.828125 65.921875 22.671875 59.328125 
Q 17.53125 52.734375 16.796875 39.40625 
Q 19.671875 43.65625 24.015625 45.921875 
Q 28.375 48.1875 33.59375 48.1875 
Q 44.578125 48.1875 50.953125 41.515625 
Q 57.328125 34.859375 57.328125 23.390625 
Q 57.328125 12.15625 50.6875 5.359375 
Q 44.046875 -1.421875 33.015625 -1.421875 
Q 20.359375 -1.421875 13.671875 8.265625 
Q 6.984375 17.96875 6.984375 36.375 
Q 6.984375 53.65625 15.1875 63.9375 
Q 23.390625 74.21875 37.203125 74.21875 
Q 40.921875 74.21875 44.703125 73.484375 
Q 48.484375 72.75 52.59375 71.296875 
z
" id="DejaVuSans-36"/>
      </defs>
      <g transform="translate(7.2 85.634018)scale(0.2 -0.2)">
       <use xlink:href="#DejaVuSans-36"/>
      </g>
     </g>
    </g>
   </g>
   <g id="line2d_6">
    <path clip-path="url(#p156829e5a5)" d="M 188.17 397.449207 
L 188.17 198.604229 
" style="fill:none;stroke:#4c4c4c;stroke-linecap:square;stroke-width:1.5;"/>
   </g>
   <g id="line2d_7">
    <path clip-path="url(#p156829e5a5)" d="M 188.17 364.130678 
L 188.17 297.849019 
" style="fill:none;stroke:#4c4c4c;stroke-linecap:square;stroke-width:4.5;"/>
   </g>
   <g id="patch_3">
    <path d="M 26.925 441.355312 
L 26.925 35.995312 
" style="fill:none;stroke:#000000;stroke-linecap:square;stroke-linejoin:miter;stroke-width:0.8;"/>
   </g>
   <g id="patch_4">
    <path d="M 349.415 441.355312 
L 349.415 35.995312 
" style="fill:none;stroke:#000000;stroke-linecap:square;stroke-linejoin:miter;stroke-width:0.8;"/>
   </g>
   <g id="patch_5">
    <path d="M 26.925 441.355313 
L 349.415 441.355313 
" style="fill:none;stroke:#000000;stroke-linecap:square;stroke-linejoin:miter;stroke-width:0.8;"/>
   </g>
   <g id="patch_6">
    <path d="M 26.925 35.995313 
L 349.415 35.995313 
" style="fill:none;stroke:#000000;stroke-linecap:square;stroke-linejoin:miter;stroke-width:0.8;"/>
   </g>
   <g id="PathCollection_1">
    <defs>
     <path d="M 0 1.5 
C 0.397805 1.5 0.77937 1.341951 1.06066 1.06066 
C 1.341951 0.77937 1.5 0.397805 1.5 0 
C 1.5 -0.397805 1.341951 -0.77937 1.06066 -1.06066 
C 0.77937 -1.341951 0.397805 -1.5 0 -1.5 
C -0.397805 -1.5 -0.77937 -1.341951 -1.06066 -1.06066 
C -1.341951 -0.77937 -1.5 -0.397805 -1.5 0 
C -1.5 0.397805 -1.341951 0.77937 -1.06066 1.06066 
C -0.77937 1.341951 -0.397805 1.5 0 1.5 
z
" id="mfe45ab874a" style="stroke:#4c4c4c;"/>
    </defs>
    <g clip-path="url(#p156829e5a5)">
     <use style="fill:#ffffff;stroke:#4c4c4c;" x="188.17" xlink:href="#mfe45ab874a" y="336.231964"/>
    </g>
   </g>
   <g id="text_6">
    <!-- Permittivity (real) -->
    <defs>
     <path d="M 19.671875 64.796875 
L 19.671875 37.40625 
L 32.078125 37.40625 
Q 38.96875 37.40625 42.71875 40.96875 
Q 46.484375 44.53125 46.484375 51.125 
Q 46.484375 57.671875 42.71875 61.234375 
Q 38.96875 64.796875 32.078125 64.796875 
z
M 9.8125 72.90625 
L 32.078125 72.90625 
Q 44.34375 72.90625 50.609375 67.359375 
Q 56.890625 61.8125 56.890625 51.125 
Q 56.890625 40.328125 50.609375 34.8125 
Q 44.34375 29.296875 32.078125 29.296875 
L 19.671875 29.296875 
L 19.671875 0 
L 9.8125 0 
z
" id="DejaVuSans-50"/>
     <path d="M 56.203125 29.59375 
L 56.203125 25.203125 
L 14.890625 25.203125 
Q 15.484375 15.921875 20.484375 11.0625 
Q 25.484375 6.203125 34.421875 6.203125 
Q 39.59375 6.203125 44.453125 7.46875 
Q 49.3125 8.734375 54.109375 11.28125 
L 54.109375 2.78125 
Q 49.265625 0.734375 44.1875 -0.34375 
Q 39.109375 -1.421875 33.890625 -1.421875 
Q 20.796875 -1.421875 13.15625 6.1875 
Q 5.515625 13.8125 5.515625 26.8125 
Q 5.515625 40.234375 12.765625 48.109375 
Q 20.015625 56 32.328125 56 
Q 43.359375 56 49.78125 48.890625 
Q 56.203125 41.796875 56.203125 29.59375 
z
M 47.21875 32.234375 
Q 47.125 39.59375 43.09375 43.984375 
Q 39.0625 48.390625 32.421875 48.390625 
Q 24.90625 48.390625 20.390625 44.140625 
Q 15.875 39.890625 15.1875 32.171875 
z
" id="DejaVuSans-65"/>
     <path d="M 41.109375 46.296875 
Q 39.59375 47.171875 37.8125 47.578125 
Q 36.03125 48 33.890625 48 
Q 26.265625 48 22.1875 43.046875 
Q 18.109375 38.09375 18.109375 28.8125 
L 18.109375 0 
L 9.078125 0 
L 9.078125 54.6875 
L 18.109375 54.6875 
L 18.109375 46.1875 
Q 20.953125 51.171875 25.484375 53.578125 
Q 30.03125 56 36.53125 56 
Q 37.453125 56 38.578125 55.875 
Q 39.703125 55.765625 41.0625 55.515625 
z
" id="DejaVuSans-72"/>
     <path d="M 52 44.1875 
Q 55.375 50.25 60.0625 53.125 
Q 64.75 56 71.09375 56 
Q 79.640625 56 84.28125 50.015625 
Q 88.921875 44.046875 88.921875 33.015625 
L 88.921875 0 
L 79.890625 0 
L 79.890625 32.71875 
Q 79.890625 40.578125 77.09375 44.375 
Q 74.3125 48.1875 68.609375 48.1875 
Q 61.625 48.1875 57.5625 43.546875 
Q 53.515625 38.921875 53.515625 30.90625 
L 53.515625 0 
L 44.484375 0 
L 44.484375 32.71875 
Q 44.484375 40.625 41.703125 44.40625 
Q 38.921875 48.1875 33.109375 48.1875 
Q 26.21875 48.1875 22.15625 43.53125 
Q 18.109375 38.875 18.109375 30.90625 
L 18.109375 0 
L 9.078125 0 
L 9.078125 54.6875 
L 18.109375 54.6875 
L 18.109375 46.1875 
Q 21.1875 51.21875 25.484375 53.609375 
Q 29.78125 56 35.6875 56 
Q 41.65625 56 45.828125 52.96875 
Q 50 49.953125 52 44.1875 
z
" id="DejaVuSans-6d"/>
     <path d="M 9.421875 54.6875 
L 18.40625 54.6875 
L 18.40625 0 
L 9.421875 0 
z
M 9.421875 75.984375 
L 18.40625 75.984375 
L 18.40625 64.59375 
L 9.421875 64.59375 
z
" id="DejaVuSans-69"/>
     <path d="M 18.3125 70.21875 
L 18.3125 54.6875 
L 36.8125 54.6875 
L 36.8125 47.703125 
L 18.3125 47.703125 
L 18.3125 18.015625 
Q 18.3125 11.328125 20.140625 9.421875 
Q 21.96875 7.515625 27.59375 7.515625 
L 36.8125 7.515625 
L 36.8125 0 
L 27.59375 0 
Q 17.1875 0 13.234375 3.875 
Q 9.28125 7.765625 9.28125 18.015625 
L 9.28125 47.703125 
L 2.6875 47.703125 
L 2.6875 54.6875 
L 9.28125 54.6875 
L 9.28125 70.21875 
z
" id="DejaVuSans-74"/>
     <path d="M 2.984375 54.6875 
L 12.5 54.6875 
L 29.59375 8.796875 
L 46.6875 54.6875 
L 56.203125 54.6875 
L 35.6875 0 
L 23.484375 0 
z
" id="DejaVuSans-76"/>
     <path d="M 32.171875 -5.078125 
Q 28.375 -14.84375 24.75 -17.8125 
Q 21.140625 -20.796875 15.09375 -20.796875 
L 7.90625 -20.796875 
L 7.90625 -13.28125 
L 13.1875 -13.28125 
Q 16.890625 -13.28125 18.9375 -11.515625 
Q 21 -9.765625 23.484375 -3.21875 
L 25.09375 0.875 
L 2.984375 54.6875 
L 12.5 54.6875 
L 29.59375 11.921875 
L 46.6875 54.6875 
L 56.203125 54.6875 
z
" id="DejaVuSans-79"/>
     <path id="DejaVuSans-20"/>
     <path d="M 31 75.875 
Q 24.46875 64.65625 21.28125 53.65625 
Q 18.109375 42.671875 18.109375 31.390625 
Q 18.109375 20.125 21.3125 9.0625 
Q 24.515625 -2 31 -13.1875 
L 23.1875 -13.1875 
Q 15.875 -1.703125 12.234375 9.375 
Q 8.59375 20.453125 8.59375 31.390625 
Q 8.59375 42.28125 12.203125 53.3125 
Q 15.828125 64.359375 23.1875 75.875 
z
" id="DejaVuSans-28"/>
     <path d="M 34.28125 27.484375 
Q 23.390625 27.484375 19.1875 25 
Q 14.984375 22.515625 14.984375 16.5 
Q 14.984375 11.71875 18.140625 8.90625 
Q 21.296875 6.109375 26.703125 6.109375 
Q 34.1875 6.109375 38.703125 11.40625 
Q 43.21875 16.703125 43.21875 25.484375 
L 43.21875 27.484375 
z
M 52.203125 31.203125 
L 52.203125 0 
L 43.21875 0 
L 43.21875 8.296875 
Q 40.140625 3.328125 35.546875 0.953125 
Q 30.953125 -1.421875 24.3125 -1.421875 
Q 15.921875 -1.421875 10.953125 3.296875 
Q 6 8.015625 6 15.921875 
Q 6 25.140625 12.171875 29.828125 
Q 18.359375 34.515625 30.609375 34.515625 
L 43.21875 34.515625 
L 43.21875 35.40625 
Q 43.21875 41.609375 39.140625 45 
Q 35.0625 48.390625 27.6875 48.390625 
Q 23 48.390625 18.546875 47.265625 
Q 14.109375 46.140625 10.015625 43.890625 
L 10.015625 52.203125 
Q 14.9375 54.109375 19.578125 55.046875 
Q 24.21875 56 28.609375 56 
Q 40.484375 56 46.34375 49.84375 
Q 52.203125 43.703125 52.203125 31.203125 
z
" id="DejaVuSans-61"/>
     <path d="M 9.421875 75.984375 
L 18.40625 75.984375 
L 18.40625 0 
L 9.421875 0 
z
" id="DejaVuSans-6c"/>
     <path d="M 8.015625 75.875 
L 15.828125 75.875 
Q 23.140625 64.359375 26.78125 53.3125 
Q 30.421875 42.28125 30.421875 31.390625 
Q 30.421875 20.453125 26.78125 9.375 
Q 23.140625 -1.703125 15.828125 -13.1875 
L 8.015625 -13.1875 
Q 14.5 -2 17.703125 9.0625 
Q 20.90625 20.125 20.90625 31.390625 
Q 20.90625 42.671875 17.703125 53.65625 
Q 14.5 64.65625 8.015625 75.875 
z
" id="DejaVuSans-29"/>
    </defs>
    <g transform="translate(56.005938 29.995313)scale(0.3 -0.3)">
     <use xlink:href="#DejaVuSans-50"/>
     <use x="60.255859" xlink:href="#DejaVuSans-65"/>
     <use x="121.779297" xlink:href="#DejaVuSans-72"/>
     <use x="162.876953" xlink:href="#DejaVuSans-6d"/>
     <use x="260.289062" xlink:href="#DejaVuSans-69"/>
     <use x="288.072266" xlink:href="#DejaVuSans-74"/>
     <use x="327.28125" xlink:href="#DejaVuSans-74"/>
     <use x="366.490234" xlink:href="#DejaVuSans-69"/>
     <use x="394.273438" xlink:href="#DejaVuSans-76"/>
     <use x="453.453125" xlink:href="#DejaVuSans-69"/>
     <use x="481.236328" xlink:href="#DejaVuSans-74"/>
     <use x="520.445312" xlink:href="#DejaVuSans-79"/>
     <use x="579.625" xlink:href="#DejaVuSans-20"/>
     <use x="611.412109" xlink:href="#DejaVuSans-28"/>
     <use x="650.425781" xlink:href="#DejaVuSans-72"/>
     <use x="691.507812" xlink:href="#DejaVuSans-65"/>
     <use x="753.03125" xlink:href="#DejaVuSans-61"/>
     <use x="814.310547" xlink:href="#DejaVuSans-6c"/>
     <use x="842.09375" xlink:href="#DejaVuSans-29"/>
    </g>
   </g>
  </g>
 </g>
 <defs>
  <clipPath id="p156829e5a5">
   <rect height="405.36" width="322.49" x="26.925" y="35.995313"/>
  </clipPath>
 </defs>
</svg>
