<?xml version="1.0" encoding="utf-8" standalone="no"?>
<!DOCTYPE svg PUBLIC "-//W3C//DTD SVG 1.1//EN"
  "http://www.w3.org/Graphics/SVG/1.1/DTD/svg11.dtd">
<!-- Created with matplotlib (http://matplotlib.org/) -->
<svg height="452.055313pt" version="1.1" viewBox="0 0 381.174375 452.055313" width="381.174375pt" xmlns="http://www.w3.org/2000/svg" xmlns:xlink="http://www.w3.org/1999/xlink">
 <defs>
  <style type="text/css">
*{stroke-linecap:butt;stroke-linejoin:round;}
  </style>
 </defs>
 <g id="figure_1">
  <g id="patch_1">
   <path d="M -0 452.055313 
L 381.174375 452.055313 
L 381.174375 0 
L -0 0 
z
" style="fill:#ffffff;"/>
  </g>
  <g id="axes_1">
   <g id="patch_2">
    <path d="M 69.134375 441.355313 
L 370.474375 441.355313 
L 370.474375 35.995313 
L 69.134375 35.995313 
z
" style="fill:#ffffff;"/>
   </g>
   <g id="PolyCollection_1">
    <defs>
     <path d="M 221.009939 -29.125455 
L 218.598811 -29.125455 
L 217.86037 -32.847769 
L 216.788877 -36.570083 
L 215.301395 -40.292397 
L 213.325671 -44.014711 
L 210.814803 -47.737025 
L 207.761744 -51.459339 
L 204.21018 -55.181653 
L 200.258398 -58.903967 
L 196.053861 -62.626281 
L 191.778183 -66.348595 
L 187.624435 -70.070909 
L 183.770647 -73.793223 
L 180.354409 -77.515537 
L 177.453406 -81.237851 
L 175.075593 -84.960165 
L 173.160924 -88.682479 
L 171.594407 -92.404793 
L 170.22817 -96.127107 
L 168.908468 -99.849421 
L 167.502529 -103.571736 
L 165.920007 -107.29405 
L 164.124759 -111.016364 
L 162.134694 -114.738678 
L 160.009986 -118.460992 
L 157.832634 -122.183306 
L 155.68227 -125.90562 
L 153.613967 -129.627934 
L 151.643204 -133.350248 
L 149.741425 -137.072562 
L 147.843016 -140.794876 
L 145.861849 -144.51719 
L 143.713211 -148.239504 
L 141.33568 -151.961818 
L 138.707512 -155.684132 
L 135.853494 -159.406446 
L 132.84066 -163.12876 
L 129.764096 -166.851074 
L 126.726565 -170.573388 
L 123.817185 -174.295702 
L 121.094424 -178.018017 
L 118.577426 -181.740331 
L 116.247457 -185.462645 
L 114.058759 -189.184959 
L 111.955905 -192.907273 
L 109.893392 -196.629587 
L 107.852795 -200.351901 
L 105.853481 -204.074215 
L 103.954334 -207.796529 
L 102.245988 -211.518843 
L 100.835109 -215.241157 
L 99.824024 -218.963471 
L 99.289977 -222.685785 
L 99.268375 -226.408099 
L 99.743614 -230.130413 
L 100.649653 -233.852727 
L 101.8806 -237.575041 
L 103.309551 -241.297355 
L 104.811953 -245.019669 
L 106.288406 -248.741983 
L 107.681531 -252.464298 
L 108.982758 -256.186612 
L 110.227424 -259.908926 
L 111.47991 -263.63124 
L 112.813269 -267.353554 
L 114.289127 -271.075868 
L 115.942939 -274.798182 
L 117.77754 -278.520496 
L 119.765273 -282.24281 
L 121.856918 -285.965124 
L 123.994675 -289.687438 
L 126.126411 -293.409752 
L 128.218785 -297.132066 
L 130.267224 -300.85438 
L 132.301027 -304.576694 
L 134.382342 -308.299008 
L 136.59873 -312.021322 
L 139.050401 -315.743636 
L 141.834578 -319.46595 
L 145.030235 -323.188264 
L 148.686276 -326.910579 
L 152.815104 -330.632893 
L 157.391925 -334.355207 
L 162.358687 -338.077521 
L 167.630712 -341.799835 
L 173.104086 -345.522149 
L 178.662542 -349.244463 
L 184.183482 -352.966777 
L 189.543573 -356.689091 
L 194.624639 -360.411405 
L 199.320282 -364.133719 
L 203.543023 -367.856033 
L 207.230982 -371.578347 
L 210.352711 -375.300661 
L 212.908849 -379.022975 
L 214.929934 -382.745289 
L 216.470614 -386.467603 
L 217.601385 -390.189917 
L 218.399501 -393.912231 
L 218.940707 -397.634545 
L 220.668043 -397.634545 
L 220.668043 -397.634545 
L 221.209249 -393.912231 
L 222.007365 -390.189917 
L 223.138136 -386.467603 
L 224.678816 -382.745289 
L 226.699901 -379.022975 
L 229.256039 -375.300661 
L 232.377768 -371.578347 
L 236.065727 -367.856033 
L 240.288468 -364.133719 
L 244.984111 -360.411405 
L 250.065177 -356.689091 
L 255.425268 -352.966777 
L 260.946208 -349.244463 
L 266.504664 -345.522149 
L 271.978038 -341.799835 
L 277.250063 -338.077521 
L 282.216825 -334.355207 
L 286.793646 -330.632893 
L 290.922474 -326.910579 
L 294.578515 -323.188264 
L 297.774172 -319.46595 
L 300.558349 -315.743636 
L 303.01002 -312.021322 
L 305.226408 -308.299008 
L 307.307723 -304.576694 
L 309.341526 -300.85438 
L 311.389965 -297.132066 
L 313.482339 -293.409752 
L 315.614075 -289.687438 
L 317.751832 -285.965124 
L 319.843477 -282.24281 
L 321.83121 -278.520496 
L 323.665811 -274.798182 
L 325.319623 -271.075868 
L 326.795481 -267.353554 
L 328.12884 -263.63124 
L 329.381326 -259.908926 
L 330.625992 -256.186612 
L 331.927219 -252.464298 
L 333.320344 -248.741983 
L 334.796797 -245.019669 
L 336.299199 -241.297355 
L 337.72815 -237.575041 
L 338.959097 -233.852727 
L 339.865136 -230.130413 
L 340.340375 -226.408099 
L 340.318773 -222.685785 
L 339.784726 -218.963471 
L 338.773641 -215.241157 
L 337.362762 -211.518843 
L 335.654416 -207.796529 
L 333.755269 -204.074215 
L 331.755955 -200.351901 
L 329.715358 -196.629587 
L 327.652845 -192.907273 
L 325.549991 -189.184959 
L 323.361293 -185.462645 
L 321.031324 -181.740331 
L 318.514326 -178.018017 
L 315.791565 -174.295702 
L 312.882185 -170.573388 
L 309.844654 -166.851074 
L 306.76809 -163.12876 
L 303.755256 -159.406446 
L 300.901238 -155.684132 
L 298.27307 -151.961818 
L 295.895539 -148.239504 
L 293.746901 -144.51719 
L 291.765734 -140.794876 
L 289.867325 -137.072562 
L 287.965546 -133.350248 
L 285.994783 -129.627934 
L 283.92648 -125.90562 
L 281.776116 -122.183306 
L 279.598764 -118.460992 
L 277.474056 -114.738678 
L 275.483991 -111.016364 
L 273.688743 -107.29405 
L 272.106221 -103.571736 
L 270.700282 -99.849421 
L 269.38058 -96.127107 
L 268.014343 -92.404793 
L 266.447826 -88.682479 
L 264.533157 -84.960165 
L 262.155344 -81.237851 
L 259.254341 -77.515537 
L 255.838103 -73.793223 
L 251.984315 -70.070909 
L 247.830567 -66.348595 
L 243.554889 -62.626281 
L 239.350352 -58.903967 
L 235.39857 -55.181653 
L 231.847006 -51.459339 
L 228.793947 -47.737025 
L 226.283079 -44.014711 
L 224.307355 -40.292397 
L 222.819873 -36.570083 
L 221.74838 -32.847769 
L 221.009939 -29.125455 
z
" id="m36d412a014" style="stroke:#7a7a7a;stroke-width:1.5;"/>
    </defs>
    <g clip-path="url(#pdafbf555d0)">
     <use style="fill:#f2f2a6;stroke:#7a7a7a;stroke-width:1.5;" x="0" xlink:href="#m36d412a014" y="452.055313"/>
    </g>
   </g>
   <g id="matplotlib.axis_1"/>
   <g id="matplotlib.axis_2">
    <g id="ytick_1">
     <g id="line2d_1">
      <defs>
       <path d="M 0 0 
L -3.5 0 
" id="m9f11536145" style="stroke:#000000;stroke-width:0.8;"/>
      </defs>
      <g>
       <use style="stroke:#000000;stroke-width:0.8;" x="69.134375" xlink:href="#m9f11536145" y="404.38922"/>
      </g>
     </g>
     <g id="text_1">
      <!-- −200 -->
      <defs>
       <path d="M 10.59375 35.5 
L 73.1875 35.5 
L 73.1875 27.203125 
L 10.59375 27.203125 
z
" id="DejaVuSans-2212"/>
       <path d="M 19.1875 8.296875 
L 53.609375 8.296875 
L 53.609375 0 
L 7.328125 0 
L 7.328125 8.296875 
Q 12.9375 14.109375 22.625 23.890625 
Q 32.328125 33.6875 34.8125 36.53125 
Q 39.546875 41.84375 41.421875 45.53125 
Q 43.3125 49.21875 43.3125 52.78125 
Q 43.3125 58.59375 39.234375 62.25 
Q 35.15625 65.921875 28.609375 65.921875 
Q 23.96875 65.921875 18.8125 64.3125 
Q 13.671875 62.703125 7.8125 59.421875 
L 7.8125 69.390625 
Q 13.765625 71.78125 18.9375 73 
Q 24.125 74.21875 28.421875 74.21875 
Q 39.75 74.21875 46.484375 68.546875 
Q 53.21875 62.890625 53.21875 53.421875 
Q 53.21875 48.921875 51.53125 44.890625 
Q 49.859375 40.875 45.40625 35.40625 
Q 44.1875 33.984375 37.640625 27.21875 
Q 31.109375 20.453125 19.1875 8.296875 
z
" id="DejaVuSans-32"/>
       <path d="M 31.78125 66.40625 
Q 24.171875 66.40625 20.328125 58.90625 
Q 16.5 51.421875 16.5 36.375 
Q 16.5 21.390625 20.328125 13.890625 
Q 24.171875 6.390625 31.78125 6.390625 
Q 39.453125 6.390625 43.28125 13.890625 
Q 47.125 21.390625 47.125 36.375 
Q 47.125 51.421875 43.28125 58.90625 
Q 39.453125 66.40625 31.78125 66.40625 
z
M 31.78125 74.21875 
Q 44.046875 74.21875 50.515625 64.515625 
Q 56.984375 54.828125 56.984375 36.375 
Q 56.984375 17.96875 50.515625 8.265625 
Q 44.046875 -1.421875 31.78125 -1.421875 
Q 19.53125 -1.421875 13.0625 8.265625 
Q 6.59375 17.96875 6.59375 36.375 
Q 6.59375 54.828125 13.0625 64.515625 
Q 19.53125 74.21875 31.78125 74.21875 
z
" id="DejaVuSans-30"/>
      </defs>
      <g transform="translate(7.2 411.987658)scale(0.2 -0.2)">
       <use xlink:href="#DejaVuSans-2212"/>
       <use x="83.789062" xlink:href="#DejaVuSans-32"/>
       <use x="147.412109" xlink:href="#DejaVuSans-30"/>
       <use x="211.035156" xlink:href="#DejaVuSans-30"/>
      </g>
     </g>
    </g>
    <g id="ytick_2">
     <g id="line2d_2">
      <g>
       <use style="stroke:#000000;stroke-width:0.8;" x="69.134375" xlink:href="#m9f11536145" y="321.527087"/>
      </g>
     </g>
     <g id="text_2">
      <!-- −100 -->
      <defs>
       <path d="M 12.40625 8.296875 
L 28.515625 8.296875 
L 28.515625 63.921875 
L 10.984375 60.40625 
L 10.984375 69.390625 
L 28.421875 72.90625 
L 38.28125 72.90625 
L 38.28125 8.296875 
L 54.390625 8.296875 
L 54.390625 0 
L 12.40625 0 
z
" id="DejaVuSans-31"/>
      </defs>
      <g transform="translate(7.2 329.125525)scale(0.2 -0.2)">
       <use xlink:href="#DejaVuSans-2212"/>
       <use x="83.789062" xlink:href="#DejaVuSans-31"/>
       <use x="147.412109" xlink:href="#DejaVuSans-30"/>
       <use x="211.035156" xlink:href="#DejaVuSans-30"/>
      </g>
     </g>
    </g>
    <g id="ytick_3">
     <g id="line2d_3">
      <g>
       <use style="stroke:#000000;stroke-width:0.8;" x="69.134375" xlink:href="#m9f11536145" y="238.664955"/>
      </g>
     </g>
     <g id="text_3">
      <!-- 0 -->
      <g transform="translate(49.409375 246.263392)scale(0.2 -0.2)">
       <use xlink:href="#DejaVuSans-30"/>
      </g>
     </g>
    </g>
    <g id="ytick_4">
     <g id="line2d_4">
      <g>
       <use style="stroke:#000000;stroke-width:0.8;" x="69.134375" xlink:href="#m9f11536145" y="155.802822"/>
      </g>
     </g>
     <g id="text_4">
      <!-- 100 -->
      <g transform="translate(23.959375 163.401259)scale(0.2 -0.2)">
       <use xlink:href="#DejaVuSans-31"/>
       <use x="63.623047" xlink:href="#DejaVuSans-30"/>
       <use x="127.246094" xlink:href="#DejaVuSans-30"/>
      </g>
     </g>
    </g>
    <g id="ytick_5">
     <g id="line2d_5">
      <g>
       <use style="stroke:#000000;stroke-width:0.8;" x="69.134375" xlink:href="#m9f11536145" y="72.940689"/>
      </g>
     </g>
     <g id="text_5">
      <!-- 200 -->
      <g transform="translate(23.959375 80.539127)scale(0.2 -0.2)">
       <use xlink:href="#DejaVuSans-32"/>
       <use x="63.623047" xlink:href="#DejaVuSans-30"/>
       <use x="127.246094" xlink:href="#DejaVuSans-30"/>
      </g>
     </g>
    </g>
   </g>
   <g id="line2d_6">
    <path clip-path="url(#pdafbf555d0)" d="M 219.804375 387.79525 
L 219.804375 89.555375 
" style="fill:none;stroke:#7a7a7a;stroke-linecap:square;stroke-width:1.5;"/>
   </g>
   <g id="line2d_7">
    <path clip-path="url(#pdafbf555d0)" d="M 219.804375 284.220898 
L 219.804375 174.140212 
" style="fill:none;stroke:#7a7a7a;stroke-linecap:square;stroke-width:4.5;"/>
   </g>
   <g id="patch_3">
    <path d="M 69.134375 441.355313 
L 69.134375 35.995313 
" style="fill:none;stroke:#000000;stroke-linecap:square;stroke-linejoin:miter;stroke-width:0.8;"/>
   </g>
   <g id="patch_4">
    <path d="M 370.474375 441.355313 
L 370.474375 35.995313 
" style="fill:none;stroke:#000000;stroke-linecap:square;stroke-linejoin:miter;stroke-width:0.8;"/>
   </g>
   <g id="patch_5">
    <path d="M 69.134375 441.355313 
L 370.474375 441.355313 
" style="fill:none;stroke:#000000;stroke-linecap:square;stroke-linejoin:miter;stroke-width:0.8;"/>
   </g>
   <g id="patch_6">
    <path d="M 69.134375 35.995313 
L 370.474375 35.995313 
" style="fill:none;stroke:#000000;stroke-linecap:square;stroke-linejoin:miter;stroke-width:0.8;"/>
   </g>
   <g id="PathCollection_1">
    <defs>
     <path d="M 0 1.5 
C 0.397805 1.5 0.77937 1.341951 1.06066 1.06066 
C 1.341951 0.77937 1.5 0.397805 1.5 0 
C 1.5 -0.397805 1.341951 -0.77937 1.06066 -1.06066 
C 0.77937 -1.341951 0.397805 -1.5 0 -1.5 
C -0.397805 -1.5 -0.77937 -1.341951 -1.06066 -1.06066 
C -1.341951 -0.77937 -1.5 -0.397805 -1.5 0 
C -1.5 0.397805 -1.341951 0.77937 -1.06066 1.06066 
C -0.77937 1.341951 -0.397805 1.5 0 1.5 
z
" id="ma9cb2db12d" style="stroke:#7a7a7a;"/>
    </defs>
    <g clip-path="url(#pdafbf555d0)">
     <use style="fill:#ffffff;stroke:#7a7a7a;" x="219.804375" xlink:href="#ma9cb2db12d" y="229.444057"/>
    </g>
   </g>
   <g id="text_6">
    <!-- Phase -->
    <defs>
     <path d="M 19.671875 64.796875 
L 19.671875 37.40625 
L 32.078125 37.40625 
Q 38.96875 37.40625 42.71875 40.96875 
Q 46.484375 44.53125 46.484375 51.125 
Q 46.484375 57.671875 42.71875 61.234375 
Q 38.96875 64.796875 32.078125 64.796875 
z
M 9.8125 72.90625 
L 32.078125 72.90625 
Q 44.34375 72.90625 50.609375 67.359375 
Q 56.890625 61.8125 56.890625 51.125 
Q 56.890625 40.328125 50.609375 34.8125 
Q 44.34375 29.296875 32.078125 29.296875 
L 19.671875 29.296875 
L 19.671875 0 
L 9.8125 0 
z
" id="DejaVuSans-50"/>
     <path d="M 54.890625 33.015625 
L 54.890625 0 
L 45.90625 0 
L 45.90625 32.71875 
Q 45.90625 40.484375 42.875 44.328125 
Q 39.84375 48.1875 33.796875 48.1875 
Q 26.515625 48.1875 22.3125 43.546875 
Q 18.109375 38.921875 18.109375 30.90625 
L 18.109375 0 
L 9.078125 0 
L 9.078125 75.984375 
L 18.109375 75.984375 
L 18.109375 46.1875 
Q 21.34375 51.125 25.703125 53.5625 
Q 30.078125 56 35.796875 56 
Q 45.21875 56 50.046875 50.171875 
Q 54.890625 44.34375 54.890625 33.015625 
z
" id="DejaVuSans-68"/>
     <path d="M 34.28125 27.484375 
Q 23.390625 27.484375 19.1875 25 
Q 14.984375 22.515625 14.984375 16.5 
Q 14.984375 11.71875 18.140625 8.90625 
Q 21.296875 6.109375 26.703125 6.109375 
Q 34.1875 6.109375 38.703125 11.40625 
Q 43.21875 16.703125 43.21875 25.484375 
L 43.21875 27.484375 
z
M 52.203125 31.203125 
L 52.203125 0 
L 43.21875 0 
L 43.21875 8.296875 
Q 40.140625 3.328125 35.546875 0.953125 
Q 30.953125 -1.421875 24.3125 -1.421875 
Q 15.921875 -1.421875 10.953125 3.296875 
Q 6 8.015625 6 15.921875 
Q 6 25.140625 12.171875 29.828125 
Q 18.359375 34.515625 30.609375 34.515625 
L 43.21875 34.515625 
L 43.21875 35.40625 
Q 43.21875 41.609375 39.140625 45 
Q 35.0625 48.390625 27.6875 48.390625 
Q 23 48.390625 18.546875 47.265625 
Q 14.109375 46.140625 10.015625 43.890625 
L 10.015625 52.203125 
Q 14.9375 54.109375 19.578125 55.046875 
Q 24.21875 56 28.609375 56 
Q 40.484375 56 46.34375 49.84375 
Q 52.203125 43.703125 52.203125 31.203125 
z
" id="DejaVuSans-61"/>
     <path d="M 44.28125 53.078125 
L 44.28125 44.578125 
Q 40.484375 46.53125 36.375 47.5 
Q 32.28125 48.484375 27.875 48.484375 
Q 21.1875 48.484375 17.84375 46.4375 
Q 14.5 44.390625 14.5 40.28125 
Q 14.5 37.15625 16.890625 35.375 
Q 19.28125 33.59375 26.515625 31.984375 
L 29.59375 31.296875 
Q 39.15625 29.25 43.1875 25.515625 
Q 47.21875 21.78125 47.21875 15.09375 
Q 47.21875 7.46875 41.1875 3.015625 
Q 35.15625 -1.421875 24.609375 -1.421875 
Q 20.21875 -1.421875 15.453125 -0.5625 
Q 10.6875 0.296875 5.421875 2 
L 5.421875 11.28125 
Q 10.40625 8.6875 15.234375 7.390625 
Q 20.0625 6.109375 24.8125 6.109375 
Q 31.15625 6.109375 34.5625 8.28125 
Q 37.984375 10.453125 37.984375 14.40625 
Q 37.984375 18.0625 35.515625 20.015625 
Q 33.0625 21.96875 24.703125 23.78125 
L 21.578125 24.515625 
Q 13.234375 26.265625 9.515625 29.90625 
Q 5.8125 33.546875 5.8125 39.890625 
Q 5.8125 47.609375 11.28125 51.796875 
Q 16.75 56 26.8125 56 
Q 31.78125 56 36.171875 55.265625 
Q 40.578125 54.546875 44.28125 53.078125 
z
" id="DejaVuSans-73"/>
     <path d="M 56.203125 29.59375 
L 56.203125 25.203125 
L 14.890625 25.203125 
Q 15.484375 15.921875 20.484375 11.0625 
Q 25.484375 6.203125 34.421875 6.203125 
Q 39.59375 6.203125 44.453125 7.46875 
Q 49.3125 8.734375 54.109375 11.28125 
L 54.109375 2.78125 
Q 49.265625 0.734375 44.1875 -0.34375 
Q 39.109375 -1.421875 33.890625 -1.421875 
Q 20.796875 -1.421875 13.15625 6.1875 
Q 5.515625 13.8125 5.515625 26.8125 
Q 5.515625 40.234375 12.765625 48.109375 
Q 20.015625 56 32.328125 56 
Q 43.359375 56 49.78125 48.890625 
Q 56.203125 41.796875 56.203125 29.59375 
z
M 47.21875 32.234375 
Q 47.125 39.59375 43.09375 43.984375 
Q 39.0625 48.390625 32.421875 48.390625 
Q 24.90625 48.390625 20.390625 44.140625 
Q 15.875 39.890625 15.1875 32.171875 
z
" id="DejaVuSans-65"/>
    </defs>
    <g transform="translate(175.017656 29.995313)scale(0.3 -0.3)">
     <use xlink:href="#DejaVuSans-50"/>
     <use x="60.302734" xlink:href="#DejaVuSans-68"/>
     <use x="123.681641" xlink:href="#DejaVuSans-61"/>
     <use x="184.960938" xlink:href="#DejaVuSans-73"/>
     <use x="237.060547" xlink:href="#DejaVuSans-65"/>
    </g>
   </g>
  </g>
 </g>
 <defs>
  <clipPath id="pdafbf555d0">
   <rect height="405.36" width="301.34" x="69.134375" y="35.995313"/>
  </clipPath>
 </defs>
</svg>
