<?xml version="1.0" encoding="utf-8" standalone="no"?>
<!DOCTYPE svg PUBLIC "-//W3C//DTD SVG 1.1//EN"
  "http://www.w3.org/Graphics/SVG/1.1/DTD/svg11.dtd">
<!-- Created with matplotlib (http://matplotlib.org/) -->
<svg height="452.055313pt" version="1.1" viewBox="0 0 366.45 452.055313" width="366.45pt" xmlns="http://www.w3.org/2000/svg" xmlns:xlink="http://www.w3.org/1999/xlink">
 <defs>
  <style type="text/css">
*{stroke-linecap:butt;stroke-linejoin:round;}
  </style>
 </defs>
 <g id="figure_1">
  <g id="patch_1">
   <path d="M 0 452.055313 
L 366.45 452.055313 
L 366.45 0 
L 0 0 
z
" style="fill:#ffffff;"/>
  </g>
  <g id="axes_1">
   <g id="patch_2">
    <path d="M 39.65 441.355313 
L 355.75 441.355313 
L 355.75 35.995313 
L 39.65 35.995313 
z
" style="fill:#ffffff;"/>
   </g>
   <g id="PolyCollection_1">
    <defs>
     <path d="M 202.614083 -29.125455 
L 192.785917 -29.125455 
L 190.107567 -32.847769 
L 186.479831 -36.570083 
L 181.814713 -40.292397 
L 176.110275 -44.014711 
L 169.461844 -47.737025 
L 162.050933 -51.459339 
L 154.113809 -55.181653 
L 145.900452 -58.903967 
L 137.639009 -62.626281 
L 129.517777 -66.348595 
L 121.686993 -70.070909 
L 114.271925 -73.793223 
L 107.383654 -77.515537 
L 101.117895 -81.237851 
L 95.542576 -84.960165 
L 90.684169 -88.682479 
L 86.524221 -92.404793 
L 83.010351 -96.127107 
L 80.075792 -99.849421 
L 77.65635 -103.571736 
L 75.697101 -107.29405 
L 74.149933 -111.016364 
L 72.969561 -114.738678 
L 72.114687 -118.460992 
L 71.554079 -122.183306 
L 71.271039 -125.90562 
L 71.26 -129.627934 
L 71.515557 -133.350248 
L 72.021149 -137.072562 
L 72.745526 -140.794876 
L 73.649095 -144.51719 
L 74.694456 -148.239504 
L 75.852689 -151.961818 
L 77.101412 -155.684132 
L 78.418104 -159.406446 
L 79.776037 -163.12876 
L 81.147328 -166.851074 
L 82.510954 -170.573388 
L 83.85939 -174.295702 
L 85.199286 -178.018017 
L 86.547318 -181.740331 
L 87.926301 -185.462645 
L 89.365221 -189.184959 
L 90.901518 -192.907273 
L 92.580178 -196.629587 
L 94.445881 -200.351901 
L 96.530488 -204.074215 
L 98.843119 -207.796529 
L 101.369381 -211.518843 
L 104.080092 -215.241157 
L 106.943321 -218.963471 
L 109.931917 -222.685785 
L 113.023153 -226.408099 
L 116.193617 -230.130413 
L 119.415586 -233.852727 
L 122.658735 -237.575041 
L 125.895637 -241.297355 
L 129.106123 -245.019669 
L 132.276827 -248.741983 
L 135.396618 -252.464298 
L 138.452126 -256.186612 
L 141.427187 -259.908926 
L 144.306514 -263.63124 
L 147.080495 -267.353554 
L 149.747531 -271.075868 
L 152.312822 -274.798182 
L 154.785348 -278.520496 
L 157.175596 -282.24281 
L 159.494827 -285.965124 
L 161.754499 -289.687438 
L 163.963894 -293.409752 
L 166.125739 -297.132066 
L 168.23194 -300.85438 
L 170.262395 -304.576694 
L 172.188498 -308.299008 
L 173.980256 -312.021322 
L 175.614139 -315.743636 
L 177.078778 -319.46595 
L 178.377176 -323.188264 
L 179.525788 -326.910579 
L 180.551587 -330.632893 
L 181.488091 -334.355207 
L 182.370922 -338.077521 
L 183.233496 -341.799835 
L 184.103696 -345.522149 
L 185.002302 -349.244463 
L 185.943241 -352.966777 
L 186.934671 -356.689091 
L 187.979406 -360.411405 
L 189.073725 -364.133719 
L 190.204993 -367.856033 
L 191.349805 -371.578347 
L 192.474591 -375.300661 
L 193.539652 -379.022975 
L 194.505872 -382.745289 
L 195.342018 -386.467603 
L 196.03019 -390.189917 
L 196.567833 -393.912231 
L 196.966119 -397.634545 
L 198.433881 -397.634545 
L 198.433881 -397.634545 
L 198.832167 -393.912231 
L 199.36981 -390.189917 
L 200.057982 -386.467603 
L 200.894128 -382.745289 
L 201.860348 -379.022975 
L 202.925409 -375.300661 
L 204.050195 -371.578347 
L 205.195007 -367.856033 
L 206.326275 -364.133719 
L 207.420594 -360.411405 
L 208.465329 -356.689091 
L 209.456759 -352.966777 
L 210.397698 -349.244463 
L 211.296304 -345.522149 
L 212.166504 -341.799835 
L 213.029078 -338.077521 
L 213.911909 -334.355207 
L 214.848413 -330.632893 
L 215.874212 -326.910579 
L 217.022824 -323.188264 
L 218.321222 -319.46595 
L 219.785861 -315.743636 
L 221.419744 -312.021322 
L 223.211502 -308.299008 
L 225.137605 -304.576694 
L 227.16806 -300.85438 
L 229.274261 -297.132066 
L 231.436106 -293.409752 
L 233.645501 -289.687438 
L 235.905173 -285.965124 
L 238.224404 -282.24281 
L 240.614652 -278.520496 
L 243.087178 -274.798182 
L 245.652469 -271.075868 
L 248.319505 -267.353554 
L 251.093486 -263.63124 
L 253.972813 -259.908926 
L 256.947874 -256.186612 
L 260.003382 -252.464298 
L 263.123173 -248.741983 
L 266.293877 -245.019669 
L 269.504363 -241.297355 
L 272.741265 -237.575041 
L 275.984414 -233.852727 
L 279.206383 -230.130413 
L 282.376847 -226.408099 
L 285.468083 -222.685785 
L 288.456679 -218.963471 
L 291.319908 -215.241157 
L 294.030619 -211.518843 
L 296.556881 -207.796529 
L 298.869512 -204.074215 
L 300.954119 -200.351901 
L 302.819822 -196.629587 
L 304.498482 -192.907273 
L 306.034779 -189.184959 
L 307.473699 -185.462645 
L 308.852682 -181.740331 
L 310.200714 -178.018017 
L 311.54061 -174.295702 
L 312.889046 -170.573388 
L 314.252672 -166.851074 
L 315.623963 -163.12876 
L 316.981896 -159.406446 
L 318.298588 -155.684132 
L 319.547311 -151.961818 
L 320.705544 -148.239504 
L 321.750905 -144.51719 
L 322.654474 -140.794876 
L 323.378851 -137.072562 
L 323.884443 -133.350248 
L 324.14 -129.627934 
L 324.128961 -125.90562 
L 323.845921 -122.183306 
L 323.285313 -118.460992 
L 322.430439 -114.738678 
L 321.250067 -111.016364 
L 319.702899 -107.29405 
L 317.74365 -103.571736 
L 315.324208 -99.849421 
L 312.389649 -96.127107 
L 308.875779 -92.404793 
L 304.715831 -88.682479 
L 299.857424 -84.960165 
L 294.282105 -81.237851 
L 288.016346 -77.515537 
L 281.128075 -73.793223 
L 273.713007 -70.070909 
L 265.882223 -66.348595 
L 257.760991 -62.626281 
L 249.499548 -58.903967 
L 241.286191 -55.181653 
L 233.349067 -51.459339 
L 225.938156 -47.737025 
L 219.289725 -44.014711 
L 213.585287 -40.292397 
L 208.920169 -36.570083 
L 205.292433 -32.847769 
L 202.614083 -29.125455 
z
" id="mc2b647f4a8" style="stroke:#838383;stroke-width:1.5;"/>
    </defs>
    <g clip-path="url(#p841f8d312b)">
     <use style="fill:#f6bfc7;stroke:#838383;stroke-width:1.5;" x="0" xlink:href="#mc2b647f4a8" y="452.055313"/>
    </g>
   </g>
   <g id="matplotlib.axis_1"/>
   <g id="matplotlib.axis_2">
    <g id="ytick_1">
     <g id="line2d_1">
      <defs>
       <path d="M 0 0 
L -3.5 0 
" id="mc28beb0c9b" style="stroke:#000000;stroke-width:0.8;"/>
      </defs>
      <g>
       <use style="stroke:#000000;stroke-width:0.8;" x="39.65" xlink:href="#mc28beb0c9b" y="412.679041"/>
      </g>
     </g>
     <g id="text_1">
      <!-- 4 -->
      <defs>
       <path d="M 37.796875 64.3125 
L 12.890625 25.390625 
L 37.796875 25.390625 
z
M 35.203125 72.90625 
L 47.609375 72.90625 
L 47.609375 25.390625 
L 58.015625 25.390625 
L 58.015625 17.1875 
L 47.609375 17.1875 
L 47.609375 0 
L 37.796875 0 
L 37.796875 17.1875 
L 4.890625 17.1875 
L 4.890625 26.703125 
z
" id="DejaVuSans-34"/>
      </defs>
      <g transform="translate(19.925 420.277478)scale(0.2 -0.2)">
       <use xlink:href="#DejaVuSans-34"/>
      </g>
     </g>
    </g>
    <g id="ytick_2">
     <g id="line2d_2">
      <g>
       <use style="stroke:#000000;stroke-width:0.8;" x="39.65" xlink:href="#mc28beb0c9b" y="366.278047"/>
      </g>
     </g>
     <g id="text_2">
      <!-- 6 -->
      <defs>
       <path d="M 33.015625 40.375 
Q 26.375 40.375 22.484375 35.828125 
Q 18.609375 31.296875 18.609375 23.390625 
Q 18.609375 15.53125 22.484375 10.953125 
Q 26.375 6.390625 33.015625 6.390625 
Q 39.65625 6.390625 43.53125 10.953125 
Q 47.40625 15.53125 47.40625 23.390625 
Q 47.40625 31.296875 43.53125 35.828125 
Q 39.65625 40.375 33.015625 40.375 
z
M 52.59375 71.296875 
L 52.59375 62.3125 
Q 48.875 64.0625 45.09375 64.984375 
Q 41.3125 65.921875 37.59375 65.921875 
Q 27.828125 65.921875 22.671875 59.328125 
Q 17.53125 52.734375 16.796875 39.40625 
Q 19.671875 43.65625 24.015625 45.921875 
Q 28.375 48.1875 33.59375 48.1875 
Q 44.578125 48.1875 50.953125 41.515625 
Q 57.328125 34.859375 57.328125 23.390625 
Q 57.328125 12.15625 50.6875 5.359375 
Q 44.046875 -1.421875 33.015625 -1.421875 
Q 20.359375 -1.421875 13.671875 8.265625 
Q 6.984375 17.96875 6.984375 36.375 
Q 6.984375 53.65625 15.1875 63.9375 
Q 23.390625 74.21875 37.203125 74.21875 
Q 40.921875 74.21875 44.703125 73.484375 
Q 48.484375 72.75 52.59375 71.296875 
z
" id="DejaVuSans-36"/>
      </defs>
      <g transform="translate(19.925 373.876484)scale(0.2 -0.2)">
       <use xlink:href="#DejaVuSans-36"/>
      </g>
     </g>
    </g>
    <g id="ytick_3">
     <g id="line2d_3">
      <g>
       <use style="stroke:#000000;stroke-width:0.8;" x="39.65" xlink:href="#mc28beb0c9b" y="319.877052"/>
      </g>
     </g>
     <g id="text_3">
      <!-- 8 -->
      <defs>
       <path d="M 31.78125 34.625 
Q 24.75 34.625 20.71875 30.859375 
Q 16.703125 27.09375 16.703125 20.515625 
Q 16.703125 13.921875 20.71875 10.15625 
Q 24.75 6.390625 31.78125 6.390625 
Q 38.8125 6.390625 42.859375 10.171875 
Q 46.921875 13.96875 46.921875 20.515625 
Q 46.921875 27.09375 42.890625 30.859375 
Q 38.875 34.625 31.78125 34.625 
z
M 21.921875 38.8125 
Q 15.578125 40.375 12.03125 44.71875 
Q 8.5 49.078125 8.5 55.328125 
Q 8.5 64.0625 14.71875 69.140625 
Q 20.953125 74.21875 31.78125 74.21875 
Q 42.671875 74.21875 48.875 69.140625 
Q 55.078125 64.0625 55.078125 55.328125 
Q 55.078125 49.078125 51.53125 44.71875 
Q 48 40.375 41.703125 38.8125 
Q 48.828125 37.15625 52.796875 32.3125 
Q 56.78125 27.484375 56.78125 20.515625 
Q 56.78125 9.90625 50.3125 4.234375 
Q 43.84375 -1.421875 31.78125 -1.421875 
Q 19.734375 -1.421875 13.25 4.234375 
Q 6.78125 9.90625 6.78125 20.515625 
Q 6.78125 27.484375 10.78125 32.3125 
Q 14.796875 37.15625 21.921875 38.8125 
z
M 18.3125 54.390625 
Q 18.3125 48.734375 21.84375 45.5625 
Q 25.390625 42.390625 31.78125 42.390625 
Q 38.140625 42.390625 41.71875 45.5625 
Q 45.3125 48.734375 45.3125 54.390625 
Q 45.3125 60.0625 41.71875 63.234375 
Q 38.140625 66.40625 31.78125 66.40625 
Q 25.390625 66.40625 21.84375 63.234375 
Q 18.3125 60.0625 18.3125 54.390625 
z
" id="DejaVuSans-38"/>
      </defs>
      <g transform="translate(19.925 327.47549)scale(0.2 -0.2)">
       <use xlink:href="#DejaVuSans-38"/>
      </g>
     </g>
    </g>
    <g id="ytick_4">
     <g id="line2d_4">
      <g>
       <use style="stroke:#000000;stroke-width:0.8;" x="39.65" xlink:href="#mc28beb0c9b" y="273.476058"/>
      </g>
     </g>
     <g id="text_4">
      <!-- 10 -->
      <defs>
       <path d="M 12.40625 8.296875 
L 28.515625 8.296875 
L 28.515625 63.921875 
L 10.984375 60.40625 
L 10.984375 69.390625 
L 28.421875 72.90625 
L 38.28125 72.90625 
L 38.28125 8.296875 
L 54.390625 8.296875 
L 54.390625 0 
L 12.40625 0 
z
" id="DejaVuSans-31"/>
       <path d="M 31.78125 66.40625 
Q 24.171875 66.40625 20.328125 58.90625 
Q 16.5 51.421875 16.5 36.375 
Q 16.5 21.390625 20.328125 13.890625 
Q 24.171875 6.390625 31.78125 6.390625 
Q 39.453125 6.390625 43.28125 13.890625 
Q 47.125 21.390625 47.125 36.375 
Q 47.125 51.421875 43.28125 58.90625 
Q 39.453125 66.40625 31.78125 66.40625 
z
M 31.78125 74.21875 
Q 44.046875 74.21875 50.515625 64.515625 
Q 56.984375 54.828125 56.984375 36.375 
Q 56.984375 17.96875 50.515625 8.265625 
Q 44.046875 -1.421875 31.78125 -1.421875 
Q 19.53125 -1.421875 13.0625 8.265625 
Q 6.59375 17.96875 6.59375 36.375 
Q 6.59375 54.828125 13.0625 64.515625 
Q 19.53125 74.21875 31.78125 74.21875 
z
" id="DejaVuSans-30"/>
      </defs>
      <g transform="translate(7.2 281.074496)scale(0.2 -0.2)">
       <use xlink:href="#DejaVuSans-31"/>
       <use x="63.623047" xlink:href="#DejaVuSans-30"/>
      </g>
     </g>
    </g>
    <g id="ytick_5">
     <g id="line2d_5">
      <g>
       <use style="stroke:#000000;stroke-width:0.8;" x="39.65" xlink:href="#mc28beb0c9b" y="227.075064"/>
      </g>
     </g>
     <g id="text_5">
      <!-- 12 -->
      <defs>
       <path d="M 19.1875 8.296875 
L 53.609375 8.296875 
L 53.609375 0 
L 7.328125 0 
L 7.328125 8.296875 
Q 12.9375 14.109375 22.625 23.890625 
Q 32.328125 33.6875 34.8125 36.53125 
Q 39.546875 41.84375 41.421875 45.53125 
Q 43.3125 49.21875 43.3125 52.78125 
Q 43.3125 58.59375 39.234375 62.25 
Q 35.15625 65.921875 28.609375 65.921875 
Q 23.96875 65.921875 18.8125 64.3125 
Q 13.671875 62.703125 7.8125 59.421875 
L 7.8125 69.390625 
Q 13.765625 71.78125 18.9375 73 
Q 24.125 74.21875 28.421875 74.21875 
Q 39.75 74.21875 46.484375 68.546875 
Q 53.21875 62.890625 53.21875 53.421875 
Q 53.21875 48.921875 51.53125 44.890625 
Q 49.859375 40.875 45.40625 35.40625 
Q 44.1875 33.984375 37.640625 27.21875 
Q 31.109375 20.453125 19.1875 8.296875 
z
" id="DejaVuSans-32"/>
      </defs>
      <g transform="translate(7.2 234.673501)scale(0.2 -0.2)">
       <use xlink:href="#DejaVuSans-31"/>
       <use x="63.623047" xlink:href="#DejaVuSans-32"/>
      </g>
     </g>
    </g>
    <g id="ytick_6">
     <g id="line2d_6">
      <g>
       <use style="stroke:#000000;stroke-width:0.8;" x="39.65" xlink:href="#mc28beb0c9b" y="180.67407"/>
      </g>
     </g>
     <g id="text_6">
      <!-- 14 -->
      <g transform="translate(7.2 188.272507)scale(0.2 -0.2)">
       <use xlink:href="#DejaVuSans-31"/>
       <use x="63.623047" xlink:href="#DejaVuSans-34"/>
      </g>
     </g>
    </g>
    <g id="ytick_7">
     <g id="line2d_7">
      <g>
       <use style="stroke:#000000;stroke-width:0.8;" x="39.65" xlink:href="#mc28beb0c9b" y="134.273076"/>
      </g>
     </g>
     <g id="text_7">
      <!-- 16 -->
      <g transform="translate(7.2 141.871513)scale(0.2 -0.2)">
       <use xlink:href="#DejaVuSans-31"/>
       <use x="63.623047" xlink:href="#DejaVuSans-36"/>
      </g>
     </g>
    </g>
    <g id="ytick_8">
     <g id="line2d_8">
      <g>
       <use style="stroke:#000000;stroke-width:0.8;" x="39.65" xlink:href="#mc28beb0c9b" y="87.872081"/>
      </g>
     </g>
     <g id="text_8">
      <!-- 18 -->
      <g transform="translate(7.2 95.470519)scale(0.2 -0.2)">
       <use xlink:href="#DejaVuSans-31"/>
       <use x="63.623047" xlink:href="#DejaVuSans-38"/>
      </g>
     </g>
    </g>
    <g id="ytick_9">
     <g id="line2d_9">
      <g>
       <use style="stroke:#000000;stroke-width:0.8;" x="39.65" xlink:href="#mc28beb0c9b" y="41.471087"/>
      </g>
     </g>
     <g id="text_9">
      <!-- 20 -->
      <g transform="translate(7.2 49.069525)scale(0.2 -0.2)">
       <use xlink:href="#DejaVuSans-32"/>
       <use x="63.623047" xlink:href="#DejaVuSans-30"/>
      </g>
     </g>
    </g>
   </g>
   <g id="line2d_10">
    <path clip-path="url(#p841f8d312b)" d="M 197.7 389.478544 
L 197.7 87.872081 
" style="fill:none;stroke:#838383;stroke-linecap:square;stroke-width:1.5;"/>
   </g>
   <g id="line2d_11">
    <path clip-path="url(#p841f8d312b)" d="M 197.7 343.077549 
L 197.7 227.075064 
" style="fill:none;stroke:#838383;stroke-linecap:square;stroke-width:4.5;"/>
   </g>
   <g id="patch_3">
    <path d="M 39.65 441.355313 
L 39.65 35.995313 
" style="fill:none;stroke:#000000;stroke-linecap:square;stroke-linejoin:miter;stroke-width:0.8;"/>
   </g>
   <g id="patch_4">
    <path d="M 355.75 441.355313 
L 355.75 35.995313 
" style="fill:none;stroke:#000000;stroke-linecap:square;stroke-linejoin:miter;stroke-width:0.8;"/>
   </g>
   <g id="patch_5">
    <path d="M 39.65 441.355313 
L 355.75 441.355313 
" style="fill:none;stroke:#000000;stroke-linecap:square;stroke-linejoin:miter;stroke-width:0.8;"/>
   </g>
   <g id="patch_6">
    <path d="M 39.65 35.995313 
L 355.75 35.995313 
" style="fill:none;stroke:#000000;stroke-linecap:square;stroke-linejoin:miter;stroke-width:0.8;"/>
   </g>
   <g id="PathCollection_1">
    <defs>
     <path d="M 0 1.5 
C 0.397805 1.5 0.77937 1.341951 1.06066 1.06066 
C 1.341951 0.77937 1.5 0.397805 1.5 0 
C 1.5 -0.397805 1.341951 -0.77937 1.06066 -1.06066 
C 0.77937 -1.341951 0.397805 -1.5 0 -1.5 
C -0.397805 -1.5 -0.77937 -1.341951 -1.06066 -1.06066 
C -1.341951 -0.77937 -1.5 -0.397805 -1.5 0 
C -1.5 0.397805 -1.341951 0.77937 -1.06066 1.06066 
C -0.77937 1.341951 -0.397805 1.5 0 1.5 
z
" id="mff769d0646" style="stroke:#838383;"/>
    </defs>
    <g clip-path="url(#p841f8d312b)">
     <use style="fill:#ffffff;stroke:#838383;" x="197.7" xlink:href="#mff769d0646" y="296.676555"/>
    </g>
   </g>
   <g id="text_10">
    <!-- Frequency -->
    <defs>
     <path d="M 9.8125 72.90625 
L 51.703125 72.90625 
L 51.703125 64.59375 
L 19.671875 64.59375 
L 19.671875 43.109375 
L 48.578125 43.109375 
L 48.578125 34.8125 
L 19.671875 34.8125 
L 19.671875 0 
L 9.8125 0 
z
" id="DejaVuSans-46"/>
     <path d="M 41.109375 46.296875 
Q 39.59375 47.171875 37.8125 47.578125 
Q 36.03125 48 33.890625 48 
Q 26.265625 48 22.1875 43.046875 
Q 18.109375 38.09375 18.109375 28.8125 
L 18.109375 0 
L 9.078125 0 
L 9.078125 54.6875 
L 18.109375 54.6875 
L 18.109375 46.1875 
Q 20.953125 51.171875 25.484375 53.578125 
Q 30.03125 56 36.53125 56 
Q 37.453125 56 38.578125 55.875 
Q 39.703125 55.765625 41.0625 55.515625 
z
" id="DejaVuSans-72"/>
     <path d="M 56.203125 29.59375 
L 56.203125 25.203125 
L 14.890625 25.203125 
Q 15.484375 15.921875 20.484375 11.0625 
Q 25.484375 6.203125 34.421875 6.203125 
Q 39.59375 6.203125 44.453125 7.46875 
Q 49.3125 8.734375 54.109375 11.28125 
L 54.109375 2.78125 
Q 49.265625 0.734375 44.1875 -0.34375 
Q 39.109375 -1.421875 33.890625 -1.421875 
Q 20.796875 -1.421875 13.15625 6.1875 
Q 5.515625 13.8125 5.515625 26.8125 
Q 5.515625 40.234375 12.765625 48.109375 
Q 20.015625 56 32.328125 56 
Q 43.359375 56 49.78125 48.890625 
Q 56.203125 41.796875 56.203125 29.59375 
z
M 47.21875 32.234375 
Q 47.125 39.59375 43.09375 43.984375 
Q 39.0625 48.390625 32.421875 48.390625 
Q 24.90625 48.390625 20.390625 44.140625 
Q 15.875 39.890625 15.1875 32.171875 
z
" id="DejaVuSans-65"/>
     <path d="M 14.796875 27.296875 
Q 14.796875 17.390625 18.875 11.75 
Q 22.953125 6.109375 30.078125 6.109375 
Q 37.203125 6.109375 41.296875 11.75 
Q 45.40625 17.390625 45.40625 27.296875 
Q 45.40625 37.203125 41.296875 42.84375 
Q 37.203125 48.484375 30.078125 48.484375 
Q 22.953125 48.484375 18.875 42.84375 
Q 14.796875 37.203125 14.796875 27.296875 
z
M 45.40625 8.203125 
Q 42.578125 3.328125 38.25 0.953125 
Q 33.9375 -1.421875 27.875 -1.421875 
Q 17.96875 -1.421875 11.734375 6.484375 
Q 5.515625 14.40625 5.515625 27.296875 
Q 5.515625 40.1875 11.734375 48.09375 
Q 17.96875 56 27.875 56 
Q 33.9375 56 38.25 53.625 
Q 42.578125 51.265625 45.40625 46.390625 
L 45.40625 54.6875 
L 54.390625 54.6875 
L 54.390625 -20.796875 
L 45.40625 -20.796875 
z
" id="DejaVuSans-71"/>
     <path d="M 8.5 21.578125 
L 8.5 54.6875 
L 17.484375 54.6875 
L 17.484375 21.921875 
Q 17.484375 14.15625 20.5 10.265625 
Q 23.53125 6.390625 29.59375 6.390625 
Q 36.859375 6.390625 41.078125 11.03125 
Q 45.3125 15.671875 45.3125 23.6875 
L 45.3125 54.6875 
L 54.296875 54.6875 
L 54.296875 0 
L 45.3125 0 
L 45.3125 8.40625 
Q 42.046875 3.421875 37.71875 1 
Q 33.40625 -1.421875 27.6875 -1.421875 
Q 18.265625 -1.421875 13.375 4.4375 
Q 8.5 10.296875 8.5 21.578125 
z
M 31.109375 56 
z
" id="DejaVuSans-75"/>
     <path d="M 54.890625 33.015625 
L 54.890625 0 
L 45.90625 0 
L 45.90625 32.71875 
Q 45.90625 40.484375 42.875 44.328125 
Q 39.84375 48.1875 33.796875 48.1875 
Q 26.515625 48.1875 22.3125 43.546875 
Q 18.109375 38.921875 18.109375 30.90625 
L 18.109375 0 
L 9.078125 0 
L 9.078125 54.6875 
L 18.109375 54.6875 
L 18.109375 46.1875 
Q 21.34375 51.125 25.703125 53.5625 
Q 30.078125 56 35.796875 56 
Q 45.21875 56 50.046875 50.171875 
Q 54.890625 44.34375 54.890625 33.015625 
z
" id="DejaVuSans-6e"/>
     <path d="M 48.78125 52.59375 
L 48.78125 44.1875 
Q 44.96875 46.296875 41.140625 47.34375 
Q 37.3125 48.390625 33.40625 48.390625 
Q 24.65625 48.390625 19.8125 42.84375 
Q 14.984375 37.3125 14.984375 27.296875 
Q 14.984375 17.28125 19.8125 11.734375 
Q 24.65625 6.203125 33.40625 6.203125 
Q 37.3125 6.203125 41.140625 7.25 
Q 44.96875 8.296875 48.78125 10.40625 
L 48.78125 2.09375 
Q 45.015625 0.34375 40.984375 -0.53125 
Q 36.96875 -1.421875 32.421875 -1.421875 
Q 20.0625 -1.421875 12.78125 6.34375 
Q 5.515625 14.109375 5.515625 27.296875 
Q 5.515625 40.671875 12.859375 48.328125 
Q 20.21875 56 33.015625 56 
Q 37.15625 56 41.109375 55.140625 
Q 45.0625 54.296875 48.78125 52.59375 
z
" id="DejaVuSans-63"/>
     <path d="M 32.171875 -5.078125 
Q 28.375 -14.84375 24.75 -17.8125 
Q 21.140625 -20.796875 15.09375 -20.796875 
L 7.90625 -20.796875 
L 7.90625 -13.28125 
L 13.1875 -13.28125 
Q 16.890625 -13.28125 18.9375 -11.515625 
Q 21 -9.765625 23.484375 -3.21875 
L 25.09375 0.875 
L 2.984375 54.6875 
L 12.5 54.6875 
L 29.59375 11.921875 
L 46.6875 54.6875 
L 56.203125 54.6875 
z
" id="DejaVuSans-79"/>
    </defs>
    <g transform="translate(118.807031 29.995313)scale(0.3 -0.3)">
     <use xlink:href="#DejaVuSans-46"/>
     <use x="57.410156" xlink:href="#DejaVuSans-72"/>
     <use x="98.492188" xlink:href="#DejaVuSans-65"/>
     <use x="160.015625" xlink:href="#DejaVuSans-71"/>
     <use x="223.492188" xlink:href="#DejaVuSans-75"/>
     <use x="286.871094" xlink:href="#DejaVuSans-65"/>
     <use x="348.394531" xlink:href="#DejaVuSans-6e"/>
     <use x="411.773438" xlink:href="#DejaVuSans-63"/>
     <use x="466.753906" xlink:href="#DejaVuSans-79"/>
    </g>
   </g>
  </g>
 </g>
 <defs>
  <clipPath id="p841f8d312b">
   <rect height="405.36" width="316.1" x="39.65" y="35.995313"/>
  </clipPath>
 </defs>
</svg>
