<?xml version="1.0" encoding="utf-8" standalone="no"?>
<!DOCTYPE svg PUBLIC "-//W3C//DTD SVG 1.1//EN"
  "http://www.w3.org/Graphics/SVG/1.1/DTD/svg11.dtd">
<!-- Created with matplotlib (http://matplotlib.org/) -->
<svg height="452.055313pt" version="1.1" viewBox="0 0 366.45 452.055313" width="366.45pt" xmlns="http://www.w3.org/2000/svg" xmlns:xlink="http://www.w3.org/1999/xlink">
 <defs>
  <style type="text/css">
*{stroke-linecap:butt;stroke-linejoin:round;}
  </style>
 </defs>
 <g id="figure_1">
  <g id="patch_1">
   <path d="M 0 452.055313 
L 366.45 452.055313 
L 366.45 0 
L 0 0 
z
" style="fill:#ffffff;"/>
  </g>
  <g id="axes_1">
   <g id="patch_2">
    <path d="M 39.65 441.355313 
L 355.75 441.355313 
L 355.75 35.995313 
L 39.65 35.995313 
z
" style="fill:#ffffff;"/>
   </g>
   <g id="PolyCollection_1">
    <defs>
     <path d="M 202.061522 -29.125455 
L 193.338478 -29.125455 
L 191.16069 -32.847769 
L 188.217522 -36.570083 
L 184.389171 -40.292397 
L 179.593309 -44.014711 
L 173.80302 -47.737025 
L 167.059445 -51.459339 
L 159.476181 -55.181653 
L 151.234285 -58.903967 
L 142.568948 -62.626281 
L 133.750726 -66.348595 
L 125.064739 -70.070909 
L 116.790483 -73.793223 
L 109.183166 -77.515537 
L 102.455871 -81.237851 
L 96.761467 -84.960165 
L 92.174475 -88.682479 
L 88.675752 -92.404793 
L 86.145421 -96.127107 
L 84.370474 -99.849421 
L 83.071521 -103.571736 
L 81.948307 -107.29405 
L 80.737116 -111.016364 
L 79.267493 -114.738678 
L 77.503256 -118.460992 
L 75.555087 -122.183306 
L 73.658892 -125.90562 
L 72.123493 -129.627934 
L 71.26 -133.350248 
L 71.310368 -137.072562 
L 72.392531 -140.794876 
L 74.474386 -144.51719 
L 77.380774 -148.239504 
L 80.829255 -151.961818 
L 84.484303 -155.684132 
L 88.016914 -159.406446 
L 91.157399 -163.12876 
L 93.73233 -166.851074 
L 95.680942 -170.573388 
L 97.050555 -174.295702 
L 97.974199 -178.018017 
L 98.63617 -181.740331 
L 99.232604 -185.462645 
L 99.934242 -189.184959 
L 100.857486 -192.907273 
L 102.047828 -196.629587 
L 103.47732 -200.351901 
L 105.055291 -204.074215 
L 106.649481 -207.796529 
L 108.113225 -211.518843 
L 109.313346 -215.241157 
L 110.153229 -218.963471 
L 110.586273 -222.685785 
L 110.616954 -226.408099 
L 110.289798 -230.130413 
L 109.670183 -233.852727 
L 108.823693 -237.575041 
L 107.801636 -241.297355 
L 106.638419 -245.019669 
L 105.362246 -248.741983 
L 104.015295 -252.464298 
L 102.67533 -256.186612 
L 101.469222 -259.908926 
L 100.57098 -263.63124 
L 100.18188 -267.353554 
L 100.49639 -271.075868 
L 101.662623 -274.798182 
L 103.748225 -278.520496 
L 106.721315 -282.24281 
L 110.451831 -285.965124 
L 114.73297 -289.687438 
L 119.317114 -293.409752 
L 123.95721 -297.132066 
L 128.443928 -300.85438 
L 132.630821 -304.576694 
L 136.443582 -308.299008 
L 139.873942 -312.021322 
L 142.962571 -315.743636 
L 145.777484 -319.46595 
L 148.394478 -323.188264 
L 150.884155 -326.910579 
L 153.307007 -330.632893 
L 155.71488 -334.355207 
L 158.155061 -338.077521 
L 160.672861 -341.799835 
L 163.309872 -345.522149 
L 166.097513 -349.244463 
L 169.047886 -352.966777 
L 172.145486 -356.689091 
L 175.343336 -360.411405 
L 178.565743 -364.133719 
L 181.717657 -367.856033 
L 184.698538 -371.578347 
L 187.417336 -375.300661 
L 189.80504 -379.022975 
L 191.822289 -382.745289 
L 193.461032 -386.467603 
L 194.74087 -390.189917 
L 195.701788 -393.912231 
L 196.39544 -397.634545 
L 199.00456 -397.634545 
L 199.00456 -397.634545 
L 199.698212 -393.912231 
L 200.65913 -390.189917 
L 201.938968 -386.467603 
L 203.577711 -382.745289 
L 205.59496 -379.022975 
L 207.982664 -375.300661 
L 210.701462 -371.578347 
L 213.682343 -367.856033 
L 216.834257 -364.133719 
L 220.056664 -360.411405 
L 223.254514 -356.689091 
L 226.352114 -352.966777 
L 229.302487 -349.244463 
L 232.090128 -345.522149 
L 234.727139 -341.799835 
L 237.244939 -338.077521 
L 239.68512 -334.355207 
L 242.092993 -330.632893 
L 244.515845 -326.910579 
L 247.005522 -323.188264 
L 249.622516 -319.46595 
L 252.437429 -315.743636 
L 255.526058 -312.021322 
L 258.956418 -308.299008 
L 262.769179 -304.576694 
L 266.956072 -300.85438 
L 271.44279 -297.132066 
L 276.082886 -293.409752 
L 280.66703 -289.687438 
L 284.948169 -285.965124 
L 288.678685 -282.24281 
L 291.651775 -278.520496 
L 293.737377 -274.798182 
L 294.90361 -271.075868 
L 295.21812 -267.353554 
L 294.82902 -263.63124 
L 293.930778 -259.908926 
L 292.72467 -256.186612 
L 291.384705 -252.464298 
L 290.037754 -248.741983 
L 288.761581 -245.019669 
L 287.598364 -241.297355 
L 286.576307 -237.575041 
L 285.729817 -233.852727 
L 285.110202 -230.130413 
L 284.783046 -226.408099 
L 284.813727 -222.685785 
L 285.246771 -218.963471 
L 286.086654 -215.241157 
L 287.286775 -211.518843 
L 288.750519 -207.796529 
L 290.344709 -204.074215 
L 291.92268 -200.351901 
L 293.352172 -196.629587 
L 294.542514 -192.907273 
L 295.465758 -189.184959 
L 296.167396 -185.462645 
L 296.76383 -181.740331 
L 297.425801 -178.018017 
L 298.349445 -174.295702 
L 299.719058 -170.573388 
L 301.66767 -166.851074 
L 304.242601 -163.12876 
L 307.383086 -159.406446 
L 310.915697 -155.684132 
L 314.570745 -151.961818 
L 318.019226 -148.239504 
L 320.925614 -144.51719 
L 323.007469 -140.794876 
L 324.089632 -137.072562 
L 324.14 -133.350248 
L 323.276507 -129.627934 
L 321.741108 -125.90562 
L 319.844913 -122.183306 
L 317.896744 -118.460992 
L 316.132507 -114.738678 
L 314.662884 -111.016364 
L 313.451693 -107.29405 
L 312.328479 -103.571736 
L 311.029526 -99.849421 
L 309.254579 -96.127107 
L 306.724248 -92.404793 
L 303.225525 -88.682479 
L 298.638533 -84.960165 
L 292.944129 -81.237851 
L 286.216834 -77.515537 
L 278.609517 -73.793223 
L 270.335261 -70.070909 
L 261.649274 -66.348595 
L 252.831052 -62.626281 
L 244.165715 -58.903967 
L 235.923819 -55.181653 
L 228.340555 -51.459339 
L 221.59698 -47.737025 
L 215.806691 -44.014711 
L 211.010829 -40.292397 
L 207.182478 -36.570083 
L 204.23931 -32.847769 
L 202.061522 -29.125455 
z
" id="m73bbfe25bb" style="stroke:#797979;stroke-width:1.5;"/>
    </defs>
    <g clip-path="url(#p2b0aad80d8)">
     <use style="fill:#b4d4df;stroke:#797979;stroke-width:1.5;" x="0" xlink:href="#m73bbfe25bb" y="452.055313"/>
    </g>
   </g>
   <g id="matplotlib.axis_1"/>
   <g id="matplotlib.axis_2">
    <g id="ytick_1">
     <g id="line2d_1">
      <defs>
       <path d="M 0 0 
L -3.5 0 
" id="me40ec3dbbc" style="stroke:#000000;stroke-width:0.8;"/>
      </defs>
      <g>
       <use style="stroke:#000000;stroke-width:0.8;" x="39.65" xlink:href="#me40ec3dbbc" y="418.907087"/>
      </g>
     </g>
     <g id="text_1">
      <!-- 5 -->
      <defs>
       <path d="M 10.796875 72.90625 
L 49.515625 72.90625 
L 49.515625 64.59375 
L 19.828125 64.59375 
L 19.828125 46.734375 
Q 21.96875 47.46875 24.109375 47.828125 
Q 26.265625 48.1875 28.421875 48.1875 
Q 40.625 48.1875 47.75 41.5 
Q 54.890625 34.8125 54.890625 23.390625 
Q 54.890625 11.625 47.5625 5.09375 
Q 40.234375 -1.421875 26.90625 -1.421875 
Q 22.3125 -1.421875 17.546875 -0.640625 
Q 12.796875 0.140625 7.71875 1.703125 
L 7.71875 11.625 
Q 12.109375 9.234375 16.796875 8.0625 
Q 21.484375 6.890625 26.703125 6.890625 
Q 35.15625 6.890625 40.078125 11.328125 
Q 45.015625 15.765625 45.015625 23.390625 
Q 45.015625 31 40.078125 35.4375 
Q 35.15625 39.890625 26.703125 39.890625 
Q 22.75 39.890625 18.8125 39.015625 
Q 14.890625 38.140625 10.796875 36.28125 
z
" id="DejaVuSans-35"/>
      </defs>
      <g transform="translate(19.925 426.505525)scale(0.2 -0.2)">
       <use xlink:href="#DejaVuSans-35"/>
      </g>
     </g>
    </g>
    <g id="ytick_2">
     <g id="line2d_2">
      <g>
       <use style="stroke:#000000;stroke-width:0.8;" x="39.65" xlink:href="#me40ec3dbbc" y="363.382819"/>
      </g>
     </g>
     <g id="text_2">
      <!-- 10 -->
      <defs>
       <path d="M 12.40625 8.296875 
L 28.515625 8.296875 
L 28.515625 63.921875 
L 10.984375 60.40625 
L 10.984375 69.390625 
L 28.421875 72.90625 
L 38.28125 72.90625 
L 38.28125 8.296875 
L 54.390625 8.296875 
L 54.390625 0 
L 12.40625 0 
z
" id="DejaVuSans-31"/>
       <path d="M 31.78125 66.40625 
Q 24.171875 66.40625 20.328125 58.90625 
Q 16.5 51.421875 16.5 36.375 
Q 16.5 21.390625 20.328125 13.890625 
Q 24.171875 6.390625 31.78125 6.390625 
Q 39.453125 6.390625 43.28125 13.890625 
Q 47.125 21.390625 47.125 36.375 
Q 47.125 51.421875 43.28125 58.90625 
Q 39.453125 66.40625 31.78125 66.40625 
z
M 31.78125 74.21875 
Q 44.046875 74.21875 50.515625 64.515625 
Q 56.984375 54.828125 56.984375 36.375 
Q 56.984375 17.96875 50.515625 8.265625 
Q 44.046875 -1.421875 31.78125 -1.421875 
Q 19.53125 -1.421875 13.0625 8.265625 
Q 6.59375 17.96875 6.59375 36.375 
Q 6.59375 54.828125 13.0625 64.515625 
Q 19.53125 74.21875 31.78125 74.21875 
z
" id="DejaVuSans-30"/>
      </defs>
      <g transform="translate(7.2 370.981256)scale(0.2 -0.2)">
       <use xlink:href="#DejaVuSans-31"/>
       <use x="63.623047" xlink:href="#DejaVuSans-30"/>
      </g>
     </g>
    </g>
    <g id="ytick_3">
     <g id="line2d_3">
      <g>
       <use style="stroke:#000000;stroke-width:0.8;" x="39.65" xlink:href="#me40ec3dbbc" y="307.858551"/>
      </g>
     </g>
     <g id="text_3">
      <!-- 15 -->
      <g transform="translate(7.2 315.456988)scale(0.2 -0.2)">
       <use xlink:href="#DejaVuSans-31"/>
       <use x="63.623047" xlink:href="#DejaVuSans-35"/>
      </g>
     </g>
    </g>
    <g id="ytick_4">
     <g id="line2d_4">
      <g>
       <use style="stroke:#000000;stroke-width:0.8;" x="39.65" xlink:href="#me40ec3dbbc" y="252.334282"/>
      </g>
     </g>
     <g id="text_4">
      <!-- 20 -->
      <defs>
       <path d="M 19.1875 8.296875 
L 53.609375 8.296875 
L 53.609375 0 
L 7.328125 0 
L 7.328125 8.296875 
Q 12.9375 14.109375 22.625 23.890625 
Q 32.328125 33.6875 34.8125 36.53125 
Q 39.546875 41.84375 41.421875 45.53125 
Q 43.3125 49.21875 43.3125 52.78125 
Q 43.3125 58.59375 39.234375 62.25 
Q 35.15625 65.921875 28.609375 65.921875 
Q 23.96875 65.921875 18.8125 64.3125 
Q 13.671875 62.703125 7.8125 59.421875 
L 7.8125 69.390625 
Q 13.765625 71.78125 18.9375 73 
Q 24.125 74.21875 28.421875 74.21875 
Q 39.75 74.21875 46.484375 68.546875 
Q 53.21875 62.890625 53.21875 53.421875 
Q 53.21875 48.921875 51.53125 44.890625 
Q 49.859375 40.875 45.40625 35.40625 
Q 44.1875 33.984375 37.640625 27.21875 
Q 31.109375 20.453125 19.1875 8.296875 
z
" id="DejaVuSans-32"/>
      </defs>
      <g transform="translate(7.2 259.93272)scale(0.2 -0.2)">
       <use xlink:href="#DejaVuSans-32"/>
       <use x="63.623047" xlink:href="#DejaVuSans-30"/>
      </g>
     </g>
    </g>
    <g id="ytick_5">
     <g id="line2d_5">
      <g>
       <use style="stroke:#000000;stroke-width:0.8;" x="39.65" xlink:href="#me40ec3dbbc" y="196.810014"/>
      </g>
     </g>
     <g id="text_5">
      <!-- 25 -->
      <g transform="translate(7.2 204.408452)scale(0.2 -0.2)">
       <use xlink:href="#DejaVuSans-32"/>
       <use x="63.623047" xlink:href="#DejaVuSans-35"/>
      </g>
     </g>
    </g>
    <g id="ytick_6">
     <g id="line2d_6">
      <g>
       <use style="stroke:#000000;stroke-width:0.8;" x="39.65" xlink:href="#me40ec3dbbc" y="141.285746"/>
      </g>
     </g>
     <g id="text_6">
      <!-- 30 -->
      <defs>
       <path d="M 40.578125 39.3125 
Q 47.65625 37.796875 51.625 33 
Q 55.609375 28.21875 55.609375 21.1875 
Q 55.609375 10.40625 48.1875 4.484375 
Q 40.765625 -1.421875 27.09375 -1.421875 
Q 22.515625 -1.421875 17.65625 -0.515625 
Q 12.796875 0.390625 7.625 2.203125 
L 7.625 11.71875 
Q 11.71875 9.328125 16.59375 8.109375 
Q 21.484375 6.890625 26.8125 6.890625 
Q 36.078125 6.890625 40.9375 10.546875 
Q 45.796875 14.203125 45.796875 21.1875 
Q 45.796875 27.640625 41.28125 31.265625 
Q 36.765625 34.90625 28.71875 34.90625 
L 20.21875 34.90625 
L 20.21875 43.015625 
L 29.109375 43.015625 
Q 36.375 43.015625 40.234375 45.921875 
Q 44.09375 48.828125 44.09375 54.296875 
Q 44.09375 59.90625 40.109375 62.90625 
Q 36.140625 65.921875 28.71875 65.921875 
Q 24.65625 65.921875 20.015625 65.03125 
Q 15.375 64.15625 9.8125 62.3125 
L 9.8125 71.09375 
Q 15.4375 72.65625 20.34375 73.4375 
Q 25.25 74.21875 29.59375 74.21875 
Q 40.828125 74.21875 47.359375 69.109375 
Q 53.90625 64.015625 53.90625 55.328125 
Q 53.90625 49.265625 50.4375 45.09375 
Q 46.96875 40.921875 40.578125 39.3125 
z
" id="DejaVuSans-33"/>
      </defs>
      <g transform="translate(7.2 148.884184)scale(0.2 -0.2)">
       <use xlink:href="#DejaVuSans-33"/>
       <use x="63.623047" xlink:href="#DejaVuSans-30"/>
      </g>
     </g>
    </g>
    <g id="ytick_7">
     <g id="line2d_7">
      <g>
       <use style="stroke:#000000;stroke-width:0.8;" x="39.65" xlink:href="#me40ec3dbbc" y="85.761478"/>
      </g>
     </g>
     <g id="text_7">
      <!-- 35 -->
      <g transform="translate(7.2 93.359915)scale(0.2 -0.2)">
       <use xlink:href="#DejaVuSans-33"/>
       <use x="63.623047" xlink:href="#DejaVuSans-35"/>
      </g>
     </g>
    </g>
   </g>
   <g id="line2d_8">
    <path clip-path="url(#p2b0aad80d8)" d="M 197.7 384.926235 
L 197.7 92.42439 
" style="fill:none;stroke:#797979;stroke-linecap:square;stroke-width:1.5;"/>
   </g>
   <g id="line2d_9">
    <path clip-path="url(#p2b0aad80d8)" d="M 197.7 319.962841 
L 197.7 192.034927 
" style="fill:none;stroke:#797979;stroke-linecap:square;stroke-width:4.5;"/>
   </g>
   <g id="patch_3">
    <path d="M 39.65 441.355313 
L 39.65 35.995313 
" style="fill:none;stroke:#000000;stroke-linecap:square;stroke-linejoin:miter;stroke-width:0.8;"/>
   </g>
   <g id="patch_4">
    <path d="M 355.75 441.355313 
L 355.75 35.995313 
" style="fill:none;stroke:#000000;stroke-linecap:square;stroke-linejoin:miter;stroke-width:0.8;"/>
   </g>
   <g id="patch_5">
    <path d="M 39.65 441.355313 
L 355.75 441.355313 
" style="fill:none;stroke:#000000;stroke-linecap:square;stroke-linejoin:miter;stroke-width:0.8;"/>
   </g>
   <g id="patch_6">
    <path d="M 39.65 35.995313 
L 355.75 35.995313 
" style="fill:none;stroke:#000000;stroke-linecap:square;stroke-linejoin:miter;stroke-width:0.8;"/>
   </g>
   <g id="PathCollection_1">
    <defs>
     <path d="M 0 1.5 
C 0.397805 1.5 0.77937 1.341951 1.06066 1.06066 
C 1.341951 0.77937 1.5 0.397805 1.5 0 
C 1.5 -0.397805 1.341951 -0.77937 1.06066 -1.06066 
C 0.77937 -1.341951 0.397805 -1.5 0 -1.5 
C -0.397805 -1.5 -0.77937 -1.341951 -1.06066 -1.06066 
C -1.341951 -0.77937 -1.5 -0.397805 -1.5 0 
C -1.5 0.397805 -1.341951 0.77937 -1.06066 1.06066 
C -0.77937 1.341951 -0.397805 1.5 0 1.5 
z
" id="m314d9b3f3a" style="stroke:#797979;"/>
    </defs>
    <g clip-path="url(#p2b0aad80d8)">
     <use style="fill:#ffffff;stroke:#797979;" x="197.7" xlink:href="#m314d9b3f3a" y="268.103175"/>
    </g>
   </g>
   <g id="text_8">
    <!-- Moisture Content (%) -->
    <defs>
     <path d="M 9.8125 72.90625 
L 24.515625 72.90625 
L 43.109375 23.296875 
L 61.8125 72.90625 
L 76.515625 72.90625 
L 76.515625 0 
L 66.890625 0 
L 66.890625 64.015625 
L 48.09375 14.015625 
L 38.1875 14.015625 
L 19.390625 64.015625 
L 19.390625 0 
L 9.8125 0 
z
" id="DejaVuSans-4d"/>
     <path d="M 30.609375 48.390625 
Q 23.390625 48.390625 19.1875 42.75 
Q 14.984375 37.109375 14.984375 27.296875 
Q 14.984375 17.484375 19.15625 11.84375 
Q 23.34375 6.203125 30.609375 6.203125 
Q 37.796875 6.203125 41.984375 11.859375 
Q 46.1875 17.53125 46.1875 27.296875 
Q 46.1875 37.015625 41.984375 42.703125 
Q 37.796875 48.390625 30.609375 48.390625 
z
M 30.609375 56 
Q 42.328125 56 49.015625 48.375 
Q 55.71875 40.765625 55.71875 27.296875 
Q 55.71875 13.875 49.015625 6.21875 
Q 42.328125 -1.421875 30.609375 -1.421875 
Q 18.84375 -1.421875 12.171875 6.21875 
Q 5.515625 13.875 5.515625 27.296875 
Q 5.515625 40.765625 12.171875 48.375 
Q 18.84375 56 30.609375 56 
z
" id="DejaVuSans-6f"/>
     <path d="M 9.421875 54.6875 
L 18.40625 54.6875 
L 18.40625 0 
L 9.421875 0 
z
M 9.421875 75.984375 
L 18.40625 75.984375 
L 18.40625 64.59375 
L 9.421875 64.59375 
z
" id="DejaVuSans-69"/>
     <path d="M 44.28125 53.078125 
L 44.28125 44.578125 
Q 40.484375 46.53125 36.375 47.5 
Q 32.28125 48.484375 27.875 48.484375 
Q 21.1875 48.484375 17.84375 46.4375 
Q 14.5 44.390625 14.5 40.28125 
Q 14.5 37.15625 16.890625 35.375 
Q 19.28125 33.59375 26.515625 31.984375 
L 29.59375 31.296875 
Q 39.15625 29.25 43.1875 25.515625 
Q 47.21875 21.78125 47.21875 15.09375 
Q 47.21875 7.46875 41.1875 3.015625 
Q 35.15625 -1.421875 24.609375 -1.421875 
Q 20.21875 -1.421875 15.453125 -0.5625 
Q 10.6875 0.296875 5.421875 2 
L 5.421875 11.28125 
Q 10.40625 8.6875 15.234375 7.390625 
Q 20.0625 6.109375 24.8125 6.109375 
Q 31.15625 6.109375 34.5625 8.28125 
Q 37.984375 10.453125 37.984375 14.40625 
Q 37.984375 18.0625 35.515625 20.015625 
Q 33.0625 21.96875 24.703125 23.78125 
L 21.578125 24.515625 
Q 13.234375 26.265625 9.515625 29.90625 
Q 5.8125 33.546875 5.8125 39.890625 
Q 5.8125 47.609375 11.28125 51.796875 
Q 16.75 56 26.8125 56 
Q 31.78125 56 36.171875 55.265625 
Q 40.578125 54.546875 44.28125 53.078125 
z
" id="DejaVuSans-73"/>
     <path d="M 18.3125 70.21875 
L 18.3125 54.6875 
L 36.8125 54.6875 
L 36.8125 47.703125 
L 18.3125 47.703125 
L 18.3125 18.015625 
Q 18.3125 11.328125 20.140625 9.421875 
Q 21.96875 7.515625 27.59375 7.515625 
L 36.8125 7.515625 
L 36.8125 0 
L 27.59375 0 
Q 17.1875 0 13.234375 3.875 
Q 9.28125 7.765625 9.28125 18.015625 
L 9.28125 47.703125 
L 2.6875 47.703125 
L 2.6875 54.6875 
L 9.28125 54.6875 
L 9.28125 70.21875 
z
" id="DejaVuSans-74"/>
     <path d="M 8.5 21.578125 
L 8.5 54.6875 
L 17.484375 54.6875 
L 17.484375 21.921875 
Q 17.484375 14.15625 20.5 10.265625 
Q 23.53125 6.390625 29.59375 6.390625 
Q 36.859375 6.390625 41.078125 11.03125 
Q 45.3125 15.671875 45.3125 23.6875 
L 45.3125 54.6875 
L 54.296875 54.6875 
L 54.296875 0 
L 45.3125 0 
L 45.3125 8.40625 
Q 42.046875 3.421875 37.71875 1 
Q 33.40625 -1.421875 27.6875 -1.421875 
Q 18.265625 -1.421875 13.375 4.4375 
Q 8.5 10.296875 8.5 21.578125 
z
M 31.109375 56 
z
" id="DejaVuSans-75"/>
     <path d="M 41.109375 46.296875 
Q 39.59375 47.171875 37.8125 47.578125 
Q 36.03125 48 33.890625 48 
Q 26.265625 48 22.1875 43.046875 
Q 18.109375 38.09375 18.109375 28.8125 
L 18.109375 0 
L 9.078125 0 
L 9.078125 54.6875 
L 18.109375 54.6875 
L 18.109375 46.1875 
Q 20.953125 51.171875 25.484375 53.578125 
Q 30.03125 56 36.53125 56 
Q 37.453125 56 38.578125 55.875 
Q 39.703125 55.765625 41.0625 55.515625 
z
" id="DejaVuSans-72"/>
     <path d="M 56.203125 29.59375 
L 56.203125 25.203125 
L 14.890625 25.203125 
Q 15.484375 15.921875 20.484375 11.0625 
Q 25.484375 6.203125 34.421875 6.203125 
Q 39.59375 6.203125 44.453125 7.46875 
Q 49.3125 8.734375 54.109375 11.28125 
L 54.109375 2.78125 
Q 49.265625 0.734375 44.1875 -0.34375 
Q 39.109375 -1.421875 33.890625 -1.421875 
Q 20.796875 -1.421875 13.15625 6.1875 
Q 5.515625 13.8125 5.515625 26.8125 
Q 5.515625 40.234375 12.765625 48.109375 
Q 20.015625 56 32.328125 56 
Q 43.359375 56 49.78125 48.890625 
Q 56.203125 41.796875 56.203125 29.59375 
z
M 47.21875 32.234375 
Q 47.125 39.59375 43.09375 43.984375 
Q 39.0625 48.390625 32.421875 48.390625 
Q 24.90625 48.390625 20.390625 44.140625 
Q 15.875 39.890625 15.1875 32.171875 
z
" id="DejaVuSans-65"/>
     <path id="DejaVuSans-20"/>
     <path d="M 64.40625 67.28125 
L 64.40625 56.890625 
Q 59.421875 61.53125 53.78125 63.8125 
Q 48.140625 66.109375 41.796875 66.109375 
Q 29.296875 66.109375 22.65625 58.46875 
Q 16.015625 50.828125 16.015625 36.375 
Q 16.015625 21.96875 22.65625 14.328125 
Q 29.296875 6.6875 41.796875 6.6875 
Q 48.140625 6.6875 53.78125 8.984375 
Q 59.421875 11.28125 64.40625 15.921875 
L 64.40625 5.609375 
Q 59.234375 2.09375 53.4375 0.328125 
Q 47.65625 -1.421875 41.21875 -1.421875 
Q 24.65625 -1.421875 15.125 8.703125 
Q 5.609375 18.84375 5.609375 36.375 
Q 5.609375 53.953125 15.125 64.078125 
Q 24.65625 74.21875 41.21875 74.21875 
Q 47.75 74.21875 53.53125 72.484375 
Q 59.328125 70.75 64.40625 67.28125 
z
" id="DejaVuSans-43"/>
     <path d="M 54.890625 33.015625 
L 54.890625 0 
L 45.90625 0 
L 45.90625 32.71875 
Q 45.90625 40.484375 42.875 44.328125 
Q 39.84375 48.1875 33.796875 48.1875 
Q 26.515625 48.1875 22.3125 43.546875 
Q 18.109375 38.921875 18.109375 30.90625 
L 18.109375 0 
L 9.078125 0 
L 9.078125 54.6875 
L 18.109375 54.6875 
L 18.109375 46.1875 
Q 21.34375 51.125 25.703125 53.5625 
Q 30.078125 56 35.796875 56 
Q 45.21875 56 50.046875 50.171875 
Q 54.890625 44.34375 54.890625 33.015625 
z
" id="DejaVuSans-6e"/>
     <path d="M 31 75.875 
Q 24.46875 64.65625 21.28125 53.65625 
Q 18.109375 42.671875 18.109375 31.390625 
Q 18.109375 20.125 21.3125 9.0625 
Q 24.515625 -2 31 -13.1875 
L 23.1875 -13.1875 
Q 15.875 -1.703125 12.234375 9.375 
Q 8.59375 20.453125 8.59375 31.390625 
Q 8.59375 42.28125 12.203125 53.3125 
Q 15.828125 64.359375 23.1875 75.875 
z
" id="DejaVuSans-28"/>
     <path d="M 72.703125 32.078125 
Q 68.453125 32.078125 66.03125 28.46875 
Q 63.625 24.859375 63.625 18.40625 
Q 63.625 12.0625 66.03125 8.421875 
Q 68.453125 4.78125 72.703125 4.78125 
Q 76.859375 4.78125 79.265625 8.421875 
Q 81.6875 12.0625 81.6875 18.40625 
Q 81.6875 24.8125 79.265625 28.4375 
Q 76.859375 32.078125 72.703125 32.078125 
z
M 72.703125 38.28125 
Q 80.421875 38.28125 84.953125 32.90625 
Q 89.5 27.546875 89.5 18.40625 
Q 89.5 9.28125 84.9375 3.921875 
Q 80.375 -1.421875 72.703125 -1.421875 
Q 64.890625 -1.421875 60.34375 3.921875 
Q 55.8125 9.28125 55.8125 18.40625 
Q 55.8125 27.59375 60.375 32.9375 
Q 64.9375 38.28125 72.703125 38.28125 
z
M 22.3125 68.015625 
Q 18.109375 68.015625 15.6875 64.375 
Q 13.28125 60.75 13.28125 54.390625 
Q 13.28125 47.953125 15.671875 44.328125 
Q 18.0625 40.71875 22.3125 40.71875 
Q 26.5625 40.71875 28.96875 44.328125 
Q 31.390625 47.953125 31.390625 54.390625 
Q 31.390625 60.6875 28.953125 64.34375 
Q 26.515625 68.015625 22.3125 68.015625 
z
M 66.40625 74.21875 
L 74.21875 74.21875 
L 28.609375 -1.421875 
L 20.796875 -1.421875 
z
M 22.3125 74.21875 
Q 30.03125 74.21875 34.609375 68.875 
Q 39.203125 63.53125 39.203125 54.390625 
Q 39.203125 45.171875 34.640625 39.84375 
Q 30.078125 34.515625 22.3125 34.515625 
Q 14.546875 34.515625 10.03125 39.859375 
Q 5.515625 45.21875 5.515625 54.390625 
Q 5.515625 63.484375 10.046875 68.84375 
Q 14.59375 74.21875 22.3125 74.21875 
z
" id="DejaVuSans-25"/>
     <path d="M 8.015625 75.875 
L 15.828125 75.875 
Q 23.140625 64.359375 26.78125 53.3125 
Q 30.421875 42.28125 30.421875 31.390625 
Q 30.421875 20.453125 26.78125 9.375 
Q 23.140625 -1.703125 15.828125 -13.1875 
L 8.015625 -13.1875 
Q 14.5 -2 17.703125 9.0625 
Q 20.90625 20.125 20.90625 31.390625 
Q 20.90625 42.671875 17.703125 53.65625 
Q 14.5 64.65625 8.015625 75.875 
z
" id="DejaVuSans-29"/>
    </defs>
    <g transform="translate(37.673438 29.995313)scale(0.3 -0.3)">
     <use xlink:href="#DejaVuSans-4d"/>
     <use x="86.279297" xlink:href="#DejaVuSans-6f"/>
     <use x="147.460938" xlink:href="#DejaVuSans-69"/>
     <use x="175.244141" xlink:href="#DejaVuSans-73"/>
     <use x="227.34375" xlink:href="#DejaVuSans-74"/>
     <use x="266.552734" xlink:href="#DejaVuSans-75"/>
     <use x="329.931641" xlink:href="#DejaVuSans-72"/>
     <use x="371.013672" xlink:href="#DejaVuSans-65"/>
     <use x="432.537109" xlink:href="#DejaVuSans-20"/>
     <use x="464.324219" xlink:href="#DejaVuSans-43"/>
     <use x="534.148438" xlink:href="#DejaVuSans-6f"/>
     <use x="595.330078" xlink:href="#DejaVuSans-6e"/>
     <use x="658.708984" xlink:href="#DejaVuSans-74"/>
     <use x="697.917969" xlink:href="#DejaVuSans-65"/>
     <use x="759.441406" xlink:href="#DejaVuSans-6e"/>
     <use x="822.820312" xlink:href="#DejaVuSans-74"/>
     <use x="862.029297" xlink:href="#DejaVuSans-20"/>
     <use x="893.816406" xlink:href="#DejaVuSans-28"/>
     <use x="932.830078" xlink:href="#DejaVuSans-25"/>
     <use x="1027.849609" xlink:href="#DejaVuSans-29"/>
    </g>
   </g>
  </g>
 </g>
 <defs>
  <clipPath id="p2b0aad80d8">
   <rect height="405.36" width="316.1" x="39.65" y="35.995313"/>
  </clipPath>
 </defs>
</svg>
