<?xml version="1.0" encoding="utf-8" standalone="no"?>
<!DOCTYPE svg PUBLIC "-//W3C//DTD SVG 1.1//EN"
  "http://www.w3.org/Graphics/SVG/1.1/DTD/svg11.dtd">
<!-- Created with matplotlib (http://matplotlib.org/) -->
<svg height="452.055313pt" version="1.1" viewBox="0 0 388.497656 452.055313" width="388.497656pt" xmlns="http://www.w3.org/2000/svg" xmlns:xlink="http://www.w3.org/1999/xlink">
 <defs>
  <style type="text/css">
*{stroke-linecap:butt;stroke-linejoin:round;}
  </style>
 </defs>
 <g id="figure_1">
  <g id="patch_1">
   <path d="M 0 452.055313 
L 388.497656 452.055313 
L 388.497656 0 
L 0 0 
z
" style="fill:#ffffff;"/>
  </g>
  <g id="axes_1">
   <g id="patch_2">
    <path d="M 46.00625 441.355313 
L 358.95625 441.355313 
L 358.95625 35.995313 
L 46.00625 35.995313 
z
" style="fill:#ffffff;"/>
   </g>
   <g id="PolyCollection_1">
    <defs>
     <path d="M 204.564587 -29.125455 
L 200.397913 -29.125455 
L 198.225182 -32.847769 
L 194.404506 -36.570083 
L 188.225528 -40.292397 
L 179.047364 -44.014711 
L 166.55367 -47.737025 
L 151.02341 -51.459339 
L 133.493743 -55.181653 
L 115.691112 -58.903967 
L 99.684102 -62.626281 
L 87.345893 -66.348595 
L 79.832499 -70.070909 
L 77.30125 -73.793223 
L 78.982712 -77.515537 
L 83.540083 -81.237851 
L 89.519071 -84.960165 
L 95.690049 -88.682479 
L 101.195457 -92.404793 
L 105.543546 -96.127107 
L 108.546178 -99.849421 
L 110.26871 -103.571736 
L 110.995821 -107.29405 
L 111.179075 -111.016364 
L 111.341333 -114.738678 
L 111.94974 -118.460992 
L 113.299191 -122.183306 
L 115.450989 -125.90562 
L 118.247872 -129.627934 
L 121.393528 -133.350248 
L 124.561146 -137.072562 
L 127.491303 -140.794876 
L 130.051192 -144.51719 
L 132.245414 -148.239504 
L 134.184906 -151.961818 
L 136.031816 -155.684132 
L 137.942593 -159.406446 
L 140.028381 -163.12876 
L 142.341992 -166.851074 
L 144.888748 -170.573388 
L 147.649963 -174.295702 
L 150.605613 -178.018017 
L 153.745718 -181.740331 
L 157.066061 -185.462645 
L 160.551386 -189.184959 
L 164.156342 -192.907273 
L 167.797362 -196.629587 
L 171.363783 -200.351901 
L 174.744884 -204.074215 
L 177.858636 -207.796529 
L 180.666212 -211.518843 
L 183.165633 -215.241157 
L 185.371517 -218.963471 
L 187.295822 -222.685785 
L 188.941796 -226.408099 
L 190.31297 -230.130413 
L 191.428718 -233.852727 
L 192.334043 -237.575041 
L 193.095511 -241.297355 
L 193.784291 -245.019669 
L 194.455466 -248.741983 
L 195.134937 -252.464298 
L 195.820267 -256.186612 
L 196.492945 -259.908926 
L 197.132898 -263.63124 
L 197.726354 -267.353554 
L 198.26464 -271.075868 
L 198.739018 -274.798182 
L 199.139097 -278.520496 
L 199.458101 -282.24281 
L 199.701205 -285.965124 
L 199.889327 -289.687438 
L 200.053317 -293.409752 
L 200.22039 -297.132066 
L 200.400523 -300.85438 
L 200.581287 -304.576694 
L 200.734713 -308.299008 
L 200.832865 -312.021322 
L 200.863831 -315.743636 
L 200.839702 -319.46595 
L 200.792375 -323.188264 
L 200.759389 -326.910579 
L 200.767032 -330.632893 
L 200.819287 -334.355207 
L 200.898013 -338.077521 
L 200.973833 -341.799835 
L 201.021775 -345.522149 
L 201.033699 -349.244463 
L 201.021902 -352.966777 
L 201.013135 -356.689091 
L 201.036872 -360.411405 
L 201.113649 -364.133719 
L 201.248254 -367.856033 
L 201.429578 -371.578347 
L 201.635894 -375.300661 
L 201.842475 -379.022975 
L 202.028411 -382.745289 
L 202.18064 -386.467603 
L 202.29476 -390.189917 
L 202.373363 -393.912231 
L 202.423176 -397.634545 
L 202.539324 -397.634545 
L 202.539324 -397.634545 
L 202.589137 -393.912231 
L 202.66774 -390.189917 
L 202.78186 -386.467603 
L 202.934089 -382.745289 
L 203.120025 -379.022975 
L 203.326606 -375.300661 
L 203.532922 -371.578347 
L 203.714246 -367.856033 
L 203.848851 -364.133719 
L 203.925628 -360.411405 
L 203.949365 -356.689091 
L 203.940598 -352.966777 
L 203.928801 -349.244463 
L 203.940725 -345.522149 
L 203.988667 -341.799835 
L 204.064487 -338.077521 
L 204.143213 -334.355207 
L 204.195468 -330.632893 
L 204.203111 -326.910579 
L 204.170125 -323.188264 
L 204.122798 -319.46595 
L 204.098669 -315.743636 
L 204.129635 -312.021322 
L 204.227787 -308.299008 
L 204.381213 -304.576694 
L 204.561977 -300.85438 
L 204.74211 -297.132066 
L 204.909183 -293.409752 
L 205.073173 -289.687438 
L 205.261295 -285.965124 
L 205.504399 -282.24281 
L 205.823403 -278.520496 
L 206.223482 -274.798182 
L 206.69786 -271.075868 
L 207.236146 -267.353554 
L 207.829602 -263.63124 
L 208.469555 -259.908926 
L 209.142233 -256.186612 
L 209.827563 -252.464298 
L 210.507034 -248.741983 
L 211.178209 -245.019669 
L 211.866989 -241.297355 
L 212.628457 -237.575041 
L 213.533782 -233.852727 
L 214.64953 -230.130413 
L 216.020704 -226.408099 
L 217.666678 -222.685785 
L 219.590983 -218.963471 
L 221.796867 -215.241157 
L 224.296288 -211.518843 
L 227.103864 -207.796529 
L 230.217616 -204.074215 
L 233.598717 -200.351901 
L 237.165138 -196.629587 
L 240.806158 -192.907273 
L 244.411114 -189.184959 
L 247.896439 -185.462645 
L 251.216782 -181.740331 
L 254.356887 -178.018017 
L 257.312537 -174.295702 
L 260.073752 -170.573388 
L 262.620508 -166.851074 
L 264.934119 -163.12876 
L 267.019907 -159.406446 
L 268.930684 -155.684132 
L 270.777594 -151.961818 
L 272.717086 -148.239504 
L 274.911308 -144.51719 
L 277.471197 -140.794876 
L 280.401354 -137.072562 
L 283.568972 -133.350248 
L 286.714628 -129.627934 
L 289.511511 -125.90562 
L 291.663309 -122.183306 
L 293.01276 -118.460992 
L 293.621167 -114.738678 
L 293.783425 -111.016364 
L 293.966679 -107.29405 
L 294.69379 -103.571736 
L 296.416322 -99.849421 
L 299.418954 -96.127107 
L 303.767043 -92.404793 
L 309.272451 -88.682479 
L 315.443429 -84.960165 
L 321.422417 -81.237851 
L 325.979788 -77.515537 
L 327.66125 -73.793223 
L 325.130001 -70.070909 
L 317.616607 -66.348595 
L 305.278398 -62.626281 
L 289.271388 -58.903967 
L 271.468757 -55.181653 
L 253.93909 -51.459339 
L 238.40883 -47.737025 
L 225.915136 -44.014711 
L 216.736972 -40.292397 
L 210.557994 -36.570083 
L 206.737318 -32.847769 
L 204.564587 -29.125455 
z
" id="mdd014b616d" style="stroke:#848484;stroke-width:1.5;"/>
    </defs>
    <g clip-path="url(#p9ace90852d)">
     <use style="fill:#f6dbc2;stroke:#848484;stroke-width:1.5;" x="0" xlink:href="#mdd014b616d" y="452.055313"/>
    </g>
   </g>
   <g id="matplotlib.axis_1"/>
   <g id="matplotlib.axis_2">
    <g id="ytick_1">
     <g id="line2d_1">
      <defs>
       <path d="M 0 0 
L -3.5 0 
" id="mf19018fa39" style="stroke:#000000;stroke-width:0.8;"/>
      </defs>
      <g>
       <use style="stroke:#000000;stroke-width:0.8;" x="46.00625" xlink:href="#mf19018fa39" y="422.998567"/>
      </g>
     </g>
     <g id="text_1">
      <!-- 0.0 -->
      <defs>
       <path d="M 31.78125 66.40625 
Q 24.171875 66.40625 20.328125 58.90625 
Q 16.5 51.421875 16.5 36.375 
Q 16.5 21.390625 20.328125 13.890625 
Q 24.171875 6.390625 31.78125 6.390625 
Q 39.453125 6.390625 43.28125 13.890625 
Q 47.125 21.390625 47.125 36.375 
Q 47.125 51.421875 43.28125 58.90625 
Q 39.453125 66.40625 31.78125 66.40625 
z
M 31.78125 74.21875 
Q 44.046875 74.21875 50.515625 64.515625 
Q 56.984375 54.828125 56.984375 36.375 
Q 56.984375 17.96875 50.515625 8.265625 
Q 44.046875 -1.421875 31.78125 -1.421875 
Q 19.53125 -1.421875 13.0625 8.265625 
Q 6.59375 17.96875 6.59375 36.375 
Q 6.59375 54.828125 13.0625 64.515625 
Q 19.53125 74.21875 31.78125 74.21875 
z
" id="DejaVuSans-30"/>
       <path d="M 10.6875 12.40625 
L 21 12.40625 
L 21 0 
L 10.6875 0 
z
" id="DejaVuSans-2e"/>
      </defs>
      <g transform="translate(7.2 430.597004)scale(0.2 -0.2)">
       <use xlink:href="#DejaVuSans-30"/>
       <use x="63.623047" xlink:href="#DejaVuSans-2e"/>
       <use x="95.410156" xlink:href="#DejaVuSans-30"/>
      </g>
     </g>
    </g>
    <g id="ytick_2">
     <g id="line2d_2">
      <g>
       <use style="stroke:#000000;stroke-width:0.8;" x="46.00625" xlink:href="#mf19018fa39" y="370.87095"/>
      </g>
     </g>
     <g id="text_2">
      <!-- 0.5 -->
      <defs>
       <path d="M 10.796875 72.90625 
L 49.515625 72.90625 
L 49.515625 64.59375 
L 19.828125 64.59375 
L 19.828125 46.734375 
Q 21.96875 47.46875 24.109375 47.828125 
Q 26.265625 48.1875 28.421875 48.1875 
Q 40.625 48.1875 47.75 41.5 
Q 54.890625 34.8125 54.890625 23.390625 
Q 54.890625 11.625 47.5625 5.09375 
Q 40.234375 -1.421875 26.90625 -1.421875 
Q 22.3125 -1.421875 17.546875 -0.640625 
Q 12.796875 0.140625 7.71875 1.703125 
L 7.71875 11.625 
Q 12.109375 9.234375 16.796875 8.0625 
Q 21.484375 6.890625 26.703125 6.890625 
Q 35.15625 6.890625 40.078125 11.328125 
Q 45.015625 15.765625 45.015625 23.390625 
Q 45.015625 31 40.078125 35.4375 
Q 35.15625 39.890625 26.703125 39.890625 
Q 22.75 39.890625 18.8125 39.015625 
Q 14.890625 38.140625 10.796875 36.28125 
z
" id="DejaVuSans-35"/>
      </defs>
      <g transform="translate(7.2 378.469387)scale(0.2 -0.2)">
       <use xlink:href="#DejaVuSans-30"/>
       <use x="63.623047" xlink:href="#DejaVuSans-2e"/>
       <use x="95.410156" xlink:href="#DejaVuSans-35"/>
      </g>
     </g>
    </g>
    <g id="ytick_3">
     <g id="line2d_3">
      <g>
       <use style="stroke:#000000;stroke-width:0.8;" x="46.00625" xlink:href="#mf19018fa39" y="318.743333"/>
      </g>
     </g>
     <g id="text_3">
      <!-- 1.0 -->
      <defs>
       <path d="M 12.40625 8.296875 
L 28.515625 8.296875 
L 28.515625 63.921875 
L 10.984375 60.40625 
L 10.984375 69.390625 
L 28.421875 72.90625 
L 38.28125 72.90625 
L 38.28125 8.296875 
L 54.390625 8.296875 
L 54.390625 0 
L 12.40625 0 
z
" id="DejaVuSans-31"/>
      </defs>
      <g transform="translate(7.2 326.34177)scale(0.2 -0.2)">
       <use xlink:href="#DejaVuSans-31"/>
       <use x="63.623047" xlink:href="#DejaVuSans-2e"/>
       <use x="95.410156" xlink:href="#DejaVuSans-30"/>
      </g>
     </g>
    </g>
    <g id="ytick_4">
     <g id="line2d_4">
      <g>
       <use style="stroke:#000000;stroke-width:0.8;" x="46.00625" xlink:href="#mf19018fa39" y="266.615715"/>
      </g>
     </g>
     <g id="text_4">
      <!-- 1.5 -->
      <g transform="translate(7.2 274.214153)scale(0.2 -0.2)">
       <use xlink:href="#DejaVuSans-31"/>
       <use x="63.623047" xlink:href="#DejaVuSans-2e"/>
       <use x="95.410156" xlink:href="#DejaVuSans-35"/>
      </g>
     </g>
    </g>
    <g id="ytick_5">
     <g id="line2d_5">
      <g>
       <use style="stroke:#000000;stroke-width:0.8;" x="46.00625" xlink:href="#mf19018fa39" y="214.488098"/>
      </g>
     </g>
     <g id="text_5">
      <!-- 2.0 -->
      <defs>
       <path d="M 19.1875 8.296875 
L 53.609375 8.296875 
L 53.609375 0 
L 7.328125 0 
L 7.328125 8.296875 
Q 12.9375 14.109375 22.625 23.890625 
Q 32.328125 33.6875 34.8125 36.53125 
Q 39.546875 41.84375 41.421875 45.53125 
Q 43.3125 49.21875 43.3125 52.78125 
Q 43.3125 58.59375 39.234375 62.25 
Q 35.15625 65.921875 28.609375 65.921875 
Q 23.96875 65.921875 18.8125 64.3125 
Q 13.671875 62.703125 7.8125 59.421875 
L 7.8125 69.390625 
Q 13.765625 71.78125 18.9375 73 
Q 24.125 74.21875 28.421875 74.21875 
Q 39.75 74.21875 46.484375 68.546875 
Q 53.21875 62.890625 53.21875 53.421875 
Q 53.21875 48.921875 51.53125 44.890625 
Q 49.859375 40.875 45.40625 35.40625 
Q 44.1875 33.984375 37.640625 27.21875 
Q 31.109375 20.453125 19.1875 8.296875 
z
" id="DejaVuSans-32"/>
      </defs>
      <g transform="translate(7.2 222.086536)scale(0.2 -0.2)">
       <use xlink:href="#DejaVuSans-32"/>
       <use x="63.623047" xlink:href="#DejaVuSans-2e"/>
       <use x="95.410156" xlink:href="#DejaVuSans-30"/>
      </g>
     </g>
    </g>
    <g id="ytick_6">
     <g id="line2d_6">
      <g>
       <use style="stroke:#000000;stroke-width:0.8;" x="46.00625" xlink:href="#mf19018fa39" y="162.360481"/>
      </g>
     </g>
     <g id="text_6">
      <!-- 2.5 -->
      <g transform="translate(7.2 169.958918)scale(0.2 -0.2)">
       <use xlink:href="#DejaVuSans-32"/>
       <use x="63.623047" xlink:href="#DejaVuSans-2e"/>
       <use x="95.410156" xlink:href="#DejaVuSans-35"/>
      </g>
     </g>
    </g>
    <g id="ytick_7">
     <g id="line2d_7">
      <g>
       <use style="stroke:#000000;stroke-width:0.8;" x="46.00625" xlink:href="#mf19018fa39" y="110.232864"/>
      </g>
     </g>
     <g id="text_7">
      <!-- 3.0 -->
      <defs>
       <path d="M 40.578125 39.3125 
Q 47.65625 37.796875 51.625 33 
Q 55.609375 28.21875 55.609375 21.1875 
Q 55.609375 10.40625 48.1875 4.484375 
Q 40.765625 -1.421875 27.09375 -1.421875 
Q 22.515625 -1.421875 17.65625 -0.515625 
Q 12.796875 0.390625 7.625 2.203125 
L 7.625 11.71875 
Q 11.71875 9.328125 16.59375 8.109375 
Q 21.484375 6.890625 26.8125 6.890625 
Q 36.078125 6.890625 40.9375 10.546875 
Q 45.796875 14.203125 45.796875 21.1875 
Q 45.796875 27.640625 41.28125 31.265625 
Q 36.765625 34.90625 28.71875 34.90625 
L 20.21875 34.90625 
L 20.21875 43.015625 
L 29.109375 43.015625 
Q 36.375 43.015625 40.234375 45.921875 
Q 44.09375 48.828125 44.09375 54.296875 
Q 44.09375 59.90625 40.109375 62.90625 
Q 36.140625 65.921875 28.71875 65.921875 
Q 24.65625 65.921875 20.015625 65.03125 
Q 15.375 64.15625 9.8125 62.3125 
L 9.8125 71.09375 
Q 15.4375 72.65625 20.34375 73.4375 
Q 25.25 74.21875 29.59375 74.21875 
Q 40.828125 74.21875 47.359375 69.109375 
Q 53.90625 64.015625 53.90625 55.328125 
Q 53.90625 49.265625 50.4375 45.09375 
Q 46.96875 40.921875 40.578125 39.3125 
z
" id="DejaVuSans-33"/>
      </defs>
      <g transform="translate(7.2 117.831301)scale(0.2 -0.2)">
       <use xlink:href="#DejaVuSans-33"/>
       <use x="63.623047" xlink:href="#DejaVuSans-2e"/>
       <use x="95.410156" xlink:href="#DejaVuSans-30"/>
      </g>
     </g>
    </g>
    <g id="ytick_8">
     <g id="line2d_8">
      <g>
       <use style="stroke:#000000;stroke-width:0.8;" x="46.00625" xlink:href="#mf19018fa39" y="58.105246"/>
      </g>
     </g>
     <g id="text_8">
      <!-- 3.5 -->
      <g transform="translate(7.2 65.703684)scale(0.2 -0.2)">
       <use xlink:href="#DejaVuSans-33"/>
       <use x="63.623047" xlink:href="#DejaVuSans-2e"/>
       <use x="95.410156" xlink:href="#DejaVuSans-35"/>
      </g>
     </g>
    </g>
   </g>
   <g id="line2d_9">
    <path clip-path="url(#p9ace90852d)" d="M 202.48125 397.7688 
L 202.48125 181.543444 
" style="fill:none;stroke:#848484;stroke-linecap:square;stroke-width:1.5;"/>
   </g>
   <g id="line2d_10">
    <path clip-path="url(#p9ace90852d)" d="M 202.48125 373.26882 
L 202.48125 296.536968 
" style="fill:none;stroke:#848484;stroke-linecap:square;stroke-width:4.5;"/>
   </g>
   <g id="patch_3">
    <path d="M 46.00625 441.355313 
L 46.00625 35.995312 
" style="fill:none;stroke:#000000;stroke-linecap:square;stroke-linejoin:miter;stroke-width:0.8;"/>
   </g>
   <g id="patch_4">
    <path d="M 358.95625 441.355313 
L 358.95625 35.995312 
" style="fill:none;stroke:#000000;stroke-linecap:square;stroke-linejoin:miter;stroke-width:0.8;"/>
   </g>
   <g id="patch_5">
    <path d="M 46.00625 441.355313 
L 358.95625 441.355313 
" style="fill:none;stroke:#000000;stroke-linecap:square;stroke-linejoin:miter;stroke-width:0.8;"/>
   </g>
   <g id="patch_6">
    <path d="M 46.00625 35.995313 
L 358.95625 35.995313 
" style="fill:none;stroke:#000000;stroke-linecap:square;stroke-linejoin:miter;stroke-width:0.8;"/>
   </g>
   <g id="PathCollection_1">
    <defs>
     <path d="M 0 1.5 
C 0.397805 1.5 0.77937 1.341951 1.06066 1.06066 
C 1.341951 0.77937 1.5 0.397805 1.5 0 
C 1.5 -0.397805 1.341951 -0.77937 1.06066 -1.06066 
C 0.77937 -1.341951 0.397805 -1.5 0 -1.5 
C -0.397805 -1.5 -0.77937 -1.341951 -1.06066 -1.06066 
C -1.341951 -0.77937 -1.5 -0.397805 -1.5 0 
C -1.5 0.397805 -1.341951 0.77937 -1.06066 1.06066 
C -0.77937 1.341951 -0.397805 1.5 0 1.5 
z
" id="m75aedc715c" style="stroke:#848484;"/>
    </defs>
    <g clip-path="url(#p9ace90852d)">
     <use style="fill:#ffffff;stroke:#848484;" x="202.48125" xlink:href="#m75aedc715c" y="337.40502"/>
    </g>
   </g>
   <g id="text_9">
    <!-- Permittivity (imaginary) -->
    <defs>
     <path d="M 19.671875 64.796875 
L 19.671875 37.40625 
L 32.078125 37.40625 
Q 38.96875 37.40625 42.71875 40.96875 
Q 46.484375 44.53125 46.484375 51.125 
Q 46.484375 57.671875 42.71875 61.234375 
Q 38.96875 64.796875 32.078125 64.796875 
z
M 9.8125 72.90625 
L 32.078125 72.90625 
Q 44.34375 72.90625 50.609375 67.359375 
Q 56.890625 61.8125 56.890625 51.125 
Q 56.890625 40.328125 50.609375 34.8125 
Q 44.34375 29.296875 32.078125 29.296875 
L 19.671875 29.296875 
L 19.671875 0 
L 9.8125 0 
z
" id="DejaVuSans-50"/>
     <path d="M 56.203125 29.59375 
L 56.203125 25.203125 
L 14.890625 25.203125 
Q 15.484375 15.921875 20.484375 11.0625 
Q 25.484375 6.203125 34.421875 6.203125 
Q 39.59375 6.203125 44.453125 7.46875 
Q 49.3125 8.734375 54.109375 11.28125 
L 54.109375 2.78125 
Q 49.265625 0.734375 44.1875 -0.34375 
Q 39.109375 -1.421875 33.890625 -1.421875 
Q 20.796875 -1.421875 13.15625 6.1875 
Q 5.515625 13.8125 5.515625 26.8125 
Q 5.515625 40.234375 12.765625 48.109375 
Q 20.015625 56 32.328125 56 
Q 43.359375 56 49.78125 48.890625 
Q 56.203125 41.796875 56.203125 29.59375 
z
M 47.21875 32.234375 
Q 47.125 39.59375 43.09375 43.984375 
Q 39.0625 48.390625 32.421875 48.390625 
Q 24.90625 48.390625 20.390625 44.140625 
Q 15.875 39.890625 15.1875 32.171875 
z
" id="DejaVuSans-65"/>
     <path d="M 41.109375 46.296875 
Q 39.59375 47.171875 37.8125 47.578125 
Q 36.03125 48 33.890625 48 
Q 26.265625 48 22.1875 43.046875 
Q 18.109375 38.09375 18.109375 28.8125 
L 18.109375 0 
L 9.078125 0 
L 9.078125 54.6875 
L 18.109375 54.6875 
L 18.109375 46.1875 
Q 20.953125 51.171875 25.484375 53.578125 
Q 30.03125 56 36.53125 56 
Q 37.453125 56 38.578125 55.875 
Q 39.703125 55.765625 41.0625 55.515625 
z
" id="DejaVuSans-72"/>
     <path d="M 52 44.1875 
Q 55.375 50.25 60.0625 53.125 
Q 64.75 56 71.09375 56 
Q 79.640625 56 84.28125 50.015625 
Q 88.921875 44.046875 88.921875 33.015625 
L 88.921875 0 
L 79.890625 0 
L 79.890625 32.71875 
Q 79.890625 40.578125 77.09375 44.375 
Q 74.3125 48.1875 68.609375 48.1875 
Q 61.625 48.1875 57.5625 43.546875 
Q 53.515625 38.921875 53.515625 30.90625 
L 53.515625 0 
L 44.484375 0 
L 44.484375 32.71875 
Q 44.484375 40.625 41.703125 44.40625 
Q 38.921875 48.1875 33.109375 48.1875 
Q 26.21875 48.1875 22.15625 43.53125 
Q 18.109375 38.875 18.109375 30.90625 
L 18.109375 0 
L 9.078125 0 
L 9.078125 54.6875 
L 18.109375 54.6875 
L 18.109375 46.1875 
Q 21.1875 51.21875 25.484375 53.609375 
Q 29.78125 56 35.6875 56 
Q 41.65625 56 45.828125 52.96875 
Q 50 49.953125 52 44.1875 
z
" id="DejaVuSans-6d"/>
     <path d="M 9.421875 54.6875 
L 18.40625 54.6875 
L 18.40625 0 
L 9.421875 0 
z
M 9.421875 75.984375 
L 18.40625 75.984375 
L 18.40625 64.59375 
L 9.421875 64.59375 
z
" id="DejaVuSans-69"/>
     <path d="M 18.3125 70.21875 
L 18.3125 54.6875 
L 36.8125 54.6875 
L 36.8125 47.703125 
L 18.3125 47.703125 
L 18.3125 18.015625 
Q 18.3125 11.328125 20.140625 9.421875 
Q 21.96875 7.515625 27.59375 7.515625 
L 36.8125 7.515625 
L 36.8125 0 
L 27.59375 0 
Q 17.1875 0 13.234375 3.875 
Q 9.28125 7.765625 9.28125 18.015625 
L 9.28125 47.703125 
L 2.6875 47.703125 
L 2.6875 54.6875 
L 9.28125 54.6875 
L 9.28125 70.21875 
z
" id="DejaVuSans-74"/>
     <path d="M 2.984375 54.6875 
L 12.5 54.6875 
L 29.59375 8.796875 
L 46.6875 54.6875 
L 56.203125 54.6875 
L 35.6875 0 
L 23.484375 0 
z
" id="DejaVuSans-76"/>
     <path d="M 32.171875 -5.078125 
Q 28.375 -14.84375 24.75 -17.8125 
Q 21.140625 -20.796875 15.09375 -20.796875 
L 7.90625 -20.796875 
L 7.90625 -13.28125 
L 13.1875 -13.28125 
Q 16.890625 -13.28125 18.9375 -11.515625 
Q 21 -9.765625 23.484375 -3.21875 
L 25.09375 0.875 
L 2.984375 54.6875 
L 12.5 54.6875 
L 29.59375 11.921875 
L 46.6875 54.6875 
L 56.203125 54.6875 
z
" id="DejaVuSans-79"/>
     <path id="DejaVuSans-20"/>
     <path d="M 31 75.875 
Q 24.46875 64.65625 21.28125 53.65625 
Q 18.109375 42.671875 18.109375 31.390625 
Q 18.109375 20.125 21.3125 9.0625 
Q 24.515625 -2 31 -13.1875 
L 23.1875 -13.1875 
Q 15.875 -1.703125 12.234375 9.375 
Q 8.59375 20.453125 8.59375 31.390625 
Q 8.59375 42.28125 12.203125 53.3125 
Q 15.828125 64.359375 23.1875 75.875 
z
" id="DejaVuSans-28"/>
     <path d="M 34.28125 27.484375 
Q 23.390625 27.484375 19.1875 25 
Q 14.984375 22.515625 14.984375 16.5 
Q 14.984375 11.71875 18.140625 8.90625 
Q 21.296875 6.109375 26.703125 6.109375 
Q 34.1875 6.109375 38.703125 11.40625 
Q 43.21875 16.703125 43.21875 25.484375 
L 43.21875 27.484375 
z
M 52.203125 31.203125 
L 52.203125 0 
L 43.21875 0 
L 43.21875 8.296875 
Q 40.140625 3.328125 35.546875 0.953125 
Q 30.953125 -1.421875 24.3125 -1.421875 
Q 15.921875 -1.421875 10.953125 3.296875 
Q 6 8.015625 6 15.921875 
Q 6 25.140625 12.171875 29.828125 
Q 18.359375 34.515625 30.609375 34.515625 
L 43.21875 34.515625 
L 43.21875 35.40625 
Q 43.21875 41.609375 39.140625 45 
Q 35.0625 48.390625 27.6875 48.390625 
Q 23 48.390625 18.546875 47.265625 
Q 14.109375 46.140625 10.015625 43.890625 
L 10.015625 52.203125 
Q 14.9375 54.109375 19.578125 55.046875 
Q 24.21875 56 28.609375 56 
Q 40.484375 56 46.34375 49.84375 
Q 52.203125 43.703125 52.203125 31.203125 
z
" id="DejaVuSans-61"/>
     <path d="M 45.40625 27.984375 
Q 45.40625 37.75 41.375 43.109375 
Q 37.359375 48.484375 30.078125 48.484375 
Q 22.859375 48.484375 18.828125 43.109375 
Q 14.796875 37.75 14.796875 27.984375 
Q 14.796875 18.265625 18.828125 12.890625 
Q 22.859375 7.515625 30.078125 7.515625 
Q 37.359375 7.515625 41.375 12.890625 
Q 45.40625 18.265625 45.40625 27.984375 
z
M 54.390625 6.78125 
Q 54.390625 -7.171875 48.1875 -13.984375 
Q 42 -20.796875 29.203125 -20.796875 
Q 24.46875 -20.796875 20.265625 -20.09375 
Q 16.0625 -19.390625 12.109375 -17.921875 
L 12.109375 -9.1875 
Q 16.0625 -11.328125 19.921875 -12.34375 
Q 23.78125 -13.375 27.78125 -13.375 
Q 36.625 -13.375 41.015625 -8.765625 
Q 45.40625 -4.15625 45.40625 5.171875 
L 45.40625 9.625 
Q 42.625 4.78125 38.28125 2.390625 
Q 33.9375 0 27.875 0 
Q 17.828125 0 11.671875 7.65625 
Q 5.515625 15.328125 5.515625 27.984375 
Q 5.515625 40.671875 11.671875 48.328125 
Q 17.828125 56 27.875 56 
Q 33.9375 56 38.28125 53.609375 
Q 42.625 51.21875 45.40625 46.390625 
L 45.40625 54.6875 
L 54.390625 54.6875 
z
" id="DejaVuSans-67"/>
     <path d="M 54.890625 33.015625 
L 54.890625 0 
L 45.90625 0 
L 45.90625 32.71875 
Q 45.90625 40.484375 42.875 44.328125 
Q 39.84375 48.1875 33.796875 48.1875 
Q 26.515625 48.1875 22.3125 43.546875 
Q 18.109375 38.921875 18.109375 30.90625 
L 18.109375 0 
L 9.078125 0 
L 9.078125 54.6875 
L 18.109375 54.6875 
L 18.109375 46.1875 
Q 21.34375 51.125 25.703125 53.5625 
Q 30.078125 56 35.796875 56 
Q 45.21875 56 50.046875 50.171875 
Q 54.890625 44.34375 54.890625 33.015625 
z
" id="DejaVuSans-6e"/>
     <path d="M 8.015625 75.875 
L 15.828125 75.875 
Q 23.140625 64.359375 26.78125 53.3125 
Q 30.421875 42.28125 30.421875 31.390625 
Q 30.421875 20.453125 26.78125 9.375 
Q 23.140625 -1.703125 15.828125 -13.1875 
L 8.015625 -13.1875 
Q 14.5 -2 17.703125 9.0625 
Q 20.90625 20.125 20.90625 31.390625 
Q 20.90625 42.671875 17.703125 53.65625 
Q 14.5 64.65625 8.015625 75.875 
z
" id="DejaVuSans-29"/>
    </defs>
    <g transform="translate(23.664844 29.995313)scale(0.3 -0.3)">
     <use xlink:href="#DejaVuSans-50"/>
     <use x="60.255859" xlink:href="#DejaVuSans-65"/>
     <use x="121.779297" xlink:href="#DejaVuSans-72"/>
     <use x="162.876953" xlink:href="#DejaVuSans-6d"/>
     <use x="260.289062" xlink:href="#DejaVuSans-69"/>
     <use x="288.072266" xlink:href="#DejaVuSans-74"/>
     <use x="327.28125" xlink:href="#DejaVuSans-74"/>
     <use x="366.490234" xlink:href="#DejaVuSans-69"/>
     <use x="394.273438" xlink:href="#DejaVuSans-76"/>
     <use x="453.453125" xlink:href="#DejaVuSans-69"/>
     <use x="481.236328" xlink:href="#DejaVuSans-74"/>
     <use x="520.445312" xlink:href="#DejaVuSans-79"/>
     <use x="579.625" xlink:href="#DejaVuSans-20"/>
     <use x="611.412109" xlink:href="#DejaVuSans-28"/>
     <use x="650.425781" xlink:href="#DejaVuSans-69"/>
     <use x="678.208984" xlink:href="#DejaVuSans-6d"/>
     <use x="775.621094" xlink:href="#DejaVuSans-61"/>
     <use x="836.900391" xlink:href="#DejaVuSans-67"/>
     <use x="900.376953" xlink:href="#DejaVuSans-69"/>
     <use x="928.160156" xlink:href="#DejaVuSans-6e"/>
     <use x="991.539062" xlink:href="#DejaVuSans-61"/>
     <use x="1052.818359" xlink:href="#DejaVuSans-72"/>
     <use x="1093.931641" xlink:href="#DejaVuSans-79"/>
     <use x="1153.111328" xlink:href="#DejaVuSans-29"/>
    </g>
   </g>
  </g>
 </g>
 <defs>
  <clipPath id="p9ace90852d">
   <rect height="405.36" width="312.95" x="46.00625" y="35.995313"/>
  </clipPath>
 </defs>
</svg>
