<?xml version="1.0" encoding="utf-8" standalone="no"?>
<!DOCTYPE svg PUBLIC "-//W3C//DTD SVG 1.1//EN"
  "http://www.w3.org/Graphics/SVG/1.1/DTD/svg11.dtd">
<!-- Created with matplotlib (http://matplotlib.org/) -->
<svg height="452.055313pt" version="1.1" viewBox="0 0 366.45 452.055313" width="366.45pt" xmlns="http://www.w3.org/2000/svg" xmlns:xlink="http://www.w3.org/1999/xlink">
 <defs>
  <style type="text/css">
*{stroke-linecap:butt;stroke-linejoin:round;}
  </style>
 </defs>
 <g id="figure_1">
  <g id="patch_1">
   <path d="M 0 452.055313 
L 366.45 452.055313 
L 366.45 0 
L 0 0 
z
" style="fill:#ffffff;"/>
  </g>
  <g id="axes_1">
   <g id="patch_2">
    <path d="M 39.65 441.355313 
L 355.75 441.355313 
L 355.75 35.995313 
L 39.65 35.995313 
z
" style="fill:#ffffff;"/>
   </g>
   <g id="PolyCollection_1">
    <defs>
     <path d="M 200.672953 -29.125455 
L 194.727047 -29.125455 
L 193.160221 -32.847769 
L 190.974216 -36.570083 
L 188.027496 -40.292397 
L 184.189372 -44.014711 
L 179.35848 -47.737025 
L 173.482231 -51.459339 
L 166.573872 -55.181653 
L 158.723518 -58.903967 
L 150.100048 -62.626281 
L 140.942207 -66.348595 
L 131.539297 -70.070909 
L 122.204023 -73.793223 
L 113.241804 -77.515537 
L 104.921633 -81.237851 
L 97.453198 -84.960165 
L 90.973471 -88.682479 
L 85.543857 -92.404793 
L 81.156787 -96.127107 
L 77.749015 -99.849421 
L 75.218147 -103.571736 
L 73.439176 -107.29405 
L 72.278777 -111.016364 
L 71.606326 -114.738678 
L 71.301638 -118.460992 
L 71.26 -122.183306 
L 71.395147 -125.90562 
L 71.640568 -129.627934 
L 71.949299 -133.350248 
L 72.292225 -137.072562 
L 72.655056 -140.794876 
L 73.0344 -144.51719 
L 73.433568 -148.239504 
L 73.858742 -151.961818 
L 74.315987 -155.684132 
L 74.809271 -159.406446 
L 75.339385 -163.12876 
L 75.903538 -166.851074 
L 76.495405 -170.573388 
L 77.105536 -174.295702 
L 77.722101 -178.018017 
L 78.331971 -181.740331 
L 78.92203 -185.462645 
L 79.480497 -189.184959 
L 79.99803 -192.907273 
L 80.46839 -196.629587 
L 80.88865 -200.351901 
L 81.259078 -204.074215 
L 81.582913 -207.796529 
L 81.866213 -211.518843 
L 82.117809 -215.241157 
L 82.349172 -218.963471 
L 82.573905 -222.685785 
L 82.806598 -226.408099 
L 83.060958 -230.130413 
L 83.347472 -233.852727 
L 83.671157 -237.575041 
L 84.030071 -241.297355 
L 84.415226 -245.019669 
L 84.812172 -248.741983 
L 85.204064 -252.464298 
L 85.57555 -256.186612 
L 85.916525 -259.908926 
L 86.224761 -263.63124 
L 86.506712 -267.353554 
L 86.776234 -271.075868 
L 87.051505 -274.798182 
L 87.350832 -278.520496 
L 87.68833 -282.24281 
L 88.070502 -285.965124 
L 88.494655 -289.687438 
L 88.949846 -293.409752 
L 89.420648 -297.132066 
L 89.893581 -300.85438 
L 90.365449 -304.576694 
L 90.852329 -308.299008 
L 91.397473 -312.021322 
L 92.076282 -315.743636 
L 92.996686 -319.46595 
L 94.293886 -323.188264 
L 96.119263 -326.910579 
L 98.624315 -330.632893 
L 101.94142 -334.355207 
L 106.163972 -338.077521 
L 111.328819 -341.799835 
L 117.403863 -345.522149 
L 124.283221 -349.244463 
L 131.79135 -352.966777 
L 139.696269 -356.689091 
L 147.730496 -360.411405 
L 155.616909 -364.133719 
L 163.095773 -367.856033 
L 169.948844 -371.578347 
L 176.017009 -375.300661 
L 181.209212 -379.022975 
L 185.502084 -382.745289 
L 188.931466 -386.467603 
L 191.578253 -390.189917 
L 193.551679 -393.912231 
L 194.972978 -397.634545 
L 200.427022 -397.634545 
L 200.427022 -397.634545 
L 201.848321 -393.912231 
L 203.821747 -390.189917 
L 206.468534 -386.467603 
L 209.897916 -382.745289 
L 214.190788 -379.022975 
L 219.382991 -375.300661 
L 225.451156 -371.578347 
L 232.304227 -367.856033 
L 239.783091 -364.133719 
L 247.669504 -360.411405 
L 255.703731 -356.689091 
L 263.60865 -352.966777 
L 271.116779 -349.244463 
L 277.996137 -345.522149 
L 284.071181 -341.799835 
L 289.236028 -338.077521 
L 293.45858 -334.355207 
L 296.775685 -330.632893 
L 299.280737 -326.910579 
L 301.106114 -323.188264 
L 302.403314 -319.46595 
L 303.323718 -315.743636 
L 304.002527 -312.021322 
L 304.547671 -308.299008 
L 305.034551 -304.576694 
L 305.506419 -300.85438 
L 305.979352 -297.132066 
L 306.450154 -293.409752 
L 306.905345 -289.687438 
L 307.329498 -285.965124 
L 307.71167 -282.24281 
L 308.049168 -278.520496 
L 308.348495 -274.798182 
L 308.623766 -271.075868 
L 308.893288 -267.353554 
L 309.175239 -263.63124 
L 309.483475 -259.908926 
L 309.82445 -256.186612 
L 310.195936 -252.464298 
L 310.587828 -248.741983 
L 310.984774 -245.019669 
L 311.369929 -241.297355 
L 311.728843 -237.575041 
L 312.052528 -233.852727 
L 312.339042 -230.130413 
L 312.593402 -226.408099 
L 312.826095 -222.685785 
L 313.050828 -218.963471 
L 313.282191 -215.241157 
L 313.533787 -211.518843 
L 313.817087 -207.796529 
L 314.140922 -204.074215 
L 314.51135 -200.351901 
L 314.93161 -196.629587 
L 315.40197 -192.907273 
L 315.919503 -189.184959 
L 316.47797 -185.462645 
L 317.068029 -181.740331 
L 317.677899 -178.018017 
L 318.294464 -174.295702 
L 318.904595 -170.573388 
L 319.496462 -166.851074 
L 320.060615 -163.12876 
L 320.590729 -159.406446 
L 321.084013 -155.684132 
L 321.541258 -151.961818 
L 321.966432 -148.239504 
L 322.3656 -144.51719 
L 322.744944 -140.794876 
L 323.107775 -137.072562 
L 323.450701 -133.350248 
L 323.759432 -129.627934 
L 324.004853 -125.90562 
L 324.14 -122.183306 
L 324.098362 -118.460992 
L 323.793674 -114.738678 
L 323.121223 -111.016364 
L 321.960824 -107.29405 
L 320.181853 -103.571736 
L 317.650985 -99.849421 
L 314.243213 -96.127107 
L 309.856143 -92.404793 
L 304.426529 -88.682479 
L 297.946802 -84.960165 
L 290.478367 -81.237851 
L 282.158196 -77.515537 
L 273.195977 -73.793223 
L 263.860703 -70.070909 
L 254.457793 -66.348595 
L 245.299952 -62.626281 
L 236.676482 -58.903967 
L 228.826128 -55.181653 
L 221.917769 -51.459339 
L 216.04152 -47.737025 
L 211.210628 -44.014711 
L 207.372504 -40.292397 
L 204.425784 -36.570083 
L 202.239779 -32.847769 
L 200.672953 -29.125455 
z
" id="m4cd545d774" style="stroke:#797979;stroke-width:1.5;"/>
    </defs>
    <g clip-path="url(#pb983f77cf5)">
     <use style="fill:#a4efa4;stroke:#797979;stroke-width:1.5;" x="0" xlink:href="#m4cd545d774" y="452.055313"/>
    </g>
   </g>
   <g id="matplotlib.axis_1"/>
   <g id="matplotlib.axis_2">
    <g id="ytick_1">
     <g id="line2d_1">
      <defs>
       <path d="M 0 0 
L -3.5 0 
" id="m80904ca462" style="stroke:#000000;stroke-width:0.8;"/>
      </defs>
      <g>
       <use style="stroke:#000000;stroke-width:0.8;" x="39.65" xlink:href="#m80904ca462" y="422.832241"/>
      </g>
     </g>
     <g id="text_1">
      <!-- 5 -->
      <defs>
       <path d="M 10.796875 72.90625 
L 49.515625 72.90625 
L 49.515625 64.59375 
L 19.828125 64.59375 
L 19.828125 46.734375 
Q 21.96875 47.46875 24.109375 47.828125 
Q 26.265625 48.1875 28.421875 48.1875 
Q 40.625 48.1875 47.75 41.5 
Q 54.890625 34.8125 54.890625 23.390625 
Q 54.890625 11.625 47.5625 5.09375 
Q 40.234375 -1.421875 26.90625 -1.421875 
Q 22.3125 -1.421875 17.546875 -0.640625 
Q 12.796875 0.140625 7.71875 1.703125 
L 7.71875 11.625 
Q 12.109375 9.234375 16.796875 8.0625 
Q 21.484375 6.890625 26.703125 6.890625 
Q 35.15625 6.890625 40.078125 11.328125 
Q 45.015625 15.765625 45.015625 23.390625 
Q 45.015625 31 40.078125 35.4375 
Q 35.15625 39.890625 26.703125 39.890625 
Q 22.75 39.890625 18.8125 39.015625 
Q 14.890625 38.140625 10.796875 36.28125 
z
" id="DejaVuSans-35"/>
      </defs>
      <g transform="translate(19.925 430.430679)scale(0.2 -0.2)">
       <use xlink:href="#DejaVuSans-35"/>
      </g>
     </g>
    </g>
    <g id="ytick_2">
     <g id="line2d_2">
      <g>
       <use style="stroke:#000000;stroke-width:0.8;" x="39.65" xlink:href="#m80904ca462" y="356.824517"/>
      </g>
     </g>
     <g id="text_2">
      <!-- 10 -->
      <defs>
       <path d="M 12.40625 8.296875 
L 28.515625 8.296875 
L 28.515625 63.921875 
L 10.984375 60.40625 
L 10.984375 69.390625 
L 28.421875 72.90625 
L 38.28125 72.90625 
L 38.28125 8.296875 
L 54.390625 8.296875 
L 54.390625 0 
L 12.40625 0 
z
" id="DejaVuSans-31"/>
       <path d="M 31.78125 66.40625 
Q 24.171875 66.40625 20.328125 58.90625 
Q 16.5 51.421875 16.5 36.375 
Q 16.5 21.390625 20.328125 13.890625 
Q 24.171875 6.390625 31.78125 6.390625 
Q 39.453125 6.390625 43.28125 13.890625 
Q 47.125 21.390625 47.125 36.375 
Q 47.125 51.421875 43.28125 58.90625 
Q 39.453125 66.40625 31.78125 66.40625 
z
M 31.78125 74.21875 
Q 44.046875 74.21875 50.515625 64.515625 
Q 56.984375 54.828125 56.984375 36.375 
Q 56.984375 17.96875 50.515625 8.265625 
Q 44.046875 -1.421875 31.78125 -1.421875 
Q 19.53125 -1.421875 13.0625 8.265625 
Q 6.59375 17.96875 6.59375 36.375 
Q 6.59375 54.828125 13.0625 64.515625 
Q 19.53125 74.21875 31.78125 74.21875 
z
" id="DejaVuSans-30"/>
      </defs>
      <g transform="translate(7.2 364.422955)scale(0.2 -0.2)">
       <use xlink:href="#DejaVuSans-31"/>
       <use x="63.623047" xlink:href="#DejaVuSans-30"/>
      </g>
     </g>
    </g>
    <g id="ytick_3">
     <g id="line2d_3">
      <g>
       <use style="stroke:#000000;stroke-width:0.8;" x="39.65" xlink:href="#m80904ca462" y="290.816794"/>
      </g>
     </g>
     <g id="text_3">
      <!-- 15 -->
      <g transform="translate(7.2 298.415231)scale(0.2 -0.2)">
       <use xlink:href="#DejaVuSans-31"/>
       <use x="63.623047" xlink:href="#DejaVuSans-35"/>
      </g>
     </g>
    </g>
    <g id="ytick_4">
     <g id="line2d_4">
      <g>
       <use style="stroke:#000000;stroke-width:0.8;" x="39.65" xlink:href="#m80904ca462" y="224.80907"/>
      </g>
     </g>
     <g id="text_4">
      <!-- 20 -->
      <defs>
       <path d="M 19.1875 8.296875 
L 53.609375 8.296875 
L 53.609375 0 
L 7.328125 0 
L 7.328125 8.296875 
Q 12.9375 14.109375 22.625 23.890625 
Q 32.328125 33.6875 34.8125 36.53125 
Q 39.546875 41.84375 41.421875 45.53125 
Q 43.3125 49.21875 43.3125 52.78125 
Q 43.3125 58.59375 39.234375 62.25 
Q 35.15625 65.921875 28.609375 65.921875 
Q 23.96875 65.921875 18.8125 64.3125 
Q 13.671875 62.703125 7.8125 59.421875 
L 7.8125 69.390625 
Q 13.765625 71.78125 18.9375 73 
Q 24.125 74.21875 28.421875 74.21875 
Q 39.75 74.21875 46.484375 68.546875 
Q 53.21875 62.890625 53.21875 53.421875 
Q 53.21875 48.921875 51.53125 44.890625 
Q 49.859375 40.875 45.40625 35.40625 
Q 44.1875 33.984375 37.640625 27.21875 
Q 31.109375 20.453125 19.1875 8.296875 
z
" id="DejaVuSans-32"/>
      </defs>
      <g transform="translate(7.2 232.407507)scale(0.2 -0.2)">
       <use xlink:href="#DejaVuSans-32"/>
       <use x="63.623047" xlink:href="#DejaVuSans-30"/>
      </g>
     </g>
    </g>
    <g id="ytick_5">
     <g id="line2d_5">
      <g>
       <use style="stroke:#000000;stroke-width:0.8;" x="39.65" xlink:href="#m80904ca462" y="158.801346"/>
      </g>
     </g>
     <g id="text_5">
      <!-- 25 -->
      <g transform="translate(7.2 166.399784)scale(0.2 -0.2)">
       <use xlink:href="#DejaVuSans-32"/>
       <use x="63.623047" xlink:href="#DejaVuSans-35"/>
      </g>
     </g>
    </g>
    <g id="ytick_6">
     <g id="line2d_6">
      <g>
       <use style="stroke:#000000;stroke-width:0.8;" x="39.65" xlink:href="#m80904ca462" y="92.793622"/>
      </g>
     </g>
     <g id="text_6">
      <!-- 30 -->
      <defs>
       <path d="M 40.578125 39.3125 
Q 47.65625 37.796875 51.625 33 
Q 55.609375 28.21875 55.609375 21.1875 
Q 55.609375 10.40625 48.1875 4.484375 
Q 40.765625 -1.421875 27.09375 -1.421875 
Q 22.515625 -1.421875 17.65625 -0.515625 
Q 12.796875 0.390625 7.625 2.203125 
L 7.625 11.71875 
Q 11.71875 9.328125 16.59375 8.109375 
Q 21.484375 6.890625 26.8125 6.890625 
Q 36.078125 6.890625 40.9375 10.546875 
Q 45.796875 14.203125 45.796875 21.1875 
Q 45.796875 27.640625 41.28125 31.265625 
Q 36.765625 34.90625 28.71875 34.90625 
L 20.21875 34.90625 
L 20.21875 43.015625 
L 29.109375 43.015625 
Q 36.375 43.015625 40.234375 45.921875 
Q 44.09375 48.828125 44.09375 54.296875 
Q 44.09375 59.90625 40.109375 62.90625 
Q 36.140625 65.921875 28.71875 65.921875 
Q 24.65625 65.921875 20.015625 65.03125 
Q 15.375 64.15625 9.8125 62.3125 
L 9.8125 71.09375 
Q 15.4375 72.65625 20.34375 73.4375 
Q 25.25 74.21875 29.59375 74.21875 
Q 40.828125 74.21875 47.359375 69.109375 
Q 53.90625 64.015625 53.90625 55.328125 
Q 53.90625 49.265625 50.4375 45.09375 
Q 46.96875 40.921875 40.578125 39.3125 
z
" id="DejaVuSans-33"/>
      </defs>
      <g transform="translate(7.2 100.39206)scale(0.2 -0.2)">
       <use xlink:href="#DejaVuSans-33"/>
       <use x="63.623047" xlink:href="#DejaVuSans-30"/>
      </g>
     </g>
    </g>
   </g>
   <g id="line2d_7">
    <path clip-path="url(#pb983f77cf5)" d="M 197.7 383.197243 
L 197.7 94.153382 
" style="fill:none;stroke:#797979;stroke-linecap:square;stroke-width:1.5;"/>
   </g>
   <g id="line2d_8">
    <path clip-path="url(#pb983f77cf5)" d="M 197.7 315.73867 
L 197.7 169.993616 
" style="fill:none;stroke:#797979;stroke-linecap:square;stroke-width:4.5;"/>
   </g>
   <g id="patch_3">
    <path d="M 39.65 441.355312 
L 39.65 35.995312 
" style="fill:none;stroke:#000000;stroke-linecap:square;stroke-linejoin:miter;stroke-width:0.8;"/>
   </g>
   <g id="patch_4">
    <path d="M 355.75 441.355312 
L 355.75 35.995312 
" style="fill:none;stroke:#000000;stroke-linecap:square;stroke-linejoin:miter;stroke-width:0.8;"/>
   </g>
   <g id="patch_5">
    <path d="M 39.65 441.355313 
L 355.75 441.355313 
" style="fill:none;stroke:#000000;stroke-linecap:square;stroke-linejoin:miter;stroke-width:0.8;"/>
   </g>
   <g id="patch_6">
    <path d="M 39.65 35.995313 
L 355.75 35.995313 
" style="fill:none;stroke:#000000;stroke-linecap:square;stroke-linejoin:miter;stroke-width:0.8;"/>
   </g>
   <g id="PathCollection_1">
    <defs>
     <path d="M 0 1.5 
C 0.397805 1.5 0.77937 1.341951 1.06066 1.06066 
C 1.341951 0.77937 1.5 0.397805 1.5 0 
C 1.5 -0.397805 1.341951 -0.77937 1.06066 -1.06066 
C 0.77937 -1.341951 0.397805 -1.5 0 -1.5 
C -0.397805 -1.5 -0.77937 -1.341951 -1.06066 -1.06066 
C -1.341951 -0.77937 -1.5 -0.397805 -1.5 0 
C -1.5 0.397805 -1.341951 0.77937 -1.06066 1.06066 
C -0.77937 1.341951 -0.397805 1.5 0 1.5 
z
" id="m497af5e7f7" style="stroke:#797979;"/>
    </defs>
    <g clip-path="url(#pb983f77cf5)">
     <use style="fill:#ffffff;stroke:#797979;" x="197.7" xlink:href="#m497af5e7f7" y="246.666868"/>
    </g>
   </g>
   <g id="text_7">
    <!-- Attenuation -->
    <defs>
     <path d="M 34.1875 63.1875 
L 20.796875 26.90625 
L 47.609375 26.90625 
z
M 28.609375 72.90625 
L 39.796875 72.90625 
L 67.578125 0 
L 57.328125 0 
L 50.6875 18.703125 
L 17.828125 18.703125 
L 11.1875 0 
L 0.78125 0 
z
" id="DejaVuSans-41"/>
     <path d="M 18.3125 70.21875 
L 18.3125 54.6875 
L 36.8125 54.6875 
L 36.8125 47.703125 
L 18.3125 47.703125 
L 18.3125 18.015625 
Q 18.3125 11.328125 20.140625 9.421875 
Q 21.96875 7.515625 27.59375 7.515625 
L 36.8125 7.515625 
L 36.8125 0 
L 27.59375 0 
Q 17.1875 0 13.234375 3.875 
Q 9.28125 7.765625 9.28125 18.015625 
L 9.28125 47.703125 
L 2.6875 47.703125 
L 2.6875 54.6875 
L 9.28125 54.6875 
L 9.28125 70.21875 
z
" id="DejaVuSans-74"/>
     <path d="M 56.203125 29.59375 
L 56.203125 25.203125 
L 14.890625 25.203125 
Q 15.484375 15.921875 20.484375 11.0625 
Q 25.484375 6.203125 34.421875 6.203125 
Q 39.59375 6.203125 44.453125 7.46875 
Q 49.3125 8.734375 54.109375 11.28125 
L 54.109375 2.78125 
Q 49.265625 0.734375 44.1875 -0.34375 
Q 39.109375 -1.421875 33.890625 -1.421875 
Q 20.796875 -1.421875 13.15625 6.1875 
Q 5.515625 13.8125 5.515625 26.8125 
Q 5.515625 40.234375 12.765625 48.109375 
Q 20.015625 56 32.328125 56 
Q 43.359375 56 49.78125 48.890625 
Q 56.203125 41.796875 56.203125 29.59375 
z
M 47.21875 32.234375 
Q 47.125 39.59375 43.09375 43.984375 
Q 39.0625 48.390625 32.421875 48.390625 
Q 24.90625 48.390625 20.390625 44.140625 
Q 15.875 39.890625 15.1875 32.171875 
z
" id="DejaVuSans-65"/>
     <path d="M 54.890625 33.015625 
L 54.890625 0 
L 45.90625 0 
L 45.90625 32.71875 
Q 45.90625 40.484375 42.875 44.328125 
Q 39.84375 48.1875 33.796875 48.1875 
Q 26.515625 48.1875 22.3125 43.546875 
Q 18.109375 38.921875 18.109375 30.90625 
L 18.109375 0 
L 9.078125 0 
L 9.078125 54.6875 
L 18.109375 54.6875 
L 18.109375 46.1875 
Q 21.34375 51.125 25.703125 53.5625 
Q 30.078125 56 35.796875 56 
Q 45.21875 56 50.046875 50.171875 
Q 54.890625 44.34375 54.890625 33.015625 
z
" id="DejaVuSans-6e"/>
     <path d="M 8.5 21.578125 
L 8.5 54.6875 
L 17.484375 54.6875 
L 17.484375 21.921875 
Q 17.484375 14.15625 20.5 10.265625 
Q 23.53125 6.390625 29.59375 6.390625 
Q 36.859375 6.390625 41.078125 11.03125 
Q 45.3125 15.671875 45.3125 23.6875 
L 45.3125 54.6875 
L 54.296875 54.6875 
L 54.296875 0 
L 45.3125 0 
L 45.3125 8.40625 
Q 42.046875 3.421875 37.71875 1 
Q 33.40625 -1.421875 27.6875 -1.421875 
Q 18.265625 -1.421875 13.375 4.4375 
Q 8.5 10.296875 8.5 21.578125 
z
M 31.109375 56 
z
" id="DejaVuSans-75"/>
     <path d="M 34.28125 27.484375 
Q 23.390625 27.484375 19.1875 25 
Q 14.984375 22.515625 14.984375 16.5 
Q 14.984375 11.71875 18.140625 8.90625 
Q 21.296875 6.109375 26.703125 6.109375 
Q 34.1875 6.109375 38.703125 11.40625 
Q 43.21875 16.703125 43.21875 25.484375 
L 43.21875 27.484375 
z
M 52.203125 31.203125 
L 52.203125 0 
L 43.21875 0 
L 43.21875 8.296875 
Q 40.140625 3.328125 35.546875 0.953125 
Q 30.953125 -1.421875 24.3125 -1.421875 
Q 15.921875 -1.421875 10.953125 3.296875 
Q 6 8.015625 6 15.921875 
Q 6 25.140625 12.171875 29.828125 
Q 18.359375 34.515625 30.609375 34.515625 
L 43.21875 34.515625 
L 43.21875 35.40625 
Q 43.21875 41.609375 39.140625 45 
Q 35.0625 48.390625 27.6875 48.390625 
Q 23 48.390625 18.546875 47.265625 
Q 14.109375 46.140625 10.015625 43.890625 
L 10.015625 52.203125 
Q 14.9375 54.109375 19.578125 55.046875 
Q 24.21875 56 28.609375 56 
Q 40.484375 56 46.34375 49.84375 
Q 52.203125 43.703125 52.203125 31.203125 
z
" id="DejaVuSans-61"/>
     <path d="M 9.421875 54.6875 
L 18.40625 54.6875 
L 18.40625 0 
L 9.421875 0 
z
M 9.421875 75.984375 
L 18.40625 75.984375 
L 18.40625 64.59375 
L 9.421875 64.59375 
z
" id="DejaVuSans-69"/>
     <path d="M 30.609375 48.390625 
Q 23.390625 48.390625 19.1875 42.75 
Q 14.984375 37.109375 14.984375 27.296875 
Q 14.984375 17.484375 19.15625 11.84375 
Q 23.34375 6.203125 30.609375 6.203125 
Q 37.796875 6.203125 41.984375 11.859375 
Q 46.1875 17.53125 46.1875 27.296875 
Q 46.1875 37.015625 41.984375 42.703125 
Q 37.796875 48.390625 30.609375 48.390625 
z
M 30.609375 56 
Q 42.328125 56 49.015625 48.375 
Q 55.71875 40.765625 55.71875 27.296875 
Q 55.71875 13.875 49.015625 6.21875 
Q 42.328125 -1.421875 30.609375 -1.421875 
Q 18.84375 -1.421875 12.171875 6.21875 
Q 5.515625 13.875 5.515625 27.296875 
Q 5.515625 40.765625 12.171875 48.375 
Q 18.84375 56 30.609375 56 
z
" id="DejaVuSans-6f"/>
    </defs>
    <g transform="translate(109.514063 29.995313)scale(0.3 -0.3)">
     <use xlink:href="#DejaVuSans-41"/>
     <use x="68.392578" xlink:href="#DejaVuSans-74"/>
     <use x="107.601562" xlink:href="#DejaVuSans-74"/>
     <use x="146.810547" xlink:href="#DejaVuSans-65"/>
     <use x="208.333984" xlink:href="#DejaVuSans-6e"/>
     <use x="271.712891" xlink:href="#DejaVuSans-75"/>
     <use x="335.091797" xlink:href="#DejaVuSans-61"/>
     <use x="396.371094" xlink:href="#DejaVuSans-74"/>
     <use x="435.580078" xlink:href="#DejaVuSans-69"/>
     <use x="463.363281" xlink:href="#DejaVuSans-6f"/>
     <use x="524.544922" xlink:href="#DejaVuSans-6e"/>
    </g>
   </g>
  </g>
 </g>
 <defs>
  <clipPath id="pb983f77cf5">
   <rect height="405.36" width="316.1" x="39.65" y="35.995313"/>
  </clipPath>
 </defs>
</svg>
