<?xml version="1.0" encoding="utf-8" standalone="no"?>
<!DOCTYPE svg PUBLIC "-//W3C//DTD SVG 1.1//EN"
  "http://www.w3.org/Graphics/SVG/1.1/DTD/svg11.dtd">
<!-- Created with matplotlib (https://matplotlib.org/) -->
<svg height="453.834375pt" version="1.1" viewBox="0 0 389.757656 453.834375" width="389.757656pt" xmlns="http://www.w3.org/2000/svg" xmlns:xlink="http://www.w3.org/1999/xlink">
 <defs>
  <style type="text/css">
*{stroke-linecap:butt;stroke-linejoin:round;}
  </style>
 </defs>
 <g id="figure_1">
  <g id="patch_1">
   <path d="M 0 453.834375 
L 389.757656 453.834375 
L 389.757656 0 
L 0 0 
z
" style="fill:#ffffff;"/>
  </g>
  <g id="axes_1">
   <g id="patch_2">
    <path d="M 46.00625 443.134375 
L 361.47625 443.134375 
L 361.47625 36.234375 
L 46.00625 36.234375 
z
" style="fill:#ffffff;"/>
   </g>
   <g id="PolyCollection_1">
    <defs>
     <path d="M 206.162323 -29.195455 
L 201.320177 -29.195455 
L 199.809904 -32.93191 
L 197.573868 -36.668365 
L 194.391142 -40.404821 
L 190.037606 -44.141276 
L 184.317734 -47.877732 
L 177.10415 -51.614187 
L 168.378902 -55.350643 
L 158.267744 -59.087098 
L 147.057678 -62.823554 
L 135.189726 -66.560009 
L 123.22327 -70.296465 
L 111.774759 -74.03292 
L 101.440312 -77.769376 
L 92.716635 -81.505831 
L 85.936104 -85.242287 
L 81.228964 -88.978742 
L 78.519265 -92.715197 
L 77.55325 -96.451653 
L 77.951854 -100.188108 
L 79.274809 -103.924564 
L 81.083454 -107.661019 
L 82.992232 -111.397475 
L 84.703466 -115.13393 
L 86.024671 -118.870386 
L 86.870871 -122.606841 
L 87.255717 -126.343297 
L 87.274989 -130.079752 
L 87.08508 -133.816208 
L 86.878174 -137.552663 
L 86.855548 -141.289118 
L 87.200728 -145.025574 
L 88.054859 -148.762029 
L 89.497085 -152.498485 
L 91.532705 -156.23494 
L 94.091111 -159.971396 
L 97.034163 -163.707851 
L 100.173922 -167.444307 
L 103.297004 -171.180762 
L 106.191565 -174.917218 
L 108.67257 -178.653673 
L 110.601601 -182.390129 
L 111.898933 -186.126584 
L 112.547516 -189.863039 
L 112.590205 -193.599495 
L 112.122516 -197.33595 
L 111.283064 -201.072406 
L 110.242822 -204.808861 
L 109.193094 -208.545317 
L 108.331251 -212.281772 
L 107.843574 -216.018228 
L 107.885824 -219.754683 
L 108.564065 -223.491139 
L 109.9197 -227.227594 
L 111.922959 -230.96405 
L 114.477694 -234.700505 
L 117.437692 -238.436961 
L 120.631652 -242.173416 
L 123.891619 -245.909871 
L 127.078758 -249.646327 
L 130.101234 -253.382782 
L 132.921176 -257.119238 
L 135.550553 -260.855693 
L 138.038304 -264.592149 
L 140.452755 -268.328604 
L 142.863743 -272.06506 
L 145.328229 -275.801515 
L 147.881693 -279.537971 
L 150.535865 -283.274426 
L 153.28173 -287.010882 
L 156.095722 -290.747337 
L 158.946721 -294.483792 
L 161.801911 -298.220248 
L 164.630462 -301.956703 
L 167.405058 -305.693159 
L 170.102069 -309.429614 
L 172.701433 -313.16607 
L 175.187083 -316.902525 
L 177.548126 -320.638981 
L 179.780361 -324.375436 
L 181.887316 -328.111892 
L 183.879977 -331.848347 
L 185.774792 -335.584803 
L 187.590125 -339.321258 
L 189.341924 -343.057713 
L 191.039682 -346.794169 
L 192.683763 -350.530624 
L 194.264797 -354.26708 
L 195.765269 -358.003535 
L 197.16289 -361.739991 
L 198.434865 -365.476446 
L 199.562087 -369.212902 
L 200.532362 -372.949357 
L 201.34213 -376.685813 
L 201.996565 -380.422268 
L 202.50829 -384.158724 
L 202.895197 -387.895179 
L 203.177933 -391.631635 
L 203.377557 -395.36809 
L 203.513695 -399.104545 
L 203.968805 -399.104545 
L 203.968805 -399.104545 
L 204.104943 -395.36809 
L 204.304567 -391.631635 
L 204.587303 -387.895179 
L 204.97421 -384.158724 
L 205.485935 -380.422268 
L 206.14037 -376.685813 
L 206.950138 -372.949357 
L 207.920413 -369.212902 
L 209.047635 -365.476446 
L 210.31961 -361.739991 
L 211.717231 -358.003535 
L 213.217703 -354.26708 
L 214.798737 -350.530624 
L 216.442818 -346.794169 
L 218.140576 -343.057713 
L 219.892375 -339.321258 
L 221.707708 -335.584803 
L 223.602523 -331.848347 
L 225.595184 -328.111892 
L 227.702139 -324.375436 
L 229.934374 -320.638981 
L 232.295417 -316.902525 
L 234.781067 -313.16607 
L 237.380431 -309.429614 
L 240.077442 -305.693159 
L 242.852038 -301.956703 
L 245.680589 -298.220248 
L 248.535779 -294.483792 
L 251.386778 -290.747337 
L 254.20077 -287.010882 
L 256.946635 -283.274426 
L 259.600807 -279.537971 
L 262.154271 -275.801515 
L 264.618757 -272.06506 
L 267.029745 -268.328604 
L 269.444196 -264.592149 
L 271.931947 -260.855693 
L 274.561324 -257.119238 
L 277.381266 -253.382782 
L 280.403742 -249.646327 
L 283.590881 -245.909871 
L 286.850848 -242.173416 
L 290.044808 -238.436961 
L 293.004806 -234.700505 
L 295.559541 -230.96405 
L 297.5628 -227.227594 
L 298.918435 -223.491139 
L 299.596676 -219.754683 
L 299.638926 -216.018228 
L 299.151249 -212.281772 
L 298.289406 -208.545317 
L 297.239678 -204.808861 
L 296.199436 -201.072406 
L 295.359984 -197.33595 
L 294.892295 -193.599495 
L 294.934984 -189.863039 
L 295.583567 -186.126584 
L 296.880899 -182.390129 
L 298.80993 -178.653673 
L 301.290935 -174.917218 
L 304.185496 -171.180762 
L 307.308578 -167.444307 
L 310.448337 -163.707851 
L 313.391389 -159.971396 
L 315.949795 -156.23494 
L 317.985415 -152.498485 
L 319.427641 -148.762029 
L 320.281772 -145.025574 
L 320.626952 -141.289118 
L 320.604326 -137.552663 
L 320.39742 -133.816208 
L 320.207511 -130.079752 
L 320.226783 -126.343297 
L 320.611629 -122.606841 
L 321.457829 -118.870386 
L 322.779034 -115.13393 
L 324.490268 -111.397475 
L 326.399046 -107.661019 
L 328.207691 -103.924564 
L 329.530646 -100.188108 
L 329.92925 -96.451653 
L 328.963235 -92.715197 
L 326.253536 -88.978742 
L 321.546396 -85.242287 
L 314.765865 -81.505831 
L 306.042188 -77.769376 
L 295.707741 -74.03292 
L 284.25923 -70.296465 
L 272.292774 -66.560009 
L 260.424822 -62.823554 
L 249.214756 -59.087098 
L 239.103598 -55.350643 
L 230.37835 -51.614187 
L 223.164766 -47.877732 
L 217.444894 -44.141276 
L 213.091358 -40.404821 
L 209.908632 -36.668365 
L 207.672596 -32.93191 
L 206.162323 -29.195455 
z
" id="m8321a6cd8d" style="stroke:#848484;stroke-width:1.5;"/>
    </defs>
    <g clip-path="url(#pf4a1d3a398)">
     <use style="fill:#f6dbc2;stroke:#848484;stroke-width:1.5;" x="0" xlink:href="#m8321a6cd8d" y="453.834375"/>
    </g>
   </g>
   <g id="matplotlib.axis_1"/>
   <g id="matplotlib.axis_2">
    <g id="ytick_1">
     <g id="line2d_1">
      <defs>
       <path d="M 0 0 
L -3.5 0 
" id="mebe235fc70" style="stroke:#000000;stroke-width:0.8;"/>
      </defs>
      <g>
       <use style="stroke:#000000;stroke-width:0.8;" x="46.00625" xlink:href="#mebe235fc70" y="394.694063"/>
      </g>
     </g>
     <g id="text_1">
      <!-- 0.2 -->
      <defs>
       <path d="M 31.78125 66.40625 
Q 24.171875 66.40625 20.328125 58.90625 
Q 16.5 51.421875 16.5 36.375 
Q 16.5 21.390625 20.328125 13.890625 
Q 24.171875 6.390625 31.78125 6.390625 
Q 39.453125 6.390625 43.28125 13.890625 
Q 47.125 21.390625 47.125 36.375 
Q 47.125 51.421875 43.28125 58.90625 
Q 39.453125 66.40625 31.78125 66.40625 
z
M 31.78125 74.21875 
Q 44.046875 74.21875 50.515625 64.515625 
Q 56.984375 54.828125 56.984375 36.375 
Q 56.984375 17.96875 50.515625 8.265625 
Q 44.046875 -1.421875 31.78125 -1.421875 
Q 19.53125 -1.421875 13.0625 8.265625 
Q 6.59375 17.96875 6.59375 36.375 
Q 6.59375 54.828125 13.0625 64.515625 
Q 19.53125 74.21875 31.78125 74.21875 
z
" id="DejaVuSans-48"/>
       <path d="M 10.6875 12.40625 
L 21 12.40625 
L 21 0 
L 10.6875 0 
z
" id="DejaVuSans-46"/>
       <path d="M 19.1875 8.296875 
L 53.609375 8.296875 
L 53.609375 0 
L 7.328125 0 
L 7.328125 8.296875 
Q 12.9375 14.109375 22.625 23.890625 
Q 32.328125 33.6875 34.8125 36.53125 
Q 39.546875 41.84375 41.421875 45.53125 
Q 43.3125 49.21875 43.3125 52.78125 
Q 43.3125 58.59375 39.234375 62.25 
Q 35.15625 65.921875 28.609375 65.921875 
Q 23.96875 65.921875 18.8125 64.3125 
Q 13.671875 62.703125 7.8125 59.421875 
L 7.8125 69.390625 
Q 13.765625 71.78125 18.9375 73 
Q 24.125 74.21875 28.421875 74.21875 
Q 39.75 74.21875 46.484375 68.546875 
Q 53.21875 62.890625 53.21875 53.421875 
Q 53.21875 48.921875 51.53125 44.890625 
Q 49.859375 40.875 45.40625 35.40625 
Q 44.1875 33.984375 37.640625 27.21875 
Q 31.109375 20.453125 19.1875 8.296875 
z
" id="DejaVuSans-50"/>
      </defs>
      <g transform="translate(7.2 402.292501)scale(0.2 -0.2)">
       <use xlink:href="#DejaVuSans-48"/>
       <use x="63.623047" xlink:href="#DejaVuSans-46"/>
       <use x="95.410156" xlink:href="#DejaVuSans-50"/>
      </g>
     </g>
    </g>
    <g id="ytick_2">
     <g id="line2d_2">
      <g>
       <use style="stroke:#000000;stroke-width:0.8;" x="46.00625" xlink:href="#mebe235fc70" y="317.861504"/>
      </g>
     </g>
     <g id="text_2">
      <!-- 0.4 -->
      <defs>
       <path d="M 37.796875 64.3125 
L 12.890625 25.390625 
L 37.796875 25.390625 
z
M 35.203125 72.90625 
L 47.609375 72.90625 
L 47.609375 25.390625 
L 58.015625 25.390625 
L 58.015625 17.1875 
L 47.609375 17.1875 
L 47.609375 0 
L 37.796875 0 
L 37.796875 17.1875 
L 4.890625 17.1875 
L 4.890625 26.703125 
z
" id="DejaVuSans-52"/>
      </defs>
      <g transform="translate(7.2 325.459942)scale(0.2 -0.2)">
       <use xlink:href="#DejaVuSans-48"/>
       <use x="63.623047" xlink:href="#DejaVuSans-46"/>
       <use x="95.410156" xlink:href="#DejaVuSans-52"/>
      </g>
     </g>
    </g>
    <g id="ytick_3">
     <g id="line2d_3">
      <g>
       <use style="stroke:#000000;stroke-width:0.8;" x="46.00625" xlink:href="#mebe235fc70" y="241.028945"/>
      </g>
     </g>
     <g id="text_3">
      <!-- 0.6 -->
      <defs>
       <path d="M 33.015625 40.375 
Q 26.375 40.375 22.484375 35.828125 
Q 18.609375 31.296875 18.609375 23.390625 
Q 18.609375 15.53125 22.484375 10.953125 
Q 26.375 6.390625 33.015625 6.390625 
Q 39.65625 6.390625 43.53125 10.953125 
Q 47.40625 15.53125 47.40625 23.390625 
Q 47.40625 31.296875 43.53125 35.828125 
Q 39.65625 40.375 33.015625 40.375 
z
M 52.59375 71.296875 
L 52.59375 62.3125 
Q 48.875 64.0625 45.09375 64.984375 
Q 41.3125 65.921875 37.59375 65.921875 
Q 27.828125 65.921875 22.671875 59.328125 
Q 17.53125 52.734375 16.796875 39.40625 
Q 19.671875 43.65625 24.015625 45.921875 
Q 28.375 48.1875 33.59375 48.1875 
Q 44.578125 48.1875 50.953125 41.515625 
Q 57.328125 34.859375 57.328125 23.390625 
Q 57.328125 12.15625 50.6875 5.359375 
Q 44.046875 -1.421875 33.015625 -1.421875 
Q 20.359375 -1.421875 13.671875 8.265625 
Q 6.984375 17.96875 6.984375 36.375 
Q 6.984375 53.65625 15.1875 63.9375 
Q 23.390625 74.21875 37.203125 74.21875 
Q 40.921875 74.21875 44.703125 73.484375 
Q 48.484375 72.75 52.59375 71.296875 
z
" id="DejaVuSans-54"/>
      </defs>
      <g transform="translate(7.2 248.627382)scale(0.2 -0.2)">
       <use xlink:href="#DejaVuSans-48"/>
       <use x="63.623047" xlink:href="#DejaVuSans-46"/>
       <use x="95.410156" xlink:href="#DejaVuSans-54"/>
      </g>
     </g>
    </g>
    <g id="ytick_4">
     <g id="line2d_4">
      <g>
       <use style="stroke:#000000;stroke-width:0.8;" x="46.00625" xlink:href="#mebe235fc70" y="164.196385"/>
      </g>
     </g>
     <g id="text_4">
      <!-- 0.8 -->
      <defs>
       <path d="M 31.78125 34.625 
Q 24.75 34.625 20.71875 30.859375 
Q 16.703125 27.09375 16.703125 20.515625 
Q 16.703125 13.921875 20.71875 10.15625 
Q 24.75 6.390625 31.78125 6.390625 
Q 38.8125 6.390625 42.859375 10.171875 
Q 46.921875 13.96875 46.921875 20.515625 
Q 46.921875 27.09375 42.890625 30.859375 
Q 38.875 34.625 31.78125 34.625 
z
M 21.921875 38.8125 
Q 15.578125 40.375 12.03125 44.71875 
Q 8.5 49.078125 8.5 55.328125 
Q 8.5 64.0625 14.71875 69.140625 
Q 20.953125 74.21875 31.78125 74.21875 
Q 42.671875 74.21875 48.875 69.140625 
Q 55.078125 64.0625 55.078125 55.328125 
Q 55.078125 49.078125 51.53125 44.71875 
Q 48 40.375 41.703125 38.8125 
Q 48.828125 37.15625 52.796875 32.3125 
Q 56.78125 27.484375 56.78125 20.515625 
Q 56.78125 9.90625 50.3125 4.234375 
Q 43.84375 -1.421875 31.78125 -1.421875 
Q 19.734375 -1.421875 13.25 4.234375 
Q 6.78125 9.90625 6.78125 20.515625 
Q 6.78125 27.484375 10.78125 32.3125 
Q 14.796875 37.15625 21.921875 38.8125 
z
M 18.3125 54.390625 
Q 18.3125 48.734375 21.84375 45.5625 
Q 25.390625 42.390625 31.78125 42.390625 
Q 38.140625 42.390625 41.71875 45.5625 
Q 45.3125 48.734375 45.3125 54.390625 
Q 45.3125 60.0625 41.71875 63.234375 
Q 38.140625 66.40625 31.78125 66.40625 
Q 25.390625 66.40625 21.84375 63.234375 
Q 18.3125 60.0625 18.3125 54.390625 
z
" id="DejaVuSans-56"/>
      </defs>
      <g transform="translate(7.2 171.794823)scale(0.2 -0.2)">
       <use xlink:href="#DejaVuSans-48"/>
       <use x="63.623047" xlink:href="#DejaVuSans-46"/>
       <use x="95.410156" xlink:href="#DejaVuSans-56"/>
      </g>
     </g>
    </g>
    <g id="ytick_5">
     <g id="line2d_5">
      <g>
       <use style="stroke:#000000;stroke-width:0.8;" x="46.00625" xlink:href="#mebe235fc70" y="87.363826"/>
      </g>
     </g>
     <g id="text_5">
      <!-- 1.0 -->
      <defs>
       <path d="M 12.40625 8.296875 
L 28.515625 8.296875 
L 28.515625 63.921875 
L 10.984375 60.40625 
L 10.984375 69.390625 
L 28.421875 72.90625 
L 38.28125 72.90625 
L 38.28125 8.296875 
L 54.390625 8.296875 
L 54.390625 0 
L 12.40625 0 
z
" id="DejaVuSans-49"/>
      </defs>
      <g transform="translate(7.2 94.962264)scale(0.2 -0.2)">
       <use xlink:href="#DejaVuSans-49"/>
       <use x="63.623047" xlink:href="#DejaVuSans-46"/>
       <use x="95.410156" xlink:href="#DejaVuSans-48"/>
      </g>
     </g>
    </g>
   </g>
   <g id="line2d_6">
    <path clip-path="url(#pf4a1d3a398)" d="M 203.74125 387.010807 
L 203.74125 92.357943 
" style="fill:none;stroke:#848484;stroke-linecap:square;stroke-width:1.5;"/>
   </g>
   <g id="line2d_7">
    <path clip-path="url(#pf4a1d3a398)" d="M 203.74125 342.06376 
L 203.74125 226.046596 
" style="fill:none;stroke:#848484;stroke-linecap:square;stroke-width:4.5;"/>
   </g>
   <g id="patch_3">
    <path d="M 46.00625 443.134375 
L 46.00625 36.234375 
" style="fill:none;stroke:#000000;stroke-linecap:square;stroke-linejoin:miter;stroke-width:0.8;"/>
   </g>
   <g id="patch_4">
    <path d="M 361.47625 443.134375 
L 361.47625 36.234375 
" style="fill:none;stroke:#000000;stroke-linecap:square;stroke-linejoin:miter;stroke-width:0.8;"/>
   </g>
   <g id="patch_5">
    <path d="M 46.00625 443.134375 
L 361.47625 443.134375 
" style="fill:none;stroke:#000000;stroke-linecap:square;stroke-linejoin:miter;stroke-width:0.8;"/>
   </g>
   <g id="patch_6">
    <path d="M 46.00625 36.234375 
L 361.47625 36.234375 
" style="fill:none;stroke:#000000;stroke-linecap:square;stroke-linejoin:miter;stroke-width:0.8;"/>
   </g>
   <g id="PathCollection_1">
    <defs>
     <path d="M 0 1.5 
C 0.397805 1.5 0.77937 1.341951 1.06066 1.06066 
C 1.341951 0.77937 1.5 0.397805 1.5 0 
C 1.5 -0.397805 1.341951 -0.77937 1.06066 -1.06066 
C 0.77937 -1.341951 0.397805 -1.5 0 -1.5 
C -0.397805 -1.5 -0.77937 -1.341951 -1.06066 -1.06066 
C -1.341951 -0.77937 -1.5 -0.397805 -1.5 0 
C -1.5 0.397805 -1.341951 0.77937 -1.06066 1.06066 
C -0.77937 1.341951 -0.397805 1.5 0 1.5 
z
" id="m93064604c1" style="stroke:#848484;"/>
    </defs>
    <g clip-path="url(#pf4a1d3a398)">
     <use style="fill:#ffffff;stroke:#848484;" x="203.74125" xlink:href="#m93064604c1" y="290.778027"/>
    </g>
   </g>
   <g id="text_6">
    <!-- Permittivity (imaginary) -->
    <defs>
     <path d="M 19.671875 64.796875 
L 19.671875 37.40625 
L 32.078125 37.40625 
Q 38.96875 37.40625 42.71875 40.96875 
Q 46.484375 44.53125 46.484375 51.125 
Q 46.484375 57.671875 42.71875 61.234375 
Q 38.96875 64.796875 32.078125 64.796875 
z
M 9.8125 72.90625 
L 32.078125 72.90625 
Q 44.34375 72.90625 50.609375 67.359375 
Q 56.890625 61.8125 56.890625 51.125 
Q 56.890625 40.328125 50.609375 34.8125 
Q 44.34375 29.296875 32.078125 29.296875 
L 19.671875 29.296875 
L 19.671875 0 
L 9.8125 0 
z
" id="DejaVuSans-80"/>
     <path d="M 56.203125 29.59375 
L 56.203125 25.203125 
L 14.890625 25.203125 
Q 15.484375 15.921875 20.484375 11.0625 
Q 25.484375 6.203125 34.421875 6.203125 
Q 39.59375 6.203125 44.453125 7.46875 
Q 49.3125 8.734375 54.109375 11.28125 
L 54.109375 2.78125 
Q 49.265625 0.734375 44.1875 -0.34375 
Q 39.109375 -1.421875 33.890625 -1.421875 
Q 20.796875 -1.421875 13.15625 6.1875 
Q 5.515625 13.8125 5.515625 26.8125 
Q 5.515625 40.234375 12.765625 48.109375 
Q 20.015625 56 32.328125 56 
Q 43.359375 56 49.78125 48.890625 
Q 56.203125 41.796875 56.203125 29.59375 
z
M 47.21875 32.234375 
Q 47.125 39.59375 43.09375 43.984375 
Q 39.0625 48.390625 32.421875 48.390625 
Q 24.90625 48.390625 20.390625 44.140625 
Q 15.875 39.890625 15.1875 32.171875 
z
" id="DejaVuSans-101"/>
     <path d="M 41.109375 46.296875 
Q 39.59375 47.171875 37.8125 47.578125 
Q 36.03125 48 33.890625 48 
Q 26.265625 48 22.1875 43.046875 
Q 18.109375 38.09375 18.109375 28.8125 
L 18.109375 0 
L 9.078125 0 
L 9.078125 54.6875 
L 18.109375 54.6875 
L 18.109375 46.1875 
Q 20.953125 51.171875 25.484375 53.578125 
Q 30.03125 56 36.53125 56 
Q 37.453125 56 38.578125 55.875 
Q 39.703125 55.765625 41.0625 55.515625 
z
" id="DejaVuSans-114"/>
     <path d="M 52 44.1875 
Q 55.375 50.25 60.0625 53.125 
Q 64.75 56 71.09375 56 
Q 79.640625 56 84.28125 50.015625 
Q 88.921875 44.046875 88.921875 33.015625 
L 88.921875 0 
L 79.890625 0 
L 79.890625 32.71875 
Q 79.890625 40.578125 77.09375 44.375 
Q 74.3125 48.1875 68.609375 48.1875 
Q 61.625 48.1875 57.5625 43.546875 
Q 53.515625 38.921875 53.515625 30.90625 
L 53.515625 0 
L 44.484375 0 
L 44.484375 32.71875 
Q 44.484375 40.625 41.703125 44.40625 
Q 38.921875 48.1875 33.109375 48.1875 
Q 26.21875 48.1875 22.15625 43.53125 
Q 18.109375 38.875 18.109375 30.90625 
L 18.109375 0 
L 9.078125 0 
L 9.078125 54.6875 
L 18.109375 54.6875 
L 18.109375 46.1875 
Q 21.1875 51.21875 25.484375 53.609375 
Q 29.78125 56 35.6875 56 
Q 41.65625 56 45.828125 52.96875 
Q 50 49.953125 52 44.1875 
z
" id="DejaVuSans-109"/>
     <path d="M 9.421875 54.6875 
L 18.40625 54.6875 
L 18.40625 0 
L 9.421875 0 
z
M 9.421875 75.984375 
L 18.40625 75.984375 
L 18.40625 64.59375 
L 9.421875 64.59375 
z
" id="DejaVuSans-105"/>
     <path d="M 18.3125 70.21875 
L 18.3125 54.6875 
L 36.8125 54.6875 
L 36.8125 47.703125 
L 18.3125 47.703125 
L 18.3125 18.015625 
Q 18.3125 11.328125 20.140625 9.421875 
Q 21.96875 7.515625 27.59375 7.515625 
L 36.8125 7.515625 
L 36.8125 0 
L 27.59375 0 
Q 17.1875 0 13.234375 3.875 
Q 9.28125 7.765625 9.28125 18.015625 
L 9.28125 47.703125 
L 2.6875 47.703125 
L 2.6875 54.6875 
L 9.28125 54.6875 
L 9.28125 70.21875 
z
" id="DejaVuSans-116"/>
     <path d="M 2.984375 54.6875 
L 12.5 54.6875 
L 29.59375 8.796875 
L 46.6875 54.6875 
L 56.203125 54.6875 
L 35.6875 0 
L 23.484375 0 
z
" id="DejaVuSans-118"/>
     <path d="M 32.171875 -5.078125 
Q 28.375 -14.84375 24.75 -17.8125 
Q 21.140625 -20.796875 15.09375 -20.796875 
L 7.90625 -20.796875 
L 7.90625 -13.28125 
L 13.1875 -13.28125 
Q 16.890625 -13.28125 18.9375 -11.515625 
Q 21 -9.765625 23.484375 -3.21875 
L 25.09375 0.875 
L 2.984375 54.6875 
L 12.5 54.6875 
L 29.59375 11.921875 
L 46.6875 54.6875 
L 56.203125 54.6875 
z
" id="DejaVuSans-121"/>
     <path id="DejaVuSans-32"/>
     <path d="M 31 75.875 
Q 24.46875 64.65625 21.28125 53.65625 
Q 18.109375 42.671875 18.109375 31.390625 
Q 18.109375 20.125 21.3125 9.0625 
Q 24.515625 -2 31 -13.1875 
L 23.1875 -13.1875 
Q 15.875 -1.703125 12.234375 9.375 
Q 8.59375 20.453125 8.59375 31.390625 
Q 8.59375 42.28125 12.203125 53.3125 
Q 15.828125 64.359375 23.1875 75.875 
z
" id="DejaVuSans-40"/>
     <path d="M 34.28125 27.484375 
Q 23.390625 27.484375 19.1875 25 
Q 14.984375 22.515625 14.984375 16.5 
Q 14.984375 11.71875 18.140625 8.90625 
Q 21.296875 6.109375 26.703125 6.109375 
Q 34.1875 6.109375 38.703125 11.40625 
Q 43.21875 16.703125 43.21875 25.484375 
L 43.21875 27.484375 
z
M 52.203125 31.203125 
L 52.203125 0 
L 43.21875 0 
L 43.21875 8.296875 
Q 40.140625 3.328125 35.546875 0.953125 
Q 30.953125 -1.421875 24.3125 -1.421875 
Q 15.921875 -1.421875 10.953125 3.296875 
Q 6 8.015625 6 15.921875 
Q 6 25.140625 12.171875 29.828125 
Q 18.359375 34.515625 30.609375 34.515625 
L 43.21875 34.515625 
L 43.21875 35.40625 
Q 43.21875 41.609375 39.140625 45 
Q 35.0625 48.390625 27.6875 48.390625 
Q 23 48.390625 18.546875 47.265625 
Q 14.109375 46.140625 10.015625 43.890625 
L 10.015625 52.203125 
Q 14.9375 54.109375 19.578125 55.046875 
Q 24.21875 56 28.609375 56 
Q 40.484375 56 46.34375 49.84375 
Q 52.203125 43.703125 52.203125 31.203125 
z
" id="DejaVuSans-97"/>
     <path d="M 45.40625 27.984375 
Q 45.40625 37.75 41.375 43.109375 
Q 37.359375 48.484375 30.078125 48.484375 
Q 22.859375 48.484375 18.828125 43.109375 
Q 14.796875 37.75 14.796875 27.984375 
Q 14.796875 18.265625 18.828125 12.890625 
Q 22.859375 7.515625 30.078125 7.515625 
Q 37.359375 7.515625 41.375 12.890625 
Q 45.40625 18.265625 45.40625 27.984375 
z
M 54.390625 6.78125 
Q 54.390625 -7.171875 48.1875 -13.984375 
Q 42 -20.796875 29.203125 -20.796875 
Q 24.46875 -20.796875 20.265625 -20.09375 
Q 16.0625 -19.390625 12.109375 -17.921875 
L 12.109375 -9.1875 
Q 16.0625 -11.328125 19.921875 -12.34375 
Q 23.78125 -13.375 27.78125 -13.375 
Q 36.625 -13.375 41.015625 -8.765625 
Q 45.40625 -4.15625 45.40625 5.171875 
L 45.40625 9.625 
Q 42.625 4.78125 38.28125 2.390625 
Q 33.9375 0 27.875 0 
Q 17.828125 0 11.671875 7.65625 
Q 5.515625 15.328125 5.515625 27.984375 
Q 5.515625 40.671875 11.671875 48.328125 
Q 17.828125 56 27.875 56 
Q 33.9375 56 38.28125 53.609375 
Q 42.625 51.21875 45.40625 46.390625 
L 45.40625 54.6875 
L 54.390625 54.6875 
z
" id="DejaVuSans-103"/>
     <path d="M 54.890625 33.015625 
L 54.890625 0 
L 45.90625 0 
L 45.90625 32.71875 
Q 45.90625 40.484375 42.875 44.328125 
Q 39.84375 48.1875 33.796875 48.1875 
Q 26.515625 48.1875 22.3125 43.546875 
Q 18.109375 38.921875 18.109375 30.90625 
L 18.109375 0 
L 9.078125 0 
L 9.078125 54.6875 
L 18.109375 54.6875 
L 18.109375 46.1875 
Q 21.34375 51.125 25.703125 53.5625 
Q 30.078125 56 35.796875 56 
Q 45.21875 56 50.046875 50.171875 
Q 54.890625 44.34375 54.890625 33.015625 
z
" id="DejaVuSans-110"/>
     <path d="M 8.015625 75.875 
L 15.828125 75.875 
Q 23.140625 64.359375 26.78125 53.3125 
Q 30.421875 42.28125 30.421875 31.390625 
Q 30.421875 20.453125 26.78125 9.375 
Q 23.140625 -1.703125 15.828125 -13.1875 
L 8.015625 -13.1875 
Q 14.5 -2 17.703125 9.0625 
Q 20.90625 20.125 20.90625 31.390625 
Q 20.90625 42.671875 17.703125 53.65625 
Q 14.5 64.65625 8.015625 75.875 
z
" id="DejaVuSans-41"/>
    </defs>
    <g transform="translate(24.924844 29.995313)scale(0.3 -0.3)">
     <use xlink:href="#DejaVuSans-80"/>
     <use x="60.255859" xlink:href="#DejaVuSans-101"/>
     <use x="121.779297" xlink:href="#DejaVuSans-114"/>
     <use x="162.876953" xlink:href="#DejaVuSans-109"/>
     <use x="260.289062" xlink:href="#DejaVuSans-105"/>
     <use x="288.072266" xlink:href="#DejaVuSans-116"/>
     <use x="327.28125" xlink:href="#DejaVuSans-116"/>
     <use x="366.490234" xlink:href="#DejaVuSans-105"/>
     <use x="394.273438" xlink:href="#DejaVuSans-118"/>
     <use x="453.453125" xlink:href="#DejaVuSans-105"/>
     <use x="481.236328" xlink:href="#DejaVuSans-116"/>
     <use x="520.445312" xlink:href="#DejaVuSans-121"/>
     <use x="579.625" xlink:href="#DejaVuSans-32"/>
     <use x="611.412109" xlink:href="#DejaVuSans-40"/>
     <use x="650.425781" xlink:href="#DejaVuSans-105"/>
     <use x="678.208984" xlink:href="#DejaVuSans-109"/>
     <use x="775.621094" xlink:href="#DejaVuSans-97"/>
     <use x="836.900391" xlink:href="#DejaVuSans-103"/>
     <use x="900.376953" xlink:href="#DejaVuSans-105"/>
     <use x="928.160156" xlink:href="#DejaVuSans-110"/>
     <use x="991.539062" xlink:href="#DejaVuSans-97"/>
     <use x="1052.818359" xlink:href="#DejaVuSans-114"/>
     <use x="1093.931641" xlink:href="#DejaVuSans-121"/>
     <use x="1153.111328" xlink:href="#DejaVuSans-41"/>
    </g>
   </g>
  </g>
 </g>
 <defs>
  <clipPath id="pf4a1d3a398">
   <rect height="406.9" width="315.47" x="46.00625" y="36.234375"/>
  </clipPath>
 </defs>
</svg>
