<?xml version="1.0" encoding="utf-8" standalone="no"?>
<!DOCTYPE svg PUBLIC "-//W3C//DTD SVG 1.1//EN"
  "http://www.w3.org/Graphics/SVG/1.1/DTD/svg11.dtd">
<!-- Created with matplotlib (https://matplotlib.org/) -->
<svg height="453.834375pt" version="1.1" viewBox="0 0 375.01125 453.834375" width="375.01125pt" xmlns="http://www.w3.org/2000/svg" xmlns:xlink="http://www.w3.org/1999/xlink">
 <defs>
  <style type="text/css">
*{stroke-linecap:butt;stroke-linejoin:round;}
  </style>
 </defs>
 <g id="figure_1">
  <g id="patch_1">
   <path d="M 0 453.834375 
L 375.01125 453.834375 
L 375.01125 0 
L 0 0 
z
" style="fill:#ffffff;"/>
  </g>
  <g id="axes_1">
   <g id="patch_2">
    <path d="M 58.73125 443.134375 
L 367.81125 443.134375 
L 367.81125 36.234375 
L 58.73125 36.234375 
z
" style="fill:#ffffff;"/>
   </g>
   <g id="PolyCollection_1">
    <defs>
     <path d="M 213.759035 -29.195455 
L 212.783465 -29.195455 
L 212.414216 -32.93191 
L 211.840659 -36.668365 
L 210.994699 -40.404821 
L 209.803297 -44.141276 
L 208.190444 -47.877732 
L 206.076824 -51.614187 
L 203.378659 -55.350643 
L 200.01004 -59.087098 
L 195.893784 -62.823554 
L 190.982626 -66.560009 
L 185.285744 -70.296465 
L 178.888912 -74.03292 
L 171.954962 -77.769376 
L 164.697674 -81.505831 
L 157.334674 -85.242287 
L 150.036833 -88.978742 
L 142.895589 -92.715197 
L 135.922806 -96.451653 
L 129.083439 -100.188108 
L 122.347395 -103.924564 
L 115.740242 -107.661019 
L 109.375046 -111.397475 
L 103.456142 -115.13393 
L 98.254985 -118.870386 
L 94.064689 -122.606841 
L 91.143254 -126.343297 
L 89.657303 -130.079752 
L 89.63925 -133.816208 
L 90.970042 -137.552663 
L 93.395068 -141.289118 
L 96.572011 -145.025574 
L 100.138819 -148.762029 
L 103.782242 -152.498485 
L 107.28665 -156.23494 
L 110.550144 -159.971396 
L 113.567234 -163.707851 
L 116.389139 -167.444307 
L 119.079267 -171.180762 
L 121.680402 -174.917218 
L 124.203195 -178.653673 
L 126.636077 -182.390129 
L 128.968552 -186.126584 
L 131.215572 -189.863039 
L 133.431285 -193.599495 
L 135.705296 -197.33595 
L 138.141957 -201.072406 
L 140.830261 -204.808861 
L 143.815955 -208.545317 
L 147.086591 -212.281772 
L 150.574807 -216.018228 
L 154.177556 -219.754683 
L 157.78296 -223.491139 
L 161.294538 -227.227594 
L 164.645355 -230.96405 
L 167.800122 -234.700505 
L 170.74855 -238.436961 
L 173.495791 -242.173416 
L 176.055034 -245.909871 
L 178.44428 -249.646327 
L 180.686077 -253.382782 
L 182.807339 -257.119238 
L 184.836916 -260.855693 
L 186.800659 -264.592149 
L 188.715957 -268.328604 
L 190.58861 -272.06506 
L 192.413884 -275.801515 
L 194.181316 -279.537971 
L 195.880638 -283.274426 
L 197.50564 -287.010882 
L 199.054124 -290.747337 
L 200.524628 -294.483792 
L 201.912576 -298.220248 
L 203.208625 -301.956703 
L 204.400387 -305.693159 
L 205.476446 -309.429614 
L 206.43032 -313.16607 
L 207.262308 -316.902525 
L 207.978685 -320.638981 
L 208.589217 -324.375436 
L 209.104694 -328.111892 
L 209.535749 -331.848347 
L 209.893218 -335.584803 
L 210.189309 -339.321258 
L 210.438428 -343.057713 
L 210.656775 -346.794169 
L 210.860596 -350.530624 
L 211.063702 -354.26708 
L 211.275299 -358.003535 
L 211.498924 -361.739991 
L 211.732744 -365.476446 
L 211.970856 -369.212902 
L 212.205005 -372.949357 
L 212.426254 -376.685813 
L 212.626408 -380.422268 
L 212.799155 -384.158724 
L 212.940882 -387.895179 
L 213.051019 -391.631635 
L 213.131825 -395.36809 
L 213.187644 -399.104545 
L 213.354856 -399.104545 
L 213.354856 -399.104545 
L 213.410675 -395.36809 
L 213.491481 -391.631635 
L 213.601618 -387.895179 
L 213.743345 -384.158724 
L 213.916092 -380.422268 
L 214.116246 -376.685813 
L 214.337495 -372.949357 
L 214.571644 -369.212902 
L 214.809756 -365.476446 
L 215.043576 -361.739991 
L 215.267201 -358.003535 
L 215.478798 -354.26708 
L 215.681904 -350.530624 
L 215.885725 -346.794169 
L 216.104072 -343.057713 
L 216.353191 -339.321258 
L 216.649282 -335.584803 
L 217.006751 -331.848347 
L 217.437806 -328.111892 
L 217.953283 -324.375436 
L 218.563815 -320.638981 
L 219.280192 -316.902525 
L 220.11218 -313.16607 
L 221.066054 -309.429614 
L 222.142113 -305.693159 
L 223.333875 -301.956703 
L 224.629924 -298.220248 
L 226.017872 -294.483792 
L 227.488376 -290.747337 
L 229.03686 -287.010882 
L 230.661862 -283.274426 
L 232.361184 -279.537971 
L 234.128616 -275.801515 
L 235.95389 -272.06506 
L 237.826543 -268.328604 
L 239.741841 -264.592149 
L 241.705584 -260.855693 
L 243.735161 -257.119238 
L 245.856423 -253.382782 
L 248.09822 -249.646327 
L 250.487466 -245.909871 
L 253.046709 -242.173416 
L 255.79395 -238.436961 
L 258.742378 -234.700505 
L 261.897145 -230.96405 
L 265.247962 -227.227594 
L 268.75954 -223.491139 
L 272.364944 -219.754683 
L 275.967693 -216.018228 
L 279.455909 -212.281772 
L 282.726545 -208.545317 
L 285.712239 -204.808861 
L 288.400543 -201.072406 
L 290.837204 -197.33595 
L 293.111215 -193.599495 
L 295.326928 -189.863039 
L 297.573948 -186.126584 
L 299.906423 -182.390129 
L 302.339305 -178.653673 
L 304.862098 -174.917218 
L 307.463233 -171.180762 
L 310.153361 -167.444307 
L 312.975266 -163.707851 
L 315.992356 -159.971396 
L 319.25585 -156.23494 
L 322.760258 -152.498485 
L 326.403681 -148.762029 
L 329.970489 -145.025574 
L 333.147432 -141.289118 
L 335.572458 -137.552663 
L 336.90325 -133.816208 
L 336.885197 -130.079752 
L 335.399246 -126.343297 
L 332.477811 -122.606841 
L 328.287515 -118.870386 
L 323.086358 -115.13393 
L 317.167454 -111.397475 
L 310.802258 -107.661019 
L 304.195105 -103.924564 
L 297.459061 -100.188108 
L 290.619694 -96.451653 
L 283.646911 -92.715197 
L 276.505667 -88.978742 
L 269.207826 -85.242287 
L 261.844826 -81.505831 
L 254.587538 -77.769376 
L 247.653588 -74.03292 
L 241.256756 -70.296465 
L 235.559874 -66.560009 
L 230.648716 -62.823554 
L 226.53246 -59.087098 
L 223.163841 -55.350643 
L 220.465676 -51.614187 
L 218.352056 -47.877732 
L 216.739203 -44.141276 
L 215.547801 -40.404821 
L 214.701841 -36.668365 
L 214.128284 -32.93191 
L 213.759035 -29.195455 
z
" id="m96b59e2a31" style="stroke:#4c4c4c;stroke-width:1.5;"/>
    </defs>
    <g clip-path="url(#pa364f5acd4)">
     <use style="fill:#dfc120;stroke:#4c4c4c;stroke-width:1.5;" x="0" xlink:href="#m96b59e2a31" y="453.834375"/>
    </g>
   </g>
   <g id="matplotlib.axis_1"/>
   <g id="matplotlib.axis_2">
    <g id="ytick_1">
     <g id="line2d_1">
      <defs>
       <path d="M 0 0 
L -3.5 0 
" id="m9f6d94423b" style="stroke:#000000;stroke-width:0.8;"/>
      </defs>
      <g>
       <use style="stroke:#000000;stroke-width:0.8;" x="58.73125" xlink:href="#m9f6d94423b" y="411.743378"/>
      </g>
     </g>
     <g id="text_1">
      <!-- 2.25 -->
      <defs>
       <path d="M 19.1875 8.296875 
L 53.609375 8.296875 
L 53.609375 0 
L 7.328125 0 
L 7.328125 8.296875 
Q 12.9375 14.109375 22.625 23.890625 
Q 32.328125 33.6875 34.8125 36.53125 
Q 39.546875 41.84375 41.421875 45.53125 
Q 43.3125 49.21875 43.3125 52.78125 
Q 43.3125 58.59375 39.234375 62.25 
Q 35.15625 65.921875 28.609375 65.921875 
Q 23.96875 65.921875 18.8125 64.3125 
Q 13.671875 62.703125 7.8125 59.421875 
L 7.8125 69.390625 
Q 13.765625 71.78125 18.9375 73 
Q 24.125 74.21875 28.421875 74.21875 
Q 39.75 74.21875 46.484375 68.546875 
Q 53.21875 62.890625 53.21875 53.421875 
Q 53.21875 48.921875 51.53125 44.890625 
Q 49.859375 40.875 45.40625 35.40625 
Q 44.1875 33.984375 37.640625 27.21875 
Q 31.109375 20.453125 19.1875 8.296875 
z
" id="DejaVuSans-50"/>
       <path d="M 10.6875 12.40625 
L 21 12.40625 
L 21 0 
L 10.6875 0 
z
" id="DejaVuSans-46"/>
       <path d="M 10.796875 72.90625 
L 49.515625 72.90625 
L 49.515625 64.59375 
L 19.828125 64.59375 
L 19.828125 46.734375 
Q 21.96875 47.46875 24.109375 47.828125 
Q 26.265625 48.1875 28.421875 48.1875 
Q 40.625 48.1875 47.75 41.5 
Q 54.890625 34.8125 54.890625 23.390625 
Q 54.890625 11.625 47.5625 5.09375 
Q 40.234375 -1.421875 26.90625 -1.421875 
Q 22.3125 -1.421875 17.546875 -0.640625 
Q 12.796875 0.140625 7.71875 1.703125 
L 7.71875 11.625 
Q 12.109375 9.234375 16.796875 8.0625 
Q 21.484375 6.890625 26.703125 6.890625 
Q 35.15625 6.890625 40.078125 11.328125 
Q 45.015625 15.765625 45.015625 23.390625 
Q 45.015625 31 40.078125 35.4375 
Q 35.15625 39.890625 26.703125 39.890625 
Q 22.75 39.890625 18.8125 39.015625 
Q 14.890625 38.140625 10.796875 36.28125 
z
" id="DejaVuSans-53"/>
      </defs>
      <g transform="translate(7.2 419.341815)scale(0.2 -0.2)">
       <use xlink:href="#DejaVuSans-50"/>
       <use x="63.623047" xlink:href="#DejaVuSans-46"/>
       <use x="95.410156" xlink:href="#DejaVuSans-50"/>
       <use x="159.033203" xlink:href="#DejaVuSans-53"/>
      </g>
     </g>
    </g>
    <g id="ytick_2">
     <g id="line2d_2">
      <g>
       <use style="stroke:#000000;stroke-width:0.8;" x="58.73125" xlink:href="#m9f6d94423b" y="365.934272"/>
      </g>
     </g>
     <g id="text_2">
      <!-- 2.50 -->
      <defs>
       <path d="M 31.78125 66.40625 
Q 24.171875 66.40625 20.328125 58.90625 
Q 16.5 51.421875 16.5 36.375 
Q 16.5 21.390625 20.328125 13.890625 
Q 24.171875 6.390625 31.78125 6.390625 
Q 39.453125 6.390625 43.28125 13.890625 
Q 47.125 21.390625 47.125 36.375 
Q 47.125 51.421875 43.28125 58.90625 
Q 39.453125 66.40625 31.78125 66.40625 
z
M 31.78125 74.21875 
Q 44.046875 74.21875 50.515625 64.515625 
Q 56.984375 54.828125 56.984375 36.375 
Q 56.984375 17.96875 50.515625 8.265625 
Q 44.046875 -1.421875 31.78125 -1.421875 
Q 19.53125 -1.421875 13.0625 8.265625 
Q 6.59375 17.96875 6.59375 36.375 
Q 6.59375 54.828125 13.0625 64.515625 
Q 19.53125 74.21875 31.78125 74.21875 
z
" id="DejaVuSans-48"/>
      </defs>
      <g transform="translate(7.2 373.532709)scale(0.2 -0.2)">
       <use xlink:href="#DejaVuSans-50"/>
       <use x="63.623047" xlink:href="#DejaVuSans-46"/>
       <use x="95.410156" xlink:href="#DejaVuSans-53"/>
       <use x="159.033203" xlink:href="#DejaVuSans-48"/>
      </g>
     </g>
    </g>
    <g id="ytick_3">
     <g id="line2d_3">
      <g>
       <use style="stroke:#000000;stroke-width:0.8;" x="58.73125" xlink:href="#m9f6d94423b" y="320.125166"/>
      </g>
     </g>
     <g id="text_3">
      <!-- 2.75 -->
      <defs>
       <path d="M 8.203125 72.90625 
L 55.078125 72.90625 
L 55.078125 68.703125 
L 28.609375 0 
L 18.3125 0 
L 43.21875 64.59375 
L 8.203125 64.59375 
z
" id="DejaVuSans-55"/>
      </defs>
      <g transform="translate(7.2 327.723603)scale(0.2 -0.2)">
       <use xlink:href="#DejaVuSans-50"/>
       <use x="63.623047" xlink:href="#DejaVuSans-46"/>
       <use x="95.410156" xlink:href="#DejaVuSans-55"/>
       <use x="159.033203" xlink:href="#DejaVuSans-53"/>
      </g>
     </g>
    </g>
    <g id="ytick_4">
     <g id="line2d_4">
      <g>
       <use style="stroke:#000000;stroke-width:0.8;" x="58.73125" xlink:href="#m9f6d94423b" y="274.316059"/>
      </g>
     </g>
     <g id="text_4">
      <!-- 3.00 -->
      <defs>
       <path d="M 40.578125 39.3125 
Q 47.65625 37.796875 51.625 33 
Q 55.609375 28.21875 55.609375 21.1875 
Q 55.609375 10.40625 48.1875 4.484375 
Q 40.765625 -1.421875 27.09375 -1.421875 
Q 22.515625 -1.421875 17.65625 -0.515625 
Q 12.796875 0.390625 7.625 2.203125 
L 7.625 11.71875 
Q 11.71875 9.328125 16.59375 8.109375 
Q 21.484375 6.890625 26.8125 6.890625 
Q 36.078125 6.890625 40.9375 10.546875 
Q 45.796875 14.203125 45.796875 21.1875 
Q 45.796875 27.640625 41.28125 31.265625 
Q 36.765625 34.90625 28.71875 34.90625 
L 20.21875 34.90625 
L 20.21875 43.015625 
L 29.109375 43.015625 
Q 36.375 43.015625 40.234375 45.921875 
Q 44.09375 48.828125 44.09375 54.296875 
Q 44.09375 59.90625 40.109375 62.90625 
Q 36.140625 65.921875 28.71875 65.921875 
Q 24.65625 65.921875 20.015625 65.03125 
Q 15.375 64.15625 9.8125 62.3125 
L 9.8125 71.09375 
Q 15.4375 72.65625 20.34375 73.4375 
Q 25.25 74.21875 29.59375 74.21875 
Q 40.828125 74.21875 47.359375 69.109375 
Q 53.90625 64.015625 53.90625 55.328125 
Q 53.90625 49.265625 50.4375 45.09375 
Q 46.96875 40.921875 40.578125 39.3125 
z
" id="DejaVuSans-51"/>
      </defs>
      <g transform="translate(7.2 281.914497)scale(0.2 -0.2)">
       <use xlink:href="#DejaVuSans-51"/>
       <use x="63.623047" xlink:href="#DejaVuSans-46"/>
       <use x="95.410156" xlink:href="#DejaVuSans-48"/>
       <use x="159.033203" xlink:href="#DejaVuSans-48"/>
      </g>
     </g>
    </g>
    <g id="ytick_5">
     <g id="line2d_5">
      <g>
       <use style="stroke:#000000;stroke-width:0.8;" x="58.73125" xlink:href="#m9f6d94423b" y="228.506953"/>
      </g>
     </g>
     <g id="text_5">
      <!-- 3.25 -->
      <g transform="translate(7.2 236.105391)scale(0.2 -0.2)">
       <use xlink:href="#DejaVuSans-51"/>
       <use x="63.623047" xlink:href="#DejaVuSans-46"/>
       <use x="95.410156" xlink:href="#DejaVuSans-50"/>
       <use x="159.033203" xlink:href="#DejaVuSans-53"/>
      </g>
     </g>
    </g>
    <g id="ytick_6">
     <g id="line2d_6">
      <g>
       <use style="stroke:#000000;stroke-width:0.8;" x="58.73125" xlink:href="#m9f6d94423b" y="182.697847"/>
      </g>
     </g>
     <g id="text_6">
      <!-- 3.50 -->
      <g transform="translate(7.2 190.296284)scale(0.2 -0.2)">
       <use xlink:href="#DejaVuSans-51"/>
       <use x="63.623047" xlink:href="#DejaVuSans-46"/>
       <use x="95.410156" xlink:href="#DejaVuSans-53"/>
       <use x="159.033203" xlink:href="#DejaVuSans-48"/>
      </g>
     </g>
    </g>
    <g id="ytick_7">
     <g id="line2d_7">
      <g>
       <use style="stroke:#000000;stroke-width:0.8;" x="58.73125" xlink:href="#m9f6d94423b" y="136.888741"/>
      </g>
     </g>
     <g id="text_7">
      <!-- 3.75 -->
      <g transform="translate(7.2 144.487178)scale(0.2 -0.2)">
       <use xlink:href="#DejaVuSans-51"/>
       <use x="63.623047" xlink:href="#DejaVuSans-46"/>
       <use x="95.410156" xlink:href="#DejaVuSans-55"/>
       <use x="159.033203" xlink:href="#DejaVuSans-53"/>
      </g>
     </g>
    </g>
    <g id="ytick_8">
     <g id="line2d_8">
      <g>
       <use style="stroke:#000000;stroke-width:0.8;" x="58.73125" xlink:href="#m9f6d94423b" y="91.079634"/>
      </g>
     </g>
     <g id="text_8">
      <!-- 4.00 -->
      <defs>
       <path d="M 37.796875 64.3125 
L 12.890625 25.390625 
L 37.796875 25.390625 
z
M 35.203125 72.90625 
L 47.609375 72.90625 
L 47.609375 25.390625 
L 58.015625 25.390625 
L 58.015625 17.1875 
L 47.609375 17.1875 
L 47.609375 0 
L 37.796875 0 
L 37.796875 17.1875 
L 4.890625 17.1875 
L 4.890625 26.703125 
z
" id="DejaVuSans-52"/>
      </defs>
      <g transform="translate(7.2 98.678072)scale(0.2 -0.2)">
       <use xlink:href="#DejaVuSans-52"/>
       <use x="63.623047" xlink:href="#DejaVuSans-46"/>
       <use x="95.410156" xlink:href="#DejaVuSans-48"/>
       <use x="159.033203" xlink:href="#DejaVuSans-48"/>
      </g>
     </g>
    </g>
    <g id="ytick_9">
     <g id="line2d_9">
      <g>
       <use style="stroke:#000000;stroke-width:0.8;" x="58.73125" xlink:href="#m9f6d94423b" y="45.270528"/>
      </g>
     </g>
     <g id="text_9">
      <!-- 4.25 -->
      <g transform="translate(7.2 52.868966)scale(0.2 -0.2)">
       <use xlink:href="#DejaVuSans-52"/>
       <use x="63.623047" xlink:href="#DejaVuSans-46"/>
       <use x="95.410156" xlink:href="#DejaVuSans-50"/>
       <use x="159.033203" xlink:href="#DejaVuSans-53"/>
      </g>
     </g>
    </g>
   </g>
   <g id="line2d_10">
    <path clip-path="url(#pa364f5acd4)" d="M 213.27125 395.2521 
L 213.27125 141.286415 
" style="fill:none;stroke:#4c4c4c;stroke-linecap:square;stroke-width:1.5;"/>
   </g>
   <g id="line2d_11">
    <path clip-path="url(#pa364f5acd4)" d="M 213.27125 331.394206 
L 213.27125 254.205862 
" style="fill:none;stroke:#4c4c4c;stroke-linecap:square;stroke-width:4.5;"/>
   </g>
   <g id="patch_3">
    <path d="M 58.73125 443.134375 
L 58.73125 36.234375 
" style="fill:none;stroke:#000000;stroke-linecap:square;stroke-linejoin:miter;stroke-width:0.8;"/>
   </g>
   <g id="patch_4">
    <path d="M 367.81125 443.134375 
L 367.81125 36.234375 
" style="fill:none;stroke:#000000;stroke-linecap:square;stroke-linejoin:miter;stroke-width:0.8;"/>
   </g>
   <g id="patch_5">
    <path d="M 58.73125 443.134375 
L 367.81125 443.134375 
" style="fill:none;stroke:#000000;stroke-linecap:square;stroke-linejoin:miter;stroke-width:0.8;"/>
   </g>
   <g id="patch_6">
    <path d="M 58.73125 36.234375 
L 367.81125 36.234375 
" style="fill:none;stroke:#000000;stroke-linecap:square;stroke-linejoin:miter;stroke-width:0.8;"/>
   </g>
   <g id="PathCollection_1">
    <defs>
     <path d="M 0 1.5 
C 0.397805 1.5 0.77937 1.341951 1.06066 1.06066 
C 1.341951 0.77937 1.5 0.397805 1.5 0 
C 1.5 -0.397805 1.341951 -0.77937 1.06066 -1.06066 
C 0.77937 -1.341951 0.397805 -1.5 0 -1.5 
C -0.397805 -1.5 -0.77937 -1.341951 -1.06066 -1.06066 
C -1.341951 -0.77937 -1.5 -0.397805 -1.5 0 
C -1.5 0.397805 -1.341951 0.77937 -1.06066 1.06066 
C -0.77937 1.341951 -0.397805 1.5 0 1.5 
z
" id="mc1b8f0a878" style="stroke:#4c4c4c;"/>
    </defs>
    <g clip-path="url(#pa364f5acd4)">
     <use style="fill:#ffffff;stroke:#4c4c4c;" x="213.27125" xlink:href="#mc1b8f0a878" y="299.694304"/>
    </g>
   </g>
   <g id="text_10">
    <!-- Permittivity (real) -->
    <defs>
     <path d="M 19.671875 64.796875 
L 19.671875 37.40625 
L 32.078125 37.40625 
Q 38.96875 37.40625 42.71875 40.96875 
Q 46.484375 44.53125 46.484375 51.125 
Q 46.484375 57.671875 42.71875 61.234375 
Q 38.96875 64.796875 32.078125 64.796875 
z
M 9.8125 72.90625 
L 32.078125 72.90625 
Q 44.34375 72.90625 50.609375 67.359375 
Q 56.890625 61.8125 56.890625 51.125 
Q 56.890625 40.328125 50.609375 34.8125 
Q 44.34375 29.296875 32.078125 29.296875 
L 19.671875 29.296875 
L 19.671875 0 
L 9.8125 0 
z
" id="DejaVuSans-80"/>
     <path d="M 56.203125 29.59375 
L 56.203125 25.203125 
L 14.890625 25.203125 
Q 15.484375 15.921875 20.484375 11.0625 
Q 25.484375 6.203125 34.421875 6.203125 
Q 39.59375 6.203125 44.453125 7.46875 
Q 49.3125 8.734375 54.109375 11.28125 
L 54.109375 2.78125 
Q 49.265625 0.734375 44.1875 -0.34375 
Q 39.109375 -1.421875 33.890625 -1.421875 
Q 20.796875 -1.421875 13.15625 6.1875 
Q 5.515625 13.8125 5.515625 26.8125 
Q 5.515625 40.234375 12.765625 48.109375 
Q 20.015625 56 32.328125 56 
Q 43.359375 56 49.78125 48.890625 
Q 56.203125 41.796875 56.203125 29.59375 
z
M 47.21875 32.234375 
Q 47.125 39.59375 43.09375 43.984375 
Q 39.0625 48.390625 32.421875 48.390625 
Q 24.90625 48.390625 20.390625 44.140625 
Q 15.875 39.890625 15.1875 32.171875 
z
" id="DejaVuSans-101"/>
     <path d="M 41.109375 46.296875 
Q 39.59375 47.171875 37.8125 47.578125 
Q 36.03125 48 33.890625 48 
Q 26.265625 48 22.1875 43.046875 
Q 18.109375 38.09375 18.109375 28.8125 
L 18.109375 0 
L 9.078125 0 
L 9.078125 54.6875 
L 18.109375 54.6875 
L 18.109375 46.1875 
Q 20.953125 51.171875 25.484375 53.578125 
Q 30.03125 56 36.53125 56 
Q 37.453125 56 38.578125 55.875 
Q 39.703125 55.765625 41.0625 55.515625 
z
" id="DejaVuSans-114"/>
     <path d="M 52 44.1875 
Q 55.375 50.25 60.0625 53.125 
Q 64.75 56 71.09375 56 
Q 79.640625 56 84.28125 50.015625 
Q 88.921875 44.046875 88.921875 33.015625 
L 88.921875 0 
L 79.890625 0 
L 79.890625 32.71875 
Q 79.890625 40.578125 77.09375 44.375 
Q 74.3125 48.1875 68.609375 48.1875 
Q 61.625 48.1875 57.5625 43.546875 
Q 53.515625 38.921875 53.515625 30.90625 
L 53.515625 0 
L 44.484375 0 
L 44.484375 32.71875 
Q 44.484375 40.625 41.703125 44.40625 
Q 38.921875 48.1875 33.109375 48.1875 
Q 26.21875 48.1875 22.15625 43.53125 
Q 18.109375 38.875 18.109375 30.90625 
L 18.109375 0 
L 9.078125 0 
L 9.078125 54.6875 
L 18.109375 54.6875 
L 18.109375 46.1875 
Q 21.1875 51.21875 25.484375 53.609375 
Q 29.78125 56 35.6875 56 
Q 41.65625 56 45.828125 52.96875 
Q 50 49.953125 52 44.1875 
z
" id="DejaVuSans-109"/>
     <path d="M 9.421875 54.6875 
L 18.40625 54.6875 
L 18.40625 0 
L 9.421875 0 
z
M 9.421875 75.984375 
L 18.40625 75.984375 
L 18.40625 64.59375 
L 9.421875 64.59375 
z
" id="DejaVuSans-105"/>
     <path d="M 18.3125 70.21875 
L 18.3125 54.6875 
L 36.8125 54.6875 
L 36.8125 47.703125 
L 18.3125 47.703125 
L 18.3125 18.015625 
Q 18.3125 11.328125 20.140625 9.421875 
Q 21.96875 7.515625 27.59375 7.515625 
L 36.8125 7.515625 
L 36.8125 0 
L 27.59375 0 
Q 17.1875 0 13.234375 3.875 
Q 9.28125 7.765625 9.28125 18.015625 
L 9.28125 47.703125 
L 2.6875 47.703125 
L 2.6875 54.6875 
L 9.28125 54.6875 
L 9.28125 70.21875 
z
" id="DejaVuSans-116"/>
     <path d="M 2.984375 54.6875 
L 12.5 54.6875 
L 29.59375 8.796875 
L 46.6875 54.6875 
L 56.203125 54.6875 
L 35.6875 0 
L 23.484375 0 
z
" id="DejaVuSans-118"/>
     <path d="M 32.171875 -5.078125 
Q 28.375 -14.84375 24.75 -17.8125 
Q 21.140625 -20.796875 15.09375 -20.796875 
L 7.90625 -20.796875 
L 7.90625 -13.28125 
L 13.1875 -13.28125 
Q 16.890625 -13.28125 18.9375 -11.515625 
Q 21 -9.765625 23.484375 -3.21875 
L 25.09375 0.875 
L 2.984375 54.6875 
L 12.5 54.6875 
L 29.59375 11.921875 
L 46.6875 54.6875 
L 56.203125 54.6875 
z
" id="DejaVuSans-121"/>
     <path id="DejaVuSans-32"/>
     <path d="M 31 75.875 
Q 24.46875 64.65625 21.28125 53.65625 
Q 18.109375 42.671875 18.109375 31.390625 
Q 18.109375 20.125 21.3125 9.0625 
Q 24.515625 -2 31 -13.1875 
L 23.1875 -13.1875 
Q 15.875 -1.703125 12.234375 9.375 
Q 8.59375 20.453125 8.59375 31.390625 
Q 8.59375 42.28125 12.203125 53.3125 
Q 15.828125 64.359375 23.1875 75.875 
z
" id="DejaVuSans-40"/>
     <path d="M 34.28125 27.484375 
Q 23.390625 27.484375 19.1875 25 
Q 14.984375 22.515625 14.984375 16.5 
Q 14.984375 11.71875 18.140625 8.90625 
Q 21.296875 6.109375 26.703125 6.109375 
Q 34.1875 6.109375 38.703125 11.40625 
Q 43.21875 16.703125 43.21875 25.484375 
L 43.21875 27.484375 
z
M 52.203125 31.203125 
L 52.203125 0 
L 43.21875 0 
L 43.21875 8.296875 
Q 40.140625 3.328125 35.546875 0.953125 
Q 30.953125 -1.421875 24.3125 -1.421875 
Q 15.921875 -1.421875 10.953125 3.296875 
Q 6 8.015625 6 15.921875 
Q 6 25.140625 12.171875 29.828125 
Q 18.359375 34.515625 30.609375 34.515625 
L 43.21875 34.515625 
L 43.21875 35.40625 
Q 43.21875 41.609375 39.140625 45 
Q 35.0625 48.390625 27.6875 48.390625 
Q 23 48.390625 18.546875 47.265625 
Q 14.109375 46.140625 10.015625 43.890625 
L 10.015625 52.203125 
Q 14.9375 54.109375 19.578125 55.046875 
Q 24.21875 56 28.609375 56 
Q 40.484375 56 46.34375 49.84375 
Q 52.203125 43.703125 52.203125 31.203125 
z
" id="DejaVuSans-97"/>
     <path d="M 9.421875 75.984375 
L 18.40625 75.984375 
L 18.40625 0 
L 9.421875 0 
z
" id="DejaVuSans-108"/>
     <path d="M 8.015625 75.875 
L 15.828125 75.875 
Q 23.140625 64.359375 26.78125 53.3125 
Q 30.421875 42.28125 30.421875 31.390625 
Q 30.421875 20.453125 26.78125 9.375 
Q 23.140625 -1.703125 15.828125 -13.1875 
L 8.015625 -13.1875 
Q 14.5 -2 17.703125 9.0625 
Q 20.90625 20.125 20.90625 31.390625 
Q 20.90625 42.671875 17.703125 53.65625 
Q 14.5 64.65625 8.015625 75.875 
z
" id="DejaVuSans-41"/>
    </defs>
    <g transform="translate(81.107188 29.995313)scale(0.3 -0.3)">
     <use xlink:href="#DejaVuSans-80"/>
     <use x="60.255859" xlink:href="#DejaVuSans-101"/>
     <use x="121.779297" xlink:href="#DejaVuSans-114"/>
     <use x="162.876953" xlink:href="#DejaVuSans-109"/>
     <use x="260.289062" xlink:href="#DejaVuSans-105"/>
     <use x="288.072266" xlink:href="#DejaVuSans-116"/>
     <use x="327.28125" xlink:href="#DejaVuSans-116"/>
     <use x="366.490234" xlink:href="#DejaVuSans-105"/>
     <use x="394.273438" xlink:href="#DejaVuSans-118"/>
     <use x="453.453125" xlink:href="#DejaVuSans-105"/>
     <use x="481.236328" xlink:href="#DejaVuSans-116"/>
     <use x="520.445312" xlink:href="#DejaVuSans-121"/>
     <use x="579.625" xlink:href="#DejaVuSans-32"/>
     <use x="611.412109" xlink:href="#DejaVuSans-40"/>
     <use x="650.425781" xlink:href="#DejaVuSans-114"/>
     <use x="691.507812" xlink:href="#DejaVuSans-101"/>
     <use x="753.03125" xlink:href="#DejaVuSans-97"/>
     <use x="814.310547" xlink:href="#DejaVuSans-108"/>
     <use x="842.09375" xlink:href="#DejaVuSans-41"/>
    </g>
   </g>
  </g>
 </g>
 <defs>
  <clipPath id="pa364f5acd4">
   <rect height="406.9" width="309.08" x="58.73125" y="36.234375"/>
  </clipPath>
 </defs>
</svg>
