<?xml version="1.0" encoding="utf-8" standalone="no"?>
<!DOCTYPE svg PUBLIC "-//W3C//DTD SVG 1.1//EN"
  "http://www.w3.org/Graphics/SVG/1.1/DTD/svg11.dtd">
<!-- Created with matplotlib (https://matplotlib.org/) -->
<svg height="453.834375pt" version="1.1" viewBox="0 0 380.194375 453.834375" width="380.194375pt" xmlns="http://www.w3.org/2000/svg" xmlns:xlink="http://www.w3.org/1999/xlink">
 <defs>
  <style type="text/css">
*{stroke-linecap:butt;stroke-linejoin:round;}
  </style>
 </defs>
 <g id="figure_1">
  <g id="patch_1">
   <path d="M -0 453.834375 
L 380.194375 453.834375 
L 380.194375 0 
L -0 0 
z
" style="fill:#ffffff;"/>
  </g>
  <g id="axes_1">
   <g id="patch_2">
    <path d="M 69.134375 443.134375 
L 372.994375 443.134375 
L 372.994375 36.234375 
L 69.134375 36.234375 
z
" style="fill:#ffffff;"/>
   </g>
   <g id="PolyCollection_1">
    <defs>
     <path d="M 223.597931 -29.195455 
L 218.530819 -29.195455 
L 217.293361 -32.93191 
L 215.598763 -36.668365 
L 213.346969 -40.404821 
L 210.443073 -44.141276 
L 206.808139 -47.877732 
L 202.390852 -51.614187 
L 197.178368 -55.350643 
L 191.204521 -59.087098 
L 184.553727 -62.823554 
L 177.359456 -66.560009 
L 169.796957 -70.296465 
L 162.070867 -74.03292 
L 154.399148 -77.769376 
L 146.995352 -81.505831 
L 140.051397 -85.242287 
L 133.722867 -88.978742 
L 128.118362 -92.715197 
L 123.293878 -96.451653 
L 119.252541 -100.188108 
L 115.949473 -103.924564 
L 113.301056 -107.661019 
L 111.197447 -111.397475 
L 109.516838 -115.13393 
L 108.139733 -118.870386 
L 106.961491 -122.606841 
L 105.901565 -126.343297 
L 104.908355 -130.079752 
L 103.959267 -133.816208 
L 103.056346 -137.552663 
L 102.218596 -141.289118 
L 101.472591 -145.025574 
L 100.843249 -148.762029 
L 100.346427 -152.498485 
L 99.984614 -156.23494 
L 99.746248 -159.971396 
L 99.608495 -163.707851 
L 99.542581 -167.444307 
L 99.520375 -171.180762 
L 99.52068 -174.917218 
L 99.533894 -178.653673 
L 99.564117 -182.390129 
L 99.628368 -186.126584 
L 99.753224 -189.863039 
L 99.969658 -193.599495 
L 100.307166 -197.33595 
L 100.788308 -201.072406 
L 101.424568 -204.808861 
L 102.214143 -208.545317 
L 103.141855 -212.281772 
L 104.181035 -216.018228 
L 105.29698 -219.754683 
L 106.451372 -223.491139 
L 107.607006 -227.227594 
L 108.732148 -230.96405 
L 109.803902 -234.700505 
L 110.810115 -238.436961 
L 111.749524 -242.173416 
L 112.630114 -245.909871 
L 113.465955 -249.646327 
L 114.273054 -253.382782 
L 115.064975 -257.119238 
L 115.849081 -260.855693 
L 116.624139 -264.592149 
L 117.379843 -268.328604 
L 118.098411 -272.06506 
L 118.758002 -275.801515 
L 119.337351 -279.537971 
L 119.82073 -283.274426 
L 120.202328 -287.010882 
L 120.489285 -290.747337 
L 120.702996 -294.483792 
L 120.878723 -298.220248 
L 121.064025 -301.956703 
L 121.316736 -305.693159 
L 121.703216 -309.429614 
L 122.29732 -313.16607 
L 123.179945 -316.902525 
L 124.438472 -320.638981 
L 126.164981 -324.375436 
L 128.452049 -328.111892 
L 131.385392 -331.848347 
L 135.033421 -335.584803 
L 139.434905 -339.321258 
L 144.586853 -343.057713 
L 150.435334 -346.794169 
L 156.871801 -350.530624 
L 163.736644 -354.26708 
L 170.830325 -358.003535 
L 177.930818 -361.739991 
L 184.814716 -365.476446 
L 191.278578 -369.212902 
L 197.157076 -372.949357 
L 202.335262 -376.685813 
L 206.753578 -380.422268 
L 210.405659 -384.158724 
L 213.330275 -387.895179 
L 215.599525 -391.631635 
L 217.305688 -395.36809 
L 218.548833 -399.104545 
L 223.579917 -399.104545 
L 223.579917 -399.104545 
L 224.823062 -395.36809 
L 226.529225 -391.631635 
L 228.798475 -387.895179 
L 231.723091 -384.158724 
L 235.375172 -380.422268 
L 239.793488 -376.685813 
L 244.971674 -372.949357 
L 250.850172 -369.212902 
L 257.314034 -365.476446 
L 264.197932 -361.739991 
L 271.298425 -358.003535 
L 278.392106 -354.26708 
L 285.256949 -350.530624 
L 291.693416 -346.794169 
L 297.541897 -343.057713 
L 302.693845 -339.321258 
L 307.095329 -335.584803 
L 310.743358 -331.848347 
L 313.676701 -328.111892 
L 315.963769 -324.375436 
L 317.690278 -320.638981 
L 318.948805 -316.902525 
L 319.83143 -313.16607 
L 320.425534 -309.429614 
L 320.812014 -305.693159 
L 321.064725 -301.956703 
L 321.250027 -298.220248 
L 321.425754 -294.483792 
L 321.639465 -290.747337 
L 321.926422 -287.010882 
L 322.30802 -283.274426 
L 322.791399 -279.537971 
L 323.370748 -275.801515 
L 324.030339 -272.06506 
L 324.748907 -268.328604 
L 325.504611 -264.592149 
L 326.279669 -260.855693 
L 327.063775 -257.119238 
L 327.855696 -253.382782 
L 328.662795 -249.646327 
L 329.498636 -245.909871 
L 330.379226 -242.173416 
L 331.318635 -238.436961 
L 332.324848 -234.700505 
L 333.396602 -230.96405 
L 334.521744 -227.227594 
L 335.677378 -223.491139 
L 336.83177 -219.754683 
L 337.947715 -216.018228 
L 338.986895 -212.281772 
L 339.914607 -208.545317 
L 340.704182 -204.808861 
L 341.340442 -201.072406 
L 341.821584 -197.33595 
L 342.159092 -193.599495 
L 342.375526 -189.863039 
L 342.500382 -186.126584 
L 342.564633 -182.390129 
L 342.594856 -178.653673 
L 342.60807 -174.917218 
L 342.608375 -171.180762 
L 342.586169 -167.444307 
L 342.520255 -163.707851 
L 342.382502 -159.971396 
L 342.144136 -156.23494 
L 341.782323 -152.498485 
L 341.285501 -148.762029 
L 340.656159 -145.025574 
L 339.910154 -141.289118 
L 339.072404 -137.552663 
L 338.169483 -133.816208 
L 337.220395 -130.079752 
L 336.227185 -126.343297 
L 335.167259 -122.606841 
L 333.989017 -118.870386 
L 332.611912 -115.13393 
L 330.931303 -111.397475 
L 328.827694 -107.661019 
L 326.179277 -103.924564 
L 322.876209 -100.188108 
L 318.834872 -96.451653 
L 314.010388 -92.715197 
L 308.405883 -88.978742 
L 302.077353 -85.242287 
L 295.133398 -81.505831 
L 287.729602 -77.769376 
L 280.057883 -74.03292 
L 272.331793 -70.296465 
L 264.769294 -66.560009 
L 257.575023 -62.823554 
L 250.924229 -59.087098 
L 244.950382 -55.350643 
L 239.737898 -51.614187 
L 235.320611 -47.877732 
L 231.685677 -44.141276 
L 228.781781 -40.404821 
L 226.529987 -36.668365 
L 224.835389 -32.93191 
L 223.597931 -29.195455 
z
" id="m8ebad92992" style="stroke:#7a7a7a;stroke-width:1.5;"/>
    </defs>
    <g clip-path="url(#p4da5ec3d9f)">
     <use style="fill:#f2f2a6;stroke:#7a7a7a;stroke-width:1.5;" x="0" xlink:href="#m8ebad92992" y="453.834375"/>
    </g>
   </g>
   <g id="matplotlib.axis_1"/>
   <g id="matplotlib.axis_2">
    <g id="ytick_1">
     <g id="line2d_1">
      <defs>
       <path d="M 0 0 
L -3.5 0 
" id="m6bede62419" style="stroke:#000000;stroke-width:0.8;"/>
      </defs>
      <g>
       <use style="stroke:#000000;stroke-width:0.8;" x="69.134375" xlink:href="#m6bede62419" y="398.556662"/>
      </g>
     </g>
     <g id="text_1">
      <!-- −200 -->
      <defs>
       <path d="M 10.59375 35.5 
L 73.1875 35.5 
L 73.1875 27.203125 
L 10.59375 27.203125 
z
" id="DejaVuSans-8722"/>
       <path d="M 19.1875 8.296875 
L 53.609375 8.296875 
L 53.609375 0 
L 7.328125 0 
L 7.328125 8.296875 
Q 12.9375 14.109375 22.625 23.890625 
Q 32.328125 33.6875 34.8125 36.53125 
Q 39.546875 41.84375 41.421875 45.53125 
Q 43.3125 49.21875 43.3125 52.78125 
Q 43.3125 58.59375 39.234375 62.25 
Q 35.15625 65.921875 28.609375 65.921875 
Q 23.96875 65.921875 18.8125 64.3125 
Q 13.671875 62.703125 7.8125 59.421875 
L 7.8125 69.390625 
Q 13.765625 71.78125 18.9375 73 
Q 24.125 74.21875 28.421875 74.21875 
Q 39.75 74.21875 46.484375 68.546875 
Q 53.21875 62.890625 53.21875 53.421875 
Q 53.21875 48.921875 51.53125 44.890625 
Q 49.859375 40.875 45.40625 35.40625 
Q 44.1875 33.984375 37.640625 27.21875 
Q 31.109375 20.453125 19.1875 8.296875 
z
" id="DejaVuSans-50"/>
       <path d="M 31.78125 66.40625 
Q 24.171875 66.40625 20.328125 58.90625 
Q 16.5 51.421875 16.5 36.375 
Q 16.5 21.390625 20.328125 13.890625 
Q 24.171875 6.390625 31.78125 6.390625 
Q 39.453125 6.390625 43.28125 13.890625 
Q 47.125 21.390625 47.125 36.375 
Q 47.125 51.421875 43.28125 58.90625 
Q 39.453125 66.40625 31.78125 66.40625 
z
M 31.78125 74.21875 
Q 44.046875 74.21875 50.515625 64.515625 
Q 56.984375 54.828125 56.984375 36.375 
Q 56.984375 17.96875 50.515625 8.265625 
Q 44.046875 -1.421875 31.78125 -1.421875 
Q 19.53125 -1.421875 13.0625 8.265625 
Q 6.59375 17.96875 6.59375 36.375 
Q 6.59375 54.828125 13.0625 64.515625 
Q 19.53125 74.21875 31.78125 74.21875 
z
" id="DejaVuSans-48"/>
      </defs>
      <g transform="translate(7.2 406.1551)scale(0.2 -0.2)">
       <use xlink:href="#DejaVuSans-8722"/>
       <use x="83.789062" xlink:href="#DejaVuSans-50"/>
       <use x="147.412109" xlink:href="#DejaVuSans-48"/>
       <use x="211.035156" xlink:href="#DejaVuSans-48"/>
      </g>
     </g>
    </g>
    <g id="ytick_2">
     <g id="line2d_2">
      <g>
       <use style="stroke:#000000;stroke-width:0.8;" x="69.134375" xlink:href="#m6bede62419" y="319.063482"/>
      </g>
     </g>
     <g id="text_2">
      <!-- −100 -->
      <defs>
       <path d="M 12.40625 8.296875 
L 28.515625 8.296875 
L 28.515625 63.921875 
L 10.984375 60.40625 
L 10.984375 69.390625 
L 28.421875 72.90625 
L 38.28125 72.90625 
L 38.28125 8.296875 
L 54.390625 8.296875 
L 54.390625 0 
L 12.40625 0 
z
" id="DejaVuSans-49"/>
      </defs>
      <g transform="translate(7.2 326.66192)scale(0.2 -0.2)">
       <use xlink:href="#DejaVuSans-8722"/>
       <use x="83.789062" xlink:href="#DejaVuSans-49"/>
       <use x="147.412109" xlink:href="#DejaVuSans-48"/>
       <use x="211.035156" xlink:href="#DejaVuSans-48"/>
      </g>
     </g>
    </g>
    <g id="ytick_3">
     <g id="line2d_3">
      <g>
       <use style="stroke:#000000;stroke-width:0.8;" x="69.134375" xlink:href="#m6bede62419" y="239.570302"/>
      </g>
     </g>
     <g id="text_3">
      <!-- 0 -->
      <g transform="translate(49.409375 247.16874)scale(0.2 -0.2)">
       <use xlink:href="#DejaVuSans-48"/>
      </g>
     </g>
    </g>
    <g id="ytick_4">
     <g id="line2d_4">
      <g>
       <use style="stroke:#000000;stroke-width:0.8;" x="69.134375" xlink:href="#m6bede62419" y="160.077122"/>
      </g>
     </g>
     <g id="text_4">
      <!-- 100 -->
      <g transform="translate(23.959375 167.67556)scale(0.2 -0.2)">
       <use xlink:href="#DejaVuSans-49"/>
       <use x="63.623047" xlink:href="#DejaVuSans-48"/>
       <use x="127.246094" xlink:href="#DejaVuSans-48"/>
      </g>
     </g>
    </g>
    <g id="ytick_5">
     <g id="line2d_5">
      <g>
       <use style="stroke:#000000;stroke-width:0.8;" x="69.134375" xlink:href="#m6bede62419" y="80.583942"/>
      </g>
     </g>
     <g id="text_5">
      <!-- 200 -->
      <g transform="translate(23.959375 88.18238)scale(0.2 -0.2)">
       <use xlink:href="#DejaVuSans-50"/>
       <use x="63.623047" xlink:href="#DejaVuSans-48"/>
       <use x="127.246094" xlink:href="#DejaVuSans-48"/>
      </g>
     </g>
    </g>
   </g>
   <g id="line2d_6">
    <path clip-path="url(#p4da5ec3d9f)" d="M 221.064375 382.129397 
L 221.064375 97.239353 
" style="fill:none;stroke:#7a7a7a;stroke-linecap:square;stroke-width:1.5;"/>
   </g>
   <g id="line2d_7">
    <path clip-path="url(#p4da5ec3d9f)" d="M 221.064375 310.193633 
L 221.064375 175.21481 
" style="fill:none;stroke:#7a7a7a;stroke-linecap:square;stroke-width:4.5;"/>
   </g>
   <g id="patch_3">
    <path d="M 69.134375 443.134375 
L 69.134375 36.234375 
" style="fill:none;stroke:#000000;stroke-linecap:square;stroke-linejoin:miter;stroke-width:0.8;"/>
   </g>
   <g id="patch_4">
    <path d="M 372.994375 443.134375 
L 372.994375 36.234375 
" style="fill:none;stroke:#000000;stroke-linecap:square;stroke-linejoin:miter;stroke-width:0.8;"/>
   </g>
   <g id="patch_5">
    <path d="M 69.134375 443.134375 
L 372.994375 443.134375 
" style="fill:none;stroke:#000000;stroke-linecap:square;stroke-linejoin:miter;stroke-width:0.8;"/>
   </g>
   <g id="patch_6">
    <path d="M 69.134375 36.234375 
L 372.994375 36.234375 
" style="fill:none;stroke:#000000;stroke-linecap:square;stroke-linejoin:miter;stroke-width:0.8;"/>
   </g>
   <g id="PathCollection_1">
    <defs>
     <path d="M 0 1.5 
C 0.397805 1.5 0.77937 1.341951 1.06066 1.06066 
C 1.341951 0.77937 1.5 0.397805 1.5 0 
C 1.5 -0.397805 1.341951 -0.77937 1.06066 -1.06066 
C 0.77937 -1.341951 0.397805 -1.5 0 -1.5 
C -0.397805 -1.5 -0.77937 -1.341951 -1.06066 -1.06066 
C -1.341951 -0.77937 -1.5 -0.397805 -1.5 0 
C -1.5 0.397805 -1.341951 0.77937 -1.06066 1.06066 
C -0.77937 1.341951 -0.397805 1.5 0 1.5 
z
" id="m78ad795197" style="stroke:#7a7a7a;"/>
    </defs>
    <g clip-path="url(#p4da5ec3d9f)">
     <use style="fill:#ffffff;stroke:#7a7a7a;" x="221.064375" xlink:href="#m78ad795197" y="247.391239"/>
    </g>
   </g>
   <g id="text_6">
    <!-- Phase -->
    <defs>
     <path d="M 19.671875 64.796875 
L 19.671875 37.40625 
L 32.078125 37.40625 
Q 38.96875 37.40625 42.71875 40.96875 
Q 46.484375 44.53125 46.484375 51.125 
Q 46.484375 57.671875 42.71875 61.234375 
Q 38.96875 64.796875 32.078125 64.796875 
z
M 9.8125 72.90625 
L 32.078125 72.90625 
Q 44.34375 72.90625 50.609375 67.359375 
Q 56.890625 61.8125 56.890625 51.125 
Q 56.890625 40.328125 50.609375 34.8125 
Q 44.34375 29.296875 32.078125 29.296875 
L 19.671875 29.296875 
L 19.671875 0 
L 9.8125 0 
z
" id="DejaVuSans-80"/>
     <path d="M 54.890625 33.015625 
L 54.890625 0 
L 45.90625 0 
L 45.90625 32.71875 
Q 45.90625 40.484375 42.875 44.328125 
Q 39.84375 48.1875 33.796875 48.1875 
Q 26.515625 48.1875 22.3125 43.546875 
Q 18.109375 38.921875 18.109375 30.90625 
L 18.109375 0 
L 9.078125 0 
L 9.078125 75.984375 
L 18.109375 75.984375 
L 18.109375 46.1875 
Q 21.34375 51.125 25.703125 53.5625 
Q 30.078125 56 35.796875 56 
Q 45.21875 56 50.046875 50.171875 
Q 54.890625 44.34375 54.890625 33.015625 
z
" id="DejaVuSans-104"/>
     <path d="M 34.28125 27.484375 
Q 23.390625 27.484375 19.1875 25 
Q 14.984375 22.515625 14.984375 16.5 
Q 14.984375 11.71875 18.140625 8.90625 
Q 21.296875 6.109375 26.703125 6.109375 
Q 34.1875 6.109375 38.703125 11.40625 
Q 43.21875 16.703125 43.21875 25.484375 
L 43.21875 27.484375 
z
M 52.203125 31.203125 
L 52.203125 0 
L 43.21875 0 
L 43.21875 8.296875 
Q 40.140625 3.328125 35.546875 0.953125 
Q 30.953125 -1.421875 24.3125 -1.421875 
Q 15.921875 -1.421875 10.953125 3.296875 
Q 6 8.015625 6 15.921875 
Q 6 25.140625 12.171875 29.828125 
Q 18.359375 34.515625 30.609375 34.515625 
L 43.21875 34.515625 
L 43.21875 35.40625 
Q 43.21875 41.609375 39.140625 45 
Q 35.0625 48.390625 27.6875 48.390625 
Q 23 48.390625 18.546875 47.265625 
Q 14.109375 46.140625 10.015625 43.890625 
L 10.015625 52.203125 
Q 14.9375 54.109375 19.578125 55.046875 
Q 24.21875 56 28.609375 56 
Q 40.484375 56 46.34375 49.84375 
Q 52.203125 43.703125 52.203125 31.203125 
z
" id="DejaVuSans-97"/>
     <path d="M 44.28125 53.078125 
L 44.28125 44.578125 
Q 40.484375 46.53125 36.375 47.5 
Q 32.28125 48.484375 27.875 48.484375 
Q 21.1875 48.484375 17.84375 46.4375 
Q 14.5 44.390625 14.5 40.28125 
Q 14.5 37.15625 16.890625 35.375 
Q 19.28125 33.59375 26.515625 31.984375 
L 29.59375 31.296875 
Q 39.15625 29.25 43.1875 25.515625 
Q 47.21875 21.78125 47.21875 15.09375 
Q 47.21875 7.46875 41.1875 3.015625 
Q 35.15625 -1.421875 24.609375 -1.421875 
Q 20.21875 -1.421875 15.453125 -0.5625 
Q 10.6875 0.296875 5.421875 2 
L 5.421875 11.28125 
Q 10.40625 8.6875 15.234375 7.390625 
Q 20.0625 6.109375 24.8125 6.109375 
Q 31.15625 6.109375 34.5625 8.28125 
Q 37.984375 10.453125 37.984375 14.40625 
Q 37.984375 18.0625 35.515625 20.015625 
Q 33.0625 21.96875 24.703125 23.78125 
L 21.578125 24.515625 
Q 13.234375 26.265625 9.515625 29.90625 
Q 5.8125 33.546875 5.8125 39.890625 
Q 5.8125 47.609375 11.28125 51.796875 
Q 16.75 56 26.8125 56 
Q 31.78125 56 36.171875 55.265625 
Q 40.578125 54.546875 44.28125 53.078125 
z
" id="DejaVuSans-115"/>
     <path d="M 56.203125 29.59375 
L 56.203125 25.203125 
L 14.890625 25.203125 
Q 15.484375 15.921875 20.484375 11.0625 
Q 25.484375 6.203125 34.421875 6.203125 
Q 39.59375 6.203125 44.453125 7.46875 
Q 49.3125 8.734375 54.109375 11.28125 
L 54.109375 2.78125 
Q 49.265625 0.734375 44.1875 -0.34375 
Q 39.109375 -1.421875 33.890625 -1.421875 
Q 20.796875 -1.421875 13.15625 6.1875 
Q 5.515625 13.8125 5.515625 26.8125 
Q 5.515625 40.234375 12.765625 48.109375 
Q 20.015625 56 32.328125 56 
Q 43.359375 56 49.78125 48.890625 
Q 56.203125 41.796875 56.203125 29.59375 
z
M 47.21875 32.234375 
Q 47.125 39.59375 43.09375 43.984375 
Q 39.0625 48.390625 32.421875 48.390625 
Q 24.90625 48.390625 20.390625 44.140625 
Q 15.875 39.890625 15.1875 32.171875 
z
" id="DejaVuSans-101"/>
    </defs>
    <g transform="translate(176.277656 29.995313)scale(0.3 -0.3)">
     <use xlink:href="#DejaVuSans-80"/>
     <use x="60.302734" xlink:href="#DejaVuSans-104"/>
     <use x="123.681641" xlink:href="#DejaVuSans-97"/>
     <use x="184.960938" xlink:href="#DejaVuSans-115"/>
     <use x="237.060547" xlink:href="#DejaVuSans-101"/>
    </g>
   </g>
  </g>
 </g>
 <defs>
  <clipPath id="p4da5ec3d9f">
   <rect height="406.9" width="303.86" x="69.134375" y="36.234375"/>
  </clipPath>
 </defs>
</svg>
