<?xml version="1.0" encoding="utf-8" standalone="no"?>
<!DOCTYPE svg PUBLIC "-//W3C//DTD SVG 1.1//EN"
  "http://www.w3.org/Graphics/SVG/1.1/DTD/svg11.dtd">
<!-- Created with matplotlib (https://matplotlib.org/) -->
<svg height="457.956481pt" version="1.1" viewBox="0 0 375.01125 457.956481" width="375.01125pt" xmlns="http://www.w3.org/2000/svg" xmlns:xlink="http://www.w3.org/1999/xlink">
 <defs>
  <style type="text/css">
*{stroke-linecap:butt;stroke-linejoin:round;}
  </style>
 </defs>
 <g id="figure_1">
  <g id="patch_1">
   <path d="M 0 457.956481 
L 375.01125 457.956481 
L 375.01125 -0 
L 0 -0 
z
" style="fill:#ffffff;"/>
  </g>
  <g id="axes_1">
   <g id="patch_2">
    <path d="M 58.73125 443.134375 
L 367.81125 443.134375 
L 367.81125 36.234375 
L 58.73125 36.234375 
z
" style="fill:#ffffff;"/>
   </g>
   <g id="PolyCollection_1">
    <defs>
     <path d="M 217.698793 -33.31756 
L 208.843707 -33.31756 
L 206.868219 -37.054016 
L 204.275612 -40.790471 
L 200.984345 -44.526927 
L 196.940443 -48.263382 
L 192.128108 -51.999838 
L 186.576703 -55.736293 
L 180.362496 -59.472749 
L 173.604484 -63.209204 
L 166.454898 -66.94566 
L 159.086008 -70.682115 
L 151.675524 -74.418571 
L 144.392896 -78.155026 
L 137.388287 -81.891481 
L 130.785143 -85.627937 
L 124.676474 -89.364392 
L 119.124326 -93.100848 
L 114.161675 -96.837303 
L 109.795925 -100.573759 
L 106.013307 -104.310214 
L 102.783651 -108.04667 
L 100.065088 -111.783125 
L 97.808357 -115.519581 
L 95.96053 -119.256036 
L 94.468024 -122.992492 
L 93.278907 -126.728947 
L 92.344546 -130.465403 
L 91.620675 -134.201858 
L 91.067985 -137.938313 
L 90.652319 -141.674769 
L 90.344595 -145.411224 
L 90.120515 -149.14768 
L 89.960168 -152.884135 
L 89.847541 -156.620591 
L 89.770007 -160.357046 
L 89.717802 -164.093502 
L 89.683532 -167.829957 
L 89.661752 -171.566413 
L 89.648613 -175.302868 
L 89.641584 -179.039324 
L 89.63925 -182.775779 
L 89.641186 -186.512234 
L 89.647918 -190.24869 
L 89.660977 -193.985145 
L 89.683044 -197.721601 
L 89.718157 -201.458056 
L 89.771931 -205.194512 
L 89.851772 -208.930967 
L 89.967059 -212.667423 
L 90.129257 -216.403878 
L 90.35196 -220.140334 
L 90.650802 -223.876789 
L 91.043241 -227.613245 
L 91.54817 -231.3497 
L 92.185377 -235.086156 
L 92.974851 -238.822611 
L 93.935959 -242.559066 
L 95.086513 -246.295522 
L 96.441807 -250.031977 
L 98.013706 -253.768433 
L 99.809876 -257.504888 
L 101.83323 -261.241344 
L 104.081613 -264.977799 
L 106.547684 -268.714255 
L 109.218969 -272.45071 
L 112.07806 -276.187166 
L 115.10296 -279.923621 
L 118.267589 -283.660077 
L 121.54245 -287.396532 
L 124.895422 -291.132987 
L 128.292627 -294.869443 
L 131.699379 -298.605898 
L 135.081192 -302.342354 
L 138.404935 -306.078809 
L 141.640171 -309.815265 
L 144.760729 -313.55172 
L 147.746507 -317.288176 
L 150.585474 -321.024631 
L 153.275733 -324.761087 
L 155.827456 -328.497542 
L 158.264326 -332.233998 
L 160.624001 -335.970453 
L 162.957025 -339.706908 
L 165.323649 -343.443364 
L 167.788313 -347.179819 
L 170.411938 -350.916275 
L 173.242855 -354.65273 
L 176.307724 -358.389186 
L 179.60424 -362.125641 
L 183.097378 -365.862097 
L 186.72044 -369.598552 
L 190.381269 -373.335008 
L 193.972812 -377.071463 
L 197.386231 -380.807919 
L 200.52412 -384.544374 
L 203.311418 -388.28083 
L 205.702213 -392.017285 
L 207.681627 -395.75374 
L 209.263102 -399.490196 
L 210.48228 -403.226651 
L 216.06022 -403.226651 
L 216.06022 -403.226651 
L 217.279398 -399.490196 
L 218.860873 -395.75374 
L 220.840287 -392.017285 
L 223.231082 -388.28083 
L 226.01838 -384.544374 
L 229.156269 -380.807919 
L 232.569688 -377.071463 
L 236.161231 -373.335008 
L 239.82206 -369.598552 
L 243.445122 -365.862097 
L 246.93826 -362.125641 
L 250.234776 -358.389186 
L 253.299645 -354.65273 
L 256.130562 -350.916275 
L 258.754187 -347.179819 
L 261.218851 -343.443364 
L 263.585475 -339.706908 
L 265.918499 -335.970453 
L 268.278174 -332.233998 
L 270.715044 -328.497542 
L 273.266767 -324.761087 
L 275.957026 -321.024631 
L 278.795993 -317.288176 
L 281.781771 -313.55172 
L 284.902329 -309.815265 
L 288.137565 -306.078809 
L 291.461308 -302.342354 
L 294.843121 -298.605898 
L 298.249873 -294.869443 
L 301.647078 -291.132987 
L 305.00005 -287.396532 
L 308.274911 -283.660077 
L 311.43954 -279.923621 
L 314.46444 -276.187166 
L 317.323531 -272.45071 
L 319.994816 -268.714255 
L 322.460887 -264.977799 
L 324.70927 -261.241344 
L 326.732624 -257.504888 
L 328.528794 -253.768433 
L 330.100693 -250.031977 
L 331.455987 -246.295522 
L 332.606541 -242.559066 
L 333.567649 -238.822611 
L 334.357123 -235.086156 
L 334.99433 -231.3497 
L 335.499259 -227.613245 
L 335.891698 -223.876789 
L 336.19054 -220.140334 
L 336.413243 -216.403878 
L 336.575441 -212.667423 
L 336.690728 -208.930967 
L 336.770569 -205.194512 
L 336.824343 -201.458056 
L 336.859456 -197.721601 
L 336.881523 -193.985145 
L 336.894582 -190.24869 
L 336.901314 -186.512234 
L 336.90325 -182.775779 
L 336.900916 -179.039324 
L 336.893887 -175.302868 
L 336.880748 -171.566413 
L 336.858968 -167.829957 
L 336.824698 -164.093502 
L 336.772493 -160.357046 
L 336.694959 -156.620591 
L 336.582332 -152.884135 
L 336.421985 -149.14768 
L 336.197905 -145.411224 
L 335.890181 -141.674769 
L 335.474515 -137.938313 
L 334.921825 -134.201858 
L 334.197954 -130.465403 
L 333.263593 -126.728947 
L 332.074476 -122.992492 
L 330.58197 -119.256036 
L 328.734143 -115.519581 
L 326.477412 -111.783125 
L 323.758849 -108.04667 
L 320.529193 -104.310214 
L 316.746575 -100.573759 
L 312.380825 -96.837303 
L 307.418174 -93.100848 
L 301.866026 -89.364392 
L 295.757357 -85.627937 
L 289.154213 -81.891481 
L 282.149604 -78.155026 
L 274.866976 -74.418571 
L 267.456492 -70.682115 
L 260.087602 -66.94566 
L 252.938016 -63.209204 
L 246.180004 -59.472749 
L 239.965797 -55.736293 
L 234.414392 -51.999838 
L 229.602057 -48.263382 
L 225.558155 -44.526927 
L 222.266888 -40.790471 
L 219.674281 -37.054016 
L 217.698793 -33.31756 
z
" id="mb809685eec" style="stroke:#838383;stroke-width:1.5;"/>
    </defs>
    <g clip-path="url(#p90577b8659)">
     <use style="fill:#f6bfc7;stroke:#838383;stroke-width:1.5;" x="0" xlink:href="#mb809685eec" y="457.956481"/>
    </g>
   </g>
   <g id="matplotlib.axis_1"/>
   <g id="matplotlib.axis_2">
    <g id="ytick_1">
     <g id="line2d_1">
      <defs>
       <path d="M 0 0 
L -3.5 0 
" id="mae8ad59ef4" style="stroke:#000000;stroke-width:0.8;"/>
      </defs>
      <g>
       <use style="stroke:#000000;stroke-width:0.8;" x="58.73125" xlink:href="#mae8ad59ef4" y="438.998668"/>
      </g>
     </g>
     <g id="text_1">
      <!-- 2.5 -->
      <defs>
       <path d="M 19.1875 8.296875 
L 53.609375 8.296875 
L 53.609375 0 
L 7.328125 0 
L 7.328125 8.296875 
Q 12.9375 14.109375 22.625 23.890625 
Q 32.328125 33.6875 34.8125 36.53125 
Q 39.546875 41.84375 41.421875 45.53125 
Q 43.3125 49.21875 43.3125 52.78125 
Q 43.3125 58.59375 39.234375 62.25 
Q 35.15625 65.921875 28.609375 65.921875 
Q 23.96875 65.921875 18.8125 64.3125 
Q 13.671875 62.703125 7.8125 59.421875 
L 7.8125 69.390625 
Q 13.765625 71.78125 18.9375 73 
Q 24.125 74.21875 28.421875 74.21875 
Q 39.75 74.21875 46.484375 68.546875 
Q 53.21875 62.890625 53.21875 53.421875 
Q 53.21875 48.921875 51.53125 44.890625 
Q 49.859375 40.875 45.40625 35.40625 
Q 44.1875 33.984375 37.640625 27.21875 
Q 31.109375 20.453125 19.1875 8.296875 
z
" id="DejaVuSans-50"/>
       <path d="M 10.6875 12.40625 
L 21 12.40625 
L 21 0 
L 10.6875 0 
z
" id="DejaVuSans-46"/>
       <path d="M 10.796875 72.90625 
L 49.515625 72.90625 
L 49.515625 64.59375 
L 19.828125 64.59375 
L 19.828125 46.734375 
Q 21.96875 47.46875 24.109375 47.828125 
Q 26.265625 48.1875 28.421875 48.1875 
Q 40.625 48.1875 47.75 41.5 
Q 54.890625 34.8125 54.890625 23.390625 
Q 54.890625 11.625 47.5625 5.09375 
Q 40.234375 -1.421875 26.90625 -1.421875 
Q 22.3125 -1.421875 17.546875 -0.640625 
Q 12.796875 0.140625 7.71875 1.703125 
L 7.71875 11.625 
Q 12.109375 9.234375 16.796875 8.0625 
Q 21.484375 6.890625 26.703125 6.890625 
Q 35.15625 6.890625 40.078125 11.328125 
Q 45.015625 15.765625 45.015625 23.390625 
Q 45.015625 31 40.078125 35.4375 
Q 35.15625 39.890625 26.703125 39.890625 
Q 22.75 39.890625 18.8125 39.015625 
Q 14.890625 38.140625 10.796875 36.28125 
z
" id="DejaVuSans-53"/>
      </defs>
      <g transform="translate(19.925 446.597106)scale(0.2 -0.2)">
       <use xlink:href="#DejaVuSans-50"/>
       <use x="63.623047" xlink:href="#DejaVuSans-46"/>
       <use x="95.410156" xlink:href="#DejaVuSans-53"/>
      </g>
     </g>
    </g>
    <g id="ytick_2">
     <g id="line2d_2">
      <g>
       <use style="stroke:#000000;stroke-width:0.8;" x="58.73125" xlink:href="#mae8ad59ef4" y="383.633587"/>
      </g>
     </g>
     <g id="text_2">
      <!-- 5.0 -->
      <defs>
       <path d="M 31.78125 66.40625 
Q 24.171875 66.40625 20.328125 58.90625 
Q 16.5 51.421875 16.5 36.375 
Q 16.5 21.390625 20.328125 13.890625 
Q 24.171875 6.390625 31.78125 6.390625 
Q 39.453125 6.390625 43.28125 13.890625 
Q 47.125 21.390625 47.125 36.375 
Q 47.125 51.421875 43.28125 58.90625 
Q 39.453125 66.40625 31.78125 66.40625 
z
M 31.78125 74.21875 
Q 44.046875 74.21875 50.515625 64.515625 
Q 56.984375 54.828125 56.984375 36.375 
Q 56.984375 17.96875 50.515625 8.265625 
Q 44.046875 -1.421875 31.78125 -1.421875 
Q 19.53125 -1.421875 13.0625 8.265625 
Q 6.59375 17.96875 6.59375 36.375 
Q 6.59375 54.828125 13.0625 64.515625 
Q 19.53125 74.21875 31.78125 74.21875 
z
" id="DejaVuSans-48"/>
      </defs>
      <g transform="translate(19.925 391.232024)scale(0.2 -0.2)">
       <use xlink:href="#DejaVuSans-53"/>
       <use x="63.623047" xlink:href="#DejaVuSans-46"/>
       <use x="95.410156" xlink:href="#DejaVuSans-48"/>
      </g>
     </g>
    </g>
    <g id="ytick_3">
     <g id="line2d_3">
      <g>
       <use style="stroke:#000000;stroke-width:0.8;" x="58.73125" xlink:href="#mae8ad59ef4" y="328.268505"/>
      </g>
     </g>
     <g id="text_3">
      <!-- 7.5 -->
      <defs>
       <path d="M 8.203125 72.90625 
L 55.078125 72.90625 
L 55.078125 68.703125 
L 28.609375 0 
L 18.3125 0 
L 43.21875 64.59375 
L 8.203125 64.59375 
z
" id="DejaVuSans-55"/>
      </defs>
      <g transform="translate(19.925 335.866943)scale(0.2 -0.2)">
       <use xlink:href="#DejaVuSans-55"/>
       <use x="63.623047" xlink:href="#DejaVuSans-46"/>
       <use x="95.410156" xlink:href="#DejaVuSans-53"/>
      </g>
     </g>
    </g>
    <g id="ytick_4">
     <g id="line2d_4">
      <g>
       <use style="stroke:#000000;stroke-width:0.8;" x="58.73125" xlink:href="#mae8ad59ef4" y="272.903424"/>
      </g>
     </g>
     <g id="text_4">
      <!-- 10.0 -->
      <defs>
       <path d="M 12.40625 8.296875 
L 28.515625 8.296875 
L 28.515625 63.921875 
L 10.984375 60.40625 
L 10.984375 69.390625 
L 28.421875 72.90625 
L 38.28125 72.90625 
L 38.28125 8.296875 
L 54.390625 8.296875 
L 54.390625 0 
L 12.40625 0 
z
" id="DejaVuSans-49"/>
      </defs>
      <g transform="translate(7.2 280.501861)scale(0.2 -0.2)">
       <use xlink:href="#DejaVuSans-49"/>
       <use x="63.623047" xlink:href="#DejaVuSans-48"/>
       <use x="127.246094" xlink:href="#DejaVuSans-46"/>
       <use x="159.033203" xlink:href="#DejaVuSans-48"/>
      </g>
     </g>
    </g>
    <g id="ytick_5">
     <g id="line2d_5">
      <g>
       <use style="stroke:#000000;stroke-width:0.8;" x="58.73125" xlink:href="#mae8ad59ef4" y="217.538342"/>
      </g>
     </g>
     <g id="text_5">
      <!-- 12.5 -->
      <g transform="translate(7.2 225.13678)scale(0.2 -0.2)">
       <use xlink:href="#DejaVuSans-49"/>
       <use x="63.623047" xlink:href="#DejaVuSans-50"/>
       <use x="127.246094" xlink:href="#DejaVuSans-46"/>
       <use x="159.033203" xlink:href="#DejaVuSans-53"/>
      </g>
     </g>
    </g>
    <g id="ytick_6">
     <g id="line2d_6">
      <g>
       <use style="stroke:#000000;stroke-width:0.8;" x="58.73125" xlink:href="#mae8ad59ef4" y="162.173261"/>
      </g>
     </g>
     <g id="text_6">
      <!-- 15.0 -->
      <g transform="translate(7.2 169.771698)scale(0.2 -0.2)">
       <use xlink:href="#DejaVuSans-49"/>
       <use x="63.623047" xlink:href="#DejaVuSans-53"/>
       <use x="127.246094" xlink:href="#DejaVuSans-46"/>
       <use x="159.033203" xlink:href="#DejaVuSans-48"/>
      </g>
     </g>
    </g>
    <g id="ytick_7">
     <g id="line2d_7">
      <g>
       <use style="stroke:#000000;stroke-width:0.8;" x="58.73125" xlink:href="#mae8ad59ef4" y="106.808179"/>
      </g>
     </g>
     <g id="text_7">
      <!-- 17.5 -->
      <g transform="translate(7.2 114.406617)scale(0.2 -0.2)">
       <use xlink:href="#DejaVuSans-49"/>
       <use x="63.623047" xlink:href="#DejaVuSans-55"/>
       <use x="127.246094" xlink:href="#DejaVuSans-46"/>
       <use x="159.033203" xlink:href="#DejaVuSans-53"/>
      </g>
     </g>
    </g>
    <g id="ytick_8">
     <g id="line2d_8">
      <g>
       <use style="stroke:#000000;stroke-width:0.8;" x="58.73125" xlink:href="#mae8ad59ef4" y="51.443098"/>
      </g>
     </g>
     <g id="text_8">
      <!-- 20.0 -->
      <g transform="translate(7.2 59.041535)scale(0.2 -0.2)">
       <use xlink:href="#DejaVuSans-50"/>
       <use x="63.623047" xlink:href="#DejaVuSans-48"/>
       <use x="127.246094" xlink:href="#DejaVuSans-46"/>
       <use x="159.033203" xlink:href="#DejaVuSans-48"/>
      </g>
     </g>
    </g>
   </g>
   <g id="line2d_9">
    <path clip-path="url(#p90577b8659)" d="M 213.27125 383.633587 
L 213.27125 95.735163 
" style="fill:none;stroke:#838383;stroke-linecap:square;stroke-width:1.5;"/>
   </g>
   <g id="line2d_10">
    <path clip-path="url(#p90577b8659)" d="M 213.27125 317.195489 
L 213.27125 206.465326 
" style="fill:none;stroke:#838383;stroke-linecap:square;stroke-width:4.5;"/>
   </g>
   <g id="patch_3">
    <path d="M 58.73125 443.134375 
L 58.73125 36.234375 
" style="fill:none;stroke:#000000;stroke-linecap:square;stroke-linejoin:miter;stroke-width:0.8;"/>
   </g>
   <g id="patch_4">
    <path d="M 367.81125 443.134375 
L 367.81125 36.234375 
" style="fill:none;stroke:#000000;stroke-linecap:square;stroke-linejoin:miter;stroke-width:0.8;"/>
   </g>
   <g id="patch_5">
    <path d="M 58.73125 443.134375 
L 367.81125 443.134375 
" style="fill:none;stroke:#000000;stroke-linecap:square;stroke-linejoin:miter;stroke-width:0.8;"/>
   </g>
   <g id="patch_6">
    <path d="M 58.73125 36.234375 
L 367.81125 36.234375 
" style="fill:none;stroke:#000000;stroke-linecap:square;stroke-linejoin:miter;stroke-width:0.8;"/>
   </g>
   <g id="PathCollection_1">
    <defs>
     <path d="M 0 1.5 
C 0.397805 1.5 0.77937 1.341951 1.06066 1.06066 
C 1.341951 0.77937 1.5 0.397805 1.5 0 
C 1.5 -0.397805 1.341951 -0.77937 1.06066 -1.06066 
C 0.77937 -1.341951 0.397805 -1.5 0 -1.5 
C -0.397805 -1.5 -0.77937 -1.341951 -1.06066 -1.06066 
C -1.341951 -0.77937 -1.5 -0.397805 -1.5 0 
C -1.5 0.397805 -1.341951 0.77937 -1.06066 1.06066 
C -0.77937 1.341951 -0.397805 1.5 0 1.5 
z
" id="m8decc2005a" style="stroke:#838383;"/>
    </defs>
    <g clip-path="url(#p90577b8659)">
     <use style="fill:#ffffff;stroke:#838383;" x="213.27125" xlink:href="#m8decc2005a" y="250.757391"/>
    </g>
   </g>
   <g id="text_9">
    <!-- Frequency -->
    <defs>
     <path d="M 9.8125 72.90625 
L 51.703125 72.90625 
L 51.703125 64.59375 
L 19.671875 64.59375 
L 19.671875 43.109375 
L 48.578125 43.109375 
L 48.578125 34.8125 
L 19.671875 34.8125 
L 19.671875 0 
L 9.8125 0 
z
" id="DejaVuSans-70"/>
     <path d="M 41.109375 46.296875 
Q 39.59375 47.171875 37.8125 47.578125 
Q 36.03125 48 33.890625 48 
Q 26.265625 48 22.1875 43.046875 
Q 18.109375 38.09375 18.109375 28.8125 
L 18.109375 0 
L 9.078125 0 
L 9.078125 54.6875 
L 18.109375 54.6875 
L 18.109375 46.1875 
Q 20.953125 51.171875 25.484375 53.578125 
Q 30.03125 56 36.53125 56 
Q 37.453125 56 38.578125 55.875 
Q 39.703125 55.765625 41.0625 55.515625 
z
" id="DejaVuSans-114"/>
     <path d="M 56.203125 29.59375 
L 56.203125 25.203125 
L 14.890625 25.203125 
Q 15.484375 15.921875 20.484375 11.0625 
Q 25.484375 6.203125 34.421875 6.203125 
Q 39.59375 6.203125 44.453125 7.46875 
Q 49.3125 8.734375 54.109375 11.28125 
L 54.109375 2.78125 
Q 49.265625 0.734375 44.1875 -0.34375 
Q 39.109375 -1.421875 33.890625 -1.421875 
Q 20.796875 -1.421875 13.15625 6.1875 
Q 5.515625 13.8125 5.515625 26.8125 
Q 5.515625 40.234375 12.765625 48.109375 
Q 20.015625 56 32.328125 56 
Q 43.359375 56 49.78125 48.890625 
Q 56.203125 41.796875 56.203125 29.59375 
z
M 47.21875 32.234375 
Q 47.125 39.59375 43.09375 43.984375 
Q 39.0625 48.390625 32.421875 48.390625 
Q 24.90625 48.390625 20.390625 44.140625 
Q 15.875 39.890625 15.1875 32.171875 
z
" id="DejaVuSans-101"/>
     <path d="M 14.796875 27.296875 
Q 14.796875 17.390625 18.875 11.75 
Q 22.953125 6.109375 30.078125 6.109375 
Q 37.203125 6.109375 41.296875 11.75 
Q 45.40625 17.390625 45.40625 27.296875 
Q 45.40625 37.203125 41.296875 42.84375 
Q 37.203125 48.484375 30.078125 48.484375 
Q 22.953125 48.484375 18.875 42.84375 
Q 14.796875 37.203125 14.796875 27.296875 
z
M 45.40625 8.203125 
Q 42.578125 3.328125 38.25 0.953125 
Q 33.9375 -1.421875 27.875 -1.421875 
Q 17.96875 -1.421875 11.734375 6.484375 
Q 5.515625 14.40625 5.515625 27.296875 
Q 5.515625 40.1875 11.734375 48.09375 
Q 17.96875 56 27.875 56 
Q 33.9375 56 38.25 53.625 
Q 42.578125 51.265625 45.40625 46.390625 
L 45.40625 54.6875 
L 54.390625 54.6875 
L 54.390625 -20.796875 
L 45.40625 -20.796875 
z
" id="DejaVuSans-113"/>
     <path d="M 8.5 21.578125 
L 8.5 54.6875 
L 17.484375 54.6875 
L 17.484375 21.921875 
Q 17.484375 14.15625 20.5 10.265625 
Q 23.53125 6.390625 29.59375 6.390625 
Q 36.859375 6.390625 41.078125 11.03125 
Q 45.3125 15.671875 45.3125 23.6875 
L 45.3125 54.6875 
L 54.296875 54.6875 
L 54.296875 0 
L 45.3125 0 
L 45.3125 8.40625 
Q 42.046875 3.421875 37.71875 1 
Q 33.40625 -1.421875 27.6875 -1.421875 
Q 18.265625 -1.421875 13.375 4.4375 
Q 8.5 10.296875 8.5 21.578125 
z
M 31.109375 56 
z
" id="DejaVuSans-117"/>
     <path d="M 54.890625 33.015625 
L 54.890625 0 
L 45.90625 0 
L 45.90625 32.71875 
Q 45.90625 40.484375 42.875 44.328125 
Q 39.84375 48.1875 33.796875 48.1875 
Q 26.515625 48.1875 22.3125 43.546875 
Q 18.109375 38.921875 18.109375 30.90625 
L 18.109375 0 
L 9.078125 0 
L 9.078125 54.6875 
L 18.109375 54.6875 
L 18.109375 46.1875 
Q 21.34375 51.125 25.703125 53.5625 
Q 30.078125 56 35.796875 56 
Q 45.21875 56 50.046875 50.171875 
Q 54.890625 44.34375 54.890625 33.015625 
z
" id="DejaVuSans-110"/>
     <path d="M 48.78125 52.59375 
L 48.78125 44.1875 
Q 44.96875 46.296875 41.140625 47.34375 
Q 37.3125 48.390625 33.40625 48.390625 
Q 24.65625 48.390625 19.8125 42.84375 
Q 14.984375 37.3125 14.984375 27.296875 
Q 14.984375 17.28125 19.8125 11.734375 
Q 24.65625 6.203125 33.40625 6.203125 
Q 37.3125 6.203125 41.140625 7.25 
Q 44.96875 8.296875 48.78125 10.40625 
L 48.78125 2.09375 
Q 45.015625 0.34375 40.984375 -0.53125 
Q 36.96875 -1.421875 32.421875 -1.421875 
Q 20.0625 -1.421875 12.78125 6.34375 
Q 5.515625 14.109375 5.515625 27.296875 
Q 5.515625 40.671875 12.859375 48.328125 
Q 20.21875 56 33.015625 56 
Q 37.15625 56 41.109375 55.140625 
Q 45.0625 54.296875 48.78125 52.59375 
z
" id="DejaVuSans-99"/>
     <path d="M 32.171875 -5.078125 
Q 28.375 -14.84375 24.75 -17.8125 
Q 21.140625 -20.796875 15.09375 -20.796875 
L 7.90625 -20.796875 
L 7.90625 -13.28125 
L 13.1875 -13.28125 
Q 16.890625 -13.28125 18.9375 -11.515625 
Q 21 -9.765625 23.484375 -3.21875 
L 25.09375 0.875 
L 2.984375 54.6875 
L 12.5 54.6875 
L 29.59375 11.921875 
L 46.6875 54.6875 
L 56.203125 54.6875 
z
" id="DejaVuSans-121"/>
    </defs>
    <g transform="translate(134.378281 29.995312)scale(0.3 -0.3)">
     <use xlink:href="#DejaVuSans-70"/>
     <use x="57.410156" xlink:href="#DejaVuSans-114"/>
     <use x="98.492188" xlink:href="#DejaVuSans-101"/>
     <use x="160.015625" xlink:href="#DejaVuSans-113"/>
     <use x="223.492188" xlink:href="#DejaVuSans-117"/>
     <use x="286.871094" xlink:href="#DejaVuSans-101"/>
     <use x="348.394531" xlink:href="#DejaVuSans-110"/>
     <use x="411.773438" xlink:href="#DejaVuSans-99"/>
     <use x="466.753906" xlink:href="#DejaVuSans-121"/>
    </g>
   </g>
  </g>
 </g>
 <defs>
  <clipPath id="p90577b8659">
   <rect height="406.9" width="309.08" x="58.73125" y="36.234375"/>
  </clipPath>
 </defs>
</svg>
