<?xml version="1.0" encoding="utf-8" standalone="no"?>
<!DOCTYPE svg PUBLIC "-//W3C//DTD SVG 1.1//EN"
  "http://www.w3.org/Graphics/SVG/1.1/DTD/svg11.dtd">
<!-- Created with matplotlib (https://matplotlib.org/) -->
<svg height="453.834375pt" version="1.1" viewBox="0 0 365.47 453.834375" width="365.47pt" xmlns="http://www.w3.org/2000/svg" xmlns:xlink="http://www.w3.org/1999/xlink">
 <defs>
  <style type="text/css">
*{stroke-linecap:butt;stroke-linejoin:round;}
  </style>
 </defs>
 <g id="figure_1">
  <g id="patch_1">
   <path d="M 0 453.834375 
L 365.47 453.834375 
L 365.47 0 
L 0 0 
z
" style="fill:#ffffff;"/>
  </g>
  <g id="axes_1">
   <g id="patch_2">
    <path d="M 39.65 443.134375 
L 358.27 443.134375 
L 358.27 36.234375 
L 39.65 36.234375 
z
" style="fill:#ffffff;"/>
   </g>
   <g id="PolyCollection_1">
    <defs>
     <path d="M 201.078757 -29.195455 
L 196.841243 -29.195455 
L 195.737012 -32.93191 
L 194.196417 -36.668365 
L 192.11579 -40.404821 
L 189.395266 -44.141276 
L 185.950536 -47.877732 
L 181.725666 -51.614187 
L 176.70499 -55.350643 
L 170.921828 -59.087098 
L 164.462 -62.823554 
L 157.46088 -66.560009 
L 150.093839 -70.296465 
L 142.561259 -74.03292 
L 135.070312 -77.769376 
L 127.816363 -81.505831 
L 120.966752 -85.242287 
L 114.649125 -88.978742 
L 108.945424 -92.715197 
L 103.891548 -96.451653 
L 99.481758 -100.188108 
L 95.676369 -103.924564 
L 92.411173 -107.661019 
L 89.607229 -111.397475 
L 87.180115 -115.13393 
L 85.048049 -118.870386 
L 83.138617 -122.606841 
L 81.393902 -126.343297 
L 79.773842 -130.079752 
L 78.25759 -133.816208 
L 76.842749 -137.552663 
L 75.542496 -141.289118 
L 74.380875 -145.025574 
L 73.386898 -148.762029 
L 72.588249 -152.498485 
L 72.005589 -156.23494 
L 71.648259 -159.971396 
L 71.512 -163.707851 
L 71.578877 -167.444307 
L 71.819205 -171.180762 
L 72.194986 -174.917218 
L 72.664153 -178.653673 
L 73.184931 -182.390129 
L 73.719707 -186.126584 
L 74.238008 -189.863039 
L 74.718371 -193.599495 
L 75.149112 -197.33595 
L 75.528084 -201.072406 
L 75.861683 -204.808861 
L 76.163336 -208.545317 
L 76.451732 -212.281772 
L 76.749019 -216.018228 
L 77.079096 -219.754683 
L 77.466085 -223.491139 
L 77.932984 -227.227594 
L 78.500485 -230.96405 
L 79.185943 -234.700505 
L 80.002507 -238.436961 
L 80.958497 -242.173416 
L 82.057111 -245.909871 
L 83.296609 -249.646327 
L 84.671013 -253.382782 
L 86.171276 -257.119238 
L 87.786717 -260.855693 
L 89.506353 -264.592149 
L 91.319727 -268.328604 
L 93.216875 -272.06506 
L 95.18736 -275.801515 
L 97.218619 -279.537971 
L 99.294231 -283.274426 
L 101.392885 -287.010882 
L 103.488803 -290.747337 
L 105.554025 -294.483792 
L 107.562494 -298.220248 
L 109.495386 -301.956703 
L 111.346747 -305.693159 
L 113.128422 -309.429614 
L 114.873314 -313.16607 
L 116.63633 -316.902525 
L 118.492579 -320.638981 
L 120.532714 -324.375436 
L 122.855499 -328.111892 
L 125.557968 -331.848347 
L 128.723916 -335.584803 
L 132.411892 -339.321258 
L 136.64429 -343.057713 
L 141.399391 -346.794169 
L 146.608086 -350.530624 
L 152.156453 -354.26708 
L 157.894424 -358.003535 
L 163.649652 -361.739991 
L 169.244586 -365.476446 
L 174.514157 -369.212902 
L 179.321284 -372.949357 
L 183.567939 -376.685813 
L 187.200426 -380.422268 
L 190.20869 -384.158724 
L 192.62054 -387.895179 
L 194.492426 -391.631635 
L 195.898729 -395.36809 
L 196.921377 -399.104545 
L 200.998623 -399.104545 
L 200.998623 -399.104545 
L 202.021271 -395.36809 
L 203.427574 -391.631635 
L 205.29946 -387.895179 
L 207.71131 -384.158724 
L 210.719574 -380.422268 
L 214.352061 -376.685813 
L 218.598716 -372.949357 
L 223.405843 -369.212902 
L 228.675414 -365.476446 
L 234.270348 -361.739991 
L 240.025576 -358.003535 
L 245.763547 -354.26708 
L 251.311914 -350.530624 
L 256.520609 -346.794169 
L 261.27571 -343.057713 
L 265.508108 -339.321258 
L 269.196084 -335.584803 
L 272.362032 -331.848347 
L 275.064501 -328.111892 
L 277.387286 -324.375436 
L 279.427421 -320.638981 
L 281.28367 -316.902525 
L 283.046686 -313.16607 
L 284.791578 -309.429614 
L 286.573253 -305.693159 
L 288.424614 -301.956703 
L 290.357506 -298.220248 
L 292.365975 -294.483792 
L 294.431197 -290.747337 
L 296.527115 -287.010882 
L 298.625769 -283.274426 
L 300.701381 -279.537971 
L 302.73264 -275.801515 
L 304.703125 -272.06506 
L 306.600273 -268.328604 
L 308.413647 -264.592149 
L 310.133283 -260.855693 
L 311.748724 -257.119238 
L 313.248987 -253.382782 
L 314.623391 -249.646327 
L 315.862889 -245.909871 
L 316.961503 -242.173416 
L 317.917493 -238.436961 
L 318.734057 -234.700505 
L 319.419515 -230.96405 
L 319.987016 -227.227594 
L 320.453915 -223.491139 
L 320.840904 -219.754683 
L 321.170981 -216.018228 
L 321.468268 -212.281772 
L 321.756664 -208.545317 
L 322.058317 -204.808861 
L 322.391916 -201.072406 
L 322.770888 -197.33595 
L 323.201629 -193.599495 
L 323.681992 -189.863039 
L 324.200293 -186.126584 
L 324.735069 -182.390129 
L 325.255847 -178.653673 
L 325.725014 -174.917218 
L 326.100795 -171.180762 
L 326.341123 -167.444307 
L 326.408 -163.707851 
L 326.271741 -159.971396 
L 325.914411 -156.23494 
L 325.331751 -152.498485 
L 324.533102 -148.762029 
L 323.539125 -145.025574 
L 322.377504 -141.289118 
L 321.077251 -137.552663 
L 319.66241 -133.816208 
L 318.146158 -130.079752 
L 316.526098 -126.343297 
L 314.781383 -122.606841 
L 312.871951 -118.870386 
L 310.739885 -115.13393 
L 308.312771 -111.397475 
L 305.508827 -107.661019 
L 302.243631 -103.924564 
L 298.438242 -100.188108 
L 294.028452 -96.451653 
L 288.974576 -92.715197 
L 283.270875 -88.978742 
L 276.953248 -85.242287 
L 270.103637 -81.505831 
L 262.849688 -77.769376 
L 255.358741 -74.03292 
L 247.826161 -70.296465 
L 240.45912 -66.560009 
L 233.458 -62.823554 
L 226.998172 -59.087098 
L 221.21501 -55.350643 
L 216.194334 -51.614187 
L 211.969464 -47.877732 
L 208.524734 -44.141276 
L 205.80421 -40.404821 
L 203.723583 -36.668365 
L 202.182988 -32.93191 
L 201.078757 -29.195455 
z
" id="m3298a9a32d" style="stroke:#797979;stroke-width:1.5;"/>
    </defs>
    <g clip-path="url(#pbc67652a64)">
     <use style="fill:#a4efa4;stroke:#797979;stroke-width:1.5;" x="0" xlink:href="#m3298a9a32d" y="453.834375"/>
    </g>
   </g>
   <g id="matplotlib.axis_1"/>
   <g id="matplotlib.axis_2">
    <g id="ytick_1">
     <g id="line2d_1">
      <defs>
       <path d="M 0 0 
L -3.5 0 
" id="m575ce0b572" style="stroke:#000000;stroke-width:0.8;"/>
      </defs>
      <g>
       <use style="stroke:#000000;stroke-width:0.8;" x="39.65" xlink:href="#m575ce0b572" y="423.101327"/>
      </g>
     </g>
     <g id="text_1">
      <!-- 5 -->
      <defs>
       <path d="M 10.796875 72.90625 
L 49.515625 72.90625 
L 49.515625 64.59375 
L 19.828125 64.59375 
L 19.828125 46.734375 
Q 21.96875 47.46875 24.109375 47.828125 
Q 26.265625 48.1875 28.421875 48.1875 
Q 40.625 48.1875 47.75 41.5 
Q 54.890625 34.8125 54.890625 23.390625 
Q 54.890625 11.625 47.5625 5.09375 
Q 40.234375 -1.421875 26.90625 -1.421875 
Q 22.3125 -1.421875 17.546875 -0.640625 
Q 12.796875 0.140625 7.71875 1.703125 
L 7.71875 11.625 
Q 12.109375 9.234375 16.796875 8.0625 
Q 21.484375 6.890625 26.703125 6.890625 
Q 35.15625 6.890625 40.078125 11.328125 
Q 45.015625 15.765625 45.015625 23.390625 
Q 45.015625 31 40.078125 35.4375 
Q 35.15625 39.890625 26.703125 39.890625 
Q 22.75 39.890625 18.8125 39.015625 
Q 14.890625 38.140625 10.796875 36.28125 
z
" id="DejaVuSans-53"/>
      </defs>
      <g transform="translate(19.925 430.699764)scale(0.2 -0.2)">
       <use xlink:href="#DejaVuSans-53"/>
      </g>
     </g>
    </g>
    <g id="ytick_2">
     <g id="line2d_2">
      <g>
       <use style="stroke:#000000;stroke-width:0.8;" x="39.65" xlink:href="#m575ce0b572" y="357.358834"/>
      </g>
     </g>
     <g id="text_2">
      <!-- 10 -->
      <defs>
       <path d="M 12.40625 8.296875 
L 28.515625 8.296875 
L 28.515625 63.921875 
L 10.984375 60.40625 
L 10.984375 69.390625 
L 28.421875 72.90625 
L 38.28125 72.90625 
L 38.28125 8.296875 
L 54.390625 8.296875 
L 54.390625 0 
L 12.40625 0 
z
" id="DejaVuSans-49"/>
       <path d="M 31.78125 66.40625 
Q 24.171875 66.40625 20.328125 58.90625 
Q 16.5 51.421875 16.5 36.375 
Q 16.5 21.390625 20.328125 13.890625 
Q 24.171875 6.390625 31.78125 6.390625 
Q 39.453125 6.390625 43.28125 13.890625 
Q 47.125 21.390625 47.125 36.375 
Q 47.125 51.421875 43.28125 58.90625 
Q 39.453125 66.40625 31.78125 66.40625 
z
M 31.78125 74.21875 
Q 44.046875 74.21875 50.515625 64.515625 
Q 56.984375 54.828125 56.984375 36.375 
Q 56.984375 17.96875 50.515625 8.265625 
Q 44.046875 -1.421875 31.78125 -1.421875 
Q 19.53125 -1.421875 13.0625 8.265625 
Q 6.59375 17.96875 6.59375 36.375 
Q 6.59375 54.828125 13.0625 64.515625 
Q 19.53125 74.21875 31.78125 74.21875 
z
" id="DejaVuSans-48"/>
      </defs>
      <g transform="translate(7.2 364.957272)scale(0.2 -0.2)">
       <use xlink:href="#DejaVuSans-49"/>
       <use x="63.623047" xlink:href="#DejaVuSans-48"/>
      </g>
     </g>
    </g>
    <g id="ytick_3">
     <g id="line2d_3">
      <g>
       <use style="stroke:#000000;stroke-width:0.8;" x="39.65" xlink:href="#m575ce0b572" y="291.616342"/>
      </g>
     </g>
     <g id="text_3">
      <!-- 15 -->
      <g transform="translate(7.2 299.214779)scale(0.2 -0.2)">
       <use xlink:href="#DejaVuSans-49"/>
       <use x="63.623047" xlink:href="#DejaVuSans-53"/>
      </g>
     </g>
    </g>
    <g id="ytick_4">
     <g id="line2d_4">
      <g>
       <use style="stroke:#000000;stroke-width:0.8;" x="39.65" xlink:href="#m575ce0b572" y="225.87385"/>
      </g>
     </g>
     <g id="text_4">
      <!-- 20 -->
      <defs>
       <path d="M 19.1875 8.296875 
L 53.609375 8.296875 
L 53.609375 0 
L 7.328125 0 
L 7.328125 8.296875 
Q 12.9375 14.109375 22.625 23.890625 
Q 32.328125 33.6875 34.8125 36.53125 
Q 39.546875 41.84375 41.421875 45.53125 
Q 43.3125 49.21875 43.3125 52.78125 
Q 43.3125 58.59375 39.234375 62.25 
Q 35.15625 65.921875 28.609375 65.921875 
Q 23.96875 65.921875 18.8125 64.3125 
Q 13.671875 62.703125 7.8125 59.421875 
L 7.8125 69.390625 
Q 13.765625 71.78125 18.9375 73 
Q 24.125 74.21875 28.421875 74.21875 
Q 39.75 74.21875 46.484375 68.546875 
Q 53.21875 62.890625 53.21875 53.421875 
Q 53.21875 48.921875 51.53125 44.890625 
Q 49.859375 40.875 45.40625 35.40625 
Q 44.1875 33.984375 37.640625 27.21875 
Q 31.109375 20.453125 19.1875 8.296875 
z
" id="DejaVuSans-50"/>
      </defs>
      <g transform="translate(7.2 233.472287)scale(0.2 -0.2)">
       <use xlink:href="#DejaVuSans-50"/>
       <use x="63.623047" xlink:href="#DejaVuSans-48"/>
      </g>
     </g>
    </g>
    <g id="ytick_5">
     <g id="line2d_5">
      <g>
       <use style="stroke:#000000;stroke-width:0.8;" x="39.65" xlink:href="#m575ce0b572" y="160.131357"/>
      </g>
     </g>
     <g id="text_5">
      <!-- 25 -->
      <g transform="translate(7.2 167.729795)scale(0.2 -0.2)">
       <use xlink:href="#DejaVuSans-50"/>
       <use x="63.623047" xlink:href="#DejaVuSans-53"/>
      </g>
     </g>
    </g>
    <g id="ytick_6">
     <g id="line2d_6">
      <g>
       <use style="stroke:#000000;stroke-width:0.8;" x="39.65" xlink:href="#m575ce0b572" y="94.388865"/>
      </g>
     </g>
     <g id="text_6">
      <!-- 30 -->
      <defs>
       <path d="M 40.578125 39.3125 
Q 47.65625 37.796875 51.625 33 
Q 55.609375 28.21875 55.609375 21.1875 
Q 55.609375 10.40625 48.1875 4.484375 
Q 40.765625 -1.421875 27.09375 -1.421875 
Q 22.515625 -1.421875 17.65625 -0.515625 
Q 12.796875 0.390625 7.625 2.203125 
L 7.625 11.71875 
Q 11.71875 9.328125 16.59375 8.109375 
Q 21.484375 6.890625 26.8125 6.890625 
Q 36.078125 6.890625 40.9375 10.546875 
Q 45.796875 14.203125 45.796875 21.1875 
Q 45.796875 27.640625 41.28125 31.265625 
Q 36.765625 34.90625 28.71875 34.90625 
L 20.21875 34.90625 
L 20.21875 43.015625 
L 29.109375 43.015625 
Q 36.375 43.015625 40.234375 45.921875 
Q 44.09375 48.828125 44.09375 54.296875 
Q 44.09375 59.90625 40.109375 62.90625 
Q 36.140625 65.921875 28.71875 65.921875 
Q 24.65625 65.921875 20.015625 65.03125 
Q 15.375 64.15625 9.8125 62.3125 
L 9.8125 71.09375 
Q 15.4375 72.65625 20.34375 73.4375 
Q 25.25 74.21875 29.59375 74.21875 
Q 40.828125 74.21875 47.359375 69.109375 
Q 53.90625 64.015625 53.90625 55.328125 
Q 53.90625 49.265625 50.4375 45.09375 
Q 46.96875 40.921875 40.578125 39.3125 
z
" id="DejaVuSans-51"/>
      </defs>
      <g transform="translate(7.2 101.987302)scale(0.2 -0.2)">
       <use xlink:href="#DejaVuSans-51"/>
       <use x="63.623047" xlink:href="#DejaVuSans-48"/>
      </g>
     </g>
    </g>
   </g>
   <g id="line2d_7">
    <path clip-path="url(#pbc67652a64)" d="M 198.96 383.62559 
L 198.96 95.74316 
" style="fill:none;stroke:#797979;stroke-linecap:square;stroke-width:1.5;"/>
   </g>
   <g id="line2d_8">
    <path clip-path="url(#pbc67652a64)" d="M 198.96 311.014322 
L 198.96 185.139801 
" style="fill:none;stroke:#797979;stroke-linecap:square;stroke-width:4.5;"/>
   </g>
   <g id="patch_3">
    <path d="M 39.65 443.134375 
L 39.65 36.234375 
" style="fill:none;stroke:#000000;stroke-linecap:square;stroke-linejoin:miter;stroke-width:0.8;"/>
   </g>
   <g id="patch_4">
    <path d="M 358.27 443.134375 
L 358.27 36.234375 
" style="fill:none;stroke:#000000;stroke-linecap:square;stroke-linejoin:miter;stroke-width:0.8;"/>
   </g>
   <g id="patch_5">
    <path d="M 39.65 443.134375 
L 358.27 443.134375 
" style="fill:none;stroke:#000000;stroke-linecap:square;stroke-linejoin:miter;stroke-width:0.8;"/>
   </g>
   <g id="patch_6">
    <path d="M 39.65 36.234375 
L 358.27 36.234375 
" style="fill:none;stroke:#000000;stroke-linecap:square;stroke-linejoin:miter;stroke-width:0.8;"/>
   </g>
   <g id="PathCollection_1">
    <defs>
     <path d="M 0 1.5 
C 0.397805 1.5 0.77937 1.341951 1.06066 1.06066 
C 1.341951 0.77937 1.5 0.397805 1.5 0 
C 1.5 -0.397805 1.341951 -0.77937 1.06066 -1.06066 
C 0.77937 -1.341951 0.397805 -1.5 0 -1.5 
C -0.397805 -1.5 -0.77937 -1.341951 -1.06066 -1.06066 
C -1.341951 -0.77937 -1.5 -0.397805 -1.5 0 
C -1.5 0.397805 -1.341951 0.77937 -1.06066 1.06066 
C -0.77937 1.341951 -0.397805 1.5 0 1.5 
z
" id="m1453c7b6c0" style="stroke:#797979;"/>
    </defs>
    <g clip-path="url(#pbc67652a64)">
     <use style="fill:#ffffff;stroke:#797979;" x="198.96" xlink:href="#m1453c7b6c0" y="250.440504"/>
    </g>
   </g>
   <g id="text_7">
    <!-- Attenuation -->
    <defs>
     <path d="M 34.1875 63.1875 
L 20.796875 26.90625 
L 47.609375 26.90625 
z
M 28.609375 72.90625 
L 39.796875 72.90625 
L 67.578125 0 
L 57.328125 0 
L 50.6875 18.703125 
L 17.828125 18.703125 
L 11.1875 0 
L 0.78125 0 
z
" id="DejaVuSans-65"/>
     <path d="M 18.3125 70.21875 
L 18.3125 54.6875 
L 36.8125 54.6875 
L 36.8125 47.703125 
L 18.3125 47.703125 
L 18.3125 18.015625 
Q 18.3125 11.328125 20.140625 9.421875 
Q 21.96875 7.515625 27.59375 7.515625 
L 36.8125 7.515625 
L 36.8125 0 
L 27.59375 0 
Q 17.1875 0 13.234375 3.875 
Q 9.28125 7.765625 9.28125 18.015625 
L 9.28125 47.703125 
L 2.6875 47.703125 
L 2.6875 54.6875 
L 9.28125 54.6875 
L 9.28125 70.21875 
z
" id="DejaVuSans-116"/>
     <path d="M 56.203125 29.59375 
L 56.203125 25.203125 
L 14.890625 25.203125 
Q 15.484375 15.921875 20.484375 11.0625 
Q 25.484375 6.203125 34.421875 6.203125 
Q 39.59375 6.203125 44.453125 7.46875 
Q 49.3125 8.734375 54.109375 11.28125 
L 54.109375 2.78125 
Q 49.265625 0.734375 44.1875 -0.34375 
Q 39.109375 -1.421875 33.890625 -1.421875 
Q 20.796875 -1.421875 13.15625 6.1875 
Q 5.515625 13.8125 5.515625 26.8125 
Q 5.515625 40.234375 12.765625 48.109375 
Q 20.015625 56 32.328125 56 
Q 43.359375 56 49.78125 48.890625 
Q 56.203125 41.796875 56.203125 29.59375 
z
M 47.21875 32.234375 
Q 47.125 39.59375 43.09375 43.984375 
Q 39.0625 48.390625 32.421875 48.390625 
Q 24.90625 48.390625 20.390625 44.140625 
Q 15.875 39.890625 15.1875 32.171875 
z
" id="DejaVuSans-101"/>
     <path d="M 54.890625 33.015625 
L 54.890625 0 
L 45.90625 0 
L 45.90625 32.71875 
Q 45.90625 40.484375 42.875 44.328125 
Q 39.84375 48.1875 33.796875 48.1875 
Q 26.515625 48.1875 22.3125 43.546875 
Q 18.109375 38.921875 18.109375 30.90625 
L 18.109375 0 
L 9.078125 0 
L 9.078125 54.6875 
L 18.109375 54.6875 
L 18.109375 46.1875 
Q 21.34375 51.125 25.703125 53.5625 
Q 30.078125 56 35.796875 56 
Q 45.21875 56 50.046875 50.171875 
Q 54.890625 44.34375 54.890625 33.015625 
z
" id="DejaVuSans-110"/>
     <path d="M 8.5 21.578125 
L 8.5 54.6875 
L 17.484375 54.6875 
L 17.484375 21.921875 
Q 17.484375 14.15625 20.5 10.265625 
Q 23.53125 6.390625 29.59375 6.390625 
Q 36.859375 6.390625 41.078125 11.03125 
Q 45.3125 15.671875 45.3125 23.6875 
L 45.3125 54.6875 
L 54.296875 54.6875 
L 54.296875 0 
L 45.3125 0 
L 45.3125 8.40625 
Q 42.046875 3.421875 37.71875 1 
Q 33.40625 -1.421875 27.6875 -1.421875 
Q 18.265625 -1.421875 13.375 4.4375 
Q 8.5 10.296875 8.5 21.578125 
z
M 31.109375 56 
z
" id="DejaVuSans-117"/>
     <path d="M 34.28125 27.484375 
Q 23.390625 27.484375 19.1875 25 
Q 14.984375 22.515625 14.984375 16.5 
Q 14.984375 11.71875 18.140625 8.90625 
Q 21.296875 6.109375 26.703125 6.109375 
Q 34.1875 6.109375 38.703125 11.40625 
Q 43.21875 16.703125 43.21875 25.484375 
L 43.21875 27.484375 
z
M 52.203125 31.203125 
L 52.203125 0 
L 43.21875 0 
L 43.21875 8.296875 
Q 40.140625 3.328125 35.546875 0.953125 
Q 30.953125 -1.421875 24.3125 -1.421875 
Q 15.921875 -1.421875 10.953125 3.296875 
Q 6 8.015625 6 15.921875 
Q 6 25.140625 12.171875 29.828125 
Q 18.359375 34.515625 30.609375 34.515625 
L 43.21875 34.515625 
L 43.21875 35.40625 
Q 43.21875 41.609375 39.140625 45 
Q 35.0625 48.390625 27.6875 48.390625 
Q 23 48.390625 18.546875 47.265625 
Q 14.109375 46.140625 10.015625 43.890625 
L 10.015625 52.203125 
Q 14.9375 54.109375 19.578125 55.046875 
Q 24.21875 56 28.609375 56 
Q 40.484375 56 46.34375 49.84375 
Q 52.203125 43.703125 52.203125 31.203125 
z
" id="DejaVuSans-97"/>
     <path d="M 9.421875 54.6875 
L 18.40625 54.6875 
L 18.40625 0 
L 9.421875 0 
z
M 9.421875 75.984375 
L 18.40625 75.984375 
L 18.40625 64.59375 
L 9.421875 64.59375 
z
" id="DejaVuSans-105"/>
     <path d="M 30.609375 48.390625 
Q 23.390625 48.390625 19.1875 42.75 
Q 14.984375 37.109375 14.984375 27.296875 
Q 14.984375 17.484375 19.15625 11.84375 
Q 23.34375 6.203125 30.609375 6.203125 
Q 37.796875 6.203125 41.984375 11.859375 
Q 46.1875 17.53125 46.1875 27.296875 
Q 46.1875 37.015625 41.984375 42.703125 
Q 37.796875 48.390625 30.609375 48.390625 
z
M 30.609375 56 
Q 42.328125 56 49.015625 48.375 
Q 55.71875 40.765625 55.71875 27.296875 
Q 55.71875 13.875 49.015625 6.21875 
Q 42.328125 -1.421875 30.609375 -1.421875 
Q 18.84375 -1.421875 12.171875 6.21875 
Q 5.515625 13.875 5.515625 27.296875 
Q 5.515625 40.765625 12.171875 48.375 
Q 18.84375 56 30.609375 56 
z
" id="DejaVuSans-111"/>
    </defs>
    <g transform="translate(110.774063 29.995313)scale(0.3 -0.3)">
     <use xlink:href="#DejaVuSans-65"/>
     <use x="68.392578" xlink:href="#DejaVuSans-116"/>
     <use x="107.601562" xlink:href="#DejaVuSans-116"/>
     <use x="146.810547" xlink:href="#DejaVuSans-101"/>
     <use x="208.333984" xlink:href="#DejaVuSans-110"/>
     <use x="271.712891" xlink:href="#DejaVuSans-117"/>
     <use x="335.091797" xlink:href="#DejaVuSans-97"/>
     <use x="396.371094" xlink:href="#DejaVuSans-116"/>
     <use x="435.580078" xlink:href="#DejaVuSans-105"/>
     <use x="463.363281" xlink:href="#DejaVuSans-111"/>
     <use x="524.544922" xlink:href="#DejaVuSans-110"/>
    </g>
   </g>
  </g>
 </g>
 <defs>
  <clipPath id="pbc67652a64">
   <rect height="406.9" width="318.62" x="39.65" y="36.234375"/>
  </clipPath>
 </defs>
</svg>
